<?xml version="1.0" encoding="utf-8"?>
<!-- Generator: Adobe Illustrator 21.1.0, SVG Export Plug-In . SVG Version: 6.00 Build 0)  -->
<svg version="1.1" id="Layer_1" xmlns="http://www.w3.org/2000/svg" xmlns:xlink="http://www.w3.org/1999/xlink" x="0px" y="0px"
	 viewBox="0 0 100 100" style="enable-background:new 0 0 100 100;" xml:space="preserve">
<style type="text/css">
	.st0{fill:url(#SVGID_1_);}
	.st1{fill:url(#SVGID_2_);}
	.st2{fill:url(#SVGID_3_);}
</style>
<g>
	<linearGradient id="SVGID_1_" gradientUnits="userSpaceOnUse" x1="41.1875" y1="56.6484" x2="57.6602" y2="56.6484">
		<stop  offset="0" style="stop-color:#3967A3"/>
		<stop  offset="1" style="stop-color:#515498"/>
	</linearGradient>
	<path class="st0" d="M41.9,58.2c0,0,2.1,1,2.8,3.3c0.3,1.1,1,1.4,1.4,1.4c0.1,0,0.1,0,0.2,0c1,0,1.5-0.9,2.4-2.4
		c1.4-2.3,3.7-6.2,8-7.8c0.7-0.2,1-1,0.8-1.6c-0.2-0.7-1-1-1.6-0.8c-5.2,1.8-7.9,6.4-9.3,8.9c0,0,0,0,0,0c-1.3-2.4-3.5-3.4-3.6-3.4
		c-0.6-0.3-1.4,0-1.7,0.7C41,57.2,41.3,58,41.9,58.2z"/>
	<linearGradient id="SVGID_2_" gradientUnits="userSpaceOnUse" x1="22.0913" y1="38.9853" x2="77.5486" y2="38.9853">
		<stop  offset="0" style="stop-color:#0F7FB1"/>
		<stop  offset="1" style="stop-color:#703A8A"/>
	</linearGradient>
	<path class="st1" d="M76.3,66.8h-7.8c0-0.2,0.1-0.3,0.1-0.5V46.4c0-0.8-0.4-1.5-1-2c0.1-3.1,0.2-6.2,0.2-8.6c0-2.2-0.4-4.5-1.1-6.6
		l-1.2-3.8c-0.2-0.7-0.5-2-0.6-2.8l-0.3-2.5H65c1.8,0,3.3-1.5,3.3-3.3v-4.9c0-1.8-1.5-3.3-3.3-3.3H34.4c-1.8,0-3.3,1.5-3.3,3.3v4.9
		c0,1.8,1.5,3.3,3.3,3.3h0l-0.2,2.3c-0.1,0.7-0.3,2-0.6,2.7L32,29.8c-0.5,1.4-0.7,2.9-0.7,4.4c0.1,3,0.5,8,0.7,10.2
		c-0.6,0.5-1,1.2-1,2v19.9c0,0.2,0,0.4,0.1,0.5h-7.7c-0.7,0-1.3,0.6-1.3,1.3c0,0.7,0.6,1.3,1.3,1.3h52.9c0.7,0,1.3-0.6,1.3-1.3
		C77.5,67.4,77,66.8,76.3,66.8z M34.4,17.6c-0.4,0-0.8-0.3-0.8-0.8v-4.9c0-0.4,0.3-0.8,0.8-0.8H65c0.4,0,0.8,0.3,0.8,0.8v4.9
		c0,0.4-0.3,0.8-0.8,0.8H34.4z M34.4,30.6l1.7-4.7c0.3-0.9,0.6-2.3,0.7-3.3l0.2-2.6h24.7l0.4,2.9c0.1,0.9,0.4,2.3,0.7,3.2l1.2,3.8
		c0.6,1.9,0.9,3.9,1,5.8c0.1,4.7-0.4,13-0.6,16.3c0,0.7-0.5,1.3-1.2,1.4c-0.2-0.1-0.6-0.5-0.7-0.6c-1.1-2.6-1.1-8.2-1.1-13.2
		c0-0.6-0.5-1.2-1.1-1.3c-0.3-0.1-7.7-1.4-8.5-8.9c-0.1-0.7-0.7-1.2-1.4-1.1c-0.7,0.1-1.2,0.7-1.1,1.4c0.8,7.6,7,10.1,9.6,10.9
		c0,1,0,2,0,2.9h-2.6v-0.1c0-0.7-0.6-1.3-1.3-1.3c-0.7,0-1.3,0.6-1.3,1.3v0.1h-5.6v-0.1c0-0.7-0.6-1.3-1.3-1.3
		c-0.7,0-1.3,0.6-1.3,1.3v0.1h-5.6v-0.1c0-0.7-0.6-1.3-1.3-1.3c-0.7,0-1.3,0.6-1.3,1.3v0.1h-3.1c-0.2-2.4-0.5-6.8-0.6-9.5
		C33.8,32.9,34,31.7,34.4,30.6z M33.9,46.5c0.1,0,0.2-0.1,0.4-0.1h24.9c0.1,3,0.5,5.7,1.2,7.5c0.3,0.6,1.5,2.2,3,2.2
		c0,0,0.1,0,0.1,0c0.8-0.1,1.6-0.4,2.2-0.9v11c-0.1,0-0.2,0.1-0.4,0.1h-31c-0.2,0-0.3-0.1-0.4-0.1V46.5z"/>
	<linearGradient id="SVGID_3_" gradientUnits="userSpaceOnUse" x1="0.5271" y1="66.7379" x2="99.4729" y2="66.7379">
		<stop  offset="0" style="stop-color:#0099C3"/>
		<stop  offset="1" style="stop-color:#8C1E81"/>
	</linearGradient>
	<path class="st2" d="M99.5,90.1C99.5,90.1,99.5,90.1,99.5,90.1C99.5,90.1,99.5,90.1,99.5,90.1c0-0.2,0-0.4-0.1-0.5l0,0c0,0,0,0,0,0
		L81.6,42.9C81.4,42.4,81,42,80.5,42h-9.4c-0.7,0-1.3,0.6-1.3,1.3s0.6,1.3,1.3,1.3h8.5l16.7,44.1H50.2c-0.1,0-0.1,0-0.2,0
		c-0.1,0-0.1,0-0.2,0H3.7l16.7-44.1h7.5c0.7,0,1.3-0.6,1.3-1.3S28.6,42,27.9,42h-8.4c-0.5,0-1,0.3-1.2,0.8L0.6,89.6c0,0,0,0,0,0l0,0
		c-0.1,0.1-0.1,0.3-0.1,0.4c0,0,0,0,0,0.1c0,0,0,0,0,0c0,0.2,0,0.3,0.1,0.4c0,0,0,0,0,0.1c0,0.1,0.1,0.1,0.1,0.2
		c0,0.1,0.1,0.1,0.1,0.1c0,0,0,0,0.1,0.1c0.1,0.1,0.2,0.2,0.4,0.2c0,0,0.1,0,0.1,0c0.1,0.1,0.3,0.1,0.4,0.1h48c0.1,0,0.1,0,0.2,0
		c0.1,0,0.1,0,0.2,0h48c0.2,0,0.3,0,0.4-0.1c0,0,0.1,0,0.1,0c0.1-0.1,0.2-0.1,0.4-0.2c0,0,0,0,0.1-0.1c0,0,0.1-0.1,0.1-0.1
		c0-0.1,0.1-0.1,0.1-0.2c0,0,0,0,0-0.1C99.4,90.4,99.5,90.3,99.5,90.1z"/>
</g>
</svg>
