<?xml version="1.0" encoding="utf-8"?>
<!-- Generator: Adobe Illustrator 22.0.1, SVG Export Plug-In . SVG Version: 6.00 Build 0)  -->
<svg version="1.1" id="Layer_1" xmlns="http://www.w3.org/2000/svg" xmlns:xlink="http://www.w3.org/1999/xlink" x="0px" y="0px"
	 viewBox="0 0 96 96" style="enable-background:new 0 0 96 96;" xml:space="preserve">
<style type="text/css">
	.st0{fill:#565656;}
</style>
<g id="XMLID_1_">
	<circle id="XMLID_3_" class="st0" cx="47.7" cy="48.4" r="8.2"/>
	<path id="XMLID_7_" class="st0" d="M58,28.3H37.4c-3,0-5.7,1-7.4,2.7c-1.7,1.7-2.7,4.4-2.7,7.4V59c0,3,1,5.7,2.8,7.5
		c1.8,1.7,4.4,2.7,7.4,2.7H58c3,0,5.7-1,7.4-2.7c1.8-1.7,2.8-4.4,2.8-7.4V38.4c0-3-1-5.4-2.7-7.4C63.7,29.1,61.2,28.3,58,28.3z
		 M47.7,61.2c-7,0-12.7-5.9-12.7-12.7c0-7,5.9-12.7,12.7-12.7s12.9,5.7,12.9,12.7S54.8,61.2,47.7,61.2z M61,38.2c-1.7,0-3-1.3-3-3
		c0-1.7,1.3-3,3-3s3,1.3,3,3C64,36.9,62.7,38.2,61,38.2z"/>
	<path id="XMLID_10_" class="st0" d="M48.1,2C22.6,2,2,22.6,2,48.1s20.6,46.1,46.1,46.1s46.1-20.6,46.1-46.1
		C94.3,22.6,73.6,2,48.1,2z M72.5,59c0,4.4-1.5,8-4.2,10.7c-2.7,2.7-6.4,3.9-10.6,3.9H37.5c-4.2,0-7.9-1.3-10.6-3.9
		c-2.8-2.7-4.2-6.4-4.2-10.7V38.4c0-8.5,5.9-14.6,14.6-14.6h20.8c4.4,0,7.9,1.5,10.6,4.2c2.7,2.7,3.9,6.2,3.9,10.6V59z"/>
</g>
</svg>
