<?xml version="1.0" encoding="utf-8"?>
<!-- Generator: Adobe Illustrator 21.1.0, SVG Export Plug-In . SVG Version: 6.00 Build 0)  -->
<svg version="1.1" id="Layer_1" xmlns="http://www.w3.org/2000/svg" xmlns:xlink="http://www.w3.org/1999/xlink" x="0px" y="0px"
	 viewBox="0 0 100 100" style="enable-background:new 0 0 100 100;" xml:space="preserve">
<style type="text/css">
	.st0{fill:url(#SVGID_1_);}
	.st1{fill:url(#SVGID_2_);}
	.st2{fill:url(#SVGID_3_);}
	.st3{fill:url(#SVGID_4_);}
	.st4{fill:#3A66A2;}
	.st5{fill:#3E63A0;}
	.st6{fill:#42609F;}
</style>
<g>
	<linearGradient id="SVGID_1_" gradientUnits="userSpaceOnUse" x1="0.3125" y1="66.8709" x2="99.6875" y2="66.8709">
		<stop  offset="0" style="stop-color:#0099C3"/>
		<stop  offset="1" style="stop-color:#8C1E81"/>
	</linearGradient>
	<path class="st0" d="M99.7,90.3c0-0.1,0-0.3-0.1-0.4l0,0c0,0,0,0,0,0L81.8,42.9c-0.2-0.5-0.7-0.8-1.2-0.8H67.7
		c-0.7,0-1.3,0.6-1.3,1.3c0,0.7,0.6,1.3,1.3,1.3h12L96.5,89H50.2c-0.1,0-0.1,0-0.2,0c-0.1,0-0.1,0-0.2,0H3.5l16.8-44.3h12
		c0.7,0,1.3-0.6,1.3-1.3c0-0.7-0.6-1.3-1.3-1.3H19.4c-0.5,0-1,0.3-1.2,0.8L0.4,89.8c0,0,0,0,0,0l0,0c-0.1,0.1-0.1,0.3-0.1,0.4
		c0,0,0,0,0,0.1c0,0,0,0,0,0c0,0.2,0,0.3,0.1,0.4c0,0,0,0,0,0.1c0,0.1,0.1,0.1,0.1,0.2c0,0.1,0.1,0.1,0.1,0.1c0,0,0,0,0.1,0.1
		c0.1,0.1,0.2,0.2,0.4,0.2c0,0,0.1,0,0.1,0c0.1,0.1,0.3,0.1,0.4,0.1h48.2c0.1,0,0.1,0,0.2,0c0.1,0,0.1,0,0.2,0h48.2
		c0.2,0,0.3,0,0.4-0.1c0,0,0.1,0,0.1,0c0.1-0.1,0.2-0.1,0.4-0.2c0,0,0,0,0.1-0.1c0,0,0.1-0.1,0.1-0.1c0-0.1,0.1-0.1,0.1-0.2
		c0,0,0,0,0-0.1C99.6,90.7,99.7,90.5,99.7,90.3C99.7,90.4,99.7,90.3,99.7,90.3C99.7,90.3,99.7,90.3,99.7,90.3z"/>
	<linearGradient id="SVGID_2_" gradientUnits="userSpaceOnUse" x1="35.001" y1="38.1816" x2="64.0252" y2="38.1816">
		<stop  offset="0" style="stop-color:#306DA7"/>
		<stop  offset="1" style="stop-color:#614791"/>
	</linearGradient>
	<path class="st1" d="M44.5,47.7c1.8,0,3.5-0.5,5-1.4c1.5,0.9,3.2,1.5,5,1.5c5.2,0,9.5-4.3,9.5-9.5s-4.3-9.5-9.5-9.5
		c-1.8,0-3.5,0.5-5,1.4c-1.5-0.9-3.2-1.5-5-1.5c-5.2,0-9.5,4.3-9.5,9.5S39.3,47.7,44.5,47.7z M51.8,32.2c0.8-0.4,1.7-0.6,2.7-0.6
		c3.6,0,6.6,3,6.6,6.6s-3,6.6-6.6,6.6c-1,0-1.9-0.2-2.7-0.6c1.4-1.6,2.2-3.7,2.2-6C54,35.9,53.2,33.8,51.8,32.2z M44.5,31.6
		c1,0,1.9,0.2,2.7,0.6c0.9,0.4,1.7,1,2.3,1.7c1,1.2,1.6,2.6,1.6,4.3c0,1.6-0.6,3.1-1.6,4.3c-0.6,0.7-1.4,1.3-2.3,1.7
		c-0.8,0.4-1.7,0.6-2.7,0.6c-3.6,0-6.6-3-6.6-6.6C37.9,34.5,40.9,31.6,44.5,31.6z"/>
	<linearGradient id="SVGID_3_" gradientUnits="userSpaceOnUse" x1="29.3425" y1="59.7112" x2="69.6838" y2="59.7112">
		<stop  offset="0" style="stop-color:#2674AB"/>
		<stop  offset="1" style="stop-color:#654490"/>
	</linearGradient>
	<path class="st2" d="M54.5,48.2c-1.7,0-3.4,0.4-5,1.1c-1.6-0.7-3.3-1.1-5-1.1c-3.5,0-6.9,1.5-9.2,4.2c-3.5,4.1-5.5,9.4-5.9,15.8
		c-0.1,0.8,0.2,1.6,0.8,2.2c0.5,0.6,1.3,0.9,2.1,0.9h9.9c0.1,0,0.1,0,0.2,0h24.5c0.8,0,1.6-0.3,2.1-0.9c0.5-0.6,0.8-1.4,0.8-2.2
		c-0.4-6.4-2.4-11.8-5.9-15.8C61.4,49.7,58.1,48.2,54.5,48.2z M42.3,68.3l-2.9,0l-7.1,0c0.4-5.8,2.1-10.5,5.2-14.1
		c1.8-2,4.3-3.2,7-3.2c0.7,0,1.3,0.1,1.9,0.2c1.1,0.2,2.2,0.7,3.1,1.3c0.7,0.5,1.4,1,2,1.7c3.1,3.6,4.9,8.3,5.2,14.1L42.3,68.3z
		 M66.8,68.4L66.8,68.4l-7.1,0c0-0.1,0-0.1,0-0.2c-0.4-6.4-2.4-11.8-5.9-15.8v0c-0.3-0.4-0.7-0.7-1.1-1.1c0.6-0.1,1.2-0.2,1.9-0.2
		c2.7,0,5.3,1.2,7,3.2C64.7,57.8,66.4,62.6,66.8,68.4z"/>
	<linearGradient id="SVGID_4_" gradientUnits="userSpaceOnUse" x1="35.2378" y1="17.4534" x2="63.3354" y2="17.4534">
		<stop  offset="0" style="stop-color:#306DA7"/>
		<stop  offset="1" style="stop-color:#614791"/>
	</linearGradient>
	<path class="st3" d="M36.4,26.3c0.3,0.2,0.7,0.3,1,0.3c0.4,0,0.9-0.1,1.2-0.4l2.3-1.6h8.4c1.8,0,3.4-1.1,4-2.7h4.3l2.3,1.6
		c0.4,0.3,0.8,0.4,1.2,0.4c0.3,0,0.7-0.1,1-0.3c0.7-0.4,1.2-1.1,1.2-1.9v-9c0-2.4-1.9-4.3-4.3-4.3h-9.7c-1.8,0-3.4,1.1-4,2.7h-5.7
		c-2.4,0-4.3,1.9-4.3,4.3v9C35.2,25.2,35.7,25.9,36.4,26.3z M59,11.2c0.8,0,1.4,0.6,1.4,1.4v7.7l-1.6-1.1c-0.2-0.2-0.5-0.3-0.8-0.3
		h-4.4v-3.7c0-1.9-1.3-3.6-3-4.1H59z M38.1,15.4c0-0.8,0.6-1.4,1.4-1.4h5.3h2.9h1.5c0.8,0,1.4,0.6,1.4,1.4V19v1.2
		c0,0.8-0.6,1.4-1.4,1.4h-1.4h-7.4c-0.3,0-0.6,0.1-0.8,0.3L38.1,23V15.4z"/>
	<circle class="st4" cx="41.7" cy="17.8" r="0.9"/>
	<circle class="st5" cx="44.4" cy="17.8" r="0.9"/>
	<circle class="st6" cx="47.2" cy="17.8" r="0.9"/>
</g>
</svg>
