<?xml version="1.0" encoding="utf-8"?>
<!-- Generator: Adobe Illustrator 21.1.0, SVG Export Plug-In . SVG Version: 6.00 Build 0)  -->
<svg version="1.1" id="Layer_1" xmlns="http://www.w3.org/2000/svg" xmlns:xlink="http://www.w3.org/1999/xlink" x="0px" y="0px"
	 viewBox="0 0 100 100" style="enable-background:new 0 0 100 100;" xml:space="preserve">
<style type="text/css">
	.st0{fill:none;}
	.st1{fill:url(#SVGID_1_);}
	.st2{fill:url(#SVGID_2_);}
	.st3{fill:url(#SVGID_3_);}
	.st4{fill:url(#SVGID_4_);}
	.st5{fill:url(#SVGID_5_);}
	.st6{fill:url(#SVGID_6_);}
</style>
<g>
	<g>
		<path class="st0" d="M38.4,20.5"/>
	</g>
</g>
<g>
	<linearGradient id="SVGID_1_" gradientUnits="userSpaceOnUse" x1="97.6704" y1="90.9744" x2="97.6704" y2="90.9744">
		<stop  offset="0" style="stop-color:#0099C3"/>
		<stop  offset="1" style="stop-color:#8C1E81"/>
	</linearGradient>
	<path class="st1" d="M97.7,91"/>
</g>
<g>
	<linearGradient id="SVGID_2_" gradientUnits="userSpaceOnUse" x1="0" y1="67.2492" x2="100" y2="67.2492">
		<stop  offset="0" style="stop-color:#0099C3"/>
		<stop  offset="1" style="stop-color:#8C1E81"/>
	</linearGradient>
	<path class="st2" d="M100,90.9C100,90.9,100,90.9,100,90.9C100,90.8,100,90.8,100,90.9c0-0.2,0-0.4-0.1-0.5l0,0c0,0,0,0,0,0
		L82,43.1c-0.2-0.5-0.7-0.9-1.2-0.9h-13c-0.7,0-1.3,0.6-1.3,1.3c0,0.7,0.6,1.3,1.3,1.3h12.1l16.9,44.5H50.2c-0.1,0-0.1,0-0.2,0
		c-0.1,0-0.1,0-0.2,0H3.2L20.1,45h12.1c0.7,0,1.3-0.6,1.3-1.3c0-0.7-0.6-1.3-1.3-1.3h-13c-0.5,0-1,0.3-1.2,0.9L0.1,90.3c0,0,0,0,0,0
		l0,0C0,90.5,0,90.7,0,90.8c0,0,0,0,0,0.1c0,0,0,0,0,0c0,0.2,0,0.3,0.1,0.5c0,0,0,0,0,0.1c0,0.1,0.1,0.1,0.1,0.2
		c0,0.1,0.1,0.1,0.1,0.1c0,0,0,0,0.1,0.1c0.1,0.1,0.2,0.2,0.4,0.2c0,0,0.1,0,0.1,0c0.1,0.1,0.3,0.1,0.4,0.1h48.5c0.1,0,0.1,0,0.2,0
		c0.1,0,0.1,0,0.2,0h48.5c0.2,0,0.3,0,0.4-0.1c0,0,0.1,0,0.1,0c0.1-0.1,0.3-0.1,0.4-0.2c0,0,0,0,0.1-0.1c0,0,0.1-0.1,0.1-0.1
		c0-0.1,0.1-0.1,0.1-0.2c0,0,0,0,0-0.1C100,91.2,100,91.1,100,90.9z"/>
</g>
<g>
	<linearGradient id="SVGID_3_" gradientUnits="userSpaceOnUse" x1="33.1285" y1="26.33" x2="33.1285" y2="26.33">
		<stop  offset="0" style="stop-color:#2B71A9"/>
		<stop  offset="1" style="stop-color:#5E4993"/>
	</linearGradient>
	<path class="st3" d="M33.1,26.3"/>
</g>
<g>
	<linearGradient id="SVGID_4_" gradientUnits="userSpaceOnUse" x1="33.5745" y1="30.9812" x2="66.876" y2="30.9812">
		<stop  offset="0" style="stop-color:#2B71A9"/>
		<stop  offset="1" style="stop-color:#5E4993"/>
	</linearGradient>
	<path class="st4" d="M50.2,54.2c-0.5,0-1-0.3-1.3-0.7L36.3,33.9c-3.3-5.1-3.6-11.3-1-16.7c2.6-5.3,7.7-8.8,13.6-9.4
		c0.8-0.1,1.2-0.1,1.3-0.1c0.1,0,0.6,0,1.3,0.1c5.9,0.5,11,4,13.6,9.4c2.6,5.4,2.3,11.7-1,16.7L51.5,53.5
		C51.2,53.9,50.7,54.2,50.2,54.2z M50.1,10.7c-0.1,0-0.5,0-1,0c-4.9,0.4-9.1,3.3-11.2,7.7c-2.2,4.5-1.9,9.7,0.8,13.9l11.5,17.7
		l11.5-17.7c2.7-4.2,3-9.4,0.8-13.9c-2.2-4.4-6.3-7.3-11.2-7.7c-0.6-0.1-1,0-1,0C50.3,10.7,50.2,10.7,50.1,10.7
		C50.2,10.7,50.2,10.7,50.1,10.7C50.2,10.7,50.2,10.7,50.1,10.7z"/>
</g>
<g>
	<linearGradient id="SVGID_5_" gradientUnits="userSpaceOnUse" x1="43.2511" y1="25.4634" x2="57.1994" y2="25.4634">
		<stop  offset="0" style="stop-color:#3B65A2"/>
		<stop  offset="1" style="stop-color:#505599"/>
	</linearGradient>
	<path class="st5" d="M50.2,32.4c-3.8,0-7-3.1-7-7c0-3.8,3.1-7,7-7s7,3.1,7,7C57.2,29.3,54.1,32.4,50.2,32.4z M50.2,21.4
		c-2.2,0-4.1,1.8-4.1,4.1s1.8,4.1,4.1,4.1c2.2,0,4.1-1.8,4.1-4.1S52.5,21.4,50.2,21.4z"/>
</g>
<g>
	<linearGradient id="SVGID_6_" gradientUnits="userSpaceOnUse" x1="42.1295" y1="67.3284" x2="57.4441" y2="67.3284">
		<stop  offset="0" style="stop-color:#3B65A2"/>
		<stop  offset="1" style="stop-color:#505599"/>
	</linearGradient>
	<path class="st6" d="M49.8,71.7c-4.4,0-7.7-1.8-7.7-4.3c0-2.5,3.2-4.4,7.7-4.4c4.4,0,7.7,1.8,7.7,4.4
		C57.4,69.8,54.2,71.7,49.8,71.7z M49.8,65.9c-2.9,0-4.6,1-4.7,1.5c0.1,0.4,1.9,1.4,4.7,1.4c2.9,0,4.6-1,4.7-1.4
		C54.4,66.9,52.6,65.9,49.8,65.9z"/>
</g>
</svg>
