<?xml version="1.0" encoding="UTF-8"?>
<svg width="107px" height="147px" viewBox="0 0 107 147" version="1.1" xmlns="http://www.w3.org/2000/svg" xmlns:xlink="http://www.w3.org/1999/xlink">
    <!-- Generator: Sketch 43.1 (39012) - http://www.bohemiancoding.com/sketch -->
    <title>Page 1</title>
    <desc>Created with Sketch.</desc>
    <defs>
        <polygon id="path-1" points="106.98907 145.803244 0.000465327979 145.803244 0.000465327979 0.189544218 106.98907 0.189544218"></polygon>
        <linearGradient x1="0%" y1="50%" x2="100%" y2="50%" id="linearGradient-3">
            <stop stop-color="#0099C3" offset="0%"></stop>
            <stop stop-color="#8C1E81" offset="100%"></stop>
        </linearGradient>
        <linearGradient x1="0%" y1="50%" x2="100%" y2="50%" id="linearGradient-4">
            <stop stop-color="#0099C3" offset="0%"></stop>
            <stop stop-color="#8C1E81" offset="100%"></stop>
            <stop stop-color="#8C1E81" offset="100%"></stop>
        </linearGradient>
    </defs>
    <g id="Web-" stroke="none" stroke-width="1" fill="none" fill-rule="evenodd">
        <g id="Landing" transform="translate(-1139.000000, -611.000000)">
            <g id="Page-1" transform="translate(1139.000000, 610.000000)">
                <g id="Group-3" transform="translate(0.000000, 1.704194)">
                    <mask id="mask-2" fill="white">
                        <use xlink:href="#path-1"></use>
                    </mask>
                    <g id="Clip-2"></g>
                    <path d="M90.7733849,84.641813 L53.4004386,138.229239 L15.837782,84.641813 C8.43907686,74.7953602 4.8345795,63.0553587 5.59342105,51.6940669 C7.30081454,29.1608382 25.5130117,5.8701901 53.4004386,5.8701901 C81.2878655,5.8701901 99.5000627,29.1608382 101.015849,51.6940669 C101.776587,63.0553587 98.1701928,74.7953602 90.7733849,84.641813 M53.4004386,0.189544218 C25.3233013,0.189544218 1.9889237,22.7227729 0.0918198273,51.3153572 C-0.667021721,64.002133 3.31689641,77.0676185 11.4744431,87.8608457 L51.3136243,144.667305 C51.8827555,145.424724 52.641597,145.803434 53.590149,145.803434 C54.5387009,145.803434 55.4853558,145.424724 55.8666736,144.667305 L95.5161445,87.8608457 C103.673691,76.8782637 107.655712,64.002133 106.898768,51.1260023 C104.810056,22.7227729 81.4775759,0.189544218 53.4004386,0.189544218" id="Fill-1" fill="url(#linearGradient-3)" mask="url(#mask-2)"></path>
                </g>
                <path d="M53.4000592,72.1443921 C44.6733814,72.1443921 37.654097,64.9489073 37.654097,56.2385836 C37.654097,47.5282599 44.6733814,40.3327751 53.4000592,40.3327751 C62.126737,40.3327751 69.1460213,47.5282599 69.1460213,56.2385836 C69.1460213,64.9489073 62.126737,72.1443921 53.4000592,72.1443921 M53.4000592,34.6521293 C41.6380152,34.6521293 31.9627854,44.3092273 31.9627854,56.2385836 C31.9627854,68.16794 41.6380152,77.825038 53.4000592,77.825038 C65.1621032,77.825038 74.8373329,68.16794 74.8373329,56.2385836 C74.8373329,44.3092273 65.1621032,34.6521293 53.4000592,34.6521293" id="Fill-4" fill="url(#linearGradient-4)"></path>
            </g>
        </g>
    </g>
</svg>