<?xml version="1.0" encoding="UTF-8"?>
<svg width="147px" height="143px" viewBox="0 0 147 143" version="1.1" xmlns="http://www.w3.org/2000/svg" xmlns:xlink="http://www.w3.org/1999/xlink">
    <!-- Generator: Sketch 43.1 (39012) - http://www.bohemiancoding.com/sketch -->
    <title>Page 1</title>
    <desc>Created with Sketch.</desc>
    <defs>
        <polygon id="path-1" points="0 0.336363636 60 0.336363636 60 60.4723932 1.18423789e-14 60.4723932 1.18423789e-14 0.336363636"></polygon>
        <linearGradient x1="0%" y1="50%" x2="100%" y2="50%" id="linearGradient-3">
            <stop stop-color="#0297C2" offset="0%"></stop>
            <stop stop-color="#8C1E81" offset="100%"></stop>
        </linearGradient>
        <linearGradient x1="0%" y1="50%" x2="100%" y2="50%" id="linearGradient-4">
            <stop stop-color="#0694C0" offset="0%"></stop>
            <stop stop-color="#8C1E81" offset="100%"></stop>
        </linearGradient>
    </defs>
    <g id="Web-" stroke="none" stroke-width="1" fill="none" fill-rule="evenodd">
        <g id="Landing" transform="translate(-197.000000, -616.000000)">
            <g id="Page-1" transform="translate(197.000000, 616.000000)">
                <path d="M120,135.981818 L140,135.981818 L140,105.913636 C140,98.5636364 134,92.55 126.666667,92.55 L120,92.55 L120,135.981818 Z M143.333333,142.663636 L116.666667,142.663636 C114.666667,142.663636 113.333333,141.327273 113.333333,139.322727 L113.333333,91.8818182 L113.333333,89.5431818 C113.333333,88.5409091 113.666667,87.5386364 114,86.8704545 C114.333333,86.2022727 115.666667,85.8681818 116.333333,85.8681818 L126.666667,85.8681818 C137.666667,85.8681818 146.666667,94.8886364 146.666667,105.913636 L146.666667,139.322727 C146.666667,141.327273 145.333333,142.663636 143.333333,142.663636 L143.333333,142.663636 Z" id="Fill-1" fill="#882284"></path>
                <path d="M6.66666667,135.981818 L26.6666667,135.981818 L26.6666667,92.55 L20,92.55 C12.6666667,92.55 6.66666667,98.5636364 6.66666667,105.913636 L6.66666667,135.981818 Z M30,142.663636 L3.33333333,142.663636 C1.33333333,142.663636 0,141.327273 0,139.322727 L0,105.913636 C0,94.8886364 9,85.8681818 20,85.8681818 L30.3333333,85.8681818 C31.3333333,85.8681818 32.3333333,86.2022727 32.6666667,86.8704545 C33.3333333,87.5386364 33.6666667,88.5409091 33.3333333,89.5431818 L33.3333333,91.8818182 L33.3333333,139.322727 C33.3333333,141.327273 32,142.663636 30,142.663636 L30,142.663636 Z" id="Fill-3" fill="#0297C2"></path>
                <g id="Group-7" transform="translate(43.333333, 0.004545)">
                    <mask id="mask-2" fill="white">
                        <use xlink:href="#path-1"></use>
                    </mask>
                    <g id="Clip-6"></g>
                    <path d="M30,7.01784773 C17,7.01784773 6.66666667,17.3746659 6.66666667,30.4042114 C6.66666667,43.4337568 17,53.790575 30,53.790575 C43,53.790575 53.3333333,43.4337568 53.3333333,30.4042114 C53.3333333,17.3746659 43,7.01784773 30,7.01784773 M30,60.4723932 C13.3333333,60.4723932 0,47.1087568 0,30.4042114 C0,13.6996659 13.3333333,0.336029545 30,0.336029545 C46.6666667,0.336029545 60,13.6996659 60,30.4042114 C60,47.1087568 46.6666667,60.4723932 30,60.4723932" id="Fill-5" fill="url(#linearGradient-3)" mask="url(#mask-2)"></path>
                </g>
                <path d="M43.3333333,135.981818 L103.333333,135.981818 L103.333333,91.8818182 C103.333333,82.5272727 96.3333333,72.5045455 86,72.5045455 L60.6666667,72.5045455 C50.3333333,72.5045455 43.3333333,82.5272727 43.3333333,91.8818182 L43.3333333,135.981818 Z M106.666667,142.663636 L40,142.663636 C38,142.663636 36.6666667,141.327273 36.6666667,139.322727 L36.6666667,91.8818182 C36.6666667,77.85 47.6666667,65.8227273 60.6666667,65.8227273 L86,65.8227273 C99,65.8227273 110,77.85 110,91.8818182 L110,139.322727 C110,141.327273 108.666667,142.663636 106.666667,142.663636 L106.666667,142.663636 Z" id="Fill-8" fill="url(#linearGradient-4)"></path>
                <path d="M23.667,40.7659091 C14.3336667,40.7659091 7.00033333,48.1159091 7.00033333,57.4704545 C7.00033333,66.825 14.3336667,74.175 23.667,74.175 C33.0003333,74.175 40.3336667,66.825 40.3336667,57.4704545 C40.3336667,48.1159091 33.0003333,40.7659091 23.667,40.7659091 M23.667,80.8568182 C10.667,80.8568182 0.333666667,70.5 0.333666667,57.4704545 C0.333666667,44.4409091 10.667,34.0840909 23.667,34.0840909 C36.667,34.0840909 47.0003333,44.4409091 47.0003333,57.4704545 C47.0003333,70.5 36.667,80.8568182 23.667,80.8568182" id="Fill-10" fill="#0F8CBC"></path>
                <path d="M123.665333,40.7659091 C114.332,40.7659091 106.998667,48.1159091 106.998667,57.4704545 C106.998667,66.825 114.332,74.175 123.665333,74.175 C133.002,74.175 140.332,66.825 140.332,57.4704545 C140.332,48.1159091 133.002,40.7659091 123.665333,40.7659091 M123.665333,80.8568182 C110.668667,80.8568182 100.332,70.5 100.332,57.4704545 C100.332,44.4409091 110.668667,34.0840909 123.665333,34.0840909 C136.665333,34.0840909 146.998667,44.4409091 146.998667,57.4704545 C146.998667,70.5 136.665333,80.8568182 123.665333,80.8568182" id="Fill-12" fill="#882284"></path>
            </g>
        </g>
    </g>
</svg>