<?xml version="1.0" encoding="utf-8"?>
<!-- Generator: Adobe Illustrator 21.1.0, SVG Export Plug-In . SVG Version: 6.00 Build 0)  -->
<svg version="1.1" id="Layer_1" xmlns="http://www.w3.org/2000/svg" xmlns:xlink="http://www.w3.org/1999/xlink" x="0px" y="0px"
	 viewBox="0 0 100 100" style="enable-background:new 0 0 100 100;" xml:space="preserve">
<style type="text/css">
	.st0{fill:url(#SVGID_1_);}
	.st1{fill:url(#SVGID_2_);}
</style>
<g>
	<linearGradient id="SVGID_1_" gradientUnits="userSpaceOnUse" x1="35.8188" y1="78.8585" x2="63.3256" y2="78.8585">
		<stop  offset="0" style="stop-color:#0099C3"/>
		<stop  offset="1" style="stop-color:#8C1E81"/>
	</linearGradient>
	<path class="st0" d="M60.5,68.4c-8.6,3-13.2,10.7-15.6,14.8c0,0,0,0.1,0,0.1c-2.2-4-5.9-5.6-6-5.7c-1.1-0.5-2.3,0-2.8,1.1
		c-0.5,1.1,0,2.3,1.1,2.8c0,0,3.5,1.6,4.7,5.4c0.5,1.8,1.6,2.3,2.4,2.4c0.1,0,0.2,0,0.4,0c1.7,0,2.6-1.5,4-4
		c2.3-3.9,6.1-10.4,13.3-13c1.1-0.4,1.7-1.6,1.3-2.7C62.8,68.6,61.6,68,60.5,68.4z"/>
	<linearGradient id="SVGID_2_" gradientUnits="userSpaceOnUse" x1="10.4269" y1="50" x2="89.5731" y2="50">
		<stop  offset="0" style="stop-color:#0099C3"/>
		<stop  offset="1" style="stop-color:#8C1E81"/>
	</linearGradient>
	<path class="st1" d="M87.4,95.5h-6.1c0-0.1,0-0.3,0-0.4L81.2,60c0-0.9-0.6-1.7-1.5-2c0.2-5,0.3-10.1,0.3-13.8
		c-0.1-3.7-0.7-7.4-1.8-11l-2.1-6.4c-0.4-1.2-0.9-3.3-1-4.6l-0.3-2.6h1c3.1,0,5.5-2.5,5.5-5.5V5.8c0-3.1-2.5-5.5-5.5-5.5H24.5
		c-3.1,0-5.5,2.5-5.5,5.5V14c0,3,2.4,5.5,5.5,5.5l-0.2,2.2c-0.1,1.2-0.6,3.3-1,4.4L20.5,34c-0.8,2.4-1.2,4.8-1.1,7.4
		c0.2,5.3,0.9,14.4,1.1,17.6c-1,0.9-1.6,2.1-1.6,3.5V95c0,0.1,0,0.3,0,0.4h-6.3c-1.2,0-2.1,1-2.1,2.1s1,2.1,2.1,2.1h11h53.1h10.7
		c1.2,0,2.1-1,2.1-2.1S88.6,95.5,87.4,95.5z M23.2,14V5.8c0-0.7,0.6-1.3,1.3-1.3h51.1c0.7,0,1.3,0.6,1.3,1.3V14
		c0,0.7-0.6,1.3-1.3,1.3H24.5C23.8,15.3,23.2,14.7,23.2,14z M24.5,35.4l2.8-7.8c0.5-1.5,1.1-3.9,1.2-5.5l0.2-2.6h41.7l0.4,3.1
		c0.2,1.5,0.7,3.9,1.2,5.4l2.1,6.4c1,3.2,1.6,6.4,1.6,9.8c0.1,7.8-0.6,21.6-0.9,27.2c-0.1,1.2-0.9,2.1-2,2.3c-0.4-0.2-1-0.8-1.1-1
		c-1.9-4.3-1.9-13.7-1.9-22.1c0-1-0.8-1.9-1.8-2.1c-0.1,0-12.8-2.3-14.2-14.9c-0.1-1.2-1.2-2-2.4-1.9c-1.2,0.1-2,1.2-1.9,2.4
		c1.4,12.6,11.7,16.9,16,18.2c0,1.9,0,3.8,0,5.6h-4.3v-3.1c0-1.2-1-2.1-2.1-2.1s-2.1,1-2.1,2.1v3.1h-9.3v-3.1c0-1.2-1-2.1-2.1-2.1
		s-2.1,1-2.1,2.1v3.1h-9.3v-3.1c0-1.2-1-2.1-2.1-2.1c-1.2,0-2.1,1-2.1,2.1v3.1h-5.2c-0.3-3.8-0.9-11.8-1.1-16.6
		C23.5,39.2,23.8,37.3,24.5,35.4z M23.6,95.5c-0.2,0-0.4-0.2-0.4-0.4V62.5c0-0.2,0.2-0.4,0.4-0.4h42.1c0.2,4.9,0.8,9.3,2,12.2
		c0.5,1.1,2.6,3.6,5,3.6c0.1,0,0.2,0,0.2,0c1.6-0.1,3-0.8,4.1-1.9l0.1,19c0,0.1-0.1,0.2-0.1,0.3c-0.1,0.1-0.2,0.1-0.3,0.1H23.6z"/>
</g>
</svg>
