<?xml version="1.0" encoding="UTF-8"?>
<svg width="149px" height="149px" viewBox="0 0 149 149" version="1.1" xmlns="http://www.w3.org/2000/svg" xmlns:xlink="http://www.w3.org/1999/xlink">
    <!-- Generator: Sketch 43.1 (39012) - http://www.bohemiancoding.com/sketch -->
    <title>Page 1</title>
    <desc>Created with Sketch.</desc>
    <defs>
        <polygon id="path-1" points="149 74.3807851 149 0.00123966942 0 0.00123966942 0 74.3807851 0 148.760331 149 148.760331"></polygon>
        <linearGradient x1="0%" y1="50%" x2="90.9149569%" y2="50%" id="linearGradient-3">
            <stop stop-color="#0099C3" offset="0%"></stop>
            <stop stop-color="#8C1E81" offset="100%"></stop>
        </linearGradient>
    </defs>
    <g id="Web-" stroke="none" stroke-width="1" fill="none" fill-rule="evenodd">
        <g id="Landing" transform="translate(-646.000000, -609.000000)">
            <g id="Page-1" transform="translate(646.000000, 609.000000)">
                <mask id="mask-2" fill="white">
                    <use xlink:href="#path-1"></use>
                </mask>
                <g id="Clip-2"></g>
                <path d="M142.791667,36.464876 C142.791667,38.0268595 141.761083,38.8264463 141.320292,39.0991736 C140.8795,39.3719008 139.693708,39.9297521 138.303042,39.2355372 L94.8447083,17.5413223 L103.387375,6.88636364 L142.791667,23.7458678 L142.791667,36.464876 Z M112.221833,75.8615702 C99.979,95.6342975 83.3779167,99.2107438 83.2165,99.2417355 C82.8688333,99.322314 82.527375,99.446281 82.2231667,99.6260331 L60.4691667,112.654959 C56.6820833,114.929752 51.8023333,113.832645 49.3438333,110.157025 C48.1021667,108.285124 47.6737917,106.059917 48.1332083,103.865702 C48.5988333,101.683884 49.8901667,99.8181818 51.7775,98.6219008 C68.4592917,88.0165289 71.4703333,86.8512397 71.40825,86.7830579 C73.1279583,86.7830579 74.5062083,85.5433884 74.5062083,83.8326446 C74.8228333,81.892562 80.478625,72.8181818 86.0226667,67.2830579 C86.9104583,66.3966942 87.1774167,65.0640496 86.6931667,63.9049587 C86.215125,62.7458678 85.079,61.9896694 83.8249167,61.9896694 C74.16475,61.9896694 67.2114167,56.5289256 67.143125,56.4731405 C66.211875,55.7355372 64.964,55.3884298 63.88375,55.9090909 C62.8035,56.4235537 62.1454167,57.3161157 62.1454167,58.5061983 C61.0465417,61.1652893 49.13275,67.8904959 46.5625,68.1818182 C45.2835833,68.1818182 44.1474583,68.9566116 43.6818333,70.1466942 C43.2162083,71.3367769 43.526625,72.6880165 44.4640833,73.5557851 C44.5013333,73.5929752 47.7545,76.6797521 49.0830833,80.5785124 L36.058,80.5785124 L33.767125,75.9917355 C32.333,73.1342975 32.4571667,69.7933884 34.1085833,67.053719 L46.9970833,45.607438 C48.0773333,43.8099174 49.7535833,42.4214876 51.7154167,41.6838843 L96.0553333,25.0847107 L129.598958,41.8264463 C127.544,47.0640496 122.062042,59.9628099 112.221833,75.8615702 L112.221833,75.8615702 Z M51.9140833,72.75 C56.6634583,70.7169421 63.0145833,67.035124 66.2367083,63.285124 C68.7138333,64.7355372 72.6126667,66.6012397 77.4862083,67.5557851 C74.0219583,71.838843 70.5452917,77.0454545 69.0739167,80.7334711 C68.819375,80.6652893 68.5710417,80.5785124 68.2916667,80.5785124 L55.53975,80.5785124 C54.8816667,77.4979339 53.360625,74.7768595 51.9140833,72.75 L51.9140833,72.75 Z M93.125,142.561983 L18.625,142.561983 L18.625,86.7768595 L34.1892917,86.7768595 C34.2637917,86.7768595 34.3382917,86.7830579 34.419,86.7768595 L59.0288333,86.7768595 C56.228875,88.4752066 52.7894583,90.6136364 48.4374167,93.3780992 C45.128375,95.4793388 42.8623333,98.7396694 42.05525,102.570248 C41.2419583,106.400826 41.9931667,110.311983 44.1847083,113.584711 C46.9598333,117.756198 51.535375,120.024793 56.2164583,120.024793 C58.7494583,120.024793 61.3197083,119.355372 63.6478333,117.97314 L84.9796667,105.198347 C86.2027083,104.900826 89.2013333,104.039256 93.125,102.086777 L93.125,142.561983 Z M147.118875,18.8429752 L103.660542,0.247933884 C102.387833,-0.297520661 100.891625,0.0743801653 100.01625,1.15909091 L87.5995833,16.6549587 C87.0097917,17.3863636 86.7862917,18.3409091 86.9911667,19.2582645 C87.183625,20.1322314 87.7547917,20.8512397 88.5308333,21.2789256 L49.5300833,35.8822314 C46.2582917,37.1095041 43.4583333,39.4338843 41.664125,42.4214876 L28.775625,63.8677686 C26.0315417,68.4359504 25.81425,74.0082645 28.2044583,78.768595 L29.110875,80.5785124 L15.5208333,80.5785124 C13.8073333,80.5785124 12.4166667,81.9669421 12.4166667,83.677686 L12.4166667,142.561983 L3.10416667,142.561983 C1.39066667,142.561983 0,143.950413 0,145.661157 C0,147.378099 1.39066667,148.760331 3.10416667,148.760331 L108.645833,148.760331 C110.359333,148.760331 111.75,147.378099 111.75,145.661157 C111.75,143.950413 110.359333,142.561983 108.645833,142.561983 L99.3333333,142.561983 L99.3333333,99.1735537 C99.3333333,98.9380165 99.2464167,98.7334711 99.2029583,98.5165289 C105.026375,94.5805785 111.681708,88.5061983 117.4865,79.1219008 C127.351542,63.1921488 132.895583,50.3677686 135.174042,44.5971074 L135.521708,44.7706612 C136.850292,45.4338843 138.272,45.7623967 139.693708,45.7623967 C141.388583,45.7623967 143.07725,45.2975207 144.579667,44.3615702 C147.348583,42.6570248 149,39.7004132 149,36.4524793 L149,21.6880165 C149,20.4483471 148.261208,19.3326446 147.118875,18.8429752 L147.118875,18.8429752 Z" id="Fill-1" fill="url(#linearGradient-3)" mask="url(#mask-2)"></path>
            </g>
        </g>
    </g>
</svg>