<?xml version="1.0" encoding="utf-8"?>
<!-- Generator: Adobe Illustrator 21.1.0, SVG Export Plug-In . SVG Version: 6.00 Build 0)  -->
<svg version="1.1" id="Layer_1" xmlns="http://www.w3.org/2000/svg" xmlns:xlink="http://www.w3.org/1999/xlink" x="0px" y="0px"
	 viewBox="0 0 100 100" style="enable-background:new 0 0 100 100;" xml:space="preserve">
<style type="text/css">
	.st0{fill:url(#SVGID_1_);}
	.st1{fill:url(#SVGID_2_);}
</style>
<g>
	<linearGradient id="SVGID_1_" gradientUnits="userSpaceOnUse" x1="41.0936" y1="56.8795" x2="57.7418" y2="56.8795">
		<stop  offset="0" style="stop-color:#0099C3"/>
		<stop  offset="1" style="stop-color:#8C1E81"/>
	</linearGradient>
	<path class="st0" d="M56,50.6c-5.2,1.8-8,6.5-9.4,9c0,0,0,0,0,0c-1.3-2.4-3.5-3.4-3.7-3.5c-0.7-0.3-1.4,0-1.7,0.7
		c-0.3,0.6,0,1.4,0.7,1.7c0,0,2.1,1,2.8,3.3c0.3,1.1,1,1.4,1.5,1.5c0.1,0,0.1,0,0.2,0c1,0,1.6-0.9,2.4-2.4c1.4-2.4,3.7-6.3,8.1-7.8
		c0.7-0.2,1-1,0.8-1.6C57.4,50.7,56.7,50.3,56,50.6z"/>
	<linearGradient id="SVGID_2_" gradientUnits="userSpaceOnUse" x1="0" y1="50.1603" x2="100" y2="50.1603">
		<stop  offset="0" style="stop-color:#0099C3"/>
		<stop  offset="1" style="stop-color:#8C1E81"/>
	</linearGradient>
	<path class="st1" d="M100,90.6c0-0.1,0-0.3-0.1-0.4l0,0c0,0,0,0,0,0L82,43c-0.2-0.5-0.7-0.9-1.2-0.9h-13c0,0,0,0-0.1,0
		c0.1-2.3,0.1-4.5,0.1-6.3c0-2.3-0.4-4.5-1.1-6.7l-1.3-3.9c-0.2-0.7-0.5-2-0.6-2.8L64.5,20h0.7c1.9,0,3.4-1.5,3.4-3.4v-5
		c0-1.9-1.5-3.4-3.4-3.4h-31c-1.9,0-3.4,1.5-3.4,3.4v5c0,1.9,1.5,3.4,3.4,3.4h0l-0.2,2.3c-0.1,0.7-0.3,2-0.6,2.7l-1.7,4.7
		c-0.5,1.4-0.7,2.9-0.7,4.5c0.1,2.2,0.3,5.5,0.5,7.9H19.2c-0.5,0-1,0.3-1.2,0.9L0.1,90.2c0,0,0,0,0,0l0,0C0,90.3,0,90.5,0,90.6
		c0,0,0,0,0,0.1c0,0,0,0,0,0c0,0.2,0,0.3,0.1,0.5c0,0,0,0,0,0.1c0,0.1,0.1,0.1,0.1,0.2c0,0.1,0.1,0.1,0.1,0.1c0,0,0,0,0.1,0.1
		c0.1,0.1,0.2,0.2,0.4,0.2c0,0,0.1,0,0.1,0C1,92,1.1,92,1.3,92h48.5c0.1,0,0.1,0,0.2,0c0.1,0,0.1,0,0.2,0h48.5c0.2,0,0.3,0,0.4-0.1
		c0,0,0.1,0,0.1,0c0.1-0.1,0.3-0.1,0.4-0.2c0,0,0,0,0.1-0.1c0,0,0.1-0.1,0.1-0.1c0-0.1,0.1-0.1,0.1-0.2c0,0,0,0,0-0.1
		C100,91,100,90.9,100,90.6C100,90.7,100,90.7,100,90.6C100,90.7,100,90.7,100,90.6z M66,55.2l0.1,11.5c0,0.1,0,0.1-0.1,0.2
		c0,0-0.1,0.1-0.2,0.1H33.7c-0.1,0-0.3-0.1-0.3-0.3V47c0-0.1,0.1-0.3,0.3-0.3h25.5c0.1,3,0.5,5.6,1.2,7.4c0.3,0.7,1.6,2.2,3,2.2
		c0,0,0.1,0,0.2,0C64.5,56.2,65.4,55.8,66,55.2z M33.5,16.6v-5c0-0.4,0.3-0.8,0.8-0.8h31c0.4,0,0.8,0.3,0.8,0.8v5
		c0,0.4-0.3,0.8-0.8,0.8h-31C33.8,17.4,33.5,17,33.5,16.6z M34.2,30.6l1.7-4.7c0.3-0.9,0.6-2.4,0.7-3.3l0.2-2.6h25l0.4,2.9
		c0.1,0.9,0.4,2.4,0.7,3.2l1.3,3.9c0.6,1.9,1,3.9,1,5.9c0.1,4.7-0.4,13.1-0.6,16.5c0,0.7-0.6,1.3-1.2,1.4c-0.2-0.1-0.6-0.5-0.7-0.6
		c-1.1-2.6-1.1-8.3-1.1-13.4c0-0.6-0.5-1.2-1.1-1.3c-0.3-0.1-7.8-1.4-8.6-9c-0.1-0.7-0.7-1.2-1.4-1.1c-0.7,0.1-1.2,0.7-1.1,1.4
		c0.8,7.6,7.1,10.3,9.7,11c0,1.1,0,2.3,0,3.4h-2.6v-0.6c0-0.7-0.6-1.3-1.3-1.3c-0.7,0-1.3,0.6-1.3,1.3v0.6h-5.6v-0.6
		c0-0.7-0.6-1.3-1.3-1.3c-0.7,0-1.3,0.6-1.3,1.3v0.6h-5.6v-0.6c0-0.7-0.6-1.3-1.3-1.3c-0.7,0-1.3,0.6-1.3,1.3v0.6h-3.1
		c-0.2-2.3-0.5-7.2-0.6-10.1C33.7,32.9,33.8,31.7,34.2,30.6z M50.2,89.3c-0.1,0-0.1,0-0.2,0c-0.1,0-0.1,0-0.2,0H3.2l16.9-44.5h11.7
		c0,0,0,0,0,0.1c-0.6,0.5-1,1.3-1,2.1v19.7c0,0.2,0,0.3,0.1,0.5h-7.8c-0.7,0-1.3,0.6-1.3,1.3c0,0.7,0.6,1.3,1.3,1.3h53.5
		c0.7,0,1.3-0.6,1.3-1.3c0-0.7-0.6-1.3-1.3-1.3h-7.9c0-0.2,0-0.3,0-0.5l-0.1-21.2c0-0.2-0.1-0.4-0.2-0.6h11.5l16.9,44.5H50.2z"/>
</g>
</svg>
