<?xml version="1.0" encoding="utf-8"?>
<!-- Generator: Adobe Illustrator 21.1.0, SVG Export Plug-In . SVG Version: 6.00 Build 0)  -->
<svg version="1.1" id="Layer_1" xmlns="http://www.w3.org/2000/svg" xmlns:xlink="http://www.w3.org/1999/xlink" x="0px" y="0px"
	 viewBox="0 0 1000 1000" style="enable-background:new 0 0 1000 1000;" xml:space="preserve">
<style type="text/css">
	.st0{fill:#4A4A49;}
	.st1{fill:#0098C3;}
	.st2{fill:#8C1D80;}
	.st3{fill:#93C01F;}
	.st4{fill:#FCD766;}
	.st5{fill:#300C46;}
	.st6{fill:#ACDFF2;}
	.st7{fill:#EC6E8D;}
	.st8{fill:#465C9D;}
</style>
<g>
	<g>
		<g>
			<g>
				<g>
					<path class="st0" d="M97,421.3c0-0.2,0.2-0.5,0.5-0.5h5.6c3,0,5.5,2.5,5.5,5.4c0,3-2.5,5.5-5.5,5.5h-3.6v5.8
						c0,0.2-0.2,0.5-0.5,0.5h-1.6c-0.3,0-0.5-0.2-0.5-0.5V421.3z M102.9,429.3c1.7,0,3.1-1.4,3.1-3.1c0-1.7-1.4-2.9-3.1-2.9h-3.4
						v6.1H102.9z"/>
					<path class="st0" d="M111.6,421.3c0-0.2,0.2-0.5,0.5-0.5h1.6c0.2,0,0.5,0.2,0.5,0.5v14.4h6.6c0.3,0,0.5,0.2,0.5,0.5v1.3
						c0,0.2-0.2,0.5-0.5,0.5H112c-0.3,0-0.5-0.2-0.5-0.5V421.3z"/>
					<path class="st0" d="M122.3,437.3l7.5-16.5c0.1-0.1,0.3-0.3,0.4-0.3h0.2c0.1,0,0.3,0.1,0.4,0.3l7.5,16.5c0.1,0.3,0,0.6-0.4,0.6
						h-1.5c-0.3,0-0.5-0.1-0.6-0.4l-1.5-3.4h-8c-0.5,1.1-1,2.2-1.5,3.4c-0.1,0.2-0.3,0.4-0.6,0.4h-1.5
						C122.3,438,122.1,437.6,122.3,437.3z M133.4,432.1l-3-6.7h-0.1l-3,6.7H133.4z"/>
					<path class="st0" d="M140.8,421c0-0.2,0.2-0.4,0.5-0.4h0.6l10.6,12.3h0v-11.6c0-0.2,0.2-0.5,0.5-0.5h1.6c0.2,0,0.5,0.2,0.5,0.5
						v16.5c0,0.2-0.2,0.4-0.5,0.4h-0.6l-10.6-12.7h0v11.9c0,0.2-0.2,0.5-0.5,0.5h-1.5c-0.2,0-0.5-0.2-0.5-0.5V421z"/>
					<path class="st0" d="M159.8,421.3c0-0.2,0.2-0.5,0.5-0.5h9.8c0.3,0,0.5,0.2,0.5,0.5v1.4c0,0.2-0.2,0.5-0.5,0.5h-7.7v5h6.5
						c0.2,0,0.5,0.2,0.5,0.5v1.4c0,0.3-0.2,0.5-0.5,0.5h-6.5v5.3h7.7c0.3,0,0.5,0.2,0.5,0.5v1.3c0,0.2-0.2,0.5-0.5,0.5h-9.8
						c-0.3,0-0.5-0.2-0.5-0.5V421.3z"/>
					<path class="st0" d="M171.9,437.3l7.5-16.5c0.1-0.1,0.3-0.3,0.4-0.3h0.2c0.1,0,0.3,0.1,0.4,0.3l7.5,16.5c0.1,0.3,0,0.6-0.4,0.6
						H186c-0.3,0-0.5-0.1-0.6-0.4l-1.5-3.4h-8c-0.5,1.1-1,2.2-1.5,3.4c-0.1,0.2-0.3,0.4-0.6,0.4h-1.5
						C172,438,171.8,437.6,171.9,437.3z M183,432.1l-3-6.7h-0.1l-3,6.7H183z"/>
					<path class="st0" d="M192.3,420.9c0-0.2,0.2-0.4,0.4-0.4h0.4c0.1,0,0.4,0.1,0.4,0.3l5.1,12.5h0.1l5.1-12.5
						c0-0.1,0.2-0.3,0.4-0.3h0.4c0.2,0,0.4,0.2,0.4,0.4l3,16.5c0.1,0.3-0.1,0.6-0.4,0.6h-1.6c-0.2,0-0.4-0.2-0.5-0.3l-1.8-11
						c0,0-0.1,0-0.1,0l-4.4,11.3c0,0.1-0.2,0.3-0.4,0.3h-0.4c-0.2,0-0.4-0.1-0.4-0.3l-4.4-11.3c0,0-0.1,0-0.1,0l-1.8,11
						c0,0.2-0.2,0.3-0.4,0.3h-1.6c-0.3,0-0.5-0.2-0.5-0.6L192.3,420.9z"/>
					<path class="st0" d="M211.7,421.3c0-0.2,0.2-0.5,0.5-0.5h1.6c0.2,0,0.5,0.2,0.5,0.5v16.2c0,0.2-0.2,0.5-0.5,0.5h-1.6
						c-0.2,0-0.5-0.2-0.5-0.5V421.3z"/>
					<path class="st0" d="M219,421.3c0-0.2,0.2-0.5,0.5-0.5h9.8c0.3,0,0.5,0.2,0.5,0.5v1.4c0,0.2-0.2,0.5-0.5,0.5h-7.7v5h6.5
						c0.2,0,0.5,0.2,0.5,0.5v1.4c0,0.3-0.2,0.5-0.5,0.5h-6.5v5.3h7.7c0.3,0,0.5,0.2,0.5,0.5v1.3c0,0.2-0.2,0.5-0.5,0.5h-9.8
						c-0.3,0-0.5-0.2-0.5-0.5V421.3z"/>
					<path class="st0" d="M233.5,421c0-0.2,0.2-0.4,0.5-0.4h0.6l10.6,12.3h0v-11.6c0-0.2,0.2-0.5,0.5-0.5h1.6c0.2,0,0.5,0.2,0.5,0.5
						v16.5c0,0.2-0.2,0.4-0.5,0.4h-0.6L236,425.5h0v11.9c0,0.2-0.2,0.5-0.5,0.5h-1.5c-0.2,0-0.5-0.2-0.5-0.5V421z"/>
					<path class="st0" d="M254.8,423.1h-4c-0.3,0-0.5-0.2-0.5-0.5v-1.4c0-0.2,0.2-0.5,0.5-0.5h10.5c0.3,0,0.5,0.2,0.5,0.5v1.4
						c0,0.2-0.2,0.5-0.5,0.5h-4v14.4c0,0.2-0.2,0.5-0.5,0.5h-1.6c-0.2,0-0.5-0.2-0.5-0.5V423.1z"/>
					<path class="st0" d="M271.8,420.5c4.9,0,8.8,3.9,8.8,8.9s-3.9,8.8-8.8,8.8c-4.9,0-8.8-3.9-8.8-8.8S266.9,420.5,271.8,420.5z
						 M271.8,435.7c3.5,0,6.4-2.8,6.4-6.4c0-3.5-2.9-6.4-6.4-6.4c-3.5,0-6.4,2.9-6.4,6.4C265.4,432.9,268.3,435.7,271.8,435.7z"/>
				</g>
			</g>
			<rect x="44" y="409.8" class="st1" width="41.7" height="41.7"/>
		</g>
		<g>
			<g>
				<g>
					<path class="st0" d="M104.6,489.9c2.5,0,4.3,0.8,5.9,2.3c0.2,0.2,0.2,0.5,0,0.7l-1.1,1.1c-0.2,0.2-0.4,0.2-0.6,0
						c-1.2-1-2.7-1.6-4.2-1.6c-3.5,0-6.2,2.9-6.2,6.4c0,3.4,2.7,6.4,6.2,6.4c1.8,0,3-0.7,4.2-1.6c0.2-0.2,0.4-0.1,0.6,0l1.1,1.1
						c0.2,0.2,0.1,0.5,0,0.7c-1.7,1.6-3.8,2.4-6,2.4c-4.9,0-8.9-3.9-8.9-8.8C95.8,493.9,99.7,489.9,104.6,489.9z"/>
					<path class="st0" d="M113.8,490.6c0-0.2,0.2-0.5,0.5-0.5h1.6c0.3,0,0.5,0.2,0.5,0.5v10.1c0,2.5,1.6,4.4,4.1,4.4
						c2.5,0,4.1-1.9,4.1-4.3v-10.2c0-0.2,0.2-0.5,0.5-0.5h1.6c0.2,0,0.5,0.2,0.5,0.5v10.3c0,3.7-2.8,6.6-6.7,6.6
						c-3.8,0-6.6-2.9-6.6-6.6V490.6z"/>
					<path class="st0" d="M131.7,490.6c0-0.2,0.2-0.5,0.5-0.5h1.6c0.2,0,0.5,0.2,0.5,0.5V505h6.6c0.3,0,0.5,0.2,0.5,0.5v1.3
						c0,0.2-0.2,0.5-0.5,0.5h-8.7c-0.3,0-0.5-0.2-0.5-0.5V490.6z"/>
					<path class="st0" d="M145.3,492.5h-4c-0.3,0-0.5-0.2-0.5-0.5v-1.4c0-0.2,0.2-0.5,0.5-0.5h10.5c0.3,0,0.5,0.2,0.5,0.5v1.4
						c0,0.2-0.2,0.5-0.5,0.5h-4v14.4c0,0.2-0.2,0.5-0.5,0.5h-1.6c-0.2,0-0.5-0.2-0.5-0.5V492.5z"/>
					<path class="st0" d="M154.7,490.6c0-0.2,0.2-0.5,0.5-0.5h1.6c0.3,0,0.5,0.2,0.5,0.5v10.1c0,2.5,1.6,4.4,4.1,4.4
						c2.5,0,4.1-1.9,4.1-4.3v-10.2c0-0.2,0.2-0.5,0.5-0.5h1.6c0.2,0,0.5,0.2,0.5,0.5v10.3c0,3.7-2.8,6.6-6.7,6.6
						c-3.8,0-6.6-2.9-6.6-6.6V490.6z"/>
					<path class="st0" d="M172.6,490.6c0-0.2,0.2-0.5,0.5-0.5h6.7c2.9,0,5.3,2.3,5.3,5.2c0,2.3-1.5,4.1-3.6,5l3.4,6.2
						c0.2,0.3,0,0.7-0.4,0.7h-1.9c-0.2,0-0.3-0.1-0.4-0.2l-3.3-6.5h-3.7v6.3c0,0.2-0.2,0.5-0.5,0.5H173c-0.3,0-0.5-0.2-0.5-0.5
						V490.6z M179.5,498.5c1.6,0,3-1.3,3-3c0-1.6-1.4-2.9-3-2.9h-4.4v6H179.5z"/>
					<path class="st0" d="M186.6,506.7l7.5-16.5c0.1-0.1,0.3-0.3,0.4-0.3h0.2c0.1,0,0.3,0.1,0.4,0.3l7.5,16.5c0.1,0.3,0,0.6-0.4,0.6
						h-1.5c-0.3,0-0.5-0.1-0.6-0.4l-1.5-3.4h-8c-0.5,1.1-1,2.2-1.5,3.4c-0.1,0.2-0.3,0.4-0.6,0.4H187
						C186.6,507.3,186.4,507,186.6,506.7z M197.7,501.5l-3-6.7h-0.1l-3,6.7H197.7z"/>
				</g>
			</g>
			<rect x="44" y="479.2" class="st2" width="41.7" height="41.7"/>
		</g>
		<g>
			<rect x="44" y="548.5" class="st3" width="41.7" height="41.7"/>
			<g>
				<g>
					<path class="st0" d="M97,560c0-0.2,0.2-0.5,0.4-0.5h5.6c4.7,0,8.6,3.9,8.6,8.6c0,4.8-3.9,8.6-8.6,8.6h-5.6
						c-0.2,0-0.4-0.2-0.4-0.5V560z M102.7,574.4c3.6,0,6.2-2.6,6.2-6.3c0-3.6-2.6-6.2-6.2-6.2h-3.2v12.5H102.7z"/>
					<path class="st0" d="M115.2,560c0-0.2,0.2-0.5,0.5-0.5h9.8c0.3,0,0.5,0.2,0.5,0.5v1.4c0,0.2-0.2,0.5-0.5,0.5h-7.7v5h6.5
						c0.2,0,0.5,0.2,0.5,0.5v1.4c0,0.3-0.2,0.5-0.5,0.5h-6.5v5.3h7.7c0.3,0,0.5,0.2,0.5,0.5v1.3c0,0.2-0.2,0.5-0.5,0.5h-9.8
						c-0.3,0-0.5-0.2-0.5-0.5V560z"/>
					<path class="st0" d="M129.7,560c0-0.2,0.2-0.5,0.5-0.5h5.6c3,0,5.5,2.5,5.5,5.4c0,3-2.5,5.5-5.5,5.5h-3.6v5.8
						c0,0.2-0.2,0.5-0.5,0.5h-1.6c-0.3,0-0.5-0.2-0.5-0.5V560z M135.6,568.1c1.7,0,3.1-1.4,3.1-3.1c0-1.7-1.4-2.9-3.1-2.9h-3.4v6.1
						H135.6z"/>
					<path class="st0" d="M151.8,559.3c4.9,0,8.8,3.9,8.8,8.9c0,4.9-3.9,8.8-8.8,8.8c-4.9,0-8.8-3.9-8.8-8.8
						C143,563.2,146.9,559.3,151.8,559.3z M151.8,574.5c3.5,0,6.4-2.8,6.4-6.4c0-3.5-2.9-6.4-6.4-6.4c-3.5,0-6.4,2.9-6.4,6.4
						C145.4,571.7,148.3,574.5,151.8,574.5z"/>
					<path class="st0" d="M164.1,560c0-0.2,0.2-0.5,0.5-0.5h6.7c2.9,0,5.3,2.3,5.3,5.2c0,2.3-1.5,4.1-3.6,5l3.4,6.2
						c0.2,0.3,0,0.7-0.4,0.7H174c-0.2,0-0.3-0.1-0.4-0.2l-3.3-6.5h-3.7v6.3c0,0.2-0.2,0.5-0.5,0.5h-1.6c-0.3,0-0.5-0.2-0.5-0.5V560z
						 M171,567.9c1.6,0,3-1.3,3-3c0-1.6-1.4-2.9-3-2.9h-4.4v6H171z"/>
					<path class="st0" d="M182.7,561.8h-4c-0.3,0-0.5-0.2-0.5-0.5V560c0-0.2,0.2-0.5,0.5-0.5h10.5c0.3,0,0.5,0.2,0.5,0.5v1.4
						c0,0.2-0.2,0.5-0.5,0.5h-4v14.4c0,0.2-0.2,0.5-0.5,0.5h-1.6c-0.2,0-0.5-0.2-0.5-0.5V561.8z"/>
					<path class="st0" d="M192.4,560c0-0.2,0.2-0.5,0.5-0.5h9.8c0.3,0,0.5,0.2,0.5,0.5v1.4c0,0.2-0.2,0.5-0.5,0.5h-7.7v5h6.5
						c0.2,0,0.5,0.2,0.5,0.5v1.4c0,0.3-0.2,0.5-0.5,0.5h-6.5v5.3h7.7c0.3,0,0.5,0.2,0.5,0.5v1.3c0,0.2-0.2,0.5-0.5,0.5h-9.8
						c-0.3,0-0.5-0.2-0.5-0.5V560z"/>
				</g>
			</g>
		</g>
	</g>
	<g>
		<g>
			<g>
				<g>
					<path class="st0" d="M637.8,421.3c0-0.2,0.2-0.5,0.5-0.5h9.8c0.3,0,0.5,0.2,0.5,0.5v1.4c0,0.2-0.2,0.5-0.5,0.5h-7.7v5h6.5
						c0.2,0,0.5,0.2,0.5,0.5v1.4c0,0.3-0.2,0.5-0.5,0.5h-6.5v5.3h7.7c0.3,0,0.5,0.2,0.5,0.5v1.3c0,0.2-0.2,0.5-0.5,0.5h-9.8
						c-0.3,0-0.5-0.2-0.5-0.5V421.3z"/>
					<path class="st0" d="M652.3,421.3c0-0.2,0.2-0.5,0.4-0.5h5.6c4.7,0,8.6,3.8,8.6,8.6c0,4.8-3.9,8.6-8.6,8.6h-5.6
						c-0.2,0-0.4-0.2-0.4-0.5V421.3z M658,435.6c3.6,0,6.2-2.6,6.2-6.3c0-3.6-2.6-6.2-6.2-6.2h-3.2v12.5H658z"/>
					<path class="st0" d="M670.3,421.3c0-0.2,0.2-0.5,0.5-0.5h1.6c0.3,0,0.5,0.2,0.5,0.5v10.1c0,2.5,1.6,4.4,4.1,4.4
						c2.5,0,4.1-1.9,4.1-4.3v-10.2c0-0.2,0.2-0.5,0.5-0.5h1.6c0.2,0,0.5,0.2,0.5,0.5v10.3c0,3.7-2.8,6.6-6.7,6.6
						c-3.8,0-6.6-2.9-6.6-6.6V421.3z"/>
					<path class="st0" d="M695.7,420.5c2.5,0,4.3,0.8,5.9,2.3c0.2,0.2,0.2,0.5,0,0.7l-1.1,1.1c-0.2,0.2-0.4,0.2-0.6,0
						c-1.2-1-2.7-1.6-4.2-1.6c-3.5,0-6.2,2.9-6.2,6.4c0,3.4,2.7,6.4,6.2,6.4c1.8,0,3-0.7,4.2-1.6c0.2-0.2,0.4-0.1,0.6,0l1.1,1.1
						c0.2,0.2,0.1,0.5,0,0.7c-1.7,1.6-3.8,2.4-6,2.4c-4.9,0-8.9-3.9-8.9-8.8S690.8,420.5,695.7,420.5z"/>
					<path class="st0" d="M702.9,437.3l7.5-16.5c0.1-0.1,0.3-0.3,0.4-0.3h0.2c0.1,0,0.3,0.1,0.4,0.3l7.5,16.5c0.1,0.3,0,0.6-0.4,0.6
						H717c-0.3,0-0.5-0.1-0.6-0.4l-1.5-3.4h-8c-0.5,1.1-1,2.2-1.5,3.4c-0.1,0.2-0.3,0.4-0.6,0.4h-1.5
						C702.9,438,702.7,437.6,702.9,437.3z M714,432.1l-3-6.7h-0.1l-3,6.7H714z"/>
					<path class="st0" d="M728.9,420.5c2.5,0,4.3,0.8,5.9,2.3c0.2,0.2,0.2,0.5,0,0.7l-1.1,1.1c-0.2,0.2-0.4,0.2-0.6,0
						c-1.2-1-2.7-1.6-4.2-1.6c-3.5,0-6.2,2.9-6.2,6.4c0,3.4,2.7,6.4,6.2,6.4c1.8,0,3-0.7,4.2-1.6c0.2-0.2,0.4-0.1,0.6,0l1.1,1.1
						c0.2,0.2,0.1,0.5,0,0.7c-1.7,1.6-3.8,2.4-6,2.4c-4.9,0-8.9-3.9-8.9-8.8S724,420.5,728.9,420.5z"/>
					<path class="st0" d="M738.4,421.3c0-0.2,0.2-0.5,0.5-0.5h1.6c0.2,0,0.5,0.2,0.5,0.5v16.2c0,0.2-0.2,0.5-0.5,0.5h-1.6
						c-0.2,0-0.5-0.2-0.5-0.5V421.3z"/>
					<path class="st0" d="M753.2,420.5c4.9,0,8.8,3.9,8.8,8.9s-3.9,8.8-8.8,8.8c-4.9,0-8.8-3.9-8.8-8.8S748.3,420.5,753.2,420.5z
						 M753.2,435.7c3.5,0,6.4-2.8,6.4-6.4c0-3.5-2.9-6.4-6.4-6.4c-3.5,0-6.4,2.9-6.4,6.4C746.9,432.9,749.7,435.7,753.2,435.7z"/>
					<path class="st0" d="M765.5,421c0-0.2,0.2-0.4,0.5-0.4h0.6l10.6,12.3h0v-11.6c0-0.2,0.2-0.5,0.5-0.5h1.6c0.2,0,0.5,0.2,0.5,0.5
						v16.5c0,0.2-0.2,0.4-0.5,0.4h-0.6L768,425.5h0v11.9c0,0.2-0.2,0.5-0.5,0.5H766c-0.2,0-0.5-0.2-0.5-0.5V421z"/>
				</g>
			</g>
			<rect x="584.8" y="409.8" class="st4" width="41.7" height="41.7"/>
		</g>
		<g>
			<g>
				<g>
					<path class="st0" d="M645.4,489.9c2.4,0,4.3,0.9,6,2.3c0.2,0.2,0.2,0.5,0,0.7c-0.4,0.4-0.7,0.8-1.1,1.2c-0.2,0.2-0.4,0.2-0.6,0
						c-1.2-1-2.7-1.7-4.2-1.7c-3.5,0-6.2,2.9-6.2,6.4c0,3.4,2.7,6.4,6.2,6.4c2,0,3.4-0.7,3.7-0.8v-2.7h-2.4c-0.3,0-0.5-0.2-0.5-0.4
						v-1.4c0-0.3,0.2-0.5,0.5-0.5h4.5c0.2,0,0.4,0.2,0.4,0.5c0,2,0,4,0,5.9c0,0.1-0.1,0.3-0.2,0.4c0,0-2.5,1.6-6.1,1.6
						c-4.9,0-8.8-3.9-8.8-8.8C636.6,493.9,640.5,489.9,645.4,489.9z"/>
					<path class="st0" d="M663.1,489.9c4.9,0,8.8,3.9,8.8,8.9c0,4.9-3.9,8.8-8.8,8.8c-4.9,0-8.8-3.9-8.8-8.8
						C654.3,493.9,658.2,489.9,663.1,489.9z M663.1,505.1c3.5,0,6.4-2.8,6.4-6.4c0-3.5-2.9-6.4-6.4-6.4c-3.5,0-6.4,2.9-6.4,6.4
						C656.7,502.3,659.6,505.1,663.1,505.1z"/>
					<path class="st0" d="M675.4,490.6c0-0.2,0.2-0.5,0.5-0.5h5.5c3,0,5.1,2,5.1,4.5c0,1.9-1.4,3.2-2.5,3.9c1.3,0.5,3.1,1.7,3.1,4
						c0,2.7-2.3,4.7-5.3,4.7h-5.8c-0.3,0-0.5-0.2-0.5-0.5V490.6z M681.6,505.1c1.5,0,2.6-1.2,2.6-2.7c0-1.5-1.4-2.6-3-2.6h-3.4v5.2
						H681.6z M681.2,497.6c1.6,0,2.5-1.2,2.5-2.6c0-1.5-1-2.5-2.5-2.5h-3.3v5.1H681.2z"/>
					<path class="st0" d="M690.7,490.6c0-0.2,0.2-0.5,0.5-0.5h1.6c0.2,0,0.5,0.2,0.5,0.5v16.2c0,0.2-0.2,0.5-0.5,0.5h-1.6
						c-0.2,0-0.5-0.2-0.5-0.5V490.6z"/>
					<path class="st0" d="M698,490.6c0-0.2,0.2-0.5,0.5-0.5h9.8c0.3,0,0.5,0.2,0.5,0.5v1.4c0,0.2-0.2,0.5-0.5,0.5h-7.7v5h6.5
						c0.2,0,0.5,0.2,0.5,0.5v1.4c0,0.3-0.2,0.5-0.5,0.5h-6.5v5.3h7.7c0.3,0,0.5,0.2,0.5,0.5v1.3c0,0.2-0.2,0.5-0.5,0.5h-9.8
						c-0.3,0-0.5-0.2-0.5-0.5V490.6z"/>
					<path class="st0" d="M712.4,490.6c0-0.2,0.2-0.5,0.5-0.5h6.7c2.9,0,5.3,2.3,5.3,5.2c0,2.3-1.5,4.1-3.6,5l3.4,6.2
						c0.2,0.3,0,0.7-0.4,0.7h-1.9c-0.2,0-0.3-0.1-0.4-0.2l-3.3-6.5h-3.7v6.3c0,0.2-0.2,0.5-0.5,0.5h-1.6c-0.3,0-0.5-0.2-0.5-0.5
						V490.6z M719.3,498.5c1.6,0,3-1.3,3-3c0-1.6-1.4-2.9-3-2.9H715v6H719.3z"/>
					<path class="st0" d="M728.7,490.4c0-0.2,0.2-0.4,0.5-0.4h0.6l10.6,12.3h0v-11.6c0-0.2,0.2-0.5,0.5-0.5h1.6
						c0.2,0,0.5,0.2,0.5,0.5v16.5c0,0.2-0.2,0.4-0.5,0.4h-0.6l-10.6-12.7h0v11.9c0,0.2-0.2,0.5-0.5,0.5h-1.5c-0.2,0-0.5-0.2-0.5-0.5
						V490.4z"/>
					<path class="st0" d="M755.2,489.9c4.9,0,8.8,3.9,8.8,8.9c0,4.9-3.9,8.8-8.8,8.8c-4.9,0-8.8-3.9-8.8-8.8
						C746.4,493.9,750.3,489.9,755.2,489.9z M755.2,505.1c3.5,0,6.4-2.8,6.4-6.4c0-3.5-2.9-6.4-6.4-6.4c-3.5,0-6.4,2.9-6.4,6.4
						C748.9,502.3,751.8,505.1,755.2,505.1z"/>
				</g>
			</g>
			<rect x="584.8" y="479.2" class="st5" width="41.7" height="41.7"/>
		</g>
		<g>
			<g>
				<g>
					<path class="st0" d="M637.8,560c0-0.2,0.2-0.5,0.5-0.5h9.8c0.3,0,0.5,0.2,0.5,0.5v1.4c0,0.2-0.2,0.5-0.5,0.5h-7.7v5.7h6.5
						c0.2,0,0.5,0.2,0.5,0.5v1.3c0,0.2-0.2,0.5-0.5,0.5h-6.5v6.4c0,0.2-0.2,0.5-0.5,0.5h-1.6c-0.3,0-0.5-0.2-0.5-0.5V560z"/>
					<path class="st0" d="M651.7,560c0-0.2,0.2-0.5,0.5-0.5h1.6c0.2,0,0.5,0.2,0.5,0.5v16.2c0,0.2-0.2,0.5-0.5,0.5h-1.6
						c-0.2,0-0.5-0.2-0.5-0.5V560z"/>
					<path class="st0" d="M657.9,574.2c0.2-0.3,0.4-0.7,0.6-1c0.2-0.3,0.6-0.4,0.8-0.2c0.1,0.1,2,1.7,3.9,1.7c1.7,0,2.8-1,2.8-2.3
						c0-1.5-1.3-2.4-3.7-3.4c-2.5-1.1-4.5-2.4-4.5-5.2c0-1.9,1.5-4.5,5.4-4.5c2.5,0,4.3,1.3,4.5,1.4c0.2,0.1,0.4,0.5,0.1,0.8
						c-0.2,0.3-0.4,0.6-0.6,0.9c-0.2,0.3-0.5,0.5-0.9,0.2c-0.2-0.1-1.9-1.2-3.3-1.2c-2.1,0-2.8,1.3-2.8,2.2c0,1.4,1.1,2.3,3.1,3.1
						c2.8,1.2,5.3,2.5,5.3,5.5c0,2.6-2.3,4.6-5.5,4.6c-3,0-4.9-1.6-5.3-1.9C657.8,574.8,657.7,574.6,657.9,574.2z"/>
					<path class="st0" d="M679.8,559.3c2.5,0,4.3,0.8,5.9,2.3c0.2,0.2,0.2,0.5,0,0.7l-1.1,1.1c-0.2,0.2-0.4,0.2-0.6,0
						c-1.2-1-2.7-1.6-4.2-1.6c-3.5,0-6.2,2.9-6.2,6.4c0,3.4,2.7,6.4,6.2,6.4c1.8,0,3-0.7,4.2-1.6c0.2-0.2,0.4-0.1,0.6,0l1.1,1.1
						c0.2,0.2,0.1,0.5,0,0.7c-1.7,1.6-3.8,2.4-6,2.4c-4.9,0-8.9-3.9-8.9-8.8C670.9,563.2,674.9,559.3,679.8,559.3z"/>
					<path class="st0" d="M686.9,576.1l7.5-16.5c0.1-0.1,0.3-0.3,0.4-0.3h0.2c0.1,0,0.3,0.1,0.4,0.3l7.5,16.5c0.1,0.3,0,0.6-0.4,0.6
						H701c-0.3,0-0.5-0.1-0.6-0.4L699,573h-8c-0.5,1.1-1,2.2-1.5,3.4c-0.1,0.2-0.3,0.4-0.6,0.4h-1.5
						C687,576.7,686.8,576.4,686.9,576.1z M698,570.9l-3-6.7h-0.1l-3,6.7H698z"/>
					<path class="st0" d="M705.5,560c0-0.2,0.2-0.5,0.5-0.5h1.6c0.2,0,0.5,0.2,0.5,0.5v14.4h6.6c0.3,0,0.5,0.2,0.5,0.5v1.3
						c0,0.2-0.2,0.5-0.5,0.5h-8.7c-0.3,0-0.5-0.2-0.5-0.5V560z"/>
					<path class="st0" d="M717.7,560c0-0.2,0.2-0.5,0.5-0.5h1.6c0.2,0,0.5,0.2,0.5,0.5v16.2c0,0.2-0.2,0.5-0.5,0.5h-1.6
						c-0.2,0-0.5-0.2-0.5-0.5V560z"/>
					<path class="st0" d="M723.3,575.8l8.1-13.8v-0.1h-6.9c-0.2,0-0.5-0.2-0.5-0.5V560c0-0.2,0.2-0.5,0.5-0.5h10.1
						c0.2,0,0.5,0.2,0.5,0.5v0.3l-8.1,14v0h7.2c0.3,0,0.5,0.2,0.5,0.5v1.4c0,0.2-0.2,0.5-0.5,0.5h-10.3c-0.2,0-0.5-0.2-0.5-0.5
						V575.8z"/>
					<path class="st0" d="M735.8,576.1l7.5-16.5c0.1-0.1,0.3-0.3,0.4-0.3h0.2c0.1,0,0.3,0.1,0.4,0.3l7.5,16.5c0.1,0.3,0,0.6-0.4,0.6
						h-1.5c-0.3,0-0.5-0.1-0.6-0.4l-1.5-3.4h-8c-0.5,1.1-1,2.2-1.5,3.4c-0.1,0.2-0.3,0.4-0.6,0.4h-1.5
						C735.8,576.7,735.6,576.4,735.8,576.1z M746.9,570.9l-3-6.7h-0.1l-3,6.7H746.9z"/>
					<path class="st0" d="M761.8,559.3c2.5,0,4.3,0.8,5.9,2.3c0.2,0.2,0.2,0.5,0,0.7l-1.1,1.1c-0.2,0.2-0.4,0.2-0.6,0
						c-1.2-1-2.7-1.6-4.2-1.6c-3.5,0-6.2,2.9-6.2,6.4c0,3.4,2.7,6.4,6.2,6.4c1.8,0,3-0.7,4.2-1.6c0.2-0.2,0.4-0.1,0.6,0l1.1,1.1
						c0.2,0.2,0.1,0.5,0,0.7c-1.7,1.6-3.8,2.4-6,2.4c-4.9,0-8.9-3.9-8.9-8.8C753,563.2,756.9,559.3,761.8,559.3z"/>
					<path class="st0" d="M771.3,560c0-0.2,0.2-0.5,0.5-0.5h1.6c0.2,0,0.5,0.2,0.5,0.5v16.2c0,0.2-0.2,0.5-0.5,0.5h-1.6
						c-0.2,0-0.5-0.2-0.5-0.5V560z"/>
					<path class="st0" d="M786.1,559.3c4.9,0,8.8,3.9,8.8,8.9c0,4.9-3.9,8.8-8.8,8.8c-4.9,0-8.8-3.9-8.8-8.8
						C777.3,563.2,781.2,559.3,786.1,559.3z M786.1,574.5c3.5,0,6.4-2.8,6.4-6.4c0-3.5-2.9-6.4-6.4-6.4c-3.5,0-6.4,2.9-6.4,6.4
						C779.8,571.7,782.7,574.5,786.1,574.5z"/>
					<path class="st0" d="M798.5,559.7c0-0.2,0.2-0.4,0.5-0.4h0.6l10.6,12.3h0V560c0-0.2,0.2-0.5,0.5-0.5h1.6c0.2,0,0.5,0.2,0.5,0.5
						v16.5c0,0.2-0.2,0.4-0.5,0.4h-0.6L801,564.3h0v11.9c0,0.2-0.2,0.5-0.5,0.5h-1.5c-0.2,0-0.5-0.2-0.5-0.5V559.7z"/>
					<path class="st0" d="M826.2,568.4l-5.7-8.2c-0.2-0.3,0-0.7,0.4-0.7h1.8c0.2,0,0.3,0.1,0.4,0.2l4.4,6.3l4.4-6.3
						c0.1-0.1,0.2-0.2,0.4-0.2h1.8c0.4,0,0.6,0.4,0.4,0.7l-5.8,8.2v7.8c0,0.2-0.2,0.5-0.5,0.5h-1.6c-0.3,0-0.5-0.2-0.5-0.5V568.4z"
						/>
					<path class="st0" d="M849.9,559.3c2.5,0,4.3,0.8,5.9,2.3c0.2,0.2,0.2,0.5,0,0.7l-1.1,1.1c-0.2,0.2-0.4,0.2-0.6,0
						c-1.2-1-2.7-1.6-4.2-1.6c-3.5,0-6.2,2.9-6.2,6.4c0,3.4,2.7,6.4,6.2,6.4c1.8,0,3-0.7,4.2-1.6c0.2-0.2,0.4-0.1,0.6,0l1.1,1.1
						c0.2,0.2,0.1,0.5,0,0.7c-1.7,1.6-3.8,2.4-6,2.4c-4.9,0-8.9-3.9-8.9-8.8C841.1,563.2,845,559.3,849.9,559.3z"/>
					<path class="st0" d="M866.8,559.3c4.9,0,8.8,3.9,8.8,8.9c0,4.9-3.9,8.8-8.8,8.8c-4.9,0-8.8-3.9-8.8-8.8
						C858,563.2,861.9,559.3,866.8,559.3z M866.8,574.5c3.5,0,6.4-2.8,6.4-6.4c0-3.5-2.9-6.4-6.4-6.4c-3.5,0-6.4,2.9-6.4,6.4
						C860.5,571.7,863.4,574.5,866.8,574.5z"/>
					<path class="st0" d="M879.2,559.7c0-0.2,0.2-0.4,0.5-0.4h0.6l10.6,12.3h0V560c0-0.2,0.2-0.5,0.5-0.5h1.6c0.2,0,0.5,0.2,0.5,0.5
						v16.5c0,0.2-0.2,0.4-0.5,0.4h-0.6l-10.6-12.7h0v11.9c0,0.2-0.2,0.5-0.5,0.5h-1.5c-0.2,0-0.5-0.2-0.5-0.5V559.7z"/>
					<path class="st0" d="M900.5,561.8h-4c-0.3,0-0.5-0.2-0.5-0.5V560c0-0.2,0.2-0.5,0.5-0.5h10.5c0.3,0,0.5,0.2,0.5,0.5v1.4
						c0,0.2-0.2,0.5-0.5,0.5h-4v14.4c0,0.2-0.2,0.5-0.5,0.5H901c-0.2,0-0.5-0.2-0.5-0.5V561.8z"/>
					<path class="st0" d="M910.2,560c0-0.2,0.2-0.5,0.5-0.5h6.7c2.9,0,5.3,2.3,5.3,5.2c0,2.3-1.5,4.1-3.6,5l3.4,6.2
						c0.2,0.3,0,0.7-0.4,0.7H920c-0.2,0-0.3-0.1-0.4-0.2l-3.3-6.5h-3.7v6.3c0,0.2-0.2,0.5-0.5,0.5h-1.6c-0.3,0-0.5-0.2-0.5-0.5V560z
						 M917.1,567.9c1.6,0,3-1.3,3-3c0-1.6-1.4-2.9-3-2.9h-4.4v6H917.1z"/>
					<path class="st0" d="M934,559.3c4.9,0,8.8,3.9,8.8,8.9c0,4.9-3.9,8.8-8.8,8.8c-4.9,0-8.8-3.9-8.8-8.8
						C925.2,563.2,929.1,559.3,934,559.3z M934,574.5c3.5,0,6.4-2.8,6.4-6.4c0-3.5-2.9-6.4-6.4-6.4c-3.5,0-6.4,2.9-6.4,6.4
						C927.7,571.7,930.5,574.5,934,574.5z"/>
					<path class="st0" d="M946.3,560c0-0.2,0.2-0.5,0.5-0.5h1.6c0.2,0,0.5,0.2,0.5,0.5v14.4h6.6c0.3,0,0.5,0.2,0.5,0.5v1.3
						c0,0.2-0.2,0.5-0.5,0.5h-8.7c-0.3,0-0.5-0.2-0.5-0.5V560z"/>
				</g>
			</g>
			<rect x="584.8" y="548.5" class="st6" width="41.7" height="41.7"/>
		</g>
	</g>
	<g>
		<g>
			<g>
				<g>
					<path class="st0" d="M390.4,435.5c0.2-0.3,0.4-0.7,0.6-1c0.2-0.3,0.6-0.4,0.8-0.2c0.1,0.1,2,1.7,3.9,1.7c1.7,0,2.8-1,2.8-2.3
						c0-1.5-1.3-2.4-3.7-3.4c-2.5-1.1-4.5-2.4-4.5-5.2c0-1.9,1.5-4.5,5.4-4.5c2.5,0,4.3,1.3,4.5,1.4c0.2,0.1,0.4,0.5,0.1,0.8
						c-0.2,0.3-0.4,0.6-0.6,0.9c-0.2,0.3-0.5,0.5-0.9,0.2c-0.2-0.1-1.9-1.2-3.3-1.2c-2.1,0-2.8,1.3-2.8,2.2c0,1.4,1.1,2.3,3.1,3.1
						c2.8,1.2,5.3,2.5,5.3,5.5c0,2.6-2.3,4.6-5.5,4.6c-3,0-4.9-1.6-5.3-1.9C390.3,436.1,390.1,435.9,390.4,435.5z"/>
					<path class="st0" d="M404.7,421.3c0-0.2,0.2-0.5,0.5-0.5h9.8c0.3,0,0.5,0.2,0.5,0.5v1.4c0,0.2-0.2,0.5-0.5,0.5h-7.7v5h6.5
						c0.2,0,0.5,0.2,0.5,0.5v1.4c0,0.3-0.2,0.5-0.5,0.5h-6.5v5.3h7.7c0.3,0,0.5,0.2,0.5,0.5v1.3c0,0.2-0.2,0.5-0.5,0.5h-9.8
						c-0.3,0-0.5-0.2-0.5-0.5V421.3z"/>
					<path class="st0" d="M426.6,420.5c2.4,0,4.3,0.9,6,2.3c0.2,0.2,0.2,0.5,0,0.7c-0.4,0.4-0.7,0.8-1.1,1.2c-0.2,0.2-0.4,0.2-0.6,0
						c-1.2-1-2.7-1.7-4.2-1.7c-3.5,0-6.2,2.9-6.2,6.4c0,3.4,2.7,6.4,6.2,6.4c2,0,3.4-0.7,3.7-0.8v-2.7h-2.4c-0.3,0-0.5-0.2-0.5-0.4
						v-1.4c0-0.3,0.2-0.5,0.5-0.5h4.5c0.2,0,0.4,0.2,0.4,0.5c0,2,0,4,0,5.9c0,0.1-0.1,0.3-0.2,0.4c0,0-2.5,1.6-6.1,1.6
						c-4.9,0-8.8-3.9-8.8-8.8S421.7,420.5,426.6,420.5z"/>
					<path class="st0" d="M436.5,421.3c0-0.2,0.2-0.5,0.5-0.5h1.6c0.3,0,0.5,0.2,0.5,0.5v10.1c0,2.5,1.6,4.4,4.1,4.4
						c2.5,0,4.1-1.9,4.1-4.3v-10.2c0-0.2,0.2-0.5,0.5-0.5h1.6c0.2,0,0.5,0.2,0.5,0.5v10.3c0,3.7-2.8,6.6-6.7,6.6
						c-3.8,0-6.6-2.9-6.6-6.6V421.3z"/>
					<path class="st0" d="M454.4,421.3c0-0.2,0.2-0.5,0.5-0.5h6.7c2.9,0,5.3,2.3,5.3,5.2c0,2.3-1.5,4.1-3.6,5l3.4,6.2
						c0.2,0.3,0,0.7-0.4,0.7h-1.9c-0.2,0-0.3-0.1-0.4-0.2l-3.3-6.5h-3.7v6.3c0,0.2-0.2,0.5-0.5,0.5h-1.6c-0.3,0-0.5-0.2-0.5-0.5
						V421.3z M461.3,429.1c1.6,0,3-1.3,3-3c0-1.6-1.4-2.9-3-2.9h-4.4v6H461.3z"/>
					<path class="st0" d="M470.7,421.3c0-0.2,0.2-0.5,0.5-0.5h1.6c0.2,0,0.5,0.2,0.5,0.5v16.2c0,0.2-0.2,0.5-0.5,0.5h-1.6
						c-0.2,0-0.5-0.2-0.5-0.5V421.3z"/>
					<path class="st0" d="M478,421.3c0-0.2,0.2-0.5,0.4-0.5h5.6c4.7,0,8.6,3.8,8.6,8.6c0,4.8-3.9,8.6-8.6,8.6h-5.6
						c-0.2,0-0.4-0.2-0.4-0.5V421.3z M483.7,435.6c3.6,0,6.2-2.6,6.2-6.3c0-3.6-2.6-6.2-6.2-6.2h-3.2v12.5H483.7z"/>
					<path class="st0" d="M493.7,437.3l7.5-16.5c0.1-0.1,0.3-0.3,0.4-0.3h0.2c0.1,0,0.3,0.1,0.4,0.3l7.5,16.5c0.1,0.3,0,0.6-0.4,0.6
						h-1.5c-0.3,0-0.5-0.1-0.6-0.4l-1.5-3.4h-8c-0.5,1.1-1,2.2-1.5,3.4c-0.1,0.2-0.3,0.4-0.6,0.4h-1.5
						C493.8,438,493.6,437.6,493.7,437.3z M504.8,432.1l-3-6.7h-0.1l-3,6.7H504.8z"/>
					<path class="st0" d="M512.3,421.3c0-0.2,0.2-0.5,0.4-0.5h5.6c4.7,0,8.6,3.8,8.6,8.6c0,4.8-3.9,8.6-8.6,8.6h-5.6
						c-0.2,0-0.4-0.2-0.4-0.5V421.3z M518,435.6c3.6,0,6.2-2.6,6.2-6.3c0-3.6-2.6-6.2-6.2-6.2h-3.2v12.5H518z"/>
				</g>
			</g>
			<rect x="338.5" y="409.8" class="st0" width="41.7" height="41.7"/>
		</g>
		<g>
			<g>
				<g>
					<path class="st0" d="M390.4,504.9c0.2-0.3,0.4-0.7,0.6-1c0.2-0.3,0.6-0.4,0.8-0.2c0.1,0.1,2,1.7,3.9,1.7c1.7,0,2.8-1,2.8-2.3
						c0-1.5-1.3-2.4-3.7-3.4c-2.5-1.1-4.5-2.4-4.5-5.2c0-1.9,1.5-4.5,5.4-4.5c2.5,0,4.3,1.3,4.5,1.4c0.2,0.1,0.4,0.5,0.1,0.8
						c-0.2,0.3-0.4,0.6-0.6,0.9c-0.2,0.3-0.5,0.5-0.9,0.2c-0.2-0.1-1.9-1.2-3.3-1.2c-2.1,0-2.8,1.3-2.8,2.2c0,1.4,1.1,2.3,3.1,3.1
						c2.8,1.2,5.3,2.5,5.3,5.5c0,2.6-2.3,4.6-5.5,4.6c-3,0-4.9-1.6-5.3-1.9C390.3,505.4,390.1,505.3,390.4,504.9z"/>
					<path class="st0" d="M402.3,506.7l7.5-16.5c0.1-0.1,0.3-0.3,0.4-0.3h0.2c0.1,0,0.3,0.1,0.4,0.3l7.5,16.5c0.1,0.3,0,0.6-0.4,0.6
						h-1.5c-0.3,0-0.5-0.1-0.6-0.4l-1.5-3.4h-8c-0.5,1.1-1,2.2-1.5,3.4c-0.1,0.2-0.3,0.4-0.6,0.4h-1.5
						C402.4,507.3,402.2,507,402.3,506.7z M413.5,501.5l-3-6.7h-0.1l-3,6.7H413.5z"/>
					<path class="st0" d="M420.9,490.6c0-0.2,0.2-0.5,0.5-0.5h1.6c0.2,0,0.5,0.2,0.5,0.5V505h6.6c0.3,0,0.5,0.2,0.5,0.5v1.3
						c0,0.2-0.2,0.5-0.5,0.5h-8.7c-0.3,0-0.5-0.2-0.5-0.5V490.6z"/>
					<path class="st0" d="M432.6,490.6c0-0.2,0.2-0.5,0.5-0.5h1.6c0.3,0,0.5,0.2,0.5,0.5v10.1c0,2.5,1.6,4.4,4.1,4.4
						c2.5,0,4.1-1.9,4.1-4.3v-10.2c0-0.2,0.2-0.5,0.5-0.5h1.6c0.2,0,0.5,0.2,0.5,0.5v10.3c0,3.7-2.8,6.6-6.7,6.6
						c-3.8,0-6.6-2.9-6.6-6.6V490.6z"/>
					<path class="st0" d="M450.4,490.6c0-0.2,0.2-0.5,0.4-0.5h5.6c4.7,0,8.6,3.9,8.6,8.6c0,4.8-3.9,8.6-8.6,8.6h-5.6
						c-0.2,0-0.4-0.2-0.4-0.5V490.6z M456.2,505c3.6,0,6.2-2.6,6.2-6.3c0-3.6-2.6-6.2-6.2-6.2h-3.2V505H456.2z"/>
				</g>
			</g>
			<rect x="338.5" y="479.2" class="st7" width="41.7" height="41.7"/>
		</g>
		<g>
			<g>
				<g>
					<path class="st0" d="M393.8,561.8h-4c-0.3,0-0.5-0.2-0.5-0.5V560c0-0.2,0.2-0.5,0.5-0.5h10.5c0.3,0,0.5,0.2,0.5,0.5v1.4
						c0,0.2-0.2,0.5-0.5,0.5h-4v14.4c0,0.2-0.2,0.5-0.5,0.5h-1.6c-0.2,0-0.5-0.2-0.5-0.5V561.8z"/>
					<path class="st0" d="M403.5,560c0-0.2,0.2-0.5,0.5-0.5h6.7c2.9,0,5.3,2.3,5.3,5.2c0,2.3-1.5,4.1-3.6,5l3.4,6.2
						c0.2,0.3,0,0.7-0.4,0.7h-1.9c-0.2,0-0.3-0.1-0.4-0.2l-3.3-6.5H406v6.3c0,0.2-0.2,0.5-0.5,0.5H404c-0.3,0-0.5-0.2-0.5-0.5V560z
						 M410.4,567.9c1.6,0,3-1.3,3-3c0-1.6-1.4-2.9-3-2.9h-4.4v6H410.4z"/>
					<path class="st0" d="M417.5,576.1l7.5-16.5c0.1-0.1,0.3-0.3,0.4-0.3h0.2c0.1,0,0.3,0.1,0.4,0.3l7.5,16.5c0.1,0.3,0,0.6-0.4,0.6
						h-1.5c-0.3,0-0.5-0.1-0.6-0.4l-1.5-3.4h-8c-0.5,1.1-1,2.2-1.5,3.4c-0.1,0.2-0.3,0.4-0.6,0.4h-1.5
						C417.5,576.7,417.3,576.4,417.5,576.1z M428.6,570.9l-3-6.7h-0.1l-3,6.7H428.6z"/>
					<path class="st0" d="M436,559.7c0-0.2,0.2-0.4,0.5-0.4h0.6l10.6,12.3h0V560c0-0.2,0.2-0.5,0.5-0.5h1.6c0.2,0,0.5,0.2,0.5,0.5
						v16.5c0,0.2-0.2,0.4-0.5,0.4h-0.6l-10.6-12.7h0v11.9c0,0.2-0.2,0.5-0.5,0.5h-1.5c-0.2,0-0.5-0.2-0.5-0.5V559.7z"/>
					<path class="st0" d="M453.9,574.2c0.2-0.3,0.4-0.7,0.6-1c0.2-0.3,0.6-0.4,0.8-0.2c0.1,0.1,2,1.7,3.9,1.7c1.7,0,2.8-1,2.8-2.3
						c0-1.5-1.3-2.4-3.7-3.4c-2.5-1.1-4.5-2.4-4.5-5.2c0-1.9,1.5-4.5,5.4-4.5c2.5,0,4.3,1.3,4.5,1.4c0.2,0.1,0.4,0.5,0.1,0.8
						c-0.2,0.3-0.4,0.6-0.6,0.9c-0.2,0.3-0.5,0.5-0.9,0.2c-0.2-0.1-1.9-1.2-3.3-1.2c-2.1,0-2.8,1.3-2.8,2.2c0,1.4,1.1,2.3,3.1,3.1
						c2.8,1.2,5.3,2.5,5.3,5.5c0,2.6-2.3,4.6-5.5,4.6c-3,0-4.9-1.6-5.3-1.9C453.8,574.8,453.7,574.6,453.9,574.2z"/>
					<path class="st0" d="M468.2,560c0-0.2,0.2-0.5,0.5-0.5h1.6c0.2,0,0.5,0.2,0.5,0.5v16.2c0,0.2-0.2,0.5-0.5,0.5h-1.6
						c-0.2,0-0.5-0.2-0.5-0.5V560z"/>
					<path class="st0" d="M477.8,561.8h-4c-0.3,0-0.5-0.2-0.5-0.5V560c0-0.2,0.2-0.5,0.5-0.5h10.5c0.3,0,0.5,0.2,0.5,0.5v1.4
						c0,0.2-0.2,0.5-0.5,0.5h-4v14.4c0,0.2-0.2,0.5-0.5,0.5h-1.6c-0.2,0-0.5-0.2-0.5-0.5V561.8z"/>
					<path class="st0" d="M494.8,559.3c4.9,0,8.8,3.9,8.8,8.9c0,4.9-3.9,8.8-8.8,8.8c-4.9,0-8.8-3.9-8.8-8.8
						C486,563.2,489.9,559.3,494.8,559.3z M494.8,574.5c3.5,0,6.4-2.8,6.4-6.4c0-3.5-2.9-6.4-6.4-6.4c-3.5,0-6.4,2.9-6.4,6.4
						C488.4,571.7,491.3,574.5,494.8,574.5z"/>
				</g>
			</g>
			<rect x="338.5" y="548.5" class="st8" width="41.7" height="41.7"/>
		</g>
	</g>
</g>
</svg>
