<?xml version="1.0" encoding="utf-8"?>
<!-- Generator: Adobe Illustrator 21.1.0, SVG Export Plug-In . SVG Version: 6.00 Build 0)  -->
<svg version="1.1" id="Layer_1" xmlns="http://www.w3.org/2000/svg" xmlns:xlink="http://www.w3.org/1999/xlink" x="0px" y="0px"
	 viewBox="0 0 300 300" style="enable-background:new 0 0 300 300;" xml:space="preserve">
<style type="text/css">
	.st0{fill:#71bf44;stroke:#71bf44;stroke-width:4;stroke-miterlimit:10;}
</style>
<path class="st0" d="M261.9,1.8h-140c-3.5,0-7.9,1.5-11.1,3.7c-0.7,0.4-1.4,0.9-2.2,1.7L36.3,79.6c-0.6,0.6-1.1,1.2-1.4,1.8
	c-2.4,3.2-4.1,7.8-4.1,11.5v194.9c0,5.6,4.5,10.1,10.1,10.1h220.9c5.6,0,10.1-4.5,10.1-10.1V12C272,6.4,267.5,1.8,261.9,1.8z
	 M111.8,15.7v65c0,1.1-0.9,2-2,2h-65L111.8,15.7z M263.9,287.8c0,1.1-0.9,2-2,2H40.9c-1.1,0-2-0.9-2-2V93c0-0.7,1.4-2.1,2-2.1h68.8
	c5.6,0,10.1-4.5,10.1-10.1V11.9c0-0.6,1.4-1.9,2-1.9h140c1.1,0,2,0.9,2,2V287.8z"/>
<g>
	<g>
		<path class="st0" d="M151.4,239c-2.8,0-5.7-0.9-7.9-2.6l-27.7-21.6c-2.2-1.7-2.6-4.9-0.9-7.1c1.7-2.2,4.9-2.6,7.1-0.9l24.4,19v-94
			c0-2.8,2.3-5.1,5.1-5.1s5.1,2.3,5.1,5.1v94L178,209c2.2-1.7,5.4-1.3,7.1,0.9c0.7,0.9,1.1,2,1.1,3.1c0,1.5-0.7,3-2,4l-24.9,19.4
			c-0.8,0.6-1.5,1.1-2.3,1.4C155.3,238.6,153.3,239,151.4,239z"/>
		<path class="st0" d="M151.4,241c-3.4,0-6.7-1.1-9.2-3l-27.7-21.6c-3.1-2.4-3.6-6.9-1.2-10c1.2-1.5,2.8-2.4,4.7-2.7c1.9-0.2,3.7,0.3,5.2,1.4
			l21.1,16.4v-89.9c0-3.9,3.2-7.1,7.1-7.1c3.9,0,7.1,3.2,7.1,7.1v89.9l18.3-14.2c3.1-2.4,7.6-1.8,10,1.2c1,1.3,1.5,2.8,1.5,4.4
			c0,2.2-1,4.2-2.7,5.6L160.6,238c-0.9,0.7-1.8,1.2-2.7,1.7C155.9,240.5,153.7,241,151.4,241z M118.9,207.7c-0.1,0-0.3,0-0.4,0
			c-0.8,0.1-1.5,0.5-2,1.2c-1,1.3-0.8,3.2,0.5,4.3l27.7,21.6c3,2.3,7.8,2.8,11.4,1.2c0.7-0.3,1.3-0.7,1.9-1.2l24.9-19.4
			c0.7-0.6,1.2-1.5,1.2-2.4c0-0.7-0.2-1.3-0.6-1.9c-1-1.3-2.9-1.6-4.3-0.5l-24.8,19.3v-98.2c0-1.7-1.4-3-3-3c-1.7,0-3,1.4-3,3v98.2
			l-27.6-21.5C120.2,207.9,119.6,207.7,118.9,207.7z"/>
	</g>
</g>
</svg>
