<?xml version="1.0" encoding="utf-8"?>
<!-- Generator: Adobe Illustrator 22.0.1, SVG Export Plug-In . SVG Version: 6.00 Build 0)  -->
<svg version="1.1"
	 id="Layer_1" xmlns:cc="http://creativecommons.org/ns#" xmlns:dc="http://purl.org/dc/elements/1.1/" xmlns:inkscape="http://www.inkscape.org/namespaces/inkscape" xmlns:rdf="http://www.w3.org/1999/02/22-rdf-syntax-ns#" xmlns:sodipodi="http://sodipodi.sourceforge.net/DTD/sodipodi-0.dtd" xmlns:svg="http://www.w3.org/2000/svg"
	 xmlns="http://www.w3.org/2000/svg" xmlns:xlink="http://www.w3.org/1999/xlink" x="0px" y="0px" viewBox="0 0 100 92.8"
	 style="enable-background:new 0 0 100 92.8;" xml:space="preserve">
<style type="text/css">
	.st0{fill:#00A9CE;}
</style>
<g transform="translate(0,-952.36218)">
	<path class="st0" d="M14,968.8c-2.2,0-4,1.8-4,4s1.8,4,4,4h72c2.2,0,4-1.8,4-4s-1.8-4-4-4H14z M14,994.8c-2.2,0-4,1.8-4,4
		s1.8,4,4,4h72c2.2,0,4-1.8,4-4s-1.8-4-4-4H14z M14,1020.8c-2.2,0-4,1.8-4,4s1.8,4,4,4h72c2.2,0,4-1.8,4-4s-1.8-4-4-4L14,1020.8
		L14,1020.8z"/>
</g>
</svg>
