<?xml version="1.0" encoding="utf-8"?>
<!-- Generator: Adobe Illustrator 21.1.0, SVG Export Plug-In . SVG Version: 6.00 Build 0)  -->
<svg version="1.1" id="Layer_1" xmlns="http://www.w3.org/2000/svg" xmlns:xlink="http://www.w3.org/1999/xlink" x="0px" y="0px"
	 viewBox="0 0 300 83" style="enable-background:new 0 0 300 83;" xml:space="preserve">
<style type="text/css">
	.st0{fill:#4A4A49;}
</style>
<g>
	<path class="st0" d="M5.2,13.3c0-0.3,0.3-0.6,0.6-0.6h12.6c0.3,0,0.6,0.3,0.6,0.6v2.5c0,0.3-0.2,0.6-0.6,0.6H9.2v5.8h7.6
		c0.3,0,0.6,0.3,0.6,0.6v2.5c0,0.3-0.3,0.6-0.6,0.6H9.2v7.8c0,0.3-0.3,0.6-0.6,0.6H5.8c-0.3,0-0.6-0.3-0.6-0.6V13.3z"/>
	<path class="st0" d="M25.7,21.7c3.5,0,6.3,3,6.3,6.5c0,3.6-2.8,6.5-6.3,6.5c-3.5,0-6.3-3-6.3-6.5C19.3,24.7,22.2,21.7,25.7,21.7z
		 M25.7,31.4c1.6,0,3-1.4,3-3.2c0-1.7-1.3-3.1-3-3.1c-1.7,0-3,1.4-3,3.1C22.7,29.9,24,31.4,25.7,31.4z"/>
	<path class="st0" d="M34.5,22.6c0-0.3,0.3-0.6,0.6-0.6h1.2c0.3,0,0.5,0.2,0.6,0.4l0.4,1.2c0.4-0.6,1.6-1.9,3.5-1.9
		c1.5,0,2.8,0.5,2.4,1.2l-1.1,2c-0.2,0.3-0.5,0.4-0.7,0.3c-0.1,0-0.6-0.2-0.9-0.2c-1.2,0-2,0.8-2.2,1.3v7.5c0,0.4-0.3,0.6-0.7,0.6
		h-2.4c-0.3,0-0.6-0.3-0.6-0.6V22.6z"/>
	<path class="st0" d="M50,21.7c3.5,0,6.3,3,6.3,6.5c0,3.6-2.8,6.5-6.3,6.5c-3.5,0-6.3-3-6.3-6.5C43.7,24.7,46.5,21.7,50,21.7z
		 M50,31.4c1.6,0,3-1.4,3-3.2c0-1.7-1.3-3.1-3-3.1c-1.7,0-3,1.4-3,3.1C47,29.9,48.3,31.4,50,31.4z"/>
	<path class="st0" d="M58.1,32.9l0.8-1.7c0.1-0.3,0.4-0.4,0.7-0.2c0,0,1.4,0.7,2.8,0.7c0.6,0,1.1-0.2,1.1-0.8c0-0.6-0.4-0.9-2.1-1.5
		c-2.4-0.9-3.5-2.2-3.5-4.1c0-1.9,1.4-3.6,4.5-3.6c1.8,0,3.2,0.5,3.8,1c0.3,0.2,0.4,0.5,0.3,0.8l-0.8,1.6c-0.2,0.3-0.5,0.3-0.8,0.2
		c0,0-1.4-0.6-2.6-0.6c-0.7,0-1.1,0.3-1.1,0.7c0,0.6,0.6,0.7,1.7,1.2c2.4,0.9,4.2,1.9,4.2,4.4c0,2-1.8,3.8-4.9,3.8
		c-2,0-3.5-0.7-4.1-1.1C58.1,33.4,58,33.2,58.1,32.9z"/>
	<path class="st0" d="M74.4,13.5c-0.2-0.4,0.1-0.8,0.5-0.8h3.2c0.3,0,0.5,0.2,0.5,0.3l5.9,13.3h0.2l5.9-13.3
		c0.1-0.2,0.3-0.3,0.5-0.3h3.2c0.5,0,0.7,0.4,0.5,0.8l-9.6,20.8c-0.1,0.2-0.2,0.3-0.5,0.3h-0.3c-0.3,0-0.4-0.2-0.5-0.3L74.4,13.5z"
		/>
	<path class="st0" d="M99.2,21.7c3.2,0,5.8,2.4,5.8,5.8c0,0.2,0,0.6-0.1,0.8c0,0.3-0.3,0.5-0.6,0.5h-7.9c0.1,1.3,1.2,2.7,3,2.7
		c1,0,1.9-0.4,2.4-0.8c0.3-0.2,0.6-0.2,0.8,0l1.3,1.5c0.2,0.2,0.3,0.6,0,0.8c-1,1-2.6,1.7-4.6,1.7c-3.7,0-6.3-2.9-6.3-6.5
		C92.9,24.7,95.5,21.7,99.2,21.7z M101.4,26.7c-0.1-1.1-1.1-2.1-2.3-2.1c-1.2,0-2.3,0.9-2.4,2.1H101.4z"/>
	<path class="st0" d="M112.9,21.7c1.9,0,3.4,0.8,4.6,2.2c0.2,0.3,0.1,0.6-0.2,0.9l-1.4,1.4c-0.3,0.2-0.6,0.1-0.8-0.1
		c-0.5-0.6-1.3-1-2.1-1c-1.7,0-3,1.4-3,3.2c0,1.8,1.3,3.2,3,3.2c1.3,0,1.9-0.6,2.5-1.2c0.2-0.2,0.5-0.3,0.8-0.1l1.3,1.1
		c0.3,0.2,0.4,0.6,0.2,0.9c-1.1,1.6-2.7,2.6-4.9,2.6c-3.5,0-6.6-2.8-6.6-6.5C106.3,24.6,109.4,21.7,112.9,21.7z"/>
	<path class="st0" d="M119.9,15.5c0-1.2,0.9-2.1,2.1-2.1c1.2,0,2.2,1,2.2,2.1c0,1.2-1,2.1-2.2,2.1C120.8,17.6,119.9,16.7,119.9,15.5
		z M120.1,22.6c0-0.3,0.3-0.6,0.6-0.6h2.6c0.3,0,0.6,0.2,0.6,0.6v11.2c0,0.3-0.3,0.6-0.6,0.6h-2.6c-0.3,0-0.6-0.3-0.6-0.6V22.6z"/>
	<path class="st0" d="M127.3,22.6c0-0.3,0.3-0.6,0.6-0.6h1.2c0.3,0,0.4,0.2,0.5,0.4l0.4,1.1c0.5-0.5,2-1.8,4.4-1.8
		c3.9,0,5.5,2.9,5.5,6.2v5.9c0,0.3-0.3,0.6-0.6,0.6h-2.5c-0.3,0-0.6-0.3-0.6-0.6v-6.1c0-1.6-0.8-2.6-2.3-2.6c-1.6,0-2.6,1.1-2.9,2
		v6.8c0,0.4-0.2,0.6-0.8,0.6h-2.3c-0.3,0-0.6-0.3-0.6-0.6V22.6z"/>
	<path class="st0" d="M147.1,26.6c1.2,0,2.3,0.3,2.3,0.3c0-1.6-0.5-2.1-1.6-2.1c-1.1,0-2.8,0.2-3.5,0.5c-0.4,0.1-0.7-0.2-0.7-0.6
		l-0.3-1.6c-0.1-0.5,0.2-0.7,0.4-0.8c0.2-0.1,2.2-0.6,4.2-0.6c3.9,0,4.8,2,4.8,5.4v6.7c0,0.3-0.3,0.6-0.6,0.6H151
		c-0.2,0-0.4-0.1-0.5-0.4l-0.4-0.8c-0.7,0.6-1.9,1.6-3.8,1.6c-2.5,0-4.2-1.6-4.2-4.2C142.1,28.3,143.9,26.6,147.1,26.6z M147.2,32.1
		c1,0,1.9-0.8,2.1-1.2v-1.7c0,0-0.8-0.4-1.7-0.4c-1.2,0-2,0.7-2,1.7C145.5,31.4,146.2,32.1,147.2,32.1z"/>
	<path class="st0" d="M155.9,13.3c0-0.3,0.3-0.6,0.6-0.6h2.6c0.3,0,0.6,0.3,0.6,0.6v20.5c0,0.3-0.3,0.6-0.6,0.6h-2.6
		c-0.3,0-0.6-0.3-0.6-0.6V13.3z"/>
	<path class="st0" d="M168.5,21.7c3.2,0,5.8,2.4,5.8,5.8c0,0.2,0,0.6-0.1,0.8c0,0.3-0.3,0.5-0.6,0.5h-7.9c0.1,1.3,1.2,2.7,3,2.7
		c1,0,1.9-0.4,2.4-0.8c0.3-0.2,0.6-0.2,0.8,0l1.3,1.5c0.2,0.2,0.3,0.6,0,0.8c-1,1-2.6,1.7-4.6,1.7c-3.7,0-6.3-2.9-6.3-6.5
		C162.2,24.7,164.8,21.7,168.5,21.7z M170.7,26.7c-0.1-1.1-1.1-2.1-2.3-2.1c-1.2,0-2.3,0.9-2.4,2.1H170.7z"/>
	<path class="st0" d="M175.9,32.9l0.8-1.7c0.1-0.3,0.4-0.4,0.7-0.2c0,0,1.4,0.7,2.8,0.7c0.6,0,1.1-0.2,1.1-0.8
		c0-0.6-0.4-0.9-2.1-1.5c-2.4-0.9-3.5-2.2-3.5-4.1c0-1.9,1.4-3.6,4.6-3.6c1.8,0,3.2,0.5,3.8,1c0.3,0.2,0.4,0.5,0.3,0.8l-0.8,1.6
		c-0.2,0.3-0.5,0.3-0.7,0.2c0,0-1.4-0.6-2.6-0.6c-0.7,0-1.1,0.3-1.1,0.7c0,0.6,0.6,0.7,1.7,1.2c2.4,0.9,4.2,1.9,4.2,4.4
		c0,2-1.8,3.8-4.9,3.8c-2,0-3.5-0.7-4.1-1.1C175.9,33.4,175.8,33.2,175.9,32.9z"/>
	<path class="st0" d="M195,13.3c0-0.3,0.3-0.6,0.6-0.6h7.1c3.7,0,6.5,2.5,6.5,5.7c0,2.4-1.9,4.2-3.4,4.9c1.6,0.5,4,2.2,4,5
		c0,3.5-3,6-6.7,6h-7.5c-0.3,0-0.6-0.3-0.6-0.6V13.3z M202.3,21.8c1.6,0,2.7-1.2,2.7-2.8c0-1.5-1.1-2.6-2.7-2.6H199v5.4H202.3z
		 M202.7,30.7c1.6,0,2.8-1.2,2.8-2.8c0-1.5-1.5-2.7-3.2-2.7H199v5.5H202.7z"/>
	<path class="st0" d="M216.5,26.6c1.2,0,2.3,0.3,2.3,0.3c0-1.6-0.5-2.1-1.6-2.1c-1.1,0-2.8,0.2-3.5,0.5c-0.4,0.1-0.6-0.2-0.7-0.6
		l-0.3-1.6c-0.1-0.5,0.2-0.7,0.4-0.8c0.3-0.1,2.2-0.6,4.2-0.6c3.9,0,4.8,2,4.8,5.4v6.7c0,0.3-0.3,0.6-0.6,0.6h-1.1
		c-0.2,0-0.4-0.1-0.5-0.4l-0.4-0.8c-0.7,0.6-1.9,1.6-3.8,1.6c-2.5,0-4.2-1.6-4.2-4.2C211.5,28.3,213.3,26.6,216.5,26.6z M216.6,32.1
		c1,0,1.9-0.8,2.1-1.2v-1.7c0,0-0.8-0.4-1.7-0.4c-1.2,0-2,0.7-2,1.7C214.9,31.4,215.6,32.1,216.6,32.1z"/>
	<path class="st0" d="M225.3,22.6c0-0.3,0.3-0.6,0.6-0.6h1.2c0.3,0,0.5,0.2,0.6,0.4l0.4,1.2c0.4-0.6,1.6-1.9,3.5-1.9
		c1.5,0,2.8,0.5,2.4,1.2l-1.1,2c-0.2,0.3-0.5,0.4-0.7,0.3c-0.1,0-0.6-0.2-0.9-0.2c-1.2,0-2,0.8-2.2,1.3v7.5c0,0.4-0.3,0.6-0.7,0.6
		h-2.4c-0.3,0-0.6-0.3-0.6-0.6V22.6z"/>
	<path class="st0" d="M235.6,22.6c0-0.3,0.3-0.6,0.6-0.6h1.2c0.3,0,0.5,0.2,0.6,0.4l0.4,1.2c0.4-0.6,1.6-1.9,3.5-1.9
		c1.4,0,2.8,0.5,2.4,1.2l-1.1,2c-0.2,0.3-0.5,0.4-0.7,0.3c-0.1,0-0.6-0.2-0.9-0.2c-1.2,0-2,0.8-2.2,1.3v7.5c0,0.4-0.3,0.6-0.7,0.6
		h-2.4c-0.3,0-0.6-0.3-0.6-0.6V22.6z"/>
	<path class="st0" d="M245.5,15.5c0-1.2,0.9-2.1,2.1-2.1c1.2,0,2.2,1,2.2,2.1c0,1.2-1,2.1-2.2,2.1C246.5,17.6,245.5,16.7,245.5,15.5
		z M245.8,22.6c0-0.3,0.3-0.6,0.6-0.6h2.6c0.3,0,0.6,0.2,0.6,0.6v11.2c0,0.3-0.3,0.6-0.6,0.6h-2.6c-0.3,0-0.6-0.3-0.6-0.6V22.6z"/>
	<path class="st0" d="M257,26.6c1.2,0,2.3,0.3,2.3,0.3c0-1.6-0.5-2.1-1.6-2.1c-1.1,0-2.8,0.2-3.5,0.5c-0.4,0.1-0.7-0.2-0.7-0.6
		l-0.3-1.6c-0.1-0.5,0.2-0.7,0.4-0.8c0.3-0.1,2.2-0.6,4.2-0.6c3.9,0,4.8,2,4.8,5.4v6.7c0,0.3-0.3,0.6-0.6,0.6h-1.1
		c-0.2,0-0.4-0.1-0.5-0.4l-0.4-0.8c-0.7,0.6-1.9,1.6-3.8,1.6c-2.5,0-4.2-1.6-4.2-4.2C252.1,28.3,253.9,26.6,257,26.6z M257.1,32.1
		c1,0,1.9-0.8,2.1-1.2v-1.7c0,0-0.8-0.4-1.7-0.4c-1.2,0-2,0.7-2,1.7C255.5,31.4,256.1,32.1,257.1,32.1z"/>
	<path class="st0" d="M265.9,13.3c0-0.3,0.3-0.6,0.6-0.6h2.6c0.3,0,0.6,0.3,0.6,0.6v20.5c0,0.3-0.3,0.6-0.6,0.6h-2.6
		c-0.3,0-0.6-0.3-0.6-0.6V13.3z"/>
	<path class="st0" d="M278.4,21.7c3.2,0,5.8,2.4,5.8,5.8c0,0.2,0,0.6-0.1,0.8c0,0.3-0.3,0.5-0.6,0.5h-7.9c0.1,1.3,1.2,2.7,3,2.7
		c1,0,1.9-0.4,2.4-0.8c0.3-0.2,0.6-0.2,0.8,0l1.3,1.5c0.2,0.2,0.3,0.6,0,0.8c-1,1-2.6,1.7-4.6,1.7c-3.7,0-6.3-2.9-6.3-6.5
		C272.1,24.7,274.7,21.7,278.4,21.7z M280.6,26.7c-0.1-1.1-1.1-2.1-2.3-2.1c-1.2,0-2.3,0.9-2.4,2.1H280.6z"/>
	<path class="st0" d="M285.8,32.9l0.8-1.7c0.1-0.3,0.4-0.4,0.7-0.2c0,0,1.4,0.7,2.8,0.7c0.6,0,1-0.2,1-0.8c0-0.6-0.4-0.9-2.1-1.5
		c-2.4-0.9-3.5-2.2-3.5-4.1c0-1.9,1.4-3.6,4.5-3.6c1.8,0,3.2,0.5,3.8,1c0.3,0.2,0.4,0.5,0.3,0.8l-0.8,1.6c-0.2,0.3-0.5,0.3-0.7,0.2
		c0,0-1.4-0.6-2.6-0.6c-0.7,0-1,0.3-1,0.7c0,0.6,0.6,0.7,1.7,1.2c2.4,0.9,4.2,1.9,4.2,4.4c0,2-1.8,3.8-4.9,3.8c-2,0-3.5-0.7-4.1-1.1
		C285.8,33.4,285.7,33.2,285.8,32.9z"/>
	<path class="st0" d="M5,40.1c-0.2-0.4,0.1-0.8,0.5-0.8h1.2c0.3,0,0.5,0.2,0.5,0.3L15,57h0.1l7.7-17.3c0.1-0.2,0.3-0.3,0.5-0.3h1.2
		c0.5,0,0.7,0.4,0.5,0.8L15.7,61c-0.1,0.2-0.3,0.3-0.5,0.3h-0.3c-0.2,0-0.4-0.2-0.5-0.3L5,40.1z"/>
	<path class="st0" d="M26.6,41.4c0-0.8,0.7-1.5,1.5-1.5c0.8,0,1.5,0.6,1.5,1.5c0,0.8-0.6,1.5-1.5,1.5C27.2,42.9,26.6,42.2,26.6,41.4
		z M27,49.2c0-0.3,0.3-0.6,0.6-0.6h1c0.3,0,0.6,0.3,0.6,0.6v11.2c0,0.3-0.3,0.6-0.6,0.6h-1c-0.3,0-0.6-0.3-0.6-0.6V49.2z"/>
	<path class="st0" d="M38.7,48.3c1.9,0,3.3,0.7,4.4,2.2c0.2,0.3,0.2,0.6-0.1,0.9l-0.6,0.5c-0.5,0.4-0.6,0.1-0.9-0.1
		c-0.6-0.7-1.6-1.3-2.8-1.3c-2.3,0-4.1,1.9-4.1,4.4c0,2.5,1.8,4.5,4.1,4.5c1.9,0,2.6-0.9,3.3-1.6c0.4-0.4,0.6-0.3,0.9-0.1l0.3,0.2
		c0.3,0.2,0.4,0.6,0.2,0.9c-0.9,1.5-2.6,2.6-4.7,2.6c-3.4,0-6.3-2.8-6.3-6.5C32.3,51.2,35.3,48.3,38.7,48.3z"/>
	<path class="st0" d="M51.7,48.3c3.3,0,5.6,2.4,5.6,5.7c0,0.2,0,0.6-0.1,0.8c0,0.3-0.3,0.5-0.6,0.5h-8.9c0.1,2.1,1.9,4,4.1,4
		c1.3,0,2.3-0.5,3.1-0.9c0.4-0.2,0.6-0.4,0.9-0.1c0.2,0.2,0.3,0.5,0.5,0.7c0.2,0.3,0.3,0.5-0.1,0.8c-0.7,0.6-2.4,1.4-4.6,1.4
		c-3.7,0-6.1-2.9-6.1-6.5C45.6,51.3,48,48.3,51.7,48.3z M55.2,53.6c-0.1-1.8-1.6-3.4-3.5-3.4c-2.1,0-3.7,1.5-3.9,3.4H55.2z"/>
	<path class="st0" d="M60.4,49.2c0-0.3,0.3-0.6,0.6-0.6h0.6c0.3,0,0.4,0.1,0.5,0.4l0.3,1c0,0,1.8-1.6,4.3-1.6c3.6,0,4.8,2.4,4.8,5.6
		v6.5c0,0.3-0.3,0.6-0.6,0.6h-1c-0.3,0-0.6-0.3-0.6-0.6v-6.5c0-2.4-1-3.5-2.8-3.5c-2.3,0-4,1.8-4,1.8v8.3c0,0.3-0.3,0.6-0.6,0.6h-1
		c-0.3,0-0.6-0.3-0.6-0.6V49.2z"/>
	<path class="st0" d="M76.2,50.5h-1.6c-0.3,0-0.6-0.3-0.6-0.6v-0.7c0-0.3,0.2-0.6,0.6-0.6h1.6v-3.4c0-0.3,0.3-0.6,0.6-0.6l1-0.1
		c0.3,0,0.6,0.3,0.6,0.6v3.5h3.6c0.3,0,0.6,1.3,0.6,1.3c0,0.3-0.2,0.6-0.6,0.6h-3.6v7.2c0,1.2,0.3,1.5,1,1.5c0.8,0,1.9-0.5,2.3-0.7
		c0.5-0.2,0.6-0.1,0.7,0.2l0.5,0.8c0.2,0.4,0.1,0.6-0.2,0.8c-0.4,0.3-2.1,1.1-3.6,1.1c-2.5,0-2.8-1.5-2.8-3.4V50.5z"/>
	<path class="st0" d="M90.8,48.3c3.3,0,5.6,2.4,5.6,5.7c0,0.2,0,0.6-0.1,0.8c0,0.3-0.3,0.5-0.6,0.5h-8.9c0.1,2.1,2,4,4.2,4
		c1.3,0,2.3-0.5,3.1-0.9c0.4-0.2,0.6-0.4,0.9-0.1c0.2,0.2,0.3,0.5,0.5,0.7c0.2,0.3,0.3,0.5-0.1,0.8c-0.7,0.6-2.4,1.4-4.6,1.4
		c-3.7,0-6.1-2.9-6.1-6.5C84.8,51.3,87.1,48.3,90.8,48.3z M94.3,53.6c-0.1-1.8-1.6-3.4-3.5-3.4c-2.1,0-3.7,1.5-3.9,3.4H94.3z"/>
	<path class="st0" d="M107,39.9c0-0.3,0.2-0.6,0.6-0.6h1.2c0.3,0,0.6,0.3,0.6,0.6v19h8.9c0.3,0,0.6,0.3,0.6,0.6v0.9
		c0,0.3-0.2,0.6-0.6,0.6h-10.7c-0.3,0-0.6-0.3-0.6-0.6V39.9z"/>
	<path class="st0" d="M126.1,48.3c3.4,0,6.2,3,6.2,6.5c0,3.6-2.7,6.5-6.2,6.5c-3.4,0-6.2-3-6.2-6.5
		C119.9,51.3,122.7,48.3,126.1,48.3z M126.1,59.3c2.3,0,4-2,4-4.5c0-2.4-1.8-4.4-4-4.4c-2.3,0-4,2-4,4.4
		C122.1,57.3,123.8,59.3,126.1,59.3z M123,42.9c-0.1-0.2,0-0.5,0.2-0.6l4.6-2.6c0.2-0.1,0.6-0.2,0.8,0.1l0.6,1.1
		c0.1,0.2,0.1,0.6-0.2,0.6l-5,2.1c-0.4,0.2-0.6,0.2-0.7-0.1L123,42.9z"/>
	<path class="st0" d="M137.6,69.7c0,0.3-0.3,0.6-0.6,0.6h-1c-0.3,0-0.6-0.3-0.6-0.6V49.2c0-0.3,0.3-0.6,0.6-0.6h0.6
		c0.3,0,0.4,0.1,0.5,0.4l0.2,0.6c0,0,1.4-1.3,3.6-1.3c3.4,0,5.8,3,5.8,6.5c0,3.6-2.5,6.5-5.9,6.5c-2,0-3.3-1-3.3-1V69.7z
		 M140.6,59.2c2.4,0,4.1-2,4.1-4.4c0-2.4-1.4-4.5-3.9-4.5c-2,0-3.2,1.5-3.2,1.5v6.4C137.6,58.1,138.9,59.2,140.6,59.2z"/>
	<path class="st0" d="M155.2,48.3c3.2,0,5.6,2.4,5.6,5.7c0,0.2,0,0.6-0.1,0.8c0,0.3-0.3,0.5-0.6,0.5h-8.9c0.1,2.1,2,4,4.1,4
		c1.3,0,2.4-0.5,3.1-0.9c0.4-0.2,0.6-0.4,0.9-0.1c0.2,0.2,0.3,0.5,0.5,0.7c0.2,0.3,0.3,0.5-0.1,0.8c-0.7,0.6-2.4,1.4-4.5,1.4
		c-3.7,0-6.1-2.9-6.1-6.5C149.1,51.3,151.5,48.3,155.2,48.3z M158.7,53.6c-0.1-1.8-1.6-3.4-3.5-3.4c-2.1,0-3.7,1.5-3.9,3.4H158.7z"
		/>
	<path class="st0" d="M162.8,60.1l6.1-9.4v-0.1h-5.2c-0.3,0-0.6-0.3-0.6-0.6v-0.8c0-0.3,0.2-0.6,0.6-0.6h7.8c0.5,0,0.8,0.4,0.5,0.8
		l-5.9,9.5V59h4.8c0.3,0,0.6,0.2,0.6,0.6v0.8c0,0.3-0.2,0.6-0.6,0.6h-7.4c-0.3,0-0.6-0.3-0.6-0.6V60.1z"/>
</g>
</svg>
