<svg viewBox="0 0 48 48" xmlns="http://www.w3.org/2000/svg">
  <circle cx="24" cy="24" fill="#D8D8D8" fill-rule="evenodd" r="24"/>
  <path d="M31.2 12.3H16.8c-2.5 0-4.5 2-4.5 4.5V31.2c0 2.5 2 4.5 4.5 4.5h14.4c2.5 0 4.5-2 4.5-4.5V16.8c0-2.5-2-4.5-4.5-4.5zm1.3 2.7h.5v4h-4v-4h3.5zm-11.8 6.6c.7-1 2-1.7 3.3-1.7s2.6.7 3.3 1.7c.5.7.8 1.5.8 2.4 0 2.3-1.9 4.1-4.1 4.1s-4.1-1.8-4.1-4.1c0-.9.3-1.7.8-2.4zm12.7 9.6c0 1.2-1 2.2-2.2 2.2H16.8c-1.2 0-2.2-1-2.2-2.2v-9.6h3.5c-.3.7-.5 1.6-.5 2.4 0 3.5 2.9 6.4 6.4 6.4 3.5 0 6.4-2.9 6.4-6.4 0-.8-.2-1.7-.5-2.4h3.5v9.6z" fill="#595959" fill-rule="evenodd"/>
</svg>
