<svg xmlns="http://www.w3.org/2000/svg" width="50" height="50" viewBox="0 0 50 50">
    <path fill="#D8D8D8" fill-rule="evenodd" d="M24.757 49.208C11.34 49.208.463 38.215.463 24.655S11.34.1 24.757.1c13.416 0 24.293 10.993 24.293 24.554 0 13.56-10.877 24.553-24.293 24.553zm-6.87-30.554c-4.745-2.42-5.897-4.608-5.897-4.608s-.737 1.303-.415 3.724c.323 2.421 2.59 5.536 2.59 5.536l-2.728-1.113s.138 1.537 1.198 3.12c1.06 1.582 4.79 3.584 4.79 3.584l-3.546.047s.322.745 1.612 2.002c1.29 1.257 4.882 2.374 4.882 2.374s-2.526 1.789-4.283 2.468c-1.757.679-4.515.838-4.515.838s4.106 2.582 10.41 1.955c6.305-.627 10.645-3.605 14.004-8.566 3.359-4.962 3.04-11.407 3.04-11.407s.368-.427 1.26-1.254 1.167-1.233 1.167-1.233l-2.23.239 1.448-2.612s-.883.406-1.494.633c-.61.227-1.43.455-1.43.455s-3.233-4.003-7.931-1.629c-4.699 2.374-3.179 7.728-3.179 7.728s-4.01.14-8.754-2.28z"/>
</svg>
