<?xml version="1.0" encoding="utf-8"?>
<!-- Generator: Adobe Illustrator 21.1.0, SVG Export Plug-In . SVG Version: 6.00 Build 0)  -->
<svg version="1.1" id="Layer_1" xmlns="http://www.w3.org/2000/svg" xmlns:xlink="http://www.w3.org/1999/xlink" x="0px" y="0px"
	 viewBox="0 0 1000 1000" style="enable-background:new 0 0 1000 1000;" xml:space="preserve">
<style type="text/css">
	.st0{fill:#F9C7A8;}
	.st1{fill:#F39A9B;}
	.st2{fill:#EC6E8D;}
	.st3{fill:#D74A88;}
	.st4{fill:#A93790;}
	.st5{fill:#7B2397;}
	.st6{fill:#5C1886;}
	.st7{fill:#461266;}
	.st8{fill:#300C46;}
	.st9{fill:#4A4A49;}
	.st10{fill:#92C472;}
	.st11{fill:none;stroke:#4A4A49;stroke-width:5;stroke-miterlimit:10;}
	.st12{font-family:'BrandonGrotesque-Medium';}
	.st13{font-size:22px;}
</style>
<g>
	<g>
		
			<image style="overflow:visible;opacity:0.25;enable-background:new    ;" width="822" height="517" xlink:href="A9D6074445FF7EA0.png"  transform="matrix(0.9988 0 0 0.9981 114.5 340.5)">
		</image>
		<g>
			<polygon class="st0" points="119.8,617 119.8,851.3 930.5,851.3 930.5,345.2 727.8,460 527.5,434.2 324.8,523.3 			"/>
		</g>
	</g>
	<g>
		
			<image style="overflow:visible;opacity:0.25;enable-background:new    ;" width="821" height="475" xlink:href="A9D6074445FF7EA1.png"  transform="matrix(0.9988 0 0 0.9979 115.5 382.5)">
		</image>
		<g>
			<polygon class="st1" points="120.9,614.7 120.9,851.3 930.5,851.3 930.5,387.4 727.8,508 527.5,523.3 324.8,567.8 			"/>
		</g>
	</g>
	<g>
		
			<image style="overflow:visible;opacity:0.25;enable-background:new    ;" width="822" height="420" xlink:href="A9D6074445FF7EA7.png"  transform="matrix(0.9988 0 0 0.9976 114.5 437.5)">
		</image>
		<g>
			<polygon class="st2" points="119.8,617 119.8,851.3 930.5,851.3 930.5,442.4 727.8,540.8 527.5,571.3 324.8,594.7 			"/>
		</g>
	</g>
	<g>
		
			<image style="overflow:visible;opacity:0.25;enable-background:new    ;" width="821" height="380" xlink:href="A9D6074445FF7EA2.png"  transform="matrix(0.9988 0 0 0.9974 115.5 476.5)">
		</image>
		<g>
			<polygon class="st3" points="120.9,619.3 120.9,850.1 930.5,850.1 930.5,481.1 727.8,570.1 527.5,645.1 324.8,631.1 			"/>
		</g>
	</g>
	<g>
		
			<image style="overflow:visible;opacity:0.25;enable-background:new    ;" width="821" height="131" xlink:href="A9D6074445FF7EA3.png"  transform="matrix(0.9988 0 0 0.9924 115.5 727.5)">
		</image>
		<g>
			<polygon class="st4" points="120.9,829.1 120.9,852.5 930.5,852.5 930.5,733 727.8,792.7 525.1,815 			"/>
		</g>
	</g>
	<g>
		
			<image style="overflow:visible;opacity:0.25;enable-background:new    ;" width="821" height="48" xlink:href="A9D6074445FF7EAE.png"  transform="matrix(0.9988 0 0 0.9792 115.5 806.5)">
		</image>
		<g>
			<polygon class="st5" points="120.9,825.5 120.9,849 930.5,849 930.5,818.5 727.8,811.5 527.5,811.5 			"/>
		</g>
	</g>
	<polygon class="st6" points="120.9,824.8 120.9,849 930.5,849 930.5,817.5 727.8,829.6 527.5,811.5 324.8,817.5 	"/>
	<polygon class="st7" points="120.9,822 120.9,849 878.6,849 	"/>
	<polygon class="st8" points="120.9,825.3 121,850.1 790.6,850 	"/>
	<g>
		<g>
			<g>
				<path class="st9" d="M92,888.3c2.1-2.4,5-5.9,7.1-8.4c1.4-1.6,2.1-3,2.1-4.1c0-1.4-1-3.1-3.5-3.1c-1.5,0-2.8,1.1-3.6,1.9
					c-0.2,0.2-0.5,0.2-0.8,0l-1-1c-0.2-0.2-0.2-0.5,0-0.7c0,0,2.1-2.8,5.5-2.8c4,0,6.2,2.6,6.2,5.5c0,2.2-1.2,3.7-2.7,5.5
					s-3.5,4.1-5.1,6h7.2c0.3,0,0.5,0.3,0.5,0.5v1.4c0,0.3-0.3,0.5-0.5,0.5H92.5c-0.3,0-0.5-0.3-0.5-0.5V888.3z"/>
				<path class="st9" d="M107.5,880c0-6.2,2.5-9.8,7-9.8c4.4,0,6.9,3.7,6.9,9.8c0,6.2-2.5,9.8-6.9,9.8
					C110,889.9,107.5,886.2,107.5,880z M118.5,880c0-4.6-1.5-7.3-4.1-7.3s-4.1,2.6-4.1,7.3s1.5,7.3,4.1,7.3
					C117.1,887.3,118.5,884.7,118.5,880z"/>
				<path class="st9" d="M127.4,874.8l-2.2,1.1c-0.3,0.1-0.5,0.1-0.6-0.2l-0.3-1c-0.1-0.2,0-0.4,0.1-0.6l4-3.6h1.4
					c0.3,0,0.5,0.3,0.5,0.5v18.1c0,0.3-0.2,0.5-0.5,0.5h-1.7c-0.3,0-0.5-0.3-0.5-0.5v-14.3H127.4z"/>
				<path class="st9" d="M134.2,886.7l1.1-1c0.3-0.2,0.5-0.2,0.8,0.1c0.2,0.2,1.7,1.7,3.8,1.7c1.8,0,3.5-1.2,3.5-3
					c0-1.7-1.4-3.3-4.4-3.3h-1.6c-0.3,0-0.5-0.2-0.5-0.6v-1.2c0-0.4,0.2-0.6,0.6-0.6h1.6c2.6,0,4-1.3,4-3c0-1.9-1.5-3.1-3.2-3.1
					s-2.7,1-3.3,1.6c-0.2,0.2-0.5,0.3-0.7,0.1l-1-0.9c-0.2-0.2-0.2-0.5,0-0.7c0,0,2.1-2.5,5.2-2.5c3.3,0,5.9,2,5.9,5.1
					c0,2.2-1.6,3.8-2.9,4.4v0.1c1.3,0.6,3.4,2.3,3.4,4.7c0,3.1-2.5,5.4-6.4,5.4c-3.5,0-5.1-1.8-5.8-2.5
					C134,887.2,134,886.9,134.2,886.7z"/>
			</g>
			<g>
				<path class="st9" d="M297,888.3c2.1-2.4,5-5.9,7.1-8.4c1.4-1.6,2.1-3,2.1-4.1c0-1.4-1-3.1-3.5-3.1c-1.5,0-2.8,1.1-3.6,1.9
					c-0.2,0.2-0.5,0.2-0.8,0l-1-1c-0.2-0.2-0.2-0.5,0-0.7c0,0,2.1-2.8,5.5-2.8c4,0,6.2,2.6,6.2,5.5c0,2.2-1.2,3.7-2.7,5.5
					s-3.5,4.1-5.1,6h7.2c0.3,0,0.5,0.3,0.5,0.5v1.4c0,0.3-0.3,0.5-0.5,0.5h-10.9c-0.3,0-0.5-0.3-0.5-0.5L297,888.3L297,888.3z"/>
				<path class="st9" d="M312.5,880c0-6.2,2.5-9.8,7-9.8c4.4,0,6.9,3.7,6.9,9.8c0,6.2-2.5,9.8-6.9,9.8
					C315,889.9,312.5,886.2,312.5,880z M323.6,880c0-4.6-1.5-7.3-4.1-7.3s-4.1,2.6-4.1,7.3s1.5,7.3,4.1,7.3S323.6,884.7,323.6,880z"
					/>
				<path class="st9" d="M332.4,874.8l-2.2,1.1c-0.3,0.1-0.5,0.1-0.6-0.2l-0.3-1c-0.1-0.2,0-0.4,0.1-0.6l4-3.6h1.4
					c0.3,0,0.5,0.3,0.5,0.5v18.1c0,0.3-0.2,0.5-0.5,0.5H333c-0.3,0-0.5-0.3-0.5-0.5v-14.3H332.4z"/>
				<path class="st9" d="M338.4,884.9v-1.7l10.4-12.9c0.1-0.1,0.3-0.2,0.4-0.2h1c0.3,0,0.5,0.2,0.5,0.5V883h2.3
					c0.3,0,0.5,0.2,0.5,0.5v1.2c0,0.3-0.2,0.5-0.5,0.5h-2.3v3.7c0,0.3-0.3,0.5-0.5,0.5h-1.7c-0.3,0-0.5-0.3-0.5-0.5v-3.7h-9
					C338.6,885.4,338.4,885.2,338.4,884.9z M348.2,883.1v-8.3l-6.8,8.3H348.2z"/>
			</g>
			<g>
				<path class="st9" d="M499.7,888.3c2.1-2.4,5-5.9,7.1-8.4c1.4-1.6,2.1-3,2.1-4.1c0-1.4-1-3.1-3.5-3.1c-1.5,0-2.8,1.1-3.6,1.9
					c-0.2,0.2-0.5,0.2-0.8,0l-1-1c-0.2-0.2-0.2-0.5,0-0.7c0,0,2.1-2.8,5.5-2.8c4,0,6.2,2.6,6.2,5.5c0,2.2-1.2,3.7-2.7,5.5
					s-3.5,4.1-5.1,6h7.2c0.3,0,0.5,0.3,0.5,0.5v1.4c0,0.3-0.3,0.5-0.5,0.5h-10.9c-0.3,0-0.5-0.3-0.5-0.5L499.7,888.3L499.7,888.3z"
					/>
				<path class="st9" d="M515.2,880c0-6.2,2.5-9.8,7-9.8c4.4,0,6.9,3.7,6.9,9.8c0,6.2-2.5,9.8-6.9,9.8
					C517.7,889.9,515.2,886.2,515.2,880z M526.3,880c0-4.6-1.5-7.3-4.1-7.3s-4.1,2.6-4.1,7.3s1.5,7.3,4.1,7.3S526.3,884.7,526.3,880
					z"/>
				<path class="st9" d="M535.1,874.8l-2.2,1.1c-0.3,0.1-0.5,0.1-0.6-0.2l-0.3-1c-0.1-0.2,0-0.4,0.1-0.6l4-3.6h1.4
					c0.3,0,0.5,0.3,0.5,0.5v18.1c0,0.3-0.2,0.5-0.5,0.5h-1.7c-0.3,0-0.5-0.3-0.5-0.5v-14.3H535.1z"/>
				<path class="st9" d="M542.4,886.6c0.4-0.3,0.7-0.7,1-1c0.2-0.2,0.4-0.3,0.7,0c0.2,0.3,1.8,1.8,3.9,1.8c2.3,0,3.8-2,3.8-4
					s-1.3-3.6-3.9-3.6h-4.3c-0.6,0-0.9-0.5-0.9-1V871c0-0.3,0.2-0.5,0.5-0.5h8.7c0.3,0,0.5,0.3,0.5,0.5v1.4c0,0.3-0.2,0.5-0.5,0.5
					h-6.7v4.4h2.8c4.1,0,6.5,2.4,6.5,6.1c0,3.5-2.8,6.4-6.7,6.4c-3.1,0-4.8-1.5-5.5-2.3C542,887.1,542,886.9,542.4,886.6z"/>
			</g>
			<g>
				<path class="st9" d="M701.2,888.5c2.1-2.4,5-5.9,7.1-8.4c1.4-1.6,2.1-3,2.1-4.1c0-1.4-1-3.1-3.5-3.1c-1.5,0-2.8,1.1-3.6,1.9
					c-0.2,0.2-0.5,0.2-0.8,0l-1-1c-0.2-0.2-0.2-0.5,0-0.7c0,0,2.1-2.8,5.5-2.8c4,0,6.2,2.6,6.2,5.5c0,2.2-1.2,3.7-2.7,5.5
					s-3.5,4.1-5.1,6h7.2c0.3,0,0.5,0.3,0.5,0.5v1.4c0,0.3-0.3,0.5-0.5,0.5h-10.9c-0.3,0-0.5-0.3-0.5-0.5V888.5z"/>
				<path class="st9" d="M716.7,880.2c0-6.2,2.5-9.8,7-9.8c4.4,0,6.9,3.7,6.9,9.8c0,6.2-2.5,9.8-6.9,9.8
					C719.2,890.1,716.7,886.4,716.7,880.2z M727.8,880.2c0-4.6-1.5-7.3-4.1-7.3s-4.1,2.6-4.1,7.3s1.5,7.3,4.1,7.3
					S727.8,884.9,727.8,880.2z"/>
				<path class="st9" d="M736.6,875l-2.2,1.1c-0.3,0.1-0.5,0.1-0.6-0.2l-0.3-1c-0.1-0.2,0-0.4,0.1-0.6l4-3.6h1.4
					c0.3,0,0.5,0.3,0.5,0.5v18.1c0,0.3-0.2,0.5-0.5,0.5h-1.7c-0.3,0-0.5-0.3-0.5-0.5V875H736.6z"/>
				<path class="st9" d="M752.8,870c0.3-0.1,0.6,0,0.7,0.3l0.5,1.2c0.1,0.3,0,0.6-0.5,0.8c-1.3,0.4-5.8,2.8-6.7,6.2
					c0.2-0.1,1.9-1,3.7-1c3,0,5.9,2.2,5.9,6.1c0,3.5-2.9,6.4-6.3,6.4c-4.5,0-6.6-3.5-6.6-7.9C743.5,874.3,750.3,871,752.8,870z
					 M753.9,883.6c0-2.1-1.7-3.8-3.7-3.8c-2.2,0-3.7,1.6-3.9,2.1c-0.2,2.4,0.8,5.6,3.9,5.6C752.2,887.5,753.9,885.8,753.9,883.6z"/>
			</g>
			<g>
				<path class="st9" d="M902.8,888.3c2.1-2.4,5-5.9,7.1-8.4c1.4-1.6,2.1-3,2.1-4.1c0-1.4-1-3.1-3.5-3.1c-1.5,0-2.8,1.1-3.6,1.9
					c-0.2,0.2-0.5,0.2-0.8,0l-1-1c-0.2-0.2-0.2-0.5,0-0.7c0,0,2.1-2.8,5.5-2.8c4,0,6.2,2.6,6.2,5.5c0,2.2-1.2,3.7-2.7,5.5
					s-3.5,4.1-5.1,6h7.2c0.3,0,0.5,0.3,0.5,0.5v1.4c0,0.3-0.3,0.5-0.5,0.5h-10.9c-0.3,0-0.5-0.3-0.5-0.5V888.3z"/>
				<path class="st9" d="M918.2,880c0-6.2,2.5-9.8,7-9.8c4.4,0,6.9,3.7,6.9,9.8c0,6.2-2.5,9.8-6.9,9.8
					C920.8,889.9,918.2,886.2,918.2,880z M929.3,880c0-4.6-1.5-7.3-4.1-7.3s-4.1,2.6-4.1,7.3s1.5,7.3,4.1,7.3S929.3,884.7,929.3,880
					z"/>
				<path class="st9" d="M938.2,874.8l-2.2,1.1c-0.3,0.1-0.5,0.1-0.6-0.2l-0.3-1c-0.1-0.2,0-0.4,0.1-0.6l4-3.6h1.4
					c0.3,0,0.5,0.3,0.5,0.5v18.1c0,0.3-0.2,0.5-0.5,0.5h-1.7c-0.3,0-0.5-0.3-0.5-0.5v-14.3H938.2z"/>
				<path class="st9" d="M945.7,888.7l7.6-15.8H945c-0.3,0-0.5-0.3-0.5-0.5V871c0-0.3,0.3-0.5,0.5-0.5h11.5c0.3,0,0.5,0.3,0.5,0.5
					v0.2l-8.3,17.6c-0.3,0.6-0.4,0.8-1.1,0.8h-1.3c-0.4,0-0.6-0.3-0.6-0.5L945.7,888.7L945.7,888.7z"/>
			</g>
			<path class="st10" d="M120.9,828.3"/>
			<g>
				<path class="st9" d="M93.2,844.1c0-6.2,2.5-9.8,7-9.8c4.4,0,6.9,3.7,6.9,9.8c0,6.2-2.5,9.8-6.9,9.8
					C95.7,853.9,93.2,850.3,93.2,844.1z M104.3,844.1c0-4.6-1.5-7.3-4.1-7.3s-4.1,2.6-4.1,7.3s1.5,7.3,4.1,7.3
					C102.8,851.4,104.3,848.8,104.3,844.1z"/>
			</g>
			<g>
				<path class="st9" d="M79.7,703.6c2.1-2.4,5-5.9,7.1-8.4c1.4-1.6,2.1-3,2.1-4.1c0-1.4-1-3.1-3.5-3.1c-1.5,0-2.8,1.1-3.6,1.9
					c-0.2,0.2-0.5,0.2-0.8,0l-1-1c-0.2-0.2-0.2-0.5,0-0.7c0,0,2.1-2.8,5.5-2.8c4,0,6.2,2.6,6.2,5.5c0,2.2-1.2,3.7-2.7,5.5
					s-3.5,4.1-5.1,6h7.2c0.3,0,0.5,0.3,0.5,0.5v1.4c0,0.3-0.3,0.5-0.5,0.5H80.2c-0.3,0-0.5-0.3-0.5-0.5V703.6z"/>
				<path class="st9" d="M94.9,701.9c0.4-0.3,0.7-0.7,1-1c0.2-0.2,0.4-0.3,0.7,0c0.2,0.3,1.8,1.8,3.9,1.8c2.3,0,3.8-2,3.8-4
					s-1.3-3.6-3.9-3.6h-4.3c-0.6,0-0.9-0.5-0.9-1v-7.9c0-0.3,0.2-0.5,0.5-0.5h8.7c0.3,0,0.5,0.3,0.5,0.5v1.4c0,0.3-0.2,0.5-0.5,0.5
					h-6.7v4.4h2.8c4.1,0,6.5,2.4,6.5,6.1c0,3.5-2.8,6.4-6.7,6.4c-3.1,0-4.8-1.5-5.5-2.3C94.6,702.4,94.6,702.2,94.9,701.9z"/>
			</g>
			<g>
				<path class="st9" d="M78.1,546c0.4-0.3,0.7-0.7,1-1c0.2-0.2,0.4-0.3,0.7,0c0.2,0.3,1.8,1.8,3.9,1.8c2.3,0,3.8-2,3.8-4
					s-1.3-3.6-3.9-3.6h-4.3c-0.6,0-0.9-0.5-0.9-1v-7.9c0-0.3,0.2-0.5,0.5-0.5h8.7c0.3,0,0.5,0.3,0.5,0.5v1.4c0,0.3-0.2,0.5-0.5,0.5
					H81v4.4h2.8c4.1,0,6.5,2.4,6.5,6.1c0,3.5-2.8,6.4-6.7,6.4c-3.1,0-4.8-1.5-5.5-2.3C77.8,546.6,77.8,546.4,78.1,546z"/>
				<path class="st9" d="M93.2,539.5c0-6.2,2.5-9.8,7-9.8c4.4,0,6.9,3.7,6.9,9.8c0,6.2-2.5,9.8-6.9,9.8
					C95.7,549.3,93.2,545.6,93.2,539.5z M104.3,539.5c0-4.6-1.5-7.3-4.1-7.3s-4.1,2.6-4.1,7.3s1.5,7.3,4.1,7.3
					S104.3,544.1,104.3,539.5z"/>
			</g>
			<g>
				<path class="st9" d="M81.8,393.5l7.6-15.8h-8.3c-0.3,0-0.5-0.3-0.5-0.5v-1.4c0-0.3,0.3-0.5,0.5-0.5h11.5c0.3,0,0.5,0.3,0.5,0.5
					v0.2l-8.3,17.6c-0.3,0.6-0.4,0.8-1.1,0.8h-1.3c-0.4,0-0.6-0.3-0.6-0.5C81.8,393.9,81.8,393.5,81.8,393.5z"/>
				<path class="st9" d="M94.9,391.4c0.4-0.3,0.7-0.7,1-1c0.2-0.2,0.4-0.3,0.7,0c0.2,0.3,1.8,1.8,3.9,1.8c2.3,0,3.8-2,3.8-4
					s-1.3-3.6-3.9-3.6h-4.3c-0.6,0-0.9-0.5-0.9-1v-7.9c0-0.3,0.2-0.5,0.5-0.5h8.7c0.3,0,0.5,0.3,0.5,0.5v1.4c0,0.3-0.2,0.5-0.5,0.5
					h-6.7v4.4h2.8c4.1,0,6.5,2.4,6.5,6.1c0,3.5-2.8,6.4-6.7,6.4c-3.1,0-4.8-1.5-5.5-2.3C94.6,391.9,94.6,391.7,94.9,391.4z"/>
			</g>
			<g>
				<path class="st9" d="M68.2,224.9L66,226c-0.3,0.1-0.5,0.1-0.6-0.2l-0.3-1c-0.1-0.2,0-0.4,0.1-0.6l4-3.6h1.4
					c0.3,0,0.5,0.3,0.5,0.5v18.1c0,0.3-0.2,0.5-0.5,0.5h-1.7c-0.3,0-0.5-0.3-0.5-0.5v-14.3H68.2z"/>
				<path class="st9" d="M75.5,230.2c0-6.2,2.5-9.8,7-9.8c4.4,0,6.9,3.7,6.9,9.8c0,6.2-2.5,9.8-6.9,9.8
					C78,240,75.5,236.3,75.5,230.2z M86.6,230.2c0-4.6-1.5-7.3-4.1-7.3s-4.1,2.6-4.1,7.3s1.5,7.3,4.1,7.3S86.6,234.8,86.6,230.2z"/>
				<path class="st9" d="M93.2,230.2c0-6.2,2.5-9.8,7-9.8c4.4,0,6.9,3.7,6.9,9.8c0,6.2-2.5,9.8-6.9,9.8
					C95.7,240,93.2,236.3,93.2,230.2z M104.3,230.2c0-4.6-1.5-7.3-4.1-7.3s-4.1,2.6-4.1,7.3s1.5,7.3,4.1,7.3
					S104.3,234.8,104.3,230.2z"/>
			</g>
		</g>
		<polyline class="st11" points="935.2,851.8 121.1,851.8 120.2,851.8 120.7,230.4 		"/>
	</g>
	<text transform="matrix(1 0 0 1 59.999 163.2612)" class="st9 st12 st13">CANTIDAD DE PROYECTOS POR AÑO POR TIPO</text>
</g>
</svg>
