<?xml version="1.0" encoding="utf-8"?>
<!-- Generator: Adobe Illustrator 21.1.0, SVG Export Plug-In . SVG Version: 6.00 Build 0)  -->
<svg version="1.1" id="Layer_1" xmlns="http://www.w3.org/2000/svg" xmlns:xlink="http://www.w3.org/1999/xlink" x="0px" y="0px"
	 viewBox="0 0 1000 1000" style="enable-background:new 0 0 1000 1000;" xml:space="preserve">
<style type="text/css">
	.st0{fill:#4A4A49;}
	.st1{fill:#300C46;}
	.st2{fill:#461266;}
	.st3{fill:#5C1886;}
	.st4{fill:#EC6E8D;}
	.st5{fill:#F39A9B;}
	.st6{fill:#F9C7A8;}
	.st7{fill:#7B2397;}
	.st8{fill:#A93790;}
	.st9{fill:#D74A88;}
</style>
<g>
	<g>
		<g>
			<g>
				<g>
					<path class="st0" d="M121.8,415c3.2,0,5.5,1.1,7.7,2.9c0.3,0.3,0.3,0.6,0,0.9l-1.4,1.4c-0.2,0.3-0.5,0.3-0.8,0
						c-1.5-1.3-3.5-2.1-5.5-2.1c-4.5,0-7.9,3.8-7.9,8.2c0,4.4,3.4,8.2,8,8.2c2.3,0,3.9-0.9,5.4-2.1c0.3-0.2,0.6-0.2,0.8,0l1.5,1.4
						c0.3,0.2,0.2,0.6,0,0.9c-2.2,2.1-4.9,3.1-7.7,3.1c-6.3,0-11.4-5-11.4-11.4C110.4,420.1,115.5,415,121.8,415z"/>
					<path class="st0" d="M133.8,415.9c0-0.3,0.3-0.6,0.6-0.6h2.1c0.3,0,0.6,0.3,0.6,0.6V429c0,3.2,2,5.6,5.3,5.6
						c3.3,0,5.3-2.4,5.3-5.6v-13.1c0-0.3,0.3-0.6,0.6-0.6h2.1c0.3,0,0.6,0.3,0.6,0.6v13.3c0,4.8-3.6,8.6-8.6,8.6
						c-5,0-8.6-3.8-8.6-8.6V415.9z"/>
					<path class="st0" d="M156.9,415.9c0-0.3,0.3-0.6,0.6-0.6h2.1c0.3,0,0.6,0.3,0.6,0.6v18.6h8.6c0.3,0,0.6,0.3,0.6,0.6v1.7
						c0,0.3-0.3,0.6-0.6,0.6h-11.3c-0.3,0-0.6-0.3-0.6-0.6V415.9z"/>
					<path class="st0" d="M174.4,418.3h-5.2c-0.3,0-0.6-0.3-0.6-0.6v-1.8c0-0.3,0.3-0.6,0.6-0.6h13.6c0.3,0,0.6,0.3,0.6,0.6v1.8
						c0,0.3-0.3,0.6-0.6,0.6h-5.2v18.6c0,0.3-0.3,0.6-0.6,0.6H175c-0.3,0-0.6-0.3-0.6-0.6V418.3z"/>
					<path class="st0" d="M186.5,415.9c0-0.3,0.3-0.6,0.6-0.6h2.1c0.3,0,0.6,0.3,0.6,0.6V429c0,3.2,2,5.6,5.3,5.6
						c3.3,0,5.3-2.4,5.3-5.6v-13.1c0-0.3,0.3-0.6,0.6-0.6h2.1c0.3,0,0.6,0.3,0.6,0.6v13.3c0,4.8-3.6,8.6-8.6,8.6
						c-5,0-8.6-3.8-8.6-8.6V415.9z"/>
					<path class="st0" d="M209.6,415.9c0-0.3,0.3-0.6,0.6-0.6h8.6c3.8,0,6.9,3,6.9,6.8c0,2.9-1.9,5.3-4.7,6.4l4.3,8
						c0.2,0.4,0,0.9-0.5,0.9h-2.5c-0.3,0-0.4-0.2-0.5-0.3l-4.2-8.4h-4.8v8.1c0,0.3-0.3,0.6-0.6,0.6h-2.1c-0.3,0-0.6-0.3-0.6-0.6
						V415.9z M218.6,426.1c2.1,0,3.9-1.7,3.9-3.9c0-2.1-1.8-3.8-3.9-3.8h-5.6v7.7H218.6z"/>
					<path class="st0" d="M227.7,436.7l9.7-21.3c0.1-0.2,0.4-0.3,0.5-0.3h0.3c0.2,0,0.4,0.2,0.5,0.3l9.7,21.3
						c0.2,0.4-0.1,0.8-0.5,0.8h-2c-0.4,0-0.6-0.2-0.7-0.5l-2-4.3h-10.3c-0.6,1.5-1.3,2.9-1.9,4.3c-0.1,0.2-0.3,0.5-0.7,0.5h-2
						C227.8,437.5,227.5,437.1,227.7,436.7z M242,430l-3.9-8.7H238l-3.9,8.7H242z"/>
				</g>
			</g>
			<rect x="52.3" y="404.3" class="st1" width="44.2" height="44.2"/>
		</g>
		<g>
			<g>
				<g>
					<path class="st0" d="M112,489.5c0-0.3,0.3-0.6,0.6-0.6h7.3c6.1,0,11.1,5,11.1,11c0,6.1-5,11.1-11.1,11.1h-7.3
						c-0.3,0-0.6-0.3-0.6-0.6V489.5z M119.4,508.1c4.7,0,8-3.4,8-8.1c0-4.7-3.4-8-8-8h-4.2v16.1H119.4z"/>
					<path class="st0" d="M135.6,489.5c0-0.3,0.3-0.6,0.6-0.6h12.7c0.3,0,0.6,0.3,0.6,0.6v1.8c0,0.3-0.3,0.6-0.6,0.6h-10v6.5h8.4
						c0.3,0,0.6,0.3,0.6,0.6v1.8c0,0.3-0.3,0.6-0.6,0.6h-8.4v6.8h10c0.3,0,0.6,0.3,0.6,0.6v1.7c0,0.3-0.3,0.6-0.6,0.6h-12.7
						c-0.3,0-0.6-0.3-0.6-0.6V489.5z"/>
					<path class="st0" d="M154.2,489.5c0-0.3,0.3-0.6,0.6-0.6h7.2c3.9,0,7.1,3.2,7.1,7c0,3.9-3.2,7.1-7.1,7.1h-4.6v7.4
						c0,0.3-0.3,0.6-0.6,0.6h-2.1c-0.3,0-0.6-0.3-0.6-0.6V489.5z M161.8,499.9c2.2,0,4-1.8,4-4.1c0-2.2-1.8-3.8-4-3.8h-4.4v7.8
						H161.8z"/>
					<path class="st0" d="M182.7,488.6c6.3,0,11.4,5.1,11.4,11.4c0,6.3-5.1,11.4-11.4,11.4c-6.3,0-11.4-5-11.4-11.4
						C171.4,493.7,176.4,488.6,182.7,488.6z M182.7,508.2c4.5,0,8.2-3.7,8.2-8.2c0-4.5-3.7-8.3-8.2-8.3c-4.5,0-8.2,3.8-8.2,8.3
						C174.6,504.6,178.3,508.2,182.7,508.2z"/>
					<path class="st0" d="M198.7,489.5c0-0.3,0.3-0.6,0.6-0.6h8.6c3.8,0,6.9,3,6.9,6.8c0,2.9-1.9,5.3-4.7,6.4l4.3,8
						c0.2,0.4,0,0.9-0.5,0.9h-2.5c-0.3,0-0.4-0.2-0.5-0.3l-4.2-8.4h-4.8v8.1c0,0.3-0.3,0.6-0.6,0.6h-2.1c-0.3,0-0.6-0.3-0.6-0.6
						V489.5z M207.6,499.7c2.1,0,3.9-1.7,3.9-3.9c0-2.1-1.8-3.8-3.9-3.8H202v7.7H207.6z"/>
					<path class="st0" d="M222.8,491.9h-5.2c-0.3,0-0.6-0.3-0.6-0.6v-1.8c0-0.3,0.3-0.6,0.6-0.6h13.6c0.3,0,0.6,0.3,0.6,0.6v1.8
						c0,0.3-0.3,0.6-0.6,0.6H226v18.6c0,0.3-0.3,0.6-0.6,0.6h-2.1c-0.3,0-0.6-0.3-0.6-0.6V491.9z"/>
					<path class="st0" d="M235.2,489.5c0-0.3,0.3-0.6,0.6-0.6h12.7c0.3,0,0.6,0.3,0.6,0.6v1.8c0,0.3-0.3,0.6-0.6,0.6h-10v6.5h8.4
						c0.3,0,0.6,0.3,0.6,0.6v1.8c0,0.3-0.3,0.6-0.6,0.6h-8.4v6.8h10c0.3,0,0.6,0.3,0.6,0.6v1.7c0,0.3-0.3,0.6-0.6,0.6h-12.7
						c-0.3,0-0.6-0.3-0.6-0.6V489.5z"/>
				</g>
			</g>
			<rect x="52.3" y="477.9" class="st2" width="44.2" height="44.2"/>
		</g>
		<g>
			<g>
				<g>
					<path class="st0" d="M112,566.4c0-0.3,0.3-0.6,0.6-0.6h12.7c0.3,0,0.6,0.3,0.6,0.6v1.8c0,0.3-0.3,0.6-0.6,0.6h-10v6.5h8.4
						c0.3,0,0.6,0.3,0.6,0.6v1.8c0,0.3-0.3,0.6-0.6,0.6h-8.4v6.8h10c0.3,0,0.6,0.3,0.6,0.6v1.7c0,0.3-0.3,0.6-0.6,0.6h-12.7
						c-0.3,0-0.6-0.3-0.6-0.6V566.4z"/>
					<path class="st0" d="M130.7,566.4c0-0.3,0.3-0.6,0.6-0.6h7.3c6.1,0,11.1,5,11.1,11c0,6.1-5,11.1-11.1,11.1h-7.3
						c-0.3,0-0.6-0.3-0.6-0.6V566.4z M138.1,585c4.7,0,8-3.4,8-8.1c0-4.7-3.4-8-8-8h-4.2V585H138.1z"/>
					<path class="st0" d="M153.9,566.4c0-0.3,0.3-0.6,0.6-0.6h2.1c0.3,0,0.6,0.3,0.6,0.6v13.1c0,3.2,2,5.6,5.3,5.6
						c3.3,0,5.3-2.4,5.3-5.6v-13.1c0-0.3,0.3-0.6,0.6-0.6h2.1c0.3,0,0.6,0.3,0.6,0.6v13.3c0,4.8-3.6,8.6-8.6,8.6
						c-5,0-8.6-3.8-8.6-8.6V566.4z"/>
					<path class="st0" d="M186.8,565.5c3.2,0,5.5,1.1,7.7,2.9c0.3,0.3,0.3,0.6,0,0.9l-1.4,1.4c-0.2,0.3-0.5,0.3-0.8,0
						c-1.5-1.3-3.5-2.1-5.5-2.1c-4.5,0-7.9,3.8-7.9,8.2c0,4.4,3.4,8.2,8,8.2c2.3,0,3.9-0.9,5.4-2.1c0.3-0.2,0.6-0.2,0.8,0l1.5,1.4
						c0.3,0.2,0.2,0.6,0,0.9c-2.2,2.1-4.9,3.1-7.7,3.1c-6.3,0-11.4-5-11.4-11.4C175.4,570.6,180.5,565.5,186.8,565.5z"/>
					<path class="st0" d="M196,587.2l9.7-21.3c0.1-0.2,0.4-0.3,0.5-0.3h0.3c0.2,0,0.4,0.2,0.5,0.3l9.7,21.3c0.2,0.4-0.1,0.8-0.5,0.8
						h-2c-0.4,0-0.6-0.2-0.7-0.5l-2-4.3h-10.3c-0.6,1.5-1.3,2.9-1.9,4.3c-0.1,0.2-0.3,0.5-0.7,0.5h-2
						C196.1,588,195.9,587.6,196,587.2z M210.4,580.5l-3.9-8.7h-0.2l-3.9,8.7H210.4z"/>
					<path class="st0" d="M229.7,565.5c3.2,0,5.5,1.1,7.7,2.9c0.3,0.3,0.3,0.6,0,0.9l-1.4,1.4c-0.2,0.3-0.5,0.3-0.8,0
						c-1.5-1.3-3.5-2.1-5.5-2.1c-4.5,0-7.9,3.8-7.9,8.2c0,4.4,3.4,8.2,8,8.2c2.3,0,3.9-0.9,5.4-2.1c0.3-0.2,0.6-0.2,0.8,0l1.5,1.4
						c0.3,0.2,0.2,0.6,0,0.9c-2.2,2.1-4.9,3.1-7.7,3.1c-6.3,0-11.4-5-11.4-11.4C218.2,570.6,223.3,565.5,229.7,565.5z"/>
					<path class="st0" d="M241.9,566.4c0-0.3,0.3-0.6,0.6-0.6h2.1c0.3,0,0.6,0.3,0.6,0.6v21c0,0.3-0.3,0.6-0.6,0.6h-2.1
						c-0.3,0-0.6-0.3-0.6-0.6V566.4z"/>
					<path class="st0" d="M261.1,565.5c6.3,0,11.4,5.1,11.4,11.4c0,6.3-5.1,11.4-11.4,11.4c-6.3,0-11.4-5-11.4-11.4
						C249.7,570.6,254.7,565.5,261.1,565.5z M261.1,585.1c4.5,0,8.2-3.7,8.2-8.2c0-4.5-3.7-8.3-8.2-8.3c-4.5,0-8.2,3.8-8.2,8.3
						C252.9,581.5,256.6,585.1,261.1,585.1z M258.2,563.3l-0.4-0.9c-0.1-0.3,0-0.5,0.2-0.6l5-2.9c0.2-0.1,0.7-0.2,0.8,0.1l0.7,1.4
						c0.2,0.3,0.1,0.6-0.2,0.8l-5.3,2.3C258.5,563.7,258.3,563.6,258.2,563.3z"/>
					<path class="st0" d="M277,566.1c0-0.3,0.3-0.6,0.6-0.6h0.8l13.7,15.9h0v-15c0-0.3,0.3-0.6,0.6-0.6h2c0.3,0,0.6,0.3,0.6,0.6
						v21.3c0,0.3-0.3,0.6-0.6,0.6h-0.8L280.2,572h0v15.4c0,0.3-0.3,0.6-0.6,0.6h-2c-0.3,0-0.6-0.3-0.6-0.6V566.1z"/>
				</g>
			</g>
			<rect x="52.3" y="551.5" class="st3" width="44.2" height="44.2"/>
		</g>
	</g>
	<g>
		<g>
			<g>
				<g>
					<path class="st0" d="M771.4,435.2c0.3-0.4,0.5-0.9,0.8-1.3c0.3-0.4,0.7-0.5,1.1-0.3c0.2,0.2,2.6,2.2,5.1,2.2
						c2.2,0,3.6-1.3,3.6-2.9c0-1.9-1.6-3.1-4.8-4.4c-3.2-1.4-5.8-3-5.8-6.7c0-2.5,1.9-5.9,6.9-5.9c3.2,0,5.5,1.6,5.9,1.9
						c0.3,0.2,0.5,0.6,0.2,1.1c-0.3,0.4-0.5,0.8-0.8,1.2c-0.3,0.4-0.7,0.6-1.1,0.3c-0.2-0.1-2.4-1.6-4.3-1.6c-2.7,0-3.6,1.7-3.6,2.8
						c0,1.8,1.4,2.9,4,4c3.7,1.5,6.8,3.2,6.8,7.1c0,3.3-2.9,6-7.1,6c-3.9,0-6.3-2-6.8-2.5C771.3,436,771.1,435.8,771.4,435.2z"/>
					<path class="st0" d="M786.8,437.6l9.7-21.3c0.1-0.2,0.4-0.3,0.5-0.3h0.3c0.2,0,0.4,0.2,0.5,0.3l9.7,21.3
						c0.2,0.4-0.1,0.8-0.5,0.8h-2c-0.4,0-0.6-0.2-0.7-0.5l-2-4.3H792c-0.6,1.5-1.3,2.9-1.9,4.3c-0.1,0.2-0.3,0.5-0.7,0.5h-2
						C786.9,438.4,786.6,438,786.8,437.6z M801.2,430.9l-3.9-8.7h-0.2l-3.9,8.7H801.2z"/>
					<path class="st0" d="M810.8,416.9c0-0.3,0.3-0.6,0.6-0.6h2.1c0.3,0,0.6,0.3,0.6,0.6v18.6h8.6c0.3,0,0.6,0.3,0.6,0.6v1.7
						c0,0.3-0.3,0.6-0.6,0.6h-11.3c-0.3,0-0.6-0.3-0.6-0.6V416.9z"/>
					<path class="st0" d="M825.9,416.9c0-0.3,0.3-0.6,0.6-0.6h2.1c0.3,0,0.6,0.3,0.6,0.6v13.1c0,3.2,2,5.6,5.3,5.6
						c3.3,0,5.3-2.4,5.3-5.6v-13.1c0-0.3,0.3-0.6,0.6-0.6h2.1c0.3,0,0.6,0.3,0.6,0.6v13.3c0,4.8-3.6,8.6-8.6,8.6
						c-5,0-8.6-3.8-8.6-8.6V416.9z"/>
					<path class="st0" d="M848.9,416.9c0-0.3,0.3-0.6,0.6-0.6h7.3c6.1,0,11.1,5,11.1,11c0,6.1-5,11.1-11.1,11.1h-7.3
						c-0.3,0-0.6-0.3-0.6-0.6V416.9z M856.3,435.4c4.7,0,8-3.4,8-8.1c0-4.7-3.4-8-8-8h-4.2v16.1H856.3z"/>
				</g>
			</g>
			<rect x="709" y="405.2" class="st4" width="44.2" height="44.2"/>
		</g>
		<g>
			<g>
				<g>
					<path class="st0" d="M771.4,507.9c0.3-0.4,0.5-0.9,0.8-1.3c0.3-0.4,0.7-0.5,1.1-0.3c0.2,0.2,2.6,2.2,5.1,2.2
						c2.2,0,3.6-1.3,3.6-2.9c0-1.9-1.6-3.1-4.8-4.4c-3.2-1.4-5.8-3-5.8-6.7c0-2.5,1.9-5.9,6.9-5.9c3.2,0,5.5,1.6,5.9,1.9
						c0.3,0.2,0.5,0.6,0.2,1.1c-0.3,0.4-0.5,0.8-0.8,1.2c-0.3,0.4-0.7,0.6-1.1,0.3c-0.2-0.1-2.4-1.6-4.3-1.6c-2.7,0-3.6,1.7-3.6,2.8
						c0,1.8,1.4,2.9,4,4c3.7,1.5,6.8,3.2,6.8,7.1c0,3.3-2.9,6-7.1,6c-3.9,0-6.3-2-6.8-2.5C771.3,508.6,771.1,508.4,771.4,507.9z"/>
					<path class="st0" d="M789.8,489.5c0-0.3,0.3-0.6,0.6-0.6h12.7c0.3,0,0.6,0.3,0.6,0.6v1.8c0,0.3-0.3,0.6-0.6,0.6h-10v6.5h8.4
						c0.3,0,0.6,0.3,0.6,0.6v1.8c0,0.3-0.3,0.6-0.6,0.6h-8.4v6.8h10c0.3,0,0.6,0.3,0.6,0.6v1.7c0,0.3-0.3,0.6-0.6,0.6h-12.7
						c-0.3,0-0.6-0.3-0.6-0.6V489.5z"/>
					<path class="st0" d="M818.1,488.6c3,0,5.5,1.1,7.7,2.9c0.3,0.3,0.3,0.6,0,0.9c-0.5,0.5-0.9,1-1.4,1.5c-0.3,0.3-0.5,0.3-0.8,0
						c-1.5-1.3-3.4-2.2-5.4-2.2c-4.5,0-7.9,3.8-7.9,8.2c0,4.4,3.4,8.2,7.9,8.2c2.6,0,4.4-0.9,4.7-1.1v-3.5h-3.1
						c-0.3,0-0.6-0.3-0.6-0.6v-1.8c0-0.3,0.3-0.6,0.6-0.6h5.8c0.3,0,0.6,0.3,0.6,0.6c0,2.5,0,5.1,0,7.7c0,0.2-0.1,0.4-0.3,0.5
						c0,0-3.3,2.1-7.8,2.1c-6.3,0-11.4-5-11.4-11.4C806.7,493.7,811.8,488.6,818.1,488.6z"/>
					<path class="st0" d="M830.9,489.5c0-0.3,0.3-0.6,0.6-0.6h2.1c0.3,0,0.6,0.3,0.6,0.6v13.1c0,3.2,2,5.6,5.3,5.6
						c3.3,0,5.3-2.4,5.3-5.6v-13.1c0-0.3,0.3-0.6,0.6-0.6h2.1c0.3,0,0.6,0.3,0.6,0.6v13.3c0,4.8-3.6,8.6-8.6,8.6
						c-5,0-8.6-3.8-8.6-8.6V489.5z"/>
					<path class="st0" d="M854,489.5c0-0.3,0.3-0.6,0.6-0.6h8.6c3.8,0,6.9,3,6.9,6.8c0,2.9-1.9,5.3-4.7,6.4l4.3,8
						c0.2,0.4,0,0.9-0.5,0.9h-2.5c-0.3,0-0.4-0.2-0.5-0.3l-4.2-8.4h-4.8v8.1c0,0.3-0.3,0.6-0.6,0.6h-2.1c-0.3,0-0.6-0.3-0.6-0.6
						V489.5z M863,499.7c2.1,0,3.9-1.7,3.9-3.9c0-2.1-1.8-3.8-3.9-3.8h-5.6v7.7H863z"/>
					<path class="st0" d="M875,489.5c0-0.3,0.3-0.6,0.6-0.6h2.1c0.3,0,0.6,0.3,0.6,0.6v21c0,0.3-0.3,0.6-0.6,0.6h-2.1
						c-0.3,0-0.6-0.3-0.6-0.6V489.5z"/>
					<path class="st0" d="M884.5,489.5c0-0.3,0.3-0.6,0.6-0.6h7.3c6.1,0,11.1,5,11.1,11c0,6.1-5,11.1-11.1,11.1H885
						c-0.3,0-0.6-0.3-0.6-0.6V489.5z M891.9,508.1c4.7,0,8-3.4,8-8.1c0-4.7-3.4-8-8-8h-4.2v16.1H891.9z"/>
					<path class="st0" d="M904.9,510.3l9.7-21.3c0.1-0.2,0.4-0.3,0.5-0.3h0.3c0.2,0,0.4,0.2,0.5,0.3l9.7,21.3
						c0.2,0.4-0.1,0.8-0.5,0.8h-2c-0.4,0-0.6-0.2-0.7-0.5l-2-4.3h-10.3c-0.6,1.5-1.3,2.9-1.9,4.3c-0.1,0.2-0.3,0.5-0.7,0.5h-2
						C904.9,511.1,904.7,510.7,904.9,510.3z M919.2,503.5l-3.9-8.7h-0.2l-3.9,8.7H919.2z"/>
					<path class="st0" d="M928.8,489.5c0-0.3,0.3-0.6,0.6-0.6h7.3c6.1,0,11.1,5,11.1,11c0,6.1-5,11.1-11.1,11.1h-7.3
						c-0.3,0-0.6-0.3-0.6-0.6V489.5z M936.2,508.1c4.7,0,8-3.4,8-8.1c0-4.7-3.4-8-8-8H932v16.1H936.2z"/>
				</g>
			</g>
			<rect x="709" y="477.9" class="st5" width="44.2" height="44.2"/>
		</g>
		<g>
			<g>
				<g>
					<path class="st0" d="M775.8,567.9h-5.2c-0.3,0-0.6-0.3-0.6-0.6v-1.8c0-0.3,0.3-0.6,0.6-0.6h13.6c0.3,0,0.6,0.3,0.6,0.6v1.8
						c0,0.3-0.3,0.6-0.6,0.6h-5.2v18.6c0,0.3-0.3,0.6-0.6,0.6h-2.1c-0.3,0-0.6-0.3-0.6-0.6V567.9z"/>
					<path class="st0" d="M788.3,565.5c0-0.3,0.3-0.6,0.6-0.6h8.6c3.8,0,6.9,3,6.9,6.8c0,2.9-1.9,5.3-4.7,6.4l4.3,8
						c0.2,0.4,0,0.9-0.5,0.9h-2.5c-0.3,0-0.4-0.2-0.5-0.3l-4.2-8.4h-4.8v8.1c0,0.3-0.3,0.6-0.6,0.6h-2.1c-0.3,0-0.6-0.3-0.6-0.6
						V565.5z M797.3,575.7c2.1,0,3.9-1.7,3.9-3.9c0-2.1-1.8-3.8-3.9-3.8h-5.6v7.7H797.3z"/>
					<path class="st0" d="M806.4,586.2l9.7-21.3c0.1-0.2,0.4-0.3,0.5-0.3h0.3c0.2,0,0.4,0.2,0.5,0.3l9.7,21.3
						c0.2,0.4-0.1,0.8-0.5,0.8h-2c-0.4,0-0.6-0.2-0.7-0.5l-2-4.3h-10.3c-0.6,1.5-1.3,2.9-1.9,4.3c-0.1,0.2-0.3,0.5-0.7,0.5h-2
						C806.5,587.1,806.2,586.7,806.4,586.2z M820.7,579.5l-3.9-8.7h-0.2l-3.9,8.7H820.7z M813.8,562.4l-0.4-0.9
						c-0.1-0.3,0-0.5,0.2-0.6l5-2.9c0.2-0.1,0.7-0.2,0.8,0.1l0.7,1.4c0.2,0.3,0.1,0.6-0.2,0.8l-5.3,2.3
						C814.2,562.8,814,562.7,813.8,562.4z"/>
					<path class="st0" d="M830.3,565.2c0-0.3,0.3-0.6,0.6-0.6h0.8l13.7,15.9h0v-15c0-0.3,0.3-0.6,0.6-0.6h2c0.3,0,0.6,0.3,0.6,0.6
						v21.3c0,0.3-0.3,0.6-0.6,0.6h-0.8l-13.7-16.3h0v15.4c0,0.3-0.3,0.6-0.6,0.6h-2c-0.3,0-0.6-0.3-0.6-0.6V565.2z"/>
					<path class="st0" d="M853.4,583.9c0.3-0.4,0.5-0.9,0.8-1.3c0.3-0.4,0.7-0.5,1.1-0.3c0.2,0.2,2.6,2.2,5.1,2.2
						c2.2,0,3.6-1.3,3.6-2.9c0-1.9-1.6-3.1-4.8-4.4c-3.2-1.4-5.8-3-5.8-6.7c0-2.5,1.9-5.9,6.9-5.9c3.2,0,5.5,1.6,5.9,1.9
						c0.3,0.2,0.5,0.6,0.2,1.1c-0.3,0.4-0.5,0.8-0.8,1.2c-0.3,0.4-0.7,0.6-1.1,0.3c-0.2-0.1-2.4-1.6-4.3-1.6c-2.7,0-3.6,1.7-3.6,2.8
						c0,1.8,1.4,2.9,4,4c3.7,1.5,6.8,3.2,6.8,7.1c0,3.3-2.9,6-7.1,6c-3.9,0-6.3-2-6.8-2.5C853.3,584.6,853.1,584.4,853.4,583.9z"/>
					<path class="st0" d="M871.8,565.5c0-0.3,0.3-0.6,0.6-0.6h2.1c0.3,0,0.6,0.3,0.6,0.6v21c0,0.3-0.3,0.6-0.6,0.6h-2.1
						c-0.3,0-0.6-0.3-0.6-0.6V565.5z"/>
					<path class="st0" d="M884.3,567.9h-5.2c-0.3,0-0.6-0.3-0.6-0.6v-1.8c0-0.3,0.3-0.6,0.6-0.6h13.6c0.3,0,0.6,0.3,0.6,0.6v1.8
						c0,0.3-0.3,0.6-0.6,0.6h-5.2v18.6c0,0.3-0.3,0.6-0.6,0.6h-2.1c-0.3,0-0.6-0.3-0.6-0.6V567.9z"/>
					<path class="st0" d="M906.2,564.6c6.3,0,11.4,5.1,11.4,11.4c0,6.3-5.1,11.4-11.4,11.4c-6.3,0-11.4-5-11.4-11.4
						C894.9,569.7,899.9,564.6,906.2,564.6z M906.2,584.2c4.5,0,8.2-3.7,8.2-8.2c0-4.5-3.7-8.3-8.2-8.3c-4.5,0-8.2,3.8-8.2,8.3
						C898,580.5,901.7,584.2,906.2,584.2z"/>
				</g>
			</g>
			<rect x="709" y="550.6" class="st6" width="44.2" height="44.2"/>
		</g>
	</g>
	<g>
		<g>
			<g>
				<g>
					<path class="st0" d="M414.4,415.9c0-0.3,0.3-0.6,0.6-0.6h12.7c0.3,0,0.6,0.3,0.6,0.6v1.8c0,0.3-0.3,0.6-0.6,0.6h-10v7.3h8.4
						c0.3,0,0.6,0.3,0.6,0.6v1.7c0,0.3-0.3,0.6-0.6,0.6h-8.4v8.3c0,0.3-0.3,0.6-0.6,0.6H415c-0.3,0-0.6-0.3-0.6-0.6V415.9z"/>
					<path class="st0" d="M432.3,415.9c0-0.3,0.3-0.6,0.6-0.6h2.1c0.3,0,0.6,0.3,0.6,0.6v21c0,0.3-0.3,0.6-0.6,0.6h-2.1
						c-0.3,0-0.6-0.3-0.6-0.6V415.9z"/>
					<path class="st0" d="M440.3,434.3c0.3-0.4,0.5-0.9,0.8-1.3c0.3-0.4,0.7-0.5,1.1-0.3c0.2,0.2,2.6,2.2,5.1,2.2
						c2.2,0,3.6-1.3,3.6-2.9c0-1.9-1.6-3.1-4.8-4.4c-3.2-1.4-5.8-3-5.8-6.7c0-2.5,1.9-5.9,6.9-5.9c3.2,0,5.5,1.6,5.9,1.9
						c0.3,0.2,0.5,0.6,0.2,1.1c-0.3,0.4-0.5,0.8-0.8,1.2c-0.3,0.4-0.7,0.6-1.1,0.3c-0.2-0.1-2.4-1.6-4.3-1.6c-2.7,0-3.6,1.7-3.6,2.8
						c0,1.8,1.4,2.9,4,4c3.7,1.5,6.8,3.2,6.8,7.1c0,3.3-2.9,6-7.1,6c-3.9,0-6.3-2-6.8-2.5C440.3,435.1,440,434.8,440.3,434.3z"/>
					<path class="st0" d="M468.6,415c3.2,0,5.5,1.1,7.7,2.9c0.3,0.3,0.3,0.6,0,0.9l-1.4,1.4c-0.2,0.3-0.5,0.3-0.8,0
						c-1.5-1.3-3.5-2.1-5.5-2.1c-4.5,0-7.9,3.8-7.9,8.2c0,4.4,3.4,8.2,8,8.2c2.3,0,3.9-0.9,5.4-2.1c0.3-0.2,0.6-0.2,0.8,0l1.5,1.4
						c0.3,0.2,0.2,0.6,0,0.9c-2.2,2.1-4.9,3.1-7.7,3.1c-6.3,0-11.4-5-11.4-11.4C457.2,420.1,462.2,415,468.6,415z"/>
					<path class="st0" d="M477.8,436.7l9.7-21.3c0.1-0.2,0.4-0.3,0.5-0.3h0.3c0.2,0,0.4,0.2,0.5,0.3l9.7,21.3
						c0.2,0.4-0.1,0.8-0.5,0.8h-2c-0.4,0-0.6-0.2-0.7-0.5l-2-4.3H483c-0.6,1.5-1.3,2.9-1.9,4.3c-0.1,0.2-0.3,0.5-0.7,0.5h-2
						C477.9,437.5,477.6,437.1,477.8,436.7z M492.2,430l-3.9-8.7h-0.2l-3.9,8.7H492.2z"/>
					<path class="st0" d="M501.8,415.9c0-0.3,0.3-0.6,0.6-0.6h2.1c0.3,0,0.6,0.3,0.6,0.6v18.6h8.6c0.3,0,0.6,0.3,0.6,0.6v1.7
						c0,0.3-0.3,0.6-0.6,0.6h-11.3c-0.3,0-0.6-0.3-0.6-0.6V415.9z"/>
					<path class="st0" d="M517.5,415.9c0-0.3,0.3-0.6,0.6-0.6h2.1c0.3,0,0.6,0.3,0.6,0.6v21c0,0.3-0.3,0.6-0.6,0.6h-2.1
						c-0.3,0-0.6-0.3-0.6-0.6V415.9z"/>
					<path class="st0" d="M524.8,436.3l10.4-17.8v-0.1h-8.9c-0.3,0-0.6-0.3-0.6-0.6v-1.8c0-0.3,0.3-0.6,0.6-0.6h13
						c0.3,0,0.6,0.3,0.6,0.6v0.4l-10.5,18.1v0h9.2c0.3,0,0.6,0.3,0.6,0.6v1.8c0,0.3-0.3,0.6-0.6,0.6h-13.3c-0.3,0-0.6-0.3-0.6-0.6
						V436.3z"/>
					<path class="st0" d="M540.9,436.7l9.7-21.3c0.1-0.2,0.4-0.3,0.5-0.3h0.3c0.2,0,0.4,0.2,0.5,0.3l9.7,21.3
						c0.2,0.4-0.1,0.8-0.5,0.8h-2c-0.4,0-0.6-0.2-0.7-0.5l-2-4.3h-10.3c-0.6,1.5-1.3,2.9-1.9,4.3c-0.1,0.2-0.3,0.5-0.7,0.5h-2
						C541,437.5,540.7,437.1,540.9,436.7z M555.3,430l-3.9-8.7h-0.2l-3.9,8.7H555.3z"/>
					<path class="st0" d="M574.6,415c3.2,0,5.5,1.1,7.7,2.9c0.3,0.3,0.3,0.6,0,0.9l-1.4,1.4c-0.2,0.3-0.5,0.3-0.8,0
						c-1.5-1.3-3.5-2.1-5.5-2.1c-4.5,0-7.9,3.8-7.9,8.2c0,4.4,3.4,8.2,8,8.2c2.3,0,3.9-0.9,5.4-2.1c0.3-0.2,0.6-0.2,0.8,0l1.5,1.4
						c0.3,0.2,0.2,0.6,0,0.9c-2.2,2.1-4.9,3.1-7.7,3.1c-6.3,0-11.4-5-11.4-11.4C563.1,420.1,568.2,415,574.6,415z"/>
					<path class="st0" d="M586.8,415.9c0-0.3,0.3-0.6,0.6-0.6h2.1c0.3,0,0.6,0.3,0.6,0.6v21c0,0.3-0.3,0.6-0.6,0.6h-2.1
						c-0.3,0-0.6-0.3-0.6-0.6V415.9z"/>
					<path class="st0" d="M606,415c6.3,0,11.4,5.1,11.4,11.4c0,6.3-5.1,11.4-11.4,11.4c-6.3,0-11.4-5-11.4-11.4
						C594.6,420.1,599.6,415,606,415z M606,434.6c4.5,0,8.2-3.7,8.2-8.2c0-4.5-3.7-8.3-8.2-8.3c-4.5,0-8.2,3.8-8.2,8.3
						C597.8,431,601.5,434.6,606,434.6z"/>
					<path class="st0" d="M621.9,415.6c0-0.3,0.3-0.6,0.6-0.6h0.8l13.7,15.9h0v-15c0-0.3,0.3-0.6,0.6-0.6h2c0.3,0,0.6,0.3,0.6,0.6
						v21.3c0,0.3-0.3,0.6-0.6,0.6h-0.8l-13.7-16.3h0v15.4c0,0.3-0.3,0.6-0.6,0.6h-2c-0.3,0-0.6-0.3-0.6-0.6V415.6z"/>
				</g>
			</g>
			<rect x="352.8" y="404.3" class="st7" width="44.2" height="44.2"/>
		</g>
		<g>
			<g>
				<g>
					<path class="st0" d="M424.2,488.6c3,0,5.5,1.1,7.7,2.9c0.3,0.3,0.3,0.6,0,0.9c-0.5,0.5-0.9,1-1.4,1.5c-0.3,0.3-0.5,0.3-0.8,0
						c-1.5-1.3-3.4-2.2-5.4-2.2c-4.5,0-7.9,3.8-7.9,8.2c0,4.4,3.4,8.2,7.9,8.2c2.6,0,4.4-0.9,4.7-1.1v-3.5h-3.1
						c-0.3,0-0.6-0.3-0.6-0.6v-1.8c0-0.3,0.3-0.6,0.6-0.6h5.8c0.3,0,0.6,0.3,0.6,0.6c0,2.5,0,5.1,0,7.7c0,0.2-0.1,0.4-0.3,0.5
						c0,0-3.3,2.1-7.8,2.1c-6.3,0-11.4-5-11.4-11.4C412.8,493.7,417.9,488.6,424.2,488.6z"/>
					<path class="st0" d="M447,488.6c6.3,0,11.4,5.1,11.4,11.4c0,6.3-5.1,11.4-11.4,11.4s-11.4-5-11.4-11.4
						C435.7,493.7,440.7,488.6,447,488.6z M447,508.2c4.5,0,8.2-3.7,8.2-8.2c0-4.5-3.7-8.3-8.2-8.3c-4.5,0-8.2,3.8-8.2,8.3
						C438.8,504.6,442.5,508.2,447,508.2z"/>
					<path class="st0" d="M462.9,489.5c0-0.3,0.3-0.6,0.6-0.6h7.1c3.8,0,6.6,2.5,6.6,5.9c0,2.4-1.8,4.2-3.3,5c1.7,0.7,4,2.2,4,5.2
						c0,3.5-2.9,6.1-6.9,6.1h-7.4c-0.3,0-0.6-0.3-0.6-0.6V489.5z M471,508.2c1.9,0,3.4-1.5,3.4-3.4c0-1.9-1.8-3.3-3.9-3.3h-4.3v6.8
						H471z M470.4,498.5c2,0,3.3-1.5,3.3-3.4c0-1.9-1.2-3.3-3.3-3.3h-4.3v6.6H470.4z"/>
					<path class="st0" d="M482.6,489.5c0-0.3,0.3-0.6,0.6-0.6h2.1c0.3,0,0.6,0.3,0.6,0.6v21c0,0.3-0.3,0.6-0.6,0.6h-2.1
						c-0.3,0-0.6-0.3-0.6-0.6V489.5z"/>
					<path class="st0" d="M492.1,489.5c0-0.3,0.3-0.6,0.6-0.6h12.7c0.3,0,0.6,0.3,0.6,0.6v1.8c0,0.3-0.3,0.6-0.6,0.6h-10v6.5h8.4
						c0.3,0,0.6,0.3,0.6,0.6v1.8c0,0.3-0.3,0.6-0.6,0.6h-8.4v6.8h10c0.3,0,0.6,0.3,0.6,0.6v1.7c0,0.3-0.3,0.6-0.6,0.6h-12.7
						c-0.3,0-0.6-0.3-0.6-0.6V489.5z"/>
					<path class="st0" d="M510.7,489.5c0-0.3,0.3-0.6,0.6-0.6h8.6c3.8,0,6.9,3,6.9,6.8c0,2.9-1.9,5.3-4.7,6.4l4.3,8
						c0.2,0.4,0,0.9-0.5,0.9h-2.5c-0.3,0-0.4-0.2-0.5-0.3l-4.2-8.4H514v8.1c0,0.3-0.3,0.6-0.6,0.6h-2.1c-0.3,0-0.6-0.3-0.6-0.6
						V489.5z M519.7,499.7c2.1,0,3.9-1.7,3.9-3.9c0-2.1-1.8-3.8-3.9-3.8H514v7.7H519.7z"/>
					<path class="st0" d="M531.8,489.2c0-0.3,0.3-0.6,0.6-0.6h0.8l13.7,15.9h0v-15c0-0.3,0.3-0.6,0.6-0.6h2c0.3,0,0.6,0.3,0.6,0.6
						v21.3c0,0.3-0.3,0.6-0.6,0.6h-0.8L535,495.1h0v15.4c0,0.3-0.3,0.6-0.6,0.6h-2c-0.3,0-0.6-0.3-0.6-0.6V489.2z"/>
					<path class="st0" d="M566,488.6c6.3,0,11.4,5.1,11.4,11.4c0,6.3-5.1,11.4-11.4,11.4s-11.4-5-11.4-11.4
						C554.7,493.7,559.7,488.6,566,488.6z M566,508.2c4.5,0,8.2-3.7,8.2-8.2c0-4.5-3.7-8.3-8.2-8.3c-4.5,0-8.2,3.8-8.2,8.3
						C557.8,504.6,561.5,508.2,566,508.2z"/>
				</g>
			</g>
			<rect x="352.8" y="477.9" class="st8" width="44.2" height="44.2"/>
		</g>
		<g>
			<g>
				<g>
					<path class="st0" d="M414.4,563.1c0-0.3,0.3-0.6,0.6-0.6h7.2c3.9,0,7.1,3.2,7.1,7c0,3.9-3.2,7.1-7.1,7.1h-4.6v7.4
						c0,0.3-0.3,0.6-0.6,0.6H415c-0.3,0-0.6-0.3-0.6-0.6V563.1z M422,573.5c2.2,0,4-1.8,4-4.1c0-2.2-1.8-3.8-4-3.8h-4.4v7.8H422z"/>
					<path class="st0" d="M433.2,563.1c0-0.3,0.3-0.6,0.6-0.6h2.1c0.3,0,0.6,0.3,0.6,0.6v18.6h8.6c0.3,0,0.6,0.3,0.6,0.6v1.7
						c0,0.3-0.3,0.6-0.6,0.6h-11.3c-0.3,0-0.6-0.3-0.6-0.6V563.1z"/>
					<path class="st0" d="M447,583.8l9.7-21.3c0.1-0.2,0.4-0.3,0.5-0.3h0.3c0.2,0,0.4,0.2,0.5,0.3l9.7,21.3c0.2,0.4-0.1,0.8-0.5,0.8
						h-2c-0.4,0-0.6-0.2-0.7-0.5l-2-4.3h-10.3c-0.6,1.5-1.3,2.9-1.9,4.3c-0.1,0.2-0.3,0.5-0.7,0.5h-2
						C447.1,584.7,446.8,584.3,447,583.8z M461.4,577.1l-3.9-8.7h-0.2l-3.9,8.7H461.4z"/>
					<path class="st0" d="M471,562.8c0-0.3,0.3-0.6,0.6-0.6h0.8l13.7,15.9h0v-15c0-0.3,0.3-0.6,0.6-0.6h2c0.3,0,0.6,0.3,0.6,0.6
						v21.3c0,0.3-0.3,0.6-0.6,0.6h-0.8l-13.7-16.3h0v15.4c0,0.3-0.3,0.6-0.6,0.6h-2c-0.3,0-0.6-0.3-0.6-0.6V562.8z"/>
					<path class="st0" d="M495.5,563.1c0-0.3,0.3-0.6,0.6-0.6h12.7c0.3,0,0.6,0.3,0.6,0.6v1.8c0,0.3-0.3,0.6-0.6,0.6h-10v6.5h8.4
						c0.3,0,0.6,0.3,0.6,0.6v1.8c0,0.3-0.3,0.6-0.6,0.6h-8.4v6.8h10c0.3,0,0.6,0.3,0.6,0.6v1.7c0,0.3-0.3,0.6-0.6,0.6h-12.7
						c-0.3,0-0.6-0.3-0.6-0.6V563.1z"/>
					<path class="st0" d="M511.2,583.8l9.7-21.3c0.1-0.2,0.4-0.3,0.5-0.3h0.3c0.2,0,0.4,0.2,0.5,0.3l9.7,21.3
						c0.2,0.4-0.1,0.8-0.5,0.8h-2c-0.4,0-0.6-0.2-0.7-0.5l-2-4.3h-10.3c-0.6,1.5-1.3,2.9-1.9,4.3c-0.1,0.2-0.3,0.5-0.7,0.5h-2
						C511.2,584.7,511,584.3,511.2,583.8z M525.5,577.1l-3.9-8.7h-0.2l-3.9,8.7H525.5z"/>
					<path class="st0" d="M537.5,562.7c0.1-0.3,0.3-0.5,0.6-0.5h0.5c0.2,0,0.5,0.2,0.5,0.3l6.6,16.2h0.1l6.6-16.2
						c0.1-0.2,0.3-0.3,0.5-0.3h0.5c0.3,0,0.5,0.2,0.6,0.5l3.9,21.3c0.1,0.4-0.1,0.7-0.6,0.7h-2.1c-0.3,0-0.5-0.2-0.6-0.4l-2.3-14.1
						c0,0-0.1,0-0.1,0l-5.7,14.6c-0.1,0.2-0.3,0.3-0.5,0.3h-0.6c-0.3,0-0.5-0.2-0.5-0.3l-5.7-14.6c0,0-0.1,0-0.1,0l-2.3,14.1
						c0,0.2-0.3,0.4-0.6,0.4h-2.1c-0.4,0-0.7-0.3-0.6-0.7L537.5,562.7z"/>
					<path class="st0" d="M562.6,563.1c0-0.3,0.3-0.6,0.6-0.6h2.1c0.3,0,0.6,0.3,0.6,0.6v21c0,0.3-0.3,0.6-0.6,0.6h-2.1
						c-0.3,0-0.6-0.3-0.6-0.6V563.1z"/>
					<path class="st0" d="M572,563.1c0-0.3,0.3-0.6,0.6-0.6h12.7c0.3,0,0.6,0.3,0.6,0.6v1.8c0,0.3-0.3,0.6-0.6,0.6h-10v6.5h8.4
						c0.3,0,0.6,0.3,0.6,0.6v1.8c0,0.3-0.3,0.6-0.6,0.6h-8.4v6.8h10c0.3,0,0.6,0.3,0.6,0.6v1.7c0,0.3-0.3,0.6-0.6,0.6h-12.7
						c-0.3,0-0.6-0.3-0.6-0.6V563.1z"/>
					<path class="st0" d="M590.7,562.8c0-0.3,0.3-0.6,0.6-0.6h0.8l13.7,15.9h0v-15c0-0.3,0.3-0.6,0.6-0.6h2c0.3,0,0.6,0.3,0.6,0.6
						v21.3c0,0.3-0.3,0.6-0.6,0.6h-0.8l-13.7-16.3h0v15.4c0,0.3-0.3,0.6-0.6,0.6h-2c-0.3,0-0.6-0.3-0.6-0.6V562.8z"/>
					<path class="st0" d="M618.2,565.5h-5.2c-0.3,0-0.6-0.3-0.6-0.6v-1.8c0-0.3,0.3-0.6,0.6-0.6h13.6c0.3,0,0.6,0.3,0.6,0.6v1.8
						c0,0.3-0.3,0.6-0.6,0.6h-5.2v18.6c0,0.3-0.3,0.6-0.6,0.6h-2.1c-0.3,0-0.6-0.3-0.6-0.6V565.5z"/>
					<path class="st0" d="M640.1,562.2c6.3,0,11.4,5.1,11.4,11.4c0,6.3-5.1,11.4-11.4,11.4c-6.3,0-11.4-5-11.4-11.4
						C628.8,567.3,633.8,562.2,640.1,562.2z M640.1,581.8c4.5,0,8.2-3.7,8.2-8.2c0-4.5-3.7-8.3-8.2-8.3c-4.5,0-8.2,3.8-8.2,8.3
						C631.9,578.1,635.6,581.8,640.1,581.8z"/>
				</g>
			</g>
			<rect x="352.8" y="551.5" class="st9" width="44.2" height="44.2"/>
		</g>
	</g>
</g>
</svg>
