<?xml version="1.0" encoding="UTF-8" standalone="no"?>
<!-- Generator: Adobe Illustrator 21.1.0, SVG Export Plug-In . SVG Version: 6.00 Build 0)  -->

<svg
   xmlns:dc="http://purl.org/dc/elements/1.1/"
   xmlns:cc="http://creativecommons.org/ns#"
   xmlns:rdf="http://www.w3.org/1999/02/22-rdf-syntax-ns#"
   xmlns:svg="http://www.w3.org/2000/svg"
   xmlns="http://www.w3.org/2000/svg"
   xmlns:sodipodi="http://sodipodi.sourceforge.net/DTD/sodipodi-0.dtd"
   xmlns:inkscape="http://www.inkscape.org/namespaces/inkscape"
   version="1.1"
   id="Layer_1"
   x="0px"
   y="0px"
   viewBox="0 0 300 300"
   style="enable-background:new 0 0 300 300;"
   xml:space="preserve"
   inkscape:version="0.91 r13725"
   sodipodi:docname="DownloadFile.svg"><metadata
     id="metadata19"><rdf:RDF><cc:Work
         rdf:about=""><dc:format>image/svg+xml</dc:format><dc:type
           rdf:resource="http://purl.org/dc/dcmitype/StillImage" /></cc:Work></rdf:RDF></metadata><defs
     id="defs17" /><sodipodi:namedview
     pagecolor="#ffffff"
     bordercolor="#666666"
     borderopacity="1"
     objecttolerance="10"
     gridtolerance="10"
     guidetolerance="10"
     inkscape:pageopacity="0"
     inkscape:pageshadow="2"
     inkscape:window-width="1366"
     inkscape:window-height="744"
     id="namedview15"
     showgrid="false"
     inkscape:zoom="0.78666667"
     inkscape:cx="-68.644068"
     inkscape:cy="54.079875"
     inkscape:window-x="0"
     inkscape:window-y="24"
     inkscape:window-maximized="1"
     inkscape:current-layer="Layer_1" /><style
     type="text/css"
     id="style3">
  .st0{fill:#FFFFFF;stroke:#FFFFFF;stroke-width:4;stroke-miterlimit:10;}
</style><g
     id="g4150"><path
       style="fill:#FFFFFF;fill-opacity:1;stroke:#FFFFFF;stroke-opacity:1"
       id="path5"
       d="M261.9,1.8h-140c-3.5,0-7.9,1.5-11.1,3.7c-0.7,0.4-1.4,0.9-2.2,1.7L36.3,79.6c-0.6,0.6-1.1,1.2-1.4,1.8  c-2.4,3.2-4.1,7.8-4.1,11.5v194.9c0,5.6,4.5,10.1,10.1,10.1h220.9c5.6,0,10.1-4.5,10.1-10.1V12C272,6.4,267.5,1.8,261.9,1.8z   M111.8,15.7v65c0,1.1-0.9,2-2,2h-65L111.8,15.7z M263.9,287.8c0,1.1-0.9,2-2,2H40.9c-1.1,0-2-0.9-2-2V93c0-0.7,1.4-2.1,2-2.1h68.8  c5.6,0,10.1-4.5,10.1-10.1V11.9c0-0.6,1.4-1.9,2-1.9h140c1.1,0,2,0.9,2,2V287.8z"
       class="st0" /><g
       style="fill:#FFFFFF;fill-opacity:1;stroke:#FFFFFF;stroke-opacity:1"
       id="g9"><path
         class="st0"
         d="m 151.4,239 c -2.8,0 -5.7,-0.9 -7.9,-2.6 l -27.7,-21.6 c -2.2,-1.7 -2.6,-4.9 -0.9,-7.1 1.7,-2.2 4.9,-2.6 7.1,-0.9 l 24.4,19 0,-94 c 0,-2.8 2.3,-5.1 5.1,-5.1 2.8,0 5.1,2.3 5.1,5.1 l 0,94 L 178,209 c 2.2,-1.7 5.4,-1.3 7.1,0.9 0.7,0.9 1.1,2 1.1,3.1 0,1.5 -0.7,3 -2,4 l -24.9,19.4 c -0.8,0.6 -1.5,1.1 -2.3,1.4 -1.7,0.8 -3.7,1.2 -5.6,1.2 z"
         id="path11"
         inkscape:connector-curvature="0"
         style="fill:#FFFFFF;stroke:#FFFFFF;stroke-width:4;stroke-miterlimit:10;fill-opacity:1;stroke-opacity:1" /><path
         class="st0"
         d="m 151.4,241 c -3.4,0 -6.7,-1.1 -9.2,-3 l -27.7,-21.6 c -3.1,-2.4 -3.6,-6.9 -1.2,-10 1.2,-1.5 2.8,-2.4 4.7,-2.7 1.9,-0.2 3.7,0.3 5.2,1.4 l 21.1,16.4 0,-89.9 c 0,-3.9 3.2,-7.1 7.1,-7.1 3.9,0 7.1,3.2 7.1,7.1 l 0,89.9 18.3,-14.2 c 3.1,-2.4 7.6,-1.8 10,1.2 1,1.3 1.5,2.8 1.5,4.4 0,2.2 -1,4.2 -2.7,5.6 l -25,19.5 c -0.9,0.7 -1.8,1.2 -2.7,1.7 -2,0.8 -4.2,1.3 -6.5,1.3 z m -32.5,-33.3 c -0.1,0 -0.3,0 -0.4,0 -0.8,0.1 -1.5,0.5 -2,1.2 -1,1.3 -0.8,3.2 0.5,4.3 l 27.7,21.6 c 3,2.3 7.8,2.8 11.4,1.2 0.7,-0.3 1.3,-0.7 1.9,-1.2 l 24.9,-19.4 c 0.7,-0.6 1.2,-1.5 1.2,-2.4 0,-0.7 -0.2,-1.3 -0.6,-1.9 -1,-1.3 -2.9,-1.6 -4.3,-0.5 l -24.8,19.3 0,-98.2 c 0,-1.7 -1.4,-3 -3,-3 -1.7,0 -3,1.4 -3,3 l 0,98.2 -27.6,-21.5 c -0.6,-0.5 -1.2,-0.7 -1.9,-0.7 z"
         id="path13"
         inkscape:connector-curvature="0"
         style="fill:#FFFFFF;stroke:#FFFFFF;stroke-width:4;stroke-miterlimit:10;fill-opacity:1;stroke-opacity:1" /></g></g></svg>