<?xml version="1.0" encoding="utf-8"?>
<!-- Generator: Adobe Illustrator 21.1.0, SVG Export Plug-In . SVG Version: 6.00 Build 0)  -->
<svg version="1.1" id="Layer_1" xmlns="http://www.w3.org/2000/svg" xmlns:xlink="http://www.w3.org/1999/xlink" x="0px" y="0px"
	 viewBox="0 0 1000 542" style="enable-background:new 0 0 1000 542;" xml:space="preserve">
<style type="text/css">
	.st0{fill:#4A4A49;}
	.st1{fill:#92C472;}
	.st2{enable-background:new    ;}
	.st3{fill:url(#SVGID_1_);}
</style>
<g>
	<g>
		<path class="st0" d="M251.2,523.4c1.7-1.9,3.9-4.6,5.5-6.5c1.1-1.2,1.7-2.3,1.7-3.2c0-1.1-0.8-2.3-2.7-2.3c-1.2,0-2.2,0.8-2.8,1.4
			c-0.2,0.2-0.4,0.2-0.6,0l-0.8-0.8c-0.1-0.1-0.2-0.4,0-0.6c0,0,1.7-2.1,4.2-2.1c3.1,0,4.8,2,4.8,4.3c0,1.7-0.9,2.9-2.1,4.2
			c-1.1,1.4-2.7,3.2-4,4.6h5.5c0.2,0,0.4,0.2,0.4,0.4v1c0,0.2-0.2,0.4-0.4,0.4h-8.4c-0.2,0-0.4-0.2-0.4-0.4L251.2,523.4L251.2,523.4
			z"/>
		<path class="st0" d="M263.2,517c0-4.8,2-7.6,5.4-7.6s5.4,2.9,5.4,7.6c0,4.8-2,7.6-5.4,7.6S263.2,521.8,263.2,517z M271.8,517
			c0-3.5-1.1-5.6-3.2-5.6s-3.2,2.1-3.2,5.6c0,3.6,1.1,5.6,3.2,5.6C270.7,522.7,271.8,520.6,271.8,517z"/>
		<path class="st0" d="M278.7,512.9l-1.8,0.8c-0.2,0.1-0.4,0-0.4-0.1l-0.2-0.8c-0.1-0.2,0-0.3,0.1-0.4l3.1-2.8h1.1
			c0.2,0,0.4,0.2,0.4,0.4v14c0,0.2-0.2,0.4-0.4,0.4h-1.3c-0.2,0-0.4-0.2-0.4-0.4L278.7,512.9L278.7,512.9z"/>
		<path class="st0" d="M283.9,522.1l0.9-0.8c0.2-0.2,0.4-0.1,0.6,0c0.1,0.2,1.3,1.3,3,1.3c1.4,0,2.8-0.9,2.8-2.3
			c0-1.3-1.1-2.5-3.4-2.5h-1.2c-0.2,0-0.4-0.1-0.4-0.4v-0.9c0-0.3,0.1-0.4,0.4-0.4h1.2c2.1,0,3.1-1,3.1-2.3c0-1.4-1.2-2.3-2.4-2.3
			c-1.3,0-2.1,0.8-2.5,1.2c-0.1,0.2-0.3,0.2-0.6,0l-0.8-0.8c-0.2-0.1-0.1-0.4,0-0.6c0,0,1.7-1.9,4-1.9c2.5,0,4.5,1.5,4.5,4
			c0,1.7-1.2,3-2.2,3.4v0.1c1,0.4,2.7,1.8,2.7,3.6c0,2.3-1.9,4.2-5,4.2c-2.7,0-4-1.3-4.4-2C283.8,522.5,283.8,522.2,283.9,522.1z"/>
	</g>
	<g>
		<path class="st0" d="M408.4,523.4c1.7-1.9,3.9-4.6,5.5-6.5c1.1-1.2,1.7-2.3,1.7-3.2c0-1.1-0.8-2.3-2.7-2.3c-1.2,0-2.2,0.8-2.8,1.4
			c-0.2,0.2-0.4,0.2-0.6,0l-0.8-0.8c-0.1-0.1-0.2-0.4,0-0.6c0,0,1.7-2.1,4.2-2.1c3.1,0,4.8,2,4.8,4.3c0,1.7-0.9,2.9-2.1,4.2
			c-1.1,1.4-2.7,3.2-4,4.6h5.5c0.2,0,0.4,0.2,0.4,0.4v1c0,0.2-0.2,0.4-0.4,0.4h-8.4c-0.2,0-0.4-0.2-0.4-0.4L408.4,523.4L408.4,523.4
			z"/>
		<path class="st0" d="M420.3,517c0-4.8,2-7.6,5.4-7.6c3.4,0,5.4,2.9,5.4,7.6c0,4.8-2,7.6-5.4,7.6
			C422.3,524.6,420.3,521.8,420.3,517z M428.9,517c0-3.5-1.1-5.6-3.2-5.6s-3.2,2.1-3.2,5.6c0,3.6,1.1,5.6,3.2,5.6
			C427.7,522.7,428.9,520.6,428.9,517z"/>
		<path class="st0" d="M435.8,512.9l-1.8,0.8c-0.2,0.1-0.4,0-0.4-0.1l-0.2-0.8c-0.1-0.2,0-0.3,0.1-0.4l3.1-2.8h1.1
			c0.2,0,0.4,0.2,0.4,0.4v14c0,0.2-0.2,0.4-0.4,0.4h-1.4c-0.2,0-0.4-0.2-0.4-0.4V512.9z"/>
		<path class="st0" d="M440.4,520.8v-1.3l8.1-10c0.1-0.1,0.2-0.1,0.3-0.1h0.8c0.2,0,0.4,0.2,0.4,0.4v9.6h1.8c0.2,0,0.4,0.2,0.4,0.4
			v0.9c0,0.2-0.2,0.4-0.4,0.4h-1.8v2.9c0,0.2-0.2,0.4-0.4,0.4h-1.3c-0.2,0-0.4-0.2-0.4-0.4v-3h-7.1
			C440.5,521.1,440.4,521,440.4,520.8z M448.1,519.3v-6.4l-5.2,6.4H448.1z"/>
	</g>
	<g>
		<path class="st0" d="M572.7,523.4c1.7-1.9,3.9-4.6,5.5-6.5c1.1-1.2,1.7-2.3,1.7-3.2c0-1.1-0.8-2.3-2.7-2.3c-1.2,0-2.2,0.8-2.8,1.4
			c-0.2,0.2-0.4,0.2-0.6,0l-0.8-0.8c-0.1-0.1-0.2-0.4,0-0.6c0,0,1.7-2.1,4.2-2.1c3.1,0,4.8,2,4.8,4.3c0,1.7-0.9,2.9-2.1,4.2
			c-1.1,1.4-2.7,3.2-4,4.6h5.5c0.2,0,0.4,0.2,0.4,0.4v1c0,0.2-0.2,0.4-0.4,0.4h-8.4c-0.2,0-0.4-0.2-0.4-0.4L572.7,523.4L572.7,523.4
			z"/>
		<path class="st0" d="M584.6,517c0-4.8,2-7.6,5.4-7.6c3.4,0,5.4,2.9,5.4,7.6c0,4.8-2,7.6-5.4,7.6S584.6,521.8,584.6,517z
			 M593.2,517c0-3.5-1.1-5.6-3.2-5.6s-3.2,2.1-3.2,5.6c0,3.6,1.1,5.6,3.2,5.6C592.1,522.7,593.2,520.6,593.2,517z"/>
		<path class="st0" d="M600.1,512.9l-1.8,0.8c-0.2,0.1-0.4,0-0.4-0.1l-0.2-0.8c-0.1-0.2,0-0.3,0.1-0.4l3.1-2.8h1.1
			c0.2,0,0.4,0.2,0.4,0.4v14c0,0.2-0.2,0.4-0.4,0.4h-1.3c-0.2,0-0.4-0.2-0.4-0.4L600.1,512.9L600.1,512.9z"/>
		<path class="st0" d="M605.7,522.1c0.3-0.2,0.6-0.6,0.8-0.8c0.2-0.1,0.3-0.2,0.6,0c0.1,0.2,1.3,1.4,3,1.4c1.8,0,3-1.5,3-3.1
			c0-1.5-1-2.8-3-2.8h-3.3c-0.4,0-0.7-0.4-0.7-0.8v-6.1c0-0.2,0.2-0.4,0.4-0.4h6.7c0.2,0,0.4,0.2,0.4,0.4v1.1c0,0.2-0.2,0.4-0.4,0.4
			h-5.2v3.4h2.2c3.2,0,5,1.9,5,4.8c0,2.8-2.2,5-5.2,5c-2.3,0-3.8-1.1-4.2-1.8C605.5,522.4,605.4,522.3,605.7,522.1z"/>
	</g>
	<g>
		<path class="st0" d="M732.5,523.5c1.7-1.9,3.9-4.6,5.5-6.5c1.1-1.2,1.7-2.3,1.7-3.2c0-1.1-0.8-2.3-2.7-2.3c-1.2,0-2.2,0.8-2.8,1.4
			c-0.2,0.2-0.4,0.2-0.6,0l-0.8-0.8c-0.1-0.1-0.2-0.4,0-0.6c0,0,1.7-2.1,4.2-2.1c3.1,0,4.8,2,4.8,4.3c0,1.7-0.9,2.9-2.1,4.2
			c-1.1,1.4-2.7,3.2-4,4.6h5.5c0.2,0,0.4,0.2,0.4,0.4v1c0,0.2-0.2,0.4-0.4,0.4h-8.4c-0.2,0-0.4-0.2-0.4-0.4L732.5,523.5L732.5,523.5
			z"/>
		<path class="st0" d="M744.5,517.1c0-4.8,2-7.6,5.4-7.6c3.4,0,5.4,2.9,5.4,7.6c0,4.8-2,7.6-5.4,7.6
			C746.4,524.8,744.5,521.9,744.5,517.1z M753,517.1c0-3.5-1.1-5.6-3.2-5.6c-2.1,0-3.2,2.1-3.2,5.6c0,3.6,1.1,5.6,3.2,5.6
			C751.9,522.8,753,520.8,753,517.1z"/>
		<path class="st0" d="M759.9,513l-1.8,0.8c-0.2,0.1-0.4,0-0.4-0.1l-0.2-0.8c-0.1-0.2,0-0.3,0.1-0.4l3.1-2.8h1.1
			c0.2,0,0.4,0.2,0.4,0.4v14c0,0.2-0.2,0.4-0.4,0.4h-1.3c-0.2,0-0.4-0.2-0.4-0.4L759.9,513L759.9,513z"/>
		<path class="st0" d="M772.5,509.3c0.2-0.1,0.4,0,0.6,0.2l0.3,0.9c0.1,0.2,0,0.6-0.4,0.7c-1,0.3-4.4,2.1-5.2,4.9
			c0.2-0.1,1.4-0.8,2.9-0.8c2.3,0,4.5,1.8,4.5,4.8c0,2.8-2.2,5-4.9,5c-3.5,0-5.2-2.8-5.2-6.1C765.3,512.6,770.5,509.9,772.5,509.3z
			 M773.3,519.8c0-1.7-1.3-3-2.9-3c-1.8,0-2.9,1.2-3,1.7c-0.2,1.9,0.7,4.3,3,4.3C771.9,522.8,773.3,521.4,773.3,519.8z"/>
	</g>
	<g>
		<path class="st0" d="M895.9,523.4c1.7-1.9,3.9-4.6,5.5-6.5c1.1-1.2,1.7-2.3,1.7-3.2c0-1.1-0.8-2.3-2.7-2.3c-1.2,0-2.2,0.8-2.8,1.4
			c-0.2,0.2-0.4,0.2-0.6,0l-0.8-0.8c-0.1-0.1-0.2-0.4,0-0.6c0,0,1.7-2.1,4.2-2.1c3.1,0,4.8,2,4.8,4.3c0,1.7-0.9,2.9-2.1,4.2
			c-1.1,1.4-2.7,3.2-4,4.6h5.5c0.2,0,0.4,0.2,0.4,0.4v1c0,0.2-0.2,0.4-0.4,0.4h-8.4c-0.2,0-0.4-0.2-0.4-0.4L895.9,523.4L895.9,523.4
			z"/>
		<path class="st0" d="M907.9,517c0-4.8,2-7.6,5.4-7.6c3.4,0,5.4,2.9,5.4,7.6c0,4.8-2,7.6-5.4,7.6
			C909.8,524.6,907.9,521.8,907.9,517z M916.4,517c0-3.5-1.1-5.6-3.2-5.6c-2.1,0-3.2,2.1-3.2,5.6c0,3.6,1.1,5.6,3.2,5.6
			C915.3,522.7,916.4,520.6,916.4,517z"/>
		<path class="st0" d="M923.3,512.9l-1.8,0.8c-0.2,0.1-0.4,0-0.4-0.1l-0.2-0.8c-0.1-0.2,0-0.3,0.1-0.4l3.1-2.8h1.1
			c0.2,0,0.4,0.2,0.4,0.4v14c0,0.2-0.2,0.4-0.4,0.4h-1.3c-0.2,0-0.4-0.2-0.4-0.4L923.3,512.9L923.3,512.9z"/>
		<path class="st0" d="M929.2,523.8l5.9-12.3h-6.4c-0.2,0-0.4-0.2-0.4-0.4v-1.1c0-0.2,0.2-0.4,0.4-0.4h9c0.2,0,0.4,0.2,0.4,0.4v0.1
			l-6.4,13.7c-0.2,0.4-0.3,0.6-0.9,0.6h-1C929.4,524.3,929.2,524.1,929.2,523.8L929.2,523.8z"/>
	</g>
	<path class="st1" d="M107.5,476.9"/>
	<g>
		<path class="st0" d="M86.1,489.2c0-4.8,2-7.6,5.4-7.6c3.4,0,5.4,2.9,5.4,7.6c0,4.8-2,7.6-5.4,7.6S86.1,493.9,86.1,489.2z
			 M94.7,489.2c0-3.5-1.1-5.6-3.2-5.6c-2.1,0-3.2,2.1-3.2,5.6c0,3.6,1.1,5.6,3.2,5.6C93.5,494.8,94.7,492.8,94.7,489.2z"/>
	</g>
	<g class="st2">
		<path class="st0" d="M97.9,523.2c1.6-1.8,3.9-4.6,5.5-6.5c1.1-1.2,1.7-2.3,1.7-3.2c0-1.1-0.8-2.4-2.7-2.4c-1.2,0-2.2,0.8-2.8,1.5
			c-0.2,0.2-0.4,0.2-0.6,0l-0.7-0.7c-0.1-0.1-0.2-0.4,0-0.6c0,0,1.6-2.1,4.2-2.1c3.1,0,4.8,2,4.8,4.3c0,1.7-0.9,2.8-2.1,4.3
			c-1.2,1.4-2.7,3.2-4,4.6h5.6c0.2,0,0.4,0.2,0.4,0.4v1c0,0.2-0.2,0.4-0.4,0.4h-8.4c-0.2,0-0.4-0.2-0.4-0.4V523.2z"/>
		<path class="st0" d="M109.9,516.8c0-4.8,2-7.6,5.4-7.6c3.4,0,5.4,2.9,5.4,7.6s-2,7.6-5.4,7.6C111.8,524.4,109.9,521.6,109.9,516.8
			z M118.5,516.8c0-3.6-1.2-5.6-3.2-5.6c-2,0-3.2,2-3.2,5.6c0,3.6,1.2,5.6,3.2,5.6C117.3,522.4,118.5,520.4,118.5,516.8z"/>
		<path class="st0" d="M125.3,512.7l-1.7,0.8c-0.2,0.1-0.4,0-0.5-0.2l-0.3-0.8c-0.1-0.2,0-0.3,0.1-0.4l3.1-2.8h1.1
			c0.2,0,0.4,0.2,0.4,0.4v14c0,0.2-0.2,0.4-0.4,0.4h-1.3c-0.2,0-0.4-0.2-0.4-0.4V512.7z"/>
		<path class="st0" d="M130.4,523.2c1.6-1.8,3.9-4.6,5.5-6.5c1.1-1.2,1.7-2.3,1.7-3.2c0-1.1-0.8-2.4-2.7-2.4c-1.2,0-2.2,0.8-2.8,1.5
			c-0.2,0.2-0.4,0.2-0.6,0l-0.7-0.7c-0.1-0.1-0.2-0.4,0-0.6c0,0,1.6-2.1,4.2-2.1c3.1,0,4.8,2,4.8,4.3c0,1.7-0.9,2.8-2.1,4.3
			c-1.2,1.4-2.7,3.2-4,4.6h5.6c0.2,0,0.4,0.2,0.4,0.4v1c0,0.2-0.2,0.4-0.4,0.4h-8.4c-0.2,0-0.4-0.2-0.4-0.4V523.2z"/>
	</g>
	<g class="st2">
		<path class="st0" d="M64.5,179.5l-1.7,0.8c-0.2,0.1-0.4,0-0.5-0.2l-0.3-0.8c-0.1-0.2,0-0.3,0.1-0.4l3.1-2.8h1.1
			c0.2,0,0.4,0.2,0.4,0.4v14c0,0.2-0.2,0.4-0.4,0.4h-1.3c-0.2,0-0.4-0.2-0.4-0.4V179.5z"/>
		<path class="st0" d="M70.2,183.6c0-4.8,2-7.6,5.4-7.6c3.4,0,5.4,2.9,5.4,7.6c0,4.8-2,7.6-5.4,7.6
			C72.2,191.2,70.2,188.4,70.2,183.6z M78.8,183.6c0-3.6-1.2-5.6-3.2-5.6c-2,0-3.2,2-3.2,5.6c0,3.6,1.2,5.6,3.2,5.6
			C77.7,189.2,78.8,187.2,78.8,183.6z"/>
		<path class="st0" d="M83.1,178.4c0-1.6,1.3-2.9,2.9-2.9c1.6,0,2.9,1.3,2.9,2.9s-1.3,2.9-2.9,2.9C84.4,181.4,83.1,180.1,83.1,178.4
			z M87.4,178.4c0-0.7-0.6-1.4-1.4-1.4c-0.8,0-1.4,0.6-1.4,1.4c0,0.8,0.6,1.4,1.4,1.4C86.8,179.8,87.4,179.2,87.4,178.4z M92.5,176
			c0.1-0.1,0.3-0.2,0.4-0.2h0.7c0.3,0,0.5,0.3,0.4,0.6l-7.5,14.5c0,0.1-0.3,0.2-0.4,0.2h-0.7c-0.3,0-0.5-0.3-0.4-0.6L92.5,176z
			 M93.1,185.3c1.6,0,2.9,1.3,2.9,2.9s-1.3,2.9-2.9,2.9c-1.6,0-2.9-1.3-2.9-2.9S91.5,185.3,93.1,185.3z M93.1,189.7
			c0.7,0,1.4-0.6,1.4-1.4c0-0.7-0.6-1.4-1.4-1.4c-0.8,0-1.4,0.6-1.4,1.4C91.7,189.1,92.3,189.7,93.1,189.7z"/>
	</g>
	<g class="st2">
		<path class="st0" d="M72.3,347.6c0.3-0.2,0.5-0.5,0.8-0.8c0.2-0.2,0.3-0.2,0.5,0c0.2,0.2,1.4,1.4,3,1.4c1.8,0,3-1.5,3-3.1
			c0-1.5-1-2.8-3-2.8h-3.3c-0.4,0-0.7-0.4-0.7-0.8v-6.1c0-0.2,0.2-0.4,0.4-0.4h6.7c0.2,0,0.4,0.2,0.4,0.4v1.1c0,0.2-0.2,0.4-0.4,0.4
			h-5.2v3.4h2.2c3.2,0,5,1.9,5,4.7c0,2.7-2.2,5-5.2,5c-2.4,0-3.7-1.2-4.3-1.8C72.1,348,72.1,347.8,72.3,347.6z"/>
		<path class="st0" d="M83.2,337.3c0-1.6,1.3-2.9,2.9-2.9c1.6,0,2.9,1.3,2.9,2.9s-1.3,2.9-2.9,2.9C84.5,340.3,83.2,339,83.2,337.3z
			 M87.5,337.3c0-0.7-0.6-1.4-1.4-1.4c-0.8,0-1.4,0.6-1.4,1.4c0,0.8,0.6,1.4,1.4,1.4C86.9,338.7,87.5,338.1,87.5,337.3z M92.6,334.8
			c0.1-0.1,0.3-0.2,0.4-0.2h0.7c0.3,0,0.5,0.3,0.4,0.6l-7.5,14.5c0,0.1-0.3,0.2-0.4,0.2h-0.7c-0.3,0-0.5-0.3-0.4-0.6L92.6,334.8z
			 M93.2,344.2c1.6,0,2.9,1.3,2.9,2.9s-1.3,2.9-2.9,2.9c-1.6,0-2.9-1.3-2.9-2.9S91.5,344.2,93.2,344.2z M93.2,348.6
			c0.7,0,1.4-0.6,1.4-1.4c0-0.7-0.6-1.4-1.4-1.4c-0.8,0-1.4,0.6-1.4,1.4C91.8,347.9,92.4,348.6,93.2,348.6z"/>
	</g>
	<g class="st2">
		<path class="st0" d="M66.7,25.2L65,26c-0.2,0.1-0.4,0-0.5-0.2l-0.3-0.8c-0.1-0.2,0-0.3,0.1-0.4l3.1-2.8h1.1c0.2,0,0.4,0.2,0.4,0.4
			v14c0,0.2-0.2,0.4-0.4,0.4h-1.3c-0.2,0-0.4-0.2-0.4-0.4V25.2z"/>
		<path class="st0" d="M72.3,34.3c0.3-0.2,0.5-0.5,0.8-0.8c0.2-0.2,0.3-0.2,0.5,0c0.2,0.2,1.4,1.4,3,1.4c1.8,0,3-1.5,3-3.1
			c0-1.5-1-2.8-3-2.8h-3.3c-0.4,0-0.7-0.4-0.7-0.8v-6.1c0-0.2,0.2-0.4,0.4-0.4h6.7c0.2,0,0.4,0.2,0.4,0.4v1.1c0,0.2-0.2,0.4-0.4,0.4
			h-5.2v3.4h2.2c3.2,0,5,1.9,5,4.7c0,2.7-2.2,5-5.2,5c-2.4,0-3.7-1.2-4.3-1.8C72.1,34.7,72.1,34.6,72.3,34.3z"/>
		<path class="st0" d="M83.2,24.1c0-1.6,1.3-2.9,2.9-2.9c1.6,0,2.9,1.3,2.9,2.9S87.7,27,86.1,27C84.5,27,83.2,25.7,83.2,24.1z
			 M87.5,24.1c0-0.7-0.6-1.4-1.4-1.4c-0.8,0-1.4,0.6-1.4,1.4c0,0.8,0.6,1.4,1.4,1.4C86.9,25.5,87.5,24.9,87.5,24.1z M92.6,21.6
			c0.1-0.1,0.3-0.2,0.4-0.2h0.7c0.3,0,0.5,0.3,0.4,0.6l-7.5,14.5c0,0.1-0.3,0.2-0.4,0.2h-0.7c-0.3,0-0.5-0.3-0.4-0.6L92.6,21.6z
			 M93.2,31c1.6,0,2.9,1.3,2.9,2.9s-1.3,2.9-2.9,2.9c-1.6,0-2.9-1.3-2.9-2.9S91.5,31,93.2,31z M93.2,35.3c0.7,0,1.4-0.6,1.4-1.4
			c0-0.7-0.6-1.4-1.4-1.4c-0.8,0-1.4,0.6-1.4,1.4C91.8,34.7,92.4,35.3,93.2,35.3z"/>
	</g>
	
		<linearGradient id="SVGID_1_" gradientUnits="userSpaceOnUse" x1="106.9551" y1="711.8606" x2="763.9627" y2="711.8606" gradientTransform="matrix(1 0 0 -1 0 1000)">
		<stop  offset="0" style="stop-color:#0098C3"/>
		<stop  offset="1" style="stop-color:#8C1D80"/>
	</linearGradient>
	<path class="st3" d="M752.1,97.1c-6.5,0-11.8,5.3-11.8,11.8c0,2,0.4,3.8,1.3,5.4L596.9,225.8c-2-1.5-4.5-2.5-7.3-2.5
		c-6.5,0-11.8,5.3-11.8,11.8c0,1.7,0.3,3.2,1,4.6L438.4,347.8c-2.1-1.8-4.8-2.9-7.7-2.9c-6.5,0-11.8,5.3-11.8,11.8
		c0,0.2,0,0.3,0,0.6l-140,38.4c-2.1-3.2-5.7-5.3-9.8-5.3c-6.5,0-11.8,5.3-11.8,11.8c0,0.6,0.1,1.1,0.1,1.7l-58.7,29.4L107,475.1
		l1.9,4.1l91.8-41.8l58.3-29.2c2.1,3.4,5.9,5.7,10.2,5.7c6.5,0,11.8-5.3,11.8-11.8c0-0.8-0.1-1.5-0.2-2.3L420,361.7
		c1.9,4.1,6,6.9,10.7,6.9c6.5,0,11.8-5.3,11.8-11.8c0-1.9-0.4-3.8-1.3-5.3l140.1-107.9c2.1,2.1,5.1,3.4,8.3,3.4
		c6.5,0,11.8-5.3,11.8-11.8c0-2.1-0.6-4.1-1.5-5.9l144.6-111.3c2.1,1.8,4.8,2.9,7.6,2.9c6.5,0,11.8-5.3,11.8-11.8
		C764,102.4,758.7,97.1,752.1,97.1z"/>
	<g>
		<g>
			<polygon class="st0" points="916.5,497.9 104.9,497.9 105.2,17.1 110.7,17.1 110.4,492.4 916.5,492.4 			"/>
		</g>
	</g>
</g>
</svg>
