<?xml version="1.0" encoding="utf-8"?>
<!-- Generator: Adobe Illustrator 21.1.0, SVG Export Plug-In . SVG Version: 6.00 Build 0)  -->
<svg version="1.1" id="Layer_1" xmlns="http://www.w3.org/2000/svg" xmlns:xlink="http://www.w3.org/1999/xlink" x="0px" y="0px"
	 viewBox="0 0 1000 1000" style="enable-background:new 0 0 1000 1000;" xml:space="preserve">
<style type="text/css">
	.st0{fill:#4A4A49;}
	.st1{fill:#92C472;}
	.st2{font-family:'BrandonGrotesque-Medium';}
	.st3{font-size:19.7077px;}
	.st4{fill:url(#SVGID_1_);}
	.st5{fill:none;stroke:#4A4A49;stroke-width:5;stroke-miterlimit:10;}
	.st6{font-size:22px;}
</style>
<g>
	<g>
		<path class="st0" d="M278.7,764.1c1.5-1.7,3.5-4.2,5-5.9c1-1.1,1.5-2.1,1.5-2.9c0-1-0.7-2.1-2.4-2.1c-1.1,0-2,0.7-2.5,1.3
			c-0.2,0.2-0.4,0.2-0.5,0l-0.7-0.7c-0.1-0.1-0.2-0.4,0-0.5c0,0,1.5-1.9,3.8-1.9c2.8,0,4.3,1.8,4.3,3.9c0,1.5-0.8,2.6-1.9,3.8
			c-1,1.3-2.4,2.9-3.6,4.2h5c0.2,0,0.4,0.2,0.4,0.4v0.9c0,0.2-0.2,0.4-0.4,0.4h-7.6c-0.2,0-0.4-0.2-0.4-0.4L278.7,764.1L278.7,764.1
			z"/>
		<path class="st0" d="M289.5,758.3c0-4.3,1.8-6.9,4.9-6.9s4.9,2.6,4.9,6.9c0,4.3-1.8,6.9-4.9,6.9S289.5,762.6,289.5,758.3z
			 M297.3,758.3c0-3.2-1-5.1-2.9-5.1s-2.9,1.9-2.9,5.1c0,3.3,1,5.1,2.9,5.1C296.3,763.4,297.3,761.5,297.3,758.3z"/>
		<path class="st0" d="M303.5,754.6l-1.6,0.7c-0.2,0.1-0.4,0-0.4-0.1l-0.2-0.7c-0.1-0.2,0-0.3,0.1-0.4l2.8-2.5h1
			c0.2,0,0.4,0.2,0.4,0.4v12.7c0,0.2-0.2,0.4-0.4,0.4H304c-0.2,0-0.4-0.2-0.4-0.4L303.5,754.6L303.5,754.6z"/>
		<path class="st0" d="M308.2,762.9l0.8-0.7c0.2-0.2,0.4-0.1,0.5,0c0.1,0.2,1.2,1.2,2.7,1.2c1.3,0,2.5-0.8,2.5-2.1
			c0-1.2-1-2.3-3.1-2.3h-1.1c-0.2,0-0.4-0.1-0.4-0.4v-0.8c0-0.3,0.1-0.4,0.4-0.4h1.1c1.9,0,2.8-0.9,2.8-2.1c0-1.3-1.1-2.1-2.2-2.1
			c-1.2,0-1.9,0.7-2.3,1.1c-0.1,0.2-0.3,0.2-0.5,0l-0.7-0.7c-0.2-0.1-0.1-0.4,0-0.5c0,0,1.5-1.7,3.6-1.7c2.3,0,4.1,1.4,4.1,3.6
			c0,1.5-1.1,2.7-2,3.1v0.1c0.9,0.4,2.4,1.6,2.4,3.3c0,2.1-1.7,3.8-4.5,3.8c-2.4,0-3.6-1.2-4-1.8C308.1,763.3,308.1,763,308.2,762.9
			z"/>
	</g>
	<g>
		<path class="st0" d="M420.8,764.1c1.5-1.7,3.5-4.2,5-5.9c1-1.1,1.5-2.1,1.5-2.9c0-1-0.7-2.1-2.4-2.1c-1.1,0-2,0.7-2.5,1.3
			c-0.2,0.2-0.4,0.2-0.5,0l-0.7-0.7c-0.1-0.1-0.2-0.4,0-0.5c0,0,1.5-1.9,3.8-1.9c2.8,0,4.3,1.8,4.3,3.9c0,1.5-0.8,2.6-1.9,3.8
			c-1,1.3-2.4,2.9-3.6,4.2h5c0.2,0,0.4,0.2,0.4,0.4v0.9c0,0.2-0.2,0.4-0.4,0.4h-7.6c-0.2,0-0.4-0.2-0.4-0.4L420.8,764.1L420.8,764.1
			z"/>
		<path class="st0" d="M431.6,758.3c0-4.3,1.8-6.9,4.9-6.9s4.9,2.6,4.9,6.9c0,4.3-1.8,6.9-4.9,6.9S431.6,762.6,431.6,758.3z
			 M439.4,758.3c0-3.2-1-5.1-2.9-5.1s-2.9,1.9-2.9,5.1c0,3.3,1,5.1,2.9,5.1C438.3,763.4,439.4,761.5,439.4,758.3z"/>
		<path class="st0" d="M445.6,754.6l-1.6,0.7c-0.2,0.1-0.4,0-0.4-0.1l-0.2-0.7c-0.1-0.2,0-0.3,0.1-0.4l2.8-2.5h1
			c0.2,0,0.4,0.2,0.4,0.4v12.7c0,0.2-0.2,0.4-0.4,0.4H446c-0.2,0-0.4-0.2-0.4-0.4V754.6z"/>
		<path class="st0" d="M449.8,761.7v-1.2l7.3-9c0.1-0.1,0.2-0.1,0.3-0.1h0.7c0.2,0,0.4,0.2,0.4,0.4v8.7h1.6c0.2,0,0.4,0.2,0.4,0.4
			v0.8c0,0.2-0.2,0.4-0.4,0.4h-1.6v2.6c0,0.2-0.2,0.4-0.4,0.4h-1.2c-0.2,0-0.4-0.2-0.4-0.4V762h-6.4
			C449.9,762,449.8,761.9,449.8,761.7z M456.7,760.4v-5.8l-4.7,5.8H456.7z"/>
	</g>
	<g>
		<path class="st0" d="M569.4,764.1c1.5-1.7,3.5-4.2,5-5.9c1-1.1,1.5-2.1,1.5-2.9c0-1-0.7-2.1-2.4-2.1c-1.1,0-2,0.7-2.5,1.3
			c-0.2,0.2-0.4,0.2-0.5,0l-0.7-0.7c-0.1-0.1-0.2-0.4,0-0.5c0,0,1.5-1.9,3.8-1.9c2.8,0,4.3,1.8,4.3,3.9c0,1.5-0.8,2.6-1.9,3.8
			c-1,1.3-2.4,2.9-3.6,4.2h5c0.2,0,0.4,0.2,0.4,0.4v0.9c0,0.2-0.2,0.4-0.4,0.4h-7.6c-0.2,0-0.4-0.2-0.4-0.4L569.4,764.1L569.4,764.1
			z"/>
		<path class="st0" d="M580.2,758.3c0-4.3,1.8-6.9,4.9-6.9c3.1,0,4.9,2.6,4.9,6.9c0,4.3-1.8,6.9-4.9,6.9S580.2,762.6,580.2,758.3z
			 M588,758.3c0-3.2-1-5.1-2.9-5.1s-2.9,1.9-2.9,5.1c0,3.3,1,5.1,2.9,5.1C587,763.4,588,761.5,588,758.3z"/>
		<path class="st0" d="M594.2,754.6l-1.6,0.7c-0.2,0.1-0.4,0-0.4-0.1l-0.2-0.7c-0.1-0.2,0-0.3,0.1-0.4l2.8-2.5h1
			c0.2,0,0.4,0.2,0.4,0.4v12.7c0,0.2-0.2,0.4-0.4,0.4h-1.2c-0.2,0-0.4-0.2-0.4-0.4L594.2,754.6L594.2,754.6z"/>
		<path class="st0" d="M599.3,762.9c0.3-0.2,0.5-0.5,0.7-0.7c0.2-0.1,0.3-0.2,0.5,0c0.1,0.2,1.2,1.3,2.7,1.3c1.6,0,2.7-1.4,2.7-2.8
			c0-1.4-0.9-2.5-2.7-2.5h-3c-0.4,0-0.6-0.4-0.6-0.7V752c0-0.2,0.2-0.4,0.4-0.4h6.1c0.2,0,0.4,0.2,0.4,0.4v1c0,0.2-0.2,0.4-0.4,0.4
			h-4.7v3.1h2c2.9,0,4.5,1.7,4.5,4.3c0,2.5-2,4.5-4.7,4.5c-2.1,0-3.4-1-3.8-1.6C599.1,763.2,599,763.1,599.3,762.9z"/>
	</g>
	<g>
		<path class="st0" d="M713.9,764.2c1.5-1.7,3.5-4.2,5-5.9c1-1.1,1.5-2.1,1.5-2.9c0-1-0.7-2.1-2.4-2.1c-1.1,0-2,0.7-2.5,1.3
			c-0.2,0.2-0.4,0.2-0.5,0l-0.7-0.7c-0.1-0.1-0.2-0.4,0-0.5c0,0,1.5-1.9,3.8-1.9c2.8,0,4.3,1.8,4.3,3.9c0,1.5-0.8,2.6-1.9,3.8
			c-1,1.3-2.4,2.9-3.6,4.2h5c0.2,0,0.4,0.2,0.4,0.4v0.9c0,0.2-0.2,0.4-0.4,0.4h-7.6c-0.2,0-0.4-0.2-0.4-0.4L713.9,764.2L713.9,764.2
			z"/>
		<path class="st0" d="M724.8,758.4c0-4.3,1.8-6.9,4.9-6.9c3.1,0,4.9,2.6,4.9,6.9c0,4.3-1.8,6.9-4.9,6.9
			C726.5,765.3,724.8,762.7,724.8,758.4z M732.5,758.4c0-3.2-1-5.1-2.9-5.1s-2.9,1.9-2.9,5.1c0,3.3,1,5.1,2.9,5.1
			S732.5,761.7,732.5,758.4z"/>
		<path class="st0" d="M738.7,754.7l-1.6,0.7c-0.2,0.1-0.4,0-0.4-0.1l-0.2-0.7c-0.1-0.2,0-0.3,0.1-0.4l2.8-2.5h1
			c0.2,0,0.4,0.2,0.4,0.4v12.7c0,0.2-0.2,0.4-0.4,0.4h-1.2c-0.2,0-0.4-0.2-0.4-0.4L738.7,754.7L738.7,754.7z"/>
		<path class="st0" d="M750.1,751.3c0.2-0.1,0.4,0,0.5,0.2l0.3,0.8c0.1,0.2,0,0.5-0.4,0.6c-0.9,0.3-4,1.9-4.7,4.4
			c0.2-0.1,1.3-0.7,2.6-0.7c2.1,0,4.1,1.6,4.1,4.3c0,2.5-2,4.5-4.4,4.5c-3.2,0-4.7-2.5-4.7-5.5C743.6,754.3,748.3,751.9,750.1,751.3
			z M750.8,760.8c0-1.5-1.2-2.7-2.6-2.7c-1.6,0-2.6,1.1-2.7,1.5c-0.2,1.7,0.6,3.9,2.7,3.9C749.6,763.5,750.8,762.3,750.8,760.8z"/>
	</g>
	<g>
		<path class="st0" d="M861.7,764.1c1.5-1.7,3.5-4.2,5-5.9c1-1.1,1.5-2.1,1.5-2.9c0-1-0.7-2.1-2.4-2.1c-1.1,0-2,0.7-2.5,1.3
			c-0.2,0.2-0.4,0.2-0.5,0l-0.7-0.7c-0.1-0.1-0.2-0.4,0-0.5c0,0,1.5-1.9,3.8-1.9c2.8,0,4.3,1.8,4.3,3.9c0,1.5-0.8,2.6-1.9,3.8
			c-1,1.3-2.4,2.9-3.6,4.2h5c0.2,0,0.4,0.2,0.4,0.4v0.9c0,0.2-0.2,0.4-0.4,0.4h-7.6c-0.2,0-0.4-0.2-0.4-0.4L861.7,764.1L861.7,764.1
			z"/>
		<path class="st0" d="M872.6,758.3c0-4.3,1.8-6.9,4.9-6.9c3.1,0,4.9,2.6,4.9,6.9c0,4.3-1.8,6.9-4.9,6.9
			C874.3,765.2,872.6,762.6,872.6,758.3z M880.3,758.3c0-3.2-1-5.1-2.9-5.1s-2.9,1.9-2.9,5.1c0,3.3,1,5.1,2.9,5.1
			C879.3,763.4,880.3,761.5,880.3,758.3z"/>
		<path class="st0" d="M886.5,754.6l-1.6,0.7c-0.2,0.1-0.4,0-0.4-0.1l-0.2-0.7c-0.1-0.2,0-0.3,0.1-0.4l2.8-2.5h1
			c0.2,0,0.4,0.2,0.4,0.4v12.7c0,0.2-0.2,0.4-0.4,0.4H887c-0.2,0-0.4-0.2-0.4-0.4L886.5,754.6L886.5,754.6z"/>
		<path class="st0" d="M891.8,764.4l5.3-11.1h-5.8c-0.2,0-0.4-0.2-0.4-0.4v-1c0-0.2,0.2-0.4,0.4-0.4h8.1c0.2,0,0.4,0.2,0.4,0.4v0.1
			l-5.8,12.4c-0.2,0.4-0.3,0.5-0.8,0.5h-0.9C892,764.9,891.8,764.7,891.8,764.4L891.8,764.4z"/>
	</g>
	<path class="st1" d="M148.7,722"/>
	<g>
		<path class="st0" d="M129.3,733.1c0-4.3,1.8-6.9,4.9-6.9c3.1,0,4.9,2.6,4.9,6.9c0,4.3-1.8,6.9-4.9,6.9S129.3,737.4,129.3,733.1z
			 M137.1,733.1c0-3.2-1-5.1-2.9-5.1s-2.9,1.9-2.9,5.1c0,3.3,1,5.1,2.9,5.1C136,738.2,137.1,736.4,137.1,733.1z"/>
	</g>
	<text transform="matrix(1 0 0 1 139.2996 764.8069)" class="st0 st2 st3">2012</text>
	<text transform="matrix(1 0 0 1 106.9398 463.4426)" class="st0 st2 st3">10%</text>
	<text transform="matrix(1 0 0 1 115.6898 607.1448)" class="st0 st2 st3">5%</text>
	<text transform="matrix(1 0 0 1 108.9305 323.8469)" class="st0 st2 st3">15%</text>
	<linearGradient id="SVGID_1_" gradientUnits="userSpaceOnUse" x1="148.2" y1="551.3" x2="742.4" y2="551.3">
		<stop  offset="0" style="stop-color:#0098C3"/>
		<stop  offset="1" style="stop-color:#8C1D80"/>
	</linearGradient>
	<path class="st4" d="M731.7,378.5c-5.9,0-10.7,4.8-10.7,10.7c0,1.8,0.4,3.4,1.2,4.9L591.3,494.9c-1.8-1.4-4.1-2.3-6.6-2.3
		c-5.9,0-10.7,4.8-10.7,10.7c0,1.5,0.3,2.9,0.9,4.2L448,605.3c-1.9-1.6-4.3-2.6-7-2.6c-5.9,0-10.7,4.8-10.7,10.7c0,0.2,0,0.3,0,0.5
		l-126.6,34.7c-1.9-2.9-5.2-4.8-8.9-4.8c-5.9,0-10.7,4.8-10.7,10.7c0,0.5,0.1,1,0.1,1.5l-53.1,26.6l-82.9,37.8l1.7,3.7l83-37.8
		l52.7-26.4c1.9,3.1,5.3,5.2,9.2,5.2c5.9,0,10.7-4.8,10.7-10.7c0-0.7-0.1-1.4-0.2-2.1l126-34.5c1.7,3.7,5.4,6.2,9.7,6.2
		c5.9,0,10.7-4.8,10.7-10.7c0-1.7-0.4-3.4-1.2-4.8l126.7-97.6c1.9,1.9,4.6,3.1,7.5,3.1c5.9,0,10.7-4.8,10.7-10.7
		c0-1.9-0.5-3.7-1.4-5.3l130.8-100.7c1.9,1.6,4.3,2.6,6.9,2.6c5.9,0,10.7-4.8,10.7-10.7S737.6,378.5,731.7,378.5z"/>
	<polyline class="st5" points="880.4,738.5 149.6,738.5 148.8,738.5 149.1,306.2 	"/>
</g>
<text transform="matrix(1 0 0 1 100.2579 233.3772)" class="st0 st2 st6">EVOLUCIÓN DE PARTICIPACIÓN </text>
<text transform="matrix(1 0 0 1 100.2581 260.3772)" class="st0 st2 st6">(porcentaje sobre la población)</text>
</svg>
