<svg xmlns="http://www.w3.org/2000/svg" viewBox="0 0 481.2 413.1"><title>folder</title><g id="Layer_2" data-name="Layer 2"><g id="Capa_1" data-name="Capa 1"><path d="M403.9,63.8h-114a50.34,50.34,0,0,1-50.3-50.3A13.44,13.44,0,0,0,226.1,0H77.3A77.42,77.42,0,0,0,0,77.3V335.8a77.42,77.42,0,0,0,77.3,77.3H403.9a77.42,77.42,0,0,0,77.3-77.3V141A77.33,77.33,0,0,0,403.9,63.8Zm50.3,271.9A50.34,50.34,0,0,1,403.9,386H77.3A50.34,50.34,0,0,1,27,335.7V77.3A50.34,50.34,0,0,1,77.3,27H213.8a77.43,77.43,0,0,0,76.1,63.8h114a50.34,50.34,0,0,1,50.3,50.3V335.7Z"/></g></g></svg>