<?xml version="1.0" encoding="utf-8"?>
<!-- Generator: Adobe Illustrator 21.1.0, SVG Export Plug-In . SVG Version: 6.00 Build 0)  -->
<svg version="1.1" id="Layer_1" xmlns="http://www.w3.org/2000/svg" xmlns:xlink="http://www.w3.org/1999/xlink" x="0px" y="0px"
	 viewBox="0 0 1000 222" style="enable-background:new 0 0 1000 222;" xml:space="preserve">
<style type="text/css">
	.st0{fill:#0098C3;}
	.st1{fill:#4A4A49;}
	.st2{fill:#8C1D80;}
	.st3{fill:#93C01F;}
	.st4{fill:#FCD766;}
	.st5{fill:#300C46;}
	.st6{fill:#ACDFF2;}
	.st7{fill:#EC6E8D;}
	.st8{fill:#465C9D;}
</style>
<g>
	<g>
		<rect x="54.8" y="14" class="st0" width="44.9" height="44.9"/>
		<g>
			<g>
				<path class="st1" d="M133.5,24.9c3.2,0,5.6,1.1,7.8,3c0.3,0.3,0.3,0.6,0,0.9l-1.4,1.4c-0.2,0.3-0.5,0.3-0.8,0
					c-1.5-1.3-3.6-2.2-5.6-2.2c-4.6,0-8.1,3.9-8.1,8.4c0,4.5,3.5,8.3,8.1,8.3c2.3,0,4-0.9,5.5-2.1c0.3-0.2,0.6-0.2,0.8,0l1.5,1.4
					c0.3,0.2,0.2,0.6,0,0.9c-2.2,2.1-5,3.1-7.8,3.1c-6.4,0-11.6-5.1-11.6-11.5C121.9,30.1,127.1,24.9,133.5,24.9z"/>
				<path class="st1" d="M145.7,25.8c0-0.3,0.3-0.6,0.6-0.6h2.2c0.4,0,0.6,0.3,0.6,0.6v13.3c0,3.2,2.1,5.7,5.3,5.7
					c3.3,0,5.4-2.5,5.4-5.7V25.8c0-0.3,0.3-0.6,0.6-0.6h2.2c0.3,0,0.6,0.3,0.6,0.6v13.5c0,4.9-3.7,8.7-8.8,8.7c-5,0-8.7-3.8-8.7-8.7
					V25.8z"/>
				<path class="st1" d="M169.1,25.8c0-0.3,0.3-0.6,0.6-0.6h2.1c0.3,0,0.6,0.3,0.6,0.6v18.9h8.7c0.4,0,0.6,0.3,0.6,0.6v1.8
					c0,0.3-0.3,0.6-0.6,0.6h-11.4c-0.4,0-0.6-0.3-0.6-0.6V25.8z"/>
				<path class="st1" d="M186.9,28.2h-5.2c-0.4,0-0.6-0.3-0.6-0.6v-1.8c0-0.3,0.3-0.6,0.6-0.6h13.8c0.4,0,0.6,0.3,0.6,0.6v1.8
					c0,0.3-0.3,0.6-0.6,0.6h-5.2v18.9c0,0.3-0.3,0.6-0.6,0.6h-2.1c-0.3,0-0.6-0.3-0.6-0.6V28.2z"/>
				<path class="st1" d="M199.3,25.8c0-0.3,0.3-0.6,0.6-0.6h2.2c0.4,0,0.6,0.3,0.6,0.6v13.3c0,3.2,2.1,5.7,5.3,5.7
					c3.3,0,5.4-2.5,5.4-5.7V25.8c0-0.3,0.3-0.6,0.6-0.6h2.2c0.3,0,0.6,0.3,0.6,0.6v13.5c0,4.9-3.7,8.7-8.8,8.7c-5,0-8.7-3.8-8.7-8.7
					V25.8z"/>
				<path class="st1" d="M222.7,25.8c0-0.3,0.3-0.6,0.6-0.6h8.7c3.9,0,7,3.1,7,6.9c0,3-2,5.4-4.8,6.5l4.4,8.2c0.2,0.4,0,0.9-0.5,0.9
					h-2.5c-0.3,0-0.5-0.2-0.5-0.3l-4.3-8.5H226v8.2c0,0.3-0.3,0.6-0.6,0.6h-2.1c-0.4,0-0.6-0.3-0.6-0.6V25.8z M231.8,36.1
					c2.1,0,3.9-1.8,3.9-4c0-2.1-1.8-3.8-3.9-3.8h-5.7v7.8H231.8z"/>
				<path class="st1" d="M241.1,46.9l9.9-21.6c0.1-0.2,0.4-0.4,0.5-0.4h0.3c0.2,0,0.5,0.2,0.5,0.4l9.8,21.6c0.2,0.4-0.1,0.8-0.5,0.8
					h-2c-0.4,0-0.6-0.2-0.7-0.5l-2-4.4h-10.5c-0.6,1.5-1.3,2.9-2,4.4c-0.1,0.2-0.4,0.5-0.7,0.5h-2C241.1,47.7,240.9,47.3,241.1,46.9
					z M255.6,40.1l-4-8.8h-0.2l-3.9,8.8H255.6z"/>
			</g>
		</g>
	</g>
	<g>
		<rect x="54.8" y="88.8" class="st2" width="44.9" height="44.9"/>
		<g>
			<g>
				<path class="st1" d="M123.6,100.6c0-0.3,0.3-0.6,0.6-0.6h7.4c6.2,0,11.3,5,11.3,11.2c0,6.2-5.1,11.3-11.3,11.3h-7.4
					c-0.3,0-0.6-0.3-0.6-0.6V100.6z M131.1,119.4c4.7,0,8.2-3.5,8.2-8.2c0-4.7-3.4-8.2-8.2-8.2h-4.2v16.4H131.1z"/>
				<path class="st1" d="M147.5,100.6c0-0.3,0.3-0.6,0.6-0.6h12.9c0.4,0,0.6,0.3,0.6,0.6v1.8c0,0.3-0.3,0.6-0.6,0.6h-10.2v6.6h8.6
					c0.3,0,0.6,0.3,0.6,0.6v1.8c0,0.4-0.3,0.6-0.6,0.6h-8.6v6.9h10.2c0.4,0,0.6,0.3,0.6,0.6v1.8c0,0.3-0.3,0.6-0.6,0.6h-12.9
					c-0.4,0-0.6-0.3-0.6-0.6V100.6z"/>
				<path class="st1" d="M166.4,100.6c0-0.3,0.3-0.6,0.6-0.6h7.3c4,0,7.2,3.2,7.2,7.1c0,4-3.2,7.2-7.2,7.2h-4.7v7.6
					c0,0.3-0.3,0.6-0.6,0.6H167c-0.4,0-0.6-0.3-0.6-0.6V100.6z M174.2,111.1c2.2,0,4.1-1.8,4.1-4.1c0-2.2-1.9-3.9-4.1-3.9h-4.4v8
					H174.2z"/>
				<path class="st1" d="M195.4,99.6c6.4,0,11.6,5.2,11.6,11.6c0,6.4-5.1,11.5-11.6,11.5c-6.4,0-11.5-5.1-11.5-11.5
					C183.9,104.8,189,99.6,195.4,99.6z M195.4,119.6c4.6,0,8.4-3.7,8.4-8.3c0-4.6-3.8-8.4-8.4-8.4c-4.6,0-8.3,3.8-8.3,8.4
					C187.1,115.8,190.8,119.6,195.4,119.6z"/>
				<path class="st1" d="M211.6,100.6c0-0.3,0.3-0.6,0.6-0.6h8.7c3.9,0,7,3.1,7,6.9c0,3-2,5.4-4.8,6.5l4.4,8.2
					c0.2,0.4,0,0.9-0.5,0.9h-2.5c-0.3,0-0.5-0.2-0.5-0.3l-4.3-8.5h-4.9v8.2c0,0.3-0.3,0.6-0.6,0.6h-2.1c-0.4,0-0.6-0.3-0.6-0.6
					V100.6z M220.7,110.9c2.1,0,3.9-1.8,3.9-4c0-2.1-1.8-3.8-3.9-3.8H215v7.8H220.7z"/>
				<path class="st1" d="M236.1,103h-5.2c-0.4,0-0.6-0.3-0.6-0.6v-1.8c0-0.3,0.3-0.6,0.6-0.6h13.8c0.4,0,0.6,0.3,0.6,0.6v1.8
					c0,0.3-0.3,0.6-0.6,0.6h-5.2v18.9c0,0.3-0.3,0.6-0.6,0.6h-2.1c-0.3,0-0.6-0.3-0.6-0.6V103z"/>
				<path class="st1" d="M248.7,100.6c0-0.3,0.3-0.6,0.6-0.6h12.9c0.4,0,0.6,0.3,0.6,0.6v1.8c0,0.3-0.3,0.6-0.6,0.6H252v6.6h8.6
					c0.3,0,0.6,0.3,0.6,0.6v1.8c0,0.4-0.3,0.6-0.6,0.6H252v6.9h10.2c0.4,0,0.6,0.3,0.6,0.6v1.8c0,0.3-0.3,0.6-0.6,0.6h-12.9
					c-0.4,0-0.6-0.3-0.6-0.6V100.6z"/>
			</g>
		</g>
	</g>
	<g>
		<rect x="54.8" y="163.5" class="st3" width="44.9" height="44.9"/>
		<g>
			<g>
				<path class="st1" d="M123.6,178.7c0-0.3,0.3-0.6,0.6-0.6H137c0.4,0,0.6,0.3,0.6,0.6v1.8c0,0.3-0.3,0.6-0.6,0.6h-10.2v6.6h8.6
					c0.3,0,0.6,0.3,0.6,0.6v1.8c0,0.4-0.3,0.6-0.6,0.6h-8.6v6.9H137c0.4,0,0.6,0.3,0.6,0.6v1.8c0,0.3-0.3,0.6-0.6,0.6h-12.9
					c-0.4,0-0.6-0.3-0.6-0.6V178.7z"/>
				<path class="st1" d="M142.5,178.7c0-0.3,0.3-0.6,0.6-0.6h7.4c6.2,0,11.3,5,11.3,11.2c0,6.2-5.1,11.3-11.3,11.3h-7.4
					c-0.3,0-0.6-0.3-0.6-0.6V178.7z M150,197.5c4.7,0,8.2-3.5,8.2-8.2c0-4.7-3.4-8.2-8.2-8.2h-4.2v16.4H150z"/>
				<path class="st1" d="M166.1,178.7c0-0.3,0.3-0.6,0.6-0.6h2.2c0.4,0,0.6,0.3,0.6,0.6V192c0,3.2,2.1,5.7,5.3,5.7
					c3.3,0,5.4-2.5,5.4-5.7v-13.3c0-0.3,0.3-0.6,0.6-0.6h2.2c0.3,0,0.6,0.3,0.6,0.6v13.5c0,4.9-3.7,8.7-8.8,8.7
					c-5,0-8.7-3.8-8.7-8.7V178.7z"/>
				<path class="st1" d="M199.5,177.8c3.2,0,5.6,1.1,7.8,3c0.3,0.3,0.3,0.6,0,0.9l-1.4,1.4c-0.2,0.3-0.5,0.3-0.8,0
					c-1.5-1.3-3.6-2.2-5.6-2.2c-4.6,0-8.1,3.9-8.1,8.4c0,4.5,3.5,8.3,8.1,8.3c2.3,0,4-0.9,5.5-2.1c0.3-0.2,0.6-0.2,0.8,0l1.5,1.4
					c0.3,0.2,0.2,0.6,0,0.9c-2.2,2.1-5,3.1-7.8,3.1c-6.4,0-11.6-5.1-11.6-11.5C187.9,182.9,193.1,177.8,199.5,177.8z"/>
				<path class="st1" d="M208.9,199.7l9.9-21.6c0.1-0.2,0.4-0.4,0.5-0.4h0.3c0.2,0,0.5,0.2,0.5,0.4l9.8,21.6
					c0.2,0.4-0.1,0.8-0.5,0.8h-2c-0.4,0-0.6-0.2-0.7-0.5l-2-4.4h-10.5c-0.6,1.5-1.3,2.9-2,4.4c-0.1,0.2-0.4,0.5-0.7,0.5h-2
					C209,200.6,208.7,200.2,208.9,199.7z M223.5,192.9l-4-8.8h-0.2l-3.9,8.8H223.5z"/>
				<path class="st1" d="M243.1,177.8c3.2,0,5.6,1.1,7.8,3c0.3,0.3,0.3,0.6,0,0.9l-1.4,1.4c-0.2,0.3-0.5,0.3-0.8,0
					c-1.5-1.3-3.6-2.2-5.6-2.2c-4.6,0-8.1,3.9-8.1,8.4c0,4.5,3.5,8.3,8.1,8.3c2.3,0,4-0.9,5.5-2.1c0.3-0.2,0.6-0.2,0.8,0l1.5,1.4
					c0.3,0.2,0.2,0.6,0,0.9c-2.2,2.1-5,3.1-7.8,3.1c-6.4,0-11.6-5.1-11.6-11.5C231.5,182.9,236.6,177.8,243.1,177.8z"/>
				<path class="st1" d="M255.5,178.7c0-0.3,0.3-0.6,0.6-0.6h2.1c0.3,0,0.6,0.3,0.6,0.6V200c0,0.3-0.3,0.6-0.6,0.6h-2.1
					c-0.3,0-0.6-0.3-0.6-0.6V178.7z"/>
				<path class="st1" d="M275,177.8c6.4,0,11.6,5.2,11.6,11.6c0,6.4-5.1,11.5-11.6,11.5s-11.5-5.1-11.5-11.5
					C263.4,182.9,268.5,177.8,275,177.8z M275,197.7c4.6,0,8.4-3.7,8.4-8.3c0-4.6-3.8-8.4-8.4-8.4c-4.6,0-8.3,3.8-8.3,8.4
					C266.6,194,270.4,197.7,275,197.7z M272,175.5l-0.4-0.9c-0.1-0.3,0-0.5,0.2-0.6l5-2.9c0.2-0.1,0.7-0.2,0.8,0.1l0.7,1.4
					c0.2,0.3,0.1,0.6-0.2,0.8l-5.4,2.3C272.4,175.9,272.2,175.8,272,175.5z"/>
				<path class="st1" d="M291.1,178.3c0-0.3,0.3-0.6,0.6-0.6h0.8l14,16.1h0v-15.2c0-0.3,0.3-0.6,0.6-0.6h2.1c0.3,0,0.6,0.3,0.6,0.6
					v21.6c0,0.3-0.3,0.6-0.6,0.6h-0.8l-14-16.6h0V200c0,0.3-0.3,0.6-0.6,0.6h-2c-0.3,0-0.6-0.3-0.6-0.6V178.3z"/>
			</g>
		</g>
	</g>
	<g>
		<rect x="697" y="14.1" class="st4" width="44.9" height="44.9"/>
		<g>
			<g>
				<path class="st1" d="M766,44.5c0.3-0.4,0.5-0.9,0.8-1.3c0.3-0.4,0.7-0.5,1.1-0.3c0.2,0.2,2.7,2.2,5.1,2.2c2.2,0,3.6-1.4,3.6-3
					c0-1.9-1.7-3.2-4.9-4.5c-3.3-1.4-5.9-3.1-5.9-6.8c0-2.5,1.9-5.9,7-5.9c3.2,0,5.6,1.7,5.9,1.9c0.3,0.2,0.5,0.6,0.2,1.1
					c-0.3,0.4-0.5,0.8-0.8,1.2c-0.3,0.4-0.7,0.6-1.1,0.3c-0.2-0.1-2.5-1.6-4.3-1.6c-2.7,0-3.6,1.7-3.6,2.9c0,1.8,1.4,3,4.1,4.1
					c3.7,1.5,6.9,3.3,6.9,7.2c0,3.3-3,6.1-7.2,6.1c-3.9,0-6.4-2.1-6.9-2.5C765.9,45.3,765.7,45.1,766,44.5z"/>
				<path class="st1" d="M781.7,46.9l9.9-21.6c0.1-0.2,0.4-0.4,0.5-0.4h0.3c0.2,0,0.5,0.2,0.5,0.4l9.8,21.6c0.2,0.4-0.1,0.8-0.5,0.8
					h-2c-0.4,0-0.6-0.2-0.7-0.5l-2-4.4H787c-0.6,1.5-1.3,2.9-2,4.4c-0.1,0.2-0.4,0.5-0.7,0.5h-2C781.8,47.8,781.5,47.4,781.7,46.9z
					 M796.3,40.1l-4-8.8h-0.2l-3.9,8.8H796.3z"/>
				<path class="st1" d="M806,25.9c0-0.3,0.3-0.6,0.6-0.6h2.1c0.3,0,0.6,0.3,0.6,0.6v18.9h8.7c0.4,0,0.6,0.3,0.6,0.6v1.8
					c0,0.3-0.3,0.6-0.6,0.6h-11.4c-0.4,0-0.6-0.3-0.6-0.6V25.9z"/>
				<path class="st1" d="M821.4,25.9c0-0.3,0.3-0.6,0.6-0.6h2.2c0.4,0,0.6,0.3,0.6,0.6v13.3c0,3.2,2.1,5.7,5.3,5.7
					c3.3,0,5.4-2.5,5.4-5.7V25.9c0-0.3,0.3-0.6,0.6-0.6h2.2c0.3,0,0.6,0.3,0.6,0.6v13.5c0,4.9-3.7,8.7-8.8,8.7c-5,0-8.7-3.8-8.7-8.7
					V25.9z"/>
				<path class="st1" d="M844.8,25.9c0-0.3,0.3-0.6,0.6-0.6h7.4c6.2,0,11.3,5,11.3,11.2c0,6.2-5.1,11.3-11.3,11.3h-7.4
					c-0.3,0-0.6-0.3-0.6-0.6V25.9z M852.3,44.7c4.7,0,8.2-3.5,8.2-8.2c0-4.7-3.4-8.2-8.2-8.2h-4.2v16.4H852.3z"/>
			</g>
		</g>
	</g>
	<g>
		<rect x="697" y="88.8" class="st5" width="44.9" height="44.9"/>
		<g>
			<g>
				<path class="st1" d="M766,119.2c0.3-0.4,0.5-0.9,0.8-1.3c0.3-0.4,0.7-0.5,1.1-0.3c0.2,0.2,2.7,2.2,5.1,2.2c2.2,0,3.6-1.4,3.6-3
					c0-1.9-1.7-3.2-4.9-4.5c-3.3-1.4-5.9-3.1-5.9-6.8c0-2.5,1.9-5.9,7-5.9c3.2,0,5.6,1.7,5.9,1.9c0.3,0.2,0.5,0.6,0.2,1.1
					c-0.3,0.4-0.5,0.8-0.8,1.2c-0.3,0.4-0.7,0.6-1.1,0.3c-0.2-0.1-2.5-1.6-4.3-1.6c-2.7,0-3.6,1.7-3.6,2.9c0,1.8,1.4,3,4.1,4.1
					c3.7,1.5,6.9,3.3,6.9,7.2c0,3.3-3,6.1-7.2,6.1c-3.9,0-6.4-2.1-6.9-2.5C765.9,120,765.7,119.8,766,119.2z"/>
				<path class="st1" d="M784.7,100.6c0-0.3,0.3-0.6,0.6-0.6h12.9c0.4,0,0.6,0.3,0.6,0.6v1.8c0,0.3-0.3,0.6-0.6,0.6h-10.2v6.6h8.6
					c0.3,0,0.6,0.3,0.6,0.6v1.8c0,0.4-0.3,0.6-0.6,0.6h-8.6v6.9h10.2c0.4,0,0.6,0.3,0.6,0.6v1.8c0,0.3-0.3,0.6-0.6,0.6h-12.9
					c-0.4,0-0.6-0.3-0.6-0.6V100.6z"/>
				<path class="st1" d="M813.5,99.6c3.1,0,5.6,1.1,7.8,3c0.3,0.3,0.3,0.6,0,0.9c-0.5,0.5-1,1-1.4,1.5c-0.3,0.3-0.5,0.3-0.8,0
					c-1.5-1.3-3.5-2.2-5.5-2.2c-4.6,0-8.1,3.9-8.1,8.4c0,4.5,3.5,8.3,8.1,8.3c2.7,0,4.5-1,4.8-1.1v-3.6h-3.2c-0.4,0-0.6-0.3-0.6-0.6
					v-1.9c0-0.4,0.3-0.6,0.6-0.6h5.9c0.3,0,0.6,0.3,0.6,0.6c0,2.6,0,5.2,0,7.8c0,0.2-0.1,0.4-0.3,0.5c0,0-3.3,2.1-8,2.1
					c-6.4,0-11.6-5.1-11.6-11.5C801.9,104.8,807.1,99.6,813.5,99.6z"/>
				<path class="st1" d="M826.5,100.6c0-0.3,0.3-0.6,0.6-0.6h2.2c0.4,0,0.6,0.3,0.6,0.6v13.3c0,3.2,2.1,5.7,5.3,5.7
					c3.3,0,5.4-2.5,5.4-5.7v-13.3c0-0.3,0.3-0.6,0.6-0.6h2.2c0.3,0,0.6,0.3,0.6,0.6v13.5c0,4.9-3.7,8.7-8.8,8.7
					c-5,0-8.7-3.8-8.7-8.7V100.6z"/>
				<path class="st1" d="M850,100.6c0-0.3,0.3-0.6,0.6-0.6h8.7c3.9,0,7,3.1,7,6.9c0,3-2,5.4-4.8,6.5l4.4,8.2c0.2,0.4,0,0.9-0.5,0.9
					h-2.5c-0.3,0-0.5-0.2-0.5-0.3l-4.3-8.5h-4.9v8.2c0,0.3-0.3,0.6-0.6,0.6h-2.1c-0.4,0-0.6-0.3-0.6-0.6V100.6z M859.1,110.9
					c2.1,0,3.9-1.8,3.9-4c0-2.1-1.8-3.8-3.9-3.8h-5.7v7.8H859.1z"/>
				<path class="st1" d="M871.3,100.6c0-0.3,0.3-0.6,0.6-0.6h2.1c0.3,0,0.6,0.3,0.6,0.6v21.3c0,0.3-0.3,0.6-0.6,0.6h-2.1
					c-0.3,0-0.6-0.3-0.6-0.6V100.6z"/>
				<path class="st1" d="M880.9,100.6c0-0.3,0.3-0.6,0.6-0.6h7.4c6.2,0,11.3,5,11.3,11.2c0,6.2-5.1,11.3-11.3,11.3h-7.4
					c-0.3,0-0.6-0.3-0.6-0.6V100.6z M888.4,119.4c4.7,0,8.2-3.5,8.2-8.2c0-4.7-3.4-8.2-8.2-8.2h-4.2v16.4H888.4z"/>
				<path class="st1" d="M901.6,121.6l9.9-21.6c0.1-0.2,0.4-0.4,0.5-0.4h0.3c0.2,0,0.5,0.2,0.5,0.4l9.8,21.6
					c0.2,0.4-0.1,0.8-0.5,0.8h-2c-0.4,0-0.6-0.2-0.7-0.5l-2-4.4h-10.5c-0.6,1.5-1.3,2.9-2,4.4c-0.1,0.2-0.4,0.5-0.7,0.5h-2
					C901.7,122.5,901.4,122,901.6,121.6z M916.2,114.8l-4-8.8h-0.2l-3.9,8.8H916.2z"/>
				<path class="st1" d="M925.9,100.6c0-0.3,0.3-0.6,0.6-0.6h7.4c6.2,0,11.3,5,11.3,11.2c0,6.2-5.1,11.3-11.3,11.3h-7.4
					c-0.3,0-0.6-0.3-0.6-0.6V100.6z M933.5,119.4c4.7,0,8.2-3.5,8.2-8.2c0-4.7-3.4-8.2-8.2-8.2h-4.2v16.4H933.5z"/>
			</g>
		</g>
	</g>
	<g>
		<rect x="697" y="163.4" class="st6" width="44.9" height="44.9"/>
		<g>
			<g>
				<path class="st1" d="M770.6,181h-5.2c-0.4,0-0.6-0.3-0.6-0.6v-1.8c0-0.3,0.3-0.6,0.6-0.6h13.8c0.4,0,0.6,0.3,0.6,0.6v1.8
					c0,0.3-0.3,0.6-0.6,0.6h-5.2v18.9c0,0.3-0.3,0.6-0.6,0.6h-2.1c-0.3,0-0.6-0.3-0.6-0.6V181z"/>
				<path class="st1" d="M783.2,178.6c0-0.3,0.3-0.6,0.6-0.6h8.7c3.9,0,7,3.1,7,6.9c0,3-2,5.4-4.8,6.5l4.4,8.2
					c0.2,0.4,0,0.9-0.5,0.9h-2.5c-0.3,0-0.5-0.2-0.5-0.3l-4.3-8.5h-4.9v8.2c0,0.3-0.3,0.6-0.6,0.6h-2.1c-0.4,0-0.6-0.3-0.6-0.6
					V178.6z M792.3,188.9c2.1,0,3.9-1.8,3.9-4c0-2.1-1.8-3.8-3.9-3.8h-5.7v7.8H792.3z"/>
				<path class="st1" d="M801.6,199.7l9.9-21.6c0.1-0.2,0.4-0.4,0.5-0.4h0.3c0.2,0,0.5,0.2,0.5,0.4l9.8,21.6
					c0.2,0.4-0.1,0.8-0.5,0.8h-2c-0.4,0-0.6-0.2-0.7-0.5l-2-4.4h-10.5c-0.6,1.5-1.3,2.9-2,4.4c-0.1,0.2-0.4,0.5-0.7,0.5h-2
					C801.7,200.5,801.4,200.1,801.6,199.7z M816.2,192.9l-4-8.8H812l-3.9,8.8H816.2z M809.2,175.5l-0.4-0.9c-0.1-0.3,0-0.5,0.2-0.6
					l5-2.9c0.2-0.1,0.7-0.2,0.8,0.1l0.7,1.4c0.2,0.3,0.1,0.6-0.2,0.8l-5.4,2.3C809.5,175.8,809.3,175.8,809.2,175.5z"/>
				<path class="st1" d="M825.9,178.3c0-0.3,0.3-0.6,0.6-0.6h0.8l14,16.1h0v-15.2c0-0.3,0.3-0.6,0.6-0.6h2.1c0.3,0,0.6,0.3,0.6,0.6
					v21.6c0,0.3-0.3,0.6-0.6,0.6h-0.8l-14-16.6h0v15.7c0,0.3-0.3,0.6-0.6,0.6h-2c-0.3,0-0.6-0.3-0.6-0.6V178.3z"/>
				<path class="st1" d="M849.4,197.3c0.3-0.4,0.5-0.9,0.8-1.3c0.3-0.4,0.7-0.5,1.1-0.3c0.2,0.2,2.7,2.2,5.1,2.2
					c2.2,0,3.6-1.4,3.6-3c0-1.9-1.7-3.2-4.9-4.5c-3.3-1.4-5.9-3.1-5.9-6.8c0-2.5,1.9-5.9,7-5.9c3.2,0,5.6,1.7,5.9,1.9
					c0.3,0.2,0.5,0.6,0.2,1.1c-0.3,0.4-0.5,0.8-0.8,1.2c-0.3,0.4-0.7,0.6-1.1,0.3c-0.2-0.1-2.5-1.6-4.3-1.6c-2.7,0-3.6,1.7-3.6,2.9
					c0,1.8,1.4,3,4.1,4.1c3.7,1.5,6.9,3.3,6.9,7.2c0,3.3-3,6.1-7.2,6.1c-3.9,0-6.4-2.1-6.9-2.5C849.3,198,849.1,197.8,849.4,197.3z"
					/>
				<path class="st1" d="M868.1,178.6c0-0.3,0.3-0.6,0.6-0.6h2.1c0.3,0,0.6,0.3,0.6,0.6v21.3c0,0.3-0.3,0.6-0.6,0.6h-2.1
					c-0.3,0-0.6-0.3-0.6-0.6V178.6z"/>
				<path class="st1" d="M880.8,181h-5.2c-0.4,0-0.6-0.3-0.6-0.6v-1.8c0-0.3,0.3-0.6,0.6-0.6h13.8c0.4,0,0.6,0.3,0.6,0.6v1.8
					c0,0.3-0.3,0.6-0.6,0.6h-5.2v18.9c0,0.3-0.3,0.6-0.6,0.6h-2.1c-0.3,0-0.6-0.3-0.6-0.6V181z"/>
				<path class="st1" d="M903,177.7c6.4,0,11.6,5.2,11.6,11.6c0,6.4-5.1,11.5-11.6,11.5s-11.5-5.1-11.5-11.5
					C891.5,182.9,896.6,177.7,903,177.7z M903,197.6c4.6,0,8.4-3.7,8.4-8.3c0-4.6-3.8-8.4-8.4-8.4c-4.6,0-8.3,3.8-8.3,8.4
					C894.7,193.9,898.4,197.6,903,197.6z"/>
			</g>
		</g>
	</g>
	<g>
		<rect x="364.9" y="13.6" class="st1" width="44.9" height="44.9"/>
		<g>
			<g>
				<path class="st1" d="M434,25.4c0-0.3,0.3-0.6,0.6-0.6h12.9c0.4,0,0.6,0.3,0.6,0.6v1.8c0,0.3-0.3,0.6-0.6,0.6h-10.2v7.4h8.6
					c0.3,0,0.6,0.3,0.6,0.6v1.8c0,0.3-0.3,0.6-0.6,0.6h-8.6v8.5c0,0.3-0.3,0.6-0.6,0.6h-2.1c-0.4,0-0.6-0.3-0.6-0.6V25.4z"/>
				<path class="st1" d="M452.2,25.4c0-0.3,0.3-0.6,0.6-0.6h2.1c0.3,0,0.6,0.3,0.6,0.6v21.3c0,0.3-0.3,0.6-0.6,0.6h-2.1
					c-0.3,0-0.6-0.3-0.6-0.6V25.4z"/>
				<path class="st1" d="M460.3,44.1c0.3-0.4,0.5-0.9,0.8-1.3c0.3-0.4,0.7-0.5,1.1-0.3c0.2,0.2,2.7,2.2,5.1,2.2c2.2,0,3.6-1.4,3.6-3
					c0-1.9-1.7-3.2-4.9-4.5c-3.3-1.4-5.9-3.1-5.9-6.8c0-2.5,1.9-5.9,7-5.9c3.2,0,5.6,1.7,5.9,1.9c0.3,0.2,0.5,0.6,0.2,1.1
					c-0.3,0.4-0.5,0.8-0.8,1.2c-0.3,0.4-0.7,0.6-1.1,0.3c-0.2-0.1-2.5-1.6-4.3-1.6c-2.7,0-3.6,1.7-3.6,2.9c0,1.8,1.4,3,4.1,4.1
					c3.7,1.5,6.9,3.3,6.9,7.2c0,3.3-3,6.1-7.2,6.1c-3.9,0-6.4-2.1-6.9-2.5C460.2,44.8,460,44.6,460.3,44.1z"/>
				<path class="st1" d="M489,24.5c3.2,0,5.6,1.1,7.8,3c0.3,0.3,0.3,0.6,0,0.9l-1.4,1.4c-0.2,0.3-0.5,0.3-0.8,0
					c-1.5-1.3-3.6-2.2-5.6-2.2c-4.6,0-8.1,3.9-8.1,8.4c0,4.5,3.5,8.3,8.1,8.3c2.3,0,4-0.9,5.5-2.1c0.3-0.2,0.6-0.2,0.8,0l1.5,1.4
					c0.3,0.2,0.2,0.6,0,0.9c-2.2,2.1-5,3.1-7.8,3.1c-6.4,0-11.6-5.1-11.6-11.5C477.4,29.7,482.6,24.5,489,24.5z"/>
				<path class="st1" d="M498.4,46.5l9.9-21.6c0.1-0.2,0.4-0.4,0.5-0.4h0.3c0.2,0,0.5,0.2,0.5,0.4l9.8,21.6c0.2,0.4-0.1,0.8-0.5,0.8
					h-2c-0.4,0-0.6-0.2-0.7-0.5l-2-4.4h-10.5c-0.6,1.5-1.3,2.9-2,4.4c-0.1,0.2-0.4,0.5-0.7,0.5h-2C498.4,47.3,498.2,46.9,498.4,46.5
					z M512.9,39.6l-4-8.8h-0.2l-3.9,8.8H512.9z"/>
				<path class="st1" d="M522.7,25.4c0-0.3,0.3-0.6,0.6-0.6h2.1c0.3,0,0.6,0.3,0.6,0.6v18.9h8.7c0.4,0,0.6,0.3,0.6,0.6v1.8
					c0,0.3-0.3,0.6-0.6,0.6h-11.4c-0.4,0-0.6-0.3-0.6-0.6V25.4z"/>
				<path class="st1" d="M538.7,25.4c0-0.3,0.3-0.6,0.6-0.6h2.1c0.3,0,0.6,0.3,0.6,0.6v21.3c0,0.3-0.3,0.6-0.6,0.6h-2.1
					c-0.3,0-0.6-0.3-0.6-0.6V25.4z"/>
				<path class="st1" d="M546.1,46.1L556.7,28v-0.1h-9.1c-0.3,0-0.6-0.3-0.6-0.6v-1.9c0-0.3,0.3-0.6,0.6-0.6h13.2
					c0.3,0,0.6,0.3,0.6,0.6v0.4l-10.6,18.4v0h9.4c0.4,0,0.6,0.3,0.6,0.6v1.8c0,0.3-0.3,0.6-0.6,0.6h-13.5c-0.3,0-0.6-0.3-0.6-0.6
					V46.1z"/>
				<path class="st1" d="M562.5,46.5l9.9-21.6c0.1-0.2,0.4-0.4,0.5-0.4h0.3c0.2,0,0.5,0.2,0.5,0.4l9.8,21.6c0.2,0.4-0.1,0.8-0.5,0.8
					h-2c-0.4,0-0.6-0.2-0.7-0.5l-2-4.4h-10.5c-0.6,1.5-1.3,2.9-2,4.4c-0.1,0.2-0.4,0.5-0.7,0.5h-2C562.6,47.3,562.3,46.9,562.5,46.5
					z M577.1,39.6l-4-8.8h-0.2l-3.9,8.8H577.1z"/>
				<path class="st1" d="M596.6,24.5c3.2,0,5.6,1.1,7.8,3c0.3,0.3,0.3,0.6,0,0.9l-1.4,1.4c-0.2,0.3-0.5,0.3-0.8,0
					c-1.5-1.3-3.6-2.2-5.6-2.2c-4.6,0-8.1,3.9-8.1,8.4c0,4.5,3.5,8.3,8.1,8.3c2.3,0,4-0.9,5.5-2.1c0.3-0.2,0.6-0.2,0.8,0l1.5,1.4
					c0.3,0.2,0.2,0.6,0,0.9c-2.2,2.1-5,3.1-7.8,3.1c-6.4,0-11.6-5.1-11.6-11.5C585,29.7,590.2,24.5,596.6,24.5z"/>
				<path class="st1" d="M609,25.4c0-0.3,0.3-0.6,0.6-0.6h2.1c0.3,0,0.6,0.3,0.6,0.6v21.3c0,0.3-0.3,0.6-0.6,0.6h-2.1
					c-0.3,0-0.6-0.3-0.6-0.6V25.4z"/>
				<path class="st1" d="M628.5,24.5c6.4,0,11.6,5.2,11.6,11.6c0,6.4-5.1,11.5-11.6,11.5c-6.4,0-11.5-5.1-11.5-11.5
					C617,29.7,622.1,24.5,628.5,24.5z M628.5,44.4c4.6,0,8.4-3.7,8.4-8.3c0-4.6-3.8-8.4-8.4-8.4c-4.6,0-8.3,3.8-8.3,8.4
					C620.2,40.7,624,44.4,628.5,44.4z"/>
				<path class="st1" d="M644.7,25.1c0-0.3,0.3-0.6,0.6-0.6h0.8l14,16.1h0V25.4c0-0.3,0.3-0.6,0.6-0.6h2.1c0.3,0,0.6,0.3,0.6,0.6V47
					c0,0.3-0.3,0.6-0.6,0.6h-0.8L648,31h0v15.7c0,0.3-0.3,0.6-0.6,0.6h-2c-0.3,0-0.6-0.3-0.6-0.6V25.1z"/>
			</g>
		</g>
	</g>
	<g>
		<rect x="364.9" y="88.4" class="st7" width="44.9" height="44.9"/>
		<g>
			<g>
				<path class="st1" d="M443.9,99.2c3.1,0,5.6,1.1,7.8,3c0.3,0.3,0.3,0.6,0,0.9c-0.5,0.5-1,1-1.4,1.5c-0.3,0.3-0.5,0.3-0.8,0
					c-1.5-1.3-3.5-2.2-5.5-2.2c-4.6,0-8.1,3.9-8.1,8.4c0,4.5,3.5,8.3,8.1,8.3c2.7,0,4.5-1,4.8-1.1v-3.6h-3.2c-0.4,0-0.6-0.3-0.6-0.6
					V112c0-0.4,0.3-0.6,0.6-0.6h5.9c0.3,0,0.6,0.3,0.6,0.6c0,2.6,0,5.2,0,7.8c0,0.2-0.1,0.4-0.3,0.5c0,0-3.3,2.1-8,2.1
					c-6.4,0-11.6-5.1-11.6-11.5C432.3,104.4,437.5,99.2,443.9,99.2z"/>
				<path class="st1" d="M467.1,99.2c6.4,0,11.6,5.2,11.6,11.6c0,6.4-5.1,11.5-11.6,11.5c-6.4,0-11.5-5.1-11.5-11.5
					C455.5,104.4,460.7,99.2,467.1,99.2z M467.1,119.2c4.6,0,8.4-3.7,8.4-8.3c0-4.6-3.8-8.4-8.4-8.4c-4.6,0-8.3,3.8-8.3,8.4
					C458.8,115.4,462.5,119.2,467.1,119.2z"/>
				<path class="st1" d="M483.3,100.2c0-0.3,0.3-0.6,0.6-0.6h7.2c3.9,0,6.7,2.6,6.7,5.9c0,2.5-1.8,4.2-3.3,5.1c1.7,0.7,4,2.3,4,5.2
					c0,3.6-3,6.2-7,6.2h-7.6c-0.4,0-0.6-0.3-0.6-0.6V100.2z M491.4,119.1c2,0,3.5-1.5,3.5-3.5c0-2-1.9-3.4-4-3.4h-4.4v6.9H491.4z
					 M490.9,109.3c2.1,0,3.3-1.5,3.3-3.4c0-2-1.3-3.3-3.3-3.3h-4.3v6.8H490.9z"/>
				<path class="st1" d="M503.3,100.2c0-0.3,0.3-0.6,0.6-0.6h2.1c0.3,0,0.6,0.3,0.6,0.6v21.3c0,0.3-0.3,0.6-0.6,0.6h-2.1
					c-0.3,0-0.6-0.3-0.6-0.6V100.2z"/>
				<path class="st1" d="M512.8,100.2c0-0.3,0.3-0.6,0.6-0.6h12.9c0.4,0,0.6,0.3,0.6,0.6v1.8c0,0.3-0.3,0.6-0.6,0.6h-10.2v6.6h8.6
					c0.3,0,0.6,0.3,0.6,0.6v1.8c0,0.4-0.3,0.6-0.6,0.6h-8.6v6.9h10.2c0.4,0,0.6,0.3,0.6,0.6v1.8c0,0.3-0.3,0.6-0.6,0.6h-12.9
					c-0.4,0-0.6-0.3-0.6-0.6V100.2z"/>
				<path class="st1" d="M531.8,100.2c0-0.3,0.3-0.6,0.6-0.6h8.7c3.9,0,7,3.1,7,6.9c0,3-2,5.4-4.8,6.5l4.4,8.2
					c0.2,0.4,0,0.9-0.5,0.9h-2.5c-0.3,0-0.5-0.2-0.5-0.3l-4.3-8.5h-4.9v8.2c0,0.3-0.3,0.6-0.6,0.6h-2.1c-0.4,0-0.6-0.3-0.6-0.6
					V100.2z M540.9,110.5c2.1,0,3.9-1.8,3.9-4c0-2.1-1.8-3.8-3.9-3.8h-5.7v7.8H540.9z"/>
				<path class="st1" d="M553.2,99.8c0-0.3,0.3-0.6,0.6-0.6h0.8l14,16.1h0v-15.2c0-0.3,0.3-0.6,0.6-0.6h2.1c0.3,0,0.6,0.3,0.6,0.6
					v21.6c0,0.3-0.3,0.6-0.6,0.6h-0.8l-14-16.6h0v15.7c0,0.3-0.3,0.6-0.6,0.6h-2c-0.3,0-0.6-0.3-0.6-0.6V99.8z"/>
				<path class="st1" d="M588,99.2c6.4,0,11.6,5.2,11.6,11.6c0,6.4-5.1,11.5-11.6,11.5s-11.5-5.1-11.5-11.5
					C576.4,104.4,581.6,99.2,588,99.2z M588,119.2c4.6,0,8.4-3.7,8.4-8.3c0-4.6-3.8-8.4-8.4-8.4c-4.6,0-8.3,3.8-8.3,8.4
					C579.7,115.4,583.4,119.2,588,119.2z"/>
			</g>
		</g>
	</g>
	<g>
		<rect x="364.9" y="163.1" class="st8" width="44.9" height="44.9"/>
		<g>
			<g>
				<path class="st1" d="M434,174.9c0-0.3,0.3-0.6,0.6-0.6h7.3c4,0,7.2,3.2,7.2,7.1c0,4-3.2,7.2-7.2,7.2h-4.7v7.6
					c0,0.3-0.3,0.6-0.6,0.6h-2.1c-0.4,0-0.6-0.3-0.6-0.6V174.9z M441.7,185.5c2.2,0,4.1-1.8,4.1-4.1c0-2.2-1.9-3.9-4.1-3.9h-4.4v8
					H441.7z"/>
				<path class="st1" d="M453.1,174.9c0-0.3,0.3-0.6,0.6-0.6h2.1c0.3,0,0.6,0.3,0.6,0.6v18.9h8.7c0.4,0,0.6,0.3,0.6,0.6v1.8
					c0,0.3-0.3,0.6-0.6,0.6h-11.4c-0.4,0-0.6-0.3-0.6-0.6V174.9z"/>
				<path class="st1" d="M467.1,196l9.9-21.6c0.1-0.2,0.4-0.4,0.5-0.4h0.3c0.2,0,0.5,0.2,0.5,0.4l9.8,21.6c0.2,0.4-0.1,0.8-0.5,0.8
					h-2c-0.4,0-0.6-0.2-0.7-0.5l-2-4.4h-10.5c-0.6,1.5-1.3,2.9-2,4.4c-0.1,0.2-0.4,0.5-0.7,0.5h-2
					C467.2,196.8,466.9,196.4,467.1,196z M481.7,189.1l-4-8.8h-0.2l-3.9,8.8H481.7z"/>
				<path class="st1" d="M491.4,174.6c0-0.3,0.3-0.6,0.6-0.6h0.8l14,16.1h0v-15.2c0-0.3,0.3-0.6,0.6-0.6h2.1c0.3,0,0.6,0.3,0.6,0.6
					v21.6c0,0.3-0.3,0.6-0.6,0.6h-0.8l-14-16.6h0v15.7c0,0.3-0.3,0.6-0.6,0.6h-2c-0.3,0-0.6-0.3-0.6-0.6V174.6z"/>
				<path class="st1" d="M516.3,174.9c0-0.3,0.3-0.6,0.6-0.6h12.9c0.4,0,0.6,0.3,0.6,0.6v1.8c0,0.3-0.3,0.6-0.6,0.6h-10.2v6.6h8.6
					c0.3,0,0.6,0.3,0.6,0.6v1.8c0,0.4-0.3,0.6-0.6,0.6h-8.6v6.9h10.2c0.4,0,0.6,0.3,0.6,0.6v1.8c0,0.3-0.3,0.6-0.6,0.6h-12.9
					c-0.4,0-0.6-0.3-0.6-0.6V174.9z"/>
				<path class="st1" d="M532.2,196l9.9-21.6c0.1-0.2,0.4-0.4,0.5-0.4h0.3c0.2,0,0.5,0.2,0.5,0.4l9.8,21.6c0.2,0.4-0.1,0.8-0.5,0.8
					h-2c-0.4,0-0.6-0.2-0.7-0.5l-2-4.4h-10.5c-0.6,1.5-1.3,2.9-2,4.4c-0.1,0.2-0.4,0.5-0.7,0.5h-2C532.3,196.8,532,196.4,532.2,196z
					 M546.8,189.1l-4-8.8h-0.2l-3.9,8.8H546.8z"/>
				<path class="st1" d="M559,174.5c0.1-0.3,0.3-0.5,0.6-0.5h0.5c0.2,0,0.5,0.2,0.5,0.4l6.7,16.4h0.1l6.7-16.4
					c0.1-0.2,0.3-0.4,0.5-0.4h0.5c0.3,0,0.5,0.2,0.6,0.5l4,21.6c0.1,0.4-0.1,0.7-0.6,0.7h-2.1c-0.3,0-0.5-0.2-0.6-0.5l-2.4-14.4
					c0,0-0.1,0-0.1,0l-5.8,14.8c-0.1,0.2-0.3,0.4-0.5,0.4h-0.6c-0.3,0-0.5-0.2-0.5-0.4l-5.8-14.8c0,0-0.1,0-0.1,0l-2.3,14.4
					c0,0.2-0.3,0.5-0.6,0.5h-2.1c-0.5,0-0.7-0.3-0.6-0.7L559,174.5z"/>
				<path class="st1" d="M584.5,174.9c0-0.3,0.3-0.6,0.6-0.6h2.1c0.3,0,0.6,0.3,0.6,0.6v21.3c0,0.3-0.3,0.6-0.6,0.6h-2.1
					c-0.3,0-0.6-0.3-0.6-0.6V174.9z"/>
				<path class="st1" d="M594.1,174.9c0-0.3,0.3-0.6,0.6-0.6h12.9c0.4,0,0.6,0.3,0.6,0.6v1.8c0,0.3-0.3,0.6-0.6,0.6h-10.2v6.6h8.6
					c0.3,0,0.6,0.3,0.6,0.6v1.8c0,0.4-0.3,0.6-0.6,0.6h-8.6v6.9h10.2c0.4,0,0.6,0.3,0.6,0.6v1.8c0,0.3-0.3,0.6-0.6,0.6h-12.9
					c-0.4,0-0.6-0.3-0.6-0.6V174.9z"/>
				<path class="st1" d="M613,174.6c0-0.3,0.3-0.6,0.6-0.6h0.8l14,16.1h0v-15.2c0-0.3,0.3-0.6,0.6-0.6h2.1c0.3,0,0.6,0.3,0.6,0.6
					v21.6c0,0.3-0.3,0.6-0.6,0.6h-0.8l-14-16.6h0v15.7c0,0.3-0.3,0.6-0.6,0.6h-2c-0.3,0-0.6-0.3-0.6-0.6V174.6z"/>
				<path class="st1" d="M641,177.3h-5.2c-0.4,0-0.6-0.3-0.6-0.6v-1.8c0-0.3,0.3-0.6,0.6-0.6h13.8c0.4,0,0.6,0.3,0.6,0.6v1.8
					c0,0.3-0.3,0.6-0.6,0.6h-5.2v18.9c0,0.3-0.3,0.6-0.6,0.6h-2.1c-0.3,0-0.6-0.3-0.6-0.6V177.3z"/>
				<path class="st1" d="M663.3,174c6.4,0,11.6,5.2,11.6,11.6c0,6.4-5.1,11.5-11.6,11.5c-6.4,0-11.5-5.1-11.5-11.5
					C651.7,179.2,656.8,174,663.3,174z M663.3,193.9c4.6,0,8.4-3.7,8.4-8.3c0-4.6-3.8-8.4-8.4-8.4c-4.6,0-8.3,3.8-8.3,8.4
					C654.9,190.2,658.7,193.9,663.3,193.9z"/>
			</g>
		</g>
	</g>
</g>
</svg>
