<?xml version="1.0" encoding="utf-8"?>
<!-- Generator: Adobe Illustrator 21.1.0, SVG Export Plug-In . SVG Version: 6.00 Build 0)  -->
<svg version="1.1" id="Layer_1" xmlns="http://www.w3.org/2000/svg" xmlns:xlink="http://www.w3.org/1999/xlink" x="0px" y="0px"
	 viewBox="0 0 896 222" style="enable-background:new 0 0 896 222;" xml:space="preserve">
<style type="text/css">
	.st0{fill:#0098C3;}
	.st1{fill:#4A4A49;}
	.st2{fill:#8C1D80;}
	.st3{fill:#93C01F;}
	.st4{fill:#FCD766;}
	.st5{fill:#300C46;}
	.st6{fill:#ACDFF2;}
	.st7{fill:#EC6E8D;}
	.st8{fill:#465C9D;}
</style>
<g>
	<g>
		<rect x="633.3" y="160.8" class="st0" width="42.9" height="42.9"/>
		<g>
			<g>
				<path class="st1" d="M708.5,171.1c3.1,0,5.3,1,7.4,2.9c0.3,0.2,0.3,0.6,0,0.9l-1.4,1.4c-0.2,0.3-0.5,0.3-0.8,0
					c-1.4-1.3-3.4-2.1-5.3-2.1c-4.4,0-7.7,3.7-7.7,8c0,4.3,3.3,8,7.7,8c2.2,0,3.8-0.9,5.3-2c0.3-0.2,0.6-0.2,0.7,0l1.4,1.4
					c0.2,0.2,0.2,0.6,0,0.8c-2.1,2-4.7,3-7.5,3c-6.1,0-11.1-4.9-11.1-11C697.4,176.1,702.3,171.1,708.5,171.1z"/>
				<path class="st1" d="M720.1,172c0-0.3,0.3-0.6,0.6-0.6h2.1c0.3,0,0.6,0.3,0.6,0.6v12.7c0,3.1,2,5.5,5.1,5.5
					c3.2,0,5.2-2.4,5.2-5.4V172c0-0.3,0.2-0.6,0.6-0.6h2.1c0.3,0,0.6,0.3,0.6,0.6v12.9c0,4.7-3.5,8.3-8.4,8.3
					c-4.8,0-8.3-3.7-8.3-8.3V172z"/>
				<path class="st1" d="M742.4,172c0-0.3,0.2-0.6,0.6-0.6h2c0.3,0,0.6,0.3,0.6,0.6v18h8.3c0.3,0,0.6,0.3,0.6,0.6v1.7
					c0,0.3-0.2,0.6-0.6,0.6H743c-0.3,0-0.6-0.3-0.6-0.6V172z"/>
				<path class="st1" d="M759.4,174.3h-5c-0.3,0-0.6-0.3-0.6-0.6V172c0-0.3,0.2-0.6,0.6-0.6h13.2c0.3,0,0.6,0.3,0.6,0.6v1.7
					c0,0.3-0.2,0.6-0.6,0.6h-5v18c0,0.3-0.3,0.6-0.6,0.6h-2c-0.3,0-0.6-0.3-0.6-0.6V174.3z"/>
				<path class="st1" d="M771.2,172c0-0.3,0.3-0.6,0.6-0.6h2.1c0.3,0,0.6,0.3,0.6,0.6v12.7c0,3.1,2,5.5,5.1,5.5
					c3.2,0,5.2-2.4,5.2-5.4V172c0-0.3,0.2-0.6,0.6-0.6h2.1c0.3,0,0.6,0.3,0.6,0.6v12.9c0,4.7-3.5,8.3-8.4,8.3
					c-4.8,0-8.3-3.7-8.3-8.3V172z"/>
				<path class="st1" d="M793.6,172c0-0.3,0.2-0.6,0.6-0.6h8.3c3.7,0,6.7,2.9,6.7,6.6c0,2.8-1.9,5.2-4.5,6.2l4.2,7.8
					c0.2,0.4,0,0.9-0.5,0.9H806c-0.2,0-0.4-0.2-0.5-0.3l-4.1-8.1h-4.6v7.8c0,0.3-0.3,0.6-0.6,0.6h-2c-0.3,0-0.6-0.3-0.6-0.6V172z
					 M802.3,181.9c2,0,3.7-1.7,3.7-3.8c0-2-1.7-3.7-3.7-3.7h-5.5v7.5H802.3z"/>
				<path class="st1" d="M811.1,192.1l9.4-20.7c0.1-0.2,0.4-0.3,0.5-0.3h0.3c0.2,0,0.4,0.2,0.5,0.3l9.4,20.7
					c0.2,0.4-0.1,0.8-0.5,0.8h-1.9c-0.4,0-0.6-0.2-0.7-0.5l-1.9-4.2h-10c-0.6,1.4-1.3,2.8-1.9,4.2c-0.1,0.2-0.3,0.5-0.7,0.5h-1.9
					C811.2,192.9,811,192.5,811.1,192.1z M825.1,185.6l-3.8-8.4h-0.2l-3.7,8.4H825.1z"/>
			</g>
		</g>
	</g>
	<g>
		<rect x="633.3" y="89.4" class="st2" width="42.9" height="42.9"/>
		<g>
			<g>
				<path class="st1" d="M699,100.6c0-0.3,0.2-0.6,0.6-0.6h7.1c5.9,0,10.8,4.8,10.8,10.7c0,6-4.8,10.8-10.8,10.8h-7.1
					c-0.3,0-0.6-0.3-0.6-0.6V100.6z M706.1,118.6c4.5,0,7.8-3.3,7.8-7.9c0-4.5-3.3-7.8-7.8-7.8h-4.1v15.7H706.1z"/>
				<path class="st1" d="M721.8,100.6c0-0.3,0.2-0.6,0.6-0.6h12.3c0.3,0,0.6,0.3,0.6,0.6v1.7c0,0.3-0.2,0.6-0.6,0.6h-9.7v6.3h8.2
					c0.3,0,0.6,0.3,0.6,0.6v1.7c0,0.3-0.3,0.6-0.6,0.6h-8.2v6.6h9.7c0.3,0,0.6,0.3,0.6,0.6v1.7c0,0.3-0.2,0.6-0.6,0.6h-12.3
					c-0.3,0-0.6-0.3-0.6-0.6V100.6z"/>
				<path class="st1" d="M739.9,100.6c0-0.3,0.2-0.6,0.6-0.6h7c3.8,0,6.9,3.1,6.9,6.8c0,3.8-3.1,6.9-6.8,6.9H743v7.2
					c0,0.3-0.3,0.6-0.6,0.6h-2c-0.3,0-0.6-0.3-0.6-0.6V100.6z M747.3,110.7c2.1,0,3.9-1.7,3.9-3.9c0-2.1-1.8-3.7-3.9-3.7H743v7.6
					H747.3z"/>
				<path class="st1" d="M767.6,99.8c6.1,0,11.1,4.9,11.1,11.1c0,6.1-4.9,11-11.1,11s-11-4.9-11-11
					C756.5,104.7,761.4,99.8,767.6,99.8z M767.6,118.8c4.4,0,8-3.6,8-8c0-4.4-3.6-8-8-8c-4.4,0-8,3.7-8,8
					C759.6,115.2,763.2,118.8,767.6,118.8z"/>
				<path class="st1" d="M783,100.6c0-0.3,0.2-0.6,0.6-0.6h8.3c3.7,0,6.7,2.9,6.7,6.6c0,2.8-1.9,5.2-4.5,6.2l4.2,7.8
					c0.2,0.4,0,0.9-0.5,0.9h-2.4c-0.2,0-0.4-0.2-0.5-0.3l-4.1-8.1h-4.6v7.8c0,0.3-0.3,0.6-0.6,0.6h-2c-0.3,0-0.6-0.3-0.6-0.6V100.6z
					 M791.7,110.5c2,0,3.7-1.7,3.7-3.8c0-2-1.7-3.7-3.7-3.7h-5.5v7.5H791.7z"/>
				<path class="st1" d="M806.4,102.9h-5c-0.3,0-0.6-0.3-0.6-0.6v-1.7c0-0.3,0.2-0.6,0.6-0.6h13.2c0.3,0,0.6,0.3,0.6,0.6v1.7
					c0,0.3-0.2,0.6-0.6,0.6h-5v18c0,0.3-0.3,0.6-0.6,0.6h-2c-0.3,0-0.6-0.3-0.6-0.6V102.9z"/>
				<path class="st1" d="M818.5,100.6c0-0.3,0.2-0.6,0.6-0.6h12.3c0.3,0,0.6,0.3,0.6,0.6v1.7c0,0.3-0.2,0.6-0.6,0.6h-9.7v6.3h8.2
					c0.3,0,0.6,0.3,0.6,0.6v1.7c0,0.3-0.3,0.6-0.6,0.6h-8.2v6.6h9.7c0.3,0,0.6,0.3,0.6,0.6v1.7c0,0.3-0.2,0.6-0.6,0.6H819
					c-0.3,0-0.6-0.3-0.6-0.6V100.6z"/>
			</g>
		</g>
	</g>
	<g>
		<rect x="633.3" y="18" class="st3" width="42.9" height="42.9"/>
		<g>
			<g>
				<path class="st1" d="M699,32.5c0-0.3,0.2-0.6,0.6-0.6h12.3c0.3,0,0.6,0.3,0.6,0.6v1.7c0,0.3-0.2,0.6-0.6,0.6h-9.7v6.3h8.2
					c0.3,0,0.6,0.3,0.6,0.6v1.7c0,0.3-0.3,0.6-0.6,0.6h-8.2v6.6h9.7c0.3,0,0.6,0.3,0.6,0.6v1.7c0,0.3-0.2,0.6-0.6,0.6h-12.3
					c-0.3,0-0.6-0.3-0.6-0.6V32.5z"/>
				<path class="st1" d="M717,32.5c0-0.3,0.2-0.6,0.6-0.6h7.1c5.9,0,10.8,4.8,10.8,10.7c0,6-4.8,10.8-10.8,10.8h-7.1
					c-0.3,0-0.6-0.3-0.6-0.6V32.5z M724.2,50.5c4.5,0,7.8-3.3,7.8-7.9c0-4.5-3.3-7.8-7.8-7.8h-4.1v15.7H724.2z"/>
				<path class="st1" d="M739.6,32.5c0-0.3,0.3-0.6,0.6-0.6h2.1c0.3,0,0.6,0.3,0.6,0.6v12.7c0,3.1,2,5.5,5.1,5.5
					c3.2,0,5.2-2.4,5.2-5.4V32.5c0-0.3,0.2-0.6,0.6-0.6h2.1c0.3,0,0.6,0.3,0.6,0.6v12.9c0,4.7-3.5,8.3-8.4,8.3
					c-4.8,0-8.3-3.7-8.3-8.3V32.5z"/>
				<path class="st1" d="M771.5,31.6c3.1,0,5.3,1,7.4,2.9c0.3,0.2,0.3,0.6,0,0.9l-1.4,1.4c-0.2,0.3-0.5,0.3-0.8,0
					c-1.4-1.3-3.4-2.1-5.3-2.1c-4.4,0-7.7,3.7-7.7,8c0,4.3,3.3,8,7.7,8c2.2,0,3.8-0.9,5.3-2c0.3-0.2,0.6-0.2,0.7,0l1.4,1.4
					c0.2,0.2,0.2,0.6,0,0.8c-2.1,2-4.7,3-7.5,3c-6.1,0-11.1-4.9-11.1-11C760.4,36.5,765.3,31.6,771.5,31.6z"/>
				<path class="st1" d="M780.4,52.6l9.4-20.7c0.1-0.2,0.4-0.3,0.5-0.3h0.3c0.2,0,0.4,0.2,0.5,0.3l9.4,20.7c0.2,0.4-0.1,0.8-0.5,0.8
					h-1.9c-0.4,0-0.6-0.2-0.7-0.5l-1.9-4.2h-10c-0.6,1.4-1.3,2.8-1.9,4.2c-0.1,0.2-0.3,0.5-0.7,0.5H781
					C780.5,53.4,780.3,53,780.4,52.6z M794.4,46.1l-3.8-8.4h-0.2l-3.7,8.4H794.4z"/>
				<path class="st1" d="M813,31.6c3.1,0,5.3,1,7.4,2.9c0.3,0.2,0.3,0.6,0,0.9l-1.4,1.4c-0.2,0.3-0.5,0.3-0.8,0
					c-1.4-1.3-3.4-2.1-5.3-2.1c-4.4,0-7.7,3.7-7.7,8c0,4.3,3.3,8,7.7,8c2.2,0,3.8-0.9,5.3-2c0.3-0.2,0.6-0.2,0.7,0l1.4,1.4
					c0.2,0.2,0.2,0.6,0,0.8c-2.1,2-4.7,3-7.5,3c-6.1,0-11.1-4.9-11.1-11C802,36.5,806.9,31.6,813,31.6z"/>
				<path class="st1" d="M824.9,32.5c0-0.3,0.3-0.6,0.6-0.6h2c0.3,0,0.6,0.3,0.6,0.6v20.3c0,0.3-0.3,0.6-0.6,0.6h-2
					c-0.3,0-0.6-0.3-0.6-0.6V32.5z"/>
				<path class="st1" d="M843.5,31.6c6.1,0,11.1,4.9,11.1,11.1c0,6.1-4.9,11-11.1,11s-11-4.9-11-11
					C832.5,36.5,837.4,31.6,843.5,31.6z M843.5,50.6c4.4,0,8-3.6,8-8c0-4.4-3.6-8-8-8c-4.4,0-8,3.7-8,8
					C835.6,47.1,839.1,50.6,843.5,50.6z M840.7,29.5l-0.4-0.9c-0.1-0.2,0-0.5,0.2-0.6l4.8-2.8c0.2-0.1,0.6-0.2,0.8,0.1l0.7,1.4
					c0.2,0.3,0.1,0.6-0.2,0.7l-5.2,2.2C841,29.8,840.8,29.8,840.7,29.5z"/>
				<path class="st1" d="M858.9,32.1c0-0.3,0.3-0.6,0.6-0.6h0.8L873.6,47h0V32.5c0-0.3,0.2-0.6,0.6-0.6h2c0.3,0,0.6,0.3,0.6,0.6
					v20.7c0,0.3-0.3,0.6-0.6,0.6h-0.8l-13.3-15.8h0v14.9c0,0.3-0.2,0.6-0.6,0.6h-1.9c-0.3,0-0.6-0.3-0.6-0.6V32.1z"/>
			</g>
		</g>
	</g>
	<g>
		<rect x="19.2" y="160.8" class="st4" width="42.9" height="42.9"/>
		<g>
			<g>
				<path class="st1" d="M85.1,189.9c0.3-0.4,0.5-0.9,0.8-1.3c0.3-0.4,0.7-0.5,1-0.2c0.2,0.2,2.5,2.1,4.9,2.1c2.1,0,3.5-1.3,3.5-2.9
					c0-1.8-1.6-3-4.6-4.3c-3.1-1.3-5.6-2.9-5.6-6.5c0-2.4,1.8-5.7,6.7-5.7c3.1,0,5.4,1.6,5.7,1.8c0.2,0.2,0.5,0.6,0.2,1
					c-0.2,0.4-0.5,0.8-0.8,1.2c-0.2,0.4-0.6,0.6-1.1,0.3c-0.2-0.1-2.4-1.5-4.1-1.5c-2.6,0-3.5,1.6-3.5,2.8c0,1.7,1.4,2.8,3.9,3.9
					c3.6,1.4,6.6,3.1,6.6,6.9c0,3.2-2.9,5.8-6.8,5.8c-3.7,0-6.1-2-6.6-2.4C85,190.6,84.8,190.4,85.1,189.9z"/>
				<path class="st1" d="M100.1,192.2l9.4-20.7c0.1-0.2,0.4-0.3,0.5-0.3h0.3c0.2,0,0.4,0.2,0.5,0.3l9.4,20.7
					c0.2,0.4-0.1,0.8-0.5,0.8h-1.9c-0.4,0-0.6-0.2-0.7-0.5l-1.9-4.2h-10c-0.6,1.4-1.3,2.8-1.9,4.2c-0.1,0.2-0.3,0.5-0.7,0.5h-1.9
					C100.1,193,99.9,192.6,100.1,192.2z M114,185.7l-3.8-8.4h-0.2l-3.7,8.4H114z"/>
				<path class="st1" d="M123.3,172.1c0-0.3,0.2-0.6,0.6-0.6h2c0.3,0,0.6,0.3,0.6,0.6v18h8.3c0.3,0,0.6,0.3,0.6,0.6v1.7
					c0,0.3-0.2,0.6-0.6,0.6h-10.9c-0.3,0-0.6-0.3-0.6-0.6V172.1z"/>
				<path class="st1" d="M137.9,172.1c0-0.3,0.3-0.6,0.6-0.6h2.1c0.3,0,0.6,0.3,0.6,0.6v12.7c0,3.1,2,5.5,5.1,5.5
					c3.2,0,5.2-2.4,5.2-5.4v-12.7c0-0.3,0.2-0.6,0.6-0.6h2.1c0.3,0,0.6,0.3,0.6,0.6V185c0,4.7-3.5,8.3-8.4,8.3
					c-4.8,0-8.3-3.7-8.3-8.3V172.1z"/>
				<path class="st1" d="M160.3,172.1c0-0.3,0.2-0.6,0.6-0.6h7.1c5.9,0,10.8,4.8,10.8,10.7c0,6-4.8,10.8-10.8,10.8h-7.1
					c-0.3,0-0.6-0.3-0.6-0.6V172.1z M167.5,190.1c4.5,0,7.8-3.3,7.8-7.9c0-4.5-3.3-7.8-7.8-7.8h-4.1v15.7H167.5z"/>
			</g>
		</g>
	</g>
	<g>
		<rect x="19.2" y="89.8" class="st5" width="42.9" height="42.9"/>
		<g>
			<g>
				<path class="st1" d="M85.1,118.8c0.3-0.4,0.5-0.9,0.8-1.3c0.3-0.4,0.7-0.5,1-0.2c0.2,0.2,2.5,2.1,4.9,2.1c2.1,0,3.5-1.3,3.5-2.9
					c0-1.8-1.6-3-4.6-4.3c-3.1-1.3-5.6-2.9-5.6-6.5c0-2.4,1.8-5.7,6.7-5.7c3.1,0,5.4,1.6,5.7,1.8c0.2,0.2,0.5,0.6,0.2,1
					c-0.2,0.4-0.5,0.8-0.8,1.2c-0.2,0.4-0.6,0.6-1.1,0.3c-0.2-0.1-2.4-1.5-4.1-1.5c-2.6,0-3.5,1.6-3.5,2.8c0,1.7,1.4,2.8,3.9,3.9
					c3.6,1.4,6.6,3.1,6.6,6.9c0,3.2-2.9,5.8-6.8,5.8c-3.7,0-6.1-2-6.6-2.4C85,119.6,84.8,119.4,85.1,118.8z"/>
				<path class="st1" d="M103,101c0-0.3,0.2-0.6,0.6-0.6h12.3c0.3,0,0.6,0.3,0.6,0.6v1.7c0,0.3-0.2,0.6-0.6,0.6h-9.7v6.3h8.2
					c0.3,0,0.6,0.3,0.6,0.6v1.7c0,0.3-0.3,0.6-0.6,0.6h-8.2v6.6h9.7c0.3,0,0.6,0.3,0.6,0.6v1.7c0,0.3-0.2,0.6-0.6,0.6h-12.3
					c-0.3,0-0.6-0.3-0.6-0.6V101z"/>
				<path class="st1" d="M130.4,100.1c2.9,0,5.4,1.1,7.5,2.9c0.2,0.2,0.3,0.6,0,0.9c-0.5,0.5-0.9,1-1.4,1.4c-0.2,0.3-0.5,0.2-0.8,0
					c-1.4-1.3-3.3-2.1-5.2-2.1c-4.4,0-7.7,3.7-7.7,8c0,4.3,3.3,8,7.7,8c2.5,0,4.3-0.9,4.6-1v-3.4h-3c-0.3,0-0.6-0.2-0.6-0.6v-1.8
					c0-0.3,0.2-0.6,0.6-0.6h5.6c0.3,0,0.6,0.3,0.6,0.6c0,2.5,0,5,0,7.4c0,0.2-0.1,0.4-0.2,0.5c0,0-3.2,2-7.6,2
					c-6.1,0-11.1-4.9-11.1-11C119.4,105.1,124.3,100.1,130.4,100.1z"/>
				<path class="st1" d="M142.8,101c0-0.3,0.3-0.6,0.6-0.6h2.1c0.3,0,0.6,0.3,0.6,0.6v12.7c0,3.1,2,5.5,5.1,5.5
					c3.2,0,5.2-2.4,5.2-5.4V101c0-0.3,0.2-0.6,0.6-0.6h2.1c0.3,0,0.6,0.3,0.6,0.6v12.9c0,4.7-3.5,8.3-8.4,8.3
					c-4.8,0-8.3-3.7-8.3-8.3V101z"/>
				<path class="st1" d="M165.2,101c0-0.3,0.2-0.6,0.6-0.6h8.3c3.7,0,6.7,2.9,6.7,6.6c0,2.8-1.9,5.2-4.5,6.2l4.2,7.8
					c0.2,0.4,0,0.9-0.5,0.9h-2.4c-0.2,0-0.4-0.2-0.5-0.3l-4.1-8.1h-4.6v7.8c0,0.3-0.3,0.6-0.6,0.6h-2c-0.3,0-0.6-0.3-0.6-0.6V101z
					 M173.9,110.9c2,0,3.7-1.7,3.7-3.8c0-2-1.7-3.7-3.7-3.7h-5.5v7.5H173.9z"/>
				<path class="st1" d="M185.6,101c0-0.3,0.3-0.6,0.6-0.6h2c0.3,0,0.6,0.3,0.6,0.6v20.3c0,0.3-0.3,0.6-0.6,0.6h-2
					c-0.3,0-0.6-0.3-0.6-0.6V101z"/>
				<path class="st1" d="M194.8,101c0-0.3,0.2-0.6,0.6-0.6h7.1c5.9,0,10.8,4.8,10.8,10.7c0,6-4.8,10.8-10.8,10.8h-7.1
					c-0.3,0-0.6-0.3-0.6-0.6V101z M202,119c4.5,0,7.8-3.3,7.8-7.9c0-4.5-3.3-7.8-7.8-7.8h-4.1V119H202z"/>
				<path class="st1" d="M214.6,121.1l9.4-20.7c0.1-0.2,0.4-0.3,0.5-0.3h0.3c0.2,0,0.4,0.2,0.5,0.3l9.4,20.7
					c0.2,0.4-0.1,0.8-0.5,0.8h-1.9c-0.4,0-0.6-0.2-0.7-0.5l-1.9-4.2h-10c-0.6,1.4-1.3,2.8-1.9,4.2c-0.1,0.2-0.3,0.5-0.7,0.5h-1.9
					C214.6,121.9,214.4,121.5,214.6,121.1z M228.5,114.6l-3.8-8.4h-0.2l-3.7,8.4H228.5z"/>
				<path class="st1" d="M237.8,101c0-0.3,0.2-0.6,0.6-0.6h7.1c5.9,0,10.8,4.8,10.8,10.7c0,6-4.8,10.8-10.8,10.8h-7.1
					c-0.3,0-0.6-0.3-0.6-0.6V101z M245,119c4.5,0,7.8-3.3,7.8-7.9c0-4.5-3.3-7.8-7.8-7.8h-4.1V119H245z"/>
			</g>
		</g>
	</g>
	<g>
		<rect x="19.2" y="18.7" class="st6" width="42.9" height="42.9"/>
		<g>
			<g>
				<path class="st1" d="M89.4,35.5h-5c-0.3,0-0.6-0.3-0.6-0.6v-1.7c0-0.3,0.2-0.6,0.6-0.6h13.2c0.3,0,0.6,0.3,0.6,0.6v1.7
					c0,0.3-0.2,0.6-0.6,0.6h-5v18c0,0.3-0.3,0.6-0.6,0.6h-2c-0.3,0-0.6-0.3-0.6-0.6V35.5z"/>
				<path class="st1" d="M101.5,33.2c0-0.3,0.2-0.6,0.6-0.6h8.3c3.7,0,6.7,2.9,6.7,6.6c0,2.8-1.9,5.2-4.5,6.2l4.2,7.8
					c0.2,0.4,0,0.9-0.5,0.9h-2.4c-0.2,0-0.4-0.2-0.5-0.3l-4.1-8.1h-4.6v7.8c0,0.3-0.3,0.6-0.6,0.6h-2c-0.3,0-0.6-0.3-0.6-0.6V33.2z
					 M110.2,43c2,0,3.7-1.7,3.7-3.8c0-2-1.7-3.7-3.7-3.7h-5.5V43H110.2z"/>
				<path class="st1" d="M119.1,53.3l9.4-20.7c0.1-0.2,0.4-0.3,0.5-0.3h0.3c0.2,0,0.4,0.2,0.5,0.3l9.4,20.7c0.2,0.4-0.1,0.8-0.5,0.8
					h-1.9c-0.4,0-0.6-0.2-0.7-0.5l-1.9-4.2h-10c-0.6,1.4-1.3,2.8-1.9,4.2c-0.1,0.2-0.3,0.5-0.7,0.5h-1.9
					C119.1,54.1,118.9,53.7,119.1,53.3z M133,46.8l-3.8-8.4H129l-3.7,8.4H133z M126.3,30.2l-0.4-0.9c-0.1-0.2,0-0.5,0.2-0.6l4.8-2.8
					c0.2-0.1,0.6-0.2,0.8,0.1l0.7,1.4c0.2,0.3,0.1,0.6-0.2,0.7l-5.2,2.2C126.6,30.5,126.4,30.5,126.3,30.2z"/>
				<path class="st1" d="M142.3,32.9c0-0.3,0.3-0.6,0.6-0.6h0.8l13.3,15.4h0V33.2c0-0.3,0.2-0.6,0.6-0.6h2c0.3,0,0.6,0.3,0.6,0.6
					v20.7c0,0.3-0.3,0.6-0.6,0.6h-0.8l-13.3-15.8h0v14.9c0,0.3-0.2,0.6-0.6,0.6h-1.9c-0.3,0-0.6-0.3-0.6-0.6V32.9z"/>
				<path class="st1" d="M164.7,51c0.3-0.4,0.5-0.9,0.8-1.3c0.3-0.4,0.7-0.5,1-0.2c0.2,0.2,2.5,2.1,4.9,2.1c2.1,0,3.5-1.3,3.5-2.9
					c0-1.8-1.6-3-4.6-4.3c-3.1-1.3-5.6-2.9-5.6-6.5c0-2.4,1.8-5.7,6.7-5.7c3.1,0,5.4,1.6,5.7,1.8c0.2,0.2,0.5,0.6,0.2,1
					c-0.2,0.4-0.5,0.8-0.8,1.2c-0.2,0.4-0.6,0.6-1.1,0.3c-0.2-0.1-2.4-1.5-4.1-1.5c-2.6,0-3.5,1.6-3.5,2.8c0,1.7,1.4,2.8,3.9,3.9
					c3.6,1.4,6.6,3.1,6.6,6.9c0,3.2-2.9,5.8-6.8,5.8c-3.7,0-6.1-2-6.6-2.4C164.6,51.7,164.4,51.5,164.7,51z"/>
				<path class="st1" d="M182.5,33.2c0-0.3,0.3-0.6,0.6-0.6h2c0.3,0,0.6,0.3,0.6,0.6v20.3c0,0.3-0.3,0.6-0.6,0.6h-2
					c-0.3,0-0.6-0.3-0.6-0.6V33.2z"/>
				<path class="st1" d="M194.6,35.5h-5c-0.3,0-0.6-0.3-0.6-0.6v-1.7c0-0.3,0.2-0.6,0.6-0.6h13.2c0.3,0,0.6,0.3,0.6,0.6v1.7
					c0,0.3-0.2,0.6-0.6,0.6h-5v18c0,0.3-0.3,0.6-0.6,0.6h-2c-0.3,0-0.6-0.3-0.6-0.6V35.5z"/>
				<path class="st1" d="M215.9,32.3c6.1,0,11.1,4.9,11.1,11.1c0,6.1-4.9,11-11.1,11c-6.1,0-11-4.9-11-11
					C204.9,37.2,209.7,32.3,215.9,32.3z M215.9,51.3c4.4,0,8-3.6,8-8c0-4.4-3.6-8-8-8c-4.4,0-8,3.7-8,8
					C207.9,47.8,211.5,51.3,215.9,51.3z"/>
			</g>
		</g>
	</g>
	<g>
		<rect x="314.6" y="161.2" class="st1" width="42.9" height="42.9"/>
		<g>
			<g>
				<path class="st1" d="M380.5,172.4c0-0.3,0.2-0.6,0.6-0.6h12.3c0.3,0,0.6,0.3,0.6,0.6v1.7c0,0.3-0.2,0.6-0.6,0.6h-9.7v7.1h8.2
					c0.3,0,0.6,0.3,0.6,0.6v1.7c0,0.3-0.3,0.6-0.6,0.6h-8.2v8.1c0,0.3-0.3,0.6-0.6,0.6h-2c-0.3,0-0.6-0.3-0.6-0.6V172.4z"/>
				<path class="st1" d="M397.9,172.4c0-0.3,0.3-0.6,0.6-0.6h2c0.3,0,0.6,0.3,0.6,0.6v20.3c0,0.3-0.3,0.6-0.6,0.6h-2
					c-0.3,0-0.6-0.3-0.6-0.6V172.4z"/>
				<path class="st1" d="M405.7,190.2c0.3-0.4,0.5-0.9,0.8-1.3c0.3-0.4,0.7-0.5,1-0.2c0.2,0.2,2.5,2.1,4.9,2.1
					c2.1,0,3.5-1.3,3.5-2.9c0-1.8-1.6-3-4.6-4.3c-3.1-1.3-5.6-2.9-5.6-6.5c0-2.4,1.8-5.7,6.7-5.7c3.1,0,5.4,1.6,5.7,1.8
					c0.2,0.2,0.5,0.6,0.2,1c-0.2,0.4-0.5,0.8-0.8,1.2c-0.2,0.4-0.6,0.6-1.1,0.3c-0.2-0.1-2.4-1.5-4.1-1.5c-2.6,0-3.5,1.6-3.5,2.8
					c0,1.7,1.4,2.8,3.9,3.9c3.6,1.4,6.6,3.1,6.6,6.9c0,3.2-2.9,5.8-6.8,5.8c-3.7,0-6.1-2-6.6-2.4C405.6,191,405.4,190.7,405.7,190.2
					z"/>
				<path class="st1" d="M433.1,171.5c3.1,0,5.3,1,7.4,2.9c0.3,0.2,0.3,0.6,0,0.9l-1.4,1.4c-0.2,0.3-0.5,0.3-0.8,0
					c-1.4-1.3-3.4-2.1-5.3-2.1c-4.4,0-7.7,3.7-7.7,8c0,4.3,3.3,8,7.7,8c2.2,0,3.8-0.9,5.3-2c0.3-0.2,0.6-0.2,0.7,0l1.4,1.4
					c0.2,0.2,0.2,0.6,0,0.8c-2.1,2-4.7,3-7.5,3c-6.1,0-11.1-4.9-11.1-11C422,176.5,426.9,171.5,433.1,171.5z"/>
				<path class="st1" d="M442,192.5l9.4-20.7c0.1-0.2,0.4-0.3,0.5-0.3h0.3c0.2,0,0.4,0.2,0.5,0.3l9.4,20.7c0.2,0.4-0.1,0.8-0.5,0.8
					h-1.9c-0.4,0-0.6-0.2-0.7-0.5l-1.9-4.2h-10c-0.6,1.4-1.3,2.8-1.9,4.2c-0.1,0.2-0.3,0.5-0.7,0.5h-1.9
					C442.1,193.3,441.8,192.9,442,192.5z M455.9,186l-3.8-8.4H452l-3.7,8.4H455.9z"/>
				<path class="st1" d="M465.2,172.4c0-0.3,0.2-0.6,0.6-0.6h2c0.3,0,0.6,0.3,0.6,0.6v18h8.3c0.3,0,0.6,0.3,0.6,0.6v1.7
					c0,0.3-0.2,0.6-0.6,0.6h-10.9c-0.3,0-0.6-0.3-0.6-0.6V172.4z"/>
				<path class="st1" d="M480.6,172.4c0-0.3,0.3-0.6,0.6-0.6h2c0.3,0,0.6,0.3,0.6,0.6v20.3c0,0.3-0.3,0.6-0.6,0.6h-2
					c-0.3,0-0.6-0.3-0.6-0.6V172.4z"/>
				<path class="st1" d="M487.6,192.2l10.1-17.3v-0.1H489c-0.3,0-0.6-0.3-0.6-0.6v-1.8c0-0.3,0.3-0.6,0.6-0.6h12.6
					c0.3,0,0.6,0.3,0.6,0.6v0.4l-10.2,17.6v0h9c0.3,0,0.6,0.3,0.6,0.6v1.7c0,0.3-0.2,0.6-0.6,0.6h-12.9c-0.3,0-0.6-0.3-0.6-0.6
					V192.2z"/>
				<path class="st1" d="M503.2,192.5l9.4-20.7c0.1-0.2,0.4-0.3,0.5-0.3h0.3c0.2,0,0.4,0.2,0.5,0.3l9.4,20.7
					c0.2,0.4-0.1,0.8-0.5,0.8h-1.9c-0.4,0-0.6-0.2-0.7-0.5l-1.9-4.2h-10c-0.6,1.4-1.3,2.8-1.9,4.2c-0.1,0.2-0.3,0.5-0.7,0.5h-1.9
					C503.3,193.3,503.1,192.9,503.2,192.5z M517.2,186l-3.8-8.4h-0.2l-3.7,8.4H517.2z"/>
				<path class="st1" d="M535.8,171.5c3.1,0,5.3,1,7.4,2.9c0.3,0.2,0.3,0.6,0,0.9l-1.4,1.4c-0.2,0.3-0.5,0.3-0.8,0
					c-1.4-1.3-3.4-2.1-5.3-2.1c-4.4,0-7.7,3.7-7.7,8c0,4.3,3.3,8,7.7,8c2.2,0,3.8-0.9,5.3-2c0.3-0.2,0.6-0.2,0.7,0l1.4,1.4
					c0.2,0.2,0.2,0.6,0,0.8c-2.1,2-4.7,3-7.5,3c-6.1,0-11.1-4.9-11.1-11C524.8,176.5,529.7,171.5,535.8,171.5z"/>
				<path class="st1" d="M547.7,172.4c0-0.3,0.3-0.6,0.6-0.6h2c0.3,0,0.6,0.3,0.6,0.6v20.3c0,0.3-0.3,0.6-0.6,0.6h-2
					c-0.3,0-0.6-0.3-0.6-0.6V172.4z"/>
				<path class="st1" d="M566.3,171.5c6.1,0,11.1,4.9,11.1,11.1c0,6.1-4.9,11-11.1,11s-11-4.9-11-11
					C555.3,176.5,560.2,171.5,566.3,171.5z M566.3,190.6c4.4,0,8-3.6,8-8c0-4.4-3.6-8-8-8c-4.4,0-8,3.7-8,8
					C558.4,187,561.9,190.6,566.3,190.6z"/>
				<path class="st1" d="M581.7,172.1c0-0.3,0.3-0.6,0.6-0.6h0.8l13.3,15.4h0v-14.5c0-0.3,0.2-0.6,0.6-0.6h2c0.3,0,0.6,0.3,0.6,0.6
					v20.7c0,0.3-0.3,0.6-0.6,0.6h-0.8l-13.3-15.8h0v14.9c0,0.3-0.2,0.6-0.6,0.6h-1.9c-0.3,0-0.6-0.3-0.6-0.6V172.1z"/>
			</g>
		</g>
	</g>
	<g>
		<rect x="314.6" y="89.8" class="st7" width="42.9" height="42.9"/>
		<g>
			<g>
				<path class="st1" d="M390,100.1c2.9,0,5.4,1.1,7.5,2.9c0.2,0.2,0.3,0.6,0,0.9c-0.5,0.5-0.9,1-1.4,1.4c-0.2,0.3-0.5,0.2-0.8,0
					c-1.4-1.3-3.3-2.1-5.2-2.1c-4.4,0-7.7,3.7-7.7,8c0,4.3,3.3,8,7.7,8c2.5,0,4.3-0.9,4.6-1v-3.4h-3c-0.3,0-0.6-0.2-0.6-0.6v-1.8
					c0-0.3,0.2-0.6,0.6-0.6h5.6c0.3,0,0.6,0.3,0.6,0.6c0,2.5,0,5,0,7.4c0,0.2-0.1,0.4-0.2,0.5c0,0-3.2,2-7.6,2
					c-6.1,0-11.1-4.9-11.1-11C379,105.1,383.9,100.1,390,100.1z"/>
				<path class="st1" d="M412.2,100.1c6.1,0,11.1,4.9,11.1,11.1c0,6.1-4.9,11-11.1,11s-11-4.9-11-11
					C401.1,105.1,406,100.1,412.2,100.1z M412.2,119.2c4.4,0,8-3.6,8-8c0-4.4-3.6-8-8-8c-4.4,0-8,3.7-8,8
					C404.2,115.6,407.8,119.2,412.2,119.2z"/>
				<path class="st1" d="M427.6,101c0-0.3,0.2-0.6,0.6-0.6h6.9c3.7,0,6.4,2.5,6.4,5.7c0,2.4-1.7,4.1-3.2,4.9c1.6,0.7,3.8,2.2,3.8,5
					c0,3.4-2.8,5.9-6.7,5.9h-7.2c-0.3,0-0.6-0.3-0.6-0.6V101z M435.4,119.1c1.9,0,3.3-1.4,3.3-3.3c0-1.9-1.8-3.2-3.8-3.2h-4.2v6.6
					H435.4z M434.9,109.8c2,0,3.2-1.4,3.2-3.3c0-1.9-1.2-3.2-3.2-3.2h-4.1v6.4H434.9z"/>
				<path class="st1" d="M446.7,101c0-0.3,0.3-0.6,0.6-0.6h2c0.3,0,0.6,0.3,0.6,0.6v20.3c0,0.3-0.3,0.6-0.6,0.6h-2
					c-0.3,0-0.6-0.3-0.6-0.6V101z"/>
				<path class="st1" d="M455.8,101c0-0.3,0.2-0.6,0.6-0.6h12.3c0.3,0,0.6,0.3,0.6,0.6v1.7c0,0.3-0.2,0.6-0.6,0.6H459v6.3h8.2
					c0.3,0,0.6,0.3,0.6,0.6v1.7c0,0.3-0.3,0.6-0.6,0.6H459v6.6h9.7c0.3,0,0.6,0.3,0.6,0.6v1.7c0,0.3-0.2,0.6-0.6,0.6h-12.3
					c-0.3,0-0.6-0.3-0.6-0.6V101z"/>
				<path class="st1" d="M473.9,101c0-0.3,0.2-0.6,0.6-0.6h8.3c3.7,0,6.7,2.9,6.7,6.6c0,2.8-1.9,5.2-4.5,6.2l4.2,7.8
					c0.2,0.4,0,0.9-0.5,0.9h-2.4c-0.2,0-0.4-0.2-0.5-0.3l-4.1-8.1h-4.6v7.8c0,0.3-0.3,0.6-0.6,0.6h-2c-0.3,0-0.6-0.3-0.6-0.6V101z
					 M482.6,110.9c2,0,3.7-1.7,3.7-3.8c0-2-1.7-3.7-3.7-3.7h-5.5v7.5H482.6z"/>
				<path class="st1" d="M494.3,100.7c0-0.3,0.3-0.6,0.6-0.6h0.8l13.3,15.4h0V101c0-0.3,0.2-0.6,0.6-0.6h2c0.3,0,0.6,0.3,0.6,0.6
					v20.7c0,0.3-0.3,0.6-0.6,0.6h-0.8l-13.3-15.8h0v14.9c0,0.3-0.2,0.6-0.6,0.6h-1.9c-0.3,0-0.6-0.3-0.6-0.6V100.7z"/>
				<path class="st1" d="M527.6,100.1c6.1,0,11.1,4.9,11.1,11.1c0,6.1-4.9,11-11.1,11s-11-4.9-11-11
					C516.6,105.1,521.5,100.1,527.6,100.1z M527.6,119.2c4.4,0,8-3.6,8-8c0-4.4-3.6-8-8-8c-4.4,0-8,3.7-8,8
					C519.6,115.6,523.2,119.2,527.6,119.2z"/>
			</g>
		</g>
	</g>
	<g>
		<rect x="314.6" y="18.4" class="st8" width="42.9" height="42.9"/>
		<g>
			<g>
				<path class="st1" d="M380.5,29.6c0-0.3,0.2-0.6,0.6-0.6h7c3.8,0,6.9,3.1,6.9,6.8c0,3.8-3.1,6.9-6.8,6.9h-4.5V50
					c0,0.3-0.3,0.6-0.6,0.6h-2c-0.3,0-0.6-0.3-0.6-0.6V29.6z M387.9,39.7c2.1,0,3.9-1.7,3.9-3.9c0-2.1-1.8-3.7-3.9-3.7h-4.2v7.6
					H387.9z"/>
				<path class="st1" d="M398.8,29.6c0-0.3,0.2-0.6,0.6-0.6h2c0.3,0,0.6,0.3,0.6,0.6v18h8.3c0.3,0,0.6,0.3,0.6,0.6V50
					c0,0.3-0.2,0.6-0.6,0.6h-10.9c-0.3,0-0.6-0.3-0.6-0.6V29.6z"/>
				<path class="st1" d="M412.2,49.7l9.4-20.7c0.1-0.2,0.4-0.3,0.5-0.3h0.3c0.2,0,0.4,0.2,0.5,0.3l9.4,20.7c0.2,0.4-0.1,0.8-0.5,0.8
					h-1.9c-0.4,0-0.6-0.2-0.7-0.5l-1.9-4.2h-10c-0.6,1.4-1.3,2.8-1.9,4.2c-0.1,0.2-0.3,0.5-0.7,0.5h-1.9
					C412.2,50.5,412,50.1,412.2,49.7z M426.1,43.2l-3.8-8.4h-0.2l-3.7,8.4H426.1z"/>
				<path class="st1" d="M435.4,29.3c0-0.3,0.3-0.6,0.6-0.6h0.8L450,44.2h0V29.6c0-0.3,0.2-0.6,0.6-0.6h2c0.3,0,0.6,0.3,0.6,0.6
					v20.7c0,0.3-0.3,0.6-0.6,0.6h-0.8L438.5,35h0V50c0,0.3-0.2,0.6-0.6,0.6h-1.9c-0.3,0-0.6-0.3-0.6-0.6V29.3z"/>
				<path class="st1" d="M459.2,29.6c0-0.3,0.2-0.6,0.6-0.6H472c0.3,0,0.6,0.3,0.6,0.6v1.7c0,0.3-0.2,0.6-0.6,0.6h-9.7v6.3h8.2
					c0.3,0,0.6,0.3,0.6,0.6v1.7c0,0.3-0.3,0.6-0.6,0.6h-8.2v6.6h9.7c0.3,0,0.6,0.3,0.6,0.6V50c0,0.3-0.2,0.6-0.6,0.6h-12.3
					c-0.3,0-0.6-0.3-0.6-0.6V29.6z"/>
				<path class="st1" d="M474.4,49.7l9.4-20.7c0.1-0.2,0.4-0.3,0.5-0.3h0.3c0.2,0,0.4,0.2,0.5,0.3l9.4,20.7c0.2,0.4-0.1,0.8-0.5,0.8
					H492c-0.4,0-0.6-0.2-0.7-0.5l-1.9-4.2h-10c-0.6,1.4-1.3,2.8-1.9,4.2c-0.1,0.2-0.3,0.5-0.7,0.5h-1.9
					C474.4,50.5,474.2,50.1,474.4,49.7z M488.3,43.2l-3.8-8.4h-0.2l-3.7,8.4H488.3z"/>
				<path class="st1" d="M499.9,29.2c0.1-0.2,0.3-0.5,0.6-0.5h0.5c0.2,0,0.5,0.2,0.5,0.3l6.4,15.7h0.1l6.4-15.7
					c0.1-0.2,0.3-0.3,0.5-0.3h0.5c0.2,0,0.5,0.2,0.6,0.5l3.8,20.6c0.1,0.4-0.1,0.7-0.6,0.7h-2c-0.3,0-0.5-0.2-0.6-0.4l-2.3-13.7
					c0,0-0.1,0-0.1,0l-5.5,14.1c-0.1,0.2-0.2,0.3-0.5,0.3h-0.6c-0.2,0-0.5-0.2-0.5-0.3l-5.6-14.1c0,0-0.1,0-0.1,0l-2.2,13.7
					c0,0.2-0.3,0.4-0.6,0.4h-2c-0.4,0-0.6-0.3-0.6-0.7L499.9,29.2z"/>
				<path class="st1" d="M524.2,29.6c0-0.3,0.3-0.6,0.6-0.6h2c0.3,0,0.6,0.3,0.6,0.6V50c0,0.3-0.3,0.6-0.6,0.6h-2
					c-0.3,0-0.6-0.3-0.6-0.6V29.6z"/>
				<path class="st1" d="M533.4,29.6c0-0.3,0.2-0.6,0.6-0.6h12.3c0.3,0,0.6,0.3,0.6,0.6v1.7c0,0.3-0.2,0.6-0.6,0.6h-9.7v6.3h8.2
					c0.3,0,0.6,0.3,0.6,0.6v1.7c0,0.3-0.3,0.6-0.6,0.6h-8.2v6.6h9.7c0.3,0,0.6,0.3,0.6,0.6V50c0,0.3-0.2,0.6-0.6,0.6H534
					c-0.3,0-0.6-0.3-0.6-0.6V29.6z"/>
				<path class="st1" d="M551.5,29.3c0-0.3,0.3-0.6,0.6-0.6h0.8l13.3,15.4h0V29.6c0-0.3,0.2-0.6,0.6-0.6h2c0.3,0,0.6,0.3,0.6,0.6
					v20.7c0,0.3-0.3,0.6-0.6,0.6h-0.8L554.6,35h0V50c0,0.3-0.2,0.6-0.6,0.6h-1.9c-0.3,0-0.6-0.3-0.6-0.6V29.3z"/>
				<path class="st1" d="M578.2,31.9h-5c-0.3,0-0.6-0.3-0.6-0.6v-1.7c0-0.3,0.2-0.6,0.6-0.6h13.2c0.3,0,0.6,0.3,0.6,0.6v1.7
					c0,0.3-0.2,0.6-0.6,0.6h-5v18c0,0.3-0.3,0.6-0.6,0.6h-2c-0.3,0-0.6-0.3-0.6-0.6V31.9z"/>
				<path class="st1" d="M599.5,28.8c6.1,0,11.1,4.9,11.1,11.1c0,6.1-4.9,11-11.1,11s-11-4.9-11-11
					C588.4,33.7,593.3,28.8,599.5,28.8z M599.5,47.8c4.4,0,8-3.6,8-8c0-4.4-3.6-8-8-8c-4.4,0-8,3.7-8,8
					C591.5,44.2,595.1,47.8,599.5,47.8z"/>
			</g>
		</g>
	</g>
</g>
</svg>
