<?xml version="1.0" encoding="utf-8"?>
<!-- Generator: Adobe Illustrator 21.1.0, SVG Export Plug-In . SVG Version: 6.00 Build 0)  -->
<svg version="1.1" id="Layer_1" xmlns="http://www.w3.org/2000/svg" xmlns:xlink="http://www.w3.org/1999/xlink" x="0px" y="0px"
	 viewBox="0 0 1000 254" style="enable-background:new 0 0 1000 254;" xml:space="preserve">
<style type="text/css">
	.st0{fill:#0098C3;}
	.st1{fill:#4A4A49;}
	.st2{fill:#8C1D80;}
	.st3{fill:#93C01F;}
</style>
<g>
	<g>
		<rect x="112" y="184.5" class="st0" width="40.7" height="40.7"/>
		<g>
			<g>
				<path class="st1" d="M173.5,193.3h-7.4c-0.5,0-0.9-0.4-0.9-0.9v-2.5c0-0.5,0.4-0.9,0.9-0.9h19.4c0.5,0,0.9,0.4,0.9,0.9v2.5
					c0,0.5-0.4,0.9-0.9,0.9h-7.4v26.6c0,0.5-0.4,0.9-0.9,0.9h-3c-0.5,0-0.9-0.4-0.9-0.9V193.3z"/>
				<path class="st1" d="M204.8,188.6c9,0,16.3,7.3,16.3,16.3c0,9-7.2,16.2-16.3,16.2c-9,0-16.2-7.2-16.2-16.2
					C188.6,195.8,195.8,188.6,204.8,188.6z M204.8,216.6c6.5,0,11.8-5.2,11.8-11.7c0-6.4-5.3-11.8-11.8-11.8
					c-6.4,0-11.7,5.4-11.7,11.8C193.1,211.3,198.4,216.6,204.8,216.6z"/>
				<path class="st1" d="M231.5,193.3h-7.4c-0.5,0-0.9-0.4-0.9-0.9v-2.5c0-0.5,0.4-0.9,0.9-0.9h19.4c0.5,0,0.9,0.4,0.9,0.9v2.5
					c0,0.5-0.4,0.9-0.9,0.9h-7.4v26.6c0,0.5-0.4,0.9-0.9,0.9h-3c-0.5,0-0.9-0.4-0.9-0.9V193.3z"/>
				<path class="st1" d="M243.3,219.5l13.9-30.4c0.1-0.3,0.5-0.5,0.8-0.5h0.5c0.2,0,0.6,0.2,0.8,0.5l13.8,30.4
					c0.3,0.6-0.1,1.2-0.8,1.2h-2.8c-0.5,0-0.9-0.3-1-0.7l-2.8-6.2h-14.8c-0.9,2.1-1.9,4.1-2.8,6.2c-0.1,0.3-0.5,0.7-1,0.7h-2.9
					C243.4,220.7,243,220.1,243.3,219.5z M263.8,209.9l-5.6-12.4H258l-5.5,12.4H263.8z"/>
				<path class="st1" d="M277.5,189.9c0-0.5,0.4-0.9,0.9-0.9h3c0.5,0,0.9,0.4,0.9,0.9v26.6h12.3c0.5,0,0.9,0.4,0.9,0.9v2.5
					c0,0.5-0.4,0.9-0.9,0.9h-16.1c-0.5,0-0.9-0.4-0.9-0.9V189.9z"/>
				<path class="st1" d="M310,189.9c0-0.5,0.4-0.9,0.9-0.9h10.3c5.6,0,10.1,4.5,10.1,10c0,5.6-4.6,10.2-10.1,10.2h-6.6v10.6
					c0,0.5-0.4,0.9-0.9,0.9h-2.9c-0.5,0-0.9-0.4-0.9-0.9V189.9z M320.9,204.7c3.1,0,5.7-2.5,5.7-5.8c0-3.1-2.6-5.4-5.7-5.4h-6.2
					v11.2H320.9z"/>
				<path class="st1" d="M336.9,189.9c0-0.5,0.4-0.9,0.9-0.9H350c5.4,0,9.9,4.3,9.9,9.7c0,4.2-2.8,7.6-6.7,9.2l6.2,11.5
					c0.3,0.6,0,1.3-0.8,1.3h-3.5c-0.4,0-0.6-0.2-0.7-0.4l-6-12h-6.8v11.5c0,0.5-0.4,0.9-0.9,0.9h-2.9c-0.5,0-0.9-0.4-0.9-0.9V189.9z
					 M349.7,204.4c2.9,0,5.5-2.5,5.5-5.6c0-2.9-2.6-5.4-5.5-5.4h-8.1v11H349.7z"/>
				<path class="st1" d="M380.9,188.6c9,0,16.3,7.3,16.3,16.3c0,9-7.2,16.2-16.3,16.2s-16.2-7.2-16.2-16.2
					C364.7,195.8,371.9,188.6,380.9,188.6z M380.9,216.6c6.5,0,11.8-5.2,11.8-11.7c0-6.4-5.3-11.8-11.8-11.8
					c-6.4,0-11.7,5.4-11.7,11.8C369.2,211.3,374.5,216.6,380.9,216.6z"/>
				<path class="st1" d="M409.3,205.4l-10.6-15.1c-0.4-0.6,0-1.3,0.7-1.3h3.3c0.4,0,0.6,0.2,0.7,0.4l8.2,11.5l8.2-11.5
					c0.1-0.2,0.4-0.4,0.7-0.4h3.4c0.7,0,1.1,0.7,0.7,1.3L414,205.4v14.4c0,0.5-0.4,0.9-0.9,0.9h-3c-0.5,0-0.9-0.4-0.9-0.9V205.4z"/>
				<path class="st1" d="M429.1,189.9c0-0.5,0.4-0.9,0.9-0.9H448c0.5,0,0.9,0.4,0.9,0.9v2.5c0,0.5-0.4,0.9-0.9,0.9h-14.3v9.2h12.1
					c0.5,0,0.9,0.4,0.9,0.9v2.5c0,0.5-0.4,0.9-0.9,0.9h-12.1v9.7H448c0.5,0,0.9,0.4,0.9,0.9v2.5c0,0.5-0.4,0.9-0.9,0.9h-18.1
					c-0.5,0-0.9-0.4-0.9-0.9V189.9z"/>
				<path class="st1" d="M469.6,188.6c4.6,0,7.9,1.5,10.9,4.2c0.4,0.4,0.4,0.9,0,1.3l-2,2c-0.3,0.4-0.7,0.4-1.1,0
					c-2.1-1.9-5-3-7.8-3c-6.5,0-11.4,5.4-11.4,11.8c0,6.3,4.9,11.7,11.4,11.7c3.3,0,5.6-1.3,7.8-3c0.4-0.3,0.8-0.3,1.1,0l2.1,2
					c0.4,0.3,0.3,0.9,0,1.2c-3.1,3-7,4.4-11,4.4c-9,0-16.3-7.2-16.3-16.2C453.3,195.8,460.6,188.6,469.6,188.6z"/>
				<path class="st1" d="M491.4,193.3H484c-0.5,0-0.9-0.4-0.9-0.9v-2.5c0-0.5,0.4-0.9,0.9-0.9h19.4c0.5,0,0.9,0.4,0.9,0.9v2.5
					c0,0.5-0.4,0.9-0.9,0.9h-7.4v26.6c0,0.5-0.4,0.9-0.9,0.9h-3c-0.5,0-0.9-0.4-0.9-0.9V193.3z"/>
				<path class="st1" d="M522.7,188.6c9,0,16.3,7.3,16.3,16.3c0,9-7.2,16.2-16.3,16.2c-9,0-16.2-7.2-16.2-16.2
					C506.5,195.8,513.7,188.6,522.7,188.6z M522.7,216.6c6.5,0,11.8-5.2,11.8-11.7c0-6.4-5.3-11.8-11.8-11.8
					c-6.4,0-11.7,5.4-11.7,11.8C511,211.3,516.3,216.6,522.7,216.6z"/>
				<path class="st1" d="M543.4,216.1c0.4-0.6,0.8-1.3,1.2-1.9c0.4-0.6,1-0.8,1.5-0.4c0.3,0.2,3.8,3.1,7.2,3.1
					c3.1,0,5.1-1.9,5.1-4.2c0-2.7-2.4-4.4-6.8-6.3c-4.6-1.9-8.2-4.3-8.2-9.6c0-3.5,2.7-8.4,9.9-8.4c4.5,0,7.9,2.3,8.4,2.7
					c0.4,0.2,0.7,0.9,0.3,1.5c-0.4,0.5-0.8,1.2-1.1,1.7c-0.4,0.6-0.9,0.9-1.6,0.5c-0.3-0.2-3.5-2.3-6.1-2.3c-3.8,0-5.1,2.4-5.1,4.1
					c0,2.6,2,4.2,5.7,5.7c5.2,2.1,9.7,4.6,9.7,10.1c0,4.7-4.2,8.5-10.1,8.5c-5.5,0-9-2.9-9.7-3.6C543.3,217.2,543,216.9,543.4,216.1
					z"/>
				<path class="st1" d="M579.7,189.9c0-0.5,0.4-0.9,0.9-0.9h18.1c0.5,0,0.9,0.4,0.9,0.9v2.5c0,0.5-0.4,0.9-0.9,0.9h-14.3v9.2h12.1
					c0.5,0,0.9,0.4,0.9,0.9v2.5c0,0.5-0.4,0.9-0.9,0.9h-12.1v9.7h14.3c0.5,0,0.9,0.4,0.9,0.9v2.5c0,0.5-0.4,0.9-0.9,0.9h-18.1
					c-0.5,0-0.9-0.4-0.9-0.9V189.9z"/>
				<path class="st1" d="M601.6,216.7l1.6-1.8c0.6-0.5,1-0.4,1.4,0.1c0.7,0.8,1.9,1.9,3.7,1.9c2.2,0,4.6-1.7,4.6-5.7v-21.4
					c0-0.5,0.4-0.9,0.9-0.9h3c0.5,0,0.9,0.4,0.9,0.9v21.3c0,6.3-4,9.9-9.3,9.9c-3.9,0-6.1-2.3-6.9-3.3
					C601.3,217.5,601.3,217,601.6,216.7z"/>
				<path class="st1" d="M625.3,189.9c0-0.5,0.4-0.9,0.9-0.9h18.1c0.5,0,0.9,0.4,0.9,0.9v2.5c0,0.5-0.4,0.9-0.9,0.9h-14.3v9.2H642
					c0.5,0,0.9,0.4,0.9,0.9v2.5c0,0.5-0.4,0.9-0.9,0.9h-12.1v9.7h14.3c0.5,0,0.9,0.4,0.9,0.9v2.5c0,0.5-0.4,0.9-0.9,0.9h-18.1
					c-0.5,0-0.9-0.4-0.9-0.9V189.9z"/>
				<path class="st1" d="M665.8,188.6c4.6,0,7.9,1.5,10.9,4.2c0.4,0.4,0.4,0.9,0,1.3l-2,2c-0.3,0.4-0.7,0.4-1.1,0
					c-2.1-1.9-5-3-7.8-3c-6.5,0-11.4,5.4-11.4,11.8c0,6.3,4.9,11.7,11.4,11.7c3.3,0,5.6-1.3,7.8-3c0.4-0.3,0.8-0.3,1.1,0l2.1,2
					c0.4,0.3,0.3,0.9,0,1.2c-3.1,3-7,4.4-11,4.4c-9,0-16.3-7.2-16.3-16.2C649.5,195.8,656.8,188.6,665.8,188.6z"/>
				<path class="st1" d="M682.9,189.9c0-0.5,0.4-0.9,0.9-0.9h3c0.5,0,0.9,0.4,0.9,0.9v18.7c0,4.5,2.9,8.1,7.5,8.1
					c4.7,0,7.6-3.5,7.6-8v-18.8c0-0.5,0.4-0.9,0.9-0.9h3c0.5,0,0.9,0.4,0.9,0.9v19c0,6.9-5.2,12.3-12.3,12.3
					c-7.1,0-12.3-5.4-12.3-12.3V189.9z"/>
				<path class="st1" d="M720.2,193.3h-7.4c-0.5,0-0.9-0.4-0.9-0.9v-2.5c0-0.5,0.4-0.9,0.9-0.9h19.4c0.5,0,0.9,0.4,0.9,0.9v2.5
					c0,0.5-0.4,0.9-0.9,0.9h-7.4v26.6c0,0.5-0.4,0.9-0.9,0.9h-3c-0.5,0-0.9-0.4-0.9-0.9V193.3z"/>
				<path class="st1" d="M732,219.5l13.9-30.4c0.1-0.3,0.5-0.5,0.8-0.5h0.5c0.2,0,0.6,0.2,0.8,0.5l13.8,30.4
					c0.3,0.6-0.1,1.2-0.8,1.2h-2.8c-0.5,0-0.9-0.3-1-0.7l-2.8-6.2h-14.8c-0.9,2.1-1.9,4.1-2.8,6.2c-0.1,0.3-0.5,0.7-1,0.7h-2.9
					C732.1,220.7,731.8,220.1,732,219.5z M752.5,209.9l-5.6-12.4h-0.2l-5.5,12.4H752.5z"/>
				<path class="st1" d="M766.2,189.9c0-0.5,0.4-0.9,0.8-0.9h10.4c8.7,0,15.9,7.1,15.9,15.8c0,8.8-7.1,15.9-15.9,15.9H767
					c-0.5,0-0.8-0.4-0.8-0.9V189.9z M776.8,216.4c6.6,0,11.5-4.9,11.5-11.6c0-6.6-4.8-11.5-11.5-11.5h-6v23.1H776.8z"/>
				<path class="st1" d="M813.8,188.6c9,0,16.3,7.3,16.3,16.3c0,9-7.2,16.2-16.3,16.2s-16.2-7.2-16.2-16.2
					C797.5,195.8,804.7,188.6,813.8,188.6z M813.8,216.6c6.5,0,11.8-5.2,11.8-11.7c0-6.4-5.3-11.8-11.8-11.8
					c-6.4,0-11.7,5.4-11.7,11.8C802,211.3,807.3,216.6,813.8,216.6z"/>
				<path class="st1" d="M834.5,216.1c0.4-0.6,0.8-1.3,1.2-1.9c0.4-0.6,1-0.8,1.5-0.4c0.3,0.2,3.8,3.1,7.2,3.1
					c3.1,0,5.1-1.9,5.1-4.2c0-2.7-2.4-4.4-6.8-6.3c-4.6-1.9-8.2-4.3-8.2-9.6c0-3.5,2.7-8.4,9.9-8.4c4.5,0,7.9,2.3,8.4,2.7
					c0.4,0.2,0.7,0.9,0.3,1.5c-0.4,0.5-0.8,1.2-1.1,1.7c-0.4,0.6-0.9,0.9-1.6,0.5c-0.3-0.2-3.5-2.3-6.1-2.3c-3.8,0-5.1,2.4-5.1,4.1
					c0,2.6,2,4.2,5.7,5.7c5.2,2.1,9.7,4.6,9.7,10.1c0,4.7-4.2,8.5-10.1,8.5c-5.5,0-9-2.9-9.7-3.6C834.3,217.2,834,216.9,834.5,216.1
					z"/>
			</g>
		</g>
	</g>
	<g>
		<rect x="112" y="106.6" class="st2" width="40.7" height="40.7"/>
		<g>
			<g>
				<path class="st1" d="M173.5,115.4h-7.4c-0.5,0-0.9-0.4-0.9-0.9V112c0-0.5,0.4-0.9,0.9-0.9h19.4c0.5,0,0.9,0.4,0.9,0.9v2.5
					c0,0.5-0.4,0.9-0.9,0.9h-7.4V142c0,0.5-0.4,0.9-0.9,0.9h-3c-0.5,0-0.9-0.4-0.9-0.9V115.4z"/>
				<path class="st1" d="M204.8,110.7c9,0,16.3,7.3,16.3,16.3s-7.2,16.2-16.3,16.2c-9,0-16.2-7.2-16.2-16.2S195.8,110.7,204.8,110.7
					z M204.8,138.8c6.5,0,11.8-5.2,11.8-11.7c0-6.4-5.3-11.8-11.8-11.8c-6.4,0-11.7,5.4-11.7,11.8
					C193.1,133.5,198.4,138.8,204.8,138.8z"/>
				<path class="st1" d="M231.5,115.4h-7.4c-0.5,0-0.9-0.4-0.9-0.9V112c0-0.5,0.4-0.9,0.9-0.9h19.4c0.5,0,0.9,0.4,0.9,0.9v2.5
					c0,0.5-0.4,0.9-0.9,0.9h-7.4V142c0,0.5-0.4,0.9-0.9,0.9h-3c-0.5,0-0.9-0.4-0.9-0.9V115.4z"/>
				<path class="st1" d="M243.3,141.7l13.9-30.4c0.1-0.3,0.5-0.5,0.8-0.5h0.5c0.2,0,0.6,0.2,0.8,0.5l13.8,30.4
					c0.3,0.6-0.1,1.2-0.8,1.2h-2.8c-0.5,0-0.9-0.3-1-0.7l-2.8-6.2h-14.8c-0.9,2.1-1.9,4.1-2.8,6.2c-0.1,0.3-0.5,0.7-1,0.7h-2.9
					C243.4,142.8,243,142.2,243.3,141.7z M263.8,132.1l-5.6-12.4H258l-5.5,12.4H263.8z"/>
				<path class="st1" d="M277.5,112c0-0.5,0.4-0.9,0.9-0.9h3c0.5,0,0.9,0.4,0.9,0.9v26.6h12.3c0.5,0,0.9,0.4,0.9,0.9v2.5
					c0,0.5-0.4,0.9-0.9,0.9h-16.1c-0.5,0-0.9-0.4-0.9-0.9V112z"/>
				<path class="st1" d="M310,112c0-0.5,0.4-0.9,0.9-0.9h10.3c5.6,0,10.1,4.5,10.1,10c0,5.6-4.6,10.2-10.1,10.2h-6.6V142
					c0,0.5-0.4,0.9-0.9,0.9h-2.9c-0.5,0-0.9-0.4-0.9-0.9V112z M320.9,126.9c3.1,0,5.7-2.5,5.7-5.8c0-3.1-2.6-5.4-5.7-5.4h-6.2v11.2
					H320.9z"/>
				<path class="st1" d="M336.9,112c0-0.5,0.4-0.9,0.9-0.9H350c5.4,0,9.9,4.3,9.9,9.7c0,4.2-2.8,7.6-6.7,9.2l6.2,11.5
					c0.3,0.6,0,1.3-0.8,1.3h-3.5c-0.4,0-0.6-0.2-0.7-0.4l-6-12h-6.8V142c0,0.5-0.4,0.9-0.9,0.9h-2.9c-0.5,0-0.9-0.4-0.9-0.9V112z
					 M349.7,126.5c2.9,0,5.5-2.5,5.5-5.6c0-2.9-2.6-5.4-5.5-5.4h-8.1v11H349.7z"/>
				<path class="st1" d="M380.9,110.7c9,0,16.3,7.3,16.3,16.3s-7.2,16.2-16.3,16.2s-16.2-7.2-16.2-16.2S371.9,110.7,380.9,110.7z
					 M380.9,138.8c6.5,0,11.8-5.2,11.8-11.7c0-6.4-5.3-11.8-11.8-11.8c-6.4,0-11.7,5.4-11.7,11.8
					C369.2,133.5,374.5,138.8,380.9,138.8z"/>
				<path class="st1" d="M409.3,127.6l-10.6-15.1c-0.4-0.6,0-1.3,0.7-1.3h3.3c0.4,0,0.6,0.2,0.7,0.4l8.2,11.5l8.2-11.5
					c0.1-0.2,0.4-0.4,0.7-0.4h3.4c0.7,0,1.1,0.7,0.7,1.3L414,127.5V142c0,0.5-0.4,0.9-0.9,0.9h-3c-0.5,0-0.9-0.4-0.9-0.9V127.6z"/>
				<path class="st1" d="M429.1,112c0-0.5,0.4-0.9,0.9-0.9H448c0.5,0,0.9,0.4,0.9,0.9v2.5c0,0.5-0.4,0.9-0.9,0.9h-14.3v9.2h12.1
					c0.5,0,0.9,0.4,0.9,0.9v2.5c0,0.5-0.4,0.9-0.9,0.9h-12.1v9.7H448c0.5,0,0.9,0.4,0.9,0.9v2.5c0,0.5-0.4,0.9-0.9,0.9h-18.1
					c-0.5,0-0.9-0.4-0.9-0.9V112z"/>
				<path class="st1" d="M469.6,110.7c4.6,0,7.9,1.5,10.9,4.2c0.4,0.4,0.4,0.9,0,1.3l-2,2c-0.3,0.4-0.7,0.4-1.1,0
					c-2.1-1.9-5-3-7.8-3c-6.5,0-11.4,5.4-11.4,11.8c0,6.3,4.9,11.7,11.4,11.7c3.3,0,5.6-1.3,7.8-3c0.4-0.3,0.8-0.3,1.1,0l2.1,2
					c0.4,0.3,0.3,0.9,0,1.2c-3.1,3-7,4.4-11,4.4c-9,0-16.3-7.2-16.3-16.2S460.6,110.7,469.6,110.7z"/>
				<path class="st1" d="M491.4,115.4H484c-0.5,0-0.9-0.4-0.9-0.9V112c0-0.5,0.4-0.9,0.9-0.9h19.4c0.5,0,0.9,0.4,0.9,0.9v2.5
					c0,0.5-0.4,0.9-0.9,0.9h-7.4V142c0,0.5-0.4,0.9-0.9,0.9h-3c-0.5,0-0.9-0.4-0.9-0.9V115.4z"/>
				<path class="st1" d="M522.7,110.7c9,0,16.3,7.3,16.3,16.3s-7.2,16.2-16.3,16.2c-9,0-16.2-7.2-16.2-16.2S513.7,110.7,522.7,110.7
					z M522.7,138.8c6.5,0,11.8-5.2,11.8-11.7c0-6.4-5.3-11.8-11.8-11.8c-6.4,0-11.7,5.4-11.7,11.8
					C511,133.5,516.3,138.8,522.7,138.8z"/>
				<path class="st1" d="M543.4,138.3c0.4-0.6,0.8-1.3,1.2-1.9c0.4-0.6,1-0.8,1.5-0.4c0.3,0.2,3.8,3.1,7.2,3.1
					c3.1,0,5.1-1.9,5.1-4.2c0-2.7-2.4-4.4-6.8-6.3c-4.6-1.9-8.2-4.3-8.2-9.6c0-3.5,2.7-8.4,9.9-8.4c4.5,0,7.9,2.4,8.4,2.7
					c0.4,0.2,0.7,0.9,0.3,1.5c-0.4,0.5-0.8,1.2-1.1,1.7c-0.4,0.6-0.9,0.9-1.6,0.5c-0.3-0.2-3.5-2.3-6.1-2.3c-3.8,0-5.1,2.4-5.1,4.1
					c0,2.6,2,4.2,5.7,5.7c5.2,2.1,9.7,4.6,9.7,10.1c0,4.7-4.2,8.5-10.1,8.5c-5.5,0-9-2.9-9.7-3.6C543.3,139.3,543,139,543.4,138.3z"
					/>
				<path class="st1" d="M575.4,141.7l13.9-30.4c0.1-0.3,0.5-0.5,0.8-0.5h0.5c0.2,0,0.6,0.2,0.8,0.5l13.8,30.4
					c0.3,0.6-0.1,1.2-0.8,1.2h-2.8c-0.5,0-0.9-0.3-1-0.7l-2.8-6.2h-14.8c-0.9,2.1-1.9,4.1-2.8,6.2c-0.1,0.3-0.5,0.7-1,0.7h-2.9
					C575.5,142.8,575.2,142.2,575.4,141.7z M595.9,132.1l-5.6-12.4h-0.2l-5.5,12.4H595.9z"/>
				<path class="st1" d="M609.6,112c0-0.5,0.4-0.9,0.9-0.9h10.3c5.6,0,10.1,4.5,10.1,10c0,5.6-4.6,10.2-10.1,10.2h-6.6V142
					c0,0.5-0.4,0.9-0.9,0.9h-2.9c-0.5,0-0.9-0.4-0.9-0.9V112z M620.5,126.9c3.1,0,5.7-2.5,5.7-5.8c0-3.1-2.6-5.4-5.7-5.4h-6.2v11.2
					H620.5z"/>
				<path class="st1" d="M636.5,112c0-0.5,0.4-0.9,0.9-0.9h12.3c5.4,0,9.9,4.3,9.9,9.7c0,4.2-2.8,7.6-6.7,9.2l6.2,11.5
					c0.3,0.6,0,1.3-0.8,1.3h-3.5c-0.4,0-0.6-0.2-0.7-0.4l-6-12h-6.8V142c0,0.5-0.4,0.9-0.9,0.9h-2.9c-0.5,0-0.9-0.4-0.9-0.9V112z
					 M649.3,126.5c2.9,0,5.5-2.5,5.5-5.6c0-2.9-2.6-5.4-5.5-5.4h-8.1v11H649.3z"/>
				<path class="st1" d="M680.5,110.7c9,0,16.3,7.3,16.3,16.3s-7.2,16.2-16.3,16.2c-9,0-16.2-7.2-16.2-16.2S671.5,110.7,680.5,110.7
					z M680.5,138.8c6.5,0,11.8-5.2,11.8-11.7c0-6.4-5.3-11.8-11.8-11.8c-6.4,0-11.7,5.4-11.7,11.8
					C668.8,133.5,674.1,138.8,680.5,138.8z"/>
				<path class="st1" d="M703.3,112c0-0.5,0.4-0.9,0.9-0.9h10.1c5.5,0,9.4,3.6,9.4,8.4c0,3.5-2.6,6-4.7,7.2c2.4,1,5.7,3.2,5.7,7.4
					c0,5.1-4.2,8.7-9.9,8.7h-10.6c-0.5,0-0.9-0.4-0.9-0.9V112z M714.7,138.7c2.8,0,4.9-2.1,4.9-4.9c0-2.8-2.6-4.7-5.6-4.7h-6.2v9.7
					H714.7z M714,124.9c2.9,0,4.7-2.1,4.7-4.8c0-2.8-1.8-4.7-4.7-4.7h-6.1v9.5H714z"/>
				<path class="st1" d="M727.1,141.7l13.9-30.4c0.1-0.3,0.5-0.5,0.8-0.5h0.5c0.2,0,0.6,0.2,0.8,0.5l13.8,30.4
					c0.3,0.6-0.1,1.2-0.8,1.2h-2.8c-0.5,0-0.9-0.3-1-0.7l-2.8-6.2h-14.8c-0.9,2.1-1.9,4.1-2.8,6.2c-0.1,0.3-0.5,0.7-1,0.7h-2.9
					C727.2,142.8,726.9,142.2,727.1,141.7z M747.6,132.1l-5.6-12.4h-0.2l-5.5,12.4H747.6z"/>
				<path class="st1" d="M761.3,112c0-0.5,0.4-0.9,0.8-0.9h10.4c8.7,0,15.9,7.1,15.9,15.8c0,8.8-7.1,15.9-15.9,15.9h-10.4
					c-0.5,0-0.8-0.4-0.8-0.9V112z M771.9,138.5c6.6,0,11.5-4.9,11.5-11.6c0-6.6-4.8-11.5-11.5-11.5h-6v23.1H771.9z"/>
				<path class="st1" d="M808.9,110.7c9,0,16.3,7.3,16.3,16.3s-7.2,16.2-16.3,16.2s-16.2-7.2-16.2-16.2S799.8,110.7,808.9,110.7z
					 M808.9,138.8c6.5,0,11.8-5.2,11.8-11.7c0-6.4-5.3-11.8-11.8-11.8c-6.4,0-11.7,5.4-11.7,11.8
					C797.2,133.5,802.5,138.8,808.9,138.8z"/>
				<path class="st1" d="M829.6,138.3c0.4-0.6,0.8-1.3,1.2-1.9c0.4-0.6,1-0.8,1.5-0.4c0.3,0.2,3.8,3.1,7.2,3.1
					c3.1,0,5.1-1.9,5.1-4.2c0-2.7-2.4-4.4-6.8-6.3c-4.6-1.9-8.2-4.3-8.2-9.6c0-3.5,2.7-8.4,9.9-8.4c4.5,0,7.9,2.4,8.4,2.7
					c0.4,0.2,0.7,0.9,0.3,1.5c-0.4,0.5-0.8,1.2-1.1,1.7c-0.4,0.6-0.9,0.9-1.6,0.5c-0.3-0.2-3.5-2.3-6.1-2.3c-3.8,0-5.1,2.4-5.1,4.1
					c0,2.6,2,4.2,5.7,5.7c5.2,2.1,9.7,4.6,9.7,10.1c0,4.7-4.2,8.5-10.1,8.5c-5.5,0-9-2.9-9.7-3.6C829.5,139.3,829.1,139,829.6,138.3
					z"/>
			</g>
		</g>
	</g>
	<g>
		<rect x="112" y="28.8" class="st3" width="40.7" height="40.7"/>
		<g>
			<g>
				<path class="st1" d="M173.5,37.6h-7.4c-0.5,0-0.9-0.4-0.9-0.9v-2.5c0-0.5,0.4-0.9,0.9-0.9h19.4c0.5,0,0.9,0.4,0.9,0.9v2.5
					c0,0.5-0.4,0.9-0.9,0.9h-7.4v26.6c0,0.5-0.4,0.9-0.9,0.9h-3c-0.5,0-0.9-0.4-0.9-0.9V37.6z"/>
				<path class="st1" d="M204.8,32.9c9,0,16.3,7.3,16.3,16.3s-7.2,16.2-16.3,16.2c-9,0-16.2-7.2-16.2-16.2S195.8,32.9,204.8,32.9z
					 M204.8,60.9c6.5,0,11.8-5.2,11.8-11.7c0-6.4-5.3-11.8-11.8-11.8c-6.4,0-11.7,5.4-11.7,11.8C193.1,55.7,198.4,60.9,204.8,60.9z"
					/>
				<path class="st1" d="M231.5,37.6h-7.4c-0.5,0-0.9-0.4-0.9-0.9v-2.5c0-0.5,0.4-0.9,0.9-0.9h19.4c0.5,0,0.9,0.4,0.9,0.9v2.5
					c0,0.5-0.4,0.9-0.9,0.9h-7.4v26.6c0,0.5-0.4,0.9-0.9,0.9h-3c-0.5,0-0.9-0.4-0.9-0.9V37.6z"/>
				<path class="st1" d="M243.3,63.8l13.9-30.4c0.1-0.3,0.5-0.5,0.8-0.5h0.5c0.2,0,0.6,0.2,0.8,0.5L273,63.8
					c0.3,0.6-0.1,1.2-0.8,1.2h-2.8c-0.5,0-0.9-0.3-1-0.7l-2.8-6.2h-14.8c-0.9,2.1-1.9,4.1-2.8,6.2c-0.1,0.3-0.5,0.7-1,0.7h-2.9
					C243.4,65,243,64.4,243.3,63.8z M263.8,54.2l-5.6-12.4H258l-5.5,12.4H263.8z"/>
				<path class="st1" d="M277.5,34.2c0-0.5,0.4-0.9,0.9-0.9h3c0.5,0,0.9,0.4,0.9,0.9v26.6h12.3c0.5,0,0.9,0.4,0.9,0.9v2.5
					c0,0.5-0.4,0.9-0.9,0.9h-16.1c-0.5,0-0.9-0.4-0.9-0.9V34.2z"/>
				<path class="st1" d="M310,34.2c0-0.5,0.4-0.9,0.9-0.9h10.3c5.6,0,10.1,4.5,10.1,10c0,5.6-4.6,10.2-10.1,10.2h-6.6v10.6
					c0,0.5-0.4,0.9-0.9,0.9h-2.9c-0.5,0-0.9-0.4-0.9-0.9V34.2z M320.9,49.1c3.1,0,5.7-2.5,5.7-5.8c0-3.1-2.6-5.4-5.7-5.4h-6.2v11.2
					H320.9z"/>
				<path class="st1" d="M336.9,34.2c0-0.5,0.4-0.9,0.9-0.9H350c5.4,0,9.9,4.3,9.9,9.7c0,4.2-2.8,7.6-6.7,9.2l6.2,11.5
					c0.3,0.6,0,1.3-0.8,1.3h-3.5c-0.4,0-0.6-0.2-0.7-0.4l-6-12h-6.8v11.5c0,0.5-0.4,0.9-0.9,0.9h-2.9c-0.5,0-0.9-0.4-0.9-0.9V34.2z
					 M349.7,48.7c2.9,0,5.5-2.5,5.5-5.6c0-2.9-2.6-5.4-5.5-5.4h-8.1v11H349.7z"/>
				<path class="st1" d="M380.9,32.9c9,0,16.3,7.3,16.3,16.3s-7.2,16.2-16.3,16.2s-16.2-7.2-16.2-16.2S371.9,32.9,380.9,32.9z
					 M380.9,60.9c6.5,0,11.8-5.2,11.8-11.7c0-6.4-5.3-11.8-11.8-11.8c-6.4,0-11.7,5.4-11.7,11.8C369.2,55.7,374.5,60.9,380.9,60.9z"
					/>
				<path class="st1" d="M409.3,49.8l-10.6-15.1c-0.4-0.6,0-1.3,0.7-1.3h3.3c0.4,0,0.6,0.2,0.7,0.4l8.2,11.5l8.2-11.5
					c0.1-0.2,0.4-0.4,0.7-0.4h3.4c0.7,0,1.1,0.7,0.7,1.3L414,49.7v14.4c0,0.5-0.4,0.9-0.9,0.9h-3c-0.5,0-0.9-0.4-0.9-0.9V49.8z"/>
				<path class="st1" d="M429.1,34.2c0-0.5,0.4-0.9,0.9-0.9H448c0.5,0,0.9,0.4,0.9,0.9v2.5c0,0.5-0.4,0.9-0.9,0.9h-14.3v9.2h12.1
					c0.5,0,0.9,0.4,0.9,0.9v2.5c0,0.5-0.4,0.9-0.9,0.9h-12.1v9.7H448c0.5,0,0.9,0.4,0.9,0.9v2.5c0,0.5-0.4,0.9-0.9,0.9h-18.1
					c-0.5,0-0.9-0.4-0.9-0.9V34.2z"/>
				<path class="st1" d="M469.6,32.9c4.6,0,7.9,1.5,10.9,4.2c0.4,0.4,0.4,0.9,0,1.3l-2,2c-0.3,0.4-0.7,0.4-1.1,0c-2.1-1.9-5-3-7.8-3
					c-6.5,0-11.4,5.4-11.4,11.8c0,6.3,4.9,11.7,11.4,11.7c3.3,0,5.6-1.3,7.8-3c0.4-0.3,0.8-0.3,1.1,0l2.1,2c0.4,0.3,0.3,0.9,0,1.2
					c-3.1,3-7,4.4-11,4.4c-9,0-16.3-7.2-16.3-16.2S460.6,32.9,469.6,32.9z"/>
				<path class="st1" d="M491.4,37.6H484c-0.5,0-0.9-0.4-0.9-0.9v-2.5c0-0.5,0.4-0.9,0.9-0.9h19.4c0.5,0,0.9,0.4,0.9,0.9v2.5
					c0,0.5-0.4,0.9-0.9,0.9h-7.4v26.6c0,0.5-0.4,0.9-0.9,0.9h-3c-0.5,0-0.9-0.4-0.9-0.9V37.6z"/>
				<path class="st1" d="M522.7,32.9c9,0,16.3,7.3,16.3,16.3s-7.2,16.2-16.3,16.2c-9,0-16.2-7.2-16.2-16.2S513.7,32.9,522.7,32.9z
					 M522.7,60.9c6.5,0,11.8-5.2,11.8-11.7c0-6.4-5.3-11.8-11.8-11.8c-6.4,0-11.7,5.4-11.7,11.8C511,55.7,516.3,60.9,522.7,60.9z"/>
				<path class="st1" d="M543.4,60.4c0.4-0.6,0.8-1.3,1.2-1.9c0.4-0.6,1-0.8,1.5-0.4c0.3,0.2,3.8,3.1,7.2,3.1c3.1,0,5.1-1.9,5.1-4.2
					c0-2.7-2.4-4.4-6.8-6.3c-4.6-1.9-8.2-4.3-8.2-9.6c0-3.5,2.7-8.4,9.9-8.4c4.5,0,7.9,2.4,8.4,2.7c0.4,0.2,0.7,0.9,0.3,1.5
					c-0.4,0.5-0.8,1.2-1.1,1.7c-0.4,0.6-0.9,0.9-1.6,0.5c-0.3-0.2-3.5-2.3-6.1-2.3c-3.8,0-5.1,2.4-5.1,4.1c0,2.6,2,4.2,5.7,5.7
					c5.2,2.1,9.7,4.6,9.7,10.1c0,4.7-4.2,8.5-10.1,8.5c-5.5,0-9-2.9-9.7-3.6C543.3,61.5,543,61.2,543.4,60.4z"/>
				<path class="st1" d="M579.7,34.2c0-0.5,0.4-0.9,0.9-0.9h10.3c5.6,0,10.1,4.5,10.1,10c0,5.6-4.6,10.2-10.1,10.2h-6.6v10.6
					c0,0.5-0.4,0.9-0.9,0.9h-2.9c-0.5,0-0.9-0.4-0.9-0.9V34.2z M590.6,49.1c3.1,0,5.7-2.5,5.7-5.8c0-3.1-2.6-5.4-5.7-5.4h-6.2v11.2
					H590.6z"/>
				<path class="st1" d="M606.6,34.2c0-0.5,0.4-0.9,0.9-0.9h12.3c5.4,0,9.9,4.3,9.9,9.7c0,4.2-2.8,7.6-6.7,9.2l6.2,11.5
					c0.3,0.6,0,1.3-0.8,1.3h-3.5c-0.4,0-0.6-0.2-0.7-0.4l-6-12h-6.8v11.5c0,0.5-0.4,0.9-0.9,0.9h-2.9c-0.5,0-0.9-0.4-0.9-0.9V34.2z
					 M619.4,48.7c2.9,0,5.5-2.5,5.5-5.6c0-2.9-2.6-5.4-5.5-5.4h-8.1v11H619.4z"/>
				<path class="st1" d="M636.6,34.2c0-0.5,0.4-0.9,0.9-0.9h18.1c0.5,0,0.9,0.4,0.9,0.9v2.5c0,0.5-0.4,0.9-0.9,0.9h-14.3v9.2h12.1
					c0.5,0,0.9,0.4,0.9,0.9v2.5c0,0.5-0.4,0.9-0.9,0.9h-12.1v9.7h14.3c0.5,0,0.9,0.4,0.9,0.9v2.5c0,0.5-0.4,0.9-0.9,0.9h-18.1
					c-0.5,0-0.9-0.4-0.9-0.9V34.2z"/>
				<path class="st1" d="M661.2,60.4c0.4-0.6,0.8-1.3,1.2-1.9c0.4-0.6,1-0.8,1.5-0.4c0.3,0.2,3.8,3.1,7.2,3.1c3.1,0,5.1-1.9,5.1-4.2
					c0-2.7-2.4-4.4-6.8-6.3c-4.6-1.9-8.2-4.3-8.2-9.6c0-3.5,2.7-8.4,9.9-8.4c4.5,0,7.9,2.4,8.4,2.7c0.4,0.2,0.7,0.9,0.3,1.5
					c-0.4,0.5-0.8,1.2-1.1,1.7c-0.4,0.6-0.9,0.9-1.6,0.5c-0.3-0.2-3.5-2.3-6.1-2.3c-3.8,0-5.1,2.4-5.1,4.1c0,2.6,2,4.2,5.7,5.7
					c5.2,2.1,9.7,4.6,9.7,10.1c0,4.7-4.2,8.5-10.1,8.5c-5.5,0-9-2.9-9.7-3.6C661.1,61.5,660.8,61.2,661.2,60.4z"/>
				<path class="st1" d="M687.6,34.2c0-0.5,0.4-0.9,0.9-0.9h18.1c0.5,0,0.9,0.4,0.9,0.9v2.5c0,0.5-0.4,0.9-0.9,0.9h-14.3v9.2h12.1
					c0.5,0,0.9,0.4,0.9,0.9v2.5c0,0.5-0.4,0.9-0.9,0.9h-12.1v9.7h14.3c0.5,0,0.9,0.4,0.9,0.9v2.5c0,0.5-0.4,0.9-0.9,0.9h-18.1
					c-0.5,0-0.9-0.4-0.9-0.9V34.2z"/>
				<path class="st1" d="M714.2,33.7c0-0.5,0.4-0.8,0.9-0.8h1.1l19.6,22.7h0V34.2c0-0.5,0.4-0.9,0.9-0.9h2.9c0.5,0,0.9,0.4,0.9,0.9
					v30.4c0,0.5-0.4,0.8-0.9,0.8h-1.2l-19.6-23.3h0v22c0,0.5-0.4,0.9-0.9,0.9h-2.9c-0.5,0-0.9-0.4-0.9-0.9V33.7z"/>
				<path class="st1" d="M753.6,37.6h-7.4c-0.5,0-0.9-0.4-0.9-0.9v-2.5c0-0.5,0.4-0.9,0.9-0.9h19.4c0.5,0,0.9,0.4,0.9,0.9v2.5
					c0,0.5-0.4,0.9-0.9,0.9h-7.4v26.6c0,0.5-0.4,0.9-0.9,0.9h-3c-0.5,0-0.9-0.4-0.9-0.9V37.6z"/>
				<path class="st1" d="M765.5,63.8l13.9-30.4c0.1-0.3,0.5-0.5,0.8-0.5h0.5c0.2,0,0.6,0.2,0.8,0.5l13.8,30.4
					c0.3,0.6-0.1,1.2-0.8,1.2h-2.8c-0.5,0-0.9-0.3-1-0.7l-2.8-6.2h-14.8c-0.9,2.1-1.9,4.1-2.8,6.2c-0.1,0.3-0.5,0.7-1,0.7h-2.9
					C765.5,65,765.2,64.4,765.5,63.8z M785.9,54.2l-5.6-12.4h-0.2l-5.5,12.4H785.9z"/>
				<path class="st1" d="M799.7,34.2c0-0.5,0.4-0.9,0.8-0.9h10.4c8.7,0,15.9,7.1,15.9,15.8c0,8.8-7.1,15.9-15.9,15.9h-10.4
					c-0.5,0-0.8-0.4-0.8-0.9V34.2z M810.2,60.7c6.6,0,11.5-4.9,11.5-11.6c0-6.6-4.8-11.5-11.5-11.5h-6v23.1H810.2z"/>
				<path class="st1" d="M847.2,32.9c9,0,16.3,7.3,16.3,16.3s-7.2,16.2-16.3,16.2c-9,0-16.2-7.2-16.2-16.2S838.1,32.9,847.2,32.9z
					 M847.2,60.9c6.5,0,11.8-5.2,11.8-11.7c0-6.4-5.3-11.8-11.8-11.8c-6.4,0-11.7,5.4-11.7,11.8C835.5,55.7,840.8,60.9,847.2,60.9z"
					/>
				<path class="st1" d="M867.9,60.4c0.4-0.6,0.8-1.3,1.2-1.9c0.4-0.6,1-0.8,1.5-0.4c0.3,0.2,3.8,3.1,7.2,3.1c3.1,0,5.1-1.9,5.1-4.2
					c0-2.7-2.4-4.4-6.8-6.3c-4.6-1.9-8.2-4.3-8.2-9.6c0-3.5,2.7-8.4,9.9-8.4c4.5,0,7.9,2.4,8.4,2.7c0.4,0.2,0.7,0.9,0.3,1.5
					c-0.4,0.5-0.8,1.2-1.1,1.7c-0.4,0.6-0.9,0.9-1.6,0.5c-0.3-0.2-3.5-2.3-6.1-2.3c-3.8,0-5.1,2.4-5.1,4.1c0,2.6,2,4.2,5.7,5.7
					c5.2,2.1,9.7,4.6,9.7,10.1c0,4.7-4.2,8.5-10.1,8.5c-5.5,0-9-2.9-9.7-3.6C867.8,61.5,867.5,61.2,867.9,60.4z"/>
			</g>
		</g>
	</g>
</g>
</svg>
