<?xml version="1.0" encoding="utf-8"?>
<!-- Generator: Adobe Illustrator 21.1.0, SVG Export Plug-In . SVG Version: 6.00 Build 0)  -->
<svg version="1.1" id="Layer_1" xmlns="http://www.w3.org/2000/svg" xmlns:xlink="http://www.w3.org/1999/xlink" x="0px" y="0px"
	 viewBox="0 0 1000 1000" style="enable-background:new 0 0 1000 1000;" xml:space="preserve">
<style type="text/css">
	.st0{fill:#4A4A49;}
	.st1{fill:#92C472;}
	.st2{font-family:'BrandonGrotesque-Medium';}
	.st3{font-size:17.6054px;}
	.st4{fill:#D8D8D8;}
	.st5{fill:#0098C3;}
	.st6{fill:#8C1D80;}
	.st7{fill:#93C01F;}
	.st8{fill:none;stroke:#4A4A49;stroke-width:5;stroke-miterlimit:10;}
	.st9{font-size:22.0067px;}
</style>
<g>
	<g>
		<path class="st0" d="M374.2,756.6c1.3-1.5,3.1-3.7,4.4-5.3c0.9-1,1.3-1.9,1.3-2.6c0-0.9-0.6-1.9-2.2-1.9c-1,0-1.8,0.7-2.2,1.2
			c-0.1,0.1-0.3,0.1-0.5,0l-0.6-0.6c-0.1-0.1-0.1-0.3,0-0.5c0,0,1.3-1.7,3.4-1.7c2.5,0,3.9,1.6,3.9,3.5c0,1.4-0.7,2.3-1.7,3.4
			c-0.9,1.1-2.2,2.6-3.2,3.8h4.5c0.2,0,0.3,0.2,0.3,0.3v0.8c0,0.2-0.2,0.3-0.3,0.3h-6.8c-0.2,0-0.3-0.2-0.3-0.3L374.2,756.6
			L374.2,756.6z"/>
		<path class="st0" d="M383.9,751.5c0-3.9,1.6-6.2,4.4-6.2s4.3,2.3,4.3,6.2s-1.6,6.2-4.3,6.2C385.5,757.6,383.9,755.3,383.9,751.5z
			 M390.8,751.5c0-2.9-0.9-4.5-2.6-4.5s-2.6,1.7-2.6,4.5c0,2.9,0.9,4.6,2.6,4.6C389.9,756,390.8,754.4,390.8,751.5z"/>
		<path class="st0" d="M396.4,748.2l-1.4,0.7c-0.2,0.1-0.3,0-0.4-0.1l-0.2-0.6c-0.1-0.1,0-0.3,0.1-0.4l2.5-2.3h0.9
			c0.2,0,0.3,0.2,0.3,0.3v11.3c0,0.2-0.1,0.3-0.3,0.3h-1.1c-0.2,0-0.3-0.2-0.3-0.3v-8.9H396.4z"/>
		<path class="st0" d="M400.6,755.6l0.7-0.6c0.2-0.1,0.3-0.1,0.5,0c0.1,0.1,1.1,1.1,2.4,1.1c1.1,0,2.2-0.7,2.2-1.9
			c0-1.1-0.9-2.1-2.8-2.1h-1c-0.2,0-0.3-0.1-0.3-0.4V751c0-0.3,0.1-0.4,0.4-0.4h1c1.7,0,2.5-0.8,2.5-1.9c0-1.2-1-1.9-2-1.9
			c-1.1,0-1.7,0.6-2,1c-0.1,0.1-0.3,0.2-0.5,0l-0.7-0.6c-0.1-0.1-0.1-0.3,0-0.5c0,0,1.3-1.5,3.3-1.5s3.7,1.3,3.7,3.2
			c0,1.4-1,2.4-1.8,2.8v0.1c0.8,0.4,2.1,1.4,2.1,2.9c0,1.9-1.5,3.4-4,3.4c-2.2,0-3.2-1.1-3.6-1.6
			C400.5,755.9,400.5,755.7,400.6,755.6z"/>
	</g>
	<g>
		<path class="st0" d="M521.6,756.7c1.3-1.5,3.1-3.7,4.4-5.3c0.9-1,1.3-1.9,1.3-2.6c0-0.9-0.6-1.9-2.2-1.9c-1,0-1.8,0.7-2.2,1.2
			c-0.1,0.1-0.3,0.1-0.5,0l-0.6-0.6c-0.1-0.1-0.1-0.3,0-0.5c0,0,1.3-1.7,3.4-1.7c2.5,0,3.9,1.6,3.9,3.5c0,1.4-0.7,2.3-1.7,3.4
			c-0.9,1.1-2.2,2.6-3.2,3.8h4.5c0.2,0,0.3,0.2,0.3,0.3v0.8c0,0.2-0.2,0.3-0.3,0.3H522c-0.2,0-0.3-0.2-0.3-0.3v-0.4H521.6z"/>
		<path class="st0" d="M531.3,751.5c0-3.9,1.6-6.2,4.4-6.2c2.8,0,4.3,2.3,4.3,6.2s-1.6,6.2-4.3,6.2
			C532.9,757.6,531.3,755.3,531.3,751.5z M538.3,751.5c0-2.9-0.9-4.5-2.6-4.5c-1.7,0-2.6,1.7-2.6,4.5c0,2.9,0.9,4.6,2.6,4.6
			C537.3,756,538.3,754.4,538.3,751.5z"/>
		<path class="st0" d="M543.8,748.2l-1.4,0.7c-0.2,0.1-0.3,0-0.4-0.1l-0.2-0.6c-0.1-0.1,0-0.3,0.1-0.4l2.5-2.3h0.9
			c0.2,0,0.3,0.2,0.3,0.3v11.3c0,0.2-0.1,0.3-0.3,0.3h-1.1c-0.2,0-0.3-0.2-0.3-0.3L543.8,748.2L543.8,748.2z"/>
		<path class="st0" d="M547.5,754.5v-1.1l6.5-8c0.1-0.1,0.2-0.1,0.3-0.1h0.7c0.2,0,0.3,0.1,0.3,0.3v7.8h1.4c0.2,0,0.3,0.1,0.3,0.3
			v0.7c0,0.2-0.1,0.3-0.3,0.3h-1.4v2.3c0,0.2-0.2,0.3-0.3,0.3h-1c-0.2,0-0.3-0.2-0.3-0.3v-2.3H548
			C547.7,754.8,547.5,754.7,547.5,754.5z M553.7,753.4v-5.2l-4.2,5.2H553.7z"/>
	</g>
	<g>
		<path class="st0" d="M669.8,756.6c1.3-1.5,3.1-3.7,4.4-5.3c0.9-1,1.3-1.9,1.3-2.6c0-0.9-0.6-1.9-2.2-1.9c-1,0-1.8,0.7-2.2,1.2
			c-0.1,0.1-0.3,0.1-0.5,0l-0.6-0.6c-0.1-0.1-0.1-0.3,0-0.5c0,0,1.3-1.7,3.4-1.7c2.5,0,3.9,1.6,3.9,3.5c0,1.4-0.7,2.3-1.7,3.4
			c-0.9,1.1-2.2,2.6-3.2,3.8h4.5c0.2,0,0.3,0.2,0.3,0.3v0.8c0,0.2-0.2,0.3-0.3,0.3h-6.8c-0.2,0-0.3-0.2-0.3-0.3L669.8,756.6
			L669.8,756.6z"/>
		<path class="st0" d="M679.5,751.5c0-3.9,1.6-6.2,4.4-6.2c2.8,0,4.3,2.3,4.3,6.2s-1.6,6.2-4.3,6.2
			C681.1,757.6,679.5,755.3,679.5,751.5z M686.4,751.5c0-2.9-0.9-4.5-2.6-4.5c-1.7,0-2.6,1.7-2.6,4.5c0,2.9,0.9,4.6,2.6,4.6
			C685.5,756,686.4,754.4,686.4,751.5z"/>
		<path class="st0" d="M692,748.2l-1.4,0.7c-0.2,0.1-0.3,0-0.4-0.1l-0.2-0.6c-0.1-0.1,0-0.3,0.1-0.4l2.5-2.3h0.9
			c0.2,0,0.3,0.2,0.3,0.3v11.3c0,0.2-0.1,0.3-0.3,0.3h-1.1c-0.2,0-0.3-0.2-0.3-0.3L692,748.2L692,748.2z"/>
		<path class="st0" d="M696.5,755.6c0.2-0.2,0.4-0.4,0.7-0.6c0.1-0.1,0.3-0.2,0.4,0c0.1,0.2,1.1,1.1,2.4,1.1c1.4,0,2.4-1.2,2.4-2.5
			c0-1.2-0.8-2.3-2.4-2.3h-2.7c-0.4,0-0.5-0.3-0.5-0.6v-4.9c0-0.2,0.1-0.3,0.3-0.3h5.4c0.2,0,0.3,0.2,0.3,0.3v0.9
			c0,0.2-0.1,0.3-0.3,0.3h-4.2v2.8h1.8c2.6,0,4,1.5,4,3.8c0,2.2-1.8,4-4.2,4c-1.9,0-3-0.9-3.4-1.5
			C696.3,755.9,696.3,755.8,696.5,755.6z"/>
	</g>
	<g>
		<path class="st0" d="M818,756.8c1.3-1.5,3.1-3.7,4.4-5.3c0.9-1,1.3-1.9,1.3-2.6c0-0.9-0.6-1.9-2.2-1.9c-1,0-1.8,0.7-2.2,1.2
			c-0.1,0.1-0.3,0.1-0.5,0l-0.6-0.6c-0.1-0.1-0.1-0.3,0-0.5c0,0,1.3-1.7,3.4-1.7c2.5,0,3.9,1.6,3.9,3.5c0,1.4-0.7,2.3-1.7,3.4
			c-0.9,1.1-2.2,2.6-3.2,3.8h4.5c0.2,0,0.3,0.2,0.3,0.3v0.8c0,0.2-0.2,0.3-0.3,0.3h-6.8c-0.2,0-0.3-0.2-0.3-0.3L818,756.8L818,756.8
			z"/>
		<path class="st0" d="M827.7,751.6c0-3.9,1.6-6.2,4.4-6.2c2.8,0,4.3,2.3,4.3,6.2s-1.6,6.2-4.3,6.2
			C829.3,757.7,827.7,755.4,827.7,751.6z M834.6,751.6c0-2.9-0.9-4.5-2.6-4.5c-1.7,0-2.6,1.7-2.6,4.5c0,2.9,0.9,4.6,2.6,4.6
			C833.7,756.1,834.6,754.5,834.6,751.6z"/>
		<path class="st0" d="M840.2,748.3l-1.4,0.7c-0.2,0.1-0.3,0-0.4-0.1l-0.2-0.6c-0.1-0.1,0-0.3,0.1-0.4l2.5-2.3h0.9
			c0.2,0,0.3,0.2,0.3,0.3v11.3c0,0.2-0.1,0.3-0.3,0.3h-1.1c-0.2,0-0.3-0.2-0.3-0.3L840.2,748.3L840.2,748.3z"/>
		<path class="st0" d="M850.3,745.2c0.2-0.1,0.4,0,0.4,0.2l0.3,0.7c0.1,0.2,0,0.4-0.3,0.5c-0.8,0.3-3.6,1.7-4.2,3.9
			c0.1-0.1,1.2-0.7,2.3-0.7c1.9,0,3.7,1.4,3.7,3.8c0,2.2-1.8,4-3.9,4c-2.8,0-4.2-2.2-4.2-4.9C844.5,747.9,848.7,745.8,850.3,745.2z
			 M850.9,753.7c0-1.3-1-2.4-2.3-2.4c-1.4,0-2.3,1-2.4,1.3c-0.1,1.5,0.5,3.5,2.4,3.5C849.9,756.1,850.9,755,850.9,753.7z"/>
	</g>
	<path class="st1" d="M127.5,719.1"/>
	<g>
		<path class="st0" d="M110.1,729c0-3.9,1.6-6.2,4.4-6.2s4.3,2.3,4.3,6.2s-1.6,6.2-4.3,6.2C111.7,735.1,110.1,732.8,110.1,729z
			 M117.1,729c0-2.9-0.9-4.5-2.6-4.5s-2.6,1.7-2.6,4.5c0,2.9,0.9,4.6,2.6,4.6C116.1,733.5,117.1,731.9,117.1,729z"/>
	</g>
	<text transform="matrix(1 0 0 1 223.9795 757.2988)" class="st0 st2 st3">2012</text>
	<text transform="matrix(1 0 0 1 87.7437 524.0269)" class="st0 st2 st3">200</text>
	<text transform="matrix(1 0 0 1 90.8247 630.3926)" class="st0 st2 st3">100</text>
	<text transform="matrix(1 0 0 1 83.6772 419.1279)" class="st0 st2 st3"> 300</text>
	<text transform="matrix(1 0 0 1 83.6592 207.8633)" class="st0 st2 st3"> 500</text>
	<text transform="matrix(1 0 0 1 82.5503 315.6963)" class="st0 st2 st3"> 400</text>
	<g>
		<rect x="184" y="186.2" class="st4" width="36.7" height="545"/>
		<g>
			
				<image style="overflow:visible;opacity:0.2;enable-background:new    ;" width="62" height="66" xlink:href="99FC8B97CC8A54E0.png"  transform="matrix(1 0 0 1 171 673)">
			</image>
			<g>
				<rect x="184" y="690.2" class="st5" width="36.7" height="41.1"/>
			</g>
		</g>
		<rect x="224.3" y="186.2" class="st4" width="36.7" height="545"/>
		<g>
			
				<image style="overflow:visible;opacity:0.2;enable-background:new    ;" width="61" height="93" xlink:href="99FC8B97CC8A54E1.png"  transform="matrix(1 0 0 1 212 646)">
			</image>
			<g>
				<rect x="224.3" y="663.1" class="st6" width="36.7" height="68.2"/>
			</g>
		</g>
		<rect x="264.7" y="186.2" class="st4" width="36.7" height="545"/>
		<g>
			
				<image style="overflow:visible;opacity:0.2;enable-background:new    ;" width="62" height="118" xlink:href="99FC8B97CC8A54E7.png"  transform="matrix(1 0 0 1 251 621)">
			</image>
			<g>
				<rect x="263.9" y="638.8" class="st7" width="36.7" height="92.4"/>
			</g>
		</g>
	</g>
	<g>
		<rect x="332.1" y="187.7" class="st4" width="36.7" height="545"/>
		<g>
			
				<image style="overflow:visible;opacity:0.2;enable-background:new    ;" width="61" height="66" xlink:href="99FC8B97CC8A54E2.png"  transform="matrix(1 0 0 1 320 674)">
			</image>
			<g>
				<rect x="332.1" y="691.7" class="st5" width="36.7" height="41.1"/>
			</g>
		</g>
		<rect x="372.5" y="187.7" class="st4" width="36.7" height="545"/>
		<g>
			
				<image style="overflow:visible;opacity:0.2;enable-background:new    ;" width="62" height="136" xlink:href="99FC8B97CC8A54E3.png"  transform="matrix(1 0 0 1 360 604)">
			</image>
			<g>
				<rect x="372.5" y="621.2" class="st6" width="36.7" height="111.5"/>
			</g>
		</g>
		<rect x="412.8" y="187.7" class="st4" width="36.7" height="545"/>
		<g>
			
				<image style="overflow:visible;opacity:0.2;enable-background:new    ;" width="61" height="199" xlink:href="99FC8B97CC8A54EE.png"  transform="matrix(1 0 0 1 400 541)">
			</image>
			<g>
				<rect x="412.1" y="558.9" class="st7" width="36.7" height="173.9"/>
			</g>
		</g>
	</g>
	<g>
		<rect x="480.3" y="187.7" class="st4" width="36.7" height="545"/>
		<g>
			
				<image style="overflow:visible;opacity:0.2;enable-background:new    ;" width="62" height="97" xlink:href="99FC8B97CC8A54EF.png"  transform="matrix(1 0 0 1 468 643)">
			</image>
			<g>
				<rect x="480.3" y="660.9" class="st5" width="36.7" height="71.9"/>
			</g>
		</g>
		<rect x="520.7" y="187.7" class="st4" width="36.7" height="545"/>
		<g>
			
				<image style="overflow:visible;opacity:0.2;enable-background:new    ;" width="62" height="186" xlink:href="99FC8B97CC8A54E4.png"  transform="matrix(1 0 0 1 508 554)">
			</image>
			<g>
				<rect x="520.7" y="571.4" class="st6" width="36.7" height="161.4"/>
			</g>
		</g>
		<rect x="561" y="187.7" class="st4" width="36.7" height="545"/>
		<g>
			
				<image style="overflow:visible;opacity:0.2;enable-background:new    ;" width="61" height="316" xlink:href="99FC8B97CC8A54E5.png"  transform="matrix(1 0 0 1 548 424)">
			</image>
			<g>
				<rect x="560.3" y="441.5" class="st7" width="36.7" height="291.2"/>
			</g>
		</g>
	</g>
	<g>
		<rect x="628.5" y="187.7" class="st4" width="36.7" height="545"/>
		<g>
			
				<image style="overflow:visible;opacity:0.2;enable-background:new    ;" width="62" height="92" xlink:href="41802CF08FFE44BF.png"  transform="matrix(1 0 0 1 616 648)">
			</image>
			<g>
				<rect x="628.5" y="666" class="st5" width="36.7" height="66.8"/>
			</g>
		</g>
		<rect x="668.9" y="187.7" class="st4" width="36.7" height="545"/>
		<g>
			
				<image style="overflow:visible;opacity:0.2;enable-background:new    ;" width="62" height="184" xlink:href="41802CF08FFE44BD.png"  transform="matrix(1 0 0 1 656 556)">
			</image>
			<g>
				<rect x="668.9" y="573.6" class="st6" width="36.7" height="159.2"/>
			</g>
		</g>
		<rect x="709.2" y="187.7" class="st4" width="36.7" height="545"/>
		<g>
			
				<image style="overflow:visible;opacity:0.2;enable-background:new    ;" width="62" height="506" xlink:href="41802CF08FFE44BB.png"  transform="matrix(1 0 0 1 696 234)">
			</image>
			<g>
				<rect x="708.5" y="251.5" class="st7" width="36.7" height="481.2"/>
			</g>
		</g>
	</g>
	<g>
		<rect x="776.7" y="187.7" class="st4" width="36.7" height="545"/>
		<g>
			
				<image style="overflow:visible;opacity:0.2;enable-background:new    ;" width="62" height="111" xlink:href="41802CF08FFE44B5.png"  transform="matrix(1 0 0 1 764 629)">
			</image>
			<g>
				<rect x="776.7" y="646.2" class="st5" width="36.7" height="86.6"/>
			</g>
		</g>
		<rect x="817" y="187.7" class="st4" width="36.7" height="545"/>
		<g>
			
				<image style="overflow:visible;opacity:0.2;enable-background:new    ;" width="61" height="181" xlink:href="41802CF08FFE44B7.png"  transform="matrix(1 0 0 1 805 559)">
			</image>
			<g>
				<rect x="817" y="576.5" class="st6" width="36.7" height="156.2"/>
			</g>
		</g>
		<rect x="857.4" y="187.7" class="st4" width="36.7" height="545"/>
		<g>
			
				<image style="overflow:visible;opacity:0.2;enable-background:new    ;" width="62" height="392" xlink:href="41802CF08FFE44AA.png"  transform="matrix(1 0 0 1 844 348)">
			</image>
			<g>
				<rect x="856.6" y="365.2" class="st7" width="36.7" height="367.5"/>
			</g>
		</g>
	</g>
	<polyline class="st8" points="941,733 128.9,733 128,733 128.4,187 	"/>
	<text transform="matrix(1 0 0 1 70.9995 132.6938)" class="st0 st2 st9">PROYECTOS POR AÑO</text>
</g>
</svg>
