<?xml version="1.0" encoding="utf-8"?>
<!-- Generator: Adobe Illustrator 21.1.0, SVG Export Plug-In . SVG Version: 6.00 Build 0)  -->
<svg version="1.1" id="Layer_1" xmlns="http://www.w3.org/2000/svg" xmlns:xlink="http://www.w3.org/1999/xlink" x="0px" y="0px"
	 viewBox="0 0 1000 615.8" style="enable-background:new 0 0 1000 615.8;" xml:space="preserve">
<style type="text/css">
	.st0{fill:#4A4A49;}
	.st1{fill:#92C472;}
	.st2{font-family:'BrandonGrotesque-Medium';}
	.st3{font-size:17.6122px;}
	.st4{fill:#0098C3;}
	.st5{fill:#8C1D80;}
	.st6{fill:#93C01F;}
	.st7{fill:none;stroke:#4A4A49;stroke-width:5;stroke-miterlimit:10;}
</style>
<g>
	<g>
		<path class="st0" d="M360.9,589.2c1.3-1.5,3.1-3.7,4.4-5.3c0.9-1,1.3-1.9,1.3-2.6c0-0.9-0.6-1.9-2.2-1.9c-1,0-1.8,0.7-2.2,1.2
			c-0.1,0.1-0.3,0.1-0.5,0l-0.6-0.6c-0.1-0.1-0.1-0.3,0-0.5c0,0,1.3-1.7,3.4-1.7c2.5,0,3.9,1.6,3.9,3.5c0,1.4-0.7,2.3-1.7,3.4
			c-0.9,1.1-2.2,2.6-3.2,3.8h4.5c0.2,0,0.3,0.2,0.3,0.3v0.8c0,0.2-0.2,0.3-0.3,0.3h-6.8c-0.2,0-0.3-0.2-0.3-0.3V589.2z"/>
		<path class="st0" d="M370.6,584c0-3.9,1.6-6.2,4.4-6.2c2.8,0,4.4,2.3,4.4,6.2c0,3.9-1.6,6.2-4.4,6.2
			C372.2,590.1,370.6,587.8,370.6,584z M377.5,584c0-2.9-0.9-4.5-2.6-4.5c-1.7,0-2.6,1.7-2.6,4.5c0,2.9,0.9,4.6,2.6,4.6
			C376.6,588.5,377.5,586.9,377.5,584z"/>
		<path class="st0" d="M383.1,580.7l-1.4,0.7c-0.2,0.1-0.3,0-0.4-0.1l-0.2-0.6c-0.1-0.1,0-0.3,0.1-0.4l2.5-2.3h0.9
			c0.2,0,0.3,0.2,0.3,0.3v11.3c0,0.2-0.1,0.3-0.3,0.3h-1.1c-0.2,0-0.3-0.2-0.3-0.3V580.7z"/>
		<path class="st0" d="M387.3,588.1l0.7-0.6c0.2-0.1,0.3-0.1,0.5,0c0.1,0.1,1.1,1.1,2.4,1.1c1.1,0,2.2-0.7,2.2-1.9
			c0-1.1-0.9-2.1-2.8-2.1h-1c-0.2,0-0.3-0.1-0.3-0.4v-0.8c0-0.3,0.1-0.4,0.4-0.4h1c1.7,0,2.5-0.8,2.5-1.9c0-1.2-1-1.9-2-1.9
			c-1.1,0-1.7,0.6-2,1c-0.1,0.1-0.3,0.2-0.5,0l-0.7-0.6c-0.1-0.1-0.1-0.3,0-0.5c0,0,1.3-1.6,3.3-1.6c2,0,3.7,1.3,3.7,3.2
			c0,1.4-1,2.4-1.8,2.8v0.1c0.8,0.4,2.1,1.4,2.1,2.9c0,1.9-1.5,3.4-4,3.4c-2.2,0-3.2-1.1-3.6-1.6
			C387.2,588.4,387.2,588.3,387.3,588.1z"/>
	</g>
	<g>
		<path class="st0" d="M507.7,589.2c1.3-1.5,3.1-3.7,4.4-5.3c0.9-1,1.3-1.9,1.3-2.6c0-0.9-0.6-1.9-2.2-1.9c-1,0-1.8,0.7-2.2,1.2
			c-0.1,0.1-0.3,0.1-0.5,0L508,580c-0.1-0.1-0.1-0.3,0-0.5c0,0,1.3-1.7,3.4-1.7c2.5,0,3.9,1.6,3.9,3.5c0,1.4-0.7,2.3-1.7,3.4
			c-0.9,1.1-2.2,2.6-3.2,3.8h4.5c0.2,0,0.3,0.2,0.3,0.3v0.8c0,0.2-0.2,0.3-0.3,0.3H508c-0.2,0-0.3-0.2-0.3-0.3V589.2z"/>
		<path class="st0" d="M517.3,584c0-3.9,1.6-6.2,4.4-6.2c2.8,0,4.3,2.3,4.3,6.2c0,3.9-1.6,6.2-4.3,6.2
			C518.9,590.1,517.3,587.8,517.3,584z M524.3,584c0-2.9-0.9-4.5-2.6-4.5c-1.7,0-2.6,1.7-2.6,4.5c0,2.9,0.9,4.6,2.6,4.6
			C523.4,588.5,524.3,586.9,524.3,584z"/>
		<path class="st0" d="M529.8,580.7l-1.4,0.7c-0.2,0.1-0.3,0-0.4-0.1l-0.2-0.6c-0.1-0.1,0-0.3,0.1-0.4l2.5-2.3h0.9
			c0.2,0,0.3,0.2,0.3,0.3v11.3c0,0.2-0.1,0.3-0.3,0.3h-1.1c-0.2,0-0.3-0.2-0.3-0.3V580.7z"/>
		<path class="st0" d="M533.6,587V586l6.5-8c0.1-0.1,0.2-0.1,0.3-0.1h0.7c0.2,0,0.3,0.1,0.3,0.3v7.8h1.4c0.2,0,0.3,0.1,0.3,0.3v0.7
			c0,0.2-0.1,0.3-0.3,0.3h-1.4l0,2.3c0,0.2-0.2,0.3-0.3,0.3h-1c-0.2,0-0.3-0.2-0.3-0.3v-2.3h-5.7C533.7,587.3,533.6,587.2,533.6,587
			z M539.7,585.9v-5.2l-4.2,5.2H539.7z"/>
	</g>
	<g>
		<path class="st0" d="M658.1,589.2c1.3-1.5,3.1-3.7,4.4-5.3c0.9-1,1.3-1.9,1.3-2.6c0-0.9-0.6-1.9-2.2-1.9c-1,0-1.8,0.7-2.2,1.2
			c-0.1,0.1-0.3,0.1-0.5,0l-0.6-0.6c-0.1-0.1-0.1-0.3,0-0.5c0,0,1.3-1.7,3.4-1.7c2.5,0,3.9,1.6,3.9,3.5c0,1.4-0.7,2.3-1.7,3.4
			c-0.9,1.1-2.2,2.6-3.2,3.8h4.5c0.2,0,0.3,0.2,0.3,0.3v0.8c0,0.2-0.2,0.3-0.3,0.3h-6.8c-0.2,0-0.3-0.2-0.3-0.3V589.2z"/>
		<path class="st0" d="M667.8,584c0-3.9,1.6-6.2,4.4-6.2c2.8,0,4.4,2.3,4.4,6.2c0,3.9-1.6,6.2-4.4,6.2
			C669.4,590.1,667.8,587.8,667.8,584z M674.7,584c0-2.9-0.9-4.5-2.6-4.5c-1.7,0-2.6,1.7-2.6,4.5c0,2.9,0.9,4.6,2.6,4.6
			C673.8,588.5,674.7,586.9,674.7,584z"/>
		<path class="st0" d="M680.3,580.7l-1.4,0.7c-0.2,0.1-0.3,0-0.4-0.1l-0.2-0.6c-0.1-0.1,0-0.3,0.1-0.4l2.5-2.3h0.9
			c0.2,0,0.3,0.2,0.3,0.3v11.3c0,0.2-0.1,0.3-0.3,0.3h-1.1c-0.2,0-0.3-0.2-0.3-0.3V580.7z"/>
		<path class="st0" d="M684.8,588.1c0.2-0.2,0.4-0.4,0.7-0.6c0.1-0.1,0.3-0.2,0.4,0c0.1,0.2,1.1,1.1,2.4,1.1c1.4,0,2.4-1.2,2.4-2.5
			c0-1.2-0.8-2.3-2.4-2.3h-2.7c-0.4,0-0.5-0.3-0.5-0.6v-4.9c0-0.2,0.1-0.3,0.3-0.3h5.4c0.2,0,0.3,0.2,0.3,0.3v0.9
			c0,0.2-0.1,0.3-0.3,0.3h-4.2v2.8h1.8c2.6,0,4.1,1.5,4.1,3.8c0,2.2-1.8,4-4.2,4c-1.9,0-3-0.9-3.4-1.5
			C684.6,588.4,684.6,588.3,684.8,588.1z"/>
	</g>
	<g>
		<path class="st0" d="M807.1,589.3c1.3-1.5,3.1-3.7,4.4-5.3c0.9-1,1.3-1.9,1.3-2.6c0-0.9-0.6-1.9-2.2-1.9c-1,0-1.8,0.7-2.2,1.2
			c-0.1,0.1-0.3,0.1-0.5,0l-0.6-0.6c-0.1-0.1-0.1-0.3,0-0.5c0,0,1.3-1.7,3.4-1.7c2.5,0,3.9,1.6,3.9,3.5c0,1.4-0.7,2.3-1.7,3.4
			c-0.9,1.1-2.2,2.6-3.2,3.8h4.5c0.2,0,0.3,0.2,0.3,0.3v0.8c0,0.2-0.2,0.3-0.3,0.3h-6.8c-0.2,0-0.3-0.2-0.3-0.3V589.3z"/>
		<path class="st0" d="M816.8,584.1c0-3.9,1.6-6.2,4.4-6.2c2.8,0,4.4,2.3,4.4,6.2c0,3.9-1.6,6.2-4.4,6.2
			C818.3,590.3,816.8,588,816.8,584.1z M823.7,584.1c0-2.9-0.9-4.5-2.6-4.5c-1.7,0-2.6,1.7-2.6,4.5c0,2.9,0.9,4.6,2.6,4.6
			C822.8,588.7,823.7,587,823.7,584.1z"/>
		<path class="st0" d="M829.2,580.8l-1.4,0.7c-0.2,0.1-0.3,0-0.4-0.1l-0.2-0.6c-0.1-0.1,0-0.3,0.1-0.4l2.5-2.3h0.9
			c0.2,0,0.3,0.2,0.3,0.3v11.3c0,0.2-0.1,0.3-0.3,0.3h-1.1c-0.2,0-0.3-0.2-0.3-0.3V580.8z"/>
		<path class="st0" d="M839.4,577.7c0.2-0.1,0.4,0,0.4,0.2l0.3,0.7c0.1,0.2,0,0.4-0.3,0.5c-0.8,0.3-3.6,1.7-4.2,3.9
			c0.1-0.1,1.2-0.7,2.3-0.7c1.9,0,3.7,1.4,3.7,3.8c0,2.2-1.8,4-3.9,4c-2.8,0-4.2-2.2-4.2-4.9C833.6,580.4,837.8,578.3,839.4,577.7z
			 M840,586.2c0-1.3-1-2.4-2.3-2.4c-1.4,0-2.3,1-2.4,1.3c-0.1,1.5,0.5,3.5,2.4,3.5C839,588.7,840,587.6,840,586.2z"/>
	</g>
	<path class="st1" d="M115.6,551.6"/>
	<g>
		<path class="st0" d="M98.2,561.5c0-3.9,1.6-6.2,4.4-6.2c2.8,0,4.4,2.3,4.4,6.2c0,3.9-1.6,6.2-4.4,6.2
			C99.8,567.6,98.2,565.3,98.2,561.5z M105.1,561.5c0-2.9-0.9-4.5-2.6-4.5c-1.7,0-2.6,1.7-2.6,4.5c0,2.9,0.9,4.6,2.6,4.6
			C104.2,566,105.1,564.4,105.1,561.5z"/>
	</g>
	<text transform="matrix(1 0 0 1 212.0927 589.8247)" class="st0 st2 st3">2012</text>
	<text transform="matrix(1 0 0 1 75.8032 356.4624)" class="st0 st2 st3">200</text>
	<text transform="matrix(1 0 0 1 78.8857 462.8696)" class="st0 st2 st3">100</text>
	<text transform="matrix(1 0 0 1 71.7353 251.5234)" class="st0 st2 st3"> 300</text>
	<text transform="matrix(1 0 0 1 71.7172 40.1767)" class="st0 st2 st3"> 500</text>
	<text transform="matrix(1 0 0 1 70.6078 148.0517)" class="st0 st2 st3"> 400</text>
	<g>
		<g>
			
				<image style="overflow:visible;opacity:0.2;" width="61" height="66" xlink:href="99FC8B97CC8A54E6.png"  transform="matrix(1 0 0 1 240 504.8)">
			</image>
			<g>
				<rect x="252.1" y="522.7" class="st4" width="36.7" height="41.1"/>
			</g>
		</g>
		<g>
			
				<image style="overflow:visible;opacity:0.2;" width="62" height="93" xlink:href="99FC8B97CC8A54EA.png"  transform="matrix(1 0 0 1 199 477.8)">
			</image>
			<g>
				<rect x="211.7" y="495.5" class="st5" width="36.7" height="68.2"/>
			</g>
		</g>
		<g>
			
				<image style="overflow:visible;opacity:0.2;" width="62" height="117" xlink:href="99FC8B97CC8A54EB.png"  transform="matrix(1 0 0 1 159 453.8)">
			</image>
			<g>
				<rect x="171.3" y="471.3" class="st6" width="36.7" height="92.5"/>
			</g>
		</g>
	</g>
	<g>
		<g>
			
				<image style="overflow:visible;opacity:0.2;" width="62" height="66" xlink:href="99FC8B97CC8A54EC.png"  transform="matrix(1 0 0 1 387 505.8)">
			</image>
			<g>
				<rect x="399.9" y="523.4" class="st4" width="36.7" height="41.1"/>
			</g>
		</g>
		<g>
			
				<image style="overflow:visible;opacity:0.2;" width="62" height="136" xlink:href="99FC8B97CC8A54ED.png"  transform="matrix(1 0 0 1 347 435.8)">
			</image>
			<g>
				<rect x="359.9" y="453" class="st5" width="36.7" height="111.5"/>
			</g>
		</g>
		<g>
			
				<image style="overflow:visible;opacity:0.2;" width="62" height="199" xlink:href="99FC8B97CC8A54E8.png"  transform="matrix(1 0 0 1 307 372.8)">
			</image>
			<g>
				<rect x="319.9" y="390.6" class="st6" width="36.7" height="173.9"/>
			</g>
		</g>
	</g>
	<g>
		<g>
			
				<image style="overflow:visible;opacity:0.2;" width="62" height="97" xlink:href="99FC8B97CC8A54E9.png"  transform="matrix(1 0 0 1 536 474.8)">
			</image>
			<g>
				<rect x="548.5" y="492.6" class="st4" width="36.7" height="71.9"/>
			</g>
		</g>
		<g>
			
				<image style="overflow:visible;opacity:0.2;" width="61" height="186" xlink:href="99FC8B97CC8A54F8.png"  transform="matrix(1 0 0 1 496 385.8)">
			</image>
			<g>
				<rect x="508.2" y="403.1" class="st5" width="36.7" height="161.4"/>
			</g>
		</g>
		<g>
			
				<image style="overflow:visible;opacity:0.2;" width="62" height="316" xlink:href="99FC8B97CC8A54F9.png"  transform="matrix(1 0 0 1 455 255.8)">
			</image>
			<g>
				<rect x="467.8" y="273.2" class="st6" width="36.7" height="291.3"/>
			</g>
		</g>
	</g>
	<g>
		<g>
			
				<image style="overflow:visible;opacity:0.2;" width="62" height="92" xlink:href="41802CF08FFE44BE.png"  transform="matrix(1 0 0 1 685 479.8)">
			</image>
			<g>
				<rect x="697.9" y="497.7" class="st4" width="36.7" height="66.8"/>
			</g>
		</g>
		<g>
			
				<image style="overflow:visible;opacity:0.2;" width="61" height="184" xlink:href="41802CF08FFE44BA.png"  transform="matrix(1 0 0 1 645 387.8)">
			</image>
			<g>
				<rect x="657.1" y="405.3" class="st5" width="36.7" height="159.2"/>
			</g>
		</g>
		<g>
			
				<image style="overflow:visible;opacity:0.2;" width="62" height="506" xlink:href="41802CF08FFE44B9.png"  transform="matrix(1 0 0 1 604 65.8)">
			</image>
			<g>
				<rect x="616.4" y="83.1" class="st6" width="36.7" height="481.4"/>
			</g>
		</g>
	</g>
	<g>
		<g>
			
				<image style="overflow:visible;opacity:0.2;" width="62" height="111" xlink:href="41802CF08FFE44B6.png"  transform="matrix(1 0 0 1 834 460.8)">
			</image>
			<g>
				<rect x="846.5" y="477.9" class="st4" width="36.7" height="86.6"/>
			</g>
		</g>
		<g>
			
				<image style="overflow:visible;opacity:0.2;" width="61" height="181" xlink:href="41802CF08FFE44A9.png"  transform="matrix(1 0 0 1 794 390.8)">
			</image>
			<g>
				<rect x="806.1" y="408.2" class="st5" width="36.7" height="156.3"/>
			</g>
		</g>
		<g>
			
				<image style="overflow:visible;opacity:0.2;" width="62" height="392" xlink:href="41802CF08FFE44AB.png"  transform="matrix(1 0 0 1 753 179.8)">
			</image>
			<g>
				<rect x="765.7" y="196.9" class="st6" width="36.7" height="367.7"/>
			</g>
		</g>
	</g>
	<polyline class="st7" points="929.4,565.5 117,565.5 116,565.5 116.4,19.3 	"/>
</g>
</svg>
