<?xml version="1.0" encoding="utf-8"?>
<!-- Generator: Adobe Illustrator 21.1.0, SVG Export Plug-In . SVG Version: 6.00 Build 0)  -->
<svg version="1.1" id="Layer_1" xmlns="http://www.w3.org/2000/svg" xmlns:xlink="http://www.w3.org/1999/xlink" x="0px" y="0px"
	 viewBox="0 0 1000 222" style="enable-background:new 0 0 1000 222;" xml:space="preserve">
<style type="text/css">
	.st0{fill:#4A4A49;}
	.st1{fill:#300C46;}
	.st2{fill:#461266;}
	.st3{fill:#5C1886;}
	.st4{fill:#EC6E8D;}
	.st5{fill:#F39A9B;}
	.st6{fill:#F9C7A8;}
	.st7{fill:#7B2397;}
	.st8{fill:#A93790;}
	.st9{fill:#D74A88;}
</style>
<g>
	<g>
		<g>
			<g>
				<g>
					<path class="st0" d="M121.8,26c3.2,0,5.5,1.1,7.7,2.9c0.3,0.3,0.3,0.6,0,0.9l-1.4,1.4c-0.2,0.3-0.5,0.3-0.8,0
						c-1.5-1.3-3.5-2.1-5.5-2.1c-4.5,0-7.9,3.8-7.9,8.2c0,4.4,3.4,8.2,8,8.2c2.3,0,3.9-0.9,5.4-2.1c0.3-0.2,0.6-0.2,0.8,0l1.5,1.4
						c0.3,0.2,0.2,0.6,0,0.9c-2.2,2.1-4.9,3.1-7.7,3.1c-6.3,0-11.4-5-11.4-11.4C110.4,31.1,115.5,26,121.8,26z"/>
					<path class="st0" d="M133.8,26.9c0-0.3,0.3-0.6,0.6-0.6h2.1c0.3,0,0.6,0.3,0.6,0.6V40c0,3.2,2,5.6,5.3,5.6s5.3-2.4,5.3-5.6
						V26.9c0-0.3,0.3-0.6,0.6-0.6h2.1c0.3,0,0.6,0.3,0.6,0.6v13.3c0,4.8-3.6,8.6-8.6,8.6s-8.6-3.8-8.6-8.6L133.8,26.9L133.8,26.9z"
						/>
					<path class="st0" d="M156.9,26.9c0-0.3,0.3-0.6,0.6-0.6h2.1c0.3,0,0.6,0.3,0.6,0.6v18.6h8.6c0.3,0,0.6,0.3,0.6,0.6v1.7
						c0,0.3-0.3,0.6-0.6,0.6h-11.3c-0.3,0-0.6-0.3-0.6-0.6L156.9,26.9L156.9,26.9z"/>
					<path class="st0" d="M174.4,29.3h-5.2c-0.3,0-0.6-0.3-0.6-0.6v-1.8c0-0.3,0.3-0.6,0.6-0.6h13.6c0.3,0,0.6,0.3,0.6,0.6v1.8
						c0,0.3-0.3,0.6-0.6,0.6h-5.2v18.6c0,0.3-0.3,0.6-0.6,0.6h-2c-0.3,0-0.6-0.3-0.6-0.6V29.3z"/>
					<path class="st0" d="M186.5,26.9c0-0.3,0.3-0.6,0.6-0.6h2.1c0.3,0,0.6,0.3,0.6,0.6V40c0,3.2,2,5.6,5.3,5.6s5.3-2.4,5.3-5.6
						V26.9c0-0.3,0.3-0.6,0.6-0.6h2.1c0.3,0,0.6,0.3,0.6,0.6v13.3c0,4.8-3.6,8.6-8.6,8.6s-8.6-3.8-8.6-8.6L186.5,26.9L186.5,26.9z"
						/>
					<path class="st0" d="M209.6,26.9c0-0.3,0.3-0.6,0.6-0.6h8.6c3.8,0,6.9,3,6.9,6.8c0,2.9-1.9,5.3-4.7,6.4l4.3,8
						c0.2,0.4,0,0.9-0.5,0.9h-2.5c-0.3,0-0.4-0.2-0.5-0.3l-4.2-8.4h-4.8v8.1c0,0.3-0.3,0.6-0.6,0.6h-2.1c-0.3,0-0.6-0.3-0.6-0.6
						V26.9H209.6z M218.6,37.1c2.1,0,3.9-1.7,3.9-3.9c0-2.1-1.8-3.8-3.9-3.8H213v7.7L218.6,37.1L218.6,37.1z"/>
					<path class="st0" d="M227.7,47.7l9.7-21.3c0.1-0.2,0.4-0.3,0.5-0.3h0.3c0.2,0,0.4,0.2,0.5,0.3l9.7,21.3
						c0.2,0.4-0.1,0.8-0.5,0.8h-2c-0.4,0-0.6-0.2-0.7-0.5l-2-4.3h-10.3c-0.6,1.5-1.3,2.9-1.9,4.3c-0.1,0.2-0.3,0.5-0.7,0.5h-2
						C227.8,48.5,227.5,48.1,227.7,47.7z M242,41l-3.9-8.7H238l-3.9,8.7H242z"/>
				</g>
			</g>
			<rect x="52.3" y="15.3" class="st1" width="44.2" height="44.2"/>
		</g>
		<g>
			<g>
				<g>
					<path class="st0" d="M112,100.5c0-0.3,0.3-0.6,0.6-0.6h7.3c6.1,0,11.1,5,11.1,11c0,6.1-5,11.1-11.1,11.1h-7.3
						c-0.3,0-0.6-0.3-0.6-0.6V100.5z M119.4,119.1c4.7,0,8-3.4,8-8.1s-3.4-8-8-8h-4.2v16.1H119.4z"/>
					<path class="st0" d="M135.6,100.5c0-0.3,0.3-0.6,0.6-0.6h12.7c0.3,0,0.6,0.3,0.6,0.6v1.8c0,0.3-0.3,0.6-0.6,0.6h-10v6.5h8.4
						c0.3,0,0.6,0.3,0.6,0.6v1.8c0,0.3-0.3,0.6-0.6,0.6h-8.4v6.8h10c0.3,0,0.6,0.3,0.6,0.6v1.7c0,0.3-0.3,0.6-0.6,0.6h-12.7
						c-0.3,0-0.6-0.3-0.6-0.6V100.5z"/>
					<path class="st0" d="M154.2,100.5c0-0.3,0.3-0.6,0.6-0.6h7.2c3.9,0,7.1,3.2,7.1,7c0,3.9-3.2,7.1-7.1,7.1h-4.6v7.4
						c0,0.3-0.3,0.6-0.6,0.6h-2.1c-0.3,0-0.6-0.3-0.6-0.6v-20.9H154.2z M161.8,110.9c2.2,0,4-1.8,4-4.1c0-2.2-1.8-3.8-4-3.8h-4.4
						v7.8h4.4V110.9z"/>
					<path class="st0" d="M182.7,99.6c6.3,0,11.4,5.1,11.4,11.4s-5.1,11.4-11.4,11.4c-6.3,0-11.4-5-11.4-11.4
						C171.4,104.7,176.4,99.6,182.7,99.6z M182.7,119.2c4.5,0,8.2-3.7,8.2-8.2s-3.7-8.3-8.2-8.3s-8.2,3.8-8.2,8.3
						C174.6,115.6,178.3,119.2,182.7,119.2z"/>
					<path class="st0" d="M198.7,100.5c0-0.3,0.3-0.6,0.6-0.6h8.6c3.8,0,6.9,3,6.9,6.8c0,2.9-1.9,5.3-4.7,6.4l4.3,8
						c0.2,0.4,0,0.9-0.5,0.9h-2.5c-0.3,0-0.4-0.2-0.5-0.3l-4.2-8.4h-4.8v8.1c0,0.3-0.3,0.6-0.6,0.6h-2.1c-0.3,0-0.6-0.3-0.6-0.6
						v-20.9H198.7z M207.6,110.7c2.1,0,3.9-1.7,3.9-3.9c0-2.1-1.8-3.8-3.9-3.8H202v7.7L207.6,110.7L207.6,110.7z"/>
					<path class="st0" d="M222.8,102.9h-5.2c-0.3,0-0.6-0.3-0.6-0.6v-1.8c0-0.3,0.3-0.6,0.6-0.6h13.6c0.3,0,0.6,0.3,0.6,0.6v1.8
						c0,0.3-0.3,0.6-0.6,0.6H226v18.6c0,0.3-0.3,0.6-0.6,0.6h-2.1c-0.3,0-0.6-0.3-0.6-0.6v-18.6H222.8z"/>
					<path class="st0" d="M235.2,100.5c0-0.3,0.3-0.6,0.6-0.6h12.7c0.3,0,0.6,0.3,0.6,0.6v1.8c0,0.3-0.3,0.6-0.6,0.6h-10v6.5h8.4
						c0.3,0,0.6,0.3,0.6,0.6v1.8c0,0.3-0.3,0.6-0.6,0.6h-8.4v6.8h10c0.3,0,0.6,0.3,0.6,0.6v1.7c0,0.3-0.3,0.6-0.6,0.6h-12.7
						c-0.3,0-0.6-0.3-0.6-0.6V100.5z"/>
				</g>
			</g>
			<rect x="52.3" y="88.9" class="st2" width="44.2" height="44.2"/>
		</g>
		<g>
			<g>
				<g>
					<path class="st0" d="M112,177.4c0-0.3,0.3-0.6,0.6-0.6h12.7c0.3,0,0.6,0.3,0.6,0.6v1.8c0,0.3-0.3,0.6-0.6,0.6h-10v6.5h8.4
						c0.3,0,0.6,0.3,0.6,0.6v1.8c0,0.3-0.3,0.6-0.6,0.6h-8.4v6.8h10c0.3,0,0.6,0.3,0.6,0.6v1.7c0,0.3-0.3,0.6-0.6,0.6h-12.7
						c-0.3,0-0.6-0.3-0.6-0.6V177.4z"/>
					<path class="st0" d="M130.7,177.4c0-0.3,0.3-0.6,0.6-0.6h7.3c6.1,0,11.1,5,11.1,11c0,6.1-5,11.1-11.1,11.1h-7.3
						c-0.3,0-0.6-0.3-0.6-0.6V177.4z M138.1,196c4.7,0,8-3.4,8-8.1c0-4.7-3.4-8-8-8h-4.2V196H138.1z"/>
					<path class="st0" d="M153.9,177.4c0-0.3,0.3-0.6,0.6-0.6h2.1c0.3,0,0.6,0.3,0.6,0.6v13.1c0,3.2,2,5.6,5.3,5.6s5.3-2.4,5.3-5.6
						v-13.1c0-0.3,0.3-0.6,0.6-0.6h2.1c0.3,0,0.6,0.3,0.6,0.6v13.3c0,4.8-3.6,8.6-8.6,8.6s-8.6-3.8-8.6-8.6L153.9,177.4L153.9,177.4
						z"/>
					<path class="st0" d="M186.8,176.5c3.2,0,5.5,1.1,7.7,2.9c0.3,0.3,0.3,0.6,0,0.9l-1.4,1.4c-0.2,0.3-0.5,0.3-0.8,0
						c-1.5-1.3-3.5-2.1-5.5-2.1c-4.5,0-7.9,3.8-7.9,8.2s3.4,8.2,8,8.2c2.3,0,3.9-0.9,5.4-2.1c0.3-0.2,0.6-0.2,0.8,0l1.5,1.4
						c0.3,0.2,0.2,0.6,0,0.9c-2.2,2.1-4.9,3.1-7.7,3.1c-6.3,0-11.4-5-11.4-11.4C175.4,181.6,180.5,176.5,186.8,176.5z"/>
					<path class="st0" d="M196,198.2l9.7-21.3c0.1-0.2,0.4-0.3,0.5-0.3h0.3c0.2,0,0.4,0.2,0.5,0.3l9.7,21.3c0.2,0.4-0.1,0.8-0.5,0.8
						h-2c-0.4,0-0.6-0.2-0.7-0.5l-2-4.3h-10.3c-0.6,1.5-1.3,2.9-1.9,4.3c-0.1,0.2-0.3,0.5-0.7,0.5h-2
						C196.1,199,195.9,198.6,196,198.2z M210.4,191.5l-3.9-8.7h-0.2l-3.9,8.7H210.4z"/>
					<path class="st0" d="M229.7,176.5c3.2,0,5.5,1.1,7.7,2.9c0.3,0.3,0.3,0.6,0,0.9l-1.4,1.4c-0.2,0.3-0.5,0.3-0.8,0
						c-1.5-1.3-3.5-2.1-5.5-2.1c-4.5,0-7.9,3.8-7.9,8.2s3.4,8.2,8,8.2c2.3,0,3.9-0.9,5.4-2.1c0.3-0.2,0.6-0.2,0.8,0l1.5,1.4
						c0.3,0.2,0.2,0.6,0,0.9c-2.2,2.1-4.9,3.1-7.7,3.1c-6.3,0-11.4-5-11.4-11.4C218.2,181.6,223.3,176.5,229.7,176.5z"/>
					<path class="st0" d="M241.9,177.4c0-0.3,0.3-0.6,0.6-0.6h2.1c0.3,0,0.6,0.3,0.6,0.6v21c0,0.3-0.3,0.6-0.6,0.6h-2.1
						c-0.3,0-0.6-0.3-0.6-0.6V177.4z"/>
					<path class="st0" d="M261.1,176.5c6.3,0,11.4,5.1,11.4,11.4c0,6.3-5.1,11.4-11.4,11.4c-6.3,0-11.4-5-11.4-11.4
						C249.7,181.6,254.7,176.5,261.1,176.5z M261.1,196.1c4.5,0,8.2-3.7,8.2-8.2s-3.7-8.3-8.2-8.3s-8.2,3.8-8.2,8.3
						C252.9,192.5,256.6,196.1,261.1,196.1z M258.2,174.3l-0.4-0.9c-0.1-0.3,0-0.5,0.2-0.6l5-2.9c0.2-0.1,0.7-0.2,0.8,0.1l0.7,1.4
						c0.2,0.3,0.1,0.6-0.2,0.8l-5.3,2.3C258.5,174.7,258.3,174.6,258.2,174.3z"/>
					<path class="st0" d="M277,177.1c0-0.3,0.3-0.6,0.6-0.6h0.8l13.7,15.9l0,0v-15c0-0.3,0.3-0.6,0.6-0.6h2c0.3,0,0.6,0.3,0.6,0.6
						v21.3c0,0.3-0.3,0.6-0.6,0.6h-0.8L280.2,183l0,0v15.4c0,0.3-0.3,0.6-0.6,0.6h-2c-0.3,0-0.6-0.3-0.6-0.6V177.1z"/>
				</g>
			</g>
			<rect x="52.3" y="162.5" class="st3" width="44.2" height="44.2"/>
		</g>
	</g>
	<g>
		<g>
			<g>
				<g>
					<path class="st0" d="M771.4,46.2c0.3-0.4,0.5-0.9,0.8-1.3s0.7-0.5,1.1-0.3c0.2,0.2,2.6,2.2,5.1,2.2c2.2,0,3.6-1.3,3.6-2.9
						c0-1.9-1.6-3.1-4.8-4.4c-3.2-1.4-5.8-3-5.8-6.7c0-2.5,1.9-5.9,6.9-5.9c3.2,0,5.5,1.6,5.9,1.9c0.3,0.2,0.5,0.6,0.2,1.1
						c-0.3,0.4-0.5,0.8-0.8,1.2c-0.3,0.4-0.7,0.6-1.1,0.3c-0.2-0.1-2.4-1.6-4.3-1.6c-2.7,0-3.6,1.7-3.6,2.8c0,1.8,1.4,2.9,4,4
						c3.7,1.5,6.8,3.2,6.8,7.1c0,3.3-2.9,6-7.1,6c-3.9,0-6.3-2-6.8-2.5C771.2,47,771,46.8,771.4,46.2z"/>
					<path class="st0" d="M786.8,48.6l9.7-21.3c0.1-0.2,0.4-0.3,0.5-0.3h0.3c0.2,0,0.4,0.2,0.5,0.3l9.7,21.3
						c0.2,0.4-0.1,0.8-0.5,0.8h-2c-0.4,0-0.6-0.2-0.7-0.5l-2-4.3H792c-0.6,1.5-1.3,2.9-1.9,4.3c-0.1,0.2-0.3,0.5-0.7,0.5h-2
						C786.9,49.4,786.5,49,786.8,48.6z M801.2,41.9l-3.9-8.7H797l-3.9,8.7H801.2z"/>
					<path class="st0" d="M810.8,27.9c0-0.3,0.3-0.6,0.6-0.6h2.1c0.3,0,0.6,0.3,0.6,0.6v18.6h8.6c0.3,0,0.6,0.3,0.6,0.6v1.7
						c0,0.3-0.3,0.6-0.6,0.6h-11.3c-0.3,0-0.6-0.3-0.6-0.6L810.8,27.9L810.8,27.9z"/>
					<path class="st0" d="M825.9,27.9c0-0.3,0.3-0.6,0.6-0.6h2.1c0.3,0,0.6,0.3,0.6,0.6V41c0,3.2,2,5.6,5.3,5.6s5.3-2.4,5.3-5.6
						V27.9c0-0.3,0.3-0.6,0.6-0.6h2.1c0.3,0,0.6,0.3,0.6,0.6v13.3c0,4.8-3.6,8.6-8.6,8.6s-8.6-3.8-8.6-8.6L825.9,27.9L825.9,27.9z"
						/>
					<path class="st0" d="M848.9,27.9c0-0.3,0.3-0.6,0.6-0.6h7.3c6.1,0,11.1,5,11.1,11c0,6.1-5,11.1-11.1,11.1h-7.3
						c-0.3,0-0.6-0.3-0.6-0.6V27.9z M856.2,46.4c4.7,0,8-3.4,8-8.1s-3.4-8-8-8H852v16.1H856.2z"/>
				</g>
			</g>
			<rect x="709" y="16.2" class="st4" width="44.2" height="44.2"/>
		</g>
		<g>
			<g>
				<g>
					<path class="st0" d="M771.4,118.9c0.3-0.4,0.5-0.9,0.8-1.3s0.7-0.5,1.1-0.3c0.2,0.2,2.6,2.2,5.1,2.2c2.2,0,3.6-1.3,3.6-2.9
						c0-1.9-1.6-3.1-4.8-4.4c-3.2-1.4-5.8-3-5.8-6.7c0-2.5,1.9-5.9,6.9-5.9c3.2,0,5.5,1.6,5.9,1.9c0.3,0.2,0.5,0.6,0.2,1.1
						c-0.3,0.4-0.5,0.8-0.8,1.2c-0.3,0.4-0.7,0.6-1.1,0.3c-0.2-0.1-2.4-1.6-4.3-1.6c-2.7,0-3.6,1.7-3.6,2.8c0,1.8,1.4,2.9,4,4
						c3.7,1.5,6.8,3.2,6.8,7.1c0,3.3-2.9,6-7.1,6c-3.9,0-6.3-2-6.8-2.5C771.2,119.6,771,119.4,771.4,118.9z"/>
					<path class="st0" d="M789.8,100.5c0-0.3,0.3-0.6,0.6-0.6H803c0.3,0,0.6,0.3,0.6,0.6v1.8c0,0.3-0.3,0.6-0.6,0.6h-10v6.5h8.4
						c0.3,0,0.6,0.3,0.6,0.6v1.8c0,0.3-0.3,0.6-0.6,0.6H793v6.8h10c0.3,0,0.6,0.3,0.6,0.6v1.7c0,0.3-0.3,0.6-0.6,0.6h-12.7
						c-0.3,0-0.6-0.3-0.6-0.6V100.5z"/>
					<path class="st0" d="M818,99.6c3,0,5.5,1.1,7.7,2.9c0.3,0.3,0.3,0.6,0,0.9c-0.5,0.5-0.9,1-1.4,1.5c-0.3,0.3-0.5,0.3-0.8,0
						c-1.5-1.3-3.4-2.2-5.4-2.2c-4.5,0-7.9,3.8-7.9,8.2c0,4.4,3.4,8.2,7.9,8.2c2.6,0,4.4-0.9,4.7-1.1v-3.5h-3.1
						c-0.3,0-0.6-0.3-0.6-0.6v-1.8c0-0.3,0.3-0.6,0.6-0.6h5.8c0.3,0,0.6,0.3,0.6,0.6c0,2.5,0,5.1,0,7.7c0,0.2-0.1,0.4-0.3,0.5
						c0,0-3.3,2.1-7.8,2.1c-6.3,0-11.4-5-11.4-11.4C806.7,104.7,811.8,99.6,818,99.6z"/>
					<path class="st0" d="M830.9,100.5c0-0.3,0.3-0.6,0.6-0.6h2.1c0.3,0,0.6,0.3,0.6,0.6v13.1c0,3.2,2,5.6,5.3,5.6s5.3-2.4,5.3-5.6
						v-13.1c0-0.3,0.3-0.6,0.6-0.6h2.1c0.3,0,0.6,0.3,0.6,0.6v13.3c0,4.8-3.6,8.6-8.6,8.6s-8.6-3.8-8.6-8.6L830.9,100.5L830.9,100.5
						z"/>
					<path class="st0" d="M854,100.5c0-0.3,0.3-0.6,0.6-0.6h8.6c3.8,0,6.9,3,6.9,6.8c0,2.9-1.9,5.3-4.7,6.4l4.3,8
						c0.2,0.4,0,0.9-0.5,0.9h-2.5c-0.3,0-0.4-0.2-0.5-0.3l-4.2-8.4h-4.8v8.1c0,0.3-0.3,0.6-0.6,0.6h-2.1c-0.3,0-0.6-0.3-0.6-0.6
						L854,100.5L854,100.5z M863,110.7c2.1,0,3.9-1.7,3.9-3.9c0-2.1-1.8-3.8-3.9-3.8h-5.6v7.7L863,110.7L863,110.7z"/>
					<path class="st0" d="M875,100.5c0-0.3,0.3-0.6,0.6-0.6h2.1c0.3,0,0.6,0.3,0.6,0.6v21c0,0.3-0.3,0.6-0.6,0.6h-2.1
						c-0.3,0-0.6-0.3-0.6-0.6V100.5z"/>
					<path class="st0" d="M884.5,100.5c0-0.3,0.3-0.6,0.6-0.6h7.3c6.1,0,11.1,5,11.1,11c0,6.1-5,11.1-11.1,11.1H885
						c-0.3,0-0.6-0.3-0.6-0.6L884.5,100.5L884.5,100.5z M891.9,119.1c4.7,0,8-3.4,8-8.1s-3.4-8-8-8h-4.2v16.1H891.9z"/>
					<path class="st0" d="M904.9,121.3l9.7-21.3c0.1-0.2,0.4-0.3,0.5-0.3h0.3c0.2,0,0.4,0.2,0.5,0.3l9.7,21.3
						c0.2,0.4-0.1,0.8-0.5,0.8h-2c-0.4,0-0.6-0.2-0.7-0.5l-2-4.3h-10.3c-0.6,1.5-1.3,2.9-1.9,4.3c-0.1,0.2-0.3,0.5-0.7,0.5h-2
						C904.9,122.1,904.7,121.7,904.9,121.3z M919.2,114.5l-3.9-8.7H915l-3.9,8.7H919.2z"/>
					<path class="st0" d="M928.8,100.5c0-0.3,0.3-0.6,0.6-0.6h7.3c6.1,0,11.1,5,11.1,11c0,6.1-5,11.1-11.1,11.1h-7.3
						c-0.3,0-0.6-0.3-0.6-0.6V100.5z M936.2,119.1c4.7,0,8-3.4,8-8.1s-3.4-8-8-8H932v16.1H936.2z"/>
				</g>
			</g>
			<rect x="709" y="88.9" class="st5" width="44.2" height="44.2"/>
		</g>
		<g>
			<g>
				<g>
					<path class="st0" d="M775.8,178.9h-5.2c-0.3,0-0.6-0.3-0.6-0.6v-1.8c0-0.3,0.3-0.6,0.6-0.6h13.6c0.3,0,0.6,0.3,0.6,0.6v1.8
						c0,0.3-0.3,0.6-0.6,0.6h-5.2v18.6c0,0.3-0.3,0.6-0.6,0.6h-2.1c-0.3,0-0.6-0.3-0.6-0.6L775.8,178.9L775.8,178.9z"/>
					<path class="st0" d="M788.2,176.5c0-0.3,0.3-0.6,0.6-0.6h8.6c3.8,0,6.9,3,6.9,6.8c0,2.9-1.9,5.3-4.7,6.4l4.3,8
						c0.2,0.4,0,0.9-0.5,0.9h-2.5c-0.3,0-0.4-0.2-0.5-0.3l-4.2-8.4h-4.8v8.1c0,0.3-0.3,0.6-0.6,0.6h-2.1c-0.3,0-0.6-0.3-0.6-0.6
						L788.2,176.5L788.2,176.5z M797.2,186.7c2.1,0,3.9-1.7,3.9-3.9c0-2.1-1.8-3.8-3.9-3.8h-5.6v7.7H797.2z"/>
					<path class="st0" d="M806.4,197.2l9.7-21.3c0.1-0.2,0.4-0.3,0.5-0.3h0.3c0.2,0,0.4,0.2,0.5,0.3l9.7,21.3
						c0.2,0.4-0.1,0.8-0.5,0.8h-2c-0.4,0-0.6-0.2-0.7-0.5l-2-4.3h-10.3c-0.6,1.5-1.3,2.9-1.9,4.3c-0.1,0.2-0.3,0.5-0.7,0.5h-2
						C806.5,198.1,806.2,197.7,806.4,197.2z M820.7,190.5l-3.9-8.7h-0.2l-3.9,8.7H820.7z M813.8,173.4l-0.4-0.9
						c-0.1-0.3,0-0.5,0.2-0.6l5-2.9c0.2-0.1,0.7-0.2,0.8,0.1l0.7,1.4c0.2,0.3,0.1,0.6-0.2,0.8l-5.3,2.3
						C814.2,173.8,814,173.7,813.8,173.4z"/>
					<path class="st0" d="M830.2,176.2c0-0.3,0.3-0.6,0.6-0.6h0.8l13.7,15.9l0,0v-15c0-0.3,0.3-0.6,0.6-0.6h2c0.3,0,0.6,0.3,0.6,0.6
						v21.3c0,0.3-0.3,0.6-0.6,0.6h-0.8l-13.7-16.3l0,0v15.4c0,0.3-0.3,0.6-0.6,0.6h-2c-0.3,0-0.6-0.3-0.6-0.6V176.2z"/>
					<path class="st0" d="M853.4,194.9c0.3-0.4,0.5-0.9,0.8-1.3c0.3-0.4,0.7-0.5,1.1-0.3c0.2,0.2,2.6,2.2,5.1,2.2
						c2.2,0,3.6-1.3,3.6-2.9c0-1.9-1.6-3.1-4.8-4.4c-3.2-1.4-5.8-3-5.8-6.7c0-2.5,1.9-5.9,6.9-5.9c3.2,0,5.5,1.6,5.9,1.9
						c0.3,0.2,0.5,0.6,0.2,1.1c-0.3,0.4-0.5,0.8-0.8,1.2s-0.7,0.6-1.1,0.3c-0.2-0.1-2.4-1.6-4.3-1.6c-2.7,0-3.6,1.7-3.6,2.8
						c0,1.8,1.4,2.9,4,4c3.7,1.5,6.8,3.2,6.8,7.1c0,3.3-2.9,6-7.1,6c-3.9,0-6.3-2-6.8-2.5C853.2,195.6,853,195.4,853.4,194.9z"/>
					<path class="st0" d="M871.8,176.5c0-0.3,0.3-0.6,0.6-0.6h2.1c0.3,0,0.6,0.3,0.6,0.6v21c0,0.3-0.3,0.6-0.6,0.6h-2.1
						c-0.3,0-0.6-0.3-0.6-0.6V176.5z"/>
					<path class="st0" d="M884.2,178.9H879c-0.3,0-0.6-0.3-0.6-0.6v-1.8c0-0.3,0.3-0.6,0.6-0.6h13.6c0.3,0,0.6,0.3,0.6,0.6v1.8
						c0,0.3-0.3,0.6-0.6,0.6h-5.2v18.6c0,0.3-0.3,0.6-0.6,0.6h-2.1c-0.3,0-0.6-0.3-0.6-0.6L884.2,178.9L884.2,178.9z"/>
					<path class="st0" d="M906.2,175.6c6.3,0,11.4,5.1,11.4,11.4c0,6.3-5.1,11.4-11.4,11.4c-6.3,0-11.4-5-11.4-11.4
						C894.9,180.7,899.9,175.6,906.2,175.6z M906.2,195.2c4.5,0,8.2-3.7,8.2-8.2s-3.7-8.3-8.2-8.3s-8.2,3.8-8.2,8.3
						S901.7,195.2,906.2,195.2z"/>
				</g>
			</g>
			<rect x="709" y="161.6" class="st6" width="44.2" height="44.2"/>
		</g>
	</g>
	<g>
		<g>
			<g>
				<path class="st0" d="M414.4,26.9c0-0.3,0.3-0.6,0.6-0.6h12.7c0.3,0,0.6,0.3,0.6,0.6v1.8c0,0.3-0.3,0.6-0.6,0.6h-10v7.3h8.4
					c0.3,0,0.6,0.3,0.6,0.6v1.7c0,0.3-0.3,0.6-0.6,0.6h-8.4v8.3c0,0.3-0.3,0.6-0.6,0.6H415c-0.3,0-0.6-0.3-0.6-0.6V26.9z"/>
				<path class="st0" d="M432.3,26.9c0-0.3,0.3-0.6,0.6-0.6h2.1c0.3,0,0.6,0.3,0.6,0.6v21c0,0.3-0.3,0.6-0.6,0.6h-2.1
					c-0.3,0-0.6-0.3-0.6-0.6V26.9z"/>
				<path class="st0" d="M440.3,45.3c0.3-0.4,0.5-0.9,0.8-1.3s0.7-0.5,1.1-0.3c0.2,0.2,2.6,2.2,5.1,2.2c2.2,0,3.6-1.3,3.6-2.9
					c0-1.9-1.6-3.1-4.8-4.4c-3.2-1.4-5.8-3-5.8-6.7c0-2.5,1.9-5.9,6.9-5.9c3.2,0,5.5,1.6,5.9,1.9c0.3,0.2,0.5,0.6,0.2,1.1
					c-0.3,0.4-0.5,0.8-0.8,1.2c-0.3,0.4-0.7,0.6-1.1,0.3c-0.2-0.1-2.4-1.6-4.3-1.6c-2.7,0-3.6,1.7-3.6,2.8c0,1.8,1.4,2.9,4,4
					c3.7,1.5,6.8,3.2,6.8,7.1c0,3.3-2.9,6-7.1,6c-3.9,0-6.3-2-6.8-2.5C440.3,46.1,440,45.8,440.3,45.3z"/>
				<path class="st0" d="M468.6,26c3.2,0,5.5,1.1,7.7,2.9c0.3,0.3,0.3,0.6,0,0.9l-1.4,1.4c-0.2,0.3-0.5,0.3-0.8,0
					c-1.5-1.3-3.5-2.1-5.5-2.1c-4.5,0-7.9,3.8-7.9,8.2c0,4.4,3.4,8.2,8,8.2c2.3,0,3.9-0.9,5.4-2.1c0.3-0.2,0.6-0.2,0.8,0l1.5,1.4
					c0.3,0.2,0.2,0.6,0,0.9c-2.2,2.1-4.9,3.1-7.7,3.1c-6.3,0-11.4-5-11.4-11.4C457.2,31.1,462.2,26,468.6,26z"/>
				<path class="st0" d="M477.8,47.7l9.7-21.3c0.1-0.2,0.4-0.3,0.5-0.3h0.3c0.2,0,0.4,0.2,0.5,0.3l9.7,21.3c0.2,0.4-0.1,0.8-0.5,0.8
					h-2c-0.4,0-0.6-0.2-0.7-0.5l-2-4.3H483c-0.6,1.5-1.3,2.9-1.9,4.3c-0.1,0.2-0.3,0.5-0.7,0.5h-2C477.9,48.5,477.6,48.1,477.8,47.7
					z M492.2,41l-3.9-8.7h-0.2l-3.9,8.7H492.2z"/>
				<path class="st0" d="M501.8,26.9c0-0.3,0.3-0.6,0.6-0.6h2.1c0.3,0,0.6,0.3,0.6,0.6v18.6h8.6c0.3,0,0.6,0.3,0.6,0.6v1.7
					c0,0.3-0.3,0.6-0.6,0.6h-11.3c-0.3,0-0.6-0.3-0.6-0.6L501.8,26.9L501.8,26.9z"/>
				<path class="st0" d="M517.5,26.9c0-0.3,0.3-0.6,0.6-0.6h2.1c0.3,0,0.6,0.3,0.6,0.6v21c0,0.3-0.3,0.6-0.6,0.6H518
					c-0.3,0-0.6-0.3-0.6-0.6V26.9z"/>
				<path class="st0" d="M524.8,47.3l10.4-17.8v-0.1h-8.9c-0.3,0-0.6-0.3-0.6-0.6V27c0-0.3,0.3-0.6,0.6-0.6h13
					c0.3,0,0.6,0.3,0.6,0.6v0.4l-10.5,18.1l0,0h9.2c0.3,0,0.6,0.3,0.6,0.6v1.8c0,0.3-0.3,0.6-0.6,0.6h-13.3c-0.3,0-0.6-0.3-0.6-0.6
					L524.8,47.3L524.8,47.3z"/>
				<path class="st0" d="M540.9,47.7l9.7-21.3c0.1-0.2,0.4-0.3,0.5-0.3h0.3c0.2,0,0.4,0.2,0.5,0.3l9.7,21.3c0.2,0.4-0.1,0.8-0.5,0.8
					h-2c-0.4,0-0.6-0.2-0.7-0.5l-2-4.3h-10.3c-0.6,1.5-1.3,2.9-1.9,4.3c-0.1,0.2-0.3,0.5-0.7,0.5h-2C541,48.5,540.7,48.1,540.9,47.7
					z M555.2,41l-3.9-8.7h-0.2l-3.9,8.7H555.2z"/>
				<path class="st0" d="M574.5,26c3.2,0,5.5,1.1,7.7,2.9c0.3,0.3,0.3,0.6,0,0.9l-1.4,1.4c-0.2,0.3-0.5,0.3-0.8,0
					c-1.5-1.3-3.5-2.1-5.5-2.1c-4.5,0-7.9,3.8-7.9,8.2c0,4.4,3.4,8.2,8,8.2c2.3,0,3.9-0.9,5.4-2.1c0.3-0.2,0.6-0.2,0.8,0l1.5,1.4
					c0.3,0.2,0.2,0.6,0,0.9c-2.2,2.1-4.9,3.1-7.7,3.1c-6.3,0-11.4-5-11.4-11.4C563,31.1,568.2,26,574.5,26z"/>
				<path class="st0" d="M586.8,26.9c0-0.3,0.3-0.6,0.6-0.6h2.1c0.3,0,0.6,0.3,0.6,0.6v21c0,0.3-0.3,0.6-0.6,0.6h-2.1
					c-0.3,0-0.6-0.3-0.6-0.6V26.9z"/>
				<path class="st0" d="M606,26c6.3,0,11.4,5.1,11.4,11.4s-5.1,11.4-11.4,11.4c-6.3,0-11.4-5-11.4-11.4C594.5,31.1,599.5,26,606,26
					z M606,45.6c4.5,0,8.2-3.7,8.2-8.2s-3.7-8.3-8.2-8.3s-8.2,3.8-8.2,8.3C597.8,42,601.5,45.6,606,45.6z"/>
				<path class="st0" d="M621.9,26.6c0-0.3,0.3-0.6,0.6-0.6h0.8L637,41.9l0,0v-15c0-0.3,0.3-0.6,0.6-0.6h2c0.3,0,0.6,0.3,0.6,0.6
					v21.3c0,0.3-0.3,0.6-0.6,0.6h-0.8L625,32.5l0,0v15.4c0,0.3-0.3,0.6-0.6,0.6h-2c-0.3,0-0.6-0.3-0.6-0.6V26.6z"/>
			</g>
		</g>
		<rect x="352.8" y="15.3" class="st7" width="44.2" height="44.2"/>
	</g>
	<g>
		<g>
			<g>
				<path class="st0" d="M424.2,99.6c3,0,5.5,1.1,7.7,2.9c0.3,0.3,0.3,0.6,0,0.9c-0.5,0.5-0.9,1-1.4,1.5c-0.3,0.3-0.5,0.3-0.8,0
					c-1.5-1.3-3.4-2.2-5.4-2.2c-4.5,0-7.9,3.8-7.9,8.2c0,4.4,3.4,8.2,7.9,8.2c2.6,0,4.4-0.9,4.7-1.1v-3.5h-3.1
					c-0.3,0-0.6-0.3-0.6-0.6v-1.8c0-0.3,0.3-0.6,0.6-0.6h5.8c0.3,0,0.6,0.3,0.6,0.6c0,2.5,0,5.1,0,7.7c0,0.2-0.1,0.4-0.3,0.5
					c0,0-3.3,2.1-7.8,2.1c-6.3,0-11.4-5-11.4-11.4C412.8,104.7,417.9,99.6,424.2,99.6z"/>
				<path class="st0" d="M447,99.6c6.3,0,11.4,5.1,11.4,11.4s-5.1,11.4-11.4,11.4s-11.4-5-11.4-11.4
					C435.7,104.7,440.7,99.6,447,99.6z M447,119.2c4.5,0,8.2-3.7,8.2-8.2s-3.7-8.3-8.2-8.3s-8.2,3.8-8.2,8.3
					C438.8,115.6,442.5,119.2,447,119.2z"/>
				<path class="st0" d="M462.9,100.5c0-0.3,0.3-0.6,0.6-0.6h7.1c3.8,0,6.6,2.5,6.6,5.9c0,2.4-1.8,4.2-3.3,5c1.7,0.7,4,2.2,4,5.2
					c0,3.5-2.9,6.1-6.9,6.1h-7.4c-0.3,0-0.6-0.3-0.6-0.6v-21H462.9z M471,119.2c1.9,0,3.4-1.5,3.4-3.4s-1.8-3.3-3.9-3.3h-4.3v6.8
					h4.8V119.2z M470.4,109.5c2,0,3.3-1.5,3.3-3.4s-1.2-3.3-3.3-3.3h-4.3v6.6L470.4,109.5L470.4,109.5z"/>
				<path class="st0" d="M482.6,100.5c0-0.3,0.3-0.6,0.6-0.6h2.1c0.3,0,0.6,0.3,0.6,0.6v21c0,0.3-0.3,0.6-0.6,0.6h-2.1
					c-0.3,0-0.6-0.3-0.6-0.6V100.5z"/>
				<path class="st0" d="M492.1,100.5c0-0.3,0.3-0.6,0.6-0.6h12.7c0.3,0,0.6,0.3,0.6,0.6v1.8c0,0.3-0.3,0.6-0.6,0.6h-10v6.5h8.4
					c0.3,0,0.6,0.3,0.6,0.6v1.8c0,0.3-0.3,0.6-0.6,0.6h-8.4v6.8h10c0.3,0,0.6,0.3,0.6,0.6v1.7c0,0.3-0.3,0.6-0.6,0.6h-12.7
					c-0.3,0-0.6-0.3-0.6-0.6V100.5z"/>
				<path class="st0" d="M510.7,100.5c0-0.3,0.3-0.6,0.6-0.6h8.6c3.8,0,6.9,3,6.9,6.8c0,2.9-1.9,5.3-4.7,6.4l4.3,8
					c0.2,0.4,0,0.9-0.5,0.9h-2.5c-0.3,0-0.4-0.2-0.5-0.3l-4.2-8.4H514v8.1c0,0.3-0.3,0.6-0.6,0.6h-2.1c-0.3,0-0.6-0.3-0.6-0.6V100.5
					z M519.7,110.7c2.1,0,3.9-1.7,3.9-3.9c0-2.1-1.8-3.8-3.9-3.8H514v7.7L519.7,110.7L519.7,110.7z"/>
				<path class="st0" d="M531.8,100.2c0-0.3,0.3-0.6,0.6-0.6h0.8l13.7,15.9l0,0v-15c0-0.3,0.3-0.6,0.6-0.6h2c0.3,0,0.6,0.3,0.6,0.6
					v21.3c0,0.3-0.3,0.6-0.6,0.6h-0.8L535,106.1l0,0v15.4c0,0.3-0.3,0.6-0.6,0.6h-2c-0.3,0-0.6-0.3-0.6-0.6L531.8,100.2L531.8,100.2
					z"/>
				<path class="st0" d="M566,99.6c6.3,0,11.4,5.1,11.4,11.4s-5.1,11.4-11.4,11.4s-11.4-5-11.4-11.4
					C554.7,104.7,559.7,99.6,566,99.6z M566,119.2c4.5,0,8.2-3.7,8.2-8.2s-3.7-8.3-8.2-8.3s-8.2,3.8-8.2,8.3
					C557.8,115.6,561.5,119.2,566,119.2z"/>
			</g>
		</g>
		<rect x="352.8" y="88.9" class="st8" width="44.2" height="44.2"/>
	</g>
	<g>
		<g>
			<path class="st0" d="M414.4,174.1c0-0.3,0.3-0.6,0.6-0.6h7.2c3.9,0,7.1,3.2,7.1,7c0,3.9-3.2,7.1-7.1,7.1h-4.6v7.4
				c0,0.3-0.3,0.6-0.6,0.6h-2c-0.3,0-0.6-0.3-0.6-0.6V174.1z M422,184.5c2.2,0,4-1.8,4-4.1c0-2.2-1.8-3.8-4-3.8h-4.4v7.8L422,184.5
				L422,184.5z"/>
			<path class="st0" d="M433.2,174.1c0-0.3,0.3-0.6,0.6-0.6h2.1c0.3,0,0.6,0.3,0.6,0.6v18.6h8.6c0.3,0,0.6,0.3,0.6,0.6v1.7
				c0,0.3-0.3,0.6-0.6,0.6h-11.3c-0.3,0-0.6-0.3-0.6-0.6L433.2,174.1L433.2,174.1z"/>
			<path class="st0" d="M447,194.8l9.7-21.3c0.1-0.2,0.4-0.3,0.5-0.3h0.3c0.2,0,0.4,0.2,0.5,0.3l9.7,21.3c0.2,0.4-0.1,0.8-0.5,0.8
				h-2c-0.4,0-0.6-0.2-0.7-0.5l-2-4.3h-10.3c-0.6,1.5-1.3,2.9-1.9,4.3c-0.1,0.2-0.3,0.5-0.7,0.5h-2
				C447.1,195.7,446.8,195.3,447,194.8z M461.4,188.1l-3.9-8.7h-0.2l-3.9,8.7H461.4z"/>
			<path class="st0" d="M471,173.8c0-0.3,0.3-0.6,0.6-0.6h0.8l13.7,15.9l0,0v-15c0-0.3,0.3-0.6,0.6-0.6h2c0.3,0,0.6,0.3,0.6,0.6
				v21.3c0,0.3-0.3,0.6-0.6,0.6h-0.8l-13.7-16.3l0,0v15.4c0,0.3-0.3,0.6-0.6,0.6h-2c-0.3,0-0.6-0.3-0.6-0.6V173.8z"/>
			<path class="st0" d="M495.5,174.1c0-0.3,0.3-0.6,0.6-0.6h12.7c0.3,0,0.6,0.3,0.6,0.6v1.8c0,0.3-0.3,0.6-0.6,0.6h-10v6.5h8.4
				c0.3,0,0.6,0.3,0.6,0.6v1.8c0,0.3-0.3,0.6-0.6,0.6h-8.4v6.8h10c0.3,0,0.6,0.3,0.6,0.6v1.7c0,0.3-0.3,0.6-0.6,0.6h-12.7
				c-0.3,0-0.6-0.3-0.6-0.6V174.1z"/>
			<path class="st0" d="M511.2,194.8l9.7-21.3c0.1-0.2,0.4-0.3,0.5-0.3h0.3c0.2,0,0.4,0.2,0.5,0.3l9.7,21.3c0.2,0.4-0.1,0.8-0.5,0.8
				h-2c-0.4,0-0.6-0.2-0.7-0.5l-2-4.3h-10.3c-0.6,1.5-1.3,2.9-1.9,4.3c-0.1,0.2-0.3,0.5-0.7,0.5h-2
				C511.2,195.7,511,195.3,511.2,194.8z M525.5,188.1l-3.9-8.7h-0.2l-3.9,8.7H525.5z"/>
			<path class="st0" d="M537.5,173.7c0.1-0.3,0.3-0.5,0.6-0.5h0.5c0.2,0,0.5,0.2,0.5,0.3l6.6,16.2h0.1l6.6-16.2
				c0.1-0.2,0.3-0.3,0.5-0.3h0.5c0.3,0,0.5,0.2,0.6,0.5l3.9,21.3c0.1,0.4-0.1,0.7-0.6,0.7h-2.1c-0.3,0-0.5-0.2-0.6-0.4l-2.3-14.1
				h-0.1l-5.7,14.6c-0.1,0.2-0.3,0.3-0.5,0.3h-0.6c-0.3,0-0.5-0.2-0.5-0.3l-5.7-14.6h-0.1l-2.3,14.1c0,0.2-0.3,0.4-0.6,0.4h-2.1
				c-0.4,0-0.7-0.3-0.6-0.7L537.5,173.7z"/>
			<path class="st0" d="M562.5,174.1c0-0.3,0.3-0.6,0.6-0.6h2.1c0.3,0,0.6,0.3,0.6,0.6v21c0,0.3-0.3,0.6-0.6,0.6h-2.1
				c-0.3,0-0.6-0.3-0.6-0.6V174.1z"/>
			<path class="st0" d="M572,174.1c0-0.3,0.3-0.6,0.6-0.6h12.7c0.3,0,0.6,0.3,0.6,0.6v1.8c0,0.3-0.3,0.6-0.6,0.6h-10v6.5h8.4
				c0.3,0,0.6,0.3,0.6,0.6v1.8c0,0.3-0.3,0.6-0.6,0.6h-8.4v6.8h10c0.3,0,0.6,0.3,0.6,0.6v1.7c0,0.3-0.3,0.6-0.6,0.6h-12.7
				c-0.3,0-0.6-0.3-0.6-0.6V174.1z"/>
			<path class="st0" d="M590.7,173.8c0-0.3,0.3-0.6,0.6-0.6h0.8l13.7,15.9l0,0v-15c0-0.3,0.3-0.6,0.6-0.6h2c0.3,0,0.6,0.3,0.6,0.6
				v21.3c0,0.3-0.3,0.6-0.6,0.6h-0.8l-13.7-16.3l0,0v15.4c0,0.3-0.3,0.6-0.6,0.6h-2c-0.3,0-0.6-0.3-0.6-0.6V173.8z"/>
			<path class="st0" d="M618.2,176.5H613c-0.3,0-0.6-0.3-0.6-0.6v-1.8c0-0.3,0.3-0.6,0.6-0.6h13.6c0.3,0,0.6,0.3,0.6,0.6v1.8
				c0,0.3-0.3,0.6-0.6,0.6h-5.2v18.6c0,0.3-0.3,0.6-0.6,0.6h-2.1c-0.3,0-0.6-0.3-0.6-0.6L618.2,176.5L618.2,176.5z"/>
			<path class="st0" d="M640,173.2c6.3,0,11.4,5.1,11.4,11.4c0,6.3-5.1,11.4-11.4,11.4c-6.3,0-11.4-5-11.4-11.4
				C628.8,178.3,633.8,173.2,640,173.2z M640,192.8c4.5,0,8.2-3.7,8.2-8.2s-3.7-8.3-8.2-8.3s-8.2,3.8-8.2,8.3
				C631.9,189.1,635.5,192.8,640,192.8z"/>
		</g>
	</g>
	<rect x="352.8" y="162.5" class="st9" width="44.2" height="44.2"/>
</g>
</svg>
