<?xml version="1.0" encoding="utf-8"?>
<!-- Generator: Adobe Illustrator 21.1.0, SVG Export Plug-In . SVG Version: 6.00 Build 0)  -->
<svg version="1.1" id="Layer_1" xmlns="http://www.w3.org/2000/svg" xmlns:xlink="http://www.w3.org/1999/xlink" x="0px" y="0px"
	 viewBox="0 0 1000 254" style="enable-background:new 0 0 1000 254;" xml:space="preserve">
<style type="text/css">
	.st0{fill:#93C01F;}
	.st1{fill:#4A4A49;}
	.st2{fill:#8C1D80;}
	.st3{fill:#0098C3;}
</style>
<g>
	<g>
		<rect x="63.3" y="10.5" class="st0" width="43.9" height="43.9"/>
		<g>
			<g>
				<path class="st1" d="M166.9,19.9H159c-0.5,0-0.9-0.4-0.9-0.9v-2.7c0-0.5,0.4-0.9,0.9-0.9h21c0.5,0,0.9,0.4,0.9,0.9V19
					c0,0.5-0.4,0.9-0.9,0.9H172v28.6c0,0.5-0.4,0.9-0.9,0.9h-3.2c-0.5,0-0.9-0.4-0.9-0.9V19.9z"/>
				<path class="st1" d="M200.7,14.9c9.7,0,17.5,7.8,17.5,17.6S210.4,50,200.7,50s-17.5-7.7-17.5-17.5S190.9,14.9,200.7,14.9z
					 M200.7,45.1c7,0,12.7-5.7,12.7-12.6c0-6.9-5.7-12.7-12.7-12.7c-6.9,0-12.6,5.8-12.6,12.7C188,39.4,193.7,45.1,200.7,45.1z"/>
				<path class="st1" d="M229.4,19.9h-7.9c-0.5,0-0.9-0.4-0.9-0.9v-2.7c0-0.5,0.4-0.9,0.9-0.9h21c0.5,0,0.9,0.4,0.9,0.9V19
					c0,0.5-0.4,0.9-0.9,0.9h-7.9v28.6c0,0.5-0.4,0.9-0.9,0.9h-3.2c-0.5,0-0.9-0.4-0.9-0.9V19.9z"/>
				<path class="st1" d="M242.1,48.2l15-32.8c0.1-0.3,0.6-0.5,0.8-0.5h0.5c0.2,0,0.7,0.2,0.8,0.5l14.9,32.8c0.3,0.6-0.1,1.3-0.8,1.3
					h-3.1c-0.6,0-0.9-0.3-1.1-0.7l-3-6.7h-15.9c-1,2.2-2,4.4-3,6.7c-0.1,0.3-0.5,0.7-1.1,0.7H243C242.2,49.5,241.8,48.8,242.1,48.2z
					 M264.2,37.9l-6-13.4H258L252,37.9H264.2z"/>
				<path class="st1" d="M279,16.3c0-0.5,0.4-0.9,0.9-0.9h3.2c0.5,0,0.9,0.4,0.9,0.9v28.7h13.2c0.5,0,0.9,0.4,0.9,0.9v2.7
					c0,0.5-0.4,0.9-0.9,0.9h-17.3c-0.5,0-0.9-0.4-0.9-0.9V16.3z"/>
				<path class="st1" d="M314,16.3c0-0.5,0.4-0.9,0.9-0.9H326c6,0,10.9,4.9,10.9,10.8c0,6-4.9,11-10.9,11H319v11.5
					c0,0.5-0.4,0.9-0.9,0.9h-3.2c-0.5,0-0.9-0.4-0.9-0.9V16.3z M325.8,32.3c3.4,0,6.2-2.7,6.2-6.2c0-3.3-2.8-5.8-6.2-5.8H319v12.1
					H325.8z"/>
				<path class="st1" d="M343,16.3c0-0.5,0.4-0.9,0.9-0.9h13.3c5.8,0,10.6,4.6,10.6,10.4c0,4.5-3,8.2-7.2,9.9l6.7,12.4
					c0.3,0.6,0,1.4-0.8,1.4h-3.8c-0.4,0-0.7-0.2-0.8-0.4l-6.5-12.9H348v12.4c0,0.5-0.4,0.9-0.9,0.9h-3.2c-0.5,0-0.9-0.4-0.9-0.9
					V16.3z M356.7,31.9c3.2,0,5.9-2.7,5.9-6c0-3.2-2.8-5.8-5.9-5.8h-8.7v11.8H356.7z"/>
				<path class="st1" d="M390.4,14.9c9.7,0,17.5,7.8,17.5,17.6S400.1,50,390.4,50c-9.7,0-17.5-7.7-17.5-17.5S380.6,14.9,390.4,14.9z
					 M390.4,45.1c7,0,12.7-5.7,12.7-12.6c0-6.9-5.7-12.7-12.7-12.7c-6.9,0-12.6,5.8-12.6,12.7C377.7,39.4,383.4,45.1,390.4,45.1z"/>
				<path class="st1" d="M421,33l-11.4-16.3c-0.4-0.6,0-1.4,0.8-1.4h3.6c0.4,0,0.6,0.2,0.8,0.4l8.8,12.4l8.8-12.4
					c0.1-0.2,0.4-0.4,0.8-0.4h3.7c0.8,0,1.2,0.8,0.8,1.4L426,33v15.5c0,0.5-0.4,0.9-0.9,0.9h-3.2c-0.5,0-0.9-0.4-0.9-0.9V33z"/>
				<path class="st1" d="M442.3,16.3c0-0.5,0.4-0.9,0.9-0.9h19.5c0.5,0,0.9,0.4,0.9,0.9V19c0,0.5-0.4,0.9-0.9,0.9h-15.4v9.9h13
					c0.5,0,0.9,0.4,0.9,0.9v2.7c0,0.5-0.4,0.9-0.9,0.9h-13v10.5h15.4c0.5,0,0.9,0.4,0.9,0.9v2.7c0,0.5-0.4,0.9-0.9,0.9h-19.5
					c-0.5,0-0.9-0.4-0.9-0.9V16.3z"/>
				<path class="st1" d="M485.9,14.9c4.9,0,8.5,1.7,11.8,4.5c0.4,0.4,0.4,1,0,1.4l-2.1,2.2c-0.3,0.4-0.8,0.4-1.2,0
					c-2.3-2-5.4-3.3-8.4-3.3c-7,0-12.2,5.8-12.2,12.7c0,6.8,5.3,12.6,12.3,12.6c3.6,0,6-1.4,8.4-3.2c0.4-0.3,0.9-0.3,1.2,0l2.2,2.2
					c0.4,0.3,0.3,1,0,1.3c-3.3,3.2-7.5,4.7-11.8,4.7c-9.7,0-17.6-7.7-17.6-17.5S476.2,14.9,485.9,14.9z"/>
				<path class="st1" d="M509.4,19.9h-7.9c-0.5,0-0.9-0.4-0.9-0.9v-2.7c0-0.5,0.4-0.9,0.9-0.9h21c0.5,0,0.9,0.4,0.9,0.9V19
					c0,0.5-0.4,0.9-0.9,0.9h-7.9v28.6c0,0.5-0.4,0.9-0.9,0.9h-3.2c-0.5,0-0.9-0.4-0.9-0.9V19.9z"/>
				<path class="st1" d="M543.1,14.9c9.7,0,17.5,7.8,17.5,17.6S552.9,50,543.1,50s-17.5-7.7-17.5-17.5S533.4,14.9,543.1,14.9z
					 M543.1,45.1c7,0,12.7-5.7,12.7-12.6c0-6.9-5.7-12.7-12.7-12.7c-6.9,0-12.6,5.8-12.6,12.7C530.5,39.4,536.2,45.1,543.1,45.1z"/>
				<path class="st1" d="M565.5,44.5c0.4-0.6,0.8-1.4,1.3-2c0.4-0.6,1.1-0.8,1.7-0.4c0.3,0.2,4,3.4,7.8,3.4c3.4,0,5.5-2,5.5-4.5
					c0-2.9-2.5-4.8-7.4-6.8c-5-2.1-8.9-4.7-8.9-10.3c0-3.8,2.9-9,10.7-9c4.9,0,8.5,2.5,9,2.9c0.4,0.2,0.8,0.9,0.3,1.7
					c-0.4,0.6-0.8,1.3-1.2,1.9c-0.4,0.6-1,0.9-1.7,0.5c-0.3-0.2-3.8-2.4-6.6-2.4c-4.1,0-5.5,2.6-5.5,4.4c0,2.8,2.1,4.5,6.2,6.1
					c5.7,2.3,10.5,5,10.5,10.9c0,5.1-4.5,9.2-10.9,9.2c-5.9,0-9.7-3.1-10.5-3.8C565.3,45.7,565,45.4,565.5,44.5z"/>
				<path class="st1" d="M604.5,16.3c0-0.5,0.4-0.9,0.9-0.9h11.1c6,0,10.9,4.9,10.9,10.8c0,6-4.9,11-10.9,11h-7.1v11.5
					c0,0.5-0.4,0.9-0.9,0.9h-3.2c-0.5,0-0.9-0.4-0.9-0.9V16.3z M616.3,32.3c3.4,0,6.2-2.7,6.2-6.2c0-3.3-2.8-5.8-6.2-5.8h-6.7v12.1
					H616.3z"/>
				<path class="st1" d="M633.5,16.3c0-0.5,0.4-0.9,0.9-0.9h13.3c5.8,0,10.6,4.6,10.6,10.4c0,4.5-3,8.2-7.2,9.9l6.7,12.4
					c0.3,0.6,0,1.4-0.8,1.4h-3.8c-0.4,0-0.7-0.2-0.8-0.4l-6.5-12.9h-7.4v12.4c0,0.5-0.4,0.9-0.9,0.9h-3.2c-0.5,0-0.9-0.4-0.9-0.9
					V16.3z M647.3,31.9c3.2,0,5.9-2.7,5.9-6c0-3.2-2.8-5.8-5.9-5.8h-8.7v11.8H647.3z"/>
				<path class="st1" d="M665.9,16.3c0-0.5,0.4-0.9,0.9-0.9h19.5c0.5,0,0.9,0.4,0.9,0.9V19c0,0.5-0.4,0.9-0.9,0.9h-15.4v9.9h13
					c0.5,0,0.9,0.4,0.9,0.9v2.7c0,0.5-0.4,0.9-0.9,0.9h-13v10.5h15.4c0.5,0,0.9,0.4,0.9,0.9v2.7c0,0.5-0.4,0.9-0.9,0.9h-19.5
					c-0.5,0-0.9-0.4-0.9-0.9V16.3z"/>
				<path class="st1" d="M692.4,44.5c0.4-0.6,0.8-1.4,1.3-2c0.4-0.6,1.1-0.8,1.7-0.4c0.3,0.2,4,3.4,7.8,3.4c3.4,0,5.5-2,5.5-4.5
					c0-2.9-2.5-4.8-7.4-6.8c-5-2.1-8.9-4.7-8.9-10.3c0-3.8,2.9-9,10.7-9c4.9,0,8.5,2.5,9,2.9c0.4,0.2,0.8,0.9,0.3,1.7
					c-0.4,0.6-0.8,1.3-1.2,1.9c-0.4,0.6-1,0.9-1.7,0.5c-0.3-0.2-3.8-2.4-6.6-2.4c-4.1,0-5.5,2.6-5.5,4.4c0,2.8,2.1,4.5,6.2,6.1
					c5.7,2.3,10.5,5,10.5,10.9c0,5.1-4.5,9.2-10.9,9.2c-5.9,0-9.7-3.1-10.5-3.8C692.2,45.7,691.9,45.4,692.4,44.5z"/>
				<path class="st1" d="M720.7,16.3c0-0.5,0.4-0.9,0.9-0.9h19.5c0.5,0,0.9,0.4,0.9,0.9V19c0,0.5-0.4,0.9-0.9,0.9h-15.4v9.9h13
					c0.5,0,0.9,0.4,0.9,0.9v2.7c0,0.5-0.4,0.9-0.9,0.9h-13v10.5h15.4c0.5,0,0.9,0.4,0.9,0.9v2.7c0,0.5-0.4,0.9-0.9,0.9h-19.5
					c-0.5,0-0.9-0.4-0.9-0.9V16.3z"/>
				<path class="st1" d="M749.5,15.7c0-0.5,0.4-0.9,0.9-0.9h1.2l21.1,24.5h0v-23c0-0.5,0.4-0.9,0.9-0.9h3.1c0.5,0,0.9,0.4,0.9,0.9
					v32.8c0,0.5-0.4,0.9-0.9,0.9h-1.3l-21.1-25.1h0v23.7c0,0.5-0.4,0.9-0.9,0.9h-3.1c-0.5,0-0.9-0.4-0.9-0.9V15.7z"/>
				<path class="st1" d="M791.9,19.9H784c-0.5,0-0.9-0.4-0.9-0.9v-2.7c0-0.5,0.4-0.9,0.9-0.9h21c0.5,0,0.9,0.4,0.9,0.9V19
					c0,0.5-0.4,0.9-0.9,0.9H797v28.6c0,0.5-0.4,0.9-0.9,0.9h-3.2c-0.5,0-0.9-0.4-0.9-0.9V19.9z"/>
				<path class="st1" d="M804.7,48.2l15-32.8c0.1-0.3,0.6-0.5,0.8-0.5h0.5c0.2,0,0.7,0.2,0.8,0.5l14.9,32.8c0.3,0.6-0.1,1.3-0.8,1.3
					h-3.1c-0.6,0-0.9-0.3-1.1-0.7l-3-6.7h-15.9c-1,2.2-2,4.4-3,6.7c-0.1,0.3-0.5,0.7-1.1,0.7h-3.1C804.8,49.5,804.4,48.8,804.7,48.2
					z M826.7,37.9l-6-13.4h-0.2l-5.9,13.4H826.7z"/>
				<path class="st1" d="M841.5,16.3c0-0.5,0.4-0.9,0.9-0.9h11.2c9.4,0,17.1,7.7,17.1,17c0,9.5-7.7,17.1-17.1,17.1h-11.2
					c-0.5,0-0.9-0.4-0.9-0.9V16.3z M852.9,44.8c7.2,0,12.4-5.3,12.4-12.5c0-7.2-5.2-12.4-12.4-12.4h-6.4v24.9H852.9z"/>
				<path class="st1" d="M892.7,14.9c9.7,0,17.5,7.8,17.5,17.6S902.5,50,892.7,50c-9.7,0-17.5-7.7-17.5-17.5S883,14.9,892.7,14.9z
					 M892.7,45.1c7,0,12.7-5.7,12.7-12.6c0-6.9-5.7-12.7-12.7-12.7c-6.9,0-12.6,5.8-12.6,12.7C880.1,39.4,885.8,45.1,892.7,45.1z"/>
				<path class="st1" d="M915,44.5c0.4-0.6,0.8-1.4,1.3-2c0.4-0.6,1.1-0.8,1.7-0.4c0.3,0.2,4,3.4,7.8,3.4c3.4,0,5.5-2,5.5-4.5
					c0-2.9-2.5-4.8-7.4-6.8c-5-2.1-8.9-4.7-8.9-10.3c0-3.8,2.9-9,10.7-9c4.9,0,8.5,2.5,9,2.9c0.4,0.2,0.8,0.9,0.3,1.7
					c-0.4,0.6-0.8,1.3-1.2,1.9c-0.4,0.6-1,0.9-1.7,0.5c-0.3-0.2-3.8-2.4-6.6-2.4c-4.1,0-5.5,2.6-5.5,4.4c0,2.8,2.1,4.5,6.2,6.1
					c5.7,2.3,10.5,5,10.5,10.9c0,5.1-4.5,9.2-10.9,9.2c-5.9,0-9.7-3.1-10.5-3.8C914.9,45.7,914.5,45.4,915,44.5z"/>
			</g>
		</g>
	</g>
	<g>
		<rect x="63.3" y="105.1" class="st2" width="43.9" height="43.9"/>
		<g>
			<path class="st1" d="M167.1,114.5h-7.9c-0.5,0-0.9-0.4-0.9-0.9v-2.7c0-0.5,0.4-0.9,0.9-0.9h21c0.5,0,0.9,0.4,0.9,0.9v2.7
				c0,0.5-0.4,0.9-0.9,0.9h-7.9v28.6c0,0.5-0.4,0.9-0.9,0.9h-3.2c-0.5,0-0.9-0.4-0.9-0.9V114.5z"/>
			<path class="st1" d="M200.9,109.5c9.7,0,17.5,7.8,17.5,17.6s-7.8,17.5-17.5,17.5c-9.7,0-17.5-7.7-17.5-17.5
				S191.1,109.5,200.9,109.5z M200.9,139.7c7,0,12.7-5.7,12.7-12.6c0-6.9-5.7-12.7-12.7-12.7c-6.9,0-12.6,5.8-12.6,12.7
				C188.2,134,193.9,139.7,200.9,139.7z"/>
			<path class="st1" d="M229.6,114.5h-7.9c-0.5,0-0.9-0.4-0.9-0.9v-2.7c0-0.5,0.4-0.9,0.9-0.9h21c0.5,0,0.9,0.4,0.9,0.9v2.7
				c0,0.5-0.4,0.9-0.9,0.9h-7.9v28.6c0,0.5-0.4,0.9-0.9,0.9h-3.2c-0.5,0-0.9-0.4-0.9-0.9V114.5z"/>
			<path class="st1" d="M242.3,142.8l15-32.8c0.1-0.3,0.6-0.5,0.8-0.5h0.5c0.2,0,0.7,0.2,0.8,0.5l14.9,32.8c0.3,0.6-0.1,1.3-0.8,1.3
				h-3.1c-0.6,0-0.9-0.3-1.1-0.7l-3-6.7h-15.9c-1,2.2-2,4.4-3,6.7c-0.1,0.3-0.5,0.7-1.1,0.7h-3.1C242.4,144.1,242,143.4,242.3,142.8
				z M264.4,132.5l-6-13.4h-0.2l-5.9,13.4H264.4z"/>
			<path class="st1" d="M279.2,110.9c0-0.5,0.4-0.9,0.9-0.9h3.2c0.5,0,0.9,0.4,0.9,0.9v28.7h13.2c0.5,0,0.9,0.4,0.9,0.9v2.7
				c0,0.5-0.4,0.9-0.9,0.9h-17.3c-0.5,0-0.9-0.4-0.9-0.9V110.9z"/>
			<path class="st1" d="M314.2,110.9c0-0.5,0.4-0.9,0.9-0.9h11.1c6,0,10.9,4.9,10.9,10.8c0,6-4.9,11-10.9,11h-7.1v11.5
				c0,0.5-0.4,0.9-0.9,0.9h-3.2c-0.5,0-0.9-0.4-0.9-0.9V110.9z M325.9,126.9c3.4,0,6.2-2.7,6.2-6.2c0-3.3-2.8-5.8-6.2-5.8h-6.7v12.1
				H325.9z"/>
			<path class="st1" d="M343.1,110.9c0-0.5,0.4-0.9,0.9-0.9h13.3c5.8,0,10.6,4.6,10.6,10.4c0,4.5-3,8.2-7.2,9.9l6.7,12.4
				c0.3,0.6,0,1.4-0.8,1.4h-3.8c-0.4,0-0.7-0.2-0.8-0.4l-6.5-12.9h-7.4v12.4c0,0.5-0.4,0.9-0.9,0.9h-3.2c-0.5,0-0.9-0.4-0.9-0.9
				V110.9z M356.9,126.5c3.2,0,5.9-2.7,5.9-6c0-3.2-2.8-5.8-5.9-5.8h-8.7v11.8H356.9z"/>
			<path class="st1" d="M390.6,109.5c9.7,0,17.5,7.8,17.5,17.6s-7.8,17.5-17.5,17.5c-9.7,0-17.5-7.7-17.5-17.5
				S380.8,109.5,390.6,109.5z M390.6,139.7c7,0,12.7-5.7,12.7-12.6c0-6.9-5.7-12.7-12.7-12.7c-6.9,0-12.6,5.8-12.6,12.7
				C377.9,134,383.6,139.7,390.6,139.7z"/>
			<path class="st1" d="M421.2,127.6l-11.4-16.3c-0.4-0.6,0-1.4,0.8-1.4h3.6c0.4,0,0.6,0.2,0.8,0.4l8.8,12.4l8.8-12.4
				c0.1-0.2,0.4-0.4,0.8-0.4h3.7c0.8,0,1.2,0.8,0.8,1.4l-11.5,16.2v15.5c0,0.5-0.4,0.9-0.9,0.9h-3.2c-0.5,0-0.9-0.4-0.9-0.9V127.6z"
				/>
			<path class="st1" d="M442.5,110.9c0-0.5,0.4-0.9,0.9-0.9h19.5c0.5,0,0.9,0.4,0.9,0.9v2.7c0,0.5-0.4,0.9-0.9,0.9h-15.4v9.9h13
				c0.5,0,0.9,0.4,0.9,0.9v2.7c0,0.5-0.4,0.9-0.9,0.9h-13v10.5h15.4c0.5,0,0.9,0.4,0.9,0.9v2.7c0,0.5-0.4,0.9-0.9,0.9h-19.5
				c-0.5,0-0.9-0.4-0.9-0.9V110.9z"/>
			<path class="st1" d="M486.1,109.5c4.9,0,8.5,1.7,11.8,4.5c0.4,0.4,0.4,1,0,1.4l-2.1,2.2c-0.3,0.4-0.8,0.4-1.2,0
				c-2.3-2-5.4-3.3-8.4-3.3c-7,0-12.2,5.8-12.2,12.7c0,6.8,5.3,12.6,12.3,12.6c3.6,0,6-1.4,8.4-3.2c0.4-0.3,0.9-0.3,1.2,0l2.2,2.2
				c0.4,0.3,0.3,1,0,1.3c-3.3,3.2-7.5,4.7-11.8,4.7c-9.7,0-17.6-7.7-17.6-17.5S476.4,109.5,486.1,109.5z"/>
			<path class="st1" d="M509.6,114.5h-7.9c-0.5,0-0.9-0.4-0.9-0.9v-2.7c0-0.5,0.4-0.9,0.9-0.9h21c0.5,0,0.9,0.4,0.9,0.9v2.7
				c0,0.5-0.4,0.9-0.9,0.9h-7.9v28.6c0,0.5-0.4,0.9-0.9,0.9h-3.2c-0.5,0-0.9-0.4-0.9-0.9V114.5z"/>
			<path class="st1" d="M543.3,109.5c9.7,0,17.5,7.8,17.5,17.6s-7.8,17.5-17.5,17.5s-17.5-7.7-17.5-17.5S533.6,109.5,543.3,109.5z
				 M543.3,139.7c7,0,12.7-5.7,12.7-12.6c0-6.9-5.7-12.7-12.7-12.7c-6.9,0-12.6,5.8-12.6,12.7C530.7,134,536.4,139.7,543.3,139.7z"
				/>
			<path class="st1" d="M565.6,139.1c0.4-0.6,0.8-1.4,1.3-2s1.1-0.8,1.7-0.4c0.3,0.2,4,3.4,7.8,3.4c3.4,0,5.5-2,5.5-4.5
				c0-2.9-2.5-4.8-7.4-6.8c-5-2.1-8.9-4.7-8.9-10.3c0-3.8,2.9-9,10.7-9c4.9,0,8.5,2.5,9,2.9c0.4,0.2,0.8,0.9,0.3,1.7
				c-0.4,0.6-0.8,1.3-1.2,1.9c-0.4,0.6-1,0.9-1.7,0.5c-0.3-0.2-3.8-2.4-6.6-2.4c-4.1,0-5.5,2.6-5.5,4.4c0,2.8,2.1,4.5,6.2,6.1
				c5.7,2.3,10.5,5,10.5,10.9c0,5.1-4.5,9.2-10.9,9.2c-5.9,0-9.7-3.1-10.5-3.8C565.5,140.3,565.2,140,565.6,139.1z"/>
			<path class="st1" d="M604.7,110.9c0-0.5,0.4-0.9,0.9-0.9h19.5c0.5,0,0.9,0.4,0.9,0.9v2.7c0,0.5-0.4,0.9-0.9,0.9h-15.4v11.3h13
				c0.5,0,0.9,0.4,0.9,0.9v2.7c0,0.5-0.4,0.9-0.9,0.9h-13v12.8c0,0.5-0.4,0.9-0.9,0.9h-3.2c-0.5,0-0.9-0.4-0.9-0.9V110.9z"/>
			<path class="st1" d="M626.6,142.8l15-32.8c0.1-0.3,0.6-0.5,0.8-0.5h0.5c0.2,0,0.7,0.2,0.8,0.5l14.9,32.8c0.3,0.6-0.1,1.3-0.8,1.3
				h-3.1c-0.6,0-0.9-0.3-1.1-0.7l-3-6.7h-15.9c-1,2.2-2,4.4-3,6.7c-0.1,0.3-0.5,0.7-1.1,0.7h-3.1
				C626.7,144.1,626.3,143.4,626.6,142.8z M648.7,132.5l-6-13.4h-0.2l-5.9,13.4H648.7z"/>
			<path class="st1" d="M678.3,109.5c4.9,0,8.5,1.7,11.8,4.5c0.4,0.4,0.4,1,0,1.4l-2.1,2.2c-0.3,0.4-0.8,0.4-1.2,0
				c-2.3-2-5.4-3.3-8.4-3.3c-7,0-12.2,5.8-12.2,12.7c0,6.8,5.3,12.6,12.3,12.6c3.6,0,6-1.4,8.4-3.2c0.4-0.3,0.9-0.3,1.2,0l2.2,2.2
				c0.4,0.3,0.3,1,0,1.3c-3.3,3.2-7.5,4.7-11.8,4.7c-9.7,0-17.6-7.7-17.6-17.5S668.6,109.5,678.3,109.5z"/>
			<path class="st1" d="M701.8,114.5h-7.9c-0.5,0-0.9-0.4-0.9-0.9v-2.7c0-0.5,0.4-0.9,0.9-0.9h21c0.5,0,0.9,0.4,0.9,0.9v2.7
				c0,0.5-0.4,0.9-0.9,0.9h-7.9v28.6c0,0.5-0.4,0.9-0.9,0.9h-3.2c-0.5,0-0.9-0.4-0.9-0.9V114.5z"/>
			<path class="st1" d="M721,110.9c0-0.5,0.4-0.9,0.9-0.9h3.2c0.5,0,0.9,0.4,0.9,0.9v32.3c0,0.5-0.4,0.9-0.9,0.9H722
				c-0.5,0-0.9-0.4-0.9-0.9V110.9z"/>
			<path class="st1" d="M735.6,110.9c0-0.5,0.4-0.9,0.9-0.9h10.9c5.9,0,10.1,3.9,10.1,9c0,3.8-2.8,6.4-5.1,7.7
				c2.6,1.1,6.1,3.5,6.1,7.9c0,5.5-4.5,9.4-10.6,9.4h-11.5c-0.5,0-0.9-0.4-0.9-0.9V110.9z M747.9,139.6c3,0,5.3-2.3,5.3-5.3
				c0-3-2.8-5.1-6-5.1h-6.7v10.4H747.9z M747.1,124.8c3.1,0,5-2.3,5-5.2c0-3-1.9-5-5-5h-6.6v10.2H747.1z"/>
			<path class="st1" d="M765.9,110.9c0-0.5,0.4-0.9,0.9-0.9h3.2c0.5,0,0.9,0.4,0.9,0.9v28.7h13.2c0.5,0,0.9,0.4,0.9,0.9v2.7
				c0,0.5-0.4,0.9-0.9,0.9h-17.3c-0.5,0-0.9-0.4-0.9-0.9V110.9z"/>
			<path class="st1" d="M790.2,110.9c0-0.5,0.4-0.9,0.9-0.9h19.5c0.5,0,0.9,0.4,0.9,0.9v2.7c0,0.5-0.4,0.9-0.9,0.9h-15.4v9.9h13
				c0.5,0,0.9,0.4,0.9,0.9v2.7c0,0.5-0.4,0.9-0.9,0.9h-13v10.5h15.4c0.5,0,0.9,0.4,0.9,0.9v2.7c0,0.5-0.4,0.9-0.9,0.9h-19.5
				c-0.5,0-0.9-0.4-0.9-0.9V110.9z"/>
			<path class="st1" d="M816.7,139.1c0.4-0.6,0.8-1.4,1.3-2s1.1-0.8,1.7-0.4c0.3,0.2,4,3.4,7.8,3.4c3.4,0,5.5-2,5.5-4.5
				c0-2.9-2.5-4.8-7.4-6.8c-5-2.1-8.9-4.7-8.9-10.3c0-3.8,2.9-9,10.7-9c4.9,0,8.5,2.5,9,2.9c0.4,0.2,0.8,0.9,0.3,1.7
				c-0.4,0.6-0.8,1.3-1.2,1.9c-0.4,0.6-1,0.9-1.7,0.5c-0.3-0.2-3.8-2.4-6.6-2.4c-4.1,0-5.5,2.6-5.5,4.4c0,2.8,2.1,4.5,6.2,6.1
				c5.7,2.3,10.5,5,10.5,10.9c0,5.1-4.5,9.2-10.9,9.2c-5.9,0-9.7-3.1-10.5-3.8C816.5,140.3,816.2,140,816.7,139.1z"/>
		</g>
	</g>
	<g>
		<rect x="63.3" y="199.7" class="st3" width="43.9" height="43.9"/>
		<g>
			<path class="st1" d="M167.1,209.1h-7.9c-0.5,0-0.9-0.4-0.9-0.9v-2.7c0-0.5,0.4-0.9,0.9-0.9h21c0.5,0,0.9,0.4,0.9,0.9v2.7
				c0,0.5-0.4,0.9-0.9,0.9h-7.9v28.6c0,0.5-0.4,0.9-0.9,0.9h-3.2c-0.5,0-0.9-0.4-0.9-0.9V209.1z"/>
			<path class="st1" d="M200.9,204c9.7,0,17.5,7.8,17.5,17.6c0,9.7-7.8,17.5-17.5,17.5c-9.7,0-17.5-7.7-17.5-17.5
				C183.4,211.9,191.1,204,200.9,204z M200.9,234.3c7,0,12.7-5.7,12.7-12.6c0-6.9-5.7-12.7-12.7-12.7c-6.9,0-12.6,5.8-12.6,12.7
				C188.2,228.6,193.9,234.3,200.9,234.3z"/>
			<path class="st1" d="M229.6,209.1h-7.9c-0.5,0-0.9-0.4-0.9-0.9v-2.7c0-0.5,0.4-0.9,0.9-0.9h21c0.5,0,0.9,0.4,0.9,0.9v2.7
				c0,0.5-0.4,0.9-0.9,0.9h-7.9v28.6c0,0.5-0.4,0.9-0.9,0.9h-3.2c-0.5,0-0.9-0.4-0.9-0.9V209.1z"/>
			<path class="st1" d="M242.3,237.4l15-32.8c0.1-0.3,0.6-0.5,0.8-0.5h0.5c0.2,0,0.7,0.2,0.8,0.5l14.9,32.8c0.3,0.6-0.1,1.3-0.8,1.3
				h-3.1c-0.6,0-0.9-0.3-1.1-0.7l-3-6.7h-15.9c-1,2.2-2,4.4-3,6.7c-0.1,0.3-0.5,0.7-1.1,0.7h-3.1C242.4,238.6,242,238,242.3,237.4z
				 M264.4,227l-6-13.4h-0.2l-5.9,13.4H264.4z"/>
			<path class="st1" d="M279.2,205.5c0-0.5,0.4-0.9,0.9-0.9h3.2c0.5,0,0.9,0.4,0.9,0.9v28.7h13.2c0.5,0,0.9,0.4,0.9,0.9v2.7
				c0,0.5-0.4,0.9-0.9,0.9h-17.3c-0.5,0-0.9-0.4-0.9-0.9V205.5z"/>
			<path class="st1" d="M314.2,205.5c0-0.5,0.4-0.9,0.9-0.9h11.1c6,0,10.9,4.9,10.9,10.8c0,6-4.9,11-10.9,11h-7.1v11.5
				c0,0.5-0.4,0.9-0.9,0.9h-3.2c-0.5,0-0.9-0.4-0.9-0.9V205.5z M325.9,221.5c3.4,0,6.2-2.7,6.2-6.2c0-3.3-2.8-5.8-6.2-5.8h-6.7v12.1
				H325.9z"/>
			<path class="st1" d="M343.1,205.5c0-0.5,0.4-0.9,0.9-0.9h13.3c5.8,0,10.6,4.6,10.6,10.4c0,4.5-3,8.2-7.2,9.9l6.7,12.4
				c0.3,0.6,0,1.4-0.8,1.4h-3.8c-0.4,0-0.7-0.2-0.8-0.4l-6.5-12.9h-7.4v12.4c0,0.5-0.4,0.9-0.9,0.9h-3.2c-0.5,0-0.9-0.4-0.9-0.9
				V205.5z M356.9,221.1c3.2,0,5.9-2.7,5.9-6c0-3.2-2.8-5.8-5.9-5.8h-8.7v11.8H356.9z"/>
			<path class="st1" d="M390.6,204c9.7,0,17.5,7.8,17.5,17.6c0,9.7-7.8,17.5-17.5,17.5c-9.7,0-17.5-7.7-17.5-17.5
				C373.1,211.9,380.8,204,390.6,204z M390.6,234.3c7,0,12.7-5.7,12.7-12.6c0-6.9-5.7-12.7-12.7-12.7c-6.9,0-12.6,5.8-12.6,12.7
				C377.9,228.6,383.6,234.3,390.6,234.3z"/>
			<path class="st1" d="M421.2,222.2l-11.4-16.3c-0.4-0.6,0-1.4,0.8-1.4h3.6c0.4,0,0.6,0.2,0.8,0.4l8.8,12.4l8.8-12.4
				c0.1-0.2,0.4-0.4,0.8-0.4h3.7c0.8,0,1.2,0.8,0.8,1.4l-11.5,16.2v15.5c0,0.5-0.4,0.9-0.9,0.9h-3.2c-0.5,0-0.9-0.4-0.9-0.9V222.2z"
				/>
			<path class="st1" d="M442.5,205.5c0-0.5,0.4-0.9,0.9-0.9h19.5c0.5,0,0.9,0.4,0.9,0.9v2.7c0,0.5-0.4,0.9-0.9,0.9h-15.4v9.9h13
				c0.5,0,0.9,0.4,0.9,0.9v2.7c0,0.5-0.4,0.9-0.9,0.9h-13v10.5h15.4c0.5,0,0.9,0.4,0.9,0.9v2.7c0,0.5-0.4,0.9-0.9,0.9h-19.5
				c-0.5,0-0.9-0.4-0.9-0.9V205.5z"/>
			<path class="st1" d="M486.1,204c4.9,0,8.5,1.7,11.8,4.5c0.4,0.4,0.4,1,0,1.4l-2.1,2.2c-0.3,0.4-0.8,0.4-1.2,0
				c-2.3-2-5.4-3.3-8.4-3.3c-7,0-12.2,5.8-12.2,12.7c0,6.8,5.3,12.6,12.3,12.6c3.6,0,6-1.4,8.4-3.2c0.4-0.3,0.9-0.3,1.2,0l2.2,2.2
				c0.4,0.3,0.3,1,0,1.3c-3.3,3.2-7.5,4.7-11.8,4.7c-9.7,0-17.6-7.7-17.6-17.5C468.5,211.9,476.4,204,486.1,204z"/>
			<path class="st1" d="M509.6,209.1h-7.9c-0.5,0-0.9-0.4-0.9-0.9v-2.7c0-0.5,0.4-0.9,0.9-0.9h21c0.5,0,0.9,0.4,0.9,0.9v2.7
				c0,0.5-0.4,0.9-0.9,0.9h-7.9v28.6c0,0.5-0.4,0.9-0.9,0.9h-3.2c-0.5,0-0.9-0.4-0.9-0.9V209.1z"/>
			<path class="st1" d="M543.3,204c9.7,0,17.5,7.8,17.5,17.6c0,9.7-7.8,17.5-17.5,17.5s-17.5-7.7-17.5-17.5
				C525.8,211.9,533.6,204,543.3,204z M543.3,234.3c7,0,12.7-5.7,12.7-12.6c0-6.9-5.7-12.7-12.7-12.7c-6.9,0-12.6,5.8-12.6,12.7
				C530.7,228.6,536.4,234.3,543.3,234.3z"/>
			<path class="st1" d="M565.6,233.7c0.4-0.6,0.8-1.4,1.3-2c0.4-0.6,1.1-0.8,1.7-0.4c0.3,0.2,4,3.4,7.8,3.4c3.4,0,5.5-2,5.5-4.5
				c0-2.9-2.5-4.8-7.4-6.8c-5-2.1-8.9-4.7-8.9-10.3c0-3.8,2.9-9,10.7-9c4.9,0,8.5,2.5,9,2.9c0.4,0.2,0.8,0.9,0.3,1.7
				c-0.4,0.6-0.8,1.3-1.2,1.9c-0.4,0.6-1,0.9-1.7,0.5c-0.3-0.2-3.8-2.4-6.6-2.4c-4.1,0-5.5,2.6-5.5,4.4c0,2.8,2.1,4.5,6.2,6.1
				c5.7,2.3,10.5,5,10.5,10.9c0,5.1-4.5,9.2-10.9,9.2c-5.9,0-9.7-3.1-10.5-3.8C565.5,234.9,565.2,234.5,565.6,233.7z"/>
			<path class="st1" d="M619.8,204c4.7,0,8.5,1.7,11.8,4.5c0.4,0.4,0.4,1,0,1.4c-0.7,0.8-1.5,1.5-2.2,2.3c-0.4,0.4-0.8,0.4-1.3,0
				c-2.3-2-5.3-3.3-8.3-3.3c-6.9,0-12.2,5.8-12.2,12.7c0,6.8,5.3,12.6,12.2,12.6c4,0,6.8-1.5,7.3-1.7V227h-4.8
				c-0.5,0-0.9-0.4-0.9-0.9v-2.8c0-0.5,0.4-0.9,0.9-0.9h8.9c0.5,0,0.9,0.4,0.9,0.9c0,3.9,0,7.9,0,11.8c0,0.2-0.2,0.6-0.4,0.8
				c0,0-5,3.2-12.1,3.2c-9.7,0-17.5-7.7-17.5-17.5C602.2,211.9,610.1,204,619.8,204z"/>
			<path class="st1" d="M635.3,237.4l15-32.8c0.1-0.3,0.6-0.5,0.8-0.5h0.5c0.2,0,0.7,0.2,0.8,0.5l14.9,32.8c0.3,0.6-0.1,1.3-0.8,1.3
				h-3.1c-0.6,0-0.9-0.3-1.1-0.7l-3-6.7h-15.9c-1,2.2-2,4.4-3,6.7c-0.1,0.3-0.5,0.7-1.1,0.7h-3.1C635.4,238.6,635,238,635.3,237.4z
				 M657.4,227l-6-13.4h-0.2l-5.9,13.4H657.4z"/>
			<path class="st1" d="M672.2,204.9c0-0.5,0.4-0.9,0.9-0.9h1.2l21.1,24.5h0v-23c0-0.5,0.4-0.9,0.9-0.9h3.1c0.5,0,0.9,0.4,0.9,0.9
				v32.8c0,0.5-0.4,0.9-0.9,0.9h-1.3L677.1,214h0v23.7c0,0.5-0.4,0.9-0.9,0.9h-3.1c-0.5,0-0.9-0.4-0.9-0.9V204.9z"/>
			<path class="st1" d="M705.3,237.4l15-32.8c0.1-0.3,0.6-0.5,0.8-0.5h0.5c0.2,0,0.7,0.2,0.8,0.5l14.9,32.8c0.3,0.6-0.1,1.3-0.8,1.3
				h-3.1c-0.6,0-0.9-0.3-1.1-0.7l-3-6.7h-15.9c-1,2.2-2,4.4-3,6.7c-0.1,0.3-0.5,0.7-1.1,0.7h-3.1C705.4,238.6,705.1,238,705.3,237.4
				z M727.4,227l-6-13.4h-0.2l-5.9,13.4H727.4z"/>
			<path class="st1" d="M742.2,205.5c0-0.5,0.4-0.9,0.9-0.9h11.2c9.4,0,17.1,7.7,17.1,17c0,9.5-7.7,17.1-17.1,17.1h-11.2
				c-0.5,0-0.9-0.4-0.9-0.9V205.5z M753.6,234c7.2,0,12.4-5.3,12.4-12.5c0-7.2-5.2-12.4-12.4-12.4h-6.4V234H753.6z"/>
			<path class="st1" d="M793.4,204c9.7,0,17.5,7.8,17.5,17.6c0,9.7-7.8,17.5-17.5,17.5c-9.7,0-17.5-7.7-17.5-17.5
				C775.9,211.9,783.7,204,793.4,204z M793.4,234.3c7,0,12.7-5.7,12.7-12.6c0-6.9-5.7-12.7-12.7-12.7c-6.9,0-12.6,5.8-12.6,12.7
				C780.8,228.6,786.5,234.3,793.4,234.3z"/>
			<path class="st1" d="M817.9,205.5c0-0.5,0.4-0.9,0.9-0.9h13.3c5.8,0,10.6,4.6,10.6,10.4c0,4.5-3,8.2-7.2,9.9l6.7,12.4
				c0.3,0.6,0,1.4-0.8,1.4h-3.8c-0.4,0-0.7-0.2-0.8-0.4l-6.5-12.9h-7.4v12.4c0,0.5-0.4,0.9-0.9,0.9h-3.2c-0.5,0-0.9-0.4-0.9-0.9
				V205.5z M831.7,221.1c3.2,0,5.9-2.7,5.9-6c0-3.2-2.8-5.8-5.9-5.8H823v11.8H831.7z"/>
			<path class="st1" d="M850.3,205.5c0-0.5,0.4-0.9,0.9-0.9h19.5c0.5,0,0.9,0.4,0.9,0.9v2.7c0,0.5-0.4,0.9-0.9,0.9h-15.4v9.9h13
				c0.5,0,0.9,0.4,0.9,0.9v2.7c0,0.5-0.4,0.9-0.9,0.9h-13v10.5h15.4c0.5,0,0.9,0.4,0.9,0.9v2.7c0,0.5-0.4,0.9-0.9,0.9h-19.5
				c-0.5,0-0.9-0.4-0.9-0.9V205.5z"/>
			<path class="st1" d="M876.8,233.7c0.4-0.6,0.8-1.4,1.3-2c0.4-0.6,1.1-0.8,1.7-0.4c0.3,0.2,4,3.4,7.8,3.4c3.4,0,5.5-2,5.5-4.5
				c0-2.9-2.5-4.8-7.4-6.8c-5-2.1-8.9-4.7-8.9-10.3c0-3.8,2.9-9,10.7-9c4.9,0,8.5,2.5,9,2.9c0.4,0.2,0.8,0.9,0.3,1.7
				c-0.4,0.6-0.8,1.3-1.2,1.9c-0.4,0.6-1,0.9-1.7,0.5c-0.3-0.2-3.8-2.4-6.6-2.4c-4.1,0-5.5,2.6-5.5,4.4c0,2.8,2.1,4.5,6.2,6.1
				c5.7,2.3,10.5,5,10.5,10.9c0,5.1-4.5,9.2-10.9,9.2c-5.9,0-9.7-3.1-10.5-3.8C876.7,234.9,876.3,234.5,876.8,233.7z"/>
		</g>
	</g>
</g>
</svg>
