<?xml version="1.0" encoding="utf-8"?>
<!-- Generator: Adobe Illustrator 21.1.0, SVG Export Plug-In . SVG Version: 6.00 Build 0)  -->
<svg version="1.1" id="Layer_1" xmlns="http://www.w3.org/2000/svg" xmlns:xlink="http://www.w3.org/1999/xlink" x="0px" y="0px"
	 viewBox="0 0 1000 736.1" style="enable-background:new 0 0 1000 736.1;" xml:space="preserve">
<style type="text/css">
	.st0{fill:#F9C7A8;}
	.st1{fill:#F39A9B;}
	.st2{fill:#EC6E8D;}
	.st3{fill:#D74A88;}
	.st4{fill:#A93790;}
	.st5{fill:#7B2397;}
	.st6{fill:#5C1886;}
	.st7{fill:#461266;}
	.st8{fill:#300C46;}
	.st9{fill:#4A4A49;}
	.st10{fill:#92C472;}
	.st11{fill:none;stroke:#4A4A49;stroke-width:5;stroke-miterlimit:10;}
</style>
<g>
	<g>
		
			<image style="overflow:visible;opacity:0.25;enable-background:new    ;" width="822" height="517" xlink:href="A9D6074445FF7EA0.png"  transform="matrix(0.9988 0 0 0.9981 103.4707 153.3517)">
		</image>
		<g>
			<polygon class="st0" points="108.8,429.9 108.8,664.2 919.5,664.2 919.5,158.1 716.8,272.9 516.5,247.1 313.8,336.2 			"/>
		</g>
	</g>
	<g>
		
			<image style="overflow:visible;opacity:0.25;enable-background:new    ;" width="821" height="475" xlink:href="A9D6074445FF7EA1.png"  transform="matrix(0.9988 0 0 0.9979 104.4707 195.3517)">
		</image>
		<g>
			<polygon class="st1" points="109.9,427.6 109.9,664.2 919.5,664.2 919.5,200.3 716.8,320.9 516.5,336.2 313.8,380.7 			"/>
		</g>
	</g>
	<g>
		
			<image style="overflow:visible;opacity:0.25;enable-background:new    ;" width="822" height="420" xlink:href="A9D6074445FF7EA7.png"  transform="matrix(0.9988 0 0 0.9976 103.4707 250.3517)">
		</image>
		<g>
			<polygon class="st2" points="108.8,429.9 108.8,664.2 919.5,664.2 919.5,255.3 716.8,353.7 516.5,384.2 313.8,407.6 			"/>
		</g>
	</g>
	<g>
		
			<image style="overflow:visible;opacity:0.25;enable-background:new    ;" width="821" height="380" xlink:href="A9D6074445FF7EA2.png"  transform="matrix(0.9988 0 0 0.9974 104.4707 289.3517)">
		</image>
		<g>
			<polygon class="st3" points="109.9,432.2 109.9,663 919.5,663 919.5,294 716.8,383 516.5,458 313.8,444 			"/>
		</g>
	</g>
	<g>
		
			<image style="overflow:visible;opacity:0.25;enable-background:new    ;" width="821" height="131" xlink:href="A9D6074445FF7EA3.png"  transform="matrix(0.9988 0 0 0.9924 104.4707 540.3516)">
		</image>
		<g>
			<polygon class="st4" points="109.9,642 109.9,665.4 919.5,665.4 919.5,545.9 716.8,605.6 514.1,627.9 			"/>
		</g>
	</g>
	<g>
		
			<image style="overflow:visible;opacity:0.25;enable-background:new    ;" width="821" height="48" xlink:href="A9D6074445FF7EAE.png"  transform="matrix(0.9988 0 0 0.9792 104.4707 619.3516)">
		</image>
		<g>
			<polygon class="st5" points="109.9,638.4 109.9,661.9 919.5,661.9 919.5,631.4 716.8,624.4 516.5,624.4 			"/>
		</g>
	</g>
	<polygon class="st6" points="109.9,637.7 109.9,661.9 919.5,661.9 919.5,630.4 716.8,642.5 516.5,624.4 313.8,630.4 	"/>
	<polygon class="st7" points="109.9,634.9 109.9,661.9 867.6,661.9 	"/>
	<polygon class="st8" points="109.9,638.2 110,663 779.6,662.9 	"/>
	<g>
		<path class="st9" d="M81,701.2c2.1-2.4,5-5.9,7.1-8.4c1.4-1.6,2.1-3,2.1-4.1c0-1.4-1-3.1-3.5-3.1c-1.5,0-2.8,1.1-3.6,1.9
			c-0.2,0.2-0.5,0.2-0.8,0l-1-1c-0.2-0.2-0.2-0.5,0-0.7c0,0,2.1-2.8,5.5-2.8c4,0,6.2,2.6,6.2,5.5c0,2.2-1.2,3.7-2.7,5.5
			s-3.5,4.1-5.1,6h7.2c0.3,0,0.5,0.3,0.5,0.5v1.4c0,0.3-0.3,0.5-0.5,0.5H81.5c-0.3,0-0.5-0.3-0.5-0.5V701.2z"/>
		<path class="st9" d="M96.5,692.9c0-6.2,2.5-9.8,7-9.8c4.4,0,6.9,3.7,6.9,9.8c0,6.2-2.5,9.8-6.9,9.8
			C99,702.8,96.5,699.1,96.5,692.9z M107.5,692.9c0-4.6-1.5-7.3-4.1-7.3s-4.1,2.6-4.1,7.3s1.5,7.3,4.1,7.3
			C106.1,700.2,107.5,697.6,107.5,692.9z"/>
		<path class="st9" d="M116.4,687.7l-2.2,1.1c-0.3,0.1-0.5,0.1-0.6-0.2l-0.3-1c-0.1-0.2,0-0.4,0.1-0.6l4-3.6h1.4
			c0.3,0,0.5,0.3,0.5,0.5V702c0,0.3-0.2,0.5-0.5,0.5h-1.7c-0.3,0-0.5-0.3-0.5-0.5v-14.3H116.4z"/>
		<path class="st9" d="M123.2,699.6l1.1-1c0.3-0.2,0.5-0.2,0.8,0.1c0.2,0.2,1.7,1.7,3.8,1.7c1.8,0,3.5-1.2,3.5-3
			c0-1.7-1.4-3.3-4.4-3.3h-1.6c-0.3,0-0.5-0.2-0.5-0.6v-1.2c0-0.4,0.2-0.6,0.6-0.6h1.6c2.6,0,4-1.3,4-3c0-1.9-1.5-3.1-3.2-3.1
			c-1.7,0-2.7,1-3.3,1.6c-0.2,0.2-0.5,0.3-0.7,0.1l-1-0.9c-0.2-0.2-0.2-0.5,0-0.7c0,0,2.1-2.5,5.2-2.5c3.3,0,5.9,2,5.9,5.1
			c0,2.2-1.6,3.8-2.9,4.4v0.1c1.3,0.6,3.4,2.3,3.4,4.7c0,3.1-2.5,5.4-6.4,5.4c-3.5,0-5.1-1.8-5.8-2.5
			C123,700.1,123,699.8,123.2,699.6z"/>
	</g>
	<g>
		<path class="st9" d="M286,701.2c2.1-2.4,5-5.9,7.1-8.4c1.4-1.6,2.1-3,2.1-4.1c0-1.4-1-3.1-3.5-3.1c-1.5,0-2.8,1.1-3.6,1.9
			c-0.2,0.2-0.5,0.2-0.8,0l-1-1c-0.2-0.2-0.2-0.5,0-0.7c0,0,2.1-2.8,5.5-2.8c4,0,6.2,2.6,6.2,5.5c0,2.2-1.2,3.7-2.7,5.5
			s-3.5,4.1-5.1,6h7.2c0.3,0,0.5,0.3,0.5,0.5v1.4c0,0.3-0.3,0.5-0.5,0.5h-10.9c-0.3,0-0.5-0.3-0.5-0.5L286,701.2L286,701.2z"/>
		<path class="st9" d="M301.5,692.9c0-6.2,2.5-9.8,7-9.8c4.4,0,6.9,3.7,6.9,9.8c0,6.2-2.5,9.8-6.9,9.8
			C304,702.8,301.5,699.1,301.5,692.9z M312.6,692.9c0-4.6-1.5-7.3-4.1-7.3s-4.1,2.6-4.1,7.3s1.5,7.3,4.1,7.3
			S312.6,697.6,312.6,692.9z"/>
		<path class="st9" d="M321.4,687.7l-2.2,1.1c-0.3,0.1-0.5,0.1-0.6-0.2l-0.3-1c-0.1-0.2,0-0.4,0.1-0.6l4-3.6h1.4
			c0.3,0,0.5,0.3,0.5,0.5V702c0,0.3-0.2,0.5-0.5,0.5H322c-0.3,0-0.5-0.3-0.5-0.5v-14.3H321.4z"/>
		<path class="st9" d="M327.4,697.8v-1.7l10.4-12.9c0.1-0.1,0.3-0.2,0.4-0.2h1c0.3,0,0.5,0.2,0.5,0.5v12.4h2.3
			c0.3,0,0.5,0.2,0.5,0.5v1.2c0,0.3-0.2,0.5-0.5,0.5h-2.3v3.7c0,0.3-0.3,0.5-0.5,0.5h-1.7c-0.3,0-0.5-0.3-0.5-0.5v-3.7h-9
			C327.6,698.3,327.4,698.1,327.4,697.8z M337.2,696v-8.3l-6.8,8.3H337.2z"/>
	</g>
	<g>
		<path class="st9" d="M488.7,701.2c2.1-2.4,5-5.9,7.1-8.4c1.4-1.6,2.1-3,2.1-4.1c0-1.4-1-3.1-3.5-3.1c-1.5,0-2.8,1.1-3.6,1.9
			c-0.2,0.2-0.5,0.2-0.8,0l-1-1c-0.2-0.2-0.2-0.5,0-0.7c0,0,2.1-2.8,5.5-2.8c4,0,6.2,2.6,6.2,5.5c0,2.2-1.2,3.7-2.7,5.5
			s-3.5,4.1-5.1,6h7.2c0.3,0,0.5,0.3,0.5,0.5v1.4c0,0.3-0.3,0.5-0.5,0.5h-10.9c-0.3,0-0.5-0.3-0.5-0.5L488.7,701.2L488.7,701.2z"/>
		<path class="st9" d="M504.2,692.9c0-6.2,2.5-9.8,7-9.8c4.4,0,6.9,3.7,6.9,9.8c0,6.2-2.5,9.8-6.9,9.8
			C506.7,702.8,504.2,699.1,504.2,692.9z M515.3,692.9c0-4.6-1.5-7.3-4.1-7.3s-4.1,2.6-4.1,7.3s1.5,7.3,4.1,7.3
			S515.3,697.6,515.3,692.9z"/>
		<path class="st9" d="M524.1,687.7l-2.2,1.1c-0.3,0.1-0.5,0.1-0.6-0.2l-0.3-1c-0.1-0.2,0-0.4,0.1-0.6l4-3.6h1.4
			c0.3,0,0.5,0.3,0.5,0.5V702c0,0.3-0.2,0.5-0.5,0.5h-1.7c-0.3,0-0.5-0.3-0.5-0.5v-14.3H524.1z"/>
		<path class="st9" d="M531.4,699.5c0.4-0.3,0.7-0.7,1-1c0.2-0.2,0.4-0.3,0.7,0c0.2,0.3,1.8,1.8,3.9,1.8c2.3,0,3.8-2,3.8-4
			s-1.3-3.6-3.9-3.6h-4.3c-0.6,0-0.9-0.5-0.9-1v-7.8c0-0.3,0.2-0.5,0.5-0.5h8.7c0.3,0,0.5,0.3,0.5,0.5v1.4c0,0.3-0.2,0.5-0.5,0.5
			h-6.7v4.4h2.8c4.1,0,6.5,2.4,6.5,6.1c0,3.5-2.8,6.4-6.7,6.4c-3.1,0-4.8-1.5-5.5-2.3C531,700,531,699.8,531.4,699.5z"/>
	</g>
	<g>
		<path class="st9" d="M690.2,701.4c2.1-2.4,5-5.9,7.1-8.4c1.4-1.6,2.1-3,2.1-4.1c0-1.4-1-3.1-3.5-3.1c-1.5,0-2.8,1.1-3.6,1.9
			c-0.2,0.2-0.5,0.2-0.8,0l-1-1c-0.2-0.2-0.2-0.5,0-0.7c0,0,2.1-2.8,5.5-2.8c4,0,6.2,2.6,6.2,5.5c0,2.2-1.2,3.7-2.7,5.5
			s-3.5,4.1-5.1,6h7.2c0.3,0,0.5,0.3,0.5,0.5v1.4c0,0.3-0.3,0.5-0.5,0.5h-10.9c-0.3,0-0.5-0.3-0.5-0.5V701.4z"/>
		<path class="st9" d="M705.7,693.1c0-6.2,2.5-9.8,7-9.8c4.4,0,6.9,3.7,6.9,9.8c0,6.2-2.5,9.8-6.9,9.8
			C708.2,703,705.7,699.3,705.7,693.1z M716.8,693.1c0-4.6-1.5-7.3-4.1-7.3s-4.1,2.6-4.1,7.3s1.5,7.3,4.1,7.3
			S716.8,697.8,716.8,693.1z"/>
		<path class="st9" d="M725.6,687.9l-2.2,1.1c-0.3,0.1-0.5,0.1-0.6-0.2l-0.3-1c-0.1-0.2,0-0.4,0.1-0.6l4-3.6h1.4
			c0.3,0,0.5,0.3,0.5,0.5v18.1c0,0.3-0.2,0.5-0.5,0.5h-1.7c-0.3,0-0.5-0.3-0.5-0.5v-14.3H725.6z"/>
		<path class="st9" d="M741.8,682.9c0.3-0.1,0.6,0,0.7,0.3l0.5,1.2c0.1,0.3,0,0.6-0.5,0.8c-1.3,0.4-5.8,2.8-6.7,6.2
			c0.2-0.1,1.9-1,3.7-1c3,0,5.9,2.2,5.9,6.1c0,3.5-2.9,6.4-6.3,6.4c-4.5,0-6.6-3.5-6.6-7.9C732.5,687.2,739.3,683.9,741.8,682.9z
			 M742.9,696.5c0-2.1-1.7-3.8-3.7-3.8c-2.2,0-3.7,1.6-3.9,2.1c-0.2,2.4,0.8,5.6,3.9,5.6C741.2,700.4,742.9,698.7,742.9,696.5z"/>
	</g>
	<g>
		<path class="st9" d="M891.8,701.2c2.1-2.4,5-5.9,7.1-8.4c1.4-1.6,2.1-3,2.1-4.1c0-1.4-1-3.1-3.5-3.1c-1.5,0-2.8,1.1-3.6,1.9
			c-0.2,0.2-0.5,0.2-0.8,0l-1-1c-0.2-0.2-0.2-0.5,0-0.7c0,0,2.1-2.8,5.5-2.8c4,0,6.2,2.6,6.2,5.5c0,2.2-1.2,3.7-2.7,5.5
			s-3.5,4.1-5.1,6h7.2c0.3,0,0.5,0.3,0.5,0.5v1.4c0,0.3-0.3,0.5-0.5,0.5h-10.9c-0.3,0-0.5-0.3-0.5-0.5V701.2z"/>
		<path class="st9" d="M907.2,692.9c0-6.2,2.5-9.8,7-9.8c4.4,0,6.9,3.7,6.9,9.8c0,6.2-2.5,9.8-6.9,9.8
			C909.8,702.8,907.2,699.1,907.2,692.9z M918.3,692.9c0-4.6-1.5-7.3-4.1-7.3s-4.1,2.6-4.1,7.3s1.5,7.3,4.1,7.3
			S918.3,697.6,918.3,692.9z"/>
		<path class="st9" d="M927.2,687.7l-2.2,1.1c-0.3,0.1-0.5,0.1-0.6-0.2l-0.3-1c-0.1-0.2,0-0.4,0.1-0.6l4-3.6h1.4
			c0.3,0,0.5,0.3,0.5,0.5V702c0,0.3-0.2,0.5-0.5,0.5h-1.7c-0.3,0-0.5-0.3-0.5-0.5v-14.3H927.2z"/>
		<path class="st9" d="M934.7,701.6l7.6-15.8H934c-0.3,0-0.5-0.3-0.5-0.5v-1.4c0-0.3,0.3-0.5,0.5-0.5h11.5c0.3,0,0.5,0.3,0.5,0.5
			v0.2l-8.3,17.6c-0.3,0.6-0.4,0.8-1.1,0.8h-1.3c-0.4,0-0.6-0.3-0.6-0.5L934.7,701.6L934.7,701.6z"/>
	</g>
	<path class="st10" d="M109.9,641.2"/>
	<g>
		<path class="st9" d="M82.2,657c0-6.2,2.5-9.8,7-9.8c4.4,0,6.9,3.7,6.9,9.8c0,6.2-2.5,9.8-6.9,9.8C84.7,666.8,82.2,663.2,82.2,657z
			 M93.3,657c0-4.6-1.5-7.3-4.1-7.3s-4.1,2.6-4.1,7.3s1.5,7.3,4.1,7.3C91.8,664.3,93.3,661.7,93.3,657z"/>
	</g>
	<g>
		<path class="st9" d="M68.7,516.5c2.1-2.4,5-5.9,7.1-8.4c1.4-1.6,2.1-3,2.1-4.1c0-1.4-1-3.1-3.5-3.1c-1.5,0-2.8,1.1-3.6,1.9
			c-0.2,0.2-0.5,0.2-0.8,0l-1-1c-0.2-0.2-0.2-0.5,0-0.7c0,0,2.1-2.8,5.5-2.8c4,0,6.2,2.6,6.2,5.5c0,2.2-1.2,3.7-2.7,5.5
			s-3.5,4.1-5.1,6h7.2c0.3,0,0.5,0.3,0.5,0.5v1.4c0,0.3-0.3,0.5-0.5,0.5H69.2c-0.3,0-0.5-0.3-0.5-0.5V516.5z"/>
		<path class="st9" d="M83.9,514.8c0.4-0.3,0.7-0.7,1-1c0.2-0.2,0.4-0.3,0.7,0c0.2,0.3,1.8,1.8,3.9,1.8c2.3,0,3.8-2,3.8-4
			c0-2-1.3-3.6-3.9-3.6h-4.3c-0.6,0-0.9-0.5-0.9-1v-7.9c0-0.3,0.2-0.5,0.5-0.5h8.7c0.3,0,0.5,0.3,0.5,0.5v1.4c0,0.3-0.2,0.5-0.5,0.5
			h-6.7v4.4h2.8c4.1,0,6.5,2.4,6.5,6.1c0,3.5-2.8,6.4-6.7,6.4c-3.1,0-4.8-1.5-5.5-2.3C83.6,515.3,83.6,515.1,83.9,514.8z"/>
	</g>
	<g>
		<path class="st9" d="M67.1,358.9c0.4-0.3,0.7-0.7,1-1c0.2-0.2,0.4-0.3,0.7,0c0.2,0.3,1.8,1.8,3.9,1.8c2.3,0,3.8-2,3.8-4
			s-1.3-3.6-3.9-3.6h-4.3c-0.6,0-0.9-0.5-0.9-1v-7.9c0-0.3,0.2-0.5,0.5-0.5h8.7c0.3,0,0.5,0.3,0.5,0.5v1.4c0,0.3-0.2,0.5-0.5,0.5H70
			v4.4h2.8c4.1,0,6.5,2.4,6.5,6.1c0,3.5-2.8,6.4-6.7,6.4c-3.1,0-4.8-1.5-5.5-2.3C66.8,359.5,66.8,359.3,67.1,358.9z"/>
		<path class="st9" d="M82.2,352.4c0-6.2,2.5-9.8,7-9.8c4.4,0,6.9,3.7,6.9,9.8c0,6.2-2.5,9.8-6.9,9.8
			C84.7,362.2,82.2,358.5,82.2,352.4z M93.3,352.4c0-4.6-1.5-7.3-4.1-7.3s-4.1,2.6-4.1,7.3s1.5,7.3,4.1,7.3S93.3,357,93.3,352.4z"/>
	</g>
	<g>
		<path class="st9" d="M70.8,206.4l7.6-15.8h-8.3c-0.3,0-0.5-0.3-0.5-0.5v-1.4c0-0.3,0.3-0.5,0.5-0.5h11.5c0.3,0,0.5,0.3,0.5,0.5
			v0.2l-8.3,17.6c-0.3,0.6-0.4,0.8-1.1,0.8h-1.3c-0.4,0-0.6-0.3-0.6-0.5C70.8,206.8,70.8,206.4,70.8,206.4z"/>
		<path class="st9" d="M83.9,204.3c0.4-0.3,0.7-0.7,1-1c0.2-0.2,0.4-0.3,0.7,0c0.2,0.3,1.8,1.8,3.9,1.8c2.3,0,3.8-2,3.8-4
			s-1.3-3.6-3.9-3.6h-4.3c-0.6,0-0.9-0.5-0.9-1v-7.9c0-0.3,0.2-0.5,0.5-0.5h8.7c0.3,0,0.5,0.3,0.5,0.5v1.4c0,0.3-0.2,0.5-0.5,0.5
			h-6.7v4.4h2.8c4.1,0,6.5,2.4,6.5,6.1c0,3.5-2.8,6.4-6.7,6.4c-3.1,0-4.8-1.5-5.5-2.3C83.6,204.8,83.6,204.6,83.9,204.3z"/>
	</g>
	<g>
		<path class="st9" d="M57.2,37.8L55,38.9c-0.3,0.1-0.5,0.1-0.6-0.2l-0.3-1c-0.1-0.2,0-0.4,0.1-0.6l4-3.6h1.4c0.3,0,0.5,0.3,0.5,0.5
			v18.1c0,0.3-0.2,0.5-0.5,0.5h-1.7c-0.3,0-0.5-0.3-0.5-0.5V37.8H57.2z"/>
		<path class="st9" d="M64.5,43.1c0-6.2,2.5-9.8,7-9.8c4.4,0,6.9,3.7,6.9,9.8c0,6.2-2.5,9.8-6.9,9.8C67,52.9,64.5,49.2,64.5,43.1z
			 M75.6,43.1c0-4.6-1.5-7.3-4.1-7.3s-4.1,2.6-4.1,7.3s1.5,7.3,4.1,7.3S75.6,47.7,75.6,43.1z"/>
		<path class="st9" d="M82.2,43.1c0-6.2,2.5-9.8,7-9.8c4.4,0,6.9,3.7,6.9,9.8c0,6.2-2.5,9.8-6.9,9.8C84.7,52.9,82.2,49.2,82.2,43.1z
			 M93.3,43.1c0-4.6-1.5-7.3-4.1-7.3s-4.1,2.6-4.1,7.3s1.5,7.3,4.1,7.3S93.3,47.7,93.3,43.1z"/>
	</g>
	<polyline class="st11" points="924.2,664.7 110.1,664.7 109.2,664.7 109.7,43.3 	"/>
</g>
</svg>
