<?xml version="1.0" encoding="utf-8"?>
<!-- Generator: Adobe Illustrator 21.1.0, SVG Export Plug-In . SVG Version: 6.00 Build 0)  -->
<svg version="1.1" id="Layer_1" xmlns="http://www.w3.org/2000/svg" xmlns:xlink="http://www.w3.org/1999/xlink" x="0px" y="0px"
	 viewBox="0 0 1000 254" style="enable-background:new 0 0 1000 254;" xml:space="preserve">
<style type="text/css">
	.st0{fill:#0098C3;}
	.st1{fill:#4A4A49;}
	.st2{fill:#8C1D80;}
	.st3{fill:#93C01F;}
</style>
<g>
	<g>
		<rect x="108.3" y="24.7" class="st0" width="41.1" height="41.1"/>
		<g>
			<g>
				<path class="st1" d="M170.4,33.6H163c-0.5,0-0.9-0.4-0.9-0.9v-2.6c0-0.5,0.4-0.9,0.9-0.9h19.6c0.5,0,0.9,0.4,0.9,0.9v2.6
					c0,0.5-0.4,0.9-0.9,0.9h-7.4v26.8c0,0.5-0.4,0.9-0.9,0.9h-3c-0.5,0-0.9-0.4-0.9-0.9L170.4,33.6L170.4,33.6z"/>
				<path class="st1" d="M202,28.8c9.1,0,16.4,7.3,16.4,16.5c0,9.1-7.3,16.4-16.4,16.4c-9.1,0-16.4-7.3-16.4-16.4
					C185.6,36.2,192.9,28.8,202,28.8z M202,57.1c6.5,0,11.9-5.3,11.9-11.8s-5.3-11.9-11.9-11.9c-6.5,0-11.8,5.4-11.8,11.9
					S195.5,57.1,202,57.1z"/>
				<path class="st1" d="M228.9,33.6h-7.4c-0.5,0-0.9-0.4-0.9-0.9v-2.6c0-0.5,0.4-0.9,0.9-0.9h19.6c0.5,0,0.9,0.4,0.9,0.9v2.6
					c0,0.5-0.4,0.9-0.9,0.9h-7.4v26.8c0,0.5-0.4,0.9-0.9,0.9h-3c-0.5,0-0.9-0.4-0.9-0.9V33.6L228.9,33.6z"/>
				<path class="st1" d="M240.9,60l14-30.7c0.1-0.3,0.5-0.5,0.8-0.5h0.5c0.2,0,0.6,0.2,0.8,0.5L270.8,60c0.3,0.6-0.1,1.2-0.8,1.2
					h-2.9c-0.5,0-0.9-0.3-1-0.7l-2.8-6.3h-14.9c-0.9,2.1-1.9,4.2-2.8,6.3c-0.1,0.3-0.5,0.7-1,0.7h-3C241,61.2,240.5,60.6,240.9,60z
					 M261.5,50.4l-5.6-12.5h-0.3L250,50.4H261.5z"/>
				<path class="st1" d="M275.4,30.1c0-0.5,0.4-0.9,0.9-0.9h3c0.5,0,0.9,0.4,0.9,0.9v26.8h12.4c0.5,0,0.9,0.4,0.9,0.9v2.5
					c0,0.5-0.4,0.9-0.9,0.9h-16.3c-0.5,0-0.9-0.4-0.9-0.9V30.1z"/>
				<path class="st1" d="M308.2,30.1c0-0.5,0.4-0.9,0.9-0.9h10.4c5.6,0,10.2,4.6,10.2,10.1c0,5.7-4.6,10.3-10.2,10.3h-6.6v10.7
					c0,0.5-0.4,0.9-0.9,0.9h-3c-0.5,0-0.9-0.4-0.9-0.9V30.1H308.2z M319.2,45.2c3.2,0,5.8-2.6,5.8-5.8c0-3.1-2.6-5.5-5.8-5.5H313
					v11.3H319.2z"/>
				<path class="st1" d="M335.4,30.1c0-0.5,0.4-0.9,0.9-0.9h12.4c5.5,0,10,4.3,10,9.8c0,4.2-2.8,7.7-6.8,9.3l6.3,11.6
					c0.3,0.6,0,1.3-0.8,1.3h-3.6c-0.4,0-0.6-0.2-0.7-0.4l-6.1-12.1H340v11.6c0,0.5-0.4,0.9-0.9,0.9h-3c-0.5,0-0.9-0.4-0.9-0.9V30.1
					H335.4z M348.2,44.8c3,0,5.6-2.5,5.6-5.7c0-3-2.6-5.4-5.6-5.4h-8.1v11.1H348.2z"/>
				<path class="st1" d="M379.8,28.8c9.1,0,16.4,7.3,16.4,16.5c0,9.1-7.3,16.4-16.4,16.4s-16.4-7.3-16.4-16.4S370.6,28.8,379.8,28.8
					z M379.8,57.1c6.5,0,11.9-5.3,11.9-11.8s-5.3-11.9-11.9-11.9c-6.5,0-11.8,5.4-11.8,11.9C367.9,51.8,373.2,57.1,379.8,57.1z"/>
				<path class="st1" d="M408.4,45.9l-10.7-15.3c-0.4-0.6,0-1.3,0.7-1.3h3.4c0.4,0,0.6,0.2,0.7,0.4l8.3,11.6l8.3-11.6
					c0.1-0.2,0.4-0.4,0.7-0.4h3.4c0.7,0,1.1,0.7,0.7,1.3l-10.8,15.2v14.6c0,0.5-0.4,0.9-0.9,0.9h-3c-0.5,0-0.9-0.4-0.9-0.9
					L408.4,45.9L408.4,45.9z"/>
				<path class="st1" d="M428.4,30.1c0-0.5,0.4-0.9,0.9-0.9h18.3c0.5,0,0.9,0.4,0.9,0.9v2.6c0,0.5-0.4,0.9-0.9,0.9h-14.4v9.3h12.2
					c0.5,0,0.9,0.4,0.9,0.9v2.6c0,0.5-0.4,0.9-0.9,0.9h-12.2V57h14.4c0.5,0,0.9,0.4,0.9,0.9v2.5c0,0.5-0.4,0.9-0.9,0.9h-18.3
					c-0.5,0-0.9-0.4-0.9-0.9V30.1z"/>
				<path class="st1" d="M469.2,28.8c4.6,0,7.9,1.6,11,4.2c0.4,0.4,0.4,0.9,0,1.3l-2,2.1c-0.3,0.4-0.7,0.4-1.1,0
					c-2.1-1.9-5.1-3.1-7.9-3.1c-6.5,0-11.5,5.5-11.5,11.9s5,11.8,11.5,11.8c3.3,0,5.7-1.3,7.9-3c0.4-0.3,0.8-0.3,1.1,0l2.1,2.1
					c0.4,0.3,0.3,0.9,0,1.2c-3.1,3-7,4.4-11.1,4.4c-9.1,0-16.5-7.3-16.5-16.4C452.9,36.2,460.1,28.8,469.2,28.8z"/>
				<path class="st1" d="M491.4,33.6H484c-0.5,0-0.9-0.4-0.9-0.9v-2.6c0-0.5,0.4-0.9,0.9-0.9h19.6c0.5,0,0.9,0.4,0.9,0.9v2.6
					c0,0.5-0.4,0.9-0.9,0.9h-7.4v26.8c0,0.5-0.4,0.9-0.9,0.9h-3c-0.5,0-0.9-0.4-0.9-0.9L491.4,33.6L491.4,33.6z"/>
				<path class="st1" d="M522.9,28.8c9.1,0,16.4,7.3,16.4,16.5c0,9.1-7.3,16.4-16.4,16.4s-16.4-7.3-16.4-16.4
					C506.5,36.2,513.8,28.8,522.9,28.8z M522.9,57.1c6.5,0,11.9-5.3,11.9-11.8s-5.3-11.9-11.9-11.9c-6.5,0-11.8,5.4-11.8,11.9
					C511,51.8,516.5,57.1,522.9,57.1z"/>
				<path class="st1" d="M543.9,56.6c0.4-0.6,0.8-1.3,1.2-1.9s1.1-0.8,1.6-0.4c0.3,0.2,3.8,3.2,7.3,3.2c3.2,0,5.2-1.9,5.2-4.2
					c0-2.7-2.4-4.5-6.9-6.3c-4.7-2-8.3-4.4-8.3-9.7c0-3.6,2.7-8.4,10-8.4c4.6,0,8,2.4,8.4,2.7c0.4,0.2,0.7,0.9,0.3,1.6
					c-0.4,0.5-0.8,1.2-1.1,1.7c-0.4,0.6-1,0.9-1.6,0.5c-0.3-0.2-3.5-2.3-6.2-2.3c-3.8,0-5.2,2.4-5.2,4.1c0,2.6,2,4.2,5.8,5.8
					c5.3,2.1,9.8,4.7,9.8,10.2c0,4.8-4.2,8.6-10.2,8.6c-5.6,0-9.1-2.9-9.8-3.6C543.7,57.7,543.4,57.4,543.9,56.6z"/>
				<path class="st1" d="M580.5,30.1c0-0.5,0.4-0.9,0.9-0.9h18.3c0.5,0,0.9,0.4,0.9,0.9v2.6c0,0.5-0.4,0.9-0.9,0.9h-14.4v9.3h12.2
					c0.5,0,0.9,0.4,0.9,0.9v2.6c0,0.5-0.4,0.9-0.9,0.9h-12.2V57h14.4c0.5,0,0.9,0.4,0.9,0.9v2.5c0,0.5-0.4,0.9-0.9,0.9h-18.3
					c-0.5,0-0.9-0.4-0.9-0.9V30.1z"/>
				<path class="st1" d="M602.6,57.2l1.6-1.8c0.6-0.5,1.1-0.4,1.5,0.1c0.7,0.8,2,2,3.7,2c2.2,0,4.6-1.7,4.6-5.8V30.1
					c0-0.5,0.4-0.9,0.9-0.9h3c0.5,0,0.9,0.4,0.9,0.9v21.6c0,6.3-4,10-9.4,10c-4,0-6.2-2.4-6.9-3.3C602.2,58,602.2,57.5,602.6,57.2z"
					/>
				<path class="st1" d="M626.5,30.1c0-0.5,0.4-0.9,0.9-0.9h18.3c0.5,0,0.9,0.4,0.9,0.9v2.6c0,0.5-0.4,0.9-0.9,0.9h-14.4v9.3h12.2
					c0.5,0,0.9,0.4,0.9,0.9v2.6c0,0.5-0.4,0.9-0.9,0.9h-12.2V57h14.4c0.5,0,0.9,0.4,0.9,0.9v2.5c0,0.5-0.4,0.9-0.9,0.9h-18.3
					c-0.5,0-0.9-0.4-0.9-0.9V30.1z"/>
				<path class="st1" d="M667.4,28.8c4.6,0,7.9,1.6,11,4.2c0.4,0.4,0.4,0.9,0,1.3l-2,2.1c-0.3,0.4-0.7,0.4-1.1,0
					c-2.1-1.9-5.1-3.1-7.9-3.1c-6.5,0-11.5,5.5-11.5,11.9s5,11.8,11.5,11.8c3.3,0,5.7-1.3,7.9-3c0.4-0.3,0.8-0.3,1.1,0l2.1,2.1
					c0.4,0.3,0.3,0.9,0,1.2c-3.1,3-7,4.4-11.1,4.4c-9.1,0-16.5-7.3-16.5-16.4S658.2,28.8,667.4,28.8z"/>
				<path class="st1" d="M684.6,30.1c0-0.5,0.4-0.9,0.9-0.9h3.1c0.5,0,0.9,0.4,0.9,0.9v18.9c0,4.6,2.9,8.1,7.6,8.1
					c4.7,0,7.7-3.5,7.7-8V30.2c0-0.5,0.4-0.9,0.9-0.9h3.1c0.5,0,0.9,0.4,0.9,0.9v19.2c0,6.9-5.2,12.4-12.5,12.4
					c-7.2,0-12.4-5.4-12.4-12.4V30.1H684.6z"/>
				<path class="st1" d="M722.2,33.6h-7.4c-0.5,0-0.9-0.4-0.9-0.9v-2.6c0-0.5,0.4-0.9,0.9-0.9h19.6c0.5,0,0.9,0.4,0.9,0.9v2.6
					c0,0.5-0.4,0.9-0.9,0.9H727v26.8c0,0.5-0.4,0.9-0.9,0.9h-3c-0.5,0-0.9-0.4-0.9-0.9L722.2,33.6L722.2,33.6z"/>
				<path class="st1" d="M734.2,60l14-30.7c0.1-0.3,0.5-0.5,0.8-0.5h0.5c0.2,0,0.6,0.2,0.8,0.5L764.2,60c0.3,0.6-0.1,1.2-0.8,1.2
					h-2.9c-0.5,0-0.9-0.3-1-0.7l-2.8-6.3h-15.1c-0.9,2.1-1.9,4.2-2.8,6.3c-0.1,0.3-0.5,0.7-1,0.7H735C734.4,61.2,734,60.6,734.2,60z
					 M754.9,50.4l-5.6-12.5h-0.2l-5.6,12.5H754.9z"/>
				<path class="st1" d="M768.8,30.1c0-0.5,0.4-0.9,0.8-0.9H780c8.8,0,16,7.2,16,15.9c0,8.9-7.2,16-16,16h-10.5
					c-0.5,0-0.8-0.4-0.8-0.9V30.1z M779.5,56.9c6.7,0,11.6-4.9,11.6-11.7c0-6.7-4.9-11.6-11.6-11.6h-6v23.3L779.5,56.9L779.5,56.9z"
					/>
				<path class="st1" d="M816.8,28.8c9.1,0,16.4,7.3,16.4,16.5c0,9.1-7.3,16.4-16.4,16.4s-16.4-7.3-16.4-16.4
					C800.4,36.2,807.6,28.8,816.8,28.8z M816.8,57.1c6.5,0,11.9-5.3,11.9-11.8s-5.3-11.9-11.9-11.9c-6.5,0-11.8,5.4-11.8,11.9
					C804.9,51.8,810.2,57.1,816.8,57.1z"/>
				<path class="st1" d="M837.7,56.6c0.4-0.6,0.8-1.3,1.2-1.9s1.1-0.8,1.6-0.4c0.3,0.2,3.8,3.2,7.3,3.2c3.2,0,5.2-1.9,5.2-4.2
					c0-2.7-2.4-4.5-6.9-6.3c-4.7-2-8.3-4.4-8.3-9.7c0-3.6,2.7-8.4,10-8.4c4.6,0,8,2.4,8.4,2.7c0.4,0.2,0.7,0.9,0.3,1.6
					c-0.4,0.5-0.8,1.2-1.1,1.7c-0.4,0.6-1,0.9-1.6,0.5c-0.3-0.2-3.5-2.3-6.2-2.3c-3.8,0-5.2,2.4-5.2,4.1c0,2.6,2,4.2,5.8,5.8
					c5.3,2.1,9.8,4.7,9.8,10.2c0,4.8-4.2,8.6-10.2,8.6c-5.6,0-9.1-2.9-9.8-3.6C837.5,57.7,837.2,57.4,837.7,56.6z"/>
			</g>
		</g>
	</g>
	<g>
		<rect x="108.3" y="106.5" class="st2" width="41.1" height="41.1"/>
		<g>
			<g>
				<path class="st1" d="M170.4,115.4H163c-0.5,0-0.9-0.4-0.9-0.9v-2.6c0-0.5,0.4-0.9,0.9-0.9h19.6c0.5,0,0.9,0.4,0.9,0.9v2.6
					c0,0.5-0.4,0.9-0.9,0.9h-7.4v26.8c0,0.5-0.4,0.9-0.9,0.9h-3c-0.5,0-0.9-0.4-0.9-0.9L170.4,115.4L170.4,115.4z"/>
				<path class="st1" d="M202,110.6c9.1,0,16.4,7.4,16.4,16.5s-7.3,16.4-16.4,16.4c-9.1,0-16.4-7.3-16.4-16.4
					C185.6,118,192.9,110.6,202,110.6z M202,138.9c6.5,0,11.9-5.3,11.9-11.8s-5.3-11.9-11.9-11.9c-6.5,0-11.8,5.4-11.8,11.9
					C190.1,133.6,195.5,138.9,202,138.9z"/>
				<path class="st1" d="M228.9,115.4h-7.4c-0.5,0-0.9-0.4-0.9-0.9v-2.6c0-0.5,0.4-0.9,0.9-0.9h19.6c0.5,0,0.9,0.4,0.9,0.9v2.6
					c0,0.5-0.4,0.9-0.9,0.9h-7.4v26.8c0,0.5-0.4,0.9-0.9,0.9h-3c-0.5,0-0.9-0.4-0.9-0.9V115.4L228.9,115.4z"/>
				<path class="st1" d="M240.9,141.8l14-30.7c0.1-0.3,0.5-0.5,0.8-0.5h0.5c0.2,0,0.6,0.2,0.8,0.5l13.9,30.7
					c0.3,0.6-0.1,1.2-0.8,1.2h-2.9c-0.5,0-0.9-0.3-1-0.7l-2.8-6.3h-14.9c-0.9,2.1-1.9,4.2-2.8,6.3c-0.1,0.3-0.5,0.7-1,0.7h-3
					C241,143,240.5,142.4,240.9,141.8z M261.5,132.2l-5.6-12.5h-0.3l-5.6,12.5H261.5z"/>
				<path class="st1" d="M275.4,111.9c0-0.5,0.4-0.9,0.9-0.9h3c0.5,0,0.9,0.4,0.9,0.9v26.9h12.4c0.5,0,0.9,0.4,0.9,0.9v2.5
					c0,0.5-0.4,0.9-0.9,0.9h-16.3c-0.5,0-0.9-0.4-0.9-0.9V111.9z"/>
				<path class="st1" d="M308.2,111.9c0-0.5,0.4-0.9,0.9-0.9h10.4c5.6,0,10.2,4.6,10.2,10.1c0,5.7-4.6,10.3-10.2,10.3h-6.6v10.7
					c0,0.5-0.4,0.9-0.9,0.9h-3c-0.5,0-0.9-0.4-0.9-0.9v-30.2H308.2z M319.2,127c3.2,0,5.8-2.6,5.8-5.8c0-3.1-2.6-5.5-5.8-5.5H313
					V127H319.2z"/>
				<path class="st1" d="M335.4,111.9c0-0.5,0.4-0.9,0.9-0.9h12.4c5.5,0,10,4.3,10,9.8c0,4.2-2.8,7.7-6.8,9.3l6.3,11.6
					c0.3,0.6,0,1.3-0.8,1.3h-3.6c-0.4,0-0.6-0.2-0.7-0.4l-6.1-12.1H340v11.6c0,0.5-0.4,0.9-0.9,0.9h-3c-0.5,0-0.9-0.4-0.9-0.9v-30.2
					H335.4z M348.2,126.6c3,0,5.6-2.5,5.6-5.7c0-3-2.6-5.4-5.6-5.4h-8.1v11.1H348.2z"/>
				<path class="st1" d="M379.8,110.6c9.1,0,16.4,7.4,16.4,16.5s-7.3,16.4-16.4,16.4s-16.4-7.3-16.4-16.4
					C363.4,118,370.6,110.6,379.8,110.6z M379.8,138.9c6.5,0,11.9-5.3,11.9-11.8s-5.3-11.9-11.9-11.9c-6.5,0-11.8,5.4-11.8,11.9
					C367.9,133.6,373.2,138.9,379.8,138.9z"/>
				<path class="st1" d="M408.4,127.7l-10.7-15.3c-0.4-0.6,0-1.3,0.7-1.3h3.4c0.4,0,0.6,0.2,0.7,0.4l8.3,11.6l8.3-11.6
					c0.1-0.2,0.4-0.4,0.7-0.4h3.4c0.7,0,1.1,0.7,0.7,1.3l-10.8,15.2v14.6c0,0.5-0.4,0.9-0.9,0.9h-3c-0.5,0-0.9-0.4-0.9-0.9
					L408.4,127.7L408.4,127.7z"/>
				<path class="st1" d="M428.4,111.9c0-0.5,0.4-0.9,0.9-0.9h18.3c0.5,0,0.9,0.4,0.9,0.9v2.6c0,0.5-0.4,0.9-0.9,0.9h-14.4v9.3h12.2
					c0.5,0,0.9,0.4,0.9,0.9v2.6c0,0.5-0.4,0.9-0.9,0.9h-12.2v9.8h14.4c0.5,0,0.9,0.4,0.9,0.9v2.5c0,0.5-0.4,0.9-0.9,0.9h-18.3
					c-0.5,0-0.9-0.4-0.9-0.9V111.9z"/>
				<path class="st1" d="M469.2,110.6c4.6,0,7.9,1.6,11,4.2c0.4,0.4,0.4,0.9,0,1.3l-2,2.1c-0.3,0.4-0.7,0.4-1.1,0
					c-2.1-1.9-5.1-3.1-7.9-3.1c-6.5,0-11.5,5.5-11.5,11.9s5,11.8,11.5,11.8c3.3,0,5.7-1.3,7.9-3c0.4-0.3,0.8-0.3,1.1,0l2.1,2.1
					c0.4,0.3,0.3,0.9,0,1.2c-3.1,3-7,4.4-11.1,4.4c-9.1,0-16.5-7.3-16.5-16.4C452.9,118,460.1,110.6,469.2,110.6z"/>
				<path class="st1" d="M491.4,115.4H484c-0.5,0-0.9-0.4-0.9-0.9v-2.6c0-0.5,0.4-0.9,0.9-0.9h19.6c0.5,0,0.9,0.4,0.9,0.9v2.6
					c0,0.5-0.4,0.9-0.9,0.9h-7.4v26.8c0,0.5-0.4,0.9-0.9,0.9h-3c-0.5,0-0.9-0.4-0.9-0.9L491.4,115.4L491.4,115.4z"/>
				<path class="st1" d="M522.9,110.6c9.1,0,16.4,7.4,16.4,16.5s-7.3,16.4-16.4,16.4s-16.4-7.3-16.4-16.4
					C506.5,118,513.8,110.6,522.9,110.6z M522.9,138.9c6.5,0,11.9-5.3,11.9-11.8s-5.3-11.9-11.9-11.9c-6.5,0-11.8,5.4-11.8,11.9
					C511,133.6,516.5,138.9,522.9,138.9z"/>
				<path class="st1" d="M543.9,138.4c0.4-0.6,0.8-1.3,1.2-1.9s1.1-0.8,1.6-0.4c0.3,0.2,3.8,3.2,7.3,3.2c3.2,0,5.2-1.9,5.2-4.2
					c0-2.7-2.4-4.5-6.9-6.3c-4.7-2-8.3-4.4-8.3-9.7c0-3.6,2.7-8.4,10-8.4c4.6,0,8,2.4,8.4,2.7c0.4,0.2,0.7,0.9,0.3,1.6
					c-0.4,0.5-0.8,1.2-1.1,1.7c-0.4,0.6-1,0.9-1.6,0.5c-0.3-0.2-3.5-2.3-6.2-2.3c-3.8,0-5.2,2.4-5.2,4.1c0,2.6,2,4.2,5.8,5.8
					c5.3,2.1,9.8,4.7,9.8,10.2c0,4.7-4.2,8.6-10.2,8.6c-5.6,0-9.1-2.9-9.8-3.6C543.7,139.5,543.4,139.2,543.9,138.4z"/>
				<path class="st1" d="M576.2,141.8l14-30.7c0.1-0.3,0.5-0.5,0.8-0.5h0.5c0.2,0,0.6,0.2,0.8,0.5l13.9,30.7
					c0.3,0.6-0.1,1.2-0.8,1.2h-2.9c-0.5,0-0.9-0.3-1-0.7l-2.8-6.3h-15c-0.9,2.1-1.9,4.2-2.8,6.3c-0.1,0.3-0.5,0.7-1,0.7H577
					C576.2,143,575.9,142.4,576.2,141.8z M596.9,132.2l-5.6-12.5h-0.2l-5.6,12.5H596.9z"/>
				<path class="st1" d="M610.7,111.9c0-0.5,0.4-0.9,0.9-0.9H622c5.6,0,10.2,4.6,10.2,10.1c0,5.7-4.6,10.3-10.2,10.3h-6.6v10.7
					c0,0.5-0.4,0.9-0.9,0.9h-3c-0.5,0-0.9-0.4-0.9-0.9L610.7,111.9L610.7,111.9z M621.7,127c3.2,0,5.8-2.6,5.8-5.8
					c0-3.1-2.6-5.5-5.8-5.5h-6.3V127H621.7z"/>
				<path class="st1" d="M637.8,111.9c0-0.5,0.4-0.9,0.9-0.9h12.4c5.5,0,10,4.3,10,9.8c0,4.2-2.8,7.7-6.8,9.3l6.3,11.6
					c0.3,0.6,0,1.3-0.8,1.3h-3.6c-0.4,0-0.6-0.2-0.7-0.4l-6.1-12.1h-6.9v11.6c0,0.5-0.4,0.9-0.9,0.9h-3c-0.5,0-0.9-0.4-0.9-0.9
					L637.8,111.9L637.8,111.9z M650.7,126.6c3,0,5.6-2.5,5.6-5.7c0-3-2.6-5.4-5.6-5.4h-8.1v11.1H650.7z"/>
				<path class="st1" d="M682.2,110.6c9.1,0,16.4,7.4,16.4,16.5s-7.3,16.4-16.4,16.4s-16.4-7.3-16.4-16.4
					C665.9,118,673.1,110.6,682.2,110.6z M682.2,138.9c6.5,0,11.9-5.3,11.9-11.8s-5.3-11.9-11.9-11.9c-6.5,0-11.8,5.4-11.8,11.9
					C670.4,133.6,675.8,138.9,682.2,138.9z"/>
				<path class="st1" d="M705.2,111.9c0-0.5,0.4-0.9,0.9-0.9h10.2c5.5,0,9.5,3.7,9.5,8.4c0,3.5-2.6,6-4.7,7.3c2.4,1,5.7,3.2,5.7,7.4
					c0,5.1-4.2,8.8-10,8.8h-10.7c-0.5,0-0.9-0.4-0.9-0.9V111.9z M716.8,138.8c2.8,0,4.9-2.1,4.9-5c0-2.8-2.6-4.8-5.6-4.8h-6.3v9.8
					H716.8z M716,125c2.9,0,4.7-2.1,4.7-4.9s-1.8-4.7-4.7-4.7h-6.2v9.6H716z"/>
				<path class="st1" d="M729.2,141.8l14-30.7c0.1-0.3,0.5-0.5,0.8-0.5h0.5c0.2,0,0.6,0.2,0.8,0.5l13.9,30.7
					c0.3,0.6-0.1,1.2-0.8,1.2h-2.9c-0.5,0-0.9-0.3-1-0.7l-2.8-6.3h-14.9c-0.9,2.1-1.9,4.2-2.8,6.3c-0.1,0.3-0.5,0.7-1,0.7h-2.9
					C729.4,143,729.1,142.4,729.2,141.8z M750,132.2l-5.6-12.5h-0.2l-5.6,12.5H750z"/>
				<path class="st1" d="M763.9,111.9c0-0.5,0.4-0.9,0.8-0.9h10.5c8.8,0,16,7.2,16,15.9c0,8.9-7.2,16-16,16h-10.5
					c-0.5,0-0.8-0.4-0.8-0.9V111.9z M774.5,138.7c6.7,0,11.6-4.9,11.6-11.7c0-6.7-4.9-11.6-11.6-11.6h-6v23.3L774.5,138.7
					L774.5,138.7z"/>
				<path class="st1" d="M811.8,110.6c9.1,0,16.4,7.4,16.4,16.5s-7.3,16.4-16.4,16.4s-16.4-7.3-16.4-16.4
					C795.4,118,802.7,110.6,811.8,110.6z M811.8,138.9c6.5,0,11.9-5.3,11.9-11.8s-5.3-11.9-11.9-11.9c-6.5,0-11.8,5.4-11.8,11.9
					C800,133.6,805.4,138.9,811.8,138.9z"/>
				<path class="st1" d="M832.8,138.4c0.4-0.6,0.8-1.3,1.2-1.9s1.1-0.8,1.6-0.4c0.3,0.2,3.8,3.2,7.3,3.2c3.2,0,5.2-1.9,5.2-4.2
					c0-2.7-2.4-4.5-6.9-6.3c-4.7-2-8.3-4.4-8.3-9.7c0-3.6,2.7-8.4,10-8.4c4.6,0,8,2.4,8.4,2.7c0.4,0.2,0.7,0.9,0.3,1.6
					c-0.4,0.5-0.8,1.2-1.1,1.7c-0.4,0.6-1,0.9-1.6,0.5c-0.3-0.2-3.5-2.3-6.2-2.3c-3.8,0-5.2,2.4-5.2,4.1c0,2.6,2,4.2,5.8,5.8
					c5.3,2.1,9.8,4.7,9.8,10.2c0,4.7-4.2,8.6-10.2,8.6c-5.6,0-9.1-2.9-9.8-3.6C832.6,139.5,832.2,139.2,832.8,138.4z"/>
			</g>
		</g>
	</g>
	<g>
		<rect x="108.3" y="188.3" class="st3" width="41.1" height="41.1"/>
		<g>
			<g>
				<path class="st1" d="M170.4,197.2H163c-0.5,0-0.9-0.4-0.9-0.9v-2.6c0-0.5,0.4-0.9,0.9-0.9h19.6c0.5,0,0.9,0.4,0.9,0.9v2.6
					c0,0.5-0.4,0.9-0.9,0.9h-7.4V224c0,0.5-0.4,0.9-0.9,0.9h-3c-0.5,0-0.9-0.4-0.9-0.9L170.4,197.2L170.4,197.2z"/>
				<path class="st1" d="M202,192.4c9.1,0,16.4,7.4,16.4,16.5s-7.3,16.4-16.4,16.4c-9.1,0-16.4-7.3-16.4-16.4S192.9,192.4,202,192.4
					z M202,220.7c6.5,0,11.9-5.3,11.9-11.8S208.5,197,202,197c-6.5,0-11.8,5.4-11.8,11.9C190.1,215.3,195.5,220.7,202,220.7z"/>
				<path class="st1" d="M228.9,197.2h-7.4c-0.5,0-0.9-0.4-0.9-0.9v-2.6c0-0.5,0.4-0.9,0.9-0.9h19.6c0.5,0,0.9,0.4,0.9,0.9v2.6
					c0,0.5-0.4,0.9-0.9,0.9h-7.4V224c0,0.5-0.4,0.9-0.9,0.9h-3c-0.5,0-0.9-0.4-0.9-0.9V197.2L228.9,197.2z"/>
				<path class="st1" d="M240.9,223.6l14-30.7c0.1-0.3,0.5-0.5,0.8-0.5h0.5c0.2,0,0.6,0.2,0.8,0.5l13.9,30.7
					c0.3,0.6-0.1,1.2-0.8,1.2h-2.9c-0.5,0-0.9-0.3-1-0.7l-2.8-6.3h-14.9c-0.9,2.1-1.9,4.2-2.8,6.3c-0.1,0.3-0.5,0.7-1,0.7h-3
					C241,224.8,240.5,224.2,240.9,223.6z M261.5,214l-5.6-12.5h-0.3L250,214H261.5z"/>
				<path class="st1" d="M275.4,193.7c0-0.5,0.4-0.9,0.9-0.9h3c0.5,0,0.9,0.4,0.9,0.9v26.8h12.4c0.5,0,0.9,0.4,0.9,0.9v2.5
					c0,0.5-0.4,0.9-0.9,0.9h-16.3c-0.5,0-0.9-0.4-0.9-0.9V193.7z"/>
				<path class="st1" d="M308.2,193.7c0-0.5,0.4-0.9,0.9-0.9h10.4c5.6,0,10.2,4.6,10.2,10.1c0,5.7-4.6,10.3-10.2,10.3h-6.6v10.7
					c0,0.5-0.4,0.9-0.9,0.9h-3c-0.5,0-0.9-0.4-0.9-0.9v-30.2H308.2z M319.2,208.8c3.2,0,5.8-2.6,5.8-5.8c0-3.1-2.6-5.5-5.8-5.5H313
					v11.3H319.2z"/>
				<path class="st1" d="M335.4,193.7c0-0.5,0.4-0.9,0.9-0.9h12.4c5.5,0,10,4.3,10,9.8c0,4.2-2.8,7.7-6.8,9.3l6.3,11.6
					c0.3,0.6,0,1.3-0.8,1.3h-3.6c-0.4,0-0.6-0.2-0.7-0.4l-6.1-12.1H340v11.6c0,0.5-0.4,0.9-0.9,0.9h-3c-0.5,0-0.9-0.4-0.9-0.9v-30.2
					H335.4z M348.2,208.3c3,0,5.6-2.5,5.6-5.7c0-3-2.6-5.4-5.6-5.4h-8.1v11.1H348.2z"/>
				<path class="st1" d="M379.8,192.4c9.1,0,16.4,7.4,16.4,16.5s-7.3,16.4-16.4,16.4s-16.4-7.3-16.4-16.4S370.6,192.4,379.8,192.4z
					 M379.8,220.7c6.5,0,11.9-5.3,11.9-11.8s-5.3-11.9-11.9-11.9c-6.5,0-11.8,5.4-11.8,11.9C367.9,215.3,373.2,220.7,379.8,220.7z"
					/>
				<path class="st1" d="M408.4,209.5l-10.7-15.3c-0.4-0.6,0-1.3,0.7-1.3h3.4c0.4,0,0.6,0.2,0.7,0.4l8.3,11.6l8.3-11.6
					c0.1-0.2,0.4-0.4,0.7-0.4h3.4c0.7,0,1.1,0.7,0.7,1.3l-10.8,15.2V224c0,0.5-0.4,0.9-0.9,0.9h-3c-0.5,0-0.9-0.4-0.9-0.9
					L408.4,209.5L408.4,209.5z"/>
				<path class="st1" d="M428.4,193.7c0-0.5,0.4-0.9,0.9-0.9h18.3c0.5,0,0.9,0.4,0.9,0.9v2.6c0,0.5-0.4,0.9-0.9,0.9h-14.4v9.3h12.2
					c0.5,0,0.9,0.4,0.9,0.9v2.6c0,0.5-0.4,0.9-0.9,0.9h-12.2v9.8h14.4c0.5,0,0.9,0.4,0.9,0.9v2.5c0,0.5-0.4,0.9-0.9,0.9h-18.3
					c-0.5,0-0.9-0.4-0.9-0.9V193.7z"/>
				<path class="st1" d="M469.2,192.4c4.6,0,7.9,1.6,11,4.2c0.4,0.4,0.4,0.9,0,1.3l-2,2.1c-0.3,0.4-0.7,0.4-1.1,0
					c-2.1-1.9-5.1-3.1-7.9-3.1c-6.5,0-11.5,5.5-11.5,11.9c0,6.4,5,11.8,11.5,11.8c3.3,0,5.7-1.3,7.9-3c0.4-0.3,0.8-0.3,1.1,0
					l2.1,2.1c0.4,0.3,0.3,0.9,0,1.2c-3.1,3-7,4.4-11.1,4.4c-9.1,0-16.5-7.3-16.5-16.4S460.1,192.4,469.2,192.4z"/>
				<path class="st1" d="M491.4,197.2H484c-0.5,0-0.9-0.4-0.9-0.9v-2.6c0-0.5,0.4-0.9,0.9-0.9h19.6c0.5,0,0.9,0.4,0.9,0.9v2.6
					c0,0.5-0.4,0.9-0.9,0.9h-7.4V224c0,0.5-0.4,0.9-0.9,0.9h-3c-0.5,0-0.9-0.4-0.9-0.9L491.4,197.2L491.4,197.2z"/>
				<path class="st1" d="M522.9,192.4c9.1,0,16.4,7.4,16.4,16.5s-7.3,16.4-16.4,16.4s-16.4-7.3-16.4-16.4S513.8,192.4,522.9,192.4z
					 M522.9,220.7c6.5,0,11.9-5.3,11.9-11.8s-5.3-11.9-11.9-11.9c-6.5,0-11.8,5.4-11.8,11.9C511,215.3,516.5,220.7,522.9,220.7z"/>
				<path class="st1" d="M543.9,220.2c0.4-0.6,0.8-1.3,1.2-1.9c0.4-0.6,1.1-0.8,1.6-0.4c0.3,0.2,3.8,3.2,7.3,3.2
					c3.2,0,5.2-1.9,5.2-4.2c0-2.7-2.4-4.5-6.9-6.3c-4.7-2-8.3-4.4-8.3-9.7c0-3.6,2.7-8.4,10-8.4c4.6,0,8,2.4,8.4,2.7
					c0.4,0.2,0.7,0.9,0.3,1.6c-0.4,0.5-0.8,1.2-1.1,1.7c-0.4,0.6-1,0.9-1.6,0.5c-0.3-0.2-3.5-2.3-6.2-2.3c-3.8,0-5.2,2.4-5.2,4.1
					c0,2.6,2,4.2,5.8,5.8c5.3,2.1,9.8,4.7,9.8,10.2c0,4.7-4.2,8.6-10.2,8.6c-5.6,0-9.1-2.9-9.8-3.6
					C543.7,221.3,543.4,221,543.9,220.2z"/>
				<path class="st1" d="M580.5,193.7c0-0.5,0.4-0.9,0.9-0.9h10.4c5.6,0,10.2,4.6,10.2,10.1c0,5.7-4.6,10.3-10.2,10.3h-6.6v10.7
					c0,0.5-0.4,0.9-0.9,0.9h-3c-0.5,0-0.9-0.4-0.9-0.9L580.5,193.7L580.5,193.7z M591.5,208.8c3.2,0,5.8-2.6,5.8-5.8
					c0-3.1-2.6-5.5-5.8-5.5h-6.3v11.3H591.5z"/>
				<path class="st1" d="M607.6,193.7c0-0.5,0.4-0.9,0.9-0.9h12.4c5.5,0,10,4.3,10,9.8c0,4.2-2.8,7.7-6.8,9.3l6.3,11.6
					c0.3,0.6,0,1.3-0.8,1.3H626c-0.4,0-0.6-0.2-0.7-0.4l-6.1-12.1h-6.9v11.6c0,0.5-0.4,0.9-0.9,0.9h-3c-0.5,0-0.9-0.4-0.9-0.9
					L607.6,193.7L607.6,193.7z M620.5,208.3c3,0,5.6-2.5,5.6-5.7c0-3-2.6-5.4-5.6-5.4h-8.1v11.1H620.5z"/>
				<path class="st1" d="M638,193.7c0-0.5,0.4-0.9,0.9-0.9h18.3c0.5,0,0.9,0.4,0.9,0.9v2.6c0,0.5-0.4,0.9-0.9,0.9h-14.5v9.3h12.2
					c0.5,0,0.9,0.4,0.9,0.9v2.6c0,0.5-0.4,0.9-0.9,0.9h-12.2v9.8h14.4c0.5,0,0.9,0.4,0.9,0.9v2.5c0,0.5-0.4,0.9-0.9,0.9h-18.3
					c-0.5,0-0.9-0.4-0.9-0.9L638,193.7L638,193.7z"/>
				<path class="st1" d="M662.8,220.2c0.4-0.6,0.8-1.3,1.2-1.9c0.4-0.6,1.1-0.8,1.6-0.4c0.3,0.2,3.8,3.2,7.3,3.2
					c3.2,0,5.2-1.9,5.2-4.2c0-2.7-2.4-4.5-6.9-6.3c-4.7-2-8.3-4.4-8.3-9.7c0-3.6,2.7-8.4,10-8.4c4.6,0,8,2.4,8.4,2.7
					c0.4,0.2,0.7,0.9,0.3,1.6c-0.4,0.5-0.8,1.2-1.1,1.7c-0.4,0.6-1,0.9-1.6,0.5c-0.3-0.2-3.5-2.3-6.2-2.3c-3.8,0-5.2,2.4-5.2,4.1
					c0,2.6,2,4.2,5.8,5.8c5.3,2.1,9.8,4.7,9.8,10.2c0,4.7-4.2,8.6-10.2,8.6c-5.6,0-9.1-2.9-9.8-3.6
					C662.7,221.3,662.2,221,662.8,220.2z"/>
				<path class="st1" d="M689.4,193.7c0-0.5,0.4-0.9,0.9-0.9h18.3c0.5,0,0.9,0.4,0.9,0.9v2.6c0,0.5-0.4,0.9-0.9,0.9h-14.4v9.3h12.2
					c0.5,0,0.9,0.4,0.9,0.9v2.6c0,0.5-0.4,0.9-0.9,0.9h-12.2v9.8h14.4c0.5,0,0.9,0.4,0.9,0.9v2.5c0,0.5-0.4,0.9-0.9,0.9h-18.3
					c-0.5,0-0.9-0.4-0.9-0.9V193.7z"/>
				<path class="st1" d="M716.2,193.2c0-0.5,0.4-0.8,0.9-0.8h1.1l19.8,22.9l0,0v-21.6c0-0.5,0.4-0.9,0.9-0.9h2.9
					c0.5,0,0.9,0.4,0.9,0.9v30.7c0,0.5-0.4,0.8-0.9,0.8h-1.2l-19.8-23.6l0,0v22.2c0,0.5-0.4,0.9-0.9,0.9H717c-0.5,0-0.9-0.4-0.9-0.9
					v-30.6H716.2z"/>
				<path class="st1" d="M756,197.2h-7.4c-0.5,0-0.9-0.4-0.9-0.9v-2.6c0-0.5,0.4-0.9,0.9-0.9h19.6c0.5,0,0.9,0.4,0.9,0.9v2.6
					c0,0.5-0.4,0.9-0.9,0.9h-7.4V224c0,0.5-0.4,0.9-0.9,0.9h-3c-0.5,0-0.9-0.4-0.9-0.9L756,197.2L756,197.2z"/>
				<path class="st1" d="M768,223.6l14-30.7c0.1-0.3,0.5-0.5,0.8-0.5h0.5c0.2,0,0.6,0.2,0.8,0.5l13.9,30.7c0.3,0.6-0.1,1.2-0.8,1.2
					h-2.9c-0.5,0-0.9-0.3-1-0.7l-2.8-6.3h-14.9c-0.9,2.1-1.9,4.2-2.8,6.3c-0.1,0.3-0.5,0.7-1,0.7h-2.9
					C768.1,224.8,767.7,224.2,768,223.6z M788.7,214l-5.6-12.5h-0.2l-5.6,12.5H788.7z"/>
				<path class="st1" d="M802.5,193.7c0-0.5,0.4-0.9,0.8-0.9h10.5c8.8,0,16,7.2,16,15.9c0,8.9-7.2,16-16,16h-10.5
					c-0.5,0-0.8-0.4-0.8-0.9V193.7z M813.2,220.5c6.7,0,11.6-4.9,11.6-11.7c0-6.7-4.9-11.6-11.6-11.6h-6v23.3H813.2z"/>
				<path class="st1" d="M850.5,192.4c9.1,0,16.4,7.4,16.4,16.5s-7.3,16.4-16.4,16.4S834,218,834,208.8S841.4,192.4,850.5,192.4z
					 M850.5,220.7c6.5,0,11.9-5.3,11.9-11.8s-5.3-11.9-11.9-11.9c-6.5,0-11.8,5.4-11.8,11.9C838.7,215.3,844,220.7,850.5,220.7z"/>
				<path class="st1" d="M871.4,220.2c0.4-0.6,0.8-1.3,1.2-1.9c0.4-0.6,1.1-0.8,1.6-0.4c0.3,0.2,3.8,3.2,7.3,3.2
					c3.2,0,5.2-1.9,5.2-4.2c0-2.7-2.4-4.5-6.9-6.3c-4.7-2-8.3-4.4-8.3-9.7c0-3.6,2.7-8.4,10-8.4c4.6,0,8,2.4,8.4,2.7
					c0.4,0.2,0.7,0.9,0.3,1.6c-0.4,0.5-0.8,1.2-1.1,1.7c-0.4,0.6-1,0.9-1.6,0.5c-0.3-0.2-3.5-2.3-6.2-2.3c-3.8,0-5.2,2.4-5.2,4.1
					c0,2.6,2,4.2,5.8,5.8c5.3,2.1,9.8,4.7,9.8,10.2c0,4.7-4.2,8.6-10.2,8.6c-5.6,0-9.1-2.9-9.8-3.6C871.2,221.3,871,221,871.4,220.2
					z"/>
			</g>
		</g>
	</g>
</g>
</svg>
