<?xml version="1.0" encoding="utf-8"?>
<!-- Generator: Adobe Illustrator 21.1.0, SVG Export Plug-In . SVG Version: 6.00 Build 0)  -->
<svg version="1.1" id="Layer_1" xmlns="http://www.w3.org/2000/svg" xmlns:xlink="http://www.w3.org/1999/xlink" x="0px" y="0px"
	 viewBox="0 0 1000 736.1" style="enable-background:new 0 0 1000 736.1;" xml:space="preserve">
<style type="text/css">
	.st0{fill:#ACDFF2;}
	.st1{fill:#300C46;}
	.st2{fill:#FCD766;}
	.st3{fill:#465C9D;}
	.st4{fill:#EC6E8D;}
	.st5{fill:#4A4A49;}
	.st6{fill:#93C01F;}
	.st7{fill:#8C1D80;}
	.st8{fill:#0098C3;}
	.st9{fill:#92C472;}
	.st10{fill:none;stroke:#4A4A49;stroke-width:5;stroke-miterlimit:10;}
</style>
<g>
	<g>
		
			<image style="overflow:visible;opacity:0.25;" width="824" height="519" xlink:href="3EF4154ED8668BFF.png"  transform="matrix(1 0 0 1 104.5 148.6)">
		</image>
		<g>
			<polygon class="st0" points="109.3,426.9 109.3,662.2 923.4,662.2 923.4,153.9 719.9,269.2 518.7,243.3 315.2,332.7 			"/>
		</g>
	</g>
	<g>
		
			<image style="overflow:visible;opacity:0.25;" width="823" height="476" xlink:href="3EF4154ED8668BFD.png"  transform="matrix(1 0 0 1 105.5 191.6)">
		</image>
		<g>
			<polygon class="st1" points="110.4,424.5 110.4,662.2 923.4,662.2 923.4,196.3 719.9,317.5 518.7,332.7 315.2,377.5 			"/>
		</g>
	</g>
	<g>
		
			<image style="overflow:visible;opacity:0.25;" width="824" height="421" xlink:href="3EF4154ED8668C03.png"  transform="matrix(1 0 0 1 104.5 246.6)">
		</image>
		<g>
			<polygon class="st2" points="109.3,426.9 109.3,662.2 923.4,662.2 923.4,251.6 719.9,350.4 518.7,381 315.2,404.5 			"/>
		</g>
	</g>
	<g>
		
			<image style="overflow:visible;opacity:0.25;" width="823" height="380" xlink:href="3EF4154ED8668C05.png"  transform="matrix(1 0 0 1 105.5 285.6)">
		</image>
		<g>
			<polygon class="st3" points="110.4,429.2 110.4,661 923.4,661 923.4,290.4 719.9,379.8 518.7,455.1 315.2,441 			"/>
		</g>
	</g>
	<g>
		
			<image style="overflow:visible;opacity:0.25;" width="823" height="130" xlink:href="3EF4154ED8668C07.png"  transform="matrix(1 0 0 1 105.5 538.6)">
		</image>
		<g>
			<polygon class="st4" points="110.4,639.8 110.4,663.3 923.4,663.3 923.4,543.3 719.9,603.3 516.3,625.7 			"/>
		</g>
	</g>
	<g>
		
			<image style="overflow:visible;opacity:0.25;" width="823" height="47" xlink:href="3EF4154ED8668C04.png"  transform="matrix(1 0 0 1 105.5 617.6)">
		</image>
		<g>
			<polygon class="st5" points="110.4,636.3 110.4,659.8 923.4,659.8 923.4,629.2 719.9,622.2 518.7,622.2 			"/>
		</g>
	</g>
	<polygon class="st6" points="110.4,635.5 110.4,659.8 923.4,659.8 923.4,628.2 719.9,640.4 518.7,622.2 315.2,628.2 	"/>
	<polygon class="st7" points="110.4,632.8 110.4,659.8 871.2,659.8 	"/>
	<polygon class="st8" points="110.4,636.1 110.6,661 782.9,660.8 	"/>
	<g>
		<g>
			<g>
				<path class="st5" d="M81.4,699.3c2.1-2.4,5-6,7.1-8.4c1.4-1.6,2.1-3,2.1-4.1c0-1.4-1-3.1-3.5-3.1c-1.6,0-2.8,1.1-3.6,1.9
					c-0.2,0.2-0.5,0.2-0.8,0l-1-1c-0.2-0.2-0.2-0.5,0-0.7c0,0,2.1-2.8,5.5-2.8c4,0,6.2,2.6,6.2,5.5c0,2.2-1.2,3.7-2.7,5.5
					c-1.5,1.8-3.5,4.1-5.1,6h7.2c0.3,0,0.5,0.3,0.5,0.5v1.4c0,0.3-0.3,0.5-0.5,0.5H81.9c-0.3,0-0.5-0.3-0.5-0.5V699.3z"/>
				<path class="st5" d="M96.9,691c0-6.2,2.5-9.9,7-9.9c4.4,0,7,3.7,7,9.9c0,6.2-2.5,9.9-7,9.9C99.5,700.9,96.9,697.2,96.9,691z
					 M108.1,691c0-4.6-1.5-7.3-4.1-7.3c-2.7,0-4.2,2.7-4.2,7.3c0,4.7,1.5,7.3,4.2,7.3C106.6,698.3,108.1,695.7,108.1,691z"/>
				<path class="st5" d="M117,685.7l-2.3,1.1c-0.3,0.1-0.5,0.1-0.6-0.2l-0.3-1c-0.1-0.2,0-0.5,0.1-0.6l4-3.6h1.4
					c0.3,0,0.5,0.3,0.5,0.5v18.1c0,0.3-0.2,0.5-0.5,0.5h-1.7c-0.3,0-0.5-0.3-0.5-0.5V685.7z"/>
				<path class="st5" d="M123.7,697.7l1.1-1c0.3-0.2,0.5-0.2,0.8,0.1c0.2,0.2,1.8,1.8,3.8,1.8c1.8,0,3.5-1.2,3.5-3.1
					c0-1.7-1.4-3.3-4.5-3.3h-1.6c-0.3,0-0.5-0.2-0.5-0.6v-1.2c0-0.4,0.2-0.6,0.6-0.6h1.6c2.7,0,4-1.4,4-3c0-1.9-1.6-3.1-3.2-3.1
					c-1.7,0-2.7,1-3.3,1.6c-0.2,0.2-0.5,0.3-0.7,0.1l-1-0.9c-0.2-0.2-0.2-0.5,0-0.7c0,0,2.1-2.5,5.2-2.5c3.3,0,5.9,2,5.9,5.2
					c0,2.2-1.6,3.8-2.9,4.4v0.1c1.3,0.6,3.4,2.3,3.4,4.7c0,3.1-2.5,5.4-6.4,5.4c-3.5,0-5.2-1.8-5.8-2.5
					C123.5,698.2,123.5,697.9,123.7,697.7z"/>
			</g>
			<g>
				<path class="st5" d="M287.3,699.3c2.1-2.4,5-6,7.1-8.4c1.4-1.6,2.1-3,2.1-4.1c0-1.4-1-3.1-3.5-3.1c-1.6,0-2.8,1.1-3.6,1.9
					c-0.2,0.2-0.5,0.2-0.8,0l-1-1c-0.2-0.2-0.2-0.5,0-0.7c0,0,2.1-2.8,5.5-2.8c4,0,6.2,2.6,6.2,5.5c0,2.2-1.2,3.7-2.7,5.5
					c-1.5,1.8-3.5,4.1-5.1,6h7.2c0.3,0,0.5,0.3,0.5,0.5v1.4c0,0.3-0.3,0.5-0.5,0.5h-10.9c-0.3,0-0.5-0.3-0.5-0.5V699.3z"/>
				<path class="st5" d="M302.8,691c0-6.2,2.5-9.9,7-9.9c4.4,0,7,3.7,7,9.9c0,6.2-2.5,9.9-7,9.9C305.4,700.9,302.8,697.2,302.8,691z
					 M313.9,691c0-4.6-1.5-7.3-4.1-7.3c-2.7,0-4.2,2.7-4.2,7.3c0,4.7,1.5,7.3,4.2,7.3C312.5,698.3,313.9,695.7,313.9,691z"/>
				<path class="st5" d="M322.8,685.7l-2.3,1.1c-0.3,0.1-0.5,0.1-0.6-0.2l-0.3-1c-0.1-0.2,0-0.5,0.1-0.6l4-3.6h1.4
					c0.3,0,0.5,0.3,0.5,0.5v18.1c0,0.3-0.2,0.5-0.5,0.5h-1.7c-0.3,0-0.5-0.3-0.5-0.5V685.7z"/>
				<path class="st5" d="M328.9,695.9v-1.7l10.4-12.9c0.1-0.1,0.3-0.2,0.4-0.2h1c0.3,0,0.5,0.2,0.5,0.5v12.5h2.3
					c0.3,0,0.5,0.2,0.5,0.5v1.2c0,0.3-0.2,0.5-0.5,0.5h-2.3l0,3.7c0,0.3-0.3,0.5-0.5,0.5h-1.7c-0.3,0-0.5-0.3-0.5-0.5v-3.7h-9.2
					C329.1,696.4,328.9,696.1,328.9,695.9z M338.7,694.1v-8.3l-6.8,8.3H338.7z"/>
			</g>
			<g>
				<path class="st5" d="M490.8,699.3c2.1-2.4,5-6,7.1-8.4c1.4-1.6,2.1-3,2.1-4.1c0-1.4-1-3.1-3.5-3.1c-1.6,0-2.8,1.1-3.6,1.9
					c-0.2,0.2-0.5,0.2-0.8,0l-1-1c-0.2-0.2-0.2-0.5,0-0.7c0,0,2.1-2.8,5.5-2.8c4,0,6.2,2.6,6.2,5.5c0,2.2-1.2,3.7-2.7,5.5
					c-1.5,1.8-3.5,4.1-5.1,6h7.2c0.3,0,0.5,0.3,0.5,0.5v1.4c0,0.3-0.3,0.5-0.5,0.5h-10.9c-0.3,0-0.5-0.3-0.5-0.5V699.3z"/>
				<path class="st5" d="M506.4,691c0-6.2,2.5-9.9,7-9.9c4.4,0,7,3.7,7,9.9c0,6.2-2.5,9.9-7,9.9C508.9,700.9,506.4,697.2,506.4,691z
					 M517.5,691c0-4.6-1.5-7.3-4.1-7.3c-2.7,0-4.2,2.7-4.2,7.3c0,4.7,1.5,7.3,4.2,7.3C516,698.3,517.5,695.7,517.5,691z"/>
				<path class="st5" d="M526.4,685.7l-2.3,1.1c-0.3,0.1-0.5,0.1-0.6-0.2l-0.3-1c-0.1-0.2,0-0.5,0.1-0.6l4-3.6h1.4
					c0.3,0,0.5,0.3,0.5,0.5v18.1c0,0.3-0.2,0.5-0.5,0.5h-1.7c-0.3,0-0.5-0.3-0.5-0.5V685.7z"/>
				<path class="st5" d="M533.6,697.6c0.4-0.3,0.7-0.7,1-1c0.2-0.2,0.5-0.3,0.7,0c0.2,0.3,1.8,1.8,3.9,1.8c2.3,0,3.8-2,3.8-4
					c0-2-1.3-3.6-3.9-3.6h-4.3c-0.6,0-0.9-0.5-0.9-1v-7.9c0-0.3,0.2-0.5,0.5-0.5h8.7c0.3,0,0.5,0.3,0.5,0.5v1.4
					c0,0.3-0.2,0.5-0.5,0.5h-6.7v4.5h2.9c4.2,0,6.5,2.4,6.5,6.1c0,3.5-2.8,6.5-6.7,6.5c-3.1,0-4.8-1.5-5.5-2.3
					C533.3,698.1,533.3,697.9,533.6,697.6z"/>
			</g>
			<g>
				<path class="st5" d="M693.2,699.5c2.1-2.4,5-6,7.1-8.4c1.4-1.6,2.1-3,2.1-4.1c0-1.4-1-3.1-3.5-3.1c-1.6,0-2.8,1.1-3.6,1.9
					c-0.2,0.2-0.5,0.2-0.8,0l-1-1c-0.2-0.2-0.2-0.5,0-0.7c0,0,2.1-2.8,5.5-2.8c4,0,6.2,2.6,6.2,5.5c0,2.2-1.2,3.7-2.7,5.5
					c-1.5,1.8-3.5,4.1-5.1,6h7.2c0.3,0,0.5,0.3,0.5,0.5v1.4c0,0.3-0.3,0.5-0.5,0.5h-10.9c-0.3,0-0.5-0.3-0.5-0.5V699.5z"/>
				<path class="st5" d="M708.7,691.2c0-6.2,2.5-9.9,7-9.9c4.4,0,7,3.7,7,9.9c0,6.2-2.5,9.9-7,9.9
					C711.2,701.1,708.7,697.4,708.7,691.2z M719.8,691.2c0-4.6-1.5-7.3-4.1-7.3c-2.7,0-4.2,2.7-4.2,7.3c0,4.7,1.5,7.3,4.2,7.3
					C718.3,698.5,719.8,695.9,719.8,691.2z"/>
				<path class="st5" d="M728.7,685.9l-2.3,1.1c-0.3,0.1-0.5,0.1-0.6-0.2l-0.3-1c-0.1-0.2,0-0.5,0.1-0.6l4-3.6h1.4
					c0.3,0,0.5,0.3,0.5,0.5v18.1c0,0.3-0.2,0.5-0.5,0.5h-1.7c-0.3,0-0.5-0.3-0.5-0.5V685.9z"/>
				<path class="st5" d="M745,681c0.3-0.1,0.6,0,0.7,0.3l0.5,1.2c0.1,0.3,0,0.6-0.5,0.8c-1.3,0.4-5.8,2.8-6.7,6.2
					c0.2-0.1,1.9-1,3.8-1c3,0,5.9,2.2,5.9,6.1c0,3.6-2.9,6.5-6.3,6.5c-4.5,0-6.7-3.6-6.7-7.9C735.6,685.3,742.4,681.9,745,681z
					 M746,694.6c0-2.1-1.7-3.8-3.8-3.8c-2.2,0-3.7,1.6-3.9,2.1c-0.2,2.4,0.8,5.6,3.9,5.6C744.4,698.5,746,696.7,746,694.6z"/>
			</g>
			<g>
				<path class="st5" d="M895.5,699.3c2.1-2.4,5-6,7.1-8.4c1.4-1.6,2.1-3,2.1-4.1c0-1.4-1-3.1-3.5-3.1c-1.6,0-2.8,1.1-3.6,1.9
					c-0.2,0.2-0.5,0.2-0.8,0l-1-1c-0.2-0.2-0.2-0.5,0-0.7c0,0,2.1-2.8,5.5-2.8c4,0,6.2,2.6,6.2,5.5c0,2.2-1.2,3.7-2.7,5.5
					c-1.5,1.8-3.5,4.1-5.1,6h7.2c0.3,0,0.5,0.3,0.5,0.5v1.4c0,0.3-0.3,0.5-0.5,0.5h-10.9c-0.3,0-0.5-0.3-0.5-0.5V699.3z"/>
				<path class="st5" d="M911.1,691c0-6.2,2.5-9.9,7-9.9c4.4,0,7,3.7,7,9.9c0,6.2-2.5,9.9-7,9.9C913.6,700.9,911.1,697.2,911.1,691z
					 M922.2,691c0-4.6-1.5-7.3-4.1-7.3c-2.7,0-4.2,2.7-4.2,7.3c0,4.7,1.5,7.3,4.2,7.3C920.7,698.3,922.2,695.7,922.2,691z"/>
				<path class="st5" d="M931.1,685.7l-2.3,1.1c-0.3,0.1-0.5,0.1-0.6-0.2l-0.3-1c-0.1-0.2,0-0.5,0.1-0.6l4-3.6h1.4
					c0.3,0,0.5,0.3,0.5,0.5v18.1c0,0.3-0.2,0.5-0.5,0.5h-1.7c-0.3,0-0.5-0.3-0.5-0.5V685.7z"/>
				<path class="st5" d="M938.6,699.7l7.6-15.9h-8.4c-0.3,0-0.5-0.3-0.5-0.5v-1.4c0-0.3,0.3-0.5,0.5-0.5h11.5c0.3,0,0.5,0.3,0.5,0.5
					v0.2l-8.3,17.7c-0.3,0.6-0.4,0.8-1.1,0.8h-1.3c-0.4,0-0.6-0.3-0.6-0.5V699.7z"/>
			</g>
			<path class="st9" d="M110.4,639"/>
			<g>
				<path class="st5" d="M82.6,654.9c0-6.2,2.5-9.9,7-9.9c4.4,0,7,3.7,7,9.9c0,6.2-2.5,9.9-7,9.9C85.2,664.8,82.6,661.1,82.6,654.9z
					 M93.8,654.9c0-4.6-1.5-7.3-4.1-7.3c-2.7,0-4.2,2.7-4.2,7.3c0,4.7,1.5,7.3,4.2,7.3C92.3,662.2,93.8,659.6,93.8,654.9z"/>
			</g>
			<g>
				<path class="st5" d="M69,513.8c2.1-2.4,5-6,7.1-8.4c1.4-1.6,2.1-3,2.1-4.1c0-1.4-1-3.1-3.5-3.1c-1.6,0-2.8,1.1-3.6,1.9
					c-0.2,0.2-0.5,0.2-0.8,0l-1-1c-0.2-0.2-0.2-0.5,0-0.7c0,0,2.1-2.8,5.5-2.8c4,0,6.2,2.6,6.2,5.5c0,2.2-1.2,3.7-2.7,5.5
					c-1.5,1.8-3.5,4.1-5.1,6h7.2c0.3,0,0.5,0.3,0.5,0.5v1.4c0,0.3-0.3,0.5-0.5,0.5H69.6c-0.3,0-0.5-0.3-0.5-0.5V513.8z"/>
				<path class="st5" d="M84.3,512.1c0.4-0.3,0.7-0.7,1-1c0.2-0.2,0.5-0.3,0.7,0c0.2,0.3,1.8,1.8,3.9,1.8c2.3,0,3.8-2,3.8-4
					c0-2-1.3-3.6-3.9-3.6h-4.3c-0.6,0-0.9-0.5-0.9-1v-7.9c0-0.3,0.2-0.5,0.5-0.5H94c0.3,0,0.5,0.3,0.5,0.5v1.4
					c0,0.3-0.2,0.5-0.5,0.5h-6.7v4.5h2.9c4.2,0,6.5,2.4,6.5,6.1c0,3.5-2.8,6.5-6.7,6.5c-3.1,0-4.8-1.5-5.5-2.3
					C84,512.6,84,512.4,84.3,512.1z"/>
			</g>
			<g>
				<path class="st5" d="M67.4,355.6c0.4-0.3,0.7-0.7,1-1c0.2-0.2,0.5-0.3,0.7,0c0.2,0.3,1.8,1.8,3.9,1.8c2.3,0,3.8-2,3.8-4
					c0-2-1.3-3.6-3.9-3.6h-4.3c-0.6,0-0.9-0.5-0.9-1V340c0-0.3,0.2-0.5,0.5-0.5h8.7c0.3,0,0.5,0.3,0.5,0.5v1.4
					c0,0.3-0.2,0.5-0.5,0.5h-6.7v4.5h2.9c4.2,0,6.5,2.4,6.5,6.1c0,3.5-2.8,6.5-6.7,6.5c-3.1,0-4.8-1.5-5.5-2.3
					C67.1,356.1,67.1,355.9,67.4,355.6z"/>
				<path class="st5" d="M82.6,349c0-6.2,2.5-9.9,7-9.9c4.4,0,7,3.7,7,9.9c0,6.2-2.5,9.9-7,9.9C85.2,358.9,82.6,355.2,82.6,349z
					 M93.8,349c0-4.6-1.5-7.3-4.1-7.3c-2.7,0-4.2,2.7-4.2,7.3c0,4.7,1.5,7.3,4.2,7.3C92.3,356.3,93.8,353.7,93.8,349z"/>
			</g>
			<g>
				<path class="st5" d="M71.2,202.5l7.6-15.9h-8.4c-0.3,0-0.5-0.3-0.5-0.5v-1.4c0-0.3,0.3-0.5,0.5-0.5H82c0.3,0,0.5,0.3,0.5,0.5
					v0.2l-8.3,17.7c-0.3,0.6-0.4,0.8-1.1,0.8h-1.3c-0.4,0-0.6-0.3-0.6-0.5V202.5z"/>
				<path class="st5" d="M84.3,200.3c0.4-0.3,0.7-0.7,1-1c0.2-0.2,0.5-0.3,0.7,0c0.2,0.3,1.8,1.8,3.9,1.8c2.3,0,3.8-2,3.8-4
					c0-2-1.3-3.6-3.9-3.6h-4.3c-0.6,0-0.9-0.5-0.9-1v-7.9c0-0.3,0.2-0.5,0.5-0.5H94c0.3,0,0.5,0.3,0.5,0.5v1.4
					c0,0.3-0.2,0.5-0.5,0.5h-6.7v4.5h2.9c4.2,0,6.5,2.4,6.5,6.1c0,3.5-2.8,6.5-6.7,6.5c-3.1,0-4.8-1.5-5.5-2.3
					C84,200.9,84,200.7,84.3,200.3z"/>
			</g>
			<g>
				<path class="st5" d="M57.5,33.2l-2.3,1.1c-0.3,0.1-0.5,0.1-0.6-0.2l-0.3-1c-0.1-0.2,0-0.5,0.1-0.6l4-3.6h1.4
					c0.3,0,0.5,0.3,0.5,0.5v18.1c0,0.3-0.2,0.5-0.5,0.5H58c-0.3,0-0.5-0.3-0.5-0.5V33.2z"/>
				<path class="st5" d="M64.8,38.4c0-6.2,2.5-9.9,7-9.9c4.4,0,7,3.7,7,9.9c0,6.2-2.5,9.9-7,9.9C67.4,48.3,64.8,44.6,64.8,38.4z
					 M76,38.4c0-4.6-1.5-7.3-4.1-7.3c-2.7,0-4.2,2.7-4.2,7.3c0,4.7,1.5,7.3,4.2,7.3C74.5,45.8,76,43.1,76,38.4z"/>
				<path class="st5" d="M82.6,38.4c0-6.2,2.5-9.9,7-9.9c4.4,0,7,3.7,7,9.9c0,6.2-2.5,9.9-7,9.9C85.2,48.3,82.6,44.6,82.6,38.4z
					 M93.8,38.4c0-4.6-1.5-7.3-4.1-7.3c-2.7,0-4.2,2.7-4.2,7.3c0,4.7,1.5,7.3,4.2,7.3C92.3,45.8,93.8,43.1,93.8,38.4z"/>
			</g>
		</g>
		<polyline class="st10" points="928.1,662.6 110.7,662.6 109.7,662.6 110.2,38.6 		"/>
	</g>
</g>
</svg>
