<?xml version="1.0" encoding="utf-8"?>
<!-- Generator: Adobe Illustrator 21.1.0, SVG Export Plug-In . SVG Version: 6.00 Build 0)  -->
<svg version="1.1" id="Layer_1" xmlns="http://www.w3.org/2000/svg" xmlns:xlink="http://www.w3.org/1999/xlink" x="0px" y="0px"
	 viewBox="0 0 1000 615.8" style="enable-background:new 0 0 1000 615.8;" xml:space="preserve">
<style type="text/css">
	.st0{fill:#4A4A49;}
	.st1{fill:#92C472;}
	.st2{enable-background:new    ;}
	.st3{fill:#0098C3;}
	.st4{fill:#8C1D80;}
	.st5{fill:#93C01F;}
	.st6{fill:none;stroke:#4A4A49;stroke-width:5;stroke-miterlimit:10;}
</style>
<g>
	<path class="st0" d="M360.3,592.5c1.3-1.5,3.1-3.7,4.4-5.3c0.9-1,1.3-1.9,1.3-2.6c0-0.9-0.6-1.9-2.2-1.9c-1,0-1.8,0.7-2.2,1.2
		c-0.1,0.1-0.3,0.1-0.5,0l-0.6-0.6c-0.1-0.1-0.1-0.3,0-0.5c0,0,1.3-1.7,3.4-1.7c2.5,0,3.9,1.6,3.9,3.5c0,1.4-0.7,2.3-1.7,3.4
		c-0.9,1.1-2.2,2.6-3.2,3.8h4.5c0.2,0,0.3,0.2,0.3,0.3v0.8c0,0.2-0.2,0.3-0.3,0.3h-6.8c-0.2,0-0.3-0.2-0.3-0.3L360.3,592.5
		L360.3,592.5z"/>
	<path class="st0" d="M370,587.4c0-3.9,1.6-6.2,4.4-6.2s4.3,2.3,4.3,6.2s-1.6,6.2-4.3,6.2C371.6,593.5,370,591.2,370,587.4z
		 M376.9,587.4c0-2.9-0.9-4.5-2.6-4.5s-2.6,1.7-2.6,4.5c0,2.9,0.9,4.6,2.6,4.6C376,591.9,376.9,590.3,376.9,587.4z"/>
	<path class="st0" d="M382.5,584.1l-1.4,0.7c-0.2,0.1-0.3,0-0.4-0.1l-0.2-0.6c-0.1-0.1,0-0.3,0.1-0.4l2.5-2.3h0.9
		c0.2,0,0.3,0.2,0.3,0.3V593c0,0.2-0.1,0.3-0.3,0.3h-1.1c-0.2,0-0.3-0.2-0.3-0.3v-8.9H382.5z"/>
	<path class="st0" d="M386.7,591.5l0.7-0.6c0.2-0.1,0.3-0.1,0.5,0c0.1,0.1,1.1,1.1,2.4,1.1c1.1,0,2.2-0.7,2.2-1.9
		c0-1.1-0.9-2.1-2.8-2.1h-1c-0.2,0-0.3-0.1-0.3-0.4v-0.7c0-0.3,0.1-0.4,0.4-0.4h1c1.7,0,2.5-0.8,2.5-1.9c0-1.2-1-1.9-2-1.9
		c-1.1,0-1.7,0.6-2,1c-0.1,0.1-0.3,0.2-0.5,0l-0.7-0.6c-0.1-0.1-0.1-0.3,0-0.5c0,0,1.3-1.5,3.3-1.5s3.7,1.3,3.7,3.2
		c0,1.4-1,2.4-1.8,2.8v0.1c0.8,0.4,2.1,1.4,2.1,2.9c0,1.9-1.5,3.4-4,3.4c-2.2,0-3.2-1.1-3.6-1.6
		C386.6,591.8,386.6,591.6,386.7,591.5z"/>
</g>
<g>
	<path class="st0" d="M507.7,592.6c1.3-1.5,3.1-3.7,4.4-5.3c0.9-1,1.3-1.9,1.3-2.6c0-0.9-0.6-1.9-2.2-1.9c-1,0-1.8,0.7-2.2,1.2
		c-0.1,0.1-0.3,0.1-0.5,0l-0.6-0.6c-0.1-0.1-0.1-0.3,0-0.5c0,0,1.3-1.7,3.4-1.7c2.5,0,3.9,1.6,3.9,3.5c0,1.4-0.7,2.3-1.7,3.4
		c-0.9,1.1-2.2,2.6-3.2,3.8h4.5c0.2,0,0.3,0.2,0.3,0.3v0.8c0,0.2-0.2,0.3-0.3,0.3h-6.7c-0.2,0-0.3-0.2-0.3-0.3L507.7,592.6
		L507.7,592.6z"/>
	<path class="st0" d="M517.4,587.4c0-3.9,1.6-6.2,4.4-6.2c2.8,0,4.3,2.3,4.3,6.2s-1.6,6.2-4.3,6.2
		C519,593.5,517.4,591.2,517.4,587.4z M524.4,587.4c0-2.9-0.9-4.5-2.6-4.5c-1.7,0-2.6,1.7-2.6,4.5c0,2.9,0.9,4.6,2.6,4.6
		C523.4,591.9,524.4,590.3,524.4,587.4z"/>
	<path class="st0" d="M529.9,584.1l-1.4,0.7c-0.2,0.1-0.3,0-0.4-0.1l-0.2-0.6c-0.1-0.1,0-0.3,0.1-0.4l2.5-2.3h0.9
		c0.2,0,0.3,0.2,0.3,0.3V593c0,0.2-0.1,0.3-0.3,0.3h-1.1c-0.2,0-0.3-0.2-0.3-0.3L529.9,584.1L529.9,584.1z"/>
	<path class="st0" d="M533.6,590.4v-1.1l6.5-8c0.1-0.1,0.2-0.1,0.3-0.1h0.7c0.2,0,0.3,0.1,0.3,0.3v7.8h1.4c0.2,0,0.3,0.1,0.3,0.3
		v0.7c0,0.2-0.1,0.3-0.3,0.3h-1.4v2.3c0,0.2-0.2,0.3-0.3,0.3h-1c-0.2,0-0.3-0.2-0.3-0.3v-2.3h-5.7
		C533.8,590.7,533.6,590.6,533.6,590.4z M539.8,589.3v-5.2l-4.2,5.2H539.8z"/>
</g>
<g>
	<path class="st0" d="M655.9,592.5c1.3-1.5,3.1-3.7,4.4-5.3c0.9-1,1.3-1.9,1.3-2.6c0-0.9-0.6-1.9-2.2-1.9c-1,0-1.8,0.7-2.2,1.2
		c-0.1,0.1-0.3,0.1-0.5,0l-0.6-0.6c-0.1-0.1-0.1-0.3,0-0.5c0,0,1.3-1.7,3.4-1.7c2.5,0,3.9,1.6,3.9,3.5c0,1.4-0.7,2.3-1.7,3.4
		c-0.9,1.1-2.2,2.6-3.2,3.8h4.5c0.2,0,0.3,0.2,0.3,0.3v0.8c0,0.2-0.2,0.3-0.3,0.3h-6.8c-0.2,0-0.3-0.2-0.3-0.3L655.9,592.5
		L655.9,592.5z"/>
	<path class="st0" d="M665.6,587.4c0-3.9,1.6-6.2,4.4-6.2c2.8,0,4.3,2.3,4.3,6.2s-1.6,6.2-4.3,6.2
		C667.2,593.5,665.6,591.2,665.6,587.4z M672.5,587.4c0-2.9-0.9-4.5-2.6-4.5c-1.7,0-2.6,1.7-2.6,4.5c0,2.9,0.9,4.6,2.6,4.6
		C671.6,591.9,672.5,590.3,672.5,587.4z"/>
	<path class="st0" d="M678.1,584.1l-1.4,0.7c-0.2,0.1-0.3,0-0.4-0.1l-0.2-0.6c-0.1-0.1,0-0.3,0.1-0.4l2.5-2.3h0.9
		c0.2,0,0.3,0.2,0.3,0.3V593c0,0.2-0.1,0.3-0.3,0.3h-1.1c-0.2,0-0.3-0.2-0.3-0.3L678.1,584.1L678.1,584.1z"/>
	<path class="st0" d="M682.6,591.5c0.2-0.2,0.4-0.4,0.7-0.6c0.1-0.1,0.3-0.2,0.4,0c0.1,0.2,1.1,1.1,2.4,1.1c1.4,0,2.4-1.2,2.4-2.5
		c0-1.2-0.8-2.3-2.4-2.3h-2.7c-0.4,0-0.5-0.3-0.5-0.6v-4.9c0-0.2,0.1-0.3,0.3-0.3h5.4c0.2,0,0.3,0.2,0.3,0.3v0.9
		c0,0.2-0.1,0.3-0.3,0.3h-4.2v2.8h1.8c2.6,0,4,1.5,4,3.8c0,2.2-1.8,4-4.2,4c-1.9,0-3-0.9-3.4-1.5
		C682.4,591.8,682.4,591.7,682.6,591.5z"/>
</g>
<g>
	<path class="st0" d="M804.1,592.7c1.3-1.5,3.1-3.7,4.4-5.3c0.9-1,1.3-1.9,1.3-2.6c0-0.9-0.6-1.9-2.2-1.9c-1,0-1.8,0.7-2.2,1.2
		c-0.1,0.1-0.3,0.1-0.5,0l-0.6-0.6c-0.1-0.1-0.1-0.3,0-0.5c0,0,1.3-1.7,3.4-1.7c2.5,0,3.9,1.6,3.9,3.5c0,1.4-0.7,2.3-1.7,3.4
		c-0.9,1.1-2.2,2.6-3.2,3.8h4.5c0.2,0,0.3,0.2,0.3,0.3v0.8c0,0.2-0.2,0.3-0.3,0.3h-6.8c-0.2,0-0.3-0.2-0.3-0.3L804.1,592.7
		L804.1,592.7z"/>
	<path class="st0" d="M813.8,587.5c0-3.9,1.6-6.2,4.4-6.2c2.8,0,4.3,2.3,4.3,6.2s-1.6,6.2-4.3,6.2
		C815.4,593.6,813.8,591.3,813.8,587.5z M820.7,587.5c0-2.9-0.9-4.5-2.6-4.5c-1.7,0-2.6,1.7-2.6,4.5c0,2.9,0.9,4.6,2.6,4.6
		C819.8,592,820.7,590.4,820.7,587.5z"/>
	<path class="st0" d="M826.3,584.2l-1.4,0.7c-0.2,0.1-0.3,0-0.4-0.1l-0.2-0.6c-0.1-0.1,0-0.3,0.1-0.4l2.5-2.3h0.9
		c0.2,0,0.3,0.2,0.3,0.3v11.3c0,0.2-0.1,0.3-0.3,0.3h-1.1c-0.2,0-0.3-0.2-0.3-0.3L826.3,584.2L826.3,584.2z"/>
	<path class="st0" d="M836.4,581.1c0.2-0.1,0.4,0,0.4,0.2l0.3,0.7c0.1,0.2,0,0.4-0.3,0.5c-0.8,0.3-3.6,1.7-4.2,3.9
		c0.1-0.1,1.2-0.7,2.3-0.7c1.9,0,3.7,1.4,3.7,3.8c0,2.2-1.8,4-3.9,4c-2.8,0-4.2-2.2-4.2-4.9C830.6,583.8,834.8,581.7,836.4,581.1z
		 M837,589.6c0-1.3-1-2.4-2.3-2.4c-1.4,0-2.3,1-2.4,1.3c-0.1,1.5,0.5,3.5,2.4,3.5C836,592,837,590.9,837,589.6z"/>
</g>
<path class="st1" d="M113.6,555"/>
<g>
	<path class="st0" d="M96.2,564.9c0-3.9,1.6-6.2,4.4-6.2s4.3,2.3,4.3,6.2s-1.6,6.2-4.3,6.2C97.8,571,96.2,568.7,96.2,564.9z
		 M103.2,564.9c0-2.9-0.9-4.5-2.6-4.5s-2.6,1.7-2.6,4.5c0,2.9,0.9,4.6,2.6,4.6C102.2,569.4,103.2,567.8,103.2,564.9z"/>
</g>
<g class="st2">
	<path class="st0" d="M210.8,592.4c1.3-1.5,3.1-3.7,4.4-5.3c0.9-1,1.3-1.9,1.3-2.6c0-0.9-0.6-1.9-2.2-1.9c-1,0-1.8,0.7-2.2,1.2
		c-0.1,0.1-0.3,0.1-0.5,0l-0.6-0.6c-0.1-0.1-0.1-0.3,0-0.5c0,0,1.3-1.7,3.4-1.7c2.5,0,3.9,1.6,3.9,3.5c0,1.4-0.7,2.3-1.7,3.4
		c-0.9,1.1-2.2,2.6-3.2,3.8h4.5c0.2,0,0.3,0.2,0.3,0.3v0.8c0,0.2-0.2,0.3-0.3,0.3h-6.8c-0.2,0-0.3-0.2-0.3-0.3L210.8,592.4
		L210.8,592.4z"/>
	<path class="st0" d="M220.4,587.2c0-3.9,1.6-6.2,4.4-6.2c2.8,0,4.3,2.3,4.3,6.2s-1.6,6.2-4.3,6.2
		C222,593.4,220.4,591.1,220.4,587.2z M227.4,587.2c0-2.9-0.9-4.5-2.6-4.5c-1.7,0-2.6,1.7-2.6,4.5c0,2.9,0.9,4.6,2.6,4.6
		C226.4,591.8,227.4,590.2,227.4,587.2z"/>
	<path class="st0" d="M232.9,583.9l-1.4,0.7c-0.2,0.1-0.3,0-0.4-0.1l-0.2-0.6c-0.1-0.1,0-0.3,0.1-0.4l2.5-2.3h0.9
		c0.2,0,0.3,0.2,0.3,0.3v11.3c0,0.2-0.1,0.3-0.3,0.3h-1.1c-0.2,0-0.3-0.2-0.3-0.3v-8.9H232.9z"/>
	<path class="st0" d="M237,592.4c1.3-1.5,3.1-3.7,4.4-5.3c0.9-1,1.3-1.9,1.3-2.6c0-0.9-0.6-1.9-2.2-1.9c-1,0-1.8,0.7-2.2,1.2
		c-0.1,0.1-0.3,0.1-0.5,0l-0.6-0.6c-0.1-0.1-0.1-0.3,0-0.5c0,0,1.3-1.7,3.4-1.7c2.5,0,3.9,1.6,3.9,3.5c0,1.4-0.7,2.3-1.7,3.4
		c-0.9,1.1-2.2,2.6-3.2,3.8h4.5c0.2,0,0.3,0.2,0.3,0.3v0.8c0,0.2-0.2,0.3-0.3,0.3h-6.8c-0.2,0-0.3-0.2-0.3-0.3L237,592.4L237,592.4z
		"/>
</g>
<g class="st2">
	<path class="st0" d="M74.5,359.2c1.3-1.5,3.1-3.7,4.4-5.3c0.9-1,1.3-1.9,1.3-2.6c0-0.9-0.6-1.9-2.2-1.9c-1,0-1.8,0.7-2.2,1.2
		c-0.1,0.1-0.3,0.1-0.5,0l-0.6-0.6c-0.1-0.1-0.1-0.3,0-0.5c0,0,1.3-1.7,3.4-1.7c2.5,0,3.9,1.6,3.9,3.5c0,1.4-0.7,2.3-1.7,3.4
		c-0.9,1.1-2.2,2.6-3.2,3.8h4.5c0.2,0,0.3,0.2,0.3,0.3v0.8c0,0.2-0.2,0.3-0.3,0.3h-6.8c-0.2,0-0.3-0.2-0.3-0.3L74.5,359.2
		L74.5,359.2z"/>
	<path class="st0" d="M84.2,354c0-3.9,1.6-6.2,4.4-6.2s4.3,2.3,4.3,6.2c0,3.9-1.6,6.2-4.3,6.2C85.8,360.1,84.2,357.8,84.2,354z
		 M91.1,354c0-2.9-0.9-4.5-2.6-4.5s-2.6,1.7-2.6,4.5c0,2.9,0.9,4.6,2.6,4.6C90.2,358.5,91.1,356.9,91.1,354z"/>
	<path class="st0" d="M95.3,354c0-3.9,1.6-6.2,4.4-6.2s4.3,2.3,4.3,6.2c0,3.9-1.6,6.2-4.3,6.2C96.9,360.1,95.3,357.8,95.3,354z
		 M102.3,354c0-2.9-0.9-4.5-2.6-4.5s-2.6,1.7-2.6,4.5c0,2.9,0.9,4.6,2.6,4.6C101.3,358.5,102.3,356.9,102.3,354z"/>
</g>
<g class="st2">
	<path class="st0" d="M79.5,457l-1.4,0.7c-0.2,0.1-0.3,0-0.4-0.1l-0.2-0.6c-0.1-0.1,0-0.3,0.1-0.4l2.5-2.3H81c0.2,0,0.3,0.2,0.3,0.3
		V466c0,0.2-0.1,0.3-0.3,0.3h-1.1c-0.2,0-0.3-0.2-0.3-0.3L79.5,457L79.5,457z"/>
	<path class="st0" d="M84.2,460.3c0-3.9,1.6-6.2,4.4-6.2s4.3,2.3,4.3,6.2c0,3.9-1.6,6.2-4.3,6.2C85.7,466.5,84.2,464.2,84.2,460.3z
		 M91.1,460.3c0-2.9-0.9-4.5-2.6-4.5s-2.6,1.7-2.6,4.5c0,2.9,0.9,4.6,2.6,4.6S91.1,463.2,91.1,460.3z"/>
	<path class="st0" d="M95.3,460.3c0-3.9,1.6-6.2,4.4-6.2s4.3,2.3,4.3,6.2c0,3.9-1.6,6.2-4.3,6.2C96.8,466.5,95.3,464.2,95.3,460.3z
		 M102.2,460.3c0-2.9-0.9-4.5-2.6-4.5s-2.6,1.7-2.6,4.5c0,2.9,0.9,4.6,2.6,4.6C101.3,464.9,102.2,463.2,102.2,460.3z"/>
</g>
<g class="st2">
	<path class="st0" d="M74.5,253.2l0.7-0.6c0.2-0.1,0.3-0.1,0.5,0c0.1,0.1,1.1,1.1,2.4,1.1c1.1,0,2.2-0.7,2.2-1.9
		c0-1.1-0.9-2.1-2.8-2.1h-1c-0.2,0-0.3-0.1-0.3-0.4v-0.8c0-0.3,0.1-0.4,0.4-0.4h1c1.7,0,2.5-0.8,2.5-1.9c0-1.2-1-1.9-2-1.9
		c-1.1,0-1.7,0.6-2,1c-0.1,0.1-0.3,0.2-0.5,0l-0.7-0.6c-0.1-0.1-0.1-0.3,0-0.5c0,0,1.3-1.5,3.3-1.5s3.7,1.3,3.7,3.2
		c0,1.4-1,2.4-1.8,2.8v0.1c0.8,0.4,2.1,1.4,2.1,2.9c0,1.9-1.5,3.4-4,3.4c-2.2,0-3.2-1.1-3.6-1.6C74.3,253.5,74.3,253.3,74.5,253.2z"
		/>
	<path class="st0" d="M84.2,249.1c0-3.9,1.6-6.2,4.4-6.2s4.3,2.3,4.3,6.2s-1.6,6.2-4.3,6.2C85.8,255.2,84.2,252.9,84.2,249.1z
		 M91.1,249.1c0-2.9-0.9-4.5-2.6-4.5s-2.6,1.7-2.6,4.5c0,2.9,0.9,4.6,2.6,4.6C90.2,253.6,91.1,252,91.1,249.1z"/>
	<path class="st0" d="M95.3,249.1c0-3.9,1.6-6.2,4.4-6.2s4.3,2.3,4.3,6.2s-1.6,6.2-4.3,6.2C96.9,255.2,95.3,252.9,95.3,249.1z
		 M102.3,249.1c0-2.9-0.9-4.5-2.6-4.5s-2.6,1.7-2.6,4.5c0,2.9,0.9,4.6,2.6,4.6C101.3,253.6,102.3,252,102.3,249.1z"/>
</g>
<g class="st2">
	<path class="st0" d="M74.7,41.9c0.2-0.2,0.4-0.4,0.7-0.6c0.1-0.1,0.3-0.2,0.4,0s1.1,1.1,2.4,1.1c1.4,0,2.4-1.2,2.4-2.5
		c0-1.2-0.8-2.3-2.4-2.3h-2.7c-0.4,0-0.5-0.3-0.5-0.6v-4.9c0-0.2,0.1-0.3,0.3-0.3h5.4c0.2,0,0.3,0.2,0.3,0.3V33
		c0,0.2-0.1,0.3-0.3,0.3h-4.2v2.8h1.8c2.6,0,4.1,1.5,4.1,3.8c0,2.2-1.8,4-4.2,4c-1.9,0-3-0.9-3.4-1.5C74.5,42.2,74.5,42.1,74.7,41.9
		z"/>
	<path class="st0" d="M84.2,37.8c0-3.9,1.6-6.2,4.4-6.2s4.3,2.3,4.3,6.2S91.3,44,88.6,44C85.8,44,84.2,41.6,84.2,37.8z M91.1,37.8
		c0-2.9-0.9-4.5-2.6-4.5s-2.6,1.7-2.6,4.5c0,2.9,0.9,4.6,2.6,4.6C90.2,42.4,91.1,40.7,91.1,37.8z"/>
	<path class="st0" d="M95.3,37.8c0-3.9,1.6-6.2,4.4-6.2s4.3,2.3,4.3,6.2s-1.6,6.2-4.3,6.2C96.9,44,95.3,41.6,95.3,37.8z M102.3,37.8
		c0-2.9-0.9-4.5-2.6-4.5s-2.6,1.7-2.6,4.5c0,2.9,0.9,4.6,2.6,4.6C101.3,42.4,102.3,40.7,102.3,37.8z"/>
</g>
<g class="st2">
	<path class="st0" d="M72.9,148.7v-1.1l6.5-8c0.1-0.1,0.2-0.1,0.3-0.1h0.7c0.2,0,0.3,0.1,0.3,0.3v7.8H82c0.2,0,0.3,0.1,0.3,0.3v0.7
		c0,0.2-0.1,0.3-0.3,0.3h-1.4v2.3c0,0.2-0.2,0.3-0.3,0.3h-1c-0.2,0-0.3-0.2-0.3-0.3V149h-5.7C73,149,72.9,148.8,72.9,148.7z
		 M79,147.5v-5.2l-4.2,5.2H79z"/>
	<path class="st0" d="M84.2,145.6c0-3.9,1.6-6.2,4.4-6.2s4.3,2.3,4.3,6.2s-1.6,6.2-4.3,6.2C85.8,151.8,84.2,149.5,84.2,145.6z
		 M91.1,145.6c0-2.9-0.9-4.5-2.6-4.5s-2.6,1.7-2.6,4.5c0,2.9,0.9,4.6,2.6,4.6C90.2,150.2,91.1,148.5,91.1,145.6z"/>
	<path class="st0" d="M95.3,145.6c0-3.9,1.6-6.2,4.4-6.2s4.3,2.3,4.3,6.2s-1.6,6.2-4.3,6.2C96.9,151.8,95.3,149.5,95.3,145.6z
		 M102.3,145.6c0-2.9-0.9-4.5-2.6-4.5s-2.6,1.7-2.6,4.5c0,2.9,0.9,4.6,2.6,4.6C101.3,150.2,102.3,148.5,102.3,145.6z"/>
</g>
<g>
	
		<image style="overflow:visible;opacity:0.2;enable-background:new    ;" width="62" height="66" xlink:href="99FC8B97CC8A54E0.png"  transform="matrix(1 0 0 1 157.1475 508.9154)">
	</image>
	<g>
		<rect x="170.1" y="526.1" class="st3" width="36.7" height="41.1"/>
	</g>
</g>
<g>
	
		<image style="overflow:visible;opacity:0.2;enable-background:new    ;" width="61" height="93" xlink:href="99FC8B97CC8A54E1.png"  transform="matrix(1 0 0 1 198.1475 481.9154)">
	</image>
	<g>
		<rect x="210.4" y="499" class="st4" width="36.7" height="68.2"/>
	</g>
</g>
<g>
	
		<image style="overflow:visible;opacity:0.2;enable-background:new    ;" width="62" height="118" xlink:href="99FC8B97CC8A54E7.png"  transform="matrix(1 0 0 1 237.1475 456.9154)">
	</image>
	<g>
		<rect x="250" y="474.7" class="st5" width="36.7" height="92.4"/>
	</g>
</g>
<g>
	
		<image style="overflow:visible;opacity:0.2;enable-background:new    ;" width="61" height="66" xlink:href="99FC8B97CC8A54E2.png"  transform="matrix(1 0 0 1 306.1475 509.9154)">
	</image>
	<g>
		<rect x="318.2" y="527.6" class="st3" width="36.7" height="41.1"/>
	</g>
</g>
<g>
	
		<image style="overflow:visible;opacity:0.2;enable-background:new    ;" width="62" height="136" xlink:href="99FC8B97CC8A54E3.png"  transform="matrix(1 0 0 1 346.1475 439.9154)">
	</image>
	<g>
		<rect x="358.6" y="457.1" class="st4" width="36.7" height="111.5"/>
	</g>
</g>
<g>
	
		<image style="overflow:visible;opacity:0.2;enable-background:new    ;" width="61" height="199" xlink:href="99FC8B97CC8A54EE.png"  transform="matrix(1 0 0 1 386.1475 376.9154)">
	</image>
	<g>
		<rect x="398.2" y="394.8" class="st5" width="36.7" height="173.9"/>
	</g>
</g>
<g>
	
		<image style="overflow:visible;opacity:0.2;enable-background:new    ;" width="62" height="97" xlink:href="99FC8B97CC8A54EF.png"  transform="matrix(1 0 0 1 454.1475 478.9154)">
	</image>
	<g>
		<rect x="466.4" y="496.8" class="st3" width="36.7" height="71.9"/>
	</g>
</g>
<g>
	
		<image style="overflow:visible;opacity:0.2;enable-background:new    ;" width="62" height="186" xlink:href="99FC8B97CC8A54E4.png"  transform="matrix(1 0 0 1 494.1475 389.9154)">
	</image>
	<g>
		<rect x="506.8" y="407.3" class="st4" width="36.7" height="161.4"/>
	</g>
</g>
<g>
	
		<image style="overflow:visible;opacity:0.2;enable-background:new    ;" width="61" height="316" xlink:href="99FC8B97CC8A54E5.png"  transform="matrix(1 0 0 1 534.1475 259.9154)">
	</image>
	<g>
		<rect x="546.4" y="277.4" class="st5" width="36.7" height="291.2"/>
	</g>
</g>
<g>
	
		<image style="overflow:visible;opacity:0.2;enable-background:new    ;" width="62" height="92" xlink:href="41802CF08FFE44BF.png"  transform="matrix(1 0 0 1 602.1475 483.9154)">
	</image>
	<g>
		<rect x="614.6" y="501.9" class="st3" width="36.7" height="66.8"/>
	</g>
</g>
<g>
	
		<image style="overflow:visible;opacity:0.2;enable-background:new    ;" width="62" height="184" xlink:href="41802CF08FFE44BD.png"  transform="matrix(1 0 0 1 642.1475 391.9154)">
	</image>
	<g>
		<rect x="655" y="409.5" class="st4" width="36.7" height="159.2"/>
	</g>
</g>
<g>
	
		<image style="overflow:visible;opacity:0.2;enable-background:new    ;" width="62" height="506" xlink:href="41802CF08FFE44BB.png"  transform="matrix(1 0 0 1 682.1475 69.9154)">
	</image>
	<g>
		<rect x="694.6" y="87.4" class="st5" width="36.7" height="481.2"/>
	</g>
</g>
<g>
	
		<image style="overflow:visible;opacity:0.2;enable-background:new    ;" width="62" height="111" xlink:href="41802CF08FFE44B5.png"  transform="matrix(1 0 0 1 750.1475 464.9154)">
	</image>
	<g>
		<rect x="762.8" y="482.1" class="st3" width="36.7" height="86.6"/>
	</g>
</g>
<g>
	
		<image style="overflow:visible;opacity:0.2;enable-background:new    ;" width="61" height="181" xlink:href="41802CF08FFE44B7.png"  transform="matrix(1 0 0 1 791.1475 394.9154)">
	</image>
	<g>
		<rect x="803.1" y="412.4" class="st4" width="36.7" height="156.2"/>
	</g>
</g>
<g>
	
		<image style="overflow:visible;opacity:0.2;enable-background:new    ;" width="62" height="392" xlink:href="41802CF08FFE44AA.png"  transform="matrix(1 0 0 1 830.1475 183.9154)">
	</image>
	<g>
		<rect x="842.7" y="201.1" class="st5" width="36.7" height="367.5"/>
	</g>
</g>
<polyline class="st6" points="927.1,568.9 115,568.9 114.1,568.9 114.5,22.9 "/>
</svg>
