<?xml version="1.0" encoding="utf-8"?>
<!-- Generator: Adobe Illustrator 21.1.0, SVG Export Plug-In . SVG Version: 6.00 Build 0)  -->
<svg version="1.1" id="Layer_1" xmlns="http://www.w3.org/2000/svg" xmlns:xlink="http://www.w3.org/1999/xlink" x="0px" y="0px"
	 viewBox="0 0 1000 1000" style="enable-background:new 0 0 1000 1000;" xml:space="preserve">
<style type="text/css">
	.st0{fill:#0098C3;}
	.st1{fill:#4A4A49;}
	.st2{fill:#8C1D80;}
	.st3{fill:#93C01F;}
</style>
<g>
	<g>
		<rect x="108.7" y="329.9" class="st0" width="41.1" height="41.1"/>
		<g>
			<g>
				<path class="st1" d="M170.7,338.8h-7.4c-0.5,0-0.9-0.4-0.9-0.9v-2.6c0-0.5,0.4-0.9,0.9-0.9h19.6c0.5,0,0.9,0.4,0.9,0.9v2.6
					c0,0.5-0.4,0.9-0.9,0.9h-7.4v26.8c0,0.5-0.4,0.9-0.9,0.9h-3c-0.5,0-0.9-0.4-0.9-0.9V338.8z"/>
				<path class="st1" d="M202.3,334c9.1,0,16.4,7.3,16.4,16.5c0,9.1-7.3,16.4-16.4,16.4s-16.4-7.3-16.4-16.4
					C186,341.4,193.2,334,202.3,334z M202.3,362.3c6.5,0,11.9-5.3,11.9-11.8c0-6.5-5.3-11.9-11.9-11.9c-6.5,0-11.8,5.4-11.8,11.9
					C190.5,357,195.9,362.3,202.3,362.3z"/>
				<path class="st1" d="M229.2,338.8h-7.4c-0.5,0-0.9-0.4-0.9-0.9v-2.6c0-0.5,0.4-0.9,0.9-0.9h19.6c0.5,0,0.9,0.4,0.9,0.9v2.6
					c0,0.5-0.4,0.9-0.9,0.9H234v26.8c0,0.5-0.4,0.9-0.9,0.9h-3c-0.5,0-0.9-0.4-0.9-0.9V338.8z"/>
				<path class="st1" d="M241.2,365.2l14-30.7c0.1-0.3,0.5-0.5,0.8-0.5h0.5c0.2,0,0.6,0.2,0.8,0.5l13.9,30.7
					c0.3,0.6-0.1,1.2-0.8,1.2h-2.9c-0.5,0-0.9-0.3-1-0.7l-2.8-6.3h-14.9c-0.9,2.1-1.9,4.2-2.8,6.3c-0.1,0.3-0.5,0.7-1,0.7H242
					C241.3,366.4,240.9,365.8,241.2,365.2z M261.9,355.6l-5.6-12.5H256l-5.6,12.5H261.9z"/>
				<path class="st1" d="M275.7,335.3c0-0.5,0.4-0.9,0.9-0.9h3c0.5,0,0.9,0.4,0.9,0.9v26.8h12.4c0.5,0,0.9,0.4,0.9,0.9v2.5
					c0,0.5-0.4,0.9-0.9,0.9h-16.3c-0.5,0-0.9-0.4-0.9-0.9V335.3z"/>
				<path class="st1" d="M308.6,335.3c0-0.5,0.4-0.9,0.9-0.9h10.4c5.6,0,10.2,4.6,10.2,10.1c0,5.7-4.6,10.3-10.2,10.3h-6.6v10.7
					c0,0.5-0.4,0.9-0.9,0.9h-3c-0.5,0-0.9-0.4-0.9-0.9V335.3z M319.6,350.4c3.2,0,5.8-2.6,5.8-5.8c0-3.1-2.6-5.5-5.8-5.5h-6.3v11.3
					H319.6z"/>
				<path class="st1" d="M335.7,335.3c0-0.5,0.4-0.9,0.9-0.9H349c5.5,0,10,4.3,10,9.8c0,4.2-2.8,7.7-6.8,9.3l6.3,11.6
					c0.3,0.6,0,1.3-0.8,1.3h-3.6c-0.4,0-0.6-0.2-0.7-0.4l-6.1-12.1h-6.9v11.6c0,0.5-0.4,0.9-0.9,0.9h-3c-0.5,0-0.9-0.4-0.9-0.9
					V335.3z M348.6,350c3,0,5.6-2.5,5.6-5.7c0-3-2.6-5.4-5.6-5.4h-8.1V350H348.6z"/>
				<path class="st1" d="M380.1,334c9.1,0,16.4,7.3,16.4,16.5c0,9.1-7.3,16.4-16.4,16.4s-16.4-7.3-16.4-16.4
					C363.7,341.4,371,334,380.1,334z M380.1,362.3c6.5,0,11.9-5.3,11.9-11.8c0-6.5-5.3-11.9-11.9-11.9c-6.5,0-11.8,5.4-11.8,11.9
					C368.3,357,373.6,362.3,380.1,362.3z"/>
				<path class="st1" d="M408.8,351.1l-10.7-15.3c-0.4-0.6,0-1.3,0.7-1.3h3.4c0.4,0,0.6,0.2,0.7,0.4l8.3,11.6l8.3-11.6
					c0.1-0.2,0.4-0.4,0.7-0.4h3.4c0.7,0,1.1,0.7,0.7,1.3L413.5,351v14.6c0,0.5-0.4,0.9-0.9,0.9h-3c-0.5,0-0.9-0.4-0.9-0.9V351.1z"/>
				<path class="st1" d="M428.7,335.3c0-0.5,0.4-0.9,0.9-0.9h18.3c0.5,0,0.9,0.4,0.9,0.9v2.6c0,0.5-0.4,0.9-0.9,0.9h-14.4v9.3h12.2
					c0.5,0,0.9,0.4,0.9,0.9v2.6c0,0.5-0.4,0.9-0.9,0.9h-12.2v9.8h14.4c0.5,0,0.9,0.4,0.9,0.9v2.5c0,0.5-0.4,0.9-0.9,0.9h-18.3
					c-0.5,0-0.9-0.4-0.9-0.9V335.3z"/>
				<path class="st1" d="M469.6,334c4.6,0,7.9,1.6,11,4.2c0.4,0.4,0.4,0.9,0,1.3l-2,2.1c-0.3,0.4-0.7,0.4-1.1,0
					c-2.1-1.9-5.1-3.1-7.9-3.1c-6.5,0-11.5,5.5-11.5,11.9c0,6.4,5,11.8,11.5,11.8c3.3,0,5.7-1.3,7.9-3c0.4-0.3,0.8-0.3,1.1,0
					l2.1,2.1c0.4,0.3,0.3,0.9,0,1.2c-3.1,3-7,4.4-11.1,4.4c-9.1,0-16.5-7.3-16.5-16.4C453.2,341.4,460.5,334,469.6,334z"/>
				<path class="st1" d="M491.7,338.8h-7.4c-0.5,0-0.9-0.4-0.9-0.9v-2.6c0-0.5,0.4-0.9,0.9-0.9h19.6c0.5,0,0.9,0.4,0.9,0.9v2.6
					c0,0.5-0.4,0.9-0.9,0.9h-7.4v26.8c0,0.5-0.4,0.9-0.9,0.9h-3c-0.5,0-0.9-0.4-0.9-0.9V338.8z"/>
				<path class="st1" d="M523.2,334c9.1,0,16.4,7.3,16.4,16.5c0,9.1-7.3,16.4-16.4,16.4s-16.4-7.3-16.4-16.4
					C506.9,341.4,514.1,334,523.2,334z M523.2,362.3c6.5,0,11.9-5.3,11.9-11.8c0-6.5-5.3-11.9-11.9-11.9c-6.5,0-11.8,5.4-11.8,11.9
					C511.4,357,516.8,362.3,523.2,362.3z"/>
				<path class="st1" d="M544.2,361.8c0.4-0.6,0.8-1.3,1.2-1.9c0.4-0.6,1.1-0.8,1.6-0.4c0.3,0.2,3.8,3.2,7.3,3.2
					c3.2,0,5.2-1.9,5.2-4.2c0-2.7-2.4-4.5-6.9-6.3c-4.7-2-8.3-4.4-8.3-9.7c0-3.6,2.7-8.4,10-8.4c4.6,0,8,2.4,8.4,2.7
					c0.4,0.2,0.7,0.9,0.3,1.6c-0.4,0.5-0.8,1.2-1.1,1.7c-0.4,0.6-1,0.9-1.6,0.5c-0.3-0.2-3.5-2.3-6.2-2.3c-3.8,0-5.2,2.4-5.2,4.1
					c0,2.6,2,4.2,5.8,5.8c5.3,2.1,9.8,4.7,9.8,10.2c0,4.8-4.2,8.6-10.2,8.6c-5.6,0-9.1-2.9-9.8-3.6
					C544,362.9,543.7,362.6,544.2,361.8z"/>
				<path class="st1" d="M580.8,335.3c0-0.5,0.4-0.9,0.9-0.9h18.3c0.5,0,0.9,0.4,0.9,0.9v2.6c0,0.5-0.4,0.9-0.9,0.9h-14.4v9.3h12.2
					c0.5,0,0.9,0.4,0.9,0.9v2.6c0,0.5-0.4,0.9-0.9,0.9h-12.2v9.8h14.4c0.5,0,0.9,0.4,0.9,0.9v2.5c0,0.5-0.4,0.9-0.9,0.9h-18.3
					c-0.5,0-0.9-0.4-0.9-0.9V335.3z"/>
				<path class="st1" d="M602.9,362.4l1.6-1.8c0.6-0.5,1.1-0.4,1.5,0.1c0.7,0.8,2,2,3.7,2c2.2,0,4.6-1.7,4.6-5.8v-21.6
					c0-0.5,0.4-0.9,0.9-0.9h3c0.5,0,0.9,0.4,0.9,0.9v21.6c0,6.3-4,10-9.4,10c-4,0-6.2-2.4-6.9-3.3
					C602.6,363.2,602.6,362.7,602.9,362.4z"/>
				<path class="st1" d="M626.8,335.3c0-0.5,0.4-0.9,0.9-0.9h18.3c0.5,0,0.9,0.4,0.9,0.9v2.6c0,0.5-0.4,0.9-0.9,0.9h-14.4v9.3h12.2
					c0.5,0,0.9,0.4,0.9,0.9v2.6c0,0.5-0.4,0.9-0.9,0.9h-12.2v9.8h14.4c0.5,0,0.9,0.4,0.9,0.9v2.5c0,0.5-0.4,0.9-0.9,0.9h-18.3
					c-0.5,0-0.9-0.4-0.9-0.9V335.3z"/>
				<path class="st1" d="M667.7,334c4.6,0,7.9,1.6,11,4.2c0.4,0.4,0.4,0.9,0,1.3l-2,2.1c-0.3,0.4-0.7,0.4-1.1,0
					c-2.1-1.9-5.1-3.1-7.9-3.1c-6.5,0-11.5,5.5-11.5,11.9c0,6.4,5,11.8,11.5,11.8c3.3,0,5.7-1.3,7.9-3c0.4-0.3,0.8-0.3,1.1,0
					l2.1,2.1c0.4,0.3,0.3,0.9,0,1.2c-3.1,3-7,4.4-11.1,4.4c-9.1,0-16.5-7.3-16.5-16.4C651.2,341.4,658.6,334,667.7,334z"/>
				<path class="st1" d="M684.9,335.3c0-0.5,0.4-0.9,0.9-0.9h3.1c0.5,0,0.9,0.4,0.9,0.9v18.9c0,4.6,2.9,8.1,7.6,8.1
					c4.7,0,7.7-3.5,7.7-8v-18.9c0-0.5,0.4-0.9,0.9-0.9h3.1c0.5,0,0.9,0.4,0.9,0.9v19.2c0,6.9-5.2,12.4-12.5,12.4
					c-7.2,0-12.4-5.4-12.4-12.4V335.3z"/>
				<path class="st1" d="M722.6,338.8h-7.4c-0.5,0-0.9-0.4-0.9-0.9v-2.6c0-0.5,0.4-0.9,0.9-0.9h19.6c0.5,0,0.9,0.4,0.9,0.9v2.6
					c0,0.5-0.4,0.9-0.9,0.9h-7.4v26.8c0,0.5-0.4,0.9-0.9,0.9h-3c-0.5,0-0.9-0.4-0.9-0.9V338.8z"/>
				<path class="st1" d="M734.6,365.2l14-30.7c0.1-0.3,0.5-0.5,0.8-0.5h0.5c0.2,0,0.6,0.2,0.8,0.5l13.9,30.7
					c0.3,0.6-0.1,1.2-0.8,1.2h-2.9c-0.5,0-0.9-0.3-1-0.7l-2.8-6.3H742c-0.9,2.1-1.9,4.2-2.8,6.3c-0.1,0.3-0.5,0.7-1,0.7h-2.9
					C734.7,366.4,734.3,365.8,734.6,365.2z M755.2,355.6l-5.6-12.5h-0.2l-5.6,12.5H755.2z"/>
				<path class="st1" d="M769.1,335.3c0-0.5,0.4-0.9,0.8-0.9h10.5c8.8,0,16,7.2,16,15.9c0,8.9-7.2,16-16,16h-10.5
					c-0.5,0-0.8-0.4-0.8-0.9V335.3z M779.8,362.1c6.7,0,11.6-4.9,11.6-11.7c0-6.7-4.9-11.6-11.6-11.6h-6v23.3H779.8z"/>
				<path class="st1" d="M817.1,334c9.1,0,16.4,7.3,16.4,16.5c0,9.1-7.3,16.4-16.4,16.4s-16.4-7.3-16.4-16.4
					C800.7,341.4,807.9,334,817.1,334z M817.1,362.3c6.5,0,11.9-5.3,11.9-11.8c0-6.5-5.3-11.9-11.9-11.9c-6.5,0-11.8,5.4-11.8,11.9
					C805.2,357,810.6,362.3,817.1,362.3z"/>
				<path class="st1" d="M838,361.8c0.4-0.6,0.8-1.3,1.2-1.9c0.4-0.6,1.1-0.8,1.6-0.4c0.3,0.2,3.8,3.2,7.3,3.2
					c3.2,0,5.2-1.9,5.2-4.2c0-2.7-2.4-4.5-6.9-6.3c-4.7-2-8.3-4.4-8.3-9.7c0-3.6,2.7-8.4,10-8.4c4.6,0,8,2.4,8.4,2.7
					c0.4,0.2,0.7,0.9,0.3,1.6c-0.4,0.5-0.8,1.2-1.1,1.7c-0.4,0.6-1,0.9-1.6,0.5c-0.3-0.2-3.5-2.3-6.2-2.3c-3.8,0-5.2,2.4-5.2,4.1
					c0,2.6,2,4.2,5.8,5.8c5.3,2.1,9.8,4.7,9.8,10.2c0,4.8-4.2,8.6-10.2,8.6c-5.6,0-9.1-2.9-9.8-3.6
					C837.8,362.9,837.5,362.6,838,361.8z"/>
			</g>
		</g>
	</g>
	<g>
		<rect x="108.7" y="411.7" class="st2" width="41.1" height="41.1"/>
		<g>
			<g>
				<path class="st1" d="M170.7,420.6h-7.4c-0.5,0-0.9-0.4-0.9-0.9v-2.6c0-0.5,0.4-0.9,0.9-0.9h19.6c0.5,0,0.9,0.4,0.9,0.9v2.6
					c0,0.5-0.4,0.9-0.9,0.9h-7.4v26.8c0,0.5-0.4,0.9-0.9,0.9h-3c-0.5,0-0.9-0.4-0.9-0.9V420.6z"/>
				<path class="st1" d="M202.3,415.8c9.1,0,16.4,7.4,16.4,16.5c0,9.1-7.3,16.4-16.4,16.4s-16.4-7.3-16.4-16.4
					C186,423.2,193.2,415.8,202.3,415.8z M202.3,444.1c6.5,0,11.9-5.3,11.9-11.8c0-6.5-5.3-11.9-11.9-11.9
					c-6.5,0-11.8,5.4-11.8,11.9C190.5,438.8,195.9,444.1,202.3,444.1z"/>
				<path class="st1" d="M229.2,420.6h-7.4c-0.5,0-0.9-0.4-0.9-0.9v-2.6c0-0.5,0.4-0.9,0.9-0.9h19.6c0.5,0,0.9,0.4,0.9,0.9v2.6
					c0,0.5-0.4,0.9-0.9,0.9H234v26.8c0,0.5-0.4,0.9-0.9,0.9h-3c-0.5,0-0.9-0.4-0.9-0.9V420.6z"/>
				<path class="st1" d="M241.2,447l14-30.7c0.1-0.3,0.5-0.5,0.8-0.5h0.5c0.2,0,0.6,0.2,0.8,0.5l13.9,30.7c0.3,0.6-0.1,1.2-0.8,1.2
					h-2.9c-0.5,0-0.9-0.3-1-0.7l-2.8-6.3h-14.9c-0.9,2.1-1.9,4.2-2.8,6.3c-0.1,0.3-0.5,0.7-1,0.7H242
					C241.3,448.2,240.9,447.6,241.2,447z M261.9,437.4l-5.6-12.5H256l-5.6,12.5H261.9z"/>
				<path class="st1" d="M275.7,417.1c0-0.5,0.4-0.9,0.9-0.9h3c0.5,0,0.9,0.4,0.9,0.9V444h12.4c0.5,0,0.9,0.4,0.9,0.9v2.5
					c0,0.5-0.4,0.9-0.9,0.9h-16.3c-0.5,0-0.9-0.4-0.9-0.9V417.1z"/>
				<path class="st1" d="M308.6,417.1c0-0.5,0.4-0.9,0.9-0.9h10.4c5.6,0,10.2,4.6,10.2,10.1c0,5.7-4.6,10.3-10.2,10.3h-6.6v10.7
					c0,0.5-0.4,0.9-0.9,0.9h-3c-0.5,0-0.9-0.4-0.9-0.9V417.1z M319.6,432.2c3.2,0,5.8-2.6,5.8-5.8c0-3.1-2.6-5.5-5.8-5.5h-6.3v11.3
					H319.6z"/>
				<path class="st1" d="M335.7,417.1c0-0.5,0.4-0.9,0.9-0.9H349c5.5,0,10,4.3,10,9.8c0,4.2-2.8,7.7-6.8,9.3l6.3,11.6
					c0.3,0.6,0,1.3-0.8,1.3h-3.6c-0.4,0-0.6-0.2-0.7-0.4l-6.1-12.1h-6.9v11.6c0,0.5-0.4,0.9-0.9,0.9h-3c-0.5,0-0.9-0.4-0.9-0.9
					V417.1z M348.6,431.8c3,0,5.6-2.5,5.6-5.7c0-3-2.6-5.4-5.6-5.4h-8.1v11.1H348.6z"/>
				<path class="st1" d="M380.1,415.8c9.1,0,16.4,7.4,16.4,16.5c0,9.1-7.3,16.4-16.4,16.4s-16.4-7.3-16.4-16.4
					C363.7,423.2,371,415.8,380.1,415.8z M380.1,444.1c6.5,0,11.9-5.3,11.9-11.8c0-6.5-5.3-11.9-11.9-11.9
					c-6.5,0-11.8,5.4-11.8,11.9C368.3,438.8,373.6,444.1,380.1,444.1z"/>
				<path class="st1" d="M408.8,432.9l-10.7-15.3c-0.4-0.6,0-1.3,0.7-1.3h3.4c0.4,0,0.6,0.2,0.7,0.4l8.3,11.6l8.3-11.6
					c0.1-0.2,0.4-0.4,0.7-0.4h3.4c0.7,0,1.1,0.7,0.7,1.3l-10.8,15.2v14.6c0,0.5-0.4,0.9-0.9,0.9h-3c-0.5,0-0.9-0.4-0.9-0.9V432.9z"
					/>
				<path class="st1" d="M428.7,417.1c0-0.5,0.4-0.9,0.9-0.9h18.3c0.5,0,0.9,0.4,0.9,0.9v2.6c0,0.5-0.4,0.9-0.9,0.9h-14.4v9.3h12.2
					c0.5,0,0.9,0.4,0.9,0.9v2.6c0,0.5-0.4,0.9-0.9,0.9h-12.2v9.8h14.4c0.5,0,0.9,0.4,0.9,0.9v2.5c0,0.5-0.4,0.9-0.9,0.9h-18.3
					c-0.5,0-0.9-0.4-0.9-0.9V417.1z"/>
				<path class="st1" d="M469.6,415.8c4.6,0,7.9,1.6,11,4.2c0.4,0.4,0.4,0.9,0,1.3l-2,2.1c-0.3,0.4-0.7,0.4-1.1,0
					c-2.1-1.9-5.1-3.1-7.9-3.1c-6.5,0-11.5,5.5-11.5,11.9c0,6.4,5,11.8,11.5,11.8c3.3,0,5.7-1.3,7.9-3c0.4-0.3,0.8-0.3,1.1,0
					l2.1,2.1c0.4,0.3,0.3,0.9,0,1.2c-3.1,3-7,4.4-11.1,4.4c-9.1,0-16.5-7.3-16.5-16.4C453.2,423.2,460.5,415.8,469.6,415.8z"/>
				<path class="st1" d="M491.7,420.6h-7.4c-0.5,0-0.9-0.4-0.9-0.9v-2.6c0-0.5,0.4-0.9,0.9-0.9h19.6c0.5,0,0.9,0.4,0.9,0.9v2.6
					c0,0.5-0.4,0.9-0.9,0.9h-7.4v26.8c0,0.5-0.4,0.9-0.9,0.9h-3c-0.5,0-0.9-0.4-0.9-0.9V420.6z"/>
				<path class="st1" d="M523.2,415.8c9.1,0,16.4,7.4,16.4,16.5c0,9.1-7.3,16.4-16.4,16.4s-16.4-7.3-16.4-16.4
					C506.9,423.2,514.1,415.8,523.2,415.8z M523.2,444.1c6.5,0,11.9-5.3,11.9-11.8c0-6.5-5.3-11.9-11.9-11.9
					c-6.5,0-11.8,5.4-11.8,11.9C511.4,438.8,516.8,444.1,523.2,444.1z"/>
				<path class="st1" d="M544.2,443.6c0.4-0.6,0.8-1.3,1.2-1.9c0.4-0.6,1.1-0.8,1.6-0.4c0.3,0.2,3.8,3.2,7.3,3.2
					c3.2,0,5.2-1.9,5.2-4.2c0-2.7-2.4-4.5-6.9-6.3c-4.7-2-8.3-4.4-8.3-9.7c0-3.6,2.7-8.4,10-8.4c4.6,0,8,2.4,8.4,2.7
					c0.4,0.2,0.7,0.9,0.3,1.6c-0.4,0.5-0.8,1.2-1.1,1.7c-0.4,0.6-1,0.9-1.6,0.5c-0.3-0.2-3.5-2.3-6.2-2.3c-3.8,0-5.2,2.4-5.2,4.1
					c0,2.6,2,4.2,5.8,5.8c5.3,2.1,9.8,4.7,9.8,10.2c0,4.7-4.2,8.6-10.2,8.6c-5.6,0-9.1-2.9-9.8-3.6
					C544,444.7,543.7,444.4,544.2,443.6z"/>
				<path class="st1" d="M576.5,447l14-30.7c0.1-0.3,0.5-0.5,0.8-0.5h0.5c0.2,0,0.6,0.2,0.8,0.5l13.9,30.7c0.3,0.6-0.1,1.2-0.8,1.2
					h-2.9c-0.5,0-0.9-0.3-1-0.7l-2.8-6.3H584c-0.9,2.1-1.9,4.2-2.8,6.3c-0.1,0.3-0.5,0.7-1,0.7h-2.9
					C576.6,448.2,576.2,447.6,576.5,447z M597.2,437.4l-5.6-12.5h-0.2l-5.6,12.5H597.2z"/>
				<path class="st1" d="M611,417.1c0-0.5,0.4-0.9,0.9-0.9h10.4c5.6,0,10.2,4.6,10.2,10.1c0,5.7-4.6,10.3-10.2,10.3h-6.6v10.7
					c0,0.5-0.4,0.9-0.9,0.9h-3c-0.5,0-0.9-0.4-0.9-0.9V417.1z M622,432.2c3.2,0,5.8-2.6,5.8-5.8c0-3.1-2.6-5.5-5.8-5.5h-6.3v11.3
					H622z"/>
				<path class="st1" d="M638.1,417.1c0-0.5,0.4-0.9,0.9-0.9h12.4c5.5,0,10,4.3,10,9.8c0,4.2-2.8,7.7-6.8,9.3l6.3,11.6
					c0.3,0.6,0,1.3-0.8,1.3h-3.6c-0.4,0-0.6-0.2-0.7-0.4l-6.1-12.1h-6.9v11.6c0,0.5-0.4,0.9-0.9,0.9h-3c-0.5,0-0.9-0.4-0.9-0.9
					V417.1z M651,431.8c3,0,5.6-2.5,5.6-5.7c0-3-2.6-5.4-5.6-5.4h-8.1v11.1H651z"/>
				<path class="st1" d="M682.6,415.8c9.1,0,16.4,7.4,16.4,16.5c0,9.1-7.3,16.4-16.4,16.4s-16.4-7.3-16.4-16.4
					C666.2,423.2,673.4,415.8,682.6,415.8z M682.6,444.1c6.5,0,11.9-5.3,11.9-11.8c0-6.5-5.3-11.9-11.9-11.9
					c-6.5,0-11.8,5.4-11.8,11.9C670.7,438.8,676.1,444.1,682.6,444.1z"/>
				<path class="st1" d="M705.5,417.1c0-0.5,0.4-0.9,0.9-0.9h10.2c5.5,0,9.5,3.7,9.5,8.4c0,3.5-2.6,6-4.7,7.3c2.4,1,5.7,3.2,5.7,7.4
					c0,5.1-4.2,8.8-10,8.8h-10.7c-0.5,0-0.9-0.4-0.9-0.9V417.1z M717.1,444c2.8,0,4.9-2.1,4.9-5c0-2.8-2.6-4.8-5.6-4.8h-6.3v9.8
					H717.1z M716.3,430.2c2.9,0,4.7-2.1,4.7-4.9c0-2.8-1.8-4.7-4.7-4.7h-6.2v9.6H716.3z"/>
				<path class="st1" d="M729.6,447l14-30.7c0.1-0.3,0.5-0.5,0.8-0.5h0.5c0.2,0,0.6,0.2,0.8,0.5l13.9,30.7c0.3,0.6-0.1,1.2-0.8,1.2
					h-2.9c-0.5,0-0.9-0.3-1-0.7l-2.8-6.3h-14.9c-0.9,2.1-1.9,4.2-2.8,6.3c-0.1,0.3-0.5,0.7-1,0.7h-2.9
					C729.7,448.2,729.4,447.6,729.6,447z M750.3,437.4l-5.6-12.5h-0.2l-5.6,12.5H750.3z"/>
				<path class="st1" d="M764.2,417.1c0-0.5,0.4-0.9,0.8-0.9h10.5c8.8,0,16,7.2,16,15.9c0,8.9-7.2,16-16,16H765
					c-0.5,0-0.8-0.4-0.8-0.9V417.1z M774.8,443.9c6.7,0,11.6-4.9,11.6-11.7c0-6.7-4.9-11.6-11.6-11.6h-6v23.3H774.8z"/>
				<path class="st1" d="M812.1,415.8c9.1,0,16.4,7.4,16.4,16.5c0,9.1-7.3,16.4-16.4,16.4s-16.4-7.3-16.4-16.4
					C795.7,423.2,803,415.8,812.1,415.8z M812.1,444.1c6.5,0,11.9-5.3,11.9-11.8c0-6.5-5.3-11.9-11.9-11.9
					c-6.5,0-11.8,5.4-11.8,11.9C800.3,438.8,805.7,444.1,812.1,444.1z"/>
				<path class="st1" d="M833.1,443.6c0.4-0.6,0.8-1.3,1.2-1.9c0.4-0.6,1.1-0.8,1.6-0.4c0.3,0.2,3.8,3.2,7.3,3.2
					c3.2,0,5.2-1.9,5.2-4.2c0-2.7-2.4-4.5-6.9-6.3c-4.7-2-8.3-4.4-8.3-9.7c0-3.6,2.7-8.4,10-8.4c4.6,0,8,2.4,8.4,2.7
					c0.4,0.2,0.7,0.9,0.3,1.6c-0.4,0.5-0.8,1.2-1.1,1.7c-0.4,0.6-1,0.9-1.6,0.5c-0.3-0.2-3.5-2.3-6.2-2.3c-3.8,0-5.2,2.4-5.2,4.1
					c0,2.6,2,4.2,5.8,5.8c5.3,2.1,9.8,4.7,9.8,10.2c0,4.7-4.2,8.6-10.2,8.6c-5.6,0-9.1-2.9-9.8-3.6
					C832.9,444.7,832.6,444.4,833.1,443.6z"/>
			</g>
		</g>
	</g>
	<g>
		<rect x="108.7" y="493.5" class="st3" width="41.1" height="41.1"/>
		<g>
			<g>
				<path class="st1" d="M170.7,502.4h-7.4c-0.5,0-0.9-0.4-0.9-0.9v-2.6c0-0.5,0.4-0.9,0.9-0.9h19.6c0.5,0,0.9,0.4,0.9,0.9v2.6
					c0,0.5-0.4,0.9-0.9,0.9h-7.4v26.8c0,0.5-0.4,0.9-0.9,0.9h-3c-0.5,0-0.9-0.4-0.9-0.9V502.4z"/>
				<path class="st1" d="M202.3,497.6c9.1,0,16.4,7.4,16.4,16.5s-7.3,16.4-16.4,16.4s-16.4-7.3-16.4-16.4S193.2,497.6,202.3,497.6z
					 M202.3,525.9c6.5,0,11.9-5.3,11.9-11.8c0-6.5-5.3-11.9-11.9-11.9c-6.5,0-11.8,5.4-11.8,11.9
					C190.5,520.6,195.9,525.9,202.3,525.9z"/>
				<path class="st1" d="M229.2,502.4h-7.4c-0.5,0-0.9-0.4-0.9-0.9v-2.6c0-0.5,0.4-0.9,0.9-0.9h19.6c0.5,0,0.9,0.4,0.9,0.9v2.6
					c0,0.5-0.4,0.9-0.9,0.9H234v26.8c0,0.5-0.4,0.9-0.9,0.9h-3c-0.5,0-0.9-0.4-0.9-0.9V502.4z"/>
				<path class="st1" d="M241.2,528.8l14-30.7c0.1-0.3,0.5-0.5,0.8-0.5h0.5c0.2,0,0.6,0.2,0.8,0.5l13.9,30.7
					c0.3,0.6-0.1,1.2-0.8,1.2h-2.9c-0.5,0-0.9-0.3-1-0.7l-2.8-6.3h-14.9c-0.9,2.1-1.9,4.2-2.8,6.3c-0.1,0.3-0.5,0.7-1,0.7H242
					C241.3,530,240.9,529.4,241.2,528.8z M261.9,519.2l-5.6-12.5H256l-5.6,12.5H261.9z"/>
				<path class="st1" d="M275.7,498.9c0-0.5,0.4-0.9,0.9-0.9h3c0.5,0,0.9,0.4,0.9,0.9v26.8h12.4c0.5,0,0.9,0.4,0.9,0.9v2.5
					c0,0.5-0.4,0.9-0.9,0.9h-16.3c-0.5,0-0.9-0.4-0.9-0.9V498.9z"/>
				<path class="st1" d="M308.6,498.9c0-0.5,0.4-0.9,0.9-0.9h10.4c5.6,0,10.2,4.6,10.2,10.1c0,5.7-4.6,10.3-10.2,10.3h-6.6v10.7
					c0,0.5-0.4,0.9-0.9,0.9h-3c-0.5,0-0.9-0.4-0.9-0.9V498.9z M319.6,514c3.2,0,5.8-2.6,5.8-5.8c0-3.1-2.6-5.5-5.8-5.5h-6.3V514
					H319.6z"/>
				<path class="st1" d="M335.7,498.9c0-0.5,0.4-0.9,0.9-0.9H349c5.5,0,10,4.3,10,9.8c0,4.2-2.8,7.7-6.8,9.3l6.3,11.6
					c0.3,0.6,0,1.3-0.8,1.3h-3.6c-0.4,0-0.6-0.2-0.7-0.4l-6.1-12.1h-6.9v11.6c0,0.5-0.4,0.9-0.9,0.9h-3c-0.5,0-0.9-0.4-0.9-0.9
					V498.9z M348.6,513.6c3,0,5.6-2.5,5.6-5.7c0-3-2.6-5.4-5.6-5.4h-8.1v11.1H348.6z"/>
				<path class="st1" d="M380.1,497.6c9.1,0,16.4,7.4,16.4,16.5s-7.3,16.4-16.4,16.4s-16.4-7.3-16.4-16.4S371,497.6,380.1,497.6z
					 M380.1,525.9c6.5,0,11.9-5.3,11.9-11.8c0-6.5-5.3-11.9-11.9-11.9c-6.5,0-11.8,5.4-11.8,11.9
					C368.3,520.6,373.6,525.9,380.1,525.9z"/>
				<path class="st1" d="M408.8,514.7l-10.7-15.3c-0.4-0.6,0-1.3,0.7-1.3h3.4c0.4,0,0.6,0.2,0.7,0.4l8.3,11.6l8.3-11.6
					c0.1-0.2,0.4-0.4,0.7-0.4h3.4c0.7,0,1.1,0.7,0.7,1.3l-10.8,15.2v14.6c0,0.5-0.4,0.9-0.9,0.9h-3c-0.5,0-0.9-0.4-0.9-0.9V514.7z"
					/>
				<path class="st1" d="M428.7,498.9c0-0.5,0.4-0.9,0.9-0.9h18.3c0.5,0,0.9,0.4,0.9,0.9v2.6c0,0.5-0.4,0.9-0.9,0.9h-14.4v9.3h12.2
					c0.5,0,0.9,0.4,0.9,0.9v2.6c0,0.5-0.4,0.9-0.9,0.9h-12.2v9.8h14.4c0.5,0,0.9,0.4,0.9,0.9v2.5c0,0.5-0.4,0.9-0.9,0.9h-18.3
					c-0.5,0-0.9-0.4-0.9-0.9V498.9z"/>
				<path class="st1" d="M469.6,497.6c4.6,0,7.9,1.6,11,4.2c0.4,0.4,0.4,0.9,0,1.3l-2,2.1c-0.3,0.4-0.7,0.4-1.1,0
					c-2.1-1.9-5.1-3.1-7.9-3.1c-6.5,0-11.5,5.5-11.5,11.9c0,6.4,5,11.8,11.5,11.8c3.3,0,5.7-1.3,7.9-3c0.4-0.3,0.8-0.3,1.1,0
					l2.1,2.1c0.4,0.3,0.3,0.9,0,1.2c-3.1,3-7,4.4-11.1,4.4c-9.1,0-16.5-7.3-16.5-16.4S460.5,497.6,469.6,497.6z"/>
				<path class="st1" d="M491.7,502.4h-7.4c-0.5,0-0.9-0.4-0.9-0.9v-2.6c0-0.5,0.4-0.9,0.9-0.9h19.6c0.5,0,0.9,0.4,0.9,0.9v2.6
					c0,0.5-0.4,0.9-0.9,0.9h-7.4v26.8c0,0.5-0.4,0.9-0.9,0.9h-3c-0.5,0-0.9-0.4-0.9-0.9V502.4z"/>
				<path class="st1" d="M523.2,497.6c9.1,0,16.4,7.4,16.4,16.5s-7.3,16.4-16.4,16.4s-16.4-7.3-16.4-16.4S514.1,497.6,523.2,497.6z
					 M523.2,525.9c6.5,0,11.9-5.3,11.9-11.8c0-6.5-5.3-11.9-11.9-11.9c-6.5,0-11.8,5.4-11.8,11.9
					C511.4,520.6,516.8,525.9,523.2,525.9z"/>
				<path class="st1" d="M544.2,525.4c0.4-0.6,0.8-1.3,1.2-1.9c0.4-0.6,1.1-0.8,1.6-0.4c0.3,0.2,3.8,3.2,7.3,3.2
					c3.2,0,5.2-1.9,5.2-4.2c0-2.7-2.4-4.5-6.9-6.3c-4.7-2-8.3-4.4-8.3-9.7c0-3.6,2.7-8.4,10-8.4c4.6,0,8,2.4,8.4,2.7
					c0.4,0.2,0.7,0.9,0.3,1.6c-0.4,0.5-0.8,1.2-1.1,1.7c-0.4,0.6-1,0.9-1.6,0.5c-0.3-0.2-3.5-2.3-6.2-2.3c-3.8,0-5.2,2.4-5.2,4.1
					c0,2.6,2,4.2,5.8,5.8c5.3,2.1,9.8,4.7,9.8,10.2c0,4.7-4.2,8.6-10.2,8.6c-5.6,0-9.1-2.9-9.8-3.6
					C544,526.5,543.7,526.2,544.2,525.4z"/>
				<path class="st1" d="M580.8,498.9c0-0.5,0.4-0.9,0.9-0.9h10.4c5.6,0,10.2,4.6,10.2,10.1c0,5.7-4.6,10.3-10.2,10.3h-6.6v10.7
					c0,0.5-0.4,0.9-0.9,0.9h-3c-0.5,0-0.9-0.4-0.9-0.9V498.9z M591.8,514c3.2,0,5.8-2.6,5.8-5.8c0-3.1-2.6-5.5-5.8-5.5h-6.3V514
					H591.8z"/>
				<path class="st1" d="M607.9,498.9c0-0.5,0.4-0.9,0.9-0.9h12.4c5.5,0,10,4.3,10,9.8c0,4.2-2.8,7.7-6.8,9.3l6.3,11.6
					c0.3,0.6,0,1.3-0.8,1.3h-3.6c-0.4,0-0.6-0.2-0.7-0.4l-6.1-12.1h-6.9v11.6c0,0.5-0.4,0.9-0.9,0.9h-3c-0.5,0-0.9-0.4-0.9-0.9
					V498.9z M620.8,513.6c3,0,5.6-2.5,5.6-5.7c0-3-2.6-5.4-5.6-5.4h-8.1v11.1H620.8z"/>
				<path class="st1" d="M638.3,498.9c0-0.5,0.4-0.9,0.9-0.9h18.3c0.5,0,0.9,0.4,0.9,0.9v2.6c0,0.5-0.4,0.9-0.9,0.9H643v9.3h12.2
					c0.5,0,0.9,0.4,0.9,0.9v2.6c0,0.5-0.4,0.9-0.9,0.9H643v9.8h14.4c0.5,0,0.9,0.4,0.9,0.9v2.5c0,0.5-0.4,0.9-0.9,0.9h-18.3
					c-0.5,0-0.9-0.4-0.9-0.9V498.9z"/>
				<path class="st1" d="M663.1,525.4c0.4-0.6,0.8-1.3,1.2-1.9c0.4-0.6,1.1-0.8,1.6-0.4c0.3,0.2,3.8,3.2,7.3,3.2
					c3.2,0,5.2-1.9,5.2-4.2c0-2.7-2.4-4.5-6.9-6.3c-4.7-2-8.3-4.4-8.3-9.7c0-3.6,2.7-8.4,10-8.4c4.6,0,8,2.4,8.4,2.7
					c0.4,0.2,0.7,0.9,0.3,1.6c-0.4,0.5-0.8,1.2-1.1,1.7c-0.4,0.6-1,0.9-1.6,0.5c-0.3-0.2-3.5-2.3-6.2-2.3c-3.8,0-5.2,2.4-5.2,4.1
					c0,2.6,2,4.2,5.8,5.8c5.3,2.1,9.8,4.7,9.8,10.2c0,4.7-4.2,8.6-10.2,8.6c-5.6,0-9.1-2.9-9.8-3.6
					C663,526.5,662.6,526.2,663.1,525.4z"/>
				<path class="st1" d="M689.7,498.9c0-0.5,0.4-0.9,0.9-0.9h18.3c0.5,0,0.9,0.4,0.9,0.9v2.6c0,0.5-0.4,0.9-0.9,0.9h-14.4v9.3h12.2
					c0.5,0,0.9,0.4,0.9,0.9v2.6c0,0.5-0.4,0.9-0.9,0.9h-12.2v9.8h14.4c0.5,0,0.9,0.4,0.9,0.9v2.5c0,0.5-0.4,0.9-0.9,0.9h-18.3
					c-0.5,0-0.9-0.4-0.9-0.9V498.9z"/>
				<path class="st1" d="M716.6,498.4c0-0.5,0.4-0.8,0.9-0.8h1.1l19.8,22.9h0v-21.6c0-0.5,0.4-0.9,0.9-0.9h2.9
					c0.5,0,0.9,0.4,0.9,0.9v30.7c0,0.5-0.4,0.8-0.9,0.8H741l-19.8-23.6h0v22.2c0,0.5-0.4,0.9-0.9,0.9h-2.9c-0.5,0-0.9-0.4-0.9-0.9
					V498.4z"/>
				<path class="st1" d="M756.3,502.4h-7.4c-0.5,0-0.9-0.4-0.9-0.9v-2.6c0-0.5,0.4-0.9,0.9-0.9h19.6c0.5,0,0.9,0.4,0.9,0.9v2.6
					c0,0.5-0.4,0.9-0.9,0.9h-7.4v26.8c0,0.5-0.4,0.9-0.9,0.9h-3c-0.5,0-0.9-0.4-0.9-0.9V502.4z"/>
				<path class="st1" d="M768.3,528.8l14-30.7c0.1-0.3,0.5-0.5,0.8-0.5h0.5c0.2,0,0.6,0.2,0.8,0.5l13.9,30.7
					c0.3,0.6-0.1,1.2-0.8,1.2h-2.9c-0.5,0-0.9-0.3-1-0.7l-2.8-6.3h-14.9c-0.9,2.1-1.9,4.2-2.8,6.3c-0.1,0.3-0.5,0.7-1,0.7h-2.9
					C768.4,530,768,529.4,768.3,528.8z M789,519.2l-5.6-12.5h-0.2l-5.6,12.5H789z"/>
				<path class="st1" d="M802.8,498.9c0-0.5,0.4-0.9,0.8-0.9h10.5c8.8,0,16,7.2,16,15.9c0,8.9-7.2,16-16,16h-10.5
					c-0.5,0-0.8-0.4-0.8-0.9V498.9z M813.5,525.7c6.7,0,11.6-4.9,11.6-11.7c0-6.7-4.9-11.6-11.6-11.6h-6v23.3H813.5z"/>
				<path class="st1" d="M850.8,497.6c9.1,0,16.4,7.4,16.4,16.5s-7.3,16.4-16.4,16.4s-16.4-7.3-16.4-16.4S841.7,497.6,850.8,497.6z
					 M850.8,525.9c6.5,0,11.9-5.3,11.9-11.8c0-6.5-5.3-11.9-11.9-11.9c-6.5,0-11.8,5.4-11.8,11.9C839,520.6,844.3,525.9,850.8,525.9
					z"/>
				<path class="st1" d="M871.7,525.4c0.4-0.6,0.8-1.3,1.2-1.9c0.4-0.6,1.1-0.8,1.6-0.4c0.3,0.2,3.8,3.2,7.3,3.2
					c3.2,0,5.2-1.9,5.2-4.2c0-2.7-2.4-4.5-6.9-6.3c-4.7-2-8.3-4.4-8.3-9.7c0-3.6,2.7-8.4,10-8.4c4.6,0,8,2.4,8.4,2.7
					c0.4,0.2,0.7,0.9,0.3,1.6c-0.4,0.5-0.8,1.2-1.1,1.7c-0.4,0.6-1,0.9-1.6,0.5c-0.3-0.2-3.5-2.3-6.2-2.3c-3.8,0-5.2,2.4-5.2,4.1
					c0,2.6,2,4.2,5.8,5.8c5.3,2.1,9.8,4.7,9.8,10.2c0,4.7-4.2,8.6-10.2,8.6c-5.6,0-9.1-2.9-9.8-3.6
					C871.6,526.5,871.3,526.2,871.7,525.4z"/>
			</g>
		</g>
	</g>
</g>
</svg>
