<svg xmlns="http://www.w3.org/2000/svg" xmlns:xlink="http://www.w3.org/1999/xlink" viewBox="0 0 195 192.48"><defs><style>.cls-1{fill:none;}.cls-2{clip-path:url(#clip-path);}.cls-3{fill:url(#Degradado_sin_nombre_5);}.cls-4{clip-path:url(#clip-path-2);}.cls-5{fill:url(#Degradado_sin_nombre_5-2);}.cls-6{clip-path:url(#clip-path-3);}.cls-7{clip-path:url(#clip-path-4);}.cls-8{clip-path:url(#clip-path-5);}.cls-9{clip-path:url(#clip-path-6);}.cls-10{clip-path:url(#clip-path-7);}</style><clipPath id="clip-path" transform="translate(8.51 45.24)"><path class="cls-1" d="M183.53,125.74c-2.56-7.21-5.68-14.19-8.19-21.42s-5.46-14.46-8.25-21.67c-2.32-6-4.83-11.91-7-18-3-8.35-6-16.71-9.57-24.83a2.73,2.73,0,0,0-2.88-1.8c-5.08,0-10.16,0-15.24,0-1.77,0-3.55.26-3.47,2.57C129,42.8,130.7,43,132.37,43c4,0,8,.15,12-.06,2.18-.11,3,.77,3.7,2.67q12.81,34.08,25.77,68.12c1.39,3.69,2.75,7.39,4.2,11.28h-3l-94,0c-1.67,0-3.33.06-5,.09-1,0-2-.08-3-.08q-32.37,0-64.74,0c-1.45,0-2.59.25-1.74-2Q21.48,83.9,36.25,44.68A2.24,2.24,0,0,1,38.78,43c3.91.08,7.83,0,11.75,0,1.48,0,2.67-.73,2.71-2.34s-1.11-2.3-2.59-2.48c-.41,0-.83,0-1.25,0-4.16,0-8.33.08-12.49,0-2.47-.07-3.68.92-4.56,3.25C24.17,63.19,15.86,85,7.59,106.84Q4,116.41.39,126c-.93,2.53-.22,3.62,2.4,3.86.58.05,1.17,0,1.75,0h69c.82,0,1.65-.11,2.48-.16a3.62,3.62,0,0,0,.73.14q52,0,104,0C183.8,129.87,184.55,128.62,183.53,125.74Z"/></clipPath><linearGradient id="Degradado_sin_nombre_5" y1="104.24" x2="195" y2="104.24" gradientUnits="userSpaceOnUse"><stop offset="0" stop-color="#1f94bd"/><stop offset="0.67" stop-color="#644d97"/><stop offset="1" stop-color="#822e86"/></linearGradient><clipPath id="clip-path-2" transform="translate(8.51 45.24)"><path class="cls-1" d="M86.76,74.77V63.11a25.52,25.52,0,0,0-4.89-15.06l-6.08-8.23a6.6,6.6,0,0,0-6.36-2.73A7,7,0,0,0,64,41.61a7.86,7.86,0,0,0,.64,6.88L71.18,59a1.77,1.77,0,0,0,2.55.55,2.06,2.06,0,0,0,.51-2.73L67.73,46.31a3.67,3.67,0,0,1-.3-3.21A3.26,3.26,0,0,1,70,41a3.11,3.11,0,0,1,3,1.27L79,50.5a21.39,21.39,0,0,1,4.09,12.61V74.77H58.5V48.7a56.23,56.23,0,0,1,3.78-20.37L70.65,6.69A4.26,4.26,0,0,1,73.11,4.2a3.88,3.88,0,0,1,3.37.27,4.62,4.62,0,0,1,1.85,5.69L69.46,32.47a2,2,0,0,0,1,2.59,1.79,1.79,0,0,0,2.41-1l8.87-22.31A8.67,8.67,0,0,0,78.22,1,7.41,7.41,0,0,0,71.88.48a8.14,8.14,0,0,0-4.62,4.7L58.89,26.82A60.32,60.32,0,0,0,54.83,48.7V74.77h0a1.91,1.91,0,0,0-1.83,2V91a1.84,1.84,0,1,0,3.67,0V78.71H84.92V91a1.84,1.84,0,1,0,3.67,0V76.74A1.91,1.91,0,0,0,86.76,74.77Z"/></clipPath><linearGradient id="Degradado_sin_nombre_5-2" y1="88.24" y2="88.24" xlink:href="#Degradado_sin_nombre_5"/><clipPath id="clip-path-3" transform="translate(8.51 45.24)"><path class="cls-1" d="M60.8,80.53a1.73,1.73,0,0,0-2.47.11h0a1.76,1.76,0,0,0,.11,2.48A1.76,1.76,0,0,0,60.9,83v0A1.75,1.75,0,0,0,60.8,80.53Z"/></clipPath><clipPath id="clip-path-4" transform="translate(8.51 45.24)"><path class="cls-1" d="M128.14,74.77H99.87V63.11A21.32,21.32,0,0,1,104,50.5L110,42.26A3.09,3.09,0,0,1,113,41a3.24,3.24,0,0,1,2.52,2.11,3.67,3.67,0,0,1-.3,3.21l-6.51,10.52a2.06,2.06,0,0,0,.52,2.73,1.76,1.76,0,0,0,2.54-.55l6.51-10.52a7.86,7.86,0,0,0,.64-6.88,6.93,6.93,0,0,0-5.4-4.52,6.61,6.61,0,0,0-6.36,2.73l-6.08,8.23A25.51,25.51,0,0,0,96.2,63.11V74.77a1.91,1.91,0,0,0-1.84,2V91A1.84,1.84,0,1,0,98,91V78.71h28.28V91A1.84,1.84,0,1,0,130,91V76.74A1.91,1.91,0,0,0,128.14,74.77Z"/></clipPath><clipPath id="clip-path-5" transform="translate(8.51 45.24)"><path class="cls-1" d="M96.58,22.58a8.58,8.58,0,0,0-5.48,2,8.53,8.53,0,0,0-5.47-2c-4.92,0-8.91,4.32-8.91,9.62,0,3,2.33,6.75,6.94,11a62.51,62.51,0,0,0,6.67,5.34,1.35,1.35,0,0,0,.77.24,1.4,1.4,0,0,0,.78-.24,64.14,64.14,0,0,0,6.66-5.34c4.61-4.27,6.95-8,6.95-11C105.49,26.9,101.49,22.58,96.58,22.58Zm.11,18.59a62.75,62.75,0,0,1-5.59,4.56,62.29,62.29,0,0,1-5.56-4.54c-3.91-3.61-6.06-6.81-6.06-9,0-3.78,2.76-6.86,6.15-6.86a5.84,5.84,0,0,1,4.43,2.1,1.38,1.38,0,0,0,1,.48,1.42,1.42,0,0,0,1.05-.48,5.82,5.82,0,0,1,4.43-2.1c3.39,0,6.15,3.08,6.15,6.86C102.73,34.38,100.58,37.56,96.69,41.17Z"/></clipPath><clipPath id="clip-path-6" transform="translate(8.51 45.24)"><path class="cls-1" d="M124.06,28.84,115.69,5.57A8.5,8.5,0,0,0,111.08.52a6.93,6.93,0,0,0-6.34.56c-3.59,2.23-5.09,7.18-3.49,11.51l8.86,24a1.75,1.75,0,0,0,2.41,1.12,2.24,2.24,0,0,0,1-2.78l-8.87-24a5.15,5.15,0,0,1,1.86-6.12,3.64,3.64,0,0,1,3.37-.3A4.46,4.46,0,0,1,112.3,7.2l8.37,23.27a64.45,64.45,0,0,1,3.79,21.9V64.62a1.85,1.85,0,1,0,3.67,0V52.37A69.23,69.23,0,0,0,124.06,28.84Z"/></clipPath><clipPath id="clip-path-7" transform="translate(8.51 45.24)"><path class="cls-1" d="M103.3,80.65h0A1.75,1.75,0,0,0,100.71,83v0a1.76,1.76,0,0,0,2.48.11A1.75,1.75,0,0,0,103.3,80.65Z"/></clipPath></defs><title>proyectos</title><g id="Layer_2" data-name="Layer 2"><g id="Capa_1" data-name="Capa 1"><g class="cls-2"><rect class="cls-3" y="16" width="195" height="176.48"/></g><g class="cls-4"><rect class="cls-5" width="195" height="176.48"/></g><g class="cls-6"><rect class="cls-5" width="195" height="176.48"/></g><g class="cls-7"><rect class="cls-5" width="195" height="176.48"/></g><g class="cls-8"><rect class="cls-5" width="195" height="176.48"/></g><g class="cls-9"><rect class="cls-5" width="195" height="176.48"/></g><g class="cls-10"><rect class="cls-5" width="195" height="176.48"/></g></g></g></svg>