<?xml version="1.0" encoding="UTF-8" standalone="no"?>
<!-- Generator: Adobe Illustrator 21.1.0, SVG Export Plug-In . SVG Version: 6.00 Build 0)  -->

<svg
   xmlns:dc="http://purl.org/dc/elements/1.1/"
   xmlns:cc="http://creativecommons.org/ns#"
   xmlns:rdf="http://www.w3.org/1999/02/22-rdf-syntax-ns#"
   xmlns:svg="http://www.w3.org/2000/svg"
   xmlns="http://www.w3.org/2000/svg"
   xmlns:sodipodi="http://sodipodi.sourceforge.net/DTD/sodipodi-0.dtd"
   xmlns:inkscape="http://www.inkscape.org/namespaces/inkscape"
   version="1.1"
   id="Layer_1"
   x="0px"
   y="0px"
   viewBox="0 0 912 180.40001"
   xml:space="preserve"
   sodipodi:docname="Refes.svg"
   width="912"
   height="180.40001"
   inkscape:version="0.92.1 r15371"><metadata
     id="metadata991"><rdf:RDF><cc:Work
         rdf:about=""><dc:format>image/svg+xml</dc:format><dc:type
           rdf:resource="http://purl.org/dc/dcmitype/StillImage" /></cc:Work></rdf:RDF></metadata><defs
     id="defs989" /><sodipodi:namedview
     pagecolor="#ffffff"
     bordercolor="#666666"
     borderopacity="1"
     objecttolerance="10"
     gridtolerance="10"
     guidetolerance="10"
     inkscape:pageopacity="0"
     inkscape:pageshadow="2"
     inkscape:window-width="640"
     inkscape:window-height="480"
     id="namedview987"
     showgrid="false"
     inkscape:zoom="0.236"
     inkscape:cx="456"
     inkscape:cy="90.200001"
     inkscape:window-x="0"
     inkscape:window-y="24"
     inkscape:window-maximized="0"
     inkscape:current-layer="Layer_1" /><style
     type="text/css"
     id="style732">
	.st0{fill:#4A4A49;}
	.st1{fill:#0098C3;}
	.st2{fill:#8C1D80;}
	.st3{fill:#93C01F;}
	.st4{fill:#FCD766;}
	.st5{fill:#300C46;}
	.st6{fill:#ACDFF2;}
	.st7{fill:#EC6E8D;}
	.st8{fill:#465C9D;}
</style><g
     id="g984"
     transform="translate(-44,-409.79999)"><g
       id="g810"><g
         id="g764"><g
           id="g760"><g
             id="g758"><path
               class="st0"
               d="m 97,421.3 c 0,-0.2 0.2,-0.5 0.5,-0.5 h 5.6 c 3,0 5.5,2.5 5.5,5.4 0,3 -2.5,5.5 -5.5,5.5 h -3.6 v 5.8 c 0,0.2 -0.2,0.5 -0.5,0.5 h -1.6 c -0.3,0 -0.5,-0.2 -0.5,-0.5 v -16.2 z m 5.9,8 c 1.7,0 3.1,-1.4 3.1,-3.1 0,-1.7 -1.4,-2.9 -3.1,-2.9 h -3.4 v 6.1 h 3.4 z"
               id="path734"
               inkscape:connector-curvature="0"
               style="fill:#4a4a49" /><path
               class="st0"
               d="m 111.6,421.3 c 0,-0.2 0.2,-0.5 0.5,-0.5 h 1.6 c 0.2,0 0.5,0.2 0.5,0.5 v 14.4 h 6.6 c 0.3,0 0.5,0.2 0.5,0.5 v 1.3 c 0,0.2 -0.2,0.5 -0.5,0.5 H 112 c -0.3,0 -0.5,-0.2 -0.5,-0.5 v -16.2 z"
               id="path736"
               inkscape:connector-curvature="0"
               style="fill:#4a4a49" /><path
               class="st0"
               d="m 122.3,437.3 7.5,-16.5 c 0.1,-0.1 0.3,-0.3 0.4,-0.3 h 0.2 c 0.1,0 0.3,0.1 0.4,0.3 l 7.5,16.5 c 0.1,0.3 0,0.6 -0.4,0.6 h -1.5 c -0.3,0 -0.5,-0.1 -0.6,-0.4 l -1.5,-3.4 h -8 c -0.5,1.1 -1,2.2 -1.5,3.4 -0.1,0.2 -0.3,0.4 -0.6,0.4 h -1.5 c -0.4,0.1 -0.6,-0.3 -0.4,-0.6 z m 11.1,-5.2 -3,-6.7 h -0.1 l -3,6.7 z"
               id="path738"
               inkscape:connector-curvature="0"
               style="fill:#4a4a49" /><path
               class="st0"
               d="m 140.8,421 c 0,-0.2 0.2,-0.4 0.5,-0.4 h 0.6 l 10.6,12.3 v 0 -11.6 c 0,-0.2 0.2,-0.5 0.5,-0.5 h 1.6 c 0.2,0 0.5,0.2 0.5,0.5 v 16.5 c 0,0.2 -0.2,0.4 -0.5,0.4 H 154 l -10.6,-12.7 v 0 11.9 c 0,0.2 -0.2,0.5 -0.5,0.5 h -1.5 c -0.2,0 -0.5,-0.2 -0.5,-0.5 V 421 Z"
               id="path740"
               inkscape:connector-curvature="0"
               style="fill:#4a4a49" /><path
               class="st0"
               d="m 159.8,421.3 c 0,-0.2 0.2,-0.5 0.5,-0.5 h 9.8 c 0.3,0 0.5,0.2 0.5,0.5 v 1.4 c 0,0.2 -0.2,0.5 -0.5,0.5 h -7.7 v 5 h 6.5 c 0.2,0 0.5,0.2 0.5,0.5 v 1.4 c 0,0.3 -0.2,0.5 -0.5,0.5 h -6.5 v 5.3 h 7.7 c 0.3,0 0.5,0.2 0.5,0.5 v 1.3 c 0,0.2 -0.2,0.5 -0.5,0.5 h -9.8 c -0.3,0 -0.5,-0.2 -0.5,-0.5 z"
               id="path742"
               inkscape:connector-curvature="0"
               style="fill:#4a4a49" /><path
               class="st0"
               d="m 171.9,437.3 7.5,-16.5 c 0.1,-0.1 0.3,-0.3 0.4,-0.3 h 0.2 c 0.1,0 0.3,0.1 0.4,0.3 l 7.5,16.5 c 0.1,0.3 0,0.6 -0.4,0.6 H 186 c -0.3,0 -0.5,-0.1 -0.6,-0.4 l -1.5,-3.4 h -8 c -0.5,1.1 -1,2.2 -1.5,3.4 -0.1,0.2 -0.3,0.4 -0.6,0.4 h -1.5 c -0.3,0.1 -0.5,-0.3 -0.4,-0.6 z m 11.1,-5.2 -3,-6.7 h -0.1 l -3,6.7 z"
               id="path744"
               inkscape:connector-curvature="0"
               style="fill:#4a4a49" /><path
               class="st0"
               d="m 192.3,420.9 c 0,-0.2 0.2,-0.4 0.4,-0.4 h 0.4 c 0.1,0 0.4,0.1 0.4,0.3 l 5.1,12.5 h 0.1 l 5.1,-12.5 c 0,-0.1 0.2,-0.3 0.4,-0.3 h 0.4 c 0.2,0 0.4,0.2 0.4,0.4 l 3,16.5 c 0.1,0.3 -0.1,0.6 -0.4,0.6 H 206 c -0.2,0 -0.4,-0.2 -0.5,-0.3 l -1.8,-11 c 0,0 -0.1,0 -0.1,0 l -4.4,11.3 c 0,0.1 -0.2,0.3 -0.4,0.3 h -0.4 c -0.2,0 -0.4,-0.1 -0.4,-0.3 l -4.4,-11.3 c 0,0 -0.1,0 -0.1,0 l -1.8,11 c 0,0.2 -0.2,0.3 -0.4,0.3 h -1.6 c -0.3,0 -0.5,-0.2 -0.5,-0.6 z"
               id="path746"
               inkscape:connector-curvature="0"
               style="fill:#4a4a49" /><path
               class="st0"
               d="m 211.7,421.3 c 0,-0.2 0.2,-0.5 0.5,-0.5 h 1.6 c 0.2,0 0.5,0.2 0.5,0.5 v 16.2 c 0,0.2 -0.2,0.5 -0.5,0.5 h -1.6 c -0.2,0 -0.5,-0.2 -0.5,-0.5 z"
               id="path748"
               inkscape:connector-curvature="0"
               style="fill:#4a4a49" /><path
               class="st0"
               d="m 219,421.3 c 0,-0.2 0.2,-0.5 0.5,-0.5 h 9.8 c 0.3,0 0.5,0.2 0.5,0.5 v 1.4 c 0,0.2 -0.2,0.5 -0.5,0.5 h -7.7 v 5 h 6.5 c 0.2,0 0.5,0.2 0.5,0.5 v 1.4 c 0,0.3 -0.2,0.5 -0.5,0.5 h -6.5 v 5.3 h 7.7 c 0.3,0 0.5,0.2 0.5,0.5 v 1.3 c 0,0.2 -0.2,0.5 -0.5,0.5 h -9.8 c -0.3,0 -0.5,-0.2 -0.5,-0.5 z"
               id="path750"
               inkscape:connector-curvature="0"
               style="fill:#4a4a49" /><path
               class="st0"
               d="m 233.5,421 c 0,-0.2 0.2,-0.4 0.5,-0.4 h 0.6 l 10.6,12.3 v 0 -11.6 c 0,-0.2 0.2,-0.5 0.5,-0.5 h 1.6 c 0.2,0 0.5,0.2 0.5,0.5 v 16.5 c 0,0.2 -0.2,0.4 -0.5,0.4 h -0.6 L 236,425.5 v 0 11.9 c 0,0.2 -0.2,0.5 -0.5,0.5 H 234 c -0.2,0 -0.5,-0.2 -0.5,-0.5 z"
               id="path752"
               inkscape:connector-curvature="0"
               style="fill:#4a4a49" /><path
               class="st0"
               d="m 254.8,423.1 h -4 c -0.3,0 -0.5,-0.2 -0.5,-0.5 v -1.4 c 0,-0.2 0.2,-0.5 0.5,-0.5 h 10.5 c 0.3,0 0.5,0.2 0.5,0.5 v 1.4 c 0,0.2 -0.2,0.5 -0.5,0.5 h -4 v 14.4 c 0,0.2 -0.2,0.5 -0.5,0.5 h -1.6 c -0.2,0 -0.5,-0.2 -0.5,-0.5 v -14.4 z"
               id="path754"
               inkscape:connector-curvature="0"
               style="fill:#4a4a49" /><path
               class="st0"
               d="m 271.8,420.5 c 4.9,0 8.8,3.9 8.8,8.9 0,5 -3.9,8.8 -8.8,8.8 -4.9,0 -8.8,-3.9 -8.8,-8.8 0,-4.9 3.9,-8.9 8.8,-8.9 z m 0,15.2 c 3.5,0 6.4,-2.8 6.4,-6.4 0,-3.5 -2.9,-6.4 -6.4,-6.4 -3.5,0 -6.4,2.9 -6.4,6.4 0,3.6 2.9,6.4 6.4,6.4 z"
               id="path756"
               inkscape:connector-curvature="0"
               style="fill:#4a4a49" /></g></g><rect
           x="44"
           y="409.79999"
           class="st1"
           width="41.700001"
           height="41.700001"
           id="rect762"
           style="fill:#0098c3" /></g><g
         id="g786"><g
           id="g782"><g
             id="g780"><path
               class="st0"
               d="m 104.6,489.9 c 2.5,0 4.3,0.8 5.9,2.3 0.2,0.2 0.2,0.5 0,0.7 l -1.1,1.1 c -0.2,0.2 -0.4,0.2 -0.6,0 -1.2,-1 -2.7,-1.6 -4.2,-1.6 -3.5,0 -6.2,2.9 -6.2,6.4 0,3.4 2.7,6.4 6.2,6.4 1.8,0 3,-0.7 4.2,-1.6 0.2,-0.2 0.4,-0.1 0.6,0 l 1.1,1.1 c 0.2,0.2 0.1,0.5 0,0.7 -1.7,1.6 -3.8,2.4 -6,2.4 -4.9,0 -8.9,-3.9 -8.9,-8.8 0.2,-5.1 4.1,-9.1 9,-9.1 z"
               id="path766"
               inkscape:connector-curvature="0"
               style="fill:#4a4a49" /><path
               class="st0"
               d="m 113.8,490.6 c 0,-0.2 0.2,-0.5 0.5,-0.5 h 1.6 c 0.3,0 0.5,0.2 0.5,0.5 v 10.1 c 0,2.5 1.6,4.4 4.1,4.4 2.5,0 4.1,-1.9 4.1,-4.3 v -10.2 c 0,-0.2 0.2,-0.5 0.5,-0.5 h 1.6 c 0.2,0 0.5,0.2 0.5,0.5 v 10.3 c 0,3.7 -2.8,6.6 -6.7,6.6 -3.8,0 -6.6,-2.9 -6.6,-6.6 v -10.3 z"
               id="path768"
               inkscape:connector-curvature="0"
               style="fill:#4a4a49" /><path
               class="st0"
               d="m 131.7,490.6 c 0,-0.2 0.2,-0.5 0.5,-0.5 h 1.6 c 0.2,0 0.5,0.2 0.5,0.5 V 505 h 6.6 c 0.3,0 0.5,0.2 0.5,0.5 v 1.3 c 0,0.2 -0.2,0.5 -0.5,0.5 h -8.7 c -0.3,0 -0.5,-0.2 -0.5,-0.5 z"
               id="path770"
               inkscape:connector-curvature="0"
               style="fill:#4a4a49" /><path
               class="st0"
               d="m 145.3,492.5 h -4 c -0.3,0 -0.5,-0.2 -0.5,-0.5 v -1.4 c 0,-0.2 0.2,-0.5 0.5,-0.5 h 10.5 c 0.3,0 0.5,0.2 0.5,0.5 v 1.4 c 0,0.2 -0.2,0.5 -0.5,0.5 h -4 v 14.4 c 0,0.2 -0.2,0.5 -0.5,0.5 h -1.6 c -0.2,0 -0.5,-0.2 -0.5,-0.5 v -14.4 z"
               id="path772"
               inkscape:connector-curvature="0"
               style="fill:#4a4a49" /><path
               class="st0"
               d="m 154.7,490.6 c 0,-0.2 0.2,-0.5 0.5,-0.5 h 1.6 c 0.3,0 0.5,0.2 0.5,0.5 v 10.1 c 0,2.5 1.6,4.4 4.1,4.4 2.5,0 4.1,-1.9 4.1,-4.3 v -10.2 c 0,-0.2 0.2,-0.5 0.5,-0.5 h 1.6 c 0.2,0 0.5,0.2 0.5,0.5 v 10.3 c 0,3.7 -2.8,6.6 -6.7,6.6 -3.8,0 -6.6,-2.9 -6.6,-6.6 v -10.3 z"
               id="path774"
               inkscape:connector-curvature="0"
               style="fill:#4a4a49" /><path
               class="st0"
               d="m 172.6,490.6 c 0,-0.2 0.2,-0.5 0.5,-0.5 h 6.7 c 2.9,0 5.3,2.3 5.3,5.2 0,2.3 -1.5,4.1 -3.6,5 l 3.4,6.2 c 0.2,0.3 0,0.7 -0.4,0.7 h -1.9 c -0.2,0 -0.3,-0.1 -0.4,-0.2 l -3.3,-6.5 h -3.7 v 6.3 c 0,0.2 -0.2,0.5 -0.5,0.5 H 173 c -0.3,0 -0.5,-0.2 -0.5,-0.5 v -16.2 z m 6.9,7.9 c 1.6,0 3,-1.3 3,-3 0,-1.6 -1.4,-2.9 -3,-2.9 h -4.4 v 6 h 4.4 z"
               id="path776"
               inkscape:connector-curvature="0"
               style="fill:#4a4a49" /><path
               class="st0"
               d="m 186.6,506.7 7.5,-16.5 c 0.1,-0.1 0.3,-0.3 0.4,-0.3 h 0.2 c 0.1,0 0.3,0.1 0.4,0.3 l 7.5,16.5 c 0.1,0.3 0,0.6 -0.4,0.6 h -1.5 c -0.3,0 -0.5,-0.1 -0.6,-0.4 l -1.5,-3.4 h -8 c -0.5,1.1 -1,2.2 -1.5,3.4 -0.1,0.2 -0.3,0.4 -0.6,0.4 H 187 c -0.4,0 -0.6,-0.3 -0.4,-0.6 z m 11.1,-5.2 -3,-6.7 h -0.1 l -3,6.7 z"
               id="path778"
               inkscape:connector-curvature="0"
               style="fill:#4a4a49" /></g></g><rect
           x="44"
           y="479.20001"
           class="st2"
           width="41.700001"
           height="41.700001"
           id="rect784"
           style="fill:#8c1d80" /></g><g
         id="g808"><rect
           x="44"
           y="548.5"
           class="st3"
           width="41.700001"
           height="41.700001"
           id="rect788"
           style="fill:#93c01f" /><g
           id="g806"><g
             id="g804"><path
               class="st0"
               d="m 97,560 c 0,-0.2 0.2,-0.5 0.4,-0.5 h 5.6 c 4.7,0 8.6,3.9 8.6,8.6 0,4.8 -3.9,8.6 -8.6,8.6 h -5.6 c -0.2,0 -0.4,-0.2 -0.4,-0.5 z m 5.7,14.4 c 3.6,0 6.2,-2.6 6.2,-6.3 0,-3.6 -2.6,-6.2 -6.2,-6.2 h -3.2 v 12.5 z"
               id="path790"
               inkscape:connector-curvature="0"
               style="fill:#4a4a49" /><path
               class="st0"
               d="m 115.2,560 c 0,-0.2 0.2,-0.5 0.5,-0.5 h 9.8 c 0.3,0 0.5,0.2 0.5,0.5 v 1.4 c 0,0.2 -0.2,0.5 -0.5,0.5 h -7.7 v 5 h 6.5 c 0.2,0 0.5,0.2 0.5,0.5 v 1.4 c 0,0.3 -0.2,0.5 -0.5,0.5 h -6.5 v 5.3 h 7.7 c 0.3,0 0.5,0.2 0.5,0.5 v 1.3 c 0,0.2 -0.2,0.5 -0.5,0.5 h -9.8 c -0.3,0 -0.5,-0.2 -0.5,-0.5 z"
               id="path792"
               inkscape:connector-curvature="0"
               style="fill:#4a4a49" /><path
               class="st0"
               d="m 129.7,560 c 0,-0.2 0.2,-0.5 0.5,-0.5 h 5.6 c 3,0 5.5,2.5 5.5,5.4 0,3 -2.5,5.5 -5.5,5.5 h -3.6 v 5.8 c 0,0.2 -0.2,0.5 -0.5,0.5 h -1.6 c -0.3,0 -0.5,-0.2 -0.5,-0.5 V 560 Z m 5.9,8.1 c 1.7,0 3.1,-1.4 3.1,-3.1 0,-1.7 -1.4,-2.9 -3.1,-2.9 h -3.4 v 6.1 h 3.4 z"
               id="path794"
               inkscape:connector-curvature="0"
               style="fill:#4a4a49" /><path
               class="st0"
               d="m 151.8,559.3 c 4.9,0 8.8,3.9 8.8,8.9 0,4.9 -3.9,8.8 -8.8,8.8 -4.9,0 -8.8,-3.9 -8.8,-8.8 0,-5 3.9,-8.9 8.8,-8.9 z m 0,15.2 c 3.5,0 6.4,-2.8 6.4,-6.4 0,-3.5 -2.9,-6.4 -6.4,-6.4 -3.5,0 -6.4,2.9 -6.4,6.4 0,3.6 2.9,6.4 6.4,6.4 z"
               id="path796"
               inkscape:connector-curvature="0"
               style="fill:#4a4a49" /><path
               class="st0"
               d="m 164.1,560 c 0,-0.2 0.2,-0.5 0.5,-0.5 h 6.7 c 2.9,0 5.3,2.3 5.3,5.2 0,2.3 -1.5,4.1 -3.6,5 l 3.4,6.2 c 0.2,0.3 0,0.7 -0.4,0.7 h -2 c -0.2,0 -0.3,-0.1 -0.4,-0.2 l -3.3,-6.5 h -3.7 v 6.3 c 0,0.2 -0.2,0.5 -0.5,0.5 h -1.6 c -0.3,0 -0.5,-0.2 -0.5,-0.5 V 560 Z m 6.9,7.9 c 1.6,0 3,-1.3 3,-3 0,-1.6 -1.4,-2.9 -3,-2.9 h -4.4 v 6 h 4.4 z"
               id="path798"
               inkscape:connector-curvature="0"
               style="fill:#4a4a49" /><path
               class="st0"
               d="m 182.7,561.8 h -4 c -0.3,0 -0.5,-0.2 -0.5,-0.5 V 560 c 0,-0.2 0.2,-0.5 0.5,-0.5 h 10.5 c 0.3,0 0.5,0.2 0.5,0.5 v 1.4 c 0,0.2 -0.2,0.5 -0.5,0.5 h -4 v 14.4 c 0,0.2 -0.2,0.5 -0.5,0.5 h -1.6 c -0.2,0 -0.5,-0.2 -0.5,-0.5 v -14.5 z"
               id="path800"
               inkscape:connector-curvature="0"
               style="fill:#4a4a49" /><path
               class="st0"
               d="m 192.4,560 c 0,-0.2 0.2,-0.5 0.5,-0.5 h 9.8 c 0.3,0 0.5,0.2 0.5,0.5 v 1.4 c 0,0.2 -0.2,0.5 -0.5,0.5 H 195 v 5 h 6.5 c 0.2,0 0.5,0.2 0.5,0.5 v 1.4 c 0,0.3 -0.2,0.5 -0.5,0.5 H 195 v 5.3 h 7.7 c 0.3,0 0.5,0.2 0.5,0.5 v 1.3 c 0,0.2 -0.2,0.5 -0.5,0.5 h -9.8 c -0.3,0 -0.5,-0.2 -0.5,-0.5 z"
               id="path802"
               inkscape:connector-curvature="0"
               style="fill:#4a4a49" /></g></g></g></g><g
       id="g912"><g
         id="g836"><g
           id="g832"><g
             id="g830"><path
               class="st0"
               d="m 637.8,421.3 c 0,-0.2 0.2,-0.5 0.5,-0.5 h 9.8 c 0.3,0 0.5,0.2 0.5,0.5 v 1.4 c 0,0.2 -0.2,0.5 -0.5,0.5 h -7.7 v 5 h 6.5 c 0.2,0 0.5,0.2 0.5,0.5 v 1.4 c 0,0.3 -0.2,0.5 -0.5,0.5 h -6.5 v 5.3 h 7.7 c 0.3,0 0.5,0.2 0.5,0.5 v 1.3 c 0,0.2 -0.2,0.5 -0.5,0.5 h -9.8 c -0.3,0 -0.5,-0.2 -0.5,-0.5 z"
               id="path812"
               inkscape:connector-curvature="0"
               style="fill:#4a4a49" /><path
               class="st0"
               d="m 652.3,421.3 c 0,-0.2 0.2,-0.5 0.4,-0.5 h 5.6 c 4.7,0 8.6,3.8 8.6,8.6 0,4.8 -3.9,8.6 -8.6,8.6 h -5.6 c -0.2,0 -0.4,-0.2 -0.4,-0.5 z m 5.7,14.3 c 3.6,0 6.2,-2.6 6.2,-6.3 0,-3.6 -2.6,-6.2 -6.2,-6.2 h -3.2 v 12.5 z"
               id="path814"
               inkscape:connector-curvature="0"
               style="fill:#4a4a49" /><path
               class="st0"
               d="m 670.3,421.3 c 0,-0.2 0.2,-0.5 0.5,-0.5 h 1.6 c 0.3,0 0.5,0.2 0.5,0.5 v 10.1 c 0,2.5 1.6,4.4 4.1,4.4 2.5,0 4.1,-1.9 4.1,-4.3 v -10.2 c 0,-0.2 0.2,-0.5 0.5,-0.5 h 1.6 c 0.2,0 0.5,0.2 0.5,0.5 v 10.3 c 0,3.7 -2.8,6.6 -6.7,6.6 -3.8,0 -6.6,-2.9 -6.6,-6.6 v -10.3 z"
               id="path816"
               inkscape:connector-curvature="0"
               style="fill:#4a4a49" /><path
               class="st0"
               d="m 695.7,420.5 c 2.5,0 4.3,0.8 5.9,2.3 0.2,0.2 0.2,0.5 0,0.7 l -1.1,1.1 c -0.2,0.2 -0.4,0.2 -0.6,0 -1.2,-1 -2.7,-1.6 -4.2,-1.6 -3.5,0 -6.2,2.9 -6.2,6.4 0,3.4 2.7,6.4 6.2,6.4 1.8,0 3,-0.7 4.2,-1.6 0.2,-0.2 0.4,-0.1 0.6,0 l 1.1,1.1 c 0.2,0.2 0.1,0.5 0,0.7 -1.7,1.6 -3.8,2.4 -6,2.4 -4.9,0 -8.9,-3.9 -8.9,-8.8 0,-4.9 4.1,-9.1 9,-9.1 z"
               id="path818"
               inkscape:connector-curvature="0"
               style="fill:#4a4a49" /><path
               class="st0"
               d="m 702.9,437.3 7.5,-16.5 c 0.1,-0.1 0.3,-0.3 0.4,-0.3 h 0.2 c 0.1,0 0.3,0.1 0.4,0.3 l 7.5,16.5 c 0.1,0.3 0,0.6 -0.4,0.6 H 717 c -0.3,0 -0.5,-0.1 -0.6,-0.4 l -1.5,-3.4 h -8 c -0.5,1.1 -1,2.2 -1.5,3.4 -0.1,0.2 -0.3,0.4 -0.6,0.4 h -1.5 c -0.4,0.1 -0.6,-0.3 -0.4,-0.6 z m 11.1,-5.2 -3,-6.7 h -0.1 l -3,6.7 z"
               id="path820"
               inkscape:connector-curvature="0"
               style="fill:#4a4a49" /><path
               class="st0"
               d="m 728.9,420.5 c 2.5,0 4.3,0.8 5.9,2.3 0.2,0.2 0.2,0.5 0,0.7 l -1.1,1.1 c -0.2,0.2 -0.4,0.2 -0.6,0 -1.2,-1 -2.7,-1.6 -4.2,-1.6 -3.5,0 -6.2,2.9 -6.2,6.4 0,3.4 2.7,6.4 6.2,6.4 1.8,0 3,-0.7 4.2,-1.6 0.2,-0.2 0.4,-0.1 0.6,0 l 1.1,1.1 c 0.2,0.2 0.1,0.5 0,0.7 -1.7,1.6 -3.8,2.4 -6,2.4 -4.9,0 -8.9,-3.9 -8.9,-8.8 0,-4.9 4.1,-9.1 9,-9.1 z"
               id="path822"
               inkscape:connector-curvature="0"
               style="fill:#4a4a49" /><path
               class="st0"
               d="m 738.4,421.3 c 0,-0.2 0.2,-0.5 0.5,-0.5 h 1.6 c 0.2,0 0.5,0.2 0.5,0.5 v 16.2 c 0,0.2 -0.2,0.5 -0.5,0.5 h -1.6 c -0.2,0 -0.5,-0.2 -0.5,-0.5 z"
               id="path824"
               inkscape:connector-curvature="0"
               style="fill:#4a4a49" /><path
               class="st0"
               d="m 753.2,420.5 c 4.9,0 8.8,3.9 8.8,8.9 0,5 -3.9,8.8 -8.8,8.8 -4.9,0 -8.8,-3.9 -8.8,-8.8 0,-4.9 3.9,-8.9 8.8,-8.9 z m 0,15.2 c 3.5,0 6.4,-2.8 6.4,-6.4 0,-3.5 -2.9,-6.4 -6.4,-6.4 -3.5,0 -6.4,2.9 -6.4,6.4 0.1,3.6 2.9,6.4 6.4,6.4 z"
               id="path826"
               inkscape:connector-curvature="0"
               style="fill:#4a4a49" /><path
               class="st0"
               d="m 765.5,421 c 0,-0.2 0.2,-0.4 0.5,-0.4 h 0.6 l 10.6,12.3 v 0 -11.6 c 0,-0.2 0.2,-0.5 0.5,-0.5 h 1.6 c 0.2,0 0.5,0.2 0.5,0.5 v 16.5 c 0,0.2 -0.2,0.4 -0.5,0.4 h -0.6 L 768,425.5 v 0 11.9 c 0,0.2 -0.2,0.5 -0.5,0.5 H 766 c -0.2,0 -0.5,-0.2 -0.5,-0.5 z"
               id="path828"
               inkscape:connector-curvature="0"
               style="fill:#4a4a49" /></g></g><rect
           x="584.79999"
           y="409.79999"
           class="st4"
           width="41.700001"
           height="41.700001"
           id="rect834"
           style="fill:#fcd766" /></g><g
         id="g860"><g
           id="g856"><g
             id="g854"><path
               class="st0"
               d="m 645.4,489.9 c 2.4,0 4.3,0.9 6,2.3 0.2,0.2 0.2,0.5 0,0.7 -0.4,0.4 -0.7,0.8 -1.1,1.2 -0.2,0.2 -0.4,0.2 -0.6,0 -1.2,-1 -2.7,-1.7 -4.2,-1.7 -3.5,0 -6.2,2.9 -6.2,6.4 0,3.4 2.7,6.4 6.2,6.4 2,0 3.4,-0.7 3.7,-0.8 v -2.7 h -2.4 c -0.3,0 -0.5,-0.2 -0.5,-0.4 v -1.4 c 0,-0.3 0.2,-0.5 0.5,-0.5 h 4.5 c 0.2,0 0.4,0.2 0.4,0.5 0,2 0,4 0,5.9 0,0.1 -0.1,0.3 -0.2,0.4 0,0 -2.5,1.6 -6.1,1.6 -4.9,0 -8.8,-3.9 -8.8,-8.8 0,-5.1 3.9,-9.1 8.8,-9.1 z"
               id="path838"
               inkscape:connector-curvature="0"
               style="fill:#4a4a49" /><path
               class="st0"
               d="m 663.1,489.9 c 4.9,0 8.8,3.9 8.8,8.9 0,4.9 -3.9,8.8 -8.8,8.8 -4.9,0 -8.8,-3.9 -8.8,-8.8 0,-4.9 3.9,-8.9 8.8,-8.9 z m 0,15.2 c 3.5,0 6.4,-2.8 6.4,-6.4 0,-3.5 -2.9,-6.4 -6.4,-6.4 -3.5,0 -6.4,2.9 -6.4,6.4 0,3.6 2.9,6.4 6.4,6.4 z"
               id="path840"
               inkscape:connector-curvature="0"
               style="fill:#4a4a49" /><path
               class="st0"
               d="m 675.4,490.6 c 0,-0.2 0.2,-0.5 0.5,-0.5 h 5.5 c 3,0 5.1,2 5.1,4.5 0,1.9 -1.4,3.2 -2.5,3.9 1.3,0.5 3.1,1.7 3.1,4 0,2.7 -2.3,4.7 -5.3,4.7 H 676 c -0.3,0 -0.5,-0.2 -0.5,-0.5 v -16.1 z m 6.2,14.5 c 1.5,0 2.6,-1.2 2.6,-2.7 0,-1.5 -1.4,-2.6 -3,-2.6 h -3.4 v 5.2 h 3.8 z m -0.4,-7.5 c 1.6,0 2.5,-1.2 2.5,-2.6 0,-1.5 -1,-2.5 -2.5,-2.5 h -3.3 v 5.1 z"
               id="path842"
               inkscape:connector-curvature="0"
               style="fill:#4a4a49" /><path
               class="st0"
               d="m 690.7,490.6 c 0,-0.2 0.2,-0.5 0.5,-0.5 h 1.6 c 0.2,0 0.5,0.2 0.5,0.5 v 16.2 c 0,0.2 -0.2,0.5 -0.5,0.5 h -1.6 c -0.2,0 -0.5,-0.2 -0.5,-0.5 z"
               id="path844"
               inkscape:connector-curvature="0"
               style="fill:#4a4a49" /><path
               class="st0"
               d="m 698,490.6 c 0,-0.2 0.2,-0.5 0.5,-0.5 h 9.8 c 0.3,0 0.5,0.2 0.5,0.5 v 1.4 c 0,0.2 -0.2,0.5 -0.5,0.5 h -7.7 v 5 h 6.5 c 0.2,0 0.5,0.2 0.5,0.5 v 1.4 c 0,0.3 -0.2,0.5 -0.5,0.5 h -6.5 v 5.3 h 7.7 c 0.3,0 0.5,0.2 0.5,0.5 v 1.3 c 0,0.2 -0.2,0.5 -0.5,0.5 h -9.8 c -0.3,0 -0.5,-0.2 -0.5,-0.5 z"
               id="path846"
               inkscape:connector-curvature="0"
               style="fill:#4a4a49" /><path
               class="st0"
               d="m 712.4,490.6 c 0,-0.2 0.2,-0.5 0.5,-0.5 h 6.7 c 2.9,0 5.3,2.3 5.3,5.2 0,2.3 -1.5,4.1 -3.6,5 l 3.4,6.2 c 0.2,0.3 0,0.7 -0.4,0.7 h -1.9 c -0.2,0 -0.3,-0.1 -0.4,-0.2 l -3.3,-6.5 H 715 v 6.3 c 0,0.2 -0.2,0.5 -0.5,0.5 h -1.6 c -0.3,0 -0.5,-0.2 -0.5,-0.5 z m 6.9,7.9 c 1.6,0 3,-1.3 3,-3 0,-1.6 -1.4,-2.9 -3,-2.9 H 715 v 6 h 4.3 z"
               id="path848"
               inkscape:connector-curvature="0"
               style="fill:#4a4a49" /><path
               class="st0"
               d="m 728.7,490.4 c 0,-0.2 0.2,-0.4 0.5,-0.4 h 0.6 l 10.6,12.3 v 0 -11.6 c 0,-0.2 0.2,-0.5 0.5,-0.5 h 1.6 c 0.2,0 0.5,0.2 0.5,0.5 v 16.5 c 0,0.2 -0.2,0.4 -0.5,0.4 h -0.6 l -10.6,-12.7 v 0 11.9 c 0,0.2 -0.2,0.5 -0.5,0.5 h -1.5 c -0.2,0 -0.5,-0.2 -0.5,-0.5 v -16.4 z"
               id="path850"
               inkscape:connector-curvature="0"
               style="fill:#4a4a49" /><path
               class="st0"
               d="m 755.2,489.9 c 4.9,0 8.8,3.9 8.8,8.9 0,4.9 -3.9,8.8 -8.8,8.8 -4.9,0 -8.8,-3.9 -8.8,-8.8 0,-4.9 3.9,-8.9 8.8,-8.9 z m 0,15.2 c 3.5,0 6.4,-2.8 6.4,-6.4 0,-3.5 -2.9,-6.4 -6.4,-6.4 -3.5,0 -6.4,2.9 -6.4,6.4 0.1,3.6 3,6.4 6.4,6.4 z"
               id="path852"
               inkscape:connector-curvature="0"
               style="fill:#4a4a49" /></g></g><rect
           x="584.79999"
           y="479.20001"
           class="st5"
           width="41.700001"
           height="41.700001"
           id="rect858"
           style="fill:#300c46" /></g><g
         id="g910"><g
           id="g906"><g
             id="g904"><path
               class="st0"
               d="m 637.8,560 c 0,-0.2 0.2,-0.5 0.5,-0.5 h 9.8 c 0.3,0 0.5,0.2 0.5,0.5 v 1.4 c 0,0.2 -0.2,0.5 -0.5,0.5 h -7.7 v 5.7 h 6.5 c 0.2,0 0.5,0.2 0.5,0.5 v 1.3 c 0,0.2 -0.2,0.5 -0.5,0.5 h -6.5 v 6.4 c 0,0.2 -0.2,0.5 -0.5,0.5 h -1.6 c -0.3,0 -0.5,-0.2 -0.5,-0.5 z"
               id="path862"
               inkscape:connector-curvature="0"
               style="fill:#4a4a49" /><path
               class="st0"
               d="m 651.7,560 c 0,-0.2 0.2,-0.5 0.5,-0.5 h 1.6 c 0.2,0 0.5,0.2 0.5,0.5 v 16.2 c 0,0.2 -0.2,0.5 -0.5,0.5 h -1.6 c -0.2,0 -0.5,-0.2 -0.5,-0.5 z"
               id="path864"
               inkscape:connector-curvature="0"
               style="fill:#4a4a49" /><path
               class="st0"
               d="m 657.9,574.2 c 0.2,-0.3 0.4,-0.7 0.6,-1 0.2,-0.3 0.6,-0.4 0.8,-0.2 0.1,0.1 2,1.7 3.9,1.7 1.7,0 2.8,-1 2.8,-2.3 0,-1.5 -1.3,-2.4 -3.7,-3.4 -2.5,-1.1 -4.5,-2.4 -4.5,-5.2 0,-1.9 1.5,-4.5 5.4,-4.5 2.5,0 4.3,1.3 4.5,1.4 0.2,0.1 0.4,0.5 0.1,0.8 -0.2,0.3 -0.4,0.6 -0.6,0.9 -0.2,0.3 -0.5,0.5 -0.9,0.2 -0.2,-0.1 -1.9,-1.2 -3.3,-1.2 -2.1,0 -2.8,1.3 -2.8,2.2 0,1.4 1.1,2.3 3.1,3.1 2.8,1.2 5.3,2.5 5.3,5.5 0,2.6 -2.3,4.6 -5.5,4.6 -3,0 -4.9,-1.6 -5.3,-1.9 0,-0.1 -0.1,-0.3 0.1,-0.7 z"
               id="path866"
               inkscape:connector-curvature="0"
               style="fill:#4a4a49" /><path
               class="st0"
               d="m 679.8,559.3 c 2.5,0 4.3,0.8 5.9,2.3 0.2,0.2 0.2,0.5 0,0.7 l -1.1,1.1 c -0.2,0.2 -0.4,0.2 -0.6,0 -1.2,-1 -2.7,-1.6 -4.2,-1.6 -3.5,0 -6.2,2.9 -6.2,6.4 0,3.4 2.7,6.4 6.2,6.4 1.8,0 3,-0.7 4.2,-1.6 0.2,-0.2 0.4,-0.1 0.6,0 l 1.1,1.1 c 0.2,0.2 0.1,0.5 0,0.7 -1.7,1.6 -3.8,2.4 -6,2.4 -4.9,0 -8.9,-3.9 -8.9,-8.8 0.1,-5.2 4.1,-9.1 9,-9.1 z"
               id="path868"
               inkscape:connector-curvature="0"
               style="fill:#4a4a49" /><path
               class="st0"
               d="m 686.9,576.1 7.5,-16.5 c 0.1,-0.1 0.3,-0.3 0.4,-0.3 h 0.2 c 0.1,0 0.3,0.1 0.4,0.3 l 7.5,16.5 c 0.1,0.3 0,0.6 -0.4,0.6 H 701 c -0.3,0 -0.5,-0.1 -0.6,-0.4 L 699,573 h -8 c -0.5,1.1 -1,2.2 -1.5,3.4 -0.1,0.2 -0.3,0.4 -0.6,0.4 h -1.5 c -0.4,-0.1 -0.6,-0.4 -0.5,-0.7 z m 11.1,-5.2 -3,-6.7 h -0.1 l -3,6.7 z"
               id="path870"
               inkscape:connector-curvature="0"
               style="fill:#4a4a49" /><path
               class="st0"
               d="m 705.5,560 c 0,-0.2 0.2,-0.5 0.5,-0.5 h 1.6 c 0.2,0 0.5,0.2 0.5,0.5 v 14.4 h 6.6 c 0.3,0 0.5,0.2 0.5,0.5 v 1.3 c 0,0.2 -0.2,0.5 -0.5,0.5 H 706 c -0.3,0 -0.5,-0.2 -0.5,-0.5 z"
               id="path872"
               inkscape:connector-curvature="0"
               style="fill:#4a4a49" /><path
               class="st0"
               d="m 717.7,560 c 0,-0.2 0.2,-0.5 0.5,-0.5 h 1.6 c 0.2,0 0.5,0.2 0.5,0.5 v 16.2 c 0,0.2 -0.2,0.5 -0.5,0.5 h -1.6 c -0.2,0 -0.5,-0.2 -0.5,-0.5 z"
               id="path874"
               inkscape:connector-curvature="0"
               style="fill:#4a4a49" /><path
               class="st0"
               d="m 723.3,575.8 8.1,-13.8 v -0.1 h -6.9 c -0.2,0 -0.5,-0.2 -0.5,-0.5 V 560 c 0,-0.2 0.2,-0.5 0.5,-0.5 h 10.1 c 0.2,0 0.5,0.2 0.5,0.5 v 0.3 l -8.1,14 v 0 h 7.2 c 0.3,0 0.5,0.2 0.5,0.5 v 1.4 c 0,0.2 -0.2,0.5 -0.5,0.5 h -10.3 c -0.2,0 -0.5,-0.2 -0.5,-0.5 v -0.4 z"
               id="path876"
               inkscape:connector-curvature="0"
               style="fill:#4a4a49" /><path
               class="st0"
               d="m 735.8,576.1 7.5,-16.5 c 0.1,-0.1 0.3,-0.3 0.4,-0.3 h 0.2 c 0.1,0 0.3,0.1 0.4,0.3 l 7.5,16.5 c 0.1,0.3 0,0.6 -0.4,0.6 h -1.5 c -0.3,0 -0.5,-0.1 -0.6,-0.4 l -1.5,-3.4 h -8 c -0.5,1.1 -1,2.2 -1.5,3.4 -0.1,0.2 -0.3,0.4 -0.6,0.4 h -1.5 c -0.4,0 -0.6,-0.3 -0.4,-0.6 z m 11.1,-5.2 -3,-6.7 h -0.1 l -3,6.7 z"
               id="path878"
               inkscape:connector-curvature="0"
               style="fill:#4a4a49" /><path
               class="st0"
               d="m 761.8,559.3 c 2.5,0 4.3,0.8 5.9,2.3 0.2,0.2 0.2,0.5 0,0.7 l -1.1,1.1 c -0.2,0.2 -0.4,0.2 -0.6,0 -1.2,-1 -2.7,-1.6 -4.2,-1.6 -3.5,0 -6.2,2.9 -6.2,6.4 0,3.4 2.7,6.4 6.2,6.4 1.8,0 3,-0.7 4.2,-1.6 0.2,-0.2 0.4,-0.1 0.6,0 l 1.1,1.1 c 0.2,0.2 0.1,0.5 0,0.7 -1.7,1.6 -3.8,2.4 -6,2.4 -4.9,0 -8.9,-3.9 -8.9,-8.8 0.2,-5.2 4.1,-9.1 9,-9.1 z"
               id="path880"
               inkscape:connector-curvature="0"
               style="fill:#4a4a49" /><path
               class="st0"
               d="m 771.3,560 c 0,-0.2 0.2,-0.5 0.5,-0.5 h 1.6 c 0.2,0 0.5,0.2 0.5,0.5 v 16.2 c 0,0.2 -0.2,0.5 -0.5,0.5 h -1.6 c -0.2,0 -0.5,-0.2 -0.5,-0.5 z"
               id="path882"
               inkscape:connector-curvature="0"
               style="fill:#4a4a49" /><path
               class="st0"
               d="m 786.1,559.3 c 4.9,0 8.8,3.9 8.8,8.9 0,4.9 -3.9,8.8 -8.8,8.8 -4.9,0 -8.8,-3.9 -8.8,-8.8 0,-5 3.9,-8.9 8.8,-8.9 z m 0,15.2 c 3.5,0 6.4,-2.8 6.4,-6.4 0,-3.5 -2.9,-6.4 -6.4,-6.4 -3.5,0 -6.4,2.9 -6.4,6.4 0.1,3.6 3,6.4 6.4,6.4 z"
               id="path884"
               inkscape:connector-curvature="0"
               style="fill:#4a4a49" /><path
               class="st0"
               d="m 798.5,559.7 c 0,-0.2 0.2,-0.4 0.5,-0.4 h 0.6 l 10.6,12.3 v 0 -11.6 c 0,-0.2 0.2,-0.5 0.5,-0.5 h 1.6 c 0.2,0 0.5,0.2 0.5,0.5 v 16.5 c 0,0.2 -0.2,0.4 -0.5,0.4 h -0.6 L 801,564.3 v 0 11.9 c 0,0.2 -0.2,0.5 -0.5,0.5 H 799 c -0.2,0 -0.5,-0.2 -0.5,-0.5 z"
               id="path886"
               inkscape:connector-curvature="0"
               style="fill:#4a4a49" /><path
               class="st0"
               d="m 826.2,568.4 -5.7,-8.2 c -0.2,-0.3 0,-0.7 0.4,-0.7 h 1.8 c 0.2,0 0.3,0.1 0.4,0.2 l 4.4,6.3 4.4,-6.3 c 0.1,-0.1 0.2,-0.2 0.4,-0.2 h 1.8 c 0.4,0 0.6,0.4 0.4,0.7 l -5.8,8.2 v 7.8 c 0,0.2 -0.2,0.5 -0.5,0.5 h -1.6 c -0.3,0 -0.5,-0.2 -0.5,-0.5 v -7.8 z"
               id="path888"
               inkscape:connector-curvature="0"
               style="fill:#4a4a49" /><path
               class="st0"
               d="m 849.9,559.3 c 2.5,0 4.3,0.8 5.9,2.3 0.2,0.2 0.2,0.5 0,0.7 l -1.1,1.1 c -0.2,0.2 -0.4,0.2 -0.6,0 -1.2,-1 -2.7,-1.6 -4.2,-1.6 -3.5,0 -6.2,2.9 -6.2,6.4 0,3.4 2.7,6.4 6.2,6.4 1.8,0 3,-0.7 4.2,-1.6 0.2,-0.2 0.4,-0.1 0.6,0 l 1.1,1.1 c 0.2,0.2 0.1,0.5 0,0.7 -1.7,1.6 -3.8,2.4 -6,2.4 -4.9,0 -8.9,-3.9 -8.9,-8.8 0.2,-5.2 4.1,-9.1 9,-9.1 z"
               id="path890"
               inkscape:connector-curvature="0"
               style="fill:#4a4a49" /><path
               class="st0"
               d="m 866.8,559.3 c 4.9,0 8.8,3.9 8.8,8.9 0,4.9 -3.9,8.8 -8.8,8.8 -4.9,0 -8.8,-3.9 -8.8,-8.8 0,-5 3.9,-8.9 8.8,-8.9 z m 0,15.2 c 3.5,0 6.4,-2.8 6.4,-6.4 0,-3.5 -2.9,-6.4 -6.4,-6.4 -3.5,0 -6.4,2.9 -6.4,6.4 0.1,3.6 3,6.4 6.4,6.4 z"
               id="path892"
               inkscape:connector-curvature="0"
               style="fill:#4a4a49" /><path
               class="st0"
               d="m 879.2,559.7 c 0,-0.2 0.2,-0.4 0.5,-0.4 h 0.6 l 10.6,12.3 v 0 -11.6 c 0,-0.2 0.2,-0.5 0.5,-0.5 h 1.6 c 0.2,0 0.5,0.2 0.5,0.5 v 16.5 c 0,0.2 -0.2,0.4 -0.5,0.4 h -0.6 l -10.6,-12.7 v 0 11.9 c 0,0.2 -0.2,0.5 -0.5,0.5 h -1.5 c -0.2,0 -0.5,-0.2 -0.5,-0.5 v -16.4 z"
               id="path894"
               inkscape:connector-curvature="0"
               style="fill:#4a4a49" /><path
               class="st0"
               d="m 900.5,561.8 h -4 c -0.3,0 -0.5,-0.2 -0.5,-0.5 V 560 c 0,-0.2 0.2,-0.5 0.5,-0.5 H 907 c 0.3,0 0.5,0.2 0.5,0.5 v 1.4 c 0,0.2 -0.2,0.5 -0.5,0.5 h -4 v 14.4 c 0,0.2 -0.2,0.5 -0.5,0.5 H 901 c -0.2,0 -0.5,-0.2 -0.5,-0.5 z"
               id="path896"
               inkscape:connector-curvature="0"
               style="fill:#4a4a49" /><path
               class="st0"
               d="m 910.2,560 c 0,-0.2 0.2,-0.5 0.5,-0.5 h 6.7 c 2.9,0 5.3,2.3 5.3,5.2 0,2.3 -1.5,4.1 -3.6,5 l 3.4,6.2 c 0.2,0.3 0,0.7 -0.4,0.7 H 920 c -0.2,0 -0.3,-0.1 -0.4,-0.2 l -3.3,-6.5 h -3.7 v 6.3 c 0,0.2 -0.2,0.5 -0.5,0.5 h -1.6 c -0.3,0 -0.5,-0.2 -0.5,-0.5 V 560 Z m 6.9,7.9 c 1.6,0 3,-1.3 3,-3 0,-1.6 -1.4,-2.9 -3,-2.9 h -4.4 v 6 h 4.4 z"
               id="path898"
               inkscape:connector-curvature="0"
               style="fill:#4a4a49" /><path
               class="st0"
               d="m 934,559.3 c 4.9,0 8.8,3.9 8.8,8.9 0,4.9 -3.9,8.8 -8.8,8.8 -4.9,0 -8.8,-3.9 -8.8,-8.8 0,-5 3.9,-8.9 8.8,-8.9 z m 0,15.2 c 3.5,0 6.4,-2.8 6.4,-6.4 0,-3.5 -2.9,-6.4 -6.4,-6.4 -3.5,0 -6.4,2.9 -6.4,6.4 0.1,3.6 2.9,6.4 6.4,6.4 z"
               id="path900"
               inkscape:connector-curvature="0"
               style="fill:#4a4a49" /><path
               class="st0"
               d="m 946.3,560 c 0,-0.2 0.2,-0.5 0.5,-0.5 h 1.6 c 0.2,0 0.5,0.2 0.5,0.5 v 14.4 h 6.6 c 0.3,0 0.5,0.2 0.5,0.5 v 1.3 c 0,0.2 -0.2,0.5 -0.5,0.5 h -8.7 c -0.3,0 -0.5,-0.2 -0.5,-0.5 z"
               id="path902"
               inkscape:connector-curvature="0"
               style="fill:#4a4a49" /></g></g><rect
           x="584.79999"
           y="548.5"
           class="st6"
           width="41.700001"
           height="41.700001"
           id="rect908"
           style="fill:#acdff2" /></g></g><g
       id="g982"><g
         id="g938"><g
           id="g934"><g
             id="g932"><path
               class="st0"
               d="m 390.4,435.5 c 0.2,-0.3 0.4,-0.7 0.6,-1 0.2,-0.3 0.6,-0.4 0.8,-0.2 0.1,0.1 2,1.7 3.9,1.7 1.7,0 2.8,-1 2.8,-2.3 0,-1.5 -1.3,-2.4 -3.7,-3.4 -2.5,-1.1 -4.5,-2.4 -4.5,-5.2 0,-1.9 1.5,-4.5 5.4,-4.5 2.5,0 4.3,1.3 4.5,1.4 0.2,0.1 0.4,0.5 0.1,0.8 -0.2,0.3 -0.4,0.6 -0.6,0.9 -0.2,0.3 -0.5,0.5 -0.9,0.2 -0.2,-0.1 -1.9,-1.2 -3.3,-1.2 -2.1,0 -2.8,1.3 -2.8,2.2 0,1.4 1.1,2.3 3.1,3.1 2.8,1.2 5.3,2.5 5.3,5.5 0,2.6 -2.3,4.6 -5.5,4.6 -3,0 -4.9,-1.6 -5.3,-1.9 0,-0.1 -0.2,-0.3 0.1,-0.7 z"
               id="path914"
               inkscape:connector-curvature="0"
               style="fill:#4a4a49" /><path
               class="st0"
               d="m 404.7,421.3 c 0,-0.2 0.2,-0.5 0.5,-0.5 h 9.8 c 0.3,0 0.5,0.2 0.5,0.5 v 1.4 c 0,0.2 -0.2,0.5 -0.5,0.5 h -7.7 v 5 h 6.5 c 0.2,0 0.5,0.2 0.5,0.5 v 1.4 c 0,0.3 -0.2,0.5 -0.5,0.5 h -6.5 v 5.3 h 7.7 c 0.3,0 0.5,0.2 0.5,0.5 v 1.3 c 0,0.2 -0.2,0.5 -0.5,0.5 h -9.8 c -0.3,0 -0.5,-0.2 -0.5,-0.5 z"
               id="path916"
               inkscape:connector-curvature="0"
               style="fill:#4a4a49" /><path
               class="st0"
               d="m 426.6,420.5 c 2.4,0 4.3,0.9 6,2.3 0.2,0.2 0.2,0.5 0,0.7 -0.4,0.4 -0.7,0.8 -1.1,1.2 -0.2,0.2 -0.4,0.2 -0.6,0 -1.2,-1 -2.7,-1.7 -4.2,-1.7 -3.5,0 -6.2,2.9 -6.2,6.4 0,3.4 2.7,6.4 6.2,6.4 2,0 3.4,-0.7 3.7,-0.8 v -2.7 H 428 c -0.3,0 -0.5,-0.2 -0.5,-0.4 v -1.4 c 0,-0.3 0.2,-0.5 0.5,-0.5 h 4.5 c 0.2,0 0.4,0.2 0.4,0.5 0,2 0,4 0,5.9 0,0.1 -0.1,0.3 -0.2,0.4 0,0 -2.5,1.6 -6.1,1.6 -4.9,0 -8.8,-3.9 -8.8,-8.8 0,-4.9 3.9,-9.1 8.8,-9.1 z"
               id="path918"
               inkscape:connector-curvature="0"
               style="fill:#4a4a49" /><path
               class="st0"
               d="m 436.5,421.3 c 0,-0.2 0.2,-0.5 0.5,-0.5 h 1.6 c 0.3,0 0.5,0.2 0.5,0.5 v 10.1 c 0,2.5 1.6,4.4 4.1,4.4 2.5,0 4.1,-1.9 4.1,-4.3 v -10.2 c 0,-0.2 0.2,-0.5 0.5,-0.5 h 1.6 c 0.2,0 0.5,0.2 0.5,0.5 v 10.3 c 0,3.7 -2.8,6.6 -6.7,6.6 -3.8,0 -6.6,-2.9 -6.6,-6.6 v -10.3 z"
               id="path920"
               inkscape:connector-curvature="0"
               style="fill:#4a4a49" /><path
               class="st0"
               d="m 454.4,421.3 c 0,-0.2 0.2,-0.5 0.5,-0.5 h 6.7 c 2.9,0 5.3,2.3 5.3,5.2 0,2.3 -1.5,4.1 -3.6,5 l 3.4,6.2 c 0.2,0.3 0,0.7 -0.4,0.7 h -1.9 c -0.2,0 -0.3,-0.1 -0.4,-0.2 l -3.3,-6.5 H 457 v 6.3 c 0,0.2 -0.2,0.5 -0.5,0.5 h -1.6 c -0.3,0 -0.5,-0.2 -0.5,-0.5 z m 6.9,7.8 c 1.6,0 3,-1.3 3,-3 0,-1.6 -1.4,-2.9 -3,-2.9 h -4.4 v 6 h 4.4 z"
               id="path922"
               inkscape:connector-curvature="0"
               style="fill:#4a4a49" /><path
               class="st0"
               d="m 470.7,421.3 c 0,-0.2 0.2,-0.5 0.5,-0.5 h 1.6 c 0.2,0 0.5,0.2 0.5,0.5 v 16.2 c 0,0.2 -0.2,0.5 -0.5,0.5 h -1.6 c -0.2,0 -0.5,-0.2 -0.5,-0.5 z"
               id="path924"
               inkscape:connector-curvature="0"
               style="fill:#4a4a49" /><path
               class="st0"
               d="m 478,421.3 c 0,-0.2 0.2,-0.5 0.4,-0.5 h 5.6 c 4.7,0 8.6,3.8 8.6,8.6 0,4.8 -3.9,8.6 -8.6,8.6 h -5.6 c -0.2,0 -0.4,-0.2 -0.4,-0.5 z m 5.7,14.3 c 3.6,0 6.2,-2.6 6.2,-6.3 0,-3.6 -2.6,-6.2 -6.2,-6.2 h -3.2 v 12.5 z"
               id="path926"
               inkscape:connector-curvature="0"
               style="fill:#4a4a49" /><path
               class="st0"
               d="m 493.7,437.3 7.5,-16.5 c 0.1,-0.1 0.3,-0.3 0.4,-0.3 h 0.2 c 0.1,0 0.3,0.1 0.4,0.3 l 7.5,16.5 c 0.1,0.3 0,0.6 -0.4,0.6 h -1.5 c -0.3,0 -0.5,-0.1 -0.6,-0.4 l -1.5,-3.4 h -8 c -0.5,1.1 -1,2.2 -1.5,3.4 -0.1,0.2 -0.3,0.4 -0.6,0.4 h -1.5 c -0.3,0.1 -0.5,-0.3 -0.4,-0.6 z m 11.1,-5.2 -3,-6.7 h -0.1 l -3,6.7 z"
               id="path928"
               inkscape:connector-curvature="0"
               style="fill:#4a4a49" /><path
               class="st0"
               d="m 512.3,421.3 c 0,-0.2 0.2,-0.5 0.4,-0.5 h 5.6 c 4.7,0 8.6,3.8 8.6,8.6 0,4.8 -3.9,8.6 -8.6,8.6 h -5.6 c -0.2,0 -0.4,-0.2 -0.4,-0.5 z m 5.7,14.3 c 3.6,0 6.2,-2.6 6.2,-6.3 0,-3.6 -2.6,-6.2 -6.2,-6.2 h -3.2 v 12.5 z"
               id="path930"
               inkscape:connector-curvature="0"
               style="fill:#4a4a49" /></g></g><rect
           x="338.5"
           y="409.79999"
           class="st0"
           width="41.700001"
           height="41.700001"
           id="rect936"
           style="fill:#4a4a49" /></g><g
         id="g956"><g
           id="g952"><g
             id="g950"><path
               class="st0"
               d="m 390.4,504.9 c 0.2,-0.3 0.4,-0.7 0.6,-1 0.2,-0.3 0.6,-0.4 0.8,-0.2 0.1,0.1 2,1.7 3.9,1.7 1.7,0 2.8,-1 2.8,-2.3 0,-1.5 -1.3,-2.4 -3.7,-3.4 -2.5,-1.1 -4.5,-2.4 -4.5,-5.2 0,-1.9 1.5,-4.5 5.4,-4.5 2.5,0 4.3,1.3 4.5,1.4 0.2,0.1 0.4,0.5 0.1,0.8 -0.2,0.3 -0.4,0.6 -0.6,0.9 -0.2,0.3 -0.5,0.5 -0.9,0.2 -0.2,-0.1 -1.9,-1.2 -3.3,-1.2 -2.1,0 -2.8,1.3 -2.8,2.2 0,1.4 1.1,2.3 3.1,3.1 2.8,1.2 5.3,2.5 5.3,5.5 0,2.6 -2.3,4.6 -5.5,4.6 -3,0 -4.9,-1.6 -5.3,-1.9 0,-0.2 -0.2,-0.3 0.1,-0.7 z"
               id="path940"
               inkscape:connector-curvature="0"
               style="fill:#4a4a49" /><path
               class="st0"
               d="m 402.3,506.7 7.5,-16.5 c 0.1,-0.1 0.3,-0.3 0.4,-0.3 h 0.2 c 0.1,0 0.3,0.1 0.4,0.3 l 7.5,16.5 c 0.1,0.3 0,0.6 -0.4,0.6 h -1.5 c -0.3,0 -0.5,-0.1 -0.6,-0.4 l -1.5,-3.4 h -8 c -0.5,1.1 -1,2.2 -1.5,3.4 -0.1,0.2 -0.3,0.4 -0.6,0.4 h -1.5 c -0.3,0 -0.5,-0.3 -0.4,-0.6 z m 11.2,-5.2 -3,-6.7 h -0.1 l -3,6.7 z"
               id="path942"
               inkscape:connector-curvature="0"
               style="fill:#4a4a49" /><path
               class="st0"
               d="m 420.9,490.6 c 0,-0.2 0.2,-0.5 0.5,-0.5 h 1.6 c 0.2,0 0.5,0.2 0.5,0.5 V 505 h 6.6 c 0.3,0 0.5,0.2 0.5,0.5 v 1.3 c 0,0.2 -0.2,0.5 -0.5,0.5 h -8.7 c -0.3,0 -0.5,-0.2 -0.5,-0.5 z"
               id="path944"
               inkscape:connector-curvature="0"
               style="fill:#4a4a49" /><path
               class="st0"
               d="m 432.6,490.6 c 0,-0.2 0.2,-0.5 0.5,-0.5 h 1.6 c 0.3,0 0.5,0.2 0.5,0.5 v 10.1 c 0,2.5 1.6,4.4 4.1,4.4 2.5,0 4.1,-1.9 4.1,-4.3 v -10.2 c 0,-0.2 0.2,-0.5 0.5,-0.5 h 1.6 c 0.2,0 0.5,0.2 0.5,0.5 v 10.3 c 0,3.7 -2.8,6.6 -6.7,6.6 -3.8,0 -6.6,-2.9 -6.6,-6.6 v -10.3 z"
               id="path946"
               inkscape:connector-curvature="0"
               style="fill:#4a4a49" /><path
               class="st0"
               d="m 450.4,490.6 c 0,-0.2 0.2,-0.5 0.4,-0.5 h 5.6 c 4.7,0 8.6,3.9 8.6,8.6 0,4.8 -3.9,8.6 -8.6,8.6 h -5.6 c -0.2,0 -0.4,-0.2 -0.4,-0.5 z m 5.8,14.4 c 3.6,0 6.2,-2.6 6.2,-6.3 0,-3.6 -2.6,-6.2 -6.2,-6.2 H 453 V 505 Z"
               id="path948"
               inkscape:connector-curvature="0"
               style="fill:#4a4a49" /></g></g><rect
           x="338.5"
           y="479.20001"
           class="st7"
           width="41.700001"
           height="41.700001"
           id="rect954"
           style="fill:#ec6e8d" /></g><g
         id="g980"><g
           id="g976"><g
             id="g974"><path
               class="st0"
               d="m 393.8,561.8 h -4 c -0.3,0 -0.5,-0.2 -0.5,-0.5 V 560 c 0,-0.2 0.2,-0.5 0.5,-0.5 h 10.5 c 0.3,0 0.5,0.2 0.5,0.5 v 1.4 c 0,0.2 -0.2,0.5 -0.5,0.5 h -4 v 14.4 c 0,0.2 -0.2,0.5 -0.5,0.5 h -1.6 c -0.2,0 -0.5,-0.2 -0.5,-0.5 v -14.5 z"
               id="path958"
               inkscape:connector-curvature="0"
               style="fill:#4a4a49" /><path
               class="st0"
               d="m 403.5,560 c 0,-0.2 0.2,-0.5 0.5,-0.5 h 6.7 c 2.9,0 5.3,2.3 5.3,5.2 0,2.3 -1.5,4.1 -3.6,5 l 3.4,6.2 c 0.2,0.3 0,0.7 -0.4,0.7 h -1.9 c -0.2,0 -0.3,-0.1 -0.4,-0.2 l -3.3,-6.5 H 406 v 6.3 c 0,0.2 -0.2,0.5 -0.5,0.5 H 404 c -0.3,0 -0.5,-0.2 -0.5,-0.5 z m 6.9,7.9 c 1.6,0 3,-1.3 3,-3 0,-1.6 -1.4,-2.9 -3,-2.9 H 406 v 6 h 4.4 z"
               id="path960"
               inkscape:connector-curvature="0"
               style="fill:#4a4a49" /><path
               class="st0"
               d="m 417.5,576.1 7.5,-16.5 c 0.1,-0.1 0.3,-0.3 0.4,-0.3 h 0.2 c 0.1,0 0.3,0.1 0.4,0.3 l 7.5,16.5 c 0.1,0.3 0,0.6 -0.4,0.6 h -1.5 c -0.3,0 -0.5,-0.1 -0.6,-0.4 l -1.5,-3.4 h -8 c -0.5,1.1 -1,2.2 -1.5,3.4 -0.1,0.2 -0.3,0.4 -0.6,0.4 h -1.5 c -0.4,0 -0.6,-0.3 -0.4,-0.6 z m 11.1,-5.2 -3,-6.7 h -0.1 l -3,6.7 z"
               id="path962"
               inkscape:connector-curvature="0"
               style="fill:#4a4a49" /><path
               class="st0"
               d="m 436,559.7 c 0,-0.2 0.2,-0.4 0.5,-0.4 h 0.6 l 10.6,12.3 v 0 -11.6 c 0,-0.2 0.2,-0.5 0.5,-0.5 h 1.6 c 0.2,0 0.5,0.2 0.5,0.5 v 16.5 c 0,0.2 -0.2,0.4 -0.5,0.4 h -0.6 l -10.6,-12.7 v 0 11.9 c 0,0.2 -0.2,0.5 -0.5,0.5 h -1.5 c -0.2,0 -0.5,-0.2 -0.5,-0.5 v -16.4 z"
               id="path964"
               inkscape:connector-curvature="0"
               style="fill:#4a4a49" /><path
               class="st0"
               d="m 453.9,574.2 c 0.2,-0.3 0.4,-0.7 0.6,-1 0.2,-0.3 0.6,-0.4 0.8,-0.2 0.1,0.1 2,1.7 3.9,1.7 1.7,0 2.8,-1 2.8,-2.3 0,-1.5 -1.3,-2.4 -3.7,-3.4 -2.5,-1.1 -4.5,-2.4 -4.5,-5.2 0,-1.9 1.5,-4.5 5.4,-4.5 2.5,0 4.3,1.3 4.5,1.4 0.2,0.1 0.4,0.5 0.1,0.8 -0.2,0.3 -0.4,0.6 -0.6,0.9 -0.2,0.3 -0.5,0.5 -0.9,0.2 -0.2,-0.1 -1.9,-1.2 -3.3,-1.2 -2.1,0 -2.8,1.3 -2.8,2.2 0,1.4 1.1,2.3 3.1,3.1 2.8,1.2 5.3,2.5 5.3,5.5 0,2.6 -2.3,4.6 -5.5,4.6 -3,0 -4.9,-1.6 -5.3,-1.9 0,-0.1 -0.1,-0.3 0.1,-0.7 z"
               id="path966"
               inkscape:connector-curvature="0"
               style="fill:#4a4a49" /><path
               class="st0"
               d="m 468.2,560 c 0,-0.2 0.2,-0.5 0.5,-0.5 h 1.6 c 0.2,0 0.5,0.2 0.5,0.5 v 16.2 c 0,0.2 -0.2,0.5 -0.5,0.5 h -1.6 c -0.2,0 -0.5,-0.2 -0.5,-0.5 z"
               id="path968"
               inkscape:connector-curvature="0"
               style="fill:#4a4a49" /><path
               class="st0"
               d="m 477.8,561.8 h -4 c -0.3,0 -0.5,-0.2 -0.5,-0.5 V 560 c 0,-0.2 0.2,-0.5 0.5,-0.5 h 10.5 c 0.3,0 0.5,0.2 0.5,0.5 v 1.4 c 0,0.2 -0.2,0.5 -0.5,0.5 h -4 v 14.4 c 0,0.2 -0.2,0.5 -0.5,0.5 h -1.6 c -0.2,0 -0.5,-0.2 -0.5,-0.5 v -14.5 z"
               id="path970"
               inkscape:connector-curvature="0"
               style="fill:#4a4a49" /><path
               class="st0"
               d="m 494.8,559.3 c 4.9,0 8.8,3.9 8.8,8.9 0,4.9 -3.9,8.8 -8.8,8.8 -4.9,0 -8.8,-3.9 -8.8,-8.8 0,-5 3.9,-8.9 8.8,-8.9 z m 0,15.2 c 3.5,0 6.4,-2.8 6.4,-6.4 0,-3.5 -2.9,-6.4 -6.4,-6.4 -3.5,0 -6.4,2.9 -6.4,6.4 0,3.6 2.9,6.4 6.4,6.4 z"
               id="path972"
               inkscape:connector-curvature="0"
               style="fill:#4a4a49" /></g></g><rect
           x="338.5"
           y="548.5"
           class="st8"
           width="41.700001"
           height="41.700001"
           id="rect978"
           style="fill:#465c9d" /></g></g></g></svg>