<?xml version="1.0" encoding="utf-8"?>
<!-- Generator: Adobe Illustrator 21.1.0, SVG Export Plug-In . SVG Version: 6.00 Build 0)  -->
<svg version="1.1" id="Layer_1" xmlns="http://www.w3.org/2000/svg" xmlns:xlink="http://www.w3.org/1999/xlink" x="0px" y="0px"
	 viewBox="0 0 1000 220" style="enable-background:new 0 0 1000 220;" xml:space="preserve">
<style type="text/css">
	.st0{fill:#4A4A49;}
	.st1{fill:#0098C3;}
	.st2{fill:#8C1D80;}
	.st3{fill:#93C01F;}
	.st4{fill:#FCD766;}
	.st5{fill:#300C46;}
	.st6{fill:#ACDFF2;}
	.st7{fill:#EC6E8D;}
	.st8{fill:#465C9D;}
</style>
<g>
	<g>
		<g>
			<g>
				<path class="st0" d="M73.1,27c0-0.3,0.2-0.5,0.5-0.5h5.9c3.2,0,5.8,2.6,5.8,5.7c0,3.2-2.6,5.8-5.8,5.8h-3.8v6.1
					c0,0.3-0.2,0.5-0.5,0.5h-1.7c-0.3,0-0.5-0.2-0.5-0.5V27z M79.4,35.5c1.8,0,3.3-1.5,3.3-3.3c0-1.8-1.5-3.1-3.3-3.1h-3.6v6.4H79.4
					z"/>
				<path class="st0" d="M88.6,27c0-0.3,0.2-0.5,0.5-0.5h1.7c0.3,0,0.5,0.2,0.5,0.5v15.3h7c0.3,0,0.5,0.2,0.5,0.5v1.4
					c0,0.3-0.2,0.5-0.5,0.5H89c-0.3,0-0.5-0.2-0.5-0.5V27z"/>
				<path class="st0" d="M99.9,44l8-17.5c0.1-0.2,0.3-0.3,0.4-0.3h0.3c0.1,0,0.4,0.1,0.4,0.3l7.9,17.5c0.2,0.3-0.1,0.7-0.4,0.7h-1.6
					c-0.3,0-0.5-0.2-0.6-0.4l-1.6-3.6h-8.5c-0.5,1.2-1.1,2.4-1.6,3.6c-0.1,0.2-0.3,0.4-0.6,0.4h-1.6C99.9,44.7,99.7,44.4,99.9,44z
					 M111.6,38.5l-3.2-7.1h-0.1l-3.2,7.1H111.6z"/>
				<path class="st0" d="M119.5,26.7c0-0.3,0.2-0.5,0.5-0.5h0.6l11.3,13h0V27c0-0.3,0.2-0.5,0.5-0.5h1.7c0.3,0,0.5,0.2,0.5,0.5v17.5
					c0,0.3-0.2,0.5-0.5,0.5h-0.7l-11.3-13.4h0v12.6c0,0.3-0.2,0.5-0.5,0.5H120c-0.3,0-0.5-0.2-0.5-0.5V26.7z"/>
				<path class="st0" d="M139.6,27c0-0.3,0.2-0.5,0.5-0.5h10.4c0.3,0,0.5,0.2,0.5,0.5v1.5c0,0.3-0.2,0.5-0.5,0.5h-8.2v5.3h6.9
					c0.3,0,0.5,0.2,0.5,0.5v1.5c0,0.3-0.2,0.5-0.5,0.5h-6.9v5.6h8.2c0.3,0,0.5,0.2,0.5,0.5v1.4c0,0.3-0.2,0.5-0.5,0.5h-10.4
					c-0.3,0-0.5-0.2-0.5-0.5V27z"/>
				<path class="st0" d="M152.4,44l8-17.5c0.1-0.2,0.3-0.3,0.4-0.3h0.3c0.1,0,0.4,0.1,0.4,0.3l7.9,17.5c0.2,0.3-0.1,0.7-0.4,0.7
					h-1.6c-0.3,0-0.5-0.2-0.6-0.4l-1.6-3.6h-8.5c-0.5,1.2-1.1,2.4-1.6,3.6c-0.1,0.2-0.3,0.4-0.6,0.4h-1.6
					C152.5,44.7,152.3,44.4,152.4,44z M164.2,38.5l-3.2-7.1h-0.1l-3.2,7.1H164.2z"/>
				<path class="st0" d="M174,26.6c0.1-0.2,0.3-0.4,0.5-0.4h0.4c0.2,0,0.4,0.1,0.4,0.3l5.4,13.3h0.1l5.4-13.3
					c0.1-0.2,0.3-0.3,0.4-0.3h0.4c0.2,0,0.4,0.2,0.5,0.4l3.2,17.4c0.1,0.4-0.1,0.6-0.5,0.6h-1.7c-0.2,0-0.4-0.2-0.5-0.4l-1.9-11.6
					c0,0-0.1,0-0.1,0l-4.7,11.9c-0.1,0.2-0.2,0.3-0.4,0.3h-0.5c-0.2,0-0.4-0.1-0.4-0.3l-4.7-11.9c0,0-0.1,0-0.1,0l-1.9,11.6
					c0,0.2-0.3,0.4-0.5,0.4h-1.7c-0.4,0-0.5-0.2-0.5-0.6L174,26.6z"/>
				<path class="st0" d="M194.6,27c0-0.3,0.2-0.5,0.5-0.5h1.7c0.3,0,0.5,0.2,0.5,0.5v17.2c0,0.3-0.2,0.5-0.5,0.5h-1.7
					c-0.3,0-0.5-0.2-0.5-0.5V27z"/>
				<path class="st0" d="M202.4,27c0-0.3,0.2-0.5,0.5-0.5h10.4c0.3,0,0.5,0.2,0.5,0.5v1.5c0,0.3-0.2,0.5-0.5,0.5H205v5.3h6.9
					c0.3,0,0.5,0.2,0.5,0.5v1.5c0,0.3-0.2,0.5-0.5,0.5H205v5.6h8.2c0.3,0,0.5,0.2,0.5,0.5v1.4c0,0.3-0.2,0.5-0.5,0.5h-10.4
					c-0.3,0-0.5-0.2-0.5-0.5V27z"/>
				<path class="st0" d="M217.6,26.7c0-0.3,0.2-0.5,0.5-0.5h0.6l11.3,13h0V27c0-0.3,0.2-0.5,0.5-0.5h1.7c0.3,0,0.5,0.2,0.5,0.5v17.5
					c0,0.3-0.2,0.5-0.5,0.5h-0.7l-11.3-13.4h0v12.6c0,0.3-0.2,0.5-0.5,0.5h-1.6c-0.3,0-0.5-0.2-0.5-0.5V26.7z"/>
				<path class="st0" d="M240.2,29H236c-0.3,0-0.5-0.2-0.5-0.5V27c0-0.3,0.2-0.5,0.5-0.5h11.2c0.3,0,0.5,0.2,0.5,0.5v1.5
					c0,0.3-0.2,0.5-0.5,0.5h-4.2v15.2c0,0.3-0.2,0.5-0.5,0.5h-1.7c-0.3,0-0.5-0.2-0.5-0.5V29z"/>
				<path class="st0" d="M258.2,26.3c5.2,0,9.3,4.2,9.3,9.4s-4.2,9.3-9.3,9.3c-5.2,0-9.3-4.1-9.3-9.3S253,26.3,258.2,26.3z
					 M258.2,42.4c3.7,0,6.8-3,6.8-6.7c0-3.7-3-6.8-6.8-6.8c-3.7,0-6.7,3.1-6.7,6.8C251.5,39.3,254.5,42.4,258.2,42.4z"/>
			</g>
		</g>
		<rect x="17" y="14.9" class="st1" width="44.1" height="44.1"/>
	</g>
	<g>
		<g>
			<g>
				<path class="st0" d="M391.8,25.5c2.6,0,4.5,0.9,6.3,2.4c0.2,0.2,0.2,0.5,0,0.7l-1.1,1.2c-0.2,0.2-0.4,0.2-0.6,0
					c-1.2-1.1-2.9-1.7-4.5-1.7c-3.7,0-6.5,3.1-6.5,6.8s2.8,6.7,6.5,6.7c1.9,0,3.2-0.8,4.5-1.7c0.2-0.2,0.5-0.2,0.6,0l1.2,1.2
					c0.2,0.2,0.2,0.5,0,0.7c-1.8,1.7-4,2.5-6.3,2.5c-5.2,0-9.4-4.1-9.4-9.3S386.6,25.5,391.8,25.5z"/>
				<path class="st0" d="M401.6,26.2c0-0.3,0.2-0.5,0.5-0.5h1.7c0.3,0,0.5,0.2,0.5,0.5v10.7c0,2.6,1.7,4.6,4.3,4.6
					c2.7,0,4.4-2,4.4-4.6V26.2c0-0.3,0.2-0.5,0.5-0.5h1.7c0.3,0,0.5,0.2,0.5,0.5v10.9c0,3.9-3,7-7.1,7c-4.1,0-7-3.1-7-7V26.2z"/>
				<path class="st0" d="M420.5,26.2c0-0.3,0.2-0.5,0.5-0.5h1.7c0.3,0,0.5,0.2,0.5,0.5v15.3h7c0.3,0,0.5,0.2,0.5,0.5v1.4
					c0,0.3-0.2,0.5-0.5,0.5H421c-0.3,0-0.5-0.2-0.5-0.5V26.2z"/>
				<path class="st0" d="M434.9,28.2h-4.2c-0.3,0-0.5-0.2-0.5-0.5v-1.5c0-0.3,0.2-0.5,0.5-0.5h11.2c0.3,0,0.5,0.2,0.5,0.5v1.5
					c0,0.3-0.2,0.5-0.5,0.5h-4.2v15.2c0,0.3-0.2,0.5-0.5,0.5h-1.7c-0.3,0-0.5-0.2-0.5-0.5V28.2z"/>
				<path class="st0" d="M444.9,26.2c0-0.3,0.2-0.5,0.5-0.5h1.7c0.3,0,0.5,0.2,0.5,0.5v10.7c0,2.6,1.7,4.6,4.3,4.6
					c2.7,0,4.4-2,4.4-4.6V26.2c0-0.3,0.2-0.5,0.5-0.5h1.7c0.3,0,0.5,0.2,0.5,0.5v10.9c0,3.9-3,7-7.1,7c-4.1,0-7-3.1-7-7V26.2z"/>
				<path class="st0" d="M463.8,26.2c0-0.3,0.2-0.5,0.5-0.5h7.1c3.1,0,5.7,2.5,5.7,5.6c0,2.4-1.6,4.4-3.8,5.3l3.6,6.6
					c0.2,0.3,0,0.8-0.4,0.8h-2c-0.2,0-0.4-0.1-0.4-0.2l-3.5-6.9h-3.9v6.6c0,0.3-0.2,0.5-0.5,0.5h-1.7c-0.3,0-0.5-0.2-0.5-0.5V26.2z
					 M471.1,34.5c1.7,0,3.2-1.4,3.2-3.2c0-1.7-1.5-3.1-3.2-3.1h-4.6v6.3H471.1z"/>
				<path class="st0" d="M478.6,43.2l8-17.5c0.1-0.2,0.3-0.3,0.4-0.3h0.3c0.1,0,0.4,0.1,0.4,0.3l7.9,17.5c0.2,0.3-0.1,0.7-0.4,0.7
					h-1.6c-0.3,0-0.5-0.2-0.6-0.4l-1.6-3.6h-8.5c-0.5,1.2-1.1,2.4-1.6,3.6c-0.1,0.2-0.3,0.4-0.6,0.4h-1.6
					C478.7,43.9,478.5,43.6,478.6,43.2z M490.4,37.7l-3.2-7.1h-0.1l-3.2,7.1H490.4z"/>
			</g>
		</g>
		<rect x="327.6" y="14.1" class="st2" width="44.1" height="44.1"/>
	</g>
	<g>
		<rect x="589.9" y="88.3" class="st3" width="44.1" height="44.1"/>
		<g>
			<g>
				<path class="st0" d="M646.1,100.5c0-0.3,0.2-0.5,0.5-0.5h6c5,0,9.1,4.1,9.1,9.1c0,5-4.1,9.1-9.1,9.1h-6c-0.3,0-0.5-0.2-0.5-0.5
					V100.5z M652.2,115.7c3.8,0,6.6-2.8,6.6-6.6c0-3.8-2.8-6.6-6.6-6.6h-3.4v13.2H652.2z"/>
				<path class="st0" d="M665.4,100.5c0-0.3,0.2-0.5,0.5-0.5h10.4c0.3,0,0.5,0.2,0.5,0.5v1.5c0,0.3-0.2,0.5-0.5,0.5H668v5.3h6.9
					c0.3,0,0.5,0.2,0.5,0.5v1.5c0,0.3-0.2,0.5-0.5,0.5H668v5.6h8.2c0.3,0,0.5,0.2,0.5,0.5v1.4c0,0.3-0.2,0.5-0.5,0.5h-10.4
					c-0.3,0-0.5-0.2-0.5-0.5V100.5z"/>
				<path class="st0" d="M680.6,100.5c0-0.3,0.2-0.5,0.5-0.5h5.9c3.2,0,5.8,2.6,5.8,5.7c0,3.2-2.6,5.8-5.8,5.8h-3.8v6.1
					c0,0.3-0.2,0.5-0.5,0.5h-1.7c-0.3,0-0.5-0.2-0.5-0.5V100.5z M686.9,109c1.8,0,3.3-1.5,3.3-3.3c0-1.8-1.5-3.1-3.3-3.1h-3.6v6.4
					H686.9z"/>
				<path class="st0" d="M704.1,99.7c5.2,0,9.3,4.2,9.3,9.4c0,5.2-4.2,9.3-9.3,9.3c-5.2,0-9.3-4.1-9.3-9.3
					C694.7,103.9,698.9,99.7,704.1,99.7z M704.1,115.8c3.7,0,6.8-3,6.8-6.7c0-3.7-3-6.8-6.8-6.8c-3.7,0-6.7,3.1-6.7,6.8
					C697.3,112.8,700.4,115.8,704.1,115.8z"/>
				<path class="st0" d="M717.1,100.5c0-0.3,0.2-0.5,0.5-0.5h7.1c3.1,0,5.7,2.5,5.7,5.6c0,2.4-1.6,4.4-3.8,5.3l3.6,6.6
					c0.2,0.3,0,0.8-0.4,0.8h-2c-0.2,0-0.4-0.1-0.4-0.2l-3.5-6.9h-3.9v6.6c0,0.3-0.2,0.5-0.5,0.5h-1.7c-0.3,0-0.5-0.2-0.5-0.5V100.5z
					 M724.5,108.8c1.7,0,3.2-1.4,3.2-3.2c0-1.7-1.5-3.1-3.2-3.1h-4.6v6.3H724.5z"/>
				<path class="st0" d="M736.9,102.4h-4.2c-0.3,0-0.5-0.2-0.5-0.5v-1.5c0-0.3,0.2-0.5,0.5-0.5h11.2c0.3,0,0.5,0.2,0.5,0.5v1.5
					c0,0.3-0.2,0.5-0.5,0.5h-4.2v15.2c0,0.3-0.2,0.5-0.5,0.5h-1.7c-0.3,0-0.5-0.2-0.5-0.5V102.4z"/>
				<path class="st0" d="M747.1,100.5c0-0.3,0.2-0.5,0.5-0.5H758c0.3,0,0.5,0.2,0.5,0.5v1.5c0,0.3-0.2,0.5-0.5,0.5h-8.2v5.3h6.9
					c0.3,0,0.5,0.2,0.5,0.5v1.5c0,0.3-0.2,0.5-0.5,0.5h-6.9v5.6h8.2c0.3,0,0.5,0.2,0.5,0.5v1.4c0,0.3-0.2,0.5-0.5,0.5h-10.4
					c-0.3,0-0.5-0.2-0.5-0.5V100.5z"/>
			</g>
		</g>
	</g>
	<g>
		<g>
			<g>
				<path class="st0" d="M646.1,27c0-0.3,0.2-0.5,0.5-0.5H657c0.3,0,0.5,0.2,0.5,0.5v1.5c0,0.3-0.2,0.5-0.5,0.5h-8.2v5.3h6.9
					c0.3,0,0.5,0.2,0.5,0.5v1.5c0,0.3-0.2,0.5-0.5,0.5h-6.9v5.6h8.2c0.3,0,0.5,0.2,0.5,0.5v1.4c0,0.3-0.2,0.5-0.5,0.5h-10.4
					c-0.3,0-0.5-0.2-0.5-0.5V27z"/>
				<path class="st0" d="M661.4,27c0-0.3,0.2-0.5,0.5-0.5h6c5,0,9.1,4.1,9.1,9.1c0,5-4.1,9.1-9.1,9.1h-6c-0.3,0-0.5-0.2-0.5-0.5V27z
					 M667.4,42.2c3.8,0,6.6-2.8,6.6-6.6c0-3.8-2.8-6.6-6.6-6.6H664v13.2H667.4z"/>
				<path class="st0" d="M680.4,27c0-0.3,0.2-0.5,0.5-0.5h1.7c0.3,0,0.5,0.2,0.5,0.5v10.7c0,2.6,1.7,4.6,4.3,4.6
					c2.7,0,4.4-2,4.4-4.6V27c0-0.3,0.2-0.5,0.5-0.5h1.7c0.3,0,0.5,0.2,0.5,0.5v10.9c0,3.9-3,7-7.1,7c-4.1,0-7-3.1-7-7V27z"/>
				<path class="st0" d="M707.4,26.3c2.6,0,4.5,0.9,6.3,2.4c0.2,0.2,0.2,0.5,0,0.7l-1.1,1.2c-0.2,0.2-0.4,0.2-0.6,0
					c-1.2-1.1-2.9-1.7-4.5-1.7c-3.7,0-6.5,3.1-6.5,6.8c0,3.6,2.8,6.7,6.5,6.7c1.9,0,3.2-0.8,4.5-1.7c0.2-0.2,0.5-0.2,0.6,0l1.2,1.2
					c0.2,0.2,0.2,0.5,0,0.7c-1.8,1.7-4,2.5-6.3,2.5c-5.2,0-9.4-4.1-9.4-9.3S702.2,26.3,707.4,26.3z"/>
				<path class="st0" d="M715,44l8-17.5c0.1-0.2,0.3-0.3,0.4-0.3h0.3c0.1,0,0.4,0.1,0.4,0.3L732,44c0.2,0.3-0.1,0.7-0.4,0.7h-1.6
					c-0.3,0-0.5-0.2-0.6-0.4l-1.6-3.6h-8.5c-0.5,1.2-1.1,2.4-1.6,3.6c-0.1,0.2-0.3,0.4-0.6,0.4h-1.6C715,44.7,714.8,44.4,715,44z
					 M726.7,38.5l-3.2-7.1h-0.1l-3.2,7.1H726.7z"/>
				<path class="st0" d="M742.5,26.3c2.6,0,4.5,0.9,6.3,2.4c0.2,0.2,0.2,0.5,0,0.7l-1.1,1.2c-0.2,0.2-0.4,0.2-0.6,0
					c-1.2-1.1-2.9-1.7-4.5-1.7c-3.7,0-6.5,3.1-6.5,6.8c0,3.6,2.8,6.7,6.5,6.7c1.9,0,3.2-0.8,4.5-1.7c0.2-0.2,0.5-0.2,0.6,0l1.2,1.2
					c0.2,0.2,0.2,0.5,0,0.7c-1.8,1.7-4,2.5-6.3,2.5c-5.2,0-9.4-4.1-9.4-9.3S737.3,26.3,742.5,26.3z"/>
				<path class="st0" d="M752.5,27c0-0.3,0.2-0.5,0.5-0.5h1.7c0.3,0,0.5,0.2,0.5,0.5v17.2c0,0.3-0.2,0.5-0.5,0.5H753
					c-0.3,0-0.5-0.2-0.5-0.5V27z"/>
				<path class="st0" d="M768.3,26.3c5.2,0,9.3,4.2,9.3,9.4s-4.2,9.3-9.3,9.3c-5.2,0-9.3-4.1-9.3-9.3S763.1,26.3,768.3,26.3z
					 M768.3,42.4c3.7,0,6.8-3,6.8-6.7c0-3.7-3-6.8-6.8-6.8c-3.7,0-6.7,3.1-6.7,6.8C761.5,39.3,764.6,42.4,768.3,42.4z"/>
				<path class="st0" d="M781.3,26.7c0-0.3,0.2-0.5,0.5-0.5h0.6l11.3,13h0V27c0-0.3,0.2-0.5,0.5-0.5h1.7c0.3,0,0.5,0.2,0.5,0.5v17.5
					c0,0.3-0.2,0.5-0.5,0.5h-0.7L784,31.6h0v12.6c0,0.3-0.2,0.5-0.5,0.5h-1.6c-0.3,0-0.5-0.2-0.5-0.5V26.7z"/>
			</g>
		</g>
		<rect x="589.9" y="14.9" class="st4" width="44.1" height="44.1"/>
	</g>
	<g>
		<g>
			<g>
				<path class="st0" d="M391.8,173.2c2.5,0,4.5,0.9,6.3,2.4c0.2,0.2,0.2,0.5,0,0.7c-0.4,0.4-0.8,0.8-1.2,1.2
					c-0.2,0.2-0.4,0.2-0.7,0c-1.2-1.1-2.8-1.8-4.4-1.8c-3.7,0-6.5,3.1-6.5,6.8c0,3.6,2.8,6.7,6.5,6.7c2.2,0,3.6-0.8,3.9-0.9v-2.9
					h-2.5c-0.3,0-0.5-0.2-0.5-0.5v-1.5c0-0.3,0.2-0.5,0.5-0.5h4.7c0.3,0,0.5,0.2,0.5,0.5c0,2.1,0,4.2,0,6.3c0,0.1-0.1,0.3-0.2,0.4
					c0,0-2.7,1.7-6.4,1.7c-5.2,0-9.3-4.1-9.3-9.3C382.5,177.4,386.6,173.2,391.8,173.2z"/>
				<path class="st0" d="M410.5,173.2c5.2,0,9.3,4.2,9.3,9.4c0,5.2-4.2,9.3-9.3,9.3c-5.2,0-9.3-4.1-9.3-9.3
					C401.2,177.4,405.3,173.2,410.5,173.2z M410.5,189.3c3.7,0,6.8-3,6.8-6.7c0-3.7-3-6.8-6.8-6.8c-3.7,0-6.7,3.1-6.7,6.8
					C403.8,186.3,406.8,189.3,410.5,189.3z"/>
				<path class="st0" d="M423.6,173.9c0-0.3,0.2-0.5,0.5-0.5h5.8c3.1,0,5.4,2.1,5.4,4.8c0,2-1.5,3.4-2.7,4.1
					c1.4,0.6,3.2,1.8,3.2,4.2c0,2.9-2.4,5-5.7,5h-6.1c-0.3,0-0.5-0.2-0.5-0.5V173.9z M430.1,189.2c1.6,0,2.8-1.2,2.8-2.8
					c0-1.6-1.5-2.7-3.2-2.7h-3.6v5.6H430.1z M429.7,181.3c1.7,0,2.7-1.2,2.7-2.8c0-1.6-1-2.7-2.7-2.7h-3.5v5.5H429.7z"/>
				<path class="st0" d="M439.7,173.9c0-0.3,0.2-0.5,0.5-0.5h1.7c0.3,0,0.5,0.2,0.5,0.5v17.2c0,0.3-0.2,0.5-0.5,0.5h-1.7
					c-0.3,0-0.5-0.2-0.5-0.5V173.9z"/>
				<path class="st0" d="M447.4,173.9c0-0.3,0.2-0.5,0.5-0.5h10.4c0.3,0,0.5,0.2,0.5,0.5v1.5c0,0.3-0.2,0.5-0.5,0.5h-8.2v5.3h6.9
					c0.3,0,0.5,0.2,0.5,0.5v1.5c0,0.3-0.2,0.5-0.5,0.5h-6.9v5.6h8.2c0.3,0,0.5,0.2,0.5,0.5v1.4c0,0.3-0.2,0.5-0.5,0.5h-10.4
					c-0.3,0-0.5-0.2-0.5-0.5V173.9z"/>
				<path class="st0" d="M462.7,173.9c0-0.3,0.2-0.5,0.5-0.5h7.1c3.1,0,5.7,2.5,5.7,5.6c0,2.4-1.6,4.4-3.8,5.3l3.6,6.6
					c0.2,0.3,0,0.8-0.4,0.8h-2c-0.2,0-0.4-0.1-0.4-0.2l-3.5-6.9h-3.9v6.6c0,0.3-0.2,0.5-0.5,0.5h-1.7c-0.3,0-0.5-0.2-0.5-0.5V173.9z
					 M470.1,182.3c1.7,0,3.2-1.4,3.2-3.2c0-1.7-1.5-3.1-3.2-3.1h-4.6v6.3H470.1z"/>
				<path class="st0" d="M480,173.7c0-0.3,0.2-0.5,0.5-0.5h0.6l11.3,13h0v-12.3c0-0.3,0.2-0.5,0.5-0.5h1.7c0.3,0,0.5,0.2,0.5,0.5
					v17.5c0,0.3-0.2,0.5-0.5,0.5h-0.7l-11.3-13.4h0v12.6c0,0.3-0.2,0.5-0.5,0.5h-1.6c-0.3,0-0.5-0.2-0.5-0.5V173.7z"/>
				<path class="st0" d="M508.1,173.2c5.2,0,9.3,4.2,9.3,9.4c0,5.2-4.2,9.3-9.3,9.3c-5.2,0-9.3-4.1-9.3-9.3
					C498.8,177.4,502.9,173.2,508.1,173.2z M508.1,189.3c3.7,0,6.8-3,6.8-6.7c0-3.7-3-6.8-6.8-6.8c-3.7,0-6.7,3.1-6.7,6.8
					C501.4,186.3,504.4,189.3,508.1,189.3z"/>
			</g>
		</g>
		<rect x="327.6" y="161.8" class="st5" width="44.1" height="44.1"/>
	</g>
	<g>
		<g>
			<g>
				<path class="st0" d="M646.1,173.9c0-0.3,0.2-0.5,0.5-0.5H657c0.3,0,0.5,0.2,0.5,0.5v1.5c0,0.3-0.2,0.5-0.5,0.5h-8.2v6h6.9
					c0.3,0,0.5,0.2,0.5,0.5v1.4c0,0.3-0.2,0.5-0.5,0.5h-6.9v6.8c0,0.3-0.2,0.5-0.5,0.5h-1.7c-0.3,0-0.5-0.2-0.5-0.5V173.9z"/>
				<path class="st0" d="M660.8,173.9c0-0.3,0.2-0.5,0.5-0.5h1.7c0.3,0,0.5,0.2,0.5,0.5v17.2c0,0.3-0.2,0.5-0.5,0.5h-1.7
					c-0.3,0-0.5-0.2-0.5-0.5V173.9z"/>
				<path class="st0" d="M667.3,189c0.2-0.3,0.4-0.7,0.7-1.1c0.2-0.3,0.6-0.4,0.9-0.2c0.2,0.1,2.2,1.8,4.2,1.8
					c1.8,0,2.9-1.1,2.9-2.4c0-1.6-1.4-2.5-3.9-3.6c-2.6-1.1-4.7-2.5-4.7-5.5c0-2,1.6-4.8,5.7-4.8c2.6,0,4.5,1.4,4.8,1.5
					c0.2,0.1,0.4,0.5,0.2,0.9c-0.2,0.3-0.4,0.7-0.6,1c-0.2,0.3-0.5,0.5-0.9,0.3c-0.2-0.1-2-1.3-3.5-1.3c-2.2,0-2.9,1.4-2.9,2.3
					c0,1.5,1.1,2.4,3.3,3.3c3,1.2,5.6,2.6,5.6,5.8c0,2.7-2.4,4.9-5.8,4.9c-3.2,0-5.2-1.7-5.6-2.1C667.3,189.6,667.1,189.4,667.3,189
					z"/>
				<path class="st0" d="M690.5,173.2c2.6,0,4.5,0.9,6.3,2.4c0.2,0.2,0.2,0.5,0,0.7l-1.1,1.2c-0.2,0.2-0.4,0.2-0.6,0
					c-1.2-1.1-2.9-1.7-4.5-1.7c-3.7,0-6.5,3.1-6.5,6.8s2.8,6.7,6.5,6.7c1.9,0,3.2-0.8,4.5-1.7c0.2-0.2,0.5-0.2,0.6,0l1.2,1.2
					c0.2,0.2,0.2,0.5,0,0.7c-1.8,1.7-4,2.5-6.3,2.5c-5.2,0-9.4-4.1-9.4-9.3C681.1,177.4,685.3,173.2,690.5,173.2z"/>
				<path class="st0" d="M698.1,190.9l8-17.5c0.1-0.2,0.3-0.3,0.4-0.3h0.3c0.1,0,0.4,0.1,0.4,0.3l7.9,17.5c0.2,0.3-0.1,0.7-0.4,0.7
					H713c-0.3,0-0.5-0.2-0.6-0.4l-1.6-3.6h-8.5c-0.5,1.2-1.1,2.4-1.6,3.6c-0.1,0.2-0.3,0.4-0.6,0.4h-1.6
					C698.1,191.6,697.9,191.3,698.1,190.9z M709.8,185.4l-3.2-7.1h-0.1l-3.2,7.1H709.8z"/>
				<path class="st0" d="M717.7,173.9c0-0.3,0.2-0.5,0.5-0.5h1.7c0.3,0,0.5,0.2,0.5,0.5v15.3h7c0.3,0,0.5,0.2,0.5,0.5v1.4
					c0,0.3-0.2,0.5-0.5,0.5h-9.2c-0.3,0-0.5-0.2-0.5-0.5V173.9z"/>
				<path class="st0" d="M730.6,173.9c0-0.3,0.2-0.5,0.5-0.5h1.7c0.3,0,0.5,0.2,0.5,0.5v17.2c0,0.3-0.2,0.5-0.5,0.5h-1.7
					c-0.3,0-0.5-0.2-0.5-0.5V173.9z"/>
				<path class="st0" d="M736.5,190.7l8.6-14.6v-0.1h-7.3c-0.3,0-0.5-0.2-0.5-0.5v-1.5c0-0.3,0.2-0.5,0.5-0.5h10.7
					c0.3,0,0.5,0.2,0.5,0.5v0.3l-8.6,14.9v0h7.6c0.3,0,0.5,0.2,0.5,0.5v1.5c0,0.3-0.2,0.5-0.5,0.5H737c-0.3,0-0.5-0.2-0.5-0.5V190.7
					z"/>
				<path class="st0" d="M749.8,190.9l8-17.5c0.1-0.2,0.3-0.3,0.4-0.3h0.3c0.1,0,0.4,0.1,0.4,0.3l7.9,17.5c0.2,0.3-0.1,0.7-0.4,0.7
					h-1.6c-0.3,0-0.5-0.2-0.6-0.4l-1.6-3.6h-8.5c-0.5,1.2-1.1,2.4-1.6,3.6c-0.1,0.2-0.3,0.4-0.6,0.4h-1.6
					C749.9,191.6,749.7,191.3,749.8,190.9z M761.6,185.4l-3.2-7.1h-0.1l-3.2,7.1H761.6z"/>
				<path class="st0" d="M777.4,173.2c2.6,0,4.5,0.9,6.3,2.4c0.2,0.2,0.2,0.5,0,0.7l-1.1,1.2c-0.2,0.2-0.4,0.2-0.6,0
					c-1.2-1.1-2.9-1.7-4.5-1.7c-3.7,0-6.5,3.1-6.5,6.8s2.8,6.7,6.5,6.7c1.9,0,3.2-0.8,4.5-1.7c0.2-0.2,0.5-0.2,0.6,0l1.2,1.2
					c0.2,0.2,0.2,0.5,0,0.7c-1.8,1.7-4,2.5-6.3,2.5c-5.2,0-9.4-4.1-9.4-9.3C768,177.4,772.2,173.2,777.4,173.2z"/>
				<path class="st0" d="M787.4,173.9c0-0.3,0.2-0.5,0.5-0.5h1.7c0.3,0,0.5,0.2,0.5,0.5v17.2c0,0.3-0.2,0.5-0.5,0.5h-1.7
					c-0.3,0-0.5-0.2-0.5-0.5V173.9z"/>
				<path class="st0" d="M803.1,173.2c5.2,0,9.3,4.2,9.3,9.4c0,5.2-4.2,9.3-9.3,9.3c-5.2,0-9.3-4.1-9.3-9.3
					C793.8,177.4,797.9,173.2,803.1,173.2z M803.1,189.3c3.7,0,6.8-3,6.8-6.7c0-3.7-3-6.8-6.8-6.8c-3.7,0-6.7,3.1-6.7,6.8
					C796.4,186.3,799.4,189.3,803.1,189.3z"/>
				<path class="st0" d="M816.2,173.7c0-0.3,0.2-0.5,0.5-0.5h0.6l11.3,13h0v-12.3c0-0.3,0.2-0.5,0.5-0.5h1.7c0.3,0,0.5,0.2,0.5,0.5
					v17.5c0,0.3-0.2,0.5-0.5,0.5h-0.7l-11.3-13.4h0v12.6c0,0.3-0.2,0.5-0.5,0.5h-1.6c-0.3,0-0.5-0.2-0.5-0.5V173.7z"/>
				<path class="st0" d="M845.6,182.9l-6.1-8.7c-0.2-0.3,0-0.8,0.4-0.8h1.9c0.2,0,0.3,0.1,0.4,0.2l4.7,6.6l4.7-6.6
					c0.1-0.1,0.2-0.2,0.4-0.2h1.9c0.4,0,0.6,0.4,0.4,0.8l-6.2,8.6v8.3c0,0.3-0.2,0.5-0.5,0.5H846c-0.3,0-0.5-0.2-0.5-0.5V182.9z"/>
				<path class="st0" d="M870.7,173.2c2.6,0,4.5,0.9,6.3,2.4c0.2,0.2,0.2,0.5,0,0.7l-1.1,1.2c-0.2,0.2-0.4,0.2-0.6,0
					c-1.2-1.1-2.9-1.7-4.5-1.7c-3.7,0-6.5,3.1-6.5,6.8s2.8,6.7,6.5,6.7c1.9,0,3.2-0.8,4.5-1.7c0.2-0.2,0.5-0.2,0.6,0l1.2,1.2
					c0.2,0.2,0.2,0.5,0,0.7c-1.8,1.7-4,2.5-6.3,2.5c-5.2,0-9.4-4.1-9.4-9.3C861.3,177.4,865.5,173.2,870.7,173.2z"/>
				<path class="st0" d="M888.6,173.2c5.2,0,9.3,4.2,9.3,9.4c0,5.2-4.2,9.3-9.3,9.3c-5.2,0-9.3-4.1-9.3-9.3
					C879.3,177.4,883.4,173.2,888.6,173.2z M888.6,189.3c3.7,0,6.8-3,6.8-6.7c0-3.7-3-6.8-6.8-6.8c-3.7,0-6.7,3.1-6.7,6.8
					C881.9,186.3,884.9,189.3,888.6,189.3z"/>
				<path class="st0" d="M901.6,173.7c0-0.3,0.2-0.5,0.5-0.5h0.6l11.3,13h0v-12.3c0-0.3,0.2-0.5,0.5-0.5h1.7c0.3,0,0.5,0.2,0.5,0.5
					v17.5c0,0.3-0.2,0.5-0.5,0.5h-0.7l-11.3-13.4h0v12.6c0,0.3-0.2,0.5-0.5,0.5h-1.6c-0.3,0-0.5-0.2-0.5-0.5V173.7z"/>
				<path class="st0" d="M924.2,175.9H920c-0.3,0-0.5-0.2-0.5-0.5v-1.5c0-0.3,0.2-0.5,0.5-0.5h11.2c0.3,0,0.5,0.2,0.5,0.5v1.5
					c0,0.3-0.2,0.5-0.5,0.5h-4.2v15.2c0,0.3-0.2,0.5-0.5,0.5h-1.7c-0.3,0-0.5-0.2-0.5-0.5V175.9z"/>
				<path class="st0" d="M934.5,173.9c0-0.3,0.2-0.5,0.5-0.5h7.1c3.1,0,5.7,2.5,5.7,5.6c0,2.4-1.6,4.4-3.8,5.3l3.6,6.6
					c0.2,0.3,0,0.8-0.4,0.8h-2c-0.2,0-0.4-0.1-0.4-0.2l-3.5-6.9h-3.9v6.6c0,0.3-0.2,0.5-0.5,0.5H935c-0.3,0-0.5-0.2-0.5-0.5V173.9z
					 M941.8,182.3c1.7,0,3.2-1.4,3.2-3.2c0-1.7-1.5-3.1-3.2-3.1h-4.6v6.3H941.8z"/>
				<path class="st0" d="M959.7,173.2c5.2,0,9.3,4.2,9.3,9.4c0,5.2-4.2,9.3-9.3,9.3c-5.2,0-9.3-4.1-9.3-9.3
					C950.4,177.4,954.5,173.2,959.7,173.2z M959.7,189.3c3.7,0,6.8-3,6.8-6.7c0-3.7-3-6.8-6.8-6.8c-3.7,0-6.7,3.1-6.7,6.8
					C953,186.3,956,189.3,959.7,189.3z"/>
				<path class="st0" d="M972.8,173.9c0-0.3,0.2-0.5,0.5-0.5h1.7c0.3,0,0.5,0.2,0.5,0.5v15.3h7c0.3,0,0.5,0.2,0.5,0.5v1.4
					c0,0.3-0.2,0.5-0.5,0.5h-9.2c-0.3,0-0.5-0.2-0.5-0.5V173.9z"/>
			</g>
		</g>
		<rect x="589.9" y="161.8" class="st6" width="44.1" height="44.1"/>
	</g>
	<g>
		<g>
			<g>
				<path class="st0" d="M72,115.5c0.2-0.3,0.4-0.7,0.7-1.1c0.2-0.3,0.6-0.4,0.9-0.2c0.2,0.1,2.2,1.8,4.2,1.8c1.8,0,2.9-1.1,2.9-2.4
					c0-1.6-1.4-2.5-3.9-3.6c-2.6-1.1-4.7-2.5-4.7-5.5c0-2,1.6-4.8,5.7-4.8c2.6,0,4.5,1.3,4.8,1.5c0.2,0.1,0.4,0.5,0.2,0.9
					c-0.2,0.3-0.4,0.7-0.6,1c-0.2,0.3-0.5,0.5-0.9,0.3c-0.2-0.1-2-1.3-3.5-1.3c-2.2,0-2.9,1.4-2.9,2.3c0,1.5,1.1,2.4,3.3,3.3
					c3,1.2,5.6,2.6,5.6,5.8c0,2.7-2.4,4.9-5.8,4.9c-3.2,0-5.2-1.7-5.6-2.1C71.9,116.2,71.7,116,72,115.5z"/>
				<path class="st0" d="M87.1,100.5c0-0.3,0.2-0.5,0.5-0.5H98c0.3,0,0.5,0.2,0.5,0.5v1.5c0,0.3-0.2,0.5-0.5,0.5h-8.2v5.3h6.9
					c0.3,0,0.5,0.2,0.5,0.5v1.5c0,0.3-0.2,0.5-0.5,0.5h-6.9v5.6H98c0.3,0,0.5,0.2,0.5,0.5v1.4c0,0.3-0.2,0.5-0.5,0.5H87.6
					c-0.3,0-0.5-0.2-0.5-0.5V100.5z"/>
				<path class="st0" d="M110.3,99.7c2.5,0,4.5,0.9,6.3,2.4c0.2,0.2,0.2,0.5,0,0.7c-0.4,0.4-0.8,0.8-1.2,1.2c-0.2,0.2-0.4,0.2-0.7,0
					c-1.2-1.1-2.8-1.8-4.4-1.8c-3.7,0-6.5,3.1-6.5,6.8c0,3.6,2.8,6.7,6.5,6.7c2.2,0,3.6-0.8,3.9-0.9V112h-2.5
					c-0.3,0-0.5-0.2-0.5-0.5V110c0-0.3,0.2-0.5,0.5-0.5h4.7c0.3,0,0.5,0.2,0.5,0.5c0,2.1,0,4.2,0,6.3c0,0.1-0.1,0.3-0.2,0.4
					c0,0-2.7,1.7-6.4,1.7c-5.2,0-9.3-4.1-9.3-9.3C101,103.9,105.1,99.7,110.3,99.7z"/>
				<path class="st0" d="M120.8,100.5c0-0.3,0.2-0.5,0.5-0.5h1.7c0.3,0,0.5,0.2,0.5,0.5v10.7c0,2.6,1.7,4.6,4.3,4.6
					c2.7,0,4.4-2,4.4-4.6v-10.8c0-0.3,0.2-0.5,0.5-0.5h1.7c0.3,0,0.5,0.2,0.5,0.5v10.9c0,3.9-3,7-7.1,7c-4.1,0-7-3.1-7-7V100.5z"/>
				<path class="st0" d="M139.7,100.5c0-0.3,0.2-0.5,0.5-0.5h7.1c3.1,0,5.7,2.5,5.7,5.6c0,2.4-1.6,4.4-3.8,5.3l3.6,6.6
					c0.2,0.3,0,0.8-0.4,0.8h-2c-0.2,0-0.4-0.1-0.4-0.2l-3.5-6.9h-3.9v6.6c0,0.3-0.2,0.5-0.5,0.5h-1.7c-0.3,0-0.5-0.2-0.5-0.5V100.5z
					 M147.1,108.8c1.7,0,3.2-1.4,3.2-3.2c0-1.7-1.5-3.1-3.2-3.1h-4.6v6.3H147.1z"/>
				<path class="st0" d="M157,100.5c0-0.3,0.2-0.5,0.5-0.5h1.7c0.3,0,0.5,0.2,0.5,0.5v17.2c0,0.3-0.2,0.5-0.5,0.5h-1.7
					c-0.3,0-0.5-0.2-0.5-0.5V100.5z"/>
				<path class="st0" d="M164.7,100.5c0-0.3,0.2-0.5,0.5-0.5h6c5,0,9.1,4.1,9.1,9.1c0,5-4.1,9.1-9.1,9.1h-6c-0.3,0-0.5-0.2-0.5-0.5
					V100.5z M170.8,115.7c3.8,0,6.6-2.8,6.6-6.6c0-3.8-2.8-6.6-6.6-6.6h-3.4v13.2H170.8z"/>
				<path class="st0" d="M181.4,117.5l8-17.5c0.1-0.2,0.3-0.3,0.4-0.3h0.3c0.1,0,0.4,0.1,0.4,0.3l7.9,17.5c0.2,0.3-0.1,0.7-0.4,0.7
					h-1.6c-0.3,0-0.5-0.2-0.6-0.4l-1.6-3.6h-8.5c-0.5,1.2-1.1,2.4-1.6,3.6c-0.1,0.2-0.3,0.4-0.6,0.4h-1.6
					C181.5,118.2,181.3,117.8,181.4,117.5z M193.2,112l-3.2-7.1h-0.1l-3.2,7.1H193.2z"/>
				<path class="st0" d="M201,100.5c0-0.3,0.2-0.5,0.5-0.5h6c5,0,9.1,4.1,9.1,9.1c0,5-4.1,9.1-9.1,9.1h-6c-0.3,0-0.5-0.2-0.5-0.5
					V100.5z M207.1,115.7c3.8,0,6.6-2.8,6.6-6.6c0-3.8-2.8-6.6-6.6-6.6h-3.4v13.2H207.1z"/>
			</g>
		</g>
		<rect x="17" y="88.3" class="st0" width="44.1" height="44.1"/>
	</g>
	<g>
		<g>
			<g>
				<path class="st0" d="M72,189c0.2-0.3,0.4-0.7,0.7-1.1c0.2-0.3,0.6-0.4,0.9-0.2c0.2,0.1,2.2,1.8,4.2,1.8c1.8,0,2.9-1.1,2.9-2.4
					c0-1.6-1.4-2.5-3.9-3.6C74,182.4,72,181,72,178c0-2,1.6-4.8,5.7-4.8c2.6,0,4.5,1.4,4.8,1.5c0.2,0.1,0.4,0.5,0.2,0.9
					c-0.2,0.3-0.4,0.7-0.6,1c-0.2,0.3-0.5,0.5-0.9,0.3c-0.2-0.1-2-1.3-3.5-1.3c-2.2,0-2.9,1.4-2.9,2.3c0,1.5,1.1,2.4,3.3,3.3
					c3,1.2,5.6,2.6,5.6,5.8c0,2.7-2.4,4.9-5.8,4.9c-3.2,0-5.2-1.7-5.6-2.1C71.9,189.6,71.7,189.4,72,189z"/>
				<path class="st0" d="M84.6,191l8-17.5c0.1-0.2,0.3-0.3,0.4-0.3h0.3c0.1,0,0.4,0.1,0.4,0.3l7.9,17.5c0.2,0.3-0.1,0.7-0.4,0.7
					h-1.6c-0.3,0-0.5-0.2-0.6-0.4l-1.6-3.6h-8.5c-0.5,1.2-1.1,2.4-1.6,3.6c-0.1,0.2-0.3,0.4-0.6,0.4h-1.6
					C84.7,191.6,84.5,191.3,84.6,191z M96.4,185.5l-3.2-7.1h-0.1l-3.2,7.1H96.4z"/>
				<path class="st0" d="M104.3,173.9c0-0.3,0.2-0.5,0.5-0.5h1.7c0.3,0,0.5,0.2,0.5,0.5v15.3h7c0.3,0,0.5,0.2,0.5,0.5v1.4
					c0,0.3-0.2,0.5-0.5,0.5h-9.2c-0.3,0-0.5-0.2-0.5-0.5V173.9z"/>
				<path class="st0" d="M116.6,173.9c0-0.3,0.2-0.5,0.5-0.5h1.7c0.3,0,0.5,0.2,0.5,0.5v10.7c0,2.6,1.7,4.6,4.3,4.6
					c2.7,0,4.4-2,4.4-4.6v-10.8c0-0.3,0.2-0.5,0.5-0.5h1.7c0.3,0,0.5,0.2,0.5,0.5v10.9c0,3.9-3,7-7.1,7c-4.1,0-7-3.1-7-7V173.9z"/>
				<path class="st0" d="M135.6,173.9c0-0.3,0.2-0.5,0.5-0.5h6c5,0,9.1,4.1,9.1,9.1c0,5-4.1,9.1-9.1,9.1h-6c-0.3,0-0.5-0.2-0.5-0.5
					V173.9z M141.6,189.2c3.8,0,6.6-2.8,6.6-6.6c0-3.8-2.8-6.6-6.6-6.6h-3.4v13.2H141.6z"/>
			</g>
		</g>
		<rect x="17" y="161.8" class="st7" width="44.1" height="44.1"/>
	</g>
	<g>
		<g>
			<g>
				<path class="st0" d="M386.3,102.4H382c-0.3,0-0.5-0.2-0.5-0.5v-1.5c0-0.3,0.2-0.5,0.5-0.5h11.2c0.3,0,0.5,0.2,0.5,0.5v1.5
					c0,0.3-0.2,0.5-0.5,0.5H389v15.2c0,0.3-0.2,0.5-0.5,0.5h-1.7c-0.3,0-0.5-0.2-0.5-0.5V102.4z"/>
				<path class="st0" d="M396.5,100.5c0-0.3,0.2-0.5,0.5-0.5h7.1c3.1,0,5.7,2.5,5.7,5.6c0,2.4-1.6,4.4-3.8,5.3l3.6,6.6
					c0.2,0.3,0,0.8-0.4,0.8h-2c-0.2,0-0.4-0.1-0.4-0.2l-3.5-6.9h-3.9v6.6c0,0.3-0.2,0.5-0.5,0.5H397c-0.3,0-0.5-0.2-0.5-0.5V100.5z
					 M403.8,108.8c1.7,0,3.2-1.4,3.2-3.2c0-1.7-1.5-3.1-3.2-3.1h-4.6v6.3H403.8z"/>
				<path class="st0" d="M411.3,117.5l8-17.5c0.1-0.2,0.3-0.3,0.4-0.3h0.3c0.1,0,0.4,0.1,0.4,0.3l7.9,17.5c0.2,0.3-0.1,0.7-0.4,0.7
					h-1.6c-0.3,0-0.5-0.2-0.6-0.4l-1.6-3.6h-8.5c-0.5,1.2-1.1,2.4-1.6,3.6c-0.1,0.2-0.3,0.4-0.6,0.4h-1.6
					C411.4,118.1,411.2,117.8,411.3,117.5z M423.1,112l-3.2-7.1h-0.1l-3.2,7.1H423.1z"/>
				<path class="st0" d="M430.9,100.2c0-0.3,0.2-0.5,0.5-0.5h0.6l11.3,13h0v-12.3c0-0.3,0.2-0.5,0.5-0.5h1.7c0.3,0,0.5,0.2,0.5,0.5
					v17.5c0,0.3-0.2,0.5-0.5,0.5h-0.7L433.6,105h0v12.6c0,0.3-0.2,0.5-0.5,0.5h-1.6c-0.3,0-0.5-0.2-0.5-0.5V100.2z"/>
				<path class="st0" d="M449.9,115.5c0.2-0.3,0.4-0.7,0.7-1.1c0.2-0.3,0.6-0.4,0.9-0.2c0.2,0.1,2.2,1.8,4.2,1.8
					c1.8,0,2.9-1.1,2.9-2.4c0-1.6-1.4-2.5-3.9-3.6c-2.6-1.1-4.7-2.5-4.7-5.5c0-2,1.6-4.8,5.7-4.8c2.6,0,4.5,1.3,4.8,1.5
					c0.2,0.1,0.4,0.5,0.2,0.9c-0.2,0.3-0.4,0.7-0.6,1c-0.2,0.3-0.5,0.5-0.9,0.3c-0.2-0.1-2-1.3-3.5-1.3c-2.2,0-2.9,1.4-2.9,2.3
					c0,1.5,1.1,2.4,3.3,3.3c3,1.2,5.6,2.6,5.6,5.8c0,2.7-2.4,4.9-5.8,4.9c-3.2,0-5.2-1.7-5.6-2C449.8,116.1,449.6,116,449.9,115.5z"
					/>
				<path class="st0" d="M465,100.5c0-0.3,0.2-0.5,0.5-0.5h1.7c0.3,0,0.5,0.2,0.5,0.5v17.2c0,0.3-0.2,0.5-0.5,0.5h-1.7
					c-0.3,0-0.5-0.2-0.5-0.5V100.5z"/>
				<path class="st0" d="M475.2,102.4H471c-0.3,0-0.5-0.2-0.5-0.5v-1.5c0-0.3,0.2-0.5,0.5-0.5h11.2c0.3,0,0.5,0.2,0.5,0.5v1.5
					c0,0.3-0.2,0.5-0.5,0.5h-4.2v15.2c0,0.3-0.2,0.5-0.5,0.5h-1.7c-0.3,0-0.5-0.2-0.5-0.5V102.4z"/>
				<path class="st0" d="M493.2,99.7c5.2,0,9.3,4.2,9.3,9.4c0,5.2-4.2,9.3-9.3,9.3c-5.2,0-9.3-4.1-9.3-9.3
					C483.9,103.9,488,99.7,493.2,99.7z M493.2,115.8c3.7,0,6.8-3,6.8-6.7c0-3.7-3-6.8-6.8-6.8c-3.7,0-6.7,3.1-6.7,6.8
					C486.5,112.8,489.5,115.8,493.2,115.8z"/>
			</g>
		</g>
		<rect x="327.6" y="88.3" class="st8" width="44.1" height="44.1"/>
	</g>
</g>
</svg>
