<?xml version="1.0" encoding="UTF-8"?>
<svg width="27px" height="86px" viewBox="0 0 27 86" version="1.1" xmlns="http://www.w3.org/2000/svg" xmlns:xlink="http://www.w3.org/1999/xlink">
    <!-- Generator: Sketch 43.1 (39012) - http://www.bohemiancoding.com/sketch -->
    <title>Page 1 Copy</title>
    <desc>Created with Sketch.</desc>
    <defs>
        <polygon id="path-1" points="0.000477216267 0.000390909091 27.0011344 0.000390909091 27.0011344 85.0246818 0.000477216267 85.0246818 0.000477216267 0.000390909091"></polygon>
    </defs>
    <g id="Web-" stroke="none" stroke-width="1" fill="none" fill-rule="evenodd">
        <g id="Los-foros-en-datos" transform="translate(-915.000000, -2918.000000)">
            <g id="Page-1-Copy" transform="translate(928.000000, 2961.000000) scale(-1, 1) translate(-928.000000, -2961.000000) translate(914.000000, 2918.000000)">
                <mask id="mask-2" fill="white">
                    <use xlink:href="#path-1"></use>
                </mask>
                <g id="Clip-2"></g>
                <path d="M23.1465214,85.0246818 C23.7385929,85.0246818 24.3383786,84.8878636 24.90345,84.5927273 C26.7992357,83.6076364 27.5455929,81.2524091 26.5735929,79.3310909 L8.18080714,42.9785 L26.5928786,5.66036364 C27.5455929,3.72731818 26.7741643,1.37990909 24.8687357,0.414363636 C22.9555929,-0.553136364 20.6451643,0.232590909 19.69245,2.16172727 L0.406735714,41.2526364 C-0.140978571,42.3667273 -0.135192857,43.6782273 0.426021429,44.7845 L19.7117357,82.8981364 C20.3925214,84.2506818 21.74445,85.0246818 23.1465214,85.0246818" id="Fill-1" fill="#0098BE" mask="url(#mask-2)"></path>
            </g>
        </g>
    </g>
</svg>