<svg xmlns="http://www.w3.org/2000/svg" xmlns:xlink="http://www.w3.org/1999/xlink" viewBox="0 0 201.84 185.73"><defs><style>.cls-1{fill:none;}.cls-2{fill:url(#linear-gradient);}.cls-3{clip-path:url(#clip-path);}.cls-4{fill:url(#Degradado_sin_nombre_5);}.cls-5{clip-path:url(#clip-path-2);}.cls-6{fill:url(#Degradado_sin_nombre_5-2);}.cls-7{clip-path:url(#clip-path-3);}.cls-8{fill:url(#Degradado_sin_nombre_5-3);}.cls-9{clip-path:url(#clip-path-4);}.cls-10{clip-path:url(#clip-path-5);}.cls-11{clip-path:url(#clip-path-6);}.cls-12{clip-path:url(#clip-path-7);}</style><linearGradient id="linear-gradient" y1="41.64" x2="184.2" y2="41.64" gradientTransform="matrix(1, 0, 0, -1, 0, 141.62)" gradientUnits="userSpaceOnUse"><stop offset="0" stop-color="#0099c3"/><stop offset="1" stop-color="#8c1e81"/></linearGradient><clipPath id="clip-path" transform="translate(10.88 18.49)"><path class="cls-1" d="M120.91,34.14h-6.06V32.81a3.66,3.66,0,1,0-7.28,0v1.33H95.44V32.81a3.66,3.66,0,1,0-7.28,0v1.33H76V32.81a3.66,3.66,0,1,0-7.28,0v1.33H62.68a1.28,1.28,0,0,0-1.21,1.33V48.8a1.28,1.28,0,0,0,1.21,1.33h2.43V92.76a8.12,8.12,0,0,1-2,5.75,6.69,6.69,0,0,1-5.23,2.25,1.34,1.34,0,0,0,0,2.66h7.28v4a1.27,1.27,0,0,0,1.21,1.33h51a1.27,1.27,0,0,0,1.21-1.33V50.13h2.43a1.28,1.28,0,0,0,1.21-1.33V35.47A1.28,1.28,0,0,0,120.91,34.14ZM110,32.81a1.22,1.22,0,1,1,2.43,0v5.33a1.22,1.22,0,1,1-2.43,0Zm-19.41,0a1.22,1.22,0,1,1,2.43,0v5.33a1.22,1.22,0,1,1-2.43,0Zm-19.41,0a1.22,1.22,0,1,1,2.43,0v5.33a1.22,1.22,0,1,1-2.43,0Zm44.89,73.28H67.54v-2.67h41.24a9.25,9.25,0,0,0,7.28-2.77Zm0-13.33c0,5.45-2.32,8-7.28,8H64.45a10.84,10.84,0,0,0,3.09-8V50.13h48.52Zm3.64-45.3H63.9V36.81h4.85v1.33a3.66,3.66,0,1,0,7.28,0V36.81H88.16v1.33a3.66,3.66,0,1,0,7.28,0V36.81h12.13v1.33a3.66,3.66,0,1,0,7.28,0V36.81h4.85Z"/></clipPath><linearGradient id="Degradado_sin_nombre_5" y1="92.24" x2="195" y2="92.24" gradientUnits="userSpaceOnUse"><stop offset="0" stop-color="#1f94bd"/><stop offset="0.67" stop-color="#644d97"/><stop offset="1" stop-color="#822e86"/></linearGradient><clipPath id="clip-path-2" transform="translate(10.88 18.49)"><path class="cls-1" d="M72.39,84.77a1.34,1.34,0,0,0,0,2.67h7.28V94.1a1.22,1.22,0,1,0,2.42,0V87.44h8.49V94.1a1.22,1.22,0,1,0,2.43,0V87.44h8.49V94.1a1.22,1.22,0,1,0,2.43,0V87.44h7.28a1.34,1.34,0,0,0,0-2.67h-7.28v-8h7.28a1.34,1.34,0,0,0,0-2.67h-7.28v-8h7.28a1.34,1.34,0,0,0,0-2.67h-7.28V56.79a1.22,1.22,0,1,0-2.43,0v6.66H93V56.79a1.22,1.22,0,1,0-2.43,0v6.66H82.09V56.79a1.22,1.22,0,1,0-2.42,0v6.66H72.39a1.34,1.34,0,0,0,0,2.67h7.28v8H72.39a1.34,1.34,0,0,0,0,2.67h7.28v8Zm29.11,0H93v-8h8.49Zm0-18.65v8H93v-8Zm-19.41,0h8.49v8H82.09Zm0,10.66h8.49v8H82.09Z"/></clipPath><linearGradient id="Degradado_sin_nombre_5-2" x1="3" y1="88.24" x2="198" y2="88.24" xlink:href="#Degradado_sin_nombre_5"/><clipPath id="clip-path-3" transform="translate(10.88 18.49)"><path class="cls-1" d="M93.19,0a3.13,3.13,0,0,1,1.23,2.93c-.07,2,0,4,0,6,0,1.52-.76,2.42-2,2.4s-1.9-.91-1.91-2.44c0-2.09,0-4.18,0-6.27A2.53,2.53,0,0,1,92,0Z"/></clipPath><linearGradient id="Degradado_sin_nombre_5-3" x1="6.84" y1="97.49" x2="201.84" y2="97.49" xlink:href="#Degradado_sin_nombre_5"/><clipPath id="clip-path-4" transform="translate(10.88 18.49)"><path class="cls-1" d="M45.72,27.37c1-1.66,1.84-1.87,3.56-.89s3.62,2.07,5.42,3.13c1.33.78,1.73,1.83,1.15,2.87s-1.7,1.24-3.05.48C50.92,31.9,49,30.83,47.18,29.7a9.35,9.35,0,0,1-1.46-1.36Z"/></clipPath><clipPath id="clip-path-5" transform="translate(10.88 18.49)"><path class="cls-1" d="M139.21,28.34a18.14,18.14,0,0,1-2,1.66c-1.7,1.06-3.46,2-5.21,3-1.26.7-2.37.48-2.94-.54s-.2-2.06,1-2.8c1.83-1.09,3.68-2.14,5.52-3.2s2.54-.77,3.56.89Z"/></clipPath><clipPath id="clip-path-6" transform="translate(10.88 18.49)"><path class="cls-1" d="M120.39,8.66a13.34,13.34,0,0,1-.57,1.44c-1.13,2-2.26,4-3.44,6-.78,1.31-2.2,1.59-3.13.66a1.87,1.87,0,0,1-.27-2.43c1.19-2.1,2.39-4.2,3.62-6.27A1.73,1.73,0,0,1,119,7.13C119.57,7.44,120,8.19,120.39,8.66Z"/></clipPath><clipPath id="clip-path-7" transform="translate(10.88 18.49)"><path class="cls-1" d="M67.07,7a4.8,4.8,0,0,1,1.3,1.1c1.25,2,2.41,4.08,3.56,6.16A1.91,1.91,0,0,1,71.32,17a1.88,1.88,0,0,1-2.68-.8C67.39,14.12,66.17,12,65,9.92,64.24,8.46,65.12,7,67.07,7Z"/></clipPath></defs><title>tiempo</title><g id="Layer_2" data-name="Layer 2"><g id="Capa_1" data-name="Capa 1"><path class="cls-2" d="M184.2,143.53a1.16,1.16,0,0,0-.18-.75h0L151,55.69a2.41,2.41,0,0,0-2.22-1.49H124.9a2.41,2.41,0,0,0,0,4.82h22.24l31.13,82.1H5.93L37.06,59H59.3a2.41,2.41,0,1,0,0-4.82H35.4a2.41,2.41,0,0,0-2.23,1.49L.19,142.6h0a1.09,1.09,0,0,0-.19.74v.19H0c0,.37,0,.55.19.74v.18c0,.19.18.19.18.37a.19.19,0,0,0,.19.19l.18.18a1,1,0,0,0,.74.37h.19a1.08,1.08,0,0,0,.74.19H181.79c.37,0,.56,0,.74-.19h.19c.19-.18.37-.18.74-.37l.19-.18.18-.19c0-.18.19-.18.19-.37v-.18a2,2,0,0,0,.18-.74Z" transform="translate(10.88 18.49)"/><g class="cls-3"><rect class="cls-4" y="4" width="195" height="176.48"/></g><g class="cls-5"><rect class="cls-6" x="3" width="195" height="176.48"/></g><g class="cls-7"><rect class="cls-8" x="6.84" y="9.25" width="195" height="176.48"/></g><g class="cls-9"><rect class="cls-8" x="6.84" y="9.25" width="195" height="176.48"/></g><g class="cls-10"><rect class="cls-8" x="6.84" y="9.25" width="195" height="176.48"/></g><g class="cls-11"><rect class="cls-8" x="6.84" y="9.25" width="195" height="176.48"/></g><g class="cls-12"><rect class="cls-8" x="6.84" y="9.25" width="195" height="176.48"/></g></g></g></svg>