<?xml version="1.0" encoding="utf-8"?>
<!-- Generator: Adobe Illustrator 21.1.0, SVG Export Plug-In . SVG Version: 6.00 Build 0)  -->
<svg version="1.1" id="Layer_1" xmlns="http://www.w3.org/2000/svg" xmlns:xlink="http://www.w3.org/1999/xlink" x="0px" y="0px"
	 viewBox="0 0 563 125" style="enable-background:new 0 0 563 125;" xml:space="preserve">
<style type="text/css">
	.st0{fill:#8C1D80;}
	.st1{fill:url(#SVGID_1_);}
	.st2{fill:#5C2482;}
	.st3{fill:#76B72A;}
	.st4{fill:url(#SVGID_2_);}
	.st5{fill:#449C36;}
	.st6{fill:#0098C3;}
	.st7{fill:url(#SVGID_3_);}
	.st8{fill:#4A4A49;}
</style>
<g>
	<g>
		<g>
			<g>
				<g>
					<g>
						<g>
							<path class="st0" d="M119.1,27.2c17.8,0,32.2,9.6,32.2,21.5c0,7.3-5.5,13.8-13.9,17.7c0.7,8.8,9.9,14.5,9.9,14.5
								c-14.2-0.5-19.3-7.1-21.2-11.2c-2.3,0.3-4.6,0.5-7,0.5c-17.8,0-32.2-9.6-32.2-21.5C86.8,36.9,101.3,27.2,119.1,27.2z"/>
						</g>
					</g>
					<g>
						
							<radialGradient id="SVGID_1_" cx="119.8178" cy="36.6825" r="22.9485" gradientTransform="matrix(1.0029 0 0 1.0029 -1.3505 0.3161)" gradientUnits="userSpaceOnUse">
							<stop  offset="1.226990e-02" style="stop-color:#FFFFFF"/>
							<stop  offset="0.5031" style="stop-color:#CB68A5"/>
							<stop  offset="0.5247" style="stop-color:#C763A2"/>
							<stop  offset="0.6514" style="stop-color:#B54A95"/>
							<stop  offset="0.7665" style="stop-color:#AA3A8D"/>
							<stop  offset="0.8589" style="stop-color:#A6358A"/>
						</radialGradient>
						<path class="st1" d="M119.3,29.1c-15.8,0-29,7.5-31.7,17.4c1.8-10.6,15.2-18.8,31.5-18.8c14.9,0,27.4,6.8,30.8,16
							C145.8,35.3,133.7,29.1,119.3,29.1z"/>
					</g>
				</g>
				<path class="st2" d="M95.6,43.6c-2.8,0-5.5,0.2-8.1,0.7c-0.4,1.4-0.6,2.8-0.6,4.3c0,11.9,14.4,21.5,32.2,21.5
					c2.4,0,4.8-0.2,7-0.5c0.2,0.4,0.3,0.7,0.6,1.1c0.7-1.8,1.1-3.7,1.1-5.6C127.8,53.2,113.4,43.6,95.6,43.6z"/>
			</g>
			<g>
				<g>
					<g>
						<g>
							<path class="st3" d="M63.2,27.2C45.4,27.2,31,36.9,31,48.7c0,7.3,5.5,13.8,13.9,17.7C44.2,75.2,35,80.9,35,80.9
								c14.2-0.5,19.3-7.1,21.2-11.2c2.3,0.3,4.6,0.5,7,0.5c17.8,0,32.2-9.6,32.2-21.5C95.4,36.9,81,27.2,63.2,27.2z"/>
						</g>
					</g>
					<g>
						
							<radialGradient id="SVGID_2_" cx="-5378.0684" cy="36.6825" r="22.9497" gradientTransform="matrix(-1.0029 0 0 1.0029 -5330.2012 0.3161)" gradientUnits="userSpaceOnUse">
							<stop  offset="7.361960e-02" style="stop-color:#FFFFFF"/>
							<stop  offset="0.5031" style="stop-color:#DDDB00"/>
							<stop  offset="0.5913" style="stop-color:#C1D10C"/>
							<stop  offset="0.6927" style="stop-color:#A8C816"/>
							<stop  offset="0.7849" style="stop-color:#98C21D"/>
							<stop  offset="0.8589" style="stop-color:#93C01F"/>
						</radialGradient>
						<path class="st4" d="M62.9,29.1c15.8,0,29,7.5,31.7,17.4c-1.8-10.6-15.2-18.8-31.5-18.8c-14.9,0-27.3,6.8-30.8,16
							C36.5,35.3,48.6,29.1,62.9,29.1z"/>
					</g>
				</g>
				<path class="st5" d="M86.7,43.6c2.8,0,5.5,0.2,8.1,0.7c0.4,1.4,0.6,2.8,0.6,4.3c0,11.9-14.4,21.5-32.2,21.5
					c-2.4,0-4.8-0.2-7-0.5c-0.2,0.4-0.3,0.7-0.6,1.1c-0.7-1.8-1.1-3.7-1.1-5.6C54.5,53.2,68.9,43.6,86.7,43.6z"/>
			</g>
		</g>
		<g>
			<g>
				<path class="st6" d="M91.1,42.7c-17.8,0-32.2,9.6-32.2,21.5c0,7.3,5.5,13.8,13.9,17.7c-0.7,8.8-9.9,14.5-9.9,14.5
					c14.2-0.5,19.3-7.1,21.2-11.2c2.3,0.3,4.6,0.5,7,0.5c17.8,0,32.2-9.6,32.2-21.5C123.4,52.3,108.9,42.7,91.1,42.7z"/>
			</g>
			<g>
				
					<radialGradient id="SVGID_3_" cx="90.9049" cy="38.5368" r="59.0728" gradientTransform="matrix(1.0029 0 0 1.0029 -1.3505 0.3161)" gradientUnits="userSpaceOnUse">
					<stop  offset="5.617980e-03" style="stop-color:#D0E9FA"/>
					<stop  offset="9.811929e-02" style="stop-color:#C8E4F8"/>
					<stop  offset="0.2388" style="stop-color:#B3D7F1"/>
					<stop  offset="0.4102" style="stop-color:#91C1E7"/>
					<stop  offset="0.6042" style="stop-color:#61A3D8"/>
					<stop  offset="0.6209" style="stop-color:#5DA0D7"/>
					<stop  offset="0.8055" style="stop-color:#4270B4"/>
					<stop  offset="1" style="stop-color:#23398C"/>
				</radialGradient>
				<path class="st7" d="M90.9,44.5c15.8,0,29,7.5,31.7,17.4c-1.8-10.6-15.2-18.8-31.5-18.8c-14.9,0-27.4,6.8-30.8,16
					C64.4,50.7,76.5,44.5,90.9,44.5z"/>
			</g>
		</g>
	</g>
	<g>
		<path class="st8" d="M164.5,28.2c0-0.4,0.3-0.7,0.7-0.7h15.3c0.4,0,0.7,0.3,0.7,0.7v3.1c0,0.4-0.3,0.7-0.7,0.7h-11.1V39h9.3
			c0.4,0,0.7,0.3,0.7,0.7v3.1c0,0.4-0.3,0.7-0.7,0.7h-9.3V53c0,0.4-0.3,0.7-0.7,0.7h-3.5c-0.4,0-0.7-0.3-0.7-0.7V28.2z"/>
		<path class="st8" d="M189.3,38.3c4.2,0,7.7,3.6,7.7,7.8c0,4.3-3.5,7.9-7.7,7.9c-4.2,0-7.7-3.6-7.7-7.9
			C181.6,41.9,185.1,38.3,189.3,38.3z M189.3,50c2,0,3.6-1.7,3.6-3.9c0-2.1-1.6-3.8-3.6-3.8c-2,0-3.6,1.7-3.6,3.8
			C185.7,48.3,187.3,50,189.3,50z"/>
		<path class="st8" d="M200,39.4c0-0.4,0.3-0.7,0.7-0.7h1.4c0.3,0,0.6,0.2,0.7,0.5l0.5,1.5c0.5-0.7,1.9-2.3,4.2-2.3
			c1.8,0,3.3,0.6,2.9,1.5l-1.4,2.4c-0.2,0.3-0.6,0.5-0.9,0.3c-0.1,0-0.7-0.2-1.1-0.2c-1.5,0-2.4,1-2.7,1.5V53c0,0.5-0.3,0.7-0.9,0.7
			h-2.9c-0.4,0-0.7-0.3-0.7-0.7V39.4z"/>
		<path class="st8" d="M218.8,38.3c4.2,0,7.7,3.6,7.7,7.8c0,4.3-3.5,7.9-7.7,7.9c-4.2,0-7.7-3.6-7.7-7.9
			C211.1,41.9,214.6,38.3,218.8,38.3z M218.8,50c2,0,3.6-1.7,3.6-3.9c0-2.1-1.6-3.8-3.6-3.8c-2,0-3.6,1.7-3.6,3.8
			C215.2,48.3,216.8,50,218.8,50z"/>
		<path class="st8" d="M228.7,51.9l1-2c0.2-0.4,0.5-0.4,0.9-0.3c0,0,1.7,0.9,3.4,0.9c0.8,0,1.3-0.3,1.3-0.9c0-0.7-0.5-1.1-2.5-1.9
			c-2.9-1.1-4.2-2.7-4.2-5c0-2.3,1.7-4.4,5.5-4.4c2.2,0,3.8,0.6,4.6,1.2c0.3,0.2,0.5,0.6,0.3,1l-0.9,1.9c-0.2,0.3-0.6,0.4-0.9,0.3
			c0,0-1.7-0.8-3.1-0.8c-0.9,0-1.3,0.4-1.3,0.9c0,0.7,0.7,0.9,2.1,1.5c2.9,1.1,5.1,2.4,5.1,5.3c0,2.5-2.2,4.6-6,4.6
			c-2.5,0-4.2-0.8-5-1.4C228.7,52.5,228.5,52.2,228.7,51.9z"/>
		<path class="st8" d="M248.4,28.4c-0.2-0.5,0.1-1,0.6-1h3.8c0.3,0,0.6,0.2,0.6,0.4l7.2,16.1h0.3l7.2-16.1c0.1-0.2,0.3-0.4,0.6-0.4
			h3.8c0.6,0,0.9,0.5,0.6,1l-11.6,25.3c-0.1,0.2-0.3,0.4-0.6,0.4h-0.4c-0.3,0-0.5-0.2-0.6-0.4L248.4,28.4z"/>
		<path class="st8" d="M278.5,38.3c3.9,0,7,2.9,7,7c0,0.3,0,0.8-0.1,1c0,0.4-0.4,0.6-0.7,0.6h-9.6c0.1,1.5,1.4,3.3,3.6,3.3
			c1.2,0,2.2-0.5,2.9-0.9c0.4-0.2,0.7-0.3,1,0l1.5,1.8c0.3,0.3,0.3,0.7,0,1c-1.2,1.2-3.2,2.1-5.6,2.1c-4.5,0-7.7-3.6-7.7-7.9
			C270.8,42,274,38.3,278.5,38.3z M281.1,44.3c-0.1-1.4-1.3-2.5-2.7-2.5c-1.5,0-2.7,1.1-2.9,2.5H281.1z"/>
		<path class="st8" d="M295.1,38.3c2.3,0,4.1,0.9,5.6,2.7c0.3,0.3,0.2,0.8-0.2,1l-1.7,1.7c-0.3,0.3-0.7,0.1-0.9-0.1
			c-0.6-0.7-1.5-1.2-2.6-1.2c-2,0-3.7,1.7-3.7,3.8c0,2.1,1.6,3.8,3.6,3.8c1.6,0,2.3-0.8,3-1.4c0.3-0.3,0.6-0.3,0.9-0.1l1.6,1.4
			c0.4,0.3,0.5,0.7,0.3,1.1c-1.3,2-3.3,3.1-5.9,3.1c-4.2,0-8-3.4-8-7.9C287.1,41.8,290.9,38.3,295.1,38.3z"/>
		<path class="st8" d="M303.6,30.8c0-1.4,1.1-2.6,2.6-2.6c1.5,0,2.6,1.2,2.6,2.6c0,1.4-1.2,2.6-2.6,2.6
			C304.7,33.4,303.6,32.2,303.6,30.8z M303.9,39.4c0-0.4,0.3-0.7,0.7-0.7h3.1c0.4,0,0.7,0.3,0.7,0.7V53c0,0.4-0.3,0.7-0.7,0.7h-3.1
			c-0.4,0-0.7-0.3-0.7-0.7V39.4z"/>
		<path class="st8" d="M312.6,39.4c0-0.4,0.3-0.7,0.7-0.7h1.4c0.3,0,0.5,0.2,0.6,0.4l0.5,1.4c0.6-0.6,2.4-2.2,5.3-2.2
			c4.8,0,6.7,3.6,6.7,7.5V53c0,0.4-0.3,0.7-0.7,0.7H324c-0.4,0-0.7-0.3-0.7-0.7v-7.4c0-2-1-3.2-2.8-3.2c-1.9,0-3.1,1.4-3.5,2.4V53
			c0,0.5-0.2,0.7-0.9,0.7h-2.8c-0.4,0-0.7-0.3-0.7-0.7V39.4z"/>
		<path class="st8" d="M336.6,44.2c1.5,0,2.7,0.4,2.7,0.4c0-1.9-0.6-2.6-2-2.6c-1.4,0-3.3,0.3-4.2,0.6c-0.5,0.1-0.8-0.2-0.9-0.7
			l-0.3-2c-0.1-0.6,0.2-0.8,0.5-0.9c0.3-0.1,2.7-0.7,5.1-0.7c4.7,0,5.8,2.4,5.8,6.5V53c0,0.4-0.3,0.7-0.7,0.7h-1.4
			c-0.3,0-0.4-0.1-0.6-0.5l-0.5-1c-0.9,0.8-2.2,1.9-4.6,1.9c-3,0-5.1-2-5.1-5.1C330.6,46.3,332.7,44.2,336.6,44.2z M336.7,50.9
			c1.2,0,2.4-1,2.6-1.5v-2.1c0,0-1-0.4-2.1-0.4c-1.5,0-2.4,0.8-2.4,2C334.7,50.1,335.5,50.9,336.7,50.9z"/>
		<path class="st8" d="M347.3,28.2c0-0.4,0.3-0.7,0.7-0.7h3.2c0.4,0,0.7,0.3,0.7,0.7V53c0,0.4-0.3,0.7-0.7,0.7H348
			c-0.4,0-0.7-0.3-0.7-0.7V28.2z"/>
		<path class="st8" d="M362.5,38.3c3.9,0,7,2.9,7,7c0,0.3,0,0.8-0.1,1c0,0.4-0.4,0.6-0.7,0.6h-9.6c0.1,1.5,1.4,3.3,3.6,3.3
			c1.2,0,2.3-0.5,2.9-0.9c0.4-0.2,0.7-0.3,1,0l1.5,1.8c0.3,0.3,0.3,0.7,0,1c-1.2,1.2-3.1,2.1-5.6,2.1c-4.5,0-7.7-3.6-7.7-7.9
			C354.9,42,358.1,38.3,362.5,38.3z M365.2,44.3c-0.1-1.4-1.3-2.5-2.7-2.5c-1.5,0-2.7,1.1-2.9,2.5H365.2z"/>
		<path class="st8" d="M371.5,51.9l1-2c0.2-0.4,0.5-0.4,0.9-0.3c0,0,1.7,0.9,3.4,0.9c0.7,0,1.3-0.3,1.3-0.9c0-0.7-0.5-1.1-2.5-1.9
			c-2.9-1.1-4.2-2.7-4.2-5c0-2.3,1.7-4.4,5.5-4.4c2.2,0,3.8,0.6,4.6,1.2c0.3,0.2,0.5,0.6,0.3,1l-0.9,1.9c-0.2,0.3-0.6,0.4-0.9,0.3
			c0,0-1.7-0.8-3.1-0.8c-0.9,0-1.3,0.4-1.3,0.9c0,0.7,0.7,0.9,2.1,1.5c2.9,1.1,5.1,2.4,5.1,5.3c0,2.5-2.2,4.6-6,4.6
			c-2.5,0-4.2-0.8-5-1.4C371.5,52.5,371.4,52.2,371.5,51.9z"/>
		<path class="st8" d="M394.7,28.2c0-0.4,0.3-0.7,0.7-0.7h8.6c4.5,0,7.9,3,7.9,6.9c0,2.9-2.4,5.1-4.1,6c2,0.6,4.9,2.7,4.9,6.1
			c0,4.2-3.6,7.2-8.2,7.2h-9.1c-0.4,0-0.7-0.3-0.7-0.7V28.2z M403.5,38.5c1.9,0,3.2-1.5,3.2-3.4c0-1.9-1.3-3.2-3.2-3.2h-4v6.6H403.5
			z M404.1,49.3c1.9,0,3.4-1.5,3.4-3.4c0-1.9-1.9-3.3-3.8-3.3h-4.1v6.7H404.1z"/>
		<path class="st8" d="M420.7,44.2c1.5,0,2.7,0.4,2.7,0.4c0-1.9-0.6-2.6-1.9-2.6c-1.4,0-3.3,0.3-4.2,0.6c-0.5,0.1-0.8-0.2-0.9-0.7
			l-0.3-2c-0.1-0.6,0.2-0.8,0.5-0.9c0.3-0.1,2.7-0.7,5.1-0.7c4.7,0,5.8,2.4,5.8,6.5V53c0,0.4-0.3,0.7-0.7,0.7h-1.4
			c-0.3,0-0.4-0.1-0.6-0.5l-0.4-1c-0.9,0.8-2.3,1.9-4.6,1.9c-3,0-5.1-2-5.1-5.1C414.7,46.3,416.9,44.2,420.7,44.2z M420.8,50.9
			c1.2,0,2.4-1,2.6-1.5v-2.1c0,0-1-0.4-2.1-0.4c-1.5,0-2.4,0.8-2.4,2C418.9,50.1,419.6,50.9,420.8,50.9z"/>
		<path class="st8" d="M431.5,39.4c0-0.4,0.3-0.7,0.7-0.7h1.4c0.3,0,0.6,0.2,0.7,0.5l0.5,1.5c0.5-0.7,1.9-2.3,4.2-2.3
			c1.8,0,3.3,0.6,2.9,1.5l-1.4,2.4c-0.2,0.3-0.6,0.5-0.9,0.3c-0.1,0-0.7-0.2-1.1-0.2c-1.5,0-2.4,1-2.7,1.5V53c0,0.5-0.3,0.7-0.9,0.7
			h-2.9c-0.4,0-0.7-0.3-0.7-0.7V39.4z"/>
		<path class="st8" d="M443.9,39.4c0-0.4,0.3-0.7,0.7-0.7h1.4c0.3,0,0.6,0.2,0.7,0.5l0.5,1.5c0.5-0.7,1.9-2.3,4.2-2.3
			c1.8,0,3.3,0.6,2.9,1.5l-1.4,2.4c-0.2,0.3-0.6,0.5-0.9,0.3c-0.1,0-0.7-0.2-1.1-0.2c-1.5,0-2.4,1-2.7,1.5V53c0,0.5-0.3,0.7-0.9,0.7
			h-2.9c-0.4,0-0.7-0.3-0.7-0.7V39.4z"/>
		<path class="st8" d="M456,30.8c0-1.4,1.1-2.6,2.6-2.6c1.5,0,2.6,1.2,2.6,2.6c0,1.4-1.2,2.6-2.6,2.6C457.1,33.4,456,32.2,456,30.8z
			 M456.3,39.4c0-0.4,0.3-0.7,0.7-0.7h3.1c0.4,0,0.7,0.3,0.7,0.7V53c0,0.4-0.3,0.7-0.7,0.7H457c-0.4,0-0.7-0.3-0.7-0.7V39.4z"/>
		<path class="st8" d="M469.9,44.2c1.5,0,2.7,0.4,2.7,0.4c0-1.9-0.6-2.6-1.9-2.6c-1.4,0-3.3,0.3-4.2,0.6c-0.5,0.1-0.8-0.2-0.9-0.7
			l-0.3-2c-0.1-0.6,0.2-0.8,0.5-0.9c0.3-0.1,2.7-0.7,5.1-0.7c4.7,0,5.8,2.4,5.8,6.5V53c0,0.4-0.3,0.7-0.7,0.7h-1.4
			c-0.3,0-0.5-0.1-0.6-0.5l-0.4-1c-0.9,0.8-2.3,1.9-4.6,1.9c-3,0-5.1-2-5.1-5.1C463.9,46.3,466.1,44.2,469.9,44.2z M470,50.9
			c1.2,0,2.4-1,2.6-1.5v-2.1c0,0-1-0.4-2.1-0.4c-1.5,0-2.4,0.8-2.4,2C468,50.1,468.8,50.9,470,50.9z"/>
		<path class="st8" d="M480.6,28.2c0-0.4,0.3-0.7,0.7-0.7h3.1c0.4,0,0.7,0.3,0.7,0.7V53c0,0.4-0.3,0.7-0.7,0.7h-3.1
			c-0.4,0-0.7-0.3-0.7-0.7V28.2z"/>
		<path class="st8" d="M495.8,38.3c3.9,0,7,2.9,7,7c0,0.3,0,0.8-0.1,1c0,0.4-0.4,0.6-0.7,0.6h-9.6c0.1,1.5,1.4,3.3,3.6,3.3
			c1.2,0,2.3-0.5,2.9-0.9c0.4-0.2,0.7-0.3,1,0l1.5,1.8c0.3,0.3,0.3,0.7,0,1c-1.2,1.2-3.1,2.1-5.6,2.1c-4.5,0-7.7-3.6-7.7-7.9
			C488.2,42,491.4,38.3,495.8,38.3z M498.5,44.3c-0.1-1.4-1.3-2.5-2.7-2.5c-1.5,0-2.7,1.1-2.9,2.5H498.5z"/>
		<path class="st8" d="M504.8,51.9l1-2c0.1-0.4,0.5-0.4,0.9-0.3c0,0,1.7,0.9,3.4,0.9c0.7,0,1.3-0.3,1.3-0.9c0-0.7-0.5-1.1-2.5-1.9
			c-2.9-1.1-4.2-2.7-4.2-5c0-2.3,1.7-4.4,5.5-4.4c2.2,0,3.8,0.6,4.6,1.2c0.3,0.2,0.5,0.6,0.3,1l-0.9,1.9c-0.2,0.3-0.6,0.4-0.9,0.3
			c0,0-1.7-0.8-3.1-0.8c-0.9,0-1.3,0.4-1.3,0.9c0,0.7,0.7,0.9,2.1,1.5c2.9,1.1,5.1,2.4,5.1,5.3c0,2.5-2.2,4.6-6,4.6
			c-2.5,0-4.2-0.8-5-1.4C504.8,52.5,504.7,52.2,504.8,51.9z"/>
		<path class="st8" d="M164.3,60.7c-0.2-0.5,0.1-1,0.6-1h1.5c0.3,0,0.6,0.2,0.6,0.4l9.3,21h0.2l9.3-21c0.1-0.2,0.3-0.4,0.6-0.4h1.5
			c0.6,0,0.9,0.5,0.6,1l-11.4,25.2c-0.1,0.2-0.3,0.4-0.6,0.4h-0.4c-0.3,0-0.5-0.2-0.6-0.4L164.3,60.7z"/>
		<path class="st8" d="M190.4,62.2c0-1,0.8-1.8,1.8-1.8c1,0,1.8,0.8,1.8,1.8c0,1-0.8,1.8-1.8,1.8C191.2,64,190.4,63.2,190.4,62.2z
			 M190.9,71.7c0-0.4,0.3-0.7,0.7-0.7h1.2c0.4,0,0.7,0.3,0.7,0.7v13.6c0,0.4-0.3,0.7-0.7,0.7h-1.2c-0.4,0-0.7-0.3-0.7-0.7V71.7z"/>
		<path class="st8" d="M205.1,70.6c2.2,0,4,0.9,5.4,2.6c0.3,0.3,0.2,0.8-0.2,1.1l-0.7,0.6c-0.6,0.5-0.7,0.1-1.1-0.2
			c-0.8-0.9-2-1.6-3.4-1.6c-2.8,0-5,2.3-5,5.3c0,3,2.1,5.4,5,5.4c2.2,0,3.1-1.1,4-2c0.5-0.5,0.7-0.4,1.1-0.1l0.4,0.3
			c0.4,0.3,0.5,0.7,0.3,1c-1.1,1.8-3.2,3.2-5.7,3.2c-4.2,0-7.7-3.3-7.7-7.8C197.3,74.1,201,70.6,205.1,70.6z"/>
		<path class="st8" d="M220.9,70.6c3.9,0,6.8,2.9,6.8,6.9c0,0.3,0,0.8-0.1,1c0,0.4-0.3,0.6-0.7,0.6h-10.8c0.2,2.5,2.4,4.9,5,4.9
			c1.6,0,2.8-0.6,3.7-1.1c0.5-0.3,0.7-0.5,1-0.1c0.2,0.3,0.4,0.6,0.6,0.9c0.3,0.3,0.4,0.6-0.2,1c-0.9,0.7-2.9,1.7-5.5,1.7
			c-4.5,0-7.3-3.6-7.3-7.9C213.6,74.2,216.4,70.6,220.9,70.6z M225.1,77c-0.1-2.2-1.9-4.1-4.2-4.1c-2.5,0-4.5,1.8-4.7,4.1H225.1z"/>
		<path class="st8" d="M231.4,71.7c0-0.4,0.3-0.7,0.7-0.7h0.7c0.3,0,0.5,0.1,0.6,0.4l0.3,1.2c0,0,2.1-2,5.3-2c4.3,0,5.8,2.9,5.8,6.8
			v7.9c0,0.4-0.3,0.7-0.7,0.7h-1.2c-0.4,0-0.7-0.3-0.7-0.7v-7.9c0-2.9-1.3-4.2-3.4-4.2c-2.8,0-4.8,2.1-4.8,2.1v10
			c0,0.4-0.3,0.7-0.7,0.7h-1.2c-0.4,0-0.7-0.3-0.7-0.7V71.7z"/>
		<path class="st8" d="M250.6,73.2h-1.9c-0.4,0-0.7-0.3-0.7-0.7v-0.8c0-0.4,0.3-0.7,0.7-0.7h1.9v-4.2c0-0.4,0.3-0.7,0.7-0.7l1.2-0.1
			c0.4,0,0.7,0.3,0.7,0.7v4.2h4.4c0.4,0,0.7,1.5,0.7,1.5c0,0.4-0.3,0.7-0.7,0.7h-4.4V82c0,1.5,0.4,1.8,1.2,1.8
			c0.9,0,2.3-0.6,2.7-0.8c0.6-0.3,0.7-0.1,0.9,0.2l0.6,0.9c0.3,0.5,0.2,0.7-0.3,0.9c-0.5,0.3-2.6,1.3-4.3,1.3c-3,0-3.5-1.8-3.5-4.1
			V73.2z"/>
		<path class="st8" d="M268.3,70.6c3.9,0,6.8,2.9,6.8,6.9c0,0.3,0,0.8-0.1,1c0,0.4-0.3,0.6-0.7,0.6h-10.8c0.2,2.5,2.4,4.9,5,4.9
			c1.6,0,2.8-0.6,3.7-1.1c0.5-0.3,0.8-0.5,1.1-0.1c0.2,0.3,0.4,0.6,0.6,0.9c0.3,0.3,0.4,0.6-0.2,1c-0.9,0.7-2.9,1.7-5.5,1.7
			c-4.5,0-7.4-3.6-7.4-7.9C261,74.2,263.8,70.6,268.3,70.6z M272.5,77c-0.1-2.2-1.9-4.1-4.2-4.1c-2.5,0-4.5,1.8-4.7,4.1H272.5z"/>
		<path class="st8" d="M288,60.4c0-0.4,0.3-0.7,0.7-0.7h1.5c0.4,0,0.7,0.3,0.7,0.7v23h10.8c0.4,0,0.7,0.3,0.7,0.7v1.1
			c0,0.4-0.3,0.7-0.7,0.7h-13c-0.4,0-0.7-0.3-0.7-0.7V60.4z"/>
		<path class="st8" d="M311.1,70.6c4.2,0,7.5,3.6,7.5,7.8c0,4.3-3.3,7.9-7.5,7.9c-4.2,0-7.5-3.6-7.5-7.9
			C303.6,74.2,306.9,70.6,311.1,70.6z M311.1,83.9c2.7,0,4.9-2.4,4.9-5.5c0-3-2.1-5.4-4.9-5.4c-2.7,0-4.9,2.4-4.9,5.4
			C306.2,81.5,308.4,83.9,311.1,83.9z M307.4,64.1c-0.1-0.3,0-0.6,0.2-0.7l5.6-3.2c0.2-0.1,0.8-0.2,1,0.1l0.7,1.4
			c0.2,0.3,0.1,0.7-0.2,0.8l-6,2.5c-0.5,0.2-0.7,0.2-0.9-0.1L307.4,64.1z"/>
		<path class="st8" d="M325.1,96.5c0,0.4-0.3,0.7-0.7,0.7h-1.2c-0.4,0-0.7-0.3-0.7-0.7V71.7c0-0.4,0.3-0.7,0.7-0.7h0.8
			c0.3,0,0.5,0.1,0.6,0.5l0.3,0.7c0,0,1.6-1.6,4.3-1.6c4.1,0,7.1,3.6,7.1,7.9c0,4.4-3.1,7.8-7.2,7.8c-2.5,0-4-1.2-4-1.2V96.5z
			 M328.7,83.8c2.9,0,4.9-2.4,4.9-5.4c0-2.9-1.7-5.5-4.7-5.5c-2.4,0-3.8,1.8-3.8,1.8v7.7C325.1,82.5,326.7,83.8,328.7,83.8z"/>
		<path class="st8" d="M346.4,70.6c3.9,0,6.8,2.9,6.8,6.9c0,0.3,0,0.8-0.1,1c0,0.4-0.3,0.6-0.7,0.6h-10.8c0.2,2.5,2.4,4.9,5,4.9
			c1.6,0,2.9-0.6,3.7-1.1c0.5-0.3,0.8-0.5,1-0.1c0.2,0.3,0.4,0.6,0.6,0.9c0.3,0.3,0.4,0.6-0.2,1c-0.9,0.7-2.9,1.7-5.5,1.7
			c-4.5,0-7.4-3.6-7.4-7.9C339.1,74.2,341.9,70.6,346.4,70.6z M350.6,77c-0.1-2.2-1.9-4.1-4.2-4.1c-2.5,0-4.5,1.8-4.7,4.1H350.6z"/>
		<path class="st8" d="M355.6,84.9l7.4-11.4v-0.1h-6.3c-0.4,0-0.7-0.3-0.7-0.7v-0.9c0-0.4,0.3-0.7,0.7-0.7h9.4c0.6,0,0.9,0.5,0.6,1
			l-7.2,11.5v0.1h5.8c0.4,0,0.7,0.3,0.7,0.7v0.9c0,0.4-0.3,0.7-0.7,0.7h-9c-0.4,0-0.7-0.3-0.7-0.7V84.9z"/>
	</g>
</g>
</svg>
