<?xml version="1.0" encoding="UTF-8" standalone="no"?>
<!-- Created with Inkscape (http://www.inkscape.org/) -->

<svg
   xmlns:dc="http://purl.org/dc/elements/1.1/"
   xmlns:cc="http://creativecommons.org/ns#"
   xmlns:rdf="http://www.w3.org/1999/02/22-rdf-syntax-ns#"
   xmlns:svg="http://www.w3.org/2000/svg"
   xmlns="http://www.w3.org/2000/svg"
   xmlns:sodipodi="http://sodipodi.sourceforge.net/DTD/sodipodi-0.dtd"
   xmlns:inkscape="http://www.inkscape.org/namespaces/inkscape"
   width="584.29559"
   height="103.83117"
   viewBox="0 0 584.2956 103.83118"
   id="svg4034"
   version="1.1"
   inkscape:version="0.91 r13725"
   sodipodi:docname="logo.svg">
  <defs
     id="defs4036">
    <clipPath
       clipPathUnits="userSpaceOnUse"
       id="clipPath3452">
      <path
         d="m 100.833,142.774 c 8.165,16.539 31.815,28.493 59.711,28.493 l 0,0 c 30.834,0 56.47,-14.606 61.759,-33.869 l 0,0 c -3.455,20.595 -29.654,36.606 -61.454,36.606 l 0,0 c -28.985,0 -53.312,-13.29 -60.016,-31.23"
         id="path3454"
         inkscape:connector-curvature="0" />
    </clipPath>
    <radialGradient
       fx="0"
       fy="0"
       cx="0"
       cy="0"
       r="1"
       gradientUnits="userSpaceOnUse"
       gradientTransform="matrix(115.4551,0,0,-115.4551,158.52295,182.10937)"
       spreadMethod="pad"
       id="radialGradient3460">
      <stop
         style="stop-opacity:1;stop-color:#d1eafb"
         offset="0"
         id="stop3462" />
      <stop
         style="stop-opacity:1;stop-color:#d1eafb"
         offset="0.00561798"
         id="stop3464" />
      <stop
         style="stop-opacity:1;stop-color:#d1eafb"
         offset="0.19091519"
         id="stop3466" />
      <stop
         style="stop-opacity:1;stop-color:#5ea2d8"
         offset="0.620879"
         id="stop3468" />
      <stop
         style="stop-opacity:1;stop-color:#5ea2d8"
         offset="0.64178446"
         id="stop3470" />
      <stop
         style="stop-opacity:1;stop-color:#22398d"
         offset="1"
         id="stop3472" />
    </radialGradient>
    <clipPath
       clipPathUnits="userSpaceOnUse"
       id="clipPath3436">
      <path
         d="m 0,595.28 841.89,0 L 841.89,0 0,0 0,595.28 Z"
         id="path3438"
         inkscape:connector-curvature="0" />
    </clipPath>
    <clipPath
       clipPathUnits="userSpaceOnUse"
       id="clipPath3408">
      <path
         d="m 46.426,172.809 c 8.164,16.534 31.807,28.494 59.704,28.494 l 0,0 c 30.848,0 56.485,-14.607 61.772,-33.863 l 0,0 c -3.461,20.592 -29.652,36.586 -61.468,36.586 l 0,0 c -28.977,0 -53.296,-13.285 -60.008,-31.217"
         id="path3410"
         inkscape:connector-curvature="0" />
    </clipPath>
    <radialGradient
       fx="0"
       fy="0"
       cx="0"
       cy="0"
       r="1"
       gradientUnits="userSpaceOnUse"
       gradientTransform="matrix(-44.853977,0,0,-44.853977,107.16406,185.7334)"
       spreadMethod="pad"
       id="radialGradient3416">
      <stop
         style="stop-opacity:1;stop-color:#ffffff"
         offset="0"
         id="stop3418" />
      <stop
         style="stop-opacity:1;stop-color:#ffffff"
         offset="0.0736196"
         id="stop3420" />
      <stop
         style="stop-opacity:1;stop-color:#dedc00"
         offset="0.503067"
         id="stop3422" />
      <stop
         style="stop-opacity:1;stop-color:#94c11f"
         offset="0.71581849"
         id="stop3424" />
      <stop
         style="stop-opacity:1;stop-color:#94c11f"
         offset="0.858896"
         id="stop3426" />
      <stop
         style="stop-opacity:1;stop-color:#94c11f"
         offset="1"
         id="stop3428" />
    </radialGradient>
    <clipPath
       clipPathUnits="userSpaceOnUse"
       id="clipPath3392">
      <path
         d="m 0,595.28 841.89,0 L 841.89,0 0,0 0,595.28 Z"
         id="path3394"
         inkscape:connector-curvature="0" />
    </clipPath>
    <clipPath
       clipPathUnits="userSpaceOnUse"
       id="clipPath3364">
      <path
         d="m 154.298,167.44 c 5.287,19.256 30.924,33.863 61.757,33.863 l 0,0 c 27.896,0 51.547,-11.96 59.711,-28.494 l 0,0 c -6.704,17.932 -31.031,31.217 -60.008,31.217 l 0,0 c -31.807,0 -58.007,-15.994 -61.46,-36.586"
         id="path3366"
         inkscape:connector-curvature="0" />
    </clipPath>
    <radialGradient
       fx="0"
       fy="0"
       cx="0"
       cy="0"
       r="1"
       gradientUnits="userSpaceOnUse"
       gradientTransform="matrix(44.851658,0,0,-44.851658,215.03125,185.7334)"
       spreadMethod="pad"
       id="radialGradient3372">
      <stop
         style="stop-opacity:1;stop-color:#ffffff"
         offset="0"
         id="stop3374" />
      <stop
         style="stop-opacity:1;stop-color:#ffffff"
         offset="0.0122699"
         id="stop3376" />
      <stop
         style="stop-opacity:1;stop-color:#cc69a6"
         offset="0.503067"
         id="stop3378" />
      <stop
         style="stop-opacity:1;stop-color:#a7368b"
         offset="0.71581849"
         id="stop3380" />
      <stop
         style="stop-opacity:1;stop-color:#a7368b"
         offset="0.858896"
         id="stop3382" />
      <stop
         style="stop-opacity:1;stop-color:#a7368b"
         offset="1"
         id="stop3384" />
    </radialGradient>
    <clipPath
       clipPathUnits="userSpaceOnUse"
       id="clipPath3352">
      <path
         d="m 0,595.28 841.89,0 L 841.89,0 0,0 0,595.28 Z"
         id="path3354"
         inkscape:connector-curvature="0" />
    </clipPath>
  </defs>
  <sodipodi:namedview
     id="base"
     pagecolor="#ffffff"
     bordercolor="#666666"
     borderopacity="1.0"
     inkscape:pageopacity="0.0"
     inkscape:pageshadow="2"
     inkscape:zoom="0.64"
     inkscape:cx="371.56321"
     inkscape:cy="4.0721103"
     inkscape:document-units="px"
     inkscape:current-layer="layer1"
     showgrid="false"
     inkscape:window-width="1301"
     inkscape:window-height="744"
     inkscape:window-x="65"
     inkscape:window-y="24"
     inkscape:window-maximized="1"
     inkscape:snap-grids="false"
     inkscape:snap-to-guides="false"
     units="px"
     fit-margin-top="0.5"
     fit-margin-left="0.5"
     fit-margin-right="0.5"
     fit-margin-bottom="0.5" />
  <metadata
     id="metadata4039">
    <rdf:RDF>
      <cc:Work
         rdf:about="">
        <dc:format>image/svg+xml</dc:format>
        <dc:type
           rdf:resource="http://purl.org/dc/dcmitype/StillImage" />
        <dc:title></dc:title>
      </cc:Work>
    </rdf:RDF>
  </metadata>
  <g
     inkscape:label="Layer 1"
     inkscape:groupmode="layer"
     id="layer1"
     transform="translate(-79.280757,-454.73232)">
    <g
       id="g4739"
       transform="matrix(1.1605067,0,0,1.1605067,-59.616781,-81.320388)">
      <g
         id="g3348"
         transform="matrix(0.65853662,0,0,-0.65853662,91.208434,597.30365)">
        <g
           clip-path="url(#clipPath3352)"
           id="g3350">
          <g
             transform="translate(215.5073,204.9395)"
             id="g3356">
            <path
               inkscape:connector-curvature="0"
               id="path3358"
               style="fill:#8d1d81;fill-opacity:1;fill-rule:nonzero;stroke:none"
               d="m 0,0 c 34.684,0 62.792,-18.734 62.792,-41.863 0,-14.279 -10.729,-26.881 -27.088,-34.429 1.392,-17.106 19.275,-28.231 19.275,-28.231 -27.729,0.974 -37.705,13.757 -41.252,21.808 C 9.307,-83.369 4.71,-83.723 0,-83.723 c -34.684,0 -62.793,18.745 -62.793,41.86 C -62.793,-18.734 -34.684,0 0,0" />
          </g>
        </g>
      </g>
      <g
         id="g3360"
         transform="matrix(0.65853662,0,0,-0.65853662,91.208434,597.30365)">
        <g
           clip-path="url(#clipPath3364)"
           id="g3362">
          <g
             id="g3368">
            <g
               id="g3370">
              <path
                 inkscape:connector-curvature="0"
                 id="path3386"
                 style="fill:url(#radialGradient3372);stroke:none"
                 d="m 154.298,167.44 c 5.287,19.256 30.924,33.863 61.757,33.863 l 0,0 c 27.896,0 51.547,-11.96 59.711,-28.494 l 0,0 c -6.704,17.932 -31.031,31.217 -60.008,31.217 l 0,0 c -31.807,0 -58.007,-15.994 -61.46,-36.586" />
            </g>
          </g>
        </g>
      </g>
      <g
         id="g3388"
         transform="matrix(0.65853662,0,0,-0.65853662,91.208434,597.30365)">
        <g
           clip-path="url(#clipPath3392)"
           id="g3390">
          <g
             transform="translate(169.6982,173.0898)"
             id="g3396">
            <path
               inkscape:connector-curvature="0"
               id="path3398"
               style="fill:#5c2483;fill-opacity:1;fill-rule:nonzero;stroke:none"
               d="m 0,0 c -5.417,0 -10.698,-0.464 -15.728,-1.327 -0.822,-2.705 -1.256,-5.51 -1.256,-8.39 0,-23.109 28.109,-41.856 62.793,-41.856 4.711,0 9.307,0.358 13.727,1.009 0.305,-0.708 0.67,-1.457 1.096,-2.23 1.408,3.492 2.153,7.148 2.153,10.931 C 62.785,-18.742 34.684,0 0,0" />
          </g>
          <g
             transform="translate(106.6924,204.9395)"
             id="g3400">
            <path
               inkscape:connector-curvature="0"
               id="path3402"
               style="fill:#76b82a;fill-opacity:1;fill-rule:nonzero;stroke:none"
               d="m 0,0 c -34.684,0 -62.793,-18.734 -62.793,-41.863 0,-14.279 10.722,-26.881 27.09,-34.429 -1.408,-17.106 -19.275,-28.231 -19.275,-28.231 27.729,0.974 37.705,13.757 41.251,21.808 4.414,-0.654 9.01,-1.008 13.727,-1.008 34.684,0 62.793,18.745 62.793,41.86 C 62.793,-18.734 34.684,0 0,0" />
          </g>
        </g>
      </g>
      <g
         id="g3404"
         transform="matrix(0.65853662,0,0,-0.65853662,91.208434,597.30365)">
        <g
           clip-path="url(#clipPath3408)"
           id="g3406">
          <g
             id="g3412">
            <g
               id="g3414">
              <path
                 inkscape:connector-curvature="0"
                 id="path3430"
                 style="fill:url(#radialGradient3416);stroke:none"
                 d="m 46.426,172.809 c 8.164,16.534 31.807,28.494 59.704,28.494 l 0,0 c 30.848,0 56.485,-14.607 61.772,-33.863 l 0,0 c -3.461,20.592 -29.652,36.586 -61.468,36.586 l 0,0 c -28.977,0 -53.296,-13.285 -60.008,-31.217" />
            </g>
          </g>
        </g>
      </g>
      <g
         id="g3432"
         transform="matrix(0.65853662,0,0,-0.65853662,91.208434,597.30365)">
        <g
           clip-path="url(#clipPath3436)"
           id="g3434">
          <g
             transform="translate(152.5015,173.0898)"
             id="g3440">
            <path
               inkscape:connector-curvature="0"
               id="path3442"
               style="fill:#459d35;fill-opacity:1;fill-rule:nonzero;stroke:none"
               d="m 0,0 c 5.426,0 10.691,-0.464 15.721,-1.327 0.822,-2.705 1.263,-5.51 1.263,-8.39 0,-23.109 -28.109,-41.856 -62.793,-41.856 -4.717,0 -9.314,0.358 -13.727,1.009 -0.319,-0.708 -0.677,-1.457 -1.096,-2.23 -1.408,3.492 -2.169,7.148 -2.169,10.931 C -62.801,-18.742 -34.684,0 0,0" />
          </g>
          <g
             transform="translate(161.1001,174.9043)"
             id="g3444">
            <path
               inkscape:connector-curvature="0"
               id="path3446"
               style="fill:#0099c4;fill-opacity:1;fill-rule:nonzero;stroke:none"
               d="m 0,0 c -34.676,0 -62.793,-18.737 -62.793,-41.854 0,-14.281 10.722,-26.885 27.09,-34.437 -1.393,-17.104 -19.275,-28.228 -19.275,-28.228 27.736,0.967 37.705,13.751 41.25,21.808 4.422,-0.658 9.01,-1.003 13.728,-1.003 34.676,0 62.793,18.734 62.793,41.86 C 62.793,-18.737 34.676,0 0,0" />
          </g>
        </g>
      </g>
      <g
         id="g3448"
         transform="matrix(0.65853662,0,0,-0.65853662,91.208434,597.30365)">
        <g
           clip-path="url(#clipPath3452)"
           id="g3450">
          <g
             id="g3456">
            <g
               id="g3458">
              <path
                 inkscape:connector-curvature="0"
                 id="path3474"
                 style="fill:url(#radialGradient3460);stroke:none"
                 d="m 100.833,142.774 c 8.165,16.539 31.815,28.493 59.711,28.493 l 0,0 c 30.834,0 56.47,-14.606 61.759,-33.869 l 0,0 c -3.455,20.595 -29.654,36.606 -61.454,36.606 l 0,0 c -28.985,0 -53.312,-13.29 -60.016,-31.23" />
            </g>
          </g>
        </g>
      </g>
      <g
         transform="matrix(0.65853662,0,0,-0.65853662,283.77026,471.67943)"
         id="g3484">
        <path
           inkscape:connector-curvature="0"
           id="path3486"
           style="fill:#4a4949;fill-opacity:1;fill-rule:nonzero;stroke:none"
           d="m 0,0 c 0,0.556 0.448,1.05 1.049,1.05 l 22.357,0 c 0.609,0 1.05,-0.494 1.05,-1.05 l 0,-4.505 c 0,-0.547 -0.441,-1.035 -1.05,-1.035 l -16.253,0 0,-10.332 13.567,0 c 0.547,0 1.042,-0.491 1.042,-1.039 l 0,-4.51 c 0,-0.547 -0.495,-1.049 -1.042,-1.049 l -13.567,0 0,-13.896 c 0,-0.547 -0.502,-1.041 -1.05,-1.041 l -5.054,0 C 0.448,-37.407 0,-36.913 0,-36.366 L 0,0 Z" />
      </g>
      <g
         transform="matrix(0.65853662,0,0,-0.65853662,307.72776,492.77321)"
         id="g3488">
        <path
           inkscape:connector-curvature="0"
           id="path3490"
           style="fill:#4a4949;fill-opacity:1;fill-rule:nonzero;stroke:none"
           d="m 0,0 c 2.916,0 5.273,2.53 5.273,5.661 0,3.077 -2.357,5.556 -5.273,5.556 -2.967,0 -5.28,-2.479 -5.28,-5.556 C -5.28,2.53 -2.967,0 0,0 m 0,17.146 c 6.209,0 11.262,-5.271 11.262,-11.485 0,-6.316 -5.053,-11.589 -11.262,-11.589 -6.201,0 -11.261,5.273 -11.261,11.589 0,6.214 5.06,11.485 11.261,11.485" />
      </g>
      <g
         transform="matrix(0.65853662,0,0,-0.65853662,318.00033,482.53047)"
         id="g3492">
        <path
           inkscape:connector-curvature="0"
           id="path3494"
           style="fill:#4a4949;fill-opacity:1;fill-rule:nonzero;stroke:none"
           d="m 0,0 c 0,0.605 0.495,1.035 1.05,1.035 l 2.085,0 c 0.495,0 0.83,-0.266 0.99,-0.705 l 0.776,-2.142 c 0.76,1.092 2.8,3.405 6.202,3.405 2.579,0 4.892,-0.824 4.23,-2.198 l -2.032,-3.573 c -0.273,-0.49 -0.828,-0.708 -1.262,-0.49 -0.168,0.056 -0.997,0.331 -1.599,0.331 -2.199,0 -3.507,-1.489 -3.895,-2.257 l 0,-13.295 c 0,-0.767 -0.495,-1.041 -1.264,-1.041 l -4.231,0 C 0.495,-20.93 0,-20.436 0,-19.889 L 0,0 Z" />
      </g>
      <g
         transform="matrix(0.65853662,0,0,-0.65853662,336.17088,492.77321)"
         id="g3496">
        <path
           inkscape:connector-curvature="0"
           id="path3498"
           style="fill:#4a4949;fill-opacity:1;fill-rule:nonzero;stroke:none"
           d="m 0,0 c 2.907,0 5.265,2.53 5.265,5.661 0,3.077 -2.358,5.556 -5.265,5.556 -2.967,0 -5.28,-2.479 -5.28,-5.556 C -5.28,2.53 -2.967,0 0,0 m 0,17.146 c 6.209,0 11.262,-5.271 11.262,-11.485 0,-6.316 -5.053,-11.589 -11.262,-11.589 -6.209,0 -11.27,5.273 -11.27,11.589 0,6.214 5.061,11.485 11.27,11.485" />
      </g>
      <g
         transform="matrix(0.65853662,0,0,-0.65853662,345.64695,494.58544)"
         id="g3500">
        <path
           inkscape:connector-curvature="0"
           id="path3502"
           style="fill:#4a4949;fill-opacity:1;fill-rule:nonzero;stroke:none"
           d="m 0,0 1.483,2.977 c 0.221,0.55 0.769,0.658 1.263,0.384 0,0 2.474,-1.317 5,-1.317 1.104,0 1.872,0.434 1.872,1.373 0,0.985 -0.768,1.595 -3.683,2.748 -4.231,1.65 -6.21,3.898 -6.21,7.255 0,3.341 2.474,6.478 8.074,6.478 3.25,0 5.608,-0.934 6.757,-1.707 0.495,-0.319 0.777,-0.932 0.495,-1.479 l -1.362,-2.797 c -0.282,-0.495 -0.891,-0.553 -1.332,-0.392 0,0 -2.465,1.153 -4.558,1.153 -1.316,0 -1.864,-0.548 -1.864,-1.256 0,-0.993 0.982,-1.323 3.021,-2.146 4.231,-1.654 7.419,-3.459 7.419,-7.747 0,-3.632 -3.188,-6.703 -8.736,-6.703 -3.629,0 -6.156,1.156 -7.312,2.031 C 0,-0.866 -0.221,-0.433 0,0" />
      </g>
      <g
         transform="matrix(0.65853662,0,0,-0.65853662,364.71883,471.93026)"
         id="g3504">
        <path
           inkscape:connector-curvature="0"
           id="path3506"
           style="fill:#4a4949;fill-opacity:1;fill-rule:nonzero;stroke:none"
           d="m 0,0 c -0.334,0.717 0.107,1.431 0.929,1.431 l 5.601,0 c 0.502,0 0.829,-0.331 0.942,-0.605 l 10.555,-23.623 0.38,0 10.54,23.623 c 0.113,0.274 0.448,0.605 0.936,0.605 l 5.601,0 c 0.821,0 1.269,-0.714 0.934,-1.431 L 19.39,-36.978 c -0.161,-0.327 -0.434,-0.6 -0.93,-0.6 l -0.554,0 c -0.495,0 -0.769,0.273 -0.93,0.6 L 0,0 Z" />
      </g>
      <g
         transform="matrix(0.65853662,0,0,-0.65853662,396.23369,487.26633)"
         id="g3508">
        <path
           inkscape:connector-curvature="0"
           id="path3510"
           style="fill:#4a4949;fill-opacity:1;fill-rule:nonzero;stroke:none"
           d="M 0,0 C -0.168,2.032 -1.926,3.729 -4.011,3.729 -6.21,3.729 -8.021,2.082 -8.294,0 L 0,0 Z M -3.852,8.784 C 1.818,8.784 6.43,4.494 6.43,-1.434 6.43,-1.818 6.361,-2.533 6.315,-2.918 6.263,-3.467 5.76,-3.854 5.265,-3.854 l -14.054,0 c 0.159,-2.249 2.085,-4.783 5.267,-4.783 1.71,0 3.293,0.662 4.291,1.378 0.554,0.33 1.049,0.442 1.43,0 l 2.252,-2.579 c 0.381,-0.385 0.495,-0.994 -0.053,-1.431 -1.811,-1.702 -4.627,-3.021 -8.187,-3.021 -6.59,0 -11.263,5.22 -11.263,11.531 0,6.209 4.673,11.543 11.2,11.543" />
      </g>
      <g
         transform="matrix(0.65853662,0,0,-0.65853662,409.72856,481.48162)"
         id="g3512">
        <path
           inkscape:connector-curvature="0"
           id="path3514"
           style="fill:#4a4949;fill-opacity:1;fill-rule:nonzero;stroke:none"
           d="M 0,0 C 3.401,0 6.041,-1.368 8.142,-3.903 8.516,-4.397 8.401,-5.056 7.859,-5.437 L 5.334,-7.855 C 4.832,-8.293 4.337,-8.019 3.949,-7.696 3.081,-6.702 1.704,-5.93 0.167,-5.93 c -2.967,0 -5.387,-2.53 -5.387,-5.613 0,-3.131 2.358,-5.603 5.334,-5.603 2.351,0 3.394,1.153 4.391,2.095 0.388,0.377 0.935,0.495 1.369,0.164 l 2.366,-2.035 c 0.549,-0.441 0.762,-0.997 0.39,-1.541 -1.872,-2.911 -4.779,-4.611 -8.684,-4.611 -6.21,0 -11.649,4.942 -11.649,11.531 C -11.703,-5.056 -6.149,0 0,0" />
      </g>
      <g
         transform="matrix(0.65853662,0,0,-0.65853662,418.19694,482.53047)"
         id="g3516">
        <path
           inkscape:connector-curvature="0"
           id="path3518"
           style="fill:#4a4949;fill-opacity:1;fill-rule:nonzero;stroke:none"
           d="m 0,0 c 0,0.605 0.486,1.035 1.035,1.035 l 4.573,0 C 6.149,1.035 6.643,0.605 6.643,0 l 0,-19.889 c 0,-0.547 -0.494,-1.041 -1.035,-1.041 l -4.573,0 C 0.486,-20.93 0,-20.436 0,-19.889 L 0,0 Z m -0.501,12.635 c 0,2.085 1.657,3.794 3.743,3.794 2.138,0 3.843,-1.709 3.843,-3.794 0,-2.085 -1.705,-3.789 -3.843,-3.789 -2.086,0 -3.743,1.704 -3.743,3.789" />
      </g>
      <g
         transform="matrix(0.65853662,0,0,-0.65853662,426.55081,482.53047)"
         id="g3520">
        <path
           inkscape:connector-curvature="0"
           id="path3522"
           style="fill:#4a4949;fill-opacity:1;fill-rule:nonzero;stroke:none"
           d="m 0,0 c 0,0.605 0.502,1.035 1.051,1.035 l 2.076,0 C 3.63,1.035 3.91,0.769 4.071,0.384 L 4.84,-1.651 c 0.821,0.875 3.515,3.244 7.745,3.244 6.978,0 9.779,-5.223 9.779,-10.937 l 0,-10.545 c 0,-0.547 -0.495,-1.041 -1.035,-1.041 l -4.514,0 c -0.6,0 -1.048,0.494 -1.048,1.041 l 0,10.879 c 0,2.858 -1.485,4.673 -4.118,4.673 -2.853,0 -4.611,-1.983 -5.159,-3.464 l 0,-12.088 c 0,-0.767 -0.327,-1.041 -1.377,-1.041 l -4.062,0 C 0.502,-20.93 0,-20.436 0,-19.889 L 0,0 Z" />
      </g>
      <g
         transform="matrix(0.65853662,0,0,-0.65853662,449.78741,493.60277)"
         id="g3524">
        <path
           inkscape:connector-curvature="0"
           id="path3526"
           style="fill:#4a4949;fill-opacity:1;fill-rule:nonzero;stroke:none"
           d="m 0,0 c 1.758,0 3.455,1.484 3.789,2.143 l 0,3.027 c 0,0 -1.484,0.655 -3.074,0.655 -2.153,0 -3.577,-1.206 -3.577,-2.968 C -2.862,1.206 -1.704,0 0,0 m -0.114,9.782 c 2.19,0 4.01,-0.608 4.01,-0.608 0.061,2.804 -0.831,3.796 -2.862,3.796 -2.031,0 -4.886,-0.442 -6.148,-0.824 -0.769,-0.218 -1.157,0.277 -1.271,0.989 l -0.494,2.857 c -0.152,0.821 0.281,1.205 0.775,1.368 0.443,0.168 3.957,1.046 7.472,1.046 6.872,0 8.471,-3.571 8.471,-9.556 l 0,-11.925 c 0,-0.547 -0.503,-1.041 -1.059,-1.041 l -1.977,0 c -0.381,0 -0.656,0.156 -0.929,0.767 l -0.663,1.481 c -1.254,-1.153 -3.294,-2.8 -6.702,-2.8 -4.392,0 -7.412,2.857 -7.412,7.525 0,3.896 3.188,6.925 8.789,6.925" />
      </g>
      <g
         transform="matrix(0.65853662,0,0,-0.65853662,460.05966,471.67943)"
         id="g3528">
        <path
           inkscape:connector-curvature="0"
           id="path3530"
           style="fill:#4a4949;fill-opacity:1;fill-rule:nonzero;stroke:none"
           d="m 0,0 c 0,0.556 0.502,1.05 1.042,1.05 l 4.619,0 C 6.217,1.05 6.704,0.556 6.704,0 l 0,-36.366 c 0,-0.547 -0.487,-1.041 -1.043,-1.041 l -4.619,0 C 0.502,-37.407 0,-36.913 0,-36.366 L 0,0 Z" />
      </g>
      <g
         transform="matrix(0.65853662,0,0,-0.65853662,477.28836,487.26633)"
         id="g3532">
        <path
           inkscape:connector-curvature="0"
           id="path3534"
           style="fill:#4a4949;fill-opacity:1;fill-rule:nonzero;stroke:none"
           d="M 0,0 C -0.168,2.032 -1.941,3.729 -4.018,3.729 -6.219,3.729 -8.028,2.082 -8.303,0 L 0,0 Z m -3.858,8.784 c 5.661,0 10.28,-4.29 10.28,-10.218 0,-0.384 -0.061,-1.099 -0.114,-1.484 C 6.254,-3.467 5.76,-3.854 5.265,-3.854 l -14.063,0 c 0.16,-2.249 2.086,-4.783 5.274,-4.783 1.697,0 3.302,0.662 4.285,1.378 0.547,0.33 1.042,0.442 1.429,0 l 2.237,-2.579 c 0.405,-0.385 0.51,-0.994 -0.038,-1.431 -1.81,-1.702 -4.611,-3.021 -8.194,-3.021 -6.583,0 -11.255,5.22 -11.255,11.531 0,6.209 4.672,11.543 11.202,11.543" />
      </g>
      <g
         transform="matrix(0.65853662,0,0,-0.65853662,483.39655,494.58544)"
         id="g3536">
        <path
           inkscape:connector-curvature="0"
           id="path3538"
           style="fill:#4a4949;fill-opacity:1;fill-rule:nonzero;stroke:none"
           d="m 0,0 1.484,2.977 c 0.22,0.55 0.768,0.658 1.263,0.384 0,0 2.473,-1.317 4.998,-1.317 1.097,0 1.872,0.434 1.872,1.373 0,0.985 -0.775,1.595 -3.675,2.748 -4.238,1.65 -6.215,3.898 -6.215,7.255 0,3.341 2.48,6.478 8.081,6.478 3.24,0 5.607,-0.934 6.749,-1.707 0.495,-0.319 0.768,-0.932 0.495,-1.479 l -1.37,-2.797 c -0.267,-0.495 -0.876,-0.553 -1.317,-0.392 0,0 -2.472,1.153 -4.557,1.153 -1.31,0 -1.866,-0.548 -1.866,-1.256 0,-0.993 0.982,-1.323 3.014,-2.146 4.231,-1.654 7.419,-3.459 7.419,-7.747 0,-3.632 -3.188,-6.703 -8.735,-6.703 -3.63,0 -6.156,1.156 -7.314,2.031 C 0,-0.866 -0.213,-0.433 0,0" />
      </g>
      <g
         transform="matrix(0.65853662,0,0,-0.65853662,514.80051,492.04645)"
         id="g3540">
        <path
           inkscape:connector-curvature="0"
           id="path3542"
           style="fill:#4a4949;fill-opacity:1;fill-rule:nonzero;stroke:none"
           d="m 0,0 c 2.755,0 4.953,2.146 4.953,4.999 0,2.751 -2.745,4.783 -5.607,4.783 l -5.989,0 L -6.643,0 0,0 Z m -0.769,15.823 c 2.8,0 4.735,2.196 4.735,4.943 0,2.747 -1.935,4.671 -4.735,4.671 l -5.874,0 0,-9.614 5.874,0 z m -12.965,15.105 c 0,0.555 0.448,1.05 1.042,1.05 l 12.593,0 c 6.536,0 11.582,-4.403 11.582,-10.166 0,-4.231 -3.447,-7.527 -6.035,-8.739 2.9,-0.933 7.139,-3.9 7.139,-8.95 0,-6.155 -5.274,-10.602 -11.978,-10.602 l -13.301,0 c -0.594,0 -1.042,0.494 -1.042,1.041 l 0,36.366 z" />
      </g>
      <g
         transform="matrix(0.65853662,0,0,-0.65853662,530.94625,493.60277)"
         id="g3544">
        <path
           inkscape:connector-curvature="0"
           id="path3546"
           style="fill:#4a4949;fill-opacity:1;fill-rule:nonzero;stroke:none"
           d="m 0,0 c 1.751,0 3.455,1.484 3.782,2.143 l 0,3.027 c 0,0 -1.475,0.655 -3.074,0.655 -2.139,0 -3.569,-1.206 -3.569,-2.968 C -2.861,1.206 -1.704,0 0,0 m -0.113,9.782 c 2.198,0 4.009,-0.608 4.009,-0.608 0.054,2.804 -0.83,3.796 -2.854,3.796 -2.038,0 -4.893,-0.442 -6.163,-0.824 -0.768,-0.218 -1.149,0.277 -1.263,0.989 l -0.487,2.857 c -0.16,0.821 0.274,1.205 0.761,1.368 0.449,0.168 3.964,1.046 7.481,1.046 6.879,0 8.46,-3.571 8.46,-9.556 l 0,-11.925 c 0,-0.547 -0.502,-1.041 -1.042,-1.041 l -1.985,0 c -0.381,0 -0.655,0.156 -0.93,0.767 l -0.646,1.481 c -1.278,-1.153 -3.302,-2.8 -6.719,-2.8 -4.398,0 -7.412,2.857 -7.412,7.525 0,3.896 3.181,6.925 8.79,6.925" />
      </g>
      <g
         transform="matrix(0.65853662,0,0,-0.65853662,541.21916,482.53047)"
         id="g3548">
        <path
           inkscape:connector-curvature="0"
           id="path3550"
           style="fill:#4a4949;fill-opacity:1;fill-rule:nonzero;stroke:none"
           d="m 0,0 c 0,0.605 0.494,1.035 1.043,1.035 l 2.092,0 c 0.488,0 0.822,-0.266 0.989,-0.705 l 0.762,-2.142 c 0.775,1.092 2.8,3.405 6.209,3.405 2.587,0 4.893,-0.824 4.237,-2.198 l -2.031,-3.573 c -0.281,-0.49 -0.837,-0.708 -1.27,-0.49 -0.168,0.056 -0.982,0.331 -1.592,0.331 -2.199,0 -3.515,-1.489 -3.903,-2.257 l 0,-13.295 c 0,-0.767 -0.495,-1.041 -1.263,-1.041 l -4.23,0 C 0.494,-20.93 0,-20.436 0,-19.889 L 0,0 Z" />
      </g>
      <g
         transform="matrix(0.65853662,0,0,-0.65853662,553.20077,482.53047)"
         id="g3552">
        <path
           inkscape:connector-curvature="0"
           id="path3554"
           style="fill:#4a4949;fill-opacity:1;fill-rule:nonzero;stroke:none"
           d="m 0,0 c 0,0.605 0.494,1.035 1.034,1.035 l 2.085,0 c 0.495,0 0.837,-0.266 0.989,-0.705 l 0.769,-2.142 c 0.769,1.092 2.808,3.405 6.218,3.405 2.571,0 4.884,-0.824 4.23,-2.198 l -2.04,-3.573 c -0.273,-0.49 -0.828,-0.708 -1.263,-0.49 -0.159,0.056 -0.989,0.331 -1.589,0.331 -2.193,0 -3.516,-1.489 -3.904,-2.257 l 0,-13.295 c 0,-0.767 -0.495,-1.041 -1.262,-1.041 l -4.233,0 C 0.494,-20.93 0,-20.436 0,-19.889 L 0,0 Z" />
      </g>
      <g
         transform="matrix(0.65853662,0,0,-0.65853662,565.17218,482.53047)"
         id="g3556">
        <path
           inkscape:connector-curvature="0"
           id="path3558"
           style="fill:#4a4949;fill-opacity:1;fill-rule:nonzero;stroke:none"
           d="m 0,0 c 0,0.605 0.494,1.035 1.043,1.035 l 4.558,0 C 6.155,1.035 6.644,0.605 6.644,0 l 0,-19.889 c 0,-0.547 -0.489,-1.041 -1.043,-1.041 l -4.558,0 C 0.494,-20.93 0,-20.436 0,-19.889 L 0,0 Z m -0.495,12.635 c 0,2.085 1.652,3.794 3.737,3.794 2.138,0 3.85,-1.709 3.85,-3.794 0,-2.085 -1.712,-3.789 -3.85,-3.789 -2.085,0 -3.737,1.704 -3.737,3.789" />
      </g>
      <g
         transform="matrix(0.65853662,0,0,-0.65853662,578.34159,493.60277)"
         id="g3560">
        <path
           inkscape:connector-curvature="0"
           id="path3562"
           style="fill:#4a4949;fill-opacity:1;fill-rule:nonzero;stroke:none"
           d="m 0,0 c 1.757,0 3.462,1.484 3.789,2.143 l 0,3.027 c 0,0 -1.484,0.655 -3.067,0.655 -2.153,0 -3.576,-1.206 -3.576,-2.968 C -2.854,1.206 -1.697,0 0,0 m -0.107,9.782 c 2.199,0 4.01,-0.608 4.01,-0.608 0.054,2.804 -0.821,3.796 -2.854,3.796 -2.038,0 -4.893,-0.442 -6.156,-0.824 -0.768,-0.218 -1.156,0.277 -1.263,0.989 l -0.502,2.857 c -0.152,0.821 0.273,1.205 0.768,1.368 0.45,0.168 3.965,1.046 7.481,1.046 6.871,0 8.454,-3.571 8.454,-9.556 l 0,-11.925 c 0,-0.547 -0.487,-1.041 -1.035,-1.041 l -1.985,0 c -0.381,0 -0.664,0.156 -0.937,0.767 L 5.22,-1.868 c -1.263,-1.153 -3.296,-2.8 -6.698,-2.8 -4.397,0 -7.418,2.857 -7.418,7.525 0,3.896 3.181,6.925 8.789,6.925" />
      </g>
      <g
         transform="matrix(0.65853662,0,0,-0.65853662,588.61898,471.67943)"
         id="g3564">
        <path
           inkscape:connector-curvature="0"
           id="path3566"
           style="fill:#4a4949;fill-opacity:1;fill-rule:nonzero;stroke:none"
           d="m 0,0 c 0,0.556 0.495,1.05 1.05,1.05 l 4.611,0 C 6.209,1.05 6.695,0.556 6.695,0 l 0,-36.366 c 0,-0.547 -0.486,-1.041 -1.034,-1.041 l -4.611,0 c -0.555,0 -1.05,0.494 -1.05,1.041 L 0,0 Z" />
      </g>
      <g
         transform="matrix(0.65853662,0,0,-0.65853662,605.83682,487.26633)"
         id="g3568">
        <path
           inkscape:connector-curvature="0"
           id="path3570"
           style="fill:#4a4949;fill-opacity:1;fill-rule:nonzero;stroke:none"
           d="M 0,0 C -0.159,2.032 -1.926,3.729 -4.002,3.729 -6.201,3.729 -8.021,2.082 -8.294,0 L 0,0 Z m -3.843,8.784 c 5.661,0 10.281,-4.29 10.281,-10.218 0,-0.384 -0.053,-1.099 -0.114,-1.484 C 6.271,-3.467 5.775,-3.854 5.281,-3.854 l -14.061,0 c 0.166,-2.249 2.085,-4.783 5.264,-4.783 1.713,0 3.303,0.662 4.3,1.378 0.548,0.33 1.034,0.442 1.415,0 l 2.253,-2.579 c 0.388,-0.385 0.502,-0.994 -0.054,-1.431 -1.811,-1.702 -4.611,-3.021 -8.187,-3.021 -6.597,0 -11.262,5.22 -11.262,11.531 0,6.209 4.665,11.543 11.208,11.543" />
      </g>
      <g
         transform="matrix(0.65853662,0,0,-0.65853662,611.96108,494.58544)"
         id="g3572">
        <path
           inkscape:connector-curvature="0"
           id="path3574"
           style="fill:#4a4949;fill-opacity:1;fill-rule:nonzero;stroke:none"
           d="m 0,0 1.476,2.977 c 0.212,0.55 0.768,0.658 1.263,0.384 0,0 2.472,-1.317 5.007,-1.317 1.095,0 1.863,0.434 1.863,1.373 0,0.985 -0.768,1.595 -3.681,2.748 -4.24,1.65 -6.203,3.898 -6.203,7.255 0,3.341 2.459,6.478 8.066,6.478 3.242,0 5.608,-0.934 6.758,-1.707 0.502,-0.319 0.768,-0.932 0.502,-1.479 l -1.37,-2.797 c -0.282,-0.495 -0.89,-0.553 -1.325,-0.392 0,0 -2.472,1.153 -4.565,1.153 -1.309,0 -1.863,-0.548 -1.863,-1.256 0,-0.993 0.98,-1.323 3.02,-2.146 4.224,-1.654 7.419,-3.459 7.419,-7.747 0,-3.632 -3.195,-6.703 -8.735,-6.703 -3.637,0 -6.156,1.156 -7.305,2.031 C 0,-0.866 -0.229,-0.433 0,0" />
      </g>
      <g
         transform="matrix(0.65853662,0,0,-0.65853662,283.56993,503.03065)"
         id="g3576">
        <path
           inkscape:connector-curvature="0"
           id="path3578"
           style="fill:#4a4949;fill-opacity:1;fill-rule:nonzero;stroke:none"
           d="m 0,0 c -0.327,0.715 0.121,1.426 0.943,1.426 l 2.192,0 c 0.495,0 0.822,-0.322 0.936,-0.605 l 13.673,-30.764 0.229,0 13.673,30.764 c 0.107,0.283 0.495,0.605 0.936,0.605 l 2.199,0 C 35.604,1.426 36.046,0.715 35.71,0 L 19.016,-36.975 C 18.84,-37.298 18.521,-37.58 18.08,-37.58 l -0.549,0 c -0.387,0 -0.768,0.282 -0.943,0.605 L 0,0 Z" />
      </g>
      <g
         transform="matrix(0.65853662,0,0,-0.65853662,309.26123,513.63223)"
         id="g3580">
        <path
           inkscape:connector-curvature="0"
           id="path3582"
           style="fill:#4a4949;fill-opacity:1;fill-rule:nonzero;stroke:none"
           d="m 0,0 c 0,0.552 0.495,1.046 1.05,1.046 l 1.705,0 C 3.303,1.046 3.798,0.552 3.798,0 l 0,-19.892 c 0,-0.539 -0.495,-1.038 -1.043,-1.038 l -1.705,0 C 0.495,-20.93 0,-20.431 0,-19.892 L 0,0 Z m -0.768,13.792 c 0,1.484 1.156,2.638 2.58,2.638 1.491,0 2.64,-1.154 2.64,-2.638 0,-1.427 -1.149,-2.584 -2.64,-2.584 -1.424,0 -2.58,1.157 -2.58,2.584" />
      </g>
      <g
         transform="matrix(0.65853662,0,0,-0.65853662,322.90176,512.57943)"
         id="g3584">
        <path
           inkscape:connector-curvature="0"
           id="path3586"
           style="fill:#4a4949;fill-opacity:1;fill-rule:nonzero;stroke:none"
           d="M 0,0 C 3.294,0 5.881,-1.328 7.86,-3.851 8.248,-4.346 8.134,-5.004 7.632,-5.392 L 6.597,-6.27 C 5.775,-7.035 5.5,-6.487 4.999,-6.05 c -1.104,1.272 -2.907,2.306 -5.052,2.306 -4.125,0 -7.305,-3.402 -7.305,-7.797 0,-4.394 3.127,-7.913 7.251,-7.913 3.295,0 4.559,1.652 5.822,2.857 0.661,0.662 1.041,0.553 1.651,0.107 l 0.609,-0.438 c 0.548,-0.384 0.707,-0.985 0.372,-1.537 -1.636,-2.636 -4.665,-4.615 -8.4,-4.615 -6.096,0 -11.262,4.893 -11.262,11.487 C -11.315,-5.118 -5.981,0 0,0" />
      </g>
      <g
         transform="matrix(0.65853662,0,0,-0.65853662,342.22441,518.77125)"
         id="g3588">
        <path
           inkscape:connector-curvature="0"
           id="path3590"
           style="fill:#4a4949;fill-opacity:1;fill-rule:nonzero;stroke:none"
           d="M 0,0 C -0.168,3.185 -2.801,6.046 -6.156,6.046 -9.839,6.046 -12.692,3.413 -13.073,0 L 0,0 Z m -6.156,9.402 c 5.775,0 9.952,-4.283 9.952,-10.056 0,-0.387 -0.061,-1.099 -0.113,-1.485 C 3.63,-2.689 3.188,-3.074 2.694,-3.074 l -15.82,0 c 0.221,-3.682 3.455,-7.137 7.365,-7.137 2.306,0 4.162,0.871 5.434,1.644 0.768,0.433 1.095,0.712 1.536,0.109 0.336,-0.44 0.603,-0.824 0.937,-1.263 0.387,-0.49 0.602,-0.826 -0.222,-1.43 -1.315,-1.042 -4.291,-2.527 -8.08,-2.527 -6.651,0 -10.76,5.22 -10.76,11.539 0,6.21 4.109,11.541 10.76,11.541" />
      </g>
      <g
         transform="matrix(0.65853662,0,0,-0.65853662,348.30264,513.63223)"
         id="g3592">
        <path
           inkscape:connector-curvature="0"
           id="path3594"
           style="fill:#4a4949;fill-opacity:1;fill-rule:nonzero;stroke:none"
           d="m 0,0 c 0,0.552 0.509,1.046 1.05,1.046 l 1.042,0 c 0.495,0 0.768,-0.217 0.883,-0.658 l 0.487,-1.704 c 0,0 3.128,2.915 7.701,2.915 6.369,0 8.507,-4.178 8.507,-9.897 l 0,-11.594 c 0,-0.539 -0.487,-1.038 -1.043,-1.038 l -1.758,0 c -0.555,0 -1.05,0.499 -1.05,1.038 l 0,11.594 c 0,4.182 -1.863,6.213 -4.931,6.213 -4.123,0 -7.092,-3.135 -7.092,-3.135 l 0,-14.672 c 0,-0.539 -0.502,-1.038 -1.05,-1.038 l -1.696,0 C 0.509,-20.93 0,-20.431 0,-19.892 L 0,0 Z" />
      </g>
      <g
         transform="matrix(0.65853662,0,0,-0.65853662,366.78802,515.11519)"
         id="g3596">
        <path
           inkscape:connector-curvature="0"
           id="path3598"
           style="fill:#4a4949;fill-opacity:1;fill-rule:nonzero;stroke:none"
           d="M 0,0 -2.792,0 C -3.4,0 -3.834,0.494 -3.834,1.043 l 0,1.209 c 0,0.605 0.434,1.046 1.042,1.046 l 2.792,0 0,6.096 c 0,0.552 0.51,1.045 1.059,1.045 l 1.749,0.112 c 0.555,0 0.99,-0.495 0.99,-1.048 l 0,-6.205 6.384,0 c 0.593,0 1.035,-2.255 1.035,-2.255 C 11.217,0.494 10.775,0 10.182,0 l -6.384,0 0,-12.853 c 0,-2.195 0.548,-2.639 1.811,-2.639 1.384,0 3.303,0.821 4.018,1.205 0.821,0.438 1.043,0.107 1.316,-0.327 l 0.815,-1.373 c 0.394,-0.662 0.226,-0.993 -0.373,-1.377 -0.778,-0.495 -3.737,-1.865 -6.324,-1.865 -4.39,0 -5.061,2.64 -5.061,6.039 L 0,0 Z" />
      </g>
      <g
         transform="matrix(0.65853662,0,0,-0.65853662,387.96083,518.77125)"
         id="g3600">
        <path
           inkscape:connector-curvature="0"
           id="path3602"
           style="fill:#4a4949;fill-opacity:1;fill-rule:nonzero;stroke:none"
           d="M 0,0 C -0.161,3.185 -2.801,6.046 -6.157,6.046 -9.824,6.046 -12.692,3.413 -13.073,0 L 0,0 Z m -6.157,9.402 c 5.776,0 9.953,-4.283 9.953,-10.056 0,-0.387 -0.061,-1.099 -0.114,-1.485 -0.054,-0.55 -0.495,-0.935 -0.996,-0.935 l -15.822,0 c 0.222,-3.682 3.471,-7.137 7.374,-7.137 2.291,0 4.17,0.871 5.433,1.644 0.77,0.433 1.104,0.712 1.545,0.109 0.32,-0.44 0.594,-0.824 0.93,-1.263 0.387,-0.49 0.6,-0.826 -0.222,-1.43 -1.317,-1.042 -4.291,-2.527 -8.081,-2.527 -6.643,0 -10.768,5.22 -10.768,11.539 0,6.21 4.125,11.541 10.768,11.541" />
      </g>
      <g
         transform="matrix(0.65853662,0,0,-0.65853662,402.82808,502.77855)"
         id="g3604">
        <path
           inkscape:connector-curvature="0"
           id="path3606"
           style="fill:#4a4949;fill-opacity:1;fill-rule:nonzero;stroke:none"
           d="m 0,0 c 0,0.549 0.441,1.043 1.051,1.043 l 2.145,0 C 3.744,1.043 4.239,0.549 4.239,0 l 0,-33.732 15.819,0 c 0.609,0 1.044,-0.494 1.044,-1.046 l 0,-1.595 c 0,-0.539 -0.435,-1.038 -1.044,-1.038 l -19.007,0 C 0.441,-37.411 0,-36.912 0,-36.373 L 0,0 Z" />
      </g>
      <g
         transform="matrix(0.65853662,0,0,-0.65853662,421.53915,506.32076)"
         id="g3608">
        <path
           inkscape:connector-curvature="0"
           id="path3610"
           style="fill:#4a4949;fill-opacity:1;fill-rule:nonzero;stroke:none"
           d="m 0,0 c -0.204,0.435 0,0.875 0.336,1.039 l 8.24,4.618 C 8.896,5.871 9.725,5.981 10,5.49 L 10.988,3.512 C 11.209,3.07 11.103,2.526 10.654,2.362 L 1.819,-1.32 C 1.05,-1.65 0.77,-1.65 0.548,-1.207 L 0,0 Z m 5.495,-29.012 c 4.01,0 7.146,3.574 7.146,8.021 0,4.342 -3.136,7.86 -7.146,7.86 -4.011,0 -7.145,-3.518 -7.145,-7.86 0,-4.447 3.134,-8.021 7.145,-8.021 m 0,19.508 c 6.102,0 10.942,-5.277 10.942,-11.487 0,-6.315 -4.84,-11.593 -10.942,-11.593 -6.096,0 -10.934,5.278 -10.934,11.593 0,6.21 4.838,11.487 10.934,11.487" />
      </g>
      <g
         transform="matrix(0.65853662,0,0,-0.65853662,442.16024,525.35531)"
         id="g3612">
        <path
           inkscape:connector-curvature="0"
           id="path3614"
           style="fill:#4a4949;fill-opacity:1;fill-rule:nonzero;stroke:none"
           d="m 0,0 c 4.23,0 7.206,3.466 7.206,7.859 0,4.289 -2.534,8.076 -6.933,8.076 -3.569,0 -5.6,-2.69 -5.6,-2.69 l 0,-11.319 C -5.327,1.926 -3.021,0 0,0 m -5.381,-18.571 c 0,-0.551 -0.494,-1.038 -1.034,-1.038 l -1.704,0 c -0.556,0 -1.051,0.487 -1.051,1.038 l 0,36.373 c 0,0.552 0.495,1.046 1.051,1.046 l 1.141,0 c 0.496,0 0.662,-0.167 0.883,-0.719 l 0.388,-1.042 c 0,0 2.411,2.313 6.368,2.313 5.989,0 10.388,-5.277 10.388,-11.592 0,-6.438 -4.505,-11.488 -10.547,-11.488 -3.621,0 -5.883,1.816 -5.883,1.816 l 0,-16.707 z" />
      </g>
      <g
         transform="matrix(0.65853662,0,0,-0.65853662,463.25653,518.77125)"
         id="g3616">
        <path
           inkscape:connector-curvature="0"
           id="path3618"
           style="fill:#4a4949;fill-opacity:1;fill-rule:nonzero;stroke:none"
           d="M 0,0 C -0.159,3.185 -2.792,6.046 -6.148,6.046 -9.83,6.046 -12.685,3.413 -13.072,0 L 0,0 Z m -6.148,9.402 c 5.76,0 9.938,-4.283 9.938,-10.056 0,-0.387 -0.061,-1.099 -0.106,-1.485 C 3.63,-2.689 3.189,-3.074 2.701,-3.074 l -15.834,0 c 0.228,-3.682 3.469,-7.137 7.365,-7.137 2.314,0 4.185,0.871 5.442,1.644 0.767,0.433 1.103,0.712 1.536,0.109 0.327,-0.44 0.609,-0.824 0.936,-1.263 0.38,-0.49 0.602,-0.826 -0.228,-1.43 -1.309,-1.042 -4.284,-2.527 -8.066,-2.527 -6.651,0 -10.767,5.22 -10.767,11.539 0,6.21 4.116,11.541 10.767,11.541" />
      </g>
      <g
         transform="matrix(0.65853662,0,0,-0.65853662,468.06759,526.36754)"
         id="g3620">
        <path
           inkscape:connector-curvature="0"
           id="path3622"
           style="fill:#4a4949;fill-opacity:1;fill-rule:nonzero;stroke:none"
           d="m 0,0 10.774,16.76 0,0.159 -9.229,0 c -0.549,0 -0.99,0.499 -0.99,1.047 l 0,1.373 c 0,0.605 0.441,1.046 0.99,1.046 l 13.796,0 c 0.813,0 1.368,-0.776 0.928,-1.487 L 5.774,2.039 l 0,-0.171 8.455,0 c 0.617,0 1.051,-0.438 1.051,-1.039 l 0,-1.382 c 0,-0.539 -0.434,-1.038 -1.051,-1.038 l -13.179,0 C 0.501,-1.591 0,-1.092 0,-0.553 L 0,0 Z" />
      </g>
    </g>
  </g>
</svg>
